%
M48
M72
T01C0.0276
T02C0.0315
T03C0.0320
T04C0.0335
T05C0.0394
T06C0.0400
T07C0.0402
T08C0.0630
T09C0.0949
T10C0.0984
%
T01
X4450Y4089
X8000Y4989
X8850Y5939
X7800Y6989
X8100Y8189
X8800Y9989
X4700Y9889
X4050Y10339
X13595Y12874
X14705Y12989
X14705Y10997
X15100Y7989
X15450Y7489
X15750Y6939
X15900Y6339
X15200Y5639
X15900Y5339
X19660Y10309
X20660Y10309
X20610Y10909
X20610Y11509
X20710Y12359
X20510Y13009
X20505Y13639
X20510Y14209
T02
X10529Y7463
X10539Y5494
X7761Y2259
X6761Y2259
T03
X19200Y9489
X20200Y9489
X21200Y9489
X22200Y9489
X23200Y9489
X24200Y9489
T04
X25493Y9299
X26280Y9299
X27068Y9299
T05
X28650Y7889
X28650Y7139
X28650Y6389
X27850Y6339
X27560Y7128
X26250Y6239
X25001Y5356
X27050Y4489
X27900Y4489
X27560Y5356
X29050Y5789
X31350Y4139
X30950Y3539
X30600Y2939
X30250Y3539
X29800Y4089
X29400Y3539
X29800Y2989
X29450Y2389
X30200Y2389
X30950Y2389
X31350Y1739
X30600Y1589
X29850Y1589
X29100Y1589
X28400Y1739
X28605Y2379
X27700Y1739
X27000Y1739
X26650Y2339
X28900Y2989
X31350Y2939
X25001Y7128
X23850Y3039
X23850Y1689
X12180Y5349
X10700Y9189
X13815Y13519
X13600Y14159
X12900Y14139
X12200Y14139
X14350Y14139
X15100Y14139
X15850Y14139
X15760Y13459
X16200Y12939
X16650Y13489
X17100Y12939
X17550Y13489
X17950Y12939
X18100Y14139
X17350Y14139
X16600Y14139
X18850Y14139
X19600Y14139
X20100Y12339
X22600Y13489
X23350Y13489
X24900Y12289
X26150Y12289
X27500Y12289
X28850Y12089
T06
X22380Y6549
X22380Y5549
X22380Y4549
X22380Y3549
X22380Y2549
X17180Y2349
X16180Y2349
X15180Y2349
X14180Y2349
X13180Y2349
X12180Y2349
X11180Y2349
X10180Y2349
X9180Y2349
T07
X13144Y9892
X12774Y11061
X11593Y11061
X11593Y12242
X12774Y12242
X13144Y13431
T08
X5447Y12483
X3282Y12483
T09
X12183Y13096
X12183Y10222
T10
X9392Y13490
X25140Y2270
M30
