G75*
G70*
%OFA0B0*%
%FSLAX24Y24*%
%IPPOS*%
%LPD*%
%AMOC8*
5,1,8,0,0,1.08239X$1,22.5*
%
%ADD10C,0.0030*%
%ADD11C,0.0100*%
%ADD12C,0.0080*%
%ADD13C,0.0050*%
%ADD14C,0.0040*%
%ADD15C,0.0010*%
%ADD16C,0.0060*%
D10*
X005901Y001872D02*
X005901Y002017D01*
X005950Y002065D01*
X006046Y002065D01*
X006095Y002017D01*
X006095Y001872D01*
X006192Y001872D02*
X005901Y001872D01*
X005998Y002166D02*
X005901Y002263D01*
X006192Y002263D01*
X006192Y002166D02*
X006192Y002360D01*
X008245Y002379D02*
X008492Y002379D01*
X008615Y002255D01*
X008492Y002132D01*
X008245Y002132D01*
X008307Y002010D02*
X008245Y001949D01*
X008245Y001825D01*
X008307Y001764D01*
X008368Y001764D01*
X008430Y001825D01*
X008430Y001949D01*
X008492Y002010D01*
X008554Y002010D01*
X008615Y001949D01*
X008615Y001825D01*
X008554Y001764D01*
X008615Y002500D02*
X008615Y002747D01*
X008615Y002624D02*
X008245Y002624D01*
X008368Y002500D01*
X008615Y003514D02*
X008615Y003885D01*
X008800Y003885D01*
X008862Y003823D01*
X008862Y003700D01*
X008800Y003638D01*
X008615Y003638D01*
X008738Y003638D02*
X008862Y003514D01*
X008983Y003514D02*
X009230Y003514D01*
X009107Y003514D02*
X009107Y003885D01*
X008983Y003761D01*
X009352Y003823D02*
X009352Y003576D01*
X009598Y003823D01*
X009598Y003576D01*
X009537Y003514D01*
X009413Y003514D01*
X009352Y003576D01*
X009352Y003823D02*
X009413Y003885D01*
X009537Y003885D01*
X009598Y003823D01*
X011043Y003589D02*
X011043Y003343D01*
X011105Y003281D01*
X011228Y003281D01*
X011290Y003343D01*
X011290Y003589D01*
X011228Y003651D01*
X011105Y003651D01*
X011043Y003589D01*
X011166Y003404D02*
X011290Y003281D01*
X011411Y003281D02*
X011658Y003281D01*
X011535Y003281D02*
X011535Y003651D01*
X011411Y003528D01*
X012789Y005229D02*
X012789Y005599D01*
X012974Y005599D01*
X013036Y005537D01*
X013036Y005414D01*
X012974Y005352D01*
X012789Y005352D01*
X012913Y005352D02*
X013036Y005229D01*
X013158Y005290D02*
X013219Y005229D01*
X013343Y005229D01*
X013404Y005290D01*
X013404Y005537D01*
X013343Y005599D01*
X013219Y005599D01*
X013158Y005537D01*
X013158Y005475D01*
X013219Y005414D01*
X013404Y005414D01*
X012606Y007041D02*
X012359Y007041D01*
X012237Y007041D02*
X011991Y007041D01*
X011991Y007103D01*
X012237Y007350D01*
X012237Y007411D01*
X011991Y007411D01*
X012359Y007288D02*
X012482Y007411D01*
X012482Y007041D01*
X011042Y007842D02*
X010795Y007840D01*
X010673Y007839D02*
X010427Y007838D01*
X010426Y007899D01*
X010671Y008148D01*
X010671Y008210D01*
X010424Y008208D01*
X010303Y008145D02*
X010304Y008084D01*
X010242Y008022D01*
X010057Y008020D01*
X010058Y007835D02*
X010056Y008205D01*
X010241Y008207D01*
X010303Y008145D01*
X010242Y008022D02*
X010304Y007960D01*
X010305Y007899D01*
X010244Y007836D01*
X010058Y007835D01*
X010793Y008087D02*
X010916Y008211D01*
X010918Y007841D01*
X008844Y007712D02*
X008844Y007465D01*
X008782Y007404D01*
X008659Y007404D01*
X008597Y007465D01*
X008476Y007465D02*
X008414Y007404D01*
X008290Y007404D01*
X008229Y007465D01*
X008229Y007712D01*
X008290Y007774D01*
X008414Y007774D01*
X008476Y007712D01*
X008597Y007712D02*
X008597Y007650D01*
X008659Y007589D01*
X008844Y007589D01*
X008844Y007712D02*
X008782Y007774D01*
X008659Y007774D01*
X008597Y007712D01*
X016165Y011614D02*
X016227Y011552D01*
X016350Y011552D01*
X016412Y011614D01*
X016534Y011614D02*
X016534Y011552D01*
X016534Y011614D02*
X016780Y011861D01*
X016780Y011922D01*
X016534Y011922D01*
X016412Y011861D02*
X016350Y011922D01*
X016227Y011922D01*
X016165Y011861D01*
X016165Y011614D01*
X017190Y011547D02*
X017190Y011176D01*
X017190Y011300D02*
X017375Y011300D01*
X017436Y011362D01*
X017436Y011485D01*
X017375Y011547D01*
X017190Y011547D01*
X017313Y011300D02*
X017436Y011176D01*
X017558Y011176D02*
X017805Y011423D01*
X017805Y011485D01*
X017743Y011547D01*
X017620Y011547D01*
X017558Y011485D01*
X017558Y011176D02*
X017805Y011176D01*
X018165Y010137D02*
X018535Y010137D01*
X018535Y009890D02*
X018165Y009890D01*
X018288Y010014D01*
X018165Y010137D01*
X018227Y009769D02*
X018165Y009707D01*
X018165Y009584D01*
X018227Y009522D01*
X018474Y009522D01*
X018535Y009584D01*
X018535Y009707D01*
X018474Y009769D01*
X018535Y009400D02*
X018535Y009154D01*
X018165Y009154D01*
X021309Y008384D02*
X021309Y008014D01*
X021309Y008137D02*
X021494Y008137D01*
X021556Y008199D01*
X021556Y008322D01*
X021494Y008384D01*
X021309Y008384D01*
X021432Y008137D02*
X021556Y008014D01*
X021677Y008075D02*
X021739Y008014D01*
X021862Y008014D01*
X021924Y008075D01*
X021924Y008137D01*
X021862Y008199D01*
X021677Y008199D01*
X021677Y008075D01*
X021677Y008199D02*
X021800Y008322D01*
X021924Y008384D01*
X024154Y008184D02*
X024154Y007814D01*
X024154Y007937D02*
X024339Y007937D01*
X024400Y007999D01*
X024400Y008122D01*
X024339Y008184D01*
X024154Y008184D01*
X024277Y007937D02*
X024400Y007814D01*
X024522Y007875D02*
X024584Y007814D01*
X024707Y007814D01*
X024769Y007875D01*
X024769Y007999D01*
X024707Y008060D01*
X024645Y008060D01*
X024522Y007999D01*
X024522Y008184D01*
X024769Y008184D01*
X025540Y008164D02*
X025540Y008534D01*
X025909Y008534D02*
X025909Y008164D01*
X026156Y008164D01*
X026277Y008164D02*
X026462Y008164D01*
X026524Y008225D01*
X026524Y008472D01*
X026462Y008534D01*
X026277Y008534D01*
X026277Y008164D01*
X026032Y008349D02*
X025909Y008349D01*
X025909Y008534D02*
X026156Y008534D01*
X025787Y008164D02*
X025540Y008164D01*
X024525Y006458D02*
X024525Y006088D01*
X024648Y006088D02*
X024401Y006088D01*
X024280Y006149D02*
X024218Y006088D01*
X024095Y006088D01*
X024033Y006149D01*
X024095Y006273D02*
X024218Y006273D01*
X024280Y006211D01*
X024280Y006149D01*
X024401Y006334D02*
X024525Y006458D01*
X024280Y006396D02*
X024218Y006458D01*
X024095Y006458D01*
X024033Y006396D01*
X024033Y006334D01*
X024095Y006273D01*
X024950Y003964D02*
X025135Y003964D01*
X025197Y003902D01*
X025197Y003779D01*
X025135Y003717D01*
X024950Y003717D01*
X024950Y003594D02*
X024950Y003964D01*
X025074Y003717D02*
X025197Y003594D01*
X025319Y003594D02*
X025319Y003655D01*
X025565Y003902D01*
X025565Y003964D01*
X025319Y003964D01*
X027284Y004254D02*
X027345Y004192D01*
X027469Y004192D01*
X027530Y004254D01*
X027652Y004192D02*
X027899Y004192D01*
X027775Y004192D02*
X027775Y004563D01*
X027652Y004439D01*
X027530Y004501D02*
X027469Y004563D01*
X027345Y004563D01*
X027284Y004501D01*
X027284Y004254D01*
X029865Y005835D02*
X029865Y006082D01*
X029927Y006143D01*
X030050Y006143D01*
X030112Y006082D01*
X030234Y006082D02*
X030295Y006143D01*
X030419Y006143D01*
X030480Y006082D01*
X030480Y006020D01*
X030234Y005773D01*
X030480Y005773D01*
X030112Y005835D02*
X030050Y005773D01*
X029927Y005773D01*
X029865Y005835D01*
X031215Y005780D02*
X031277Y005718D01*
X031215Y005780D02*
X031215Y005904D01*
X031277Y005965D01*
X031338Y005965D01*
X031585Y005718D01*
X031585Y005965D01*
X031400Y006087D02*
X031400Y006334D01*
X031277Y006455D02*
X031524Y006455D01*
X031277Y006702D01*
X031524Y006702D01*
X031585Y006640D01*
X031585Y006517D01*
X031524Y006455D01*
X031277Y006455D02*
X031215Y006517D01*
X031215Y006640D01*
X031277Y006702D01*
X031338Y006823D02*
X031215Y006947D01*
X031585Y006947D01*
X031585Y007070D02*
X031585Y006823D01*
X031565Y007614D02*
X031565Y007807D01*
X031565Y007710D02*
X031275Y007710D01*
X031372Y007614D01*
X031323Y007908D02*
X031275Y007956D01*
X031275Y008053D01*
X031323Y008102D01*
X031517Y007908D01*
X031565Y007956D01*
X031565Y008053D01*
X031517Y008102D01*
X031323Y008102D01*
X031420Y008203D02*
X031420Y008396D01*
X031323Y008497D02*
X031275Y008546D01*
X031275Y008643D01*
X031323Y008691D01*
X031372Y008691D01*
X031565Y008497D01*
X031565Y008691D01*
X031517Y008792D02*
X031565Y008840D01*
X031565Y008937D01*
X031517Y008986D01*
X031469Y008986D01*
X031420Y008937D01*
X031420Y008792D01*
X031517Y008792D01*
X031420Y008792D02*
X031323Y008889D01*
X031275Y008986D01*
X031420Y009087D02*
X031420Y009280D01*
X031372Y009381D02*
X031275Y009478D01*
X031565Y009478D01*
X031565Y009381D02*
X031565Y009575D01*
X031517Y009676D02*
X031323Y009869D01*
X031517Y009869D01*
X031565Y009821D01*
X031565Y009724D01*
X031517Y009676D01*
X031323Y009676D01*
X031275Y009724D01*
X031275Y009821D01*
X031323Y009869D01*
X028917Y009564D02*
X028794Y009503D01*
X028670Y009379D01*
X028855Y009379D01*
X028917Y009317D01*
X028917Y009256D01*
X028855Y009194D01*
X028732Y009194D01*
X028670Y009256D01*
X028670Y009379D01*
X028549Y009256D02*
X028487Y009194D01*
X028364Y009194D01*
X028302Y009256D01*
X028302Y009503D01*
X028364Y009564D01*
X028487Y009564D01*
X028549Y009503D01*
X028517Y008602D02*
X028393Y008602D01*
X028332Y008540D01*
X028332Y008293D01*
X028393Y008231D01*
X028517Y008231D01*
X028578Y008293D01*
X028700Y008293D02*
X028762Y008231D01*
X028885Y008231D01*
X028947Y008293D01*
X028947Y008417D01*
X028885Y008478D01*
X028823Y008478D01*
X028700Y008417D01*
X028700Y008602D01*
X028947Y008602D01*
X028578Y008540D02*
X028517Y008602D01*
X031323Y007908D02*
X031517Y007908D01*
X031462Y005597D02*
X031215Y005597D01*
X031215Y005350D02*
X031462Y005350D01*
X031585Y005474D01*
X031462Y005597D01*
X031462Y005229D02*
X031524Y005229D01*
X031585Y005167D01*
X031585Y004982D01*
X031215Y004982D01*
X031215Y005167D01*
X031277Y005229D01*
X031338Y005229D01*
X031400Y005167D01*
X031400Y004982D01*
X031400Y005167D02*
X031462Y005229D01*
X031585Y004860D02*
X031400Y004675D01*
X031462Y004614D02*
X031215Y004860D01*
X031215Y004614D02*
X031585Y004614D01*
X030154Y001833D02*
X030154Y001463D01*
X030031Y001463D02*
X030278Y001463D01*
X030031Y001710D02*
X030154Y001833D01*
X029909Y001771D02*
X029909Y001648D01*
X029848Y001586D01*
X029663Y001586D01*
X029541Y001586D02*
X029541Y001833D01*
X029663Y001833D02*
X029848Y001833D01*
X029909Y001771D01*
X029786Y001586D02*
X029909Y001463D01*
X029663Y001463D02*
X029663Y001833D01*
X029541Y001586D02*
X029418Y001463D01*
X029294Y001586D01*
X029294Y001833D01*
X022979Y001672D02*
X022979Y001549D01*
X022917Y001487D01*
X022732Y001487D01*
X022610Y001487D02*
X022610Y001734D01*
X022732Y001734D02*
X022917Y001734D01*
X022979Y001672D01*
X022732Y001734D02*
X022732Y001364D01*
X022610Y001487D02*
X022487Y001364D01*
X022364Y001487D01*
X022364Y001734D01*
X021995Y001734D02*
X021995Y001364D01*
X022242Y001364D01*
X021430Y001783D02*
X021368Y001721D01*
X021245Y001721D01*
X021183Y001783D01*
X021183Y001844D01*
X021245Y001906D01*
X021368Y001906D01*
X021430Y001844D01*
X021430Y001783D01*
X021368Y001906D02*
X021430Y001968D01*
X021430Y002029D01*
X021368Y002091D01*
X021245Y002091D01*
X021183Y002029D01*
X021183Y001968D01*
X021245Y001906D01*
X021062Y001906D02*
X021000Y001844D01*
X020815Y001844D01*
X020815Y001721D02*
X020815Y002091D01*
X021000Y002091D01*
X021062Y002029D01*
X021062Y001906D01*
X020938Y001844D02*
X021062Y001721D01*
X020109Y001757D02*
X020047Y001695D01*
X019924Y001695D01*
X019862Y001757D01*
X019862Y001819D01*
X019924Y001880D01*
X020047Y001880D01*
X020109Y001819D01*
X020109Y001757D01*
X020047Y001880D02*
X020109Y001942D01*
X020109Y002004D01*
X020047Y002066D01*
X019924Y002066D01*
X019862Y002004D01*
X019862Y001942D01*
X019924Y001880D01*
X019740Y001757D02*
X019679Y001695D01*
X019555Y001695D01*
X019494Y001757D01*
X019494Y002004D01*
X019555Y002066D01*
X019679Y002066D01*
X019740Y002004D01*
X019170Y004160D02*
X018923Y004160D01*
X019046Y004160D02*
X019046Y004531D01*
X018923Y004407D01*
X018802Y004469D02*
X018740Y004531D01*
X018616Y004531D01*
X018555Y004469D01*
X018555Y004222D01*
X018616Y004160D01*
X018740Y004160D01*
X018802Y004222D01*
X018433Y004160D02*
X018309Y004160D01*
X018371Y004160D02*
X018371Y004531D01*
X018309Y004531D02*
X018433Y004531D01*
X022666Y012586D02*
X022851Y012586D01*
X022913Y012647D01*
X022913Y012894D01*
X022851Y012956D01*
X022666Y012956D01*
X022666Y012586D01*
X023035Y012586D02*
X023281Y012586D01*
X023158Y012586D02*
X023158Y012956D01*
X023035Y012833D01*
X021686Y013924D02*
X021439Y013924D01*
X021686Y014171D01*
X021686Y014233D01*
X021625Y014294D01*
X021501Y014294D01*
X021439Y014233D01*
X021318Y014233D02*
X021256Y014294D01*
X021071Y014294D01*
X021071Y013924D01*
X021256Y013924D01*
X021318Y013986D01*
X021318Y014233D01*
X019774Y013914D02*
X019527Y013914D01*
X019406Y013914D02*
X019406Y014284D01*
X019527Y014160D02*
X019650Y014284D01*
X019650Y013914D01*
X019406Y013914D02*
X019282Y014037D01*
X019159Y013914D01*
X019159Y014284D01*
X019037Y014222D02*
X018976Y014284D01*
X018852Y014284D01*
X018790Y014222D01*
X018790Y014160D01*
X018852Y014099D01*
X018976Y014099D01*
X019037Y014037D01*
X019037Y013975D01*
X018976Y013914D01*
X018852Y013914D01*
X018790Y013975D01*
X015010Y013572D02*
X014763Y013572D01*
X014887Y013572D02*
X014887Y013942D01*
X014763Y013819D01*
X014642Y013942D02*
X014395Y013942D01*
X014395Y013572D01*
X014395Y013757D02*
X014519Y013757D01*
X012226Y013832D02*
X011979Y013832D01*
X012226Y014079D01*
X012226Y014140D01*
X012164Y014202D01*
X012041Y014202D01*
X011979Y014140D01*
X011858Y014202D02*
X011734Y014202D01*
X011796Y014202D02*
X011796Y013893D01*
X011734Y013832D01*
X011673Y013832D01*
X011611Y013893D01*
X004632Y013872D02*
X004385Y013872D01*
X004509Y013872D02*
X004509Y014243D01*
X004385Y014119D01*
X004264Y014243D02*
X004140Y014243D01*
X004202Y014243D02*
X004202Y013934D01*
X004140Y013872D01*
X004079Y013872D01*
X004017Y013934D01*
X024475Y014040D02*
X024537Y013979D01*
X024660Y013979D01*
X024722Y014040D01*
X024844Y014040D02*
X024905Y013979D01*
X025029Y013979D01*
X025090Y014040D01*
X025090Y014102D01*
X025029Y014164D01*
X024967Y014164D01*
X025029Y014164D02*
X025090Y014225D01*
X025090Y014287D01*
X025029Y014349D01*
X024905Y014349D01*
X024844Y014287D01*
X024722Y014287D02*
X024660Y014349D01*
X024537Y014349D01*
X024475Y014287D01*
X024475Y014040D01*
X027210Y014040D02*
X027272Y013979D01*
X027395Y013979D01*
X027457Y014040D01*
X027579Y014164D02*
X027825Y014164D01*
X027764Y013979D02*
X027764Y014349D01*
X027579Y014164D01*
X027457Y014287D02*
X027395Y014349D01*
X027272Y014349D01*
X027210Y014287D01*
X027210Y014040D01*
D11*
X014735Y004925D02*
X014737Y004945D01*
X014742Y004965D01*
X014752Y004983D01*
X014764Y005000D01*
X014779Y005014D01*
X014797Y005024D01*
X014816Y005032D01*
X014836Y005036D01*
X014856Y005036D01*
X014876Y005032D01*
X014895Y005024D01*
X014913Y005014D01*
X014928Y005000D01*
X014940Y004983D01*
X014950Y004965D01*
X014955Y004945D01*
X014957Y004925D01*
X014955Y004905D01*
X014950Y004885D01*
X014940Y004867D01*
X014928Y004850D01*
X014913Y004836D01*
X014895Y004826D01*
X014876Y004818D01*
X014856Y004814D01*
X014836Y004814D01*
X014816Y004818D01*
X014797Y004826D01*
X014779Y004836D01*
X014764Y004850D01*
X014752Y004867D01*
X014742Y004885D01*
X014737Y004905D01*
X014735Y004925D01*
D12*
X014531Y004768D02*
X014531Y008233D01*
X014689Y008390D01*
X018154Y008390D01*
X018311Y008233D01*
X018311Y004768D01*
X018154Y004610D01*
X014689Y004610D01*
X014531Y004768D01*
X021412Y012090D02*
X021805Y012493D01*
X021018Y012493D01*
X021412Y012090D01*
X025690Y007463D02*
X026871Y007463D01*
X027501Y006636D02*
X027501Y005849D01*
X026871Y005022D02*
X025690Y005022D01*
X025060Y005849D02*
X025060Y006636D01*
X025592Y006242D02*
X025594Y006294D01*
X025600Y006346D01*
X025610Y006397D01*
X025623Y006447D01*
X025641Y006497D01*
X025662Y006544D01*
X025686Y006590D01*
X025715Y006634D01*
X025746Y006676D01*
X025780Y006715D01*
X025817Y006752D01*
X025857Y006785D01*
X025900Y006816D01*
X025944Y006843D01*
X025990Y006867D01*
X026039Y006887D01*
X026088Y006903D01*
X026139Y006916D01*
X026190Y006925D01*
X026242Y006930D01*
X026294Y006931D01*
X026346Y006928D01*
X026398Y006921D01*
X026449Y006910D01*
X026499Y006896D01*
X026548Y006877D01*
X026595Y006855D01*
X026640Y006830D01*
X026684Y006801D01*
X026725Y006769D01*
X026764Y006734D01*
X026799Y006696D01*
X026832Y006655D01*
X026862Y006613D01*
X026888Y006568D01*
X026911Y006521D01*
X026930Y006472D01*
X026946Y006422D01*
X026958Y006372D01*
X026966Y006320D01*
X026970Y006268D01*
X026970Y006216D01*
X026966Y006164D01*
X026958Y006112D01*
X026946Y006062D01*
X026930Y006012D01*
X026911Y005963D01*
X026888Y005916D01*
X026862Y005871D01*
X026832Y005829D01*
X026799Y005788D01*
X026764Y005750D01*
X026725Y005715D01*
X026684Y005683D01*
X026640Y005654D01*
X026595Y005629D01*
X026548Y005607D01*
X026499Y005588D01*
X026449Y005574D01*
X026398Y005563D01*
X026346Y005556D01*
X026294Y005553D01*
X026242Y005554D01*
X026190Y005559D01*
X026139Y005568D01*
X026088Y005581D01*
X026039Y005597D01*
X025990Y005617D01*
X025944Y005641D01*
X025900Y005668D01*
X025857Y005699D01*
X025817Y005732D01*
X025780Y005769D01*
X025746Y005808D01*
X025715Y005850D01*
X025686Y005894D01*
X025662Y005940D01*
X025641Y005987D01*
X025623Y006037D01*
X025610Y006087D01*
X025600Y006138D01*
X025594Y006190D01*
X025592Y006242D01*
D13*
X025940Y004704D02*
X024540Y004704D01*
X024540Y004204D02*
X025940Y004204D01*
X025340Y004454D02*
X025140Y004354D01*
X025240Y004304D01*
X025240Y004204D01*
X025340Y004454D02*
X025140Y004554D01*
X025240Y004604D01*
X025240Y004704D01*
X027074Y003887D02*
X027074Y003228D01*
X028216Y003228D01*
X028216Y002835D01*
X027074Y002835D01*
X027074Y003228D01*
X027074Y002835D02*
X027074Y002176D01*
X028216Y002176D02*
X028216Y002835D01*
X028599Y002871D02*
X028599Y004446D01*
X030961Y004446D01*
X030961Y002871D01*
X028599Y002871D01*
X028216Y003228D02*
X028216Y003877D01*
X029200Y006332D02*
X030910Y006332D01*
X030260Y006352D02*
X030260Y007132D01*
X030278Y007458D02*
X029884Y007458D01*
X029884Y008601D01*
X030278Y008601D01*
X030278Y007458D01*
X030927Y007458D01*
X030920Y007152D02*
X029210Y007152D01*
X029226Y007458D02*
X029884Y007458D01*
X029880Y007132D02*
X029880Y006352D01*
X029884Y008601D02*
X029226Y008601D01*
X029225Y008877D02*
X029883Y008877D01*
X029883Y010020D01*
X030277Y010020D01*
X030277Y008877D01*
X029883Y008877D01*
X030277Y008877D02*
X030926Y008877D01*
X030937Y008601D02*
X030278Y008601D01*
X030277Y010020D02*
X030936Y010020D01*
X029883Y010020D02*
X029225Y010020D01*
X028505Y010714D02*
X028505Y013004D01*
X026885Y013004D01*
X026425Y013004D01*
X026425Y011504D01*
X026875Y011504D01*
X026885Y011504D01*
X028015Y011504D01*
X028035Y011504D01*
X028495Y011504D01*
X028505Y013004D02*
X028505Y013814D01*
X026425Y013804D02*
X026425Y013004D01*
X025885Y012979D02*
X024265Y012979D01*
X023805Y012979D01*
X023805Y011479D01*
X024255Y011479D01*
X024265Y011479D01*
X025395Y011479D01*
X025415Y011479D01*
X025875Y011479D01*
X026425Y011504D02*
X026425Y010704D01*
X025885Y010689D02*
X025885Y012979D01*
X025885Y013789D01*
X023805Y013779D02*
X023805Y012979D01*
X023255Y012424D02*
X023255Y010734D01*
X022675Y010734D02*
X022675Y011334D01*
X023235Y011334D01*
X023165Y011549D02*
X022765Y011549D01*
X022965Y011374D01*
X023165Y011549D01*
X022965Y011574D02*
X022965Y011799D01*
X022685Y011814D02*
X023245Y011814D01*
X023805Y011479D02*
X023805Y010679D01*
X024025Y010339D02*
X024175Y010489D01*
X024326Y010564D01*
X024250Y010339D02*
X024025Y010339D01*
X024025Y010189D01*
X024100Y010114D01*
X024250Y010114D01*
X024326Y010189D01*
X024326Y010264D01*
X024250Y010339D01*
X022675Y011334D02*
X022675Y012424D01*
X021412Y012477D02*
X021412Y012787D01*
X020130Y012749D02*
X020130Y011649D01*
X018430Y011649D01*
X018430Y011949D01*
X018630Y011949D01*
X018630Y012449D01*
X018430Y012449D01*
X018430Y012749D01*
X020130Y012749D01*
X017744Y010964D02*
X017744Y009564D01*
X017244Y009564D02*
X017244Y010964D01*
X016826Y010734D02*
X016826Y011384D01*
X016026Y011384D02*
X016026Y010734D01*
X016826Y010734D01*
X016826Y010334D01*
X016026Y010334D01*
X016026Y010734D02*
X016026Y009684D01*
X016826Y009684D02*
X016826Y010334D01*
X017244Y010264D02*
X017344Y010264D01*
X017394Y010164D01*
X017494Y010364D01*
X017594Y010164D01*
X017644Y010264D01*
X017744Y010264D01*
X019025Y010414D02*
X019175Y010564D01*
X019175Y010114D01*
X019025Y010114D02*
X019326Y010114D01*
X019680Y008449D02*
X021080Y008449D01*
X021080Y007949D02*
X019680Y007949D01*
X020280Y008099D02*
X020380Y008049D01*
X020380Y007949D01*
X020280Y008099D02*
X020480Y008199D01*
X020280Y008299D01*
X020380Y008349D01*
X020380Y008449D01*
X022475Y008249D02*
X023875Y008249D01*
X023875Y007749D02*
X022475Y007749D01*
X023075Y007899D02*
X023175Y007849D01*
X023175Y007749D01*
X023075Y007899D02*
X023275Y007999D01*
X023075Y008099D01*
X023175Y008149D01*
X023175Y008249D01*
X021705Y006663D02*
X021705Y006363D01*
X021705Y006513D02*
X021255Y006513D01*
X021405Y006363D01*
X020197Y004027D02*
X020197Y002977D01*
X019397Y002977D01*
X019397Y003377D01*
X020197Y003377D01*
X020197Y002977D02*
X020197Y002327D01*
X020841Y002346D02*
X020841Y003646D01*
X021341Y003646D02*
X021341Y002346D01*
X021211Y002936D02*
X021271Y002996D01*
X021331Y002996D01*
X021211Y002936D02*
X021091Y003056D01*
X020971Y002936D01*
X020911Y002996D01*
X020851Y002996D01*
X019397Y002977D02*
X019397Y002327D01*
X019397Y003377D02*
X019397Y004027D01*
X017306Y003399D02*
X017306Y003099D01*
X017230Y003024D01*
X017080Y003024D01*
X017005Y003099D01*
X017080Y003249D02*
X017306Y003249D01*
X017306Y003399D02*
X017230Y003474D01*
X017080Y003474D01*
X017005Y003399D01*
X017005Y003324D01*
X017080Y003249D01*
X013344Y003654D02*
X013344Y005054D01*
X012844Y005054D02*
X012844Y003654D01*
X012553Y003860D02*
X012553Y004160D01*
X011353Y004160D01*
X011353Y003860D01*
X012553Y003860D01*
X012994Y004254D02*
X012944Y004354D01*
X012844Y004354D01*
X012994Y004254D02*
X013094Y004454D01*
X013194Y004254D01*
X013244Y004354D01*
X013344Y004354D01*
X011038Y005781D02*
X011037Y005981D01*
X011534Y006484D01*
X011031Y006981D01*
X011030Y007181D01*
X010831Y006980D02*
X010231Y006977D01*
X010132Y006877D02*
X010932Y006881D01*
X011032Y006781D02*
X010032Y006776D01*
X009933Y006676D02*
X011133Y006682D01*
X011233Y006582D02*
X009833Y006575D01*
X009734Y006475D02*
X011334Y006483D01*
X011234Y006382D02*
X009834Y006375D01*
X009935Y006276D02*
X011135Y006282D01*
X011036Y006181D02*
X010036Y006176D01*
X010136Y006077D02*
X010936Y006081D01*
X010837Y005980D02*
X010237Y005977D01*
X010037Y005976D02*
X010038Y005776D01*
X010037Y005976D02*
X009534Y006474D01*
X010031Y006976D01*
X010030Y007176D01*
X009800Y007489D02*
X009800Y008139D01*
X009000Y008139D01*
X009000Y008539D01*
X009800Y008539D01*
X009800Y008139D02*
X009800Y009189D01*
X009000Y009189D02*
X009000Y008539D01*
X009000Y008139D02*
X009000Y007489D01*
X010431Y007078D02*
X010631Y007079D01*
X011739Y007543D02*
X011739Y009354D01*
X012920Y009354D01*
X012920Y009275D01*
X012920Y009256D02*
X012920Y007543D01*
X011739Y007543D01*
X010637Y005879D02*
X010437Y005878D01*
X010429Y004923D02*
X010429Y003523D01*
X009929Y003523D02*
X009929Y004923D01*
X010079Y004323D02*
X010029Y004223D01*
X009929Y004223D01*
X010079Y004323D02*
X010179Y004123D01*
X010279Y004323D01*
X010329Y004223D01*
X010429Y004223D01*
X008161Y002659D02*
X008161Y001859D01*
X006361Y001859D01*
X006361Y002659D01*
X008161Y002659D01*
X009155Y001674D02*
X009005Y001524D01*
X009155Y001674D02*
X009155Y001224D01*
X009005Y001224D02*
X009306Y001224D01*
X007243Y004487D02*
X003343Y004487D01*
X003343Y009337D01*
X007243Y009337D01*
X007243Y004487D01*
X010805Y009683D02*
X010805Y013029D01*
X010963Y013029D01*
X010963Y010274D01*
X010844Y010274D01*
X010805Y009683D02*
X013443Y009683D01*
X013443Y011061D01*
X013758Y011061D01*
X013758Y012242D01*
X013482Y012242D01*
X014205Y012529D02*
X014205Y011529D01*
X013443Y011061D02*
X013443Y013620D01*
X010805Y013620D01*
X010805Y013029D01*
X014205Y013529D02*
X014205Y014129D01*
X015205Y014129D01*
X015205Y013529D01*
X015205Y012529D02*
X015205Y011529D01*
X015205Y010529D02*
X015205Y009929D01*
X014205Y009929D01*
X014205Y010529D01*
X006643Y011499D02*
X006643Y012089D01*
X006625Y011494D02*
X002707Y011494D01*
X002698Y011506D02*
X002698Y013486D01*
X006629Y013486D01*
X006643Y013479D02*
X006643Y012939D01*
X023055Y002663D02*
X023055Y002363D01*
X023280Y002363D01*
X023205Y002513D01*
X023205Y002588D01*
X023280Y002663D01*
X023430Y002663D01*
X023505Y002588D01*
X023505Y002438D01*
X023430Y002363D01*
D14*
X021953Y011082D02*
X021953Y013744D01*
X020882Y013724D02*
X020882Y011097D01*
D15*
X003028Y005366D02*
X002928Y005366D01*
X002978Y005366D02*
X002978Y005516D01*
X002928Y005466D01*
D16*
X008680Y002599D02*
X008680Y002099D01*
X008930Y001849D01*
X009430Y001849D01*
X009680Y002099D01*
X009930Y001849D01*
X010430Y001849D01*
X010680Y002099D01*
X010930Y001849D01*
X011430Y001849D01*
X011680Y002099D01*
X011930Y001849D01*
X012430Y001849D01*
X012680Y002099D01*
X012930Y001849D01*
X013430Y001849D01*
X013680Y002099D01*
X013930Y001849D01*
X014430Y001849D01*
X014680Y002099D01*
X014930Y001849D01*
X015430Y001849D01*
X015680Y002099D01*
X015930Y001849D01*
X016430Y001849D01*
X016680Y002099D01*
X016930Y001849D01*
X017430Y001849D01*
X017680Y002099D01*
X017680Y002599D01*
X017430Y002849D01*
X016930Y002849D01*
X016680Y002599D01*
X016430Y002849D01*
X015930Y002849D01*
X015680Y002599D01*
X015430Y002849D01*
X014930Y002849D01*
X014680Y002599D01*
X014430Y002849D01*
X013930Y002849D01*
X013680Y002599D01*
X013430Y002849D01*
X012930Y002849D01*
X012680Y002599D01*
X012430Y002849D01*
X011930Y002849D01*
X011680Y002599D01*
X011430Y002849D01*
X010930Y002849D01*
X010680Y002599D01*
X010430Y002849D01*
X009930Y002849D01*
X009680Y002599D01*
X009430Y002849D01*
X008930Y002849D01*
X008680Y002599D01*
X018700Y008989D02*
X019600Y008989D01*
X019700Y009089D01*
X019800Y008989D01*
X020600Y008989D01*
X020700Y009089D01*
X020800Y008989D01*
X021600Y008989D01*
X021700Y009089D01*
X021800Y008989D01*
X022600Y008989D01*
X022700Y009089D01*
X022800Y008989D01*
X023600Y008989D01*
X023700Y009089D01*
X023800Y008989D01*
X024700Y008989D01*
X024700Y009989D01*
X023800Y009989D01*
X023700Y009889D01*
X023600Y009989D01*
X022800Y009989D01*
X022700Y009889D01*
X022600Y009989D01*
X021800Y009989D01*
X021700Y009889D01*
X021600Y009989D01*
X020800Y009989D01*
X020700Y009889D01*
X020600Y009989D01*
X019800Y009989D01*
X019700Y009889D01*
X019600Y009989D01*
X018700Y009989D01*
X018700Y008989D01*
X021880Y006799D02*
X021880Y006299D01*
X022130Y006049D01*
X021880Y005799D01*
X021880Y005299D01*
X022130Y005049D01*
X021880Y004799D01*
X021880Y004299D01*
X022130Y004049D01*
X021880Y003799D01*
X021880Y003299D01*
X022130Y003049D01*
X021880Y002799D01*
X021880Y002299D01*
X022130Y002049D01*
X022630Y002049D01*
X022880Y002299D01*
X022880Y002799D01*
X022630Y003049D01*
X022880Y003299D01*
X022880Y003799D01*
X022630Y004049D01*
X022880Y004299D01*
X022880Y004799D01*
X022630Y005049D01*
X022880Y005299D01*
X022880Y005799D01*
X022630Y006049D01*
X022880Y006299D01*
X022880Y006799D01*
X022630Y007049D01*
X022130Y007049D01*
X021880Y006799D01*
M02*
