G75*
G70*
%OFA0B0*%
%FSLAX24Y24*%
%IPPOS*%
%LPD*%
%AMOC8*
5,1,8,0,0,1.08239X$1,22.5*
%
%ADD10C,0.0674*%
%ADD11C,0.0780*%
%ADD12C,0.0780*%
%ADD13C,0.0595*%
%ADD14C,0.0710*%
%ADD15C,0.0840*%
%ADD16C,0.1029*%
%ADD17C,0.0482*%
%ADD18C,0.0680*%
%ADD19C,0.0631*%
%ADD20C,0.1064*%
%ADD21C,0.0600*%
%ADD22C,0.0580*%
%ADD23C,0.0634*%
%ADD24C,0.0516*%
D10*
X024704Y005356D02*
X025298Y005356D01*
X027263Y005356D02*
X027857Y005356D01*
X027857Y007128D02*
X027263Y007128D01*
X025298Y007128D02*
X024704Y007128D01*
D11*
X028850Y012089D03*
X012180Y005349D03*
X007761Y002259D03*
X006761Y002259D03*
X010700Y009189D03*
D12*
X014355Y010997D02*
X015055Y010997D01*
X015055Y012989D02*
X014355Y012989D01*
D13*
X010786Y007464D02*
X010271Y007462D01*
X010282Y005493D02*
X010797Y005496D01*
D14*
X005447Y012483D03*
X003282Y012483D03*
D15*
X011593Y012242D03*
X012774Y012242D03*
X012774Y011061D03*
X011593Y011061D03*
D16*
X012183Y010222D03*
X012183Y013096D03*
D17*
X013144Y013431D03*
X013144Y009892D03*
D18*
X022080Y006549D02*
X022680Y006549D01*
X022680Y005549D02*
X022080Y005549D01*
X022080Y004549D02*
X022680Y004549D01*
X022680Y003549D02*
X022080Y003549D01*
X022080Y002549D02*
X022680Y002549D01*
X017180Y002649D02*
X017180Y002049D01*
X016180Y002049D02*
X016180Y002649D01*
X015180Y002649D02*
X015180Y002049D01*
X014180Y002049D02*
X014180Y002649D01*
X013180Y002649D02*
X013180Y002049D01*
X012180Y002049D02*
X012180Y002649D01*
X011180Y002649D02*
X011180Y002049D01*
X010180Y002049D02*
X010180Y002649D01*
X009180Y002649D02*
X009180Y002049D01*
D19*
X025493Y009023D02*
X025493Y009574D01*
X026280Y009574D02*
X026280Y009023D01*
X027068Y009023D02*
X027068Y009574D01*
D20*
X025140Y002270D03*
X009392Y013490D03*
D21*
X019200Y009749D02*
X019200Y009229D01*
X020200Y009229D02*
X020200Y009749D01*
X021200Y009749D02*
X021200Y009229D01*
X022200Y009229D02*
X022200Y009749D01*
X023200Y009749D02*
X023200Y009229D01*
X024200Y009229D02*
X024200Y009749D01*
D22*
X004450Y004089D03*
X008000Y004989D03*
X008850Y005939D03*
X007800Y006989D03*
X008100Y008189D03*
X008800Y009989D03*
X004700Y009889D03*
X004050Y010339D03*
D23*
X012200Y014139D03*
X012900Y014139D03*
X013600Y014159D03*
X014350Y014139D03*
X015100Y014139D03*
X015850Y014139D03*
X015760Y013459D03*
X016200Y012939D03*
X016650Y013489D03*
X017100Y012939D03*
X017550Y013489D03*
X017950Y012939D03*
X018100Y014139D03*
X017350Y014139D03*
X016600Y014139D03*
X018850Y014139D03*
X019600Y014139D03*
X020100Y012339D03*
X022600Y013489D03*
X023350Y013489D03*
X024900Y012289D03*
X026150Y012289D03*
X027500Y012289D03*
X028650Y007889D03*
X028650Y007139D03*
X028650Y006389D03*
X027850Y006339D03*
X029050Y005789D03*
X027900Y004489D03*
X027050Y004489D03*
X028900Y002989D03*
X029400Y003539D03*
X029800Y004089D03*
X030250Y003539D03*
X030600Y002939D03*
X030950Y003539D03*
X031350Y002939D03*
X030950Y002389D03*
X030200Y002389D03*
X029450Y002389D03*
X029800Y002989D03*
X028605Y002379D03*
X028400Y001739D03*
X027700Y001739D03*
X027000Y001739D03*
X026650Y002339D03*
X029100Y001589D03*
X029850Y001589D03*
X030600Y001589D03*
X031350Y001739D03*
X031350Y004139D03*
X026250Y006239D03*
X023850Y003039D03*
X023850Y001689D03*
X013815Y013519D03*
D24*
X013595Y012874D03*
X019660Y010309D03*
X020660Y010309D03*
X020610Y010909D03*
X020610Y011509D03*
X020710Y012359D03*
X020510Y013009D03*
X020505Y013639D03*
X020510Y014209D03*
X015100Y007989D03*
X015450Y007489D03*
X015750Y006939D03*
X015900Y006339D03*
X015200Y005639D03*
X015900Y005339D03*
M02*
