G75*
G70*
%OFA0B0*%
%FSLAX24Y24*%
%IPPOS*%
%LPD*%
%AMOC8*
5,1,8,0,0,1.08239X$1,22.5*
%
%ADD10C,0.0594*%
%ADD11C,0.0700*%
%ADD12C,0.0700*%
%ADD13C,0.0515*%
%ADD14C,0.0760*%
%ADD15C,0.0600*%
%ADD16C,0.0551*%
%ADD17C,0.0520*%
%ADD18C,0.0320*%
%ADD19C,0.0500*%
%ADD20C,0.0160*%
%ADD21C,0.0554*%
%ADD22C,0.0400*%
%ADD23C,0.0436*%
D10*
X024704Y005356D02*
X025298Y005356D01*
X027263Y005356D02*
X027857Y005356D01*
X027857Y007128D02*
X027263Y007128D01*
X025298Y007128D02*
X024704Y007128D01*
D11*
X028850Y012089D03*
X012180Y005349D03*
X007761Y002259D03*
X006761Y002259D03*
X010700Y009189D03*
D12*
X014355Y010997D02*
X015055Y010997D01*
X015055Y012989D02*
X014355Y012989D01*
D13*
X010786Y007464D02*
X010271Y007462D01*
X010282Y005493D02*
X010797Y005496D01*
D14*
X011593Y011061D03*
X012774Y011061D03*
X012774Y012242D03*
X011593Y012242D03*
D15*
X022080Y006549D02*
X022680Y006549D01*
X022680Y005549D02*
X022080Y005549D01*
X022080Y004549D02*
X022680Y004549D01*
X022680Y003549D02*
X022080Y003549D01*
X022080Y002549D02*
X022680Y002549D01*
X017180Y002649D02*
X017180Y002049D01*
X016180Y002049D02*
X016180Y002649D01*
X015180Y002649D02*
X015180Y002049D01*
X014180Y002049D02*
X014180Y002649D01*
X013180Y002649D02*
X013180Y002049D01*
X012180Y002049D02*
X012180Y002649D01*
X011180Y002649D02*
X011180Y002049D01*
X010180Y002049D02*
X010180Y002649D01*
X009180Y002649D02*
X009180Y002049D01*
D16*
X025493Y009023D02*
X025493Y009574D01*
X026280Y009574D02*
X026280Y009023D01*
X027068Y009023D02*
X027068Y009574D01*
D17*
X024200Y009749D02*
X024200Y009229D01*
X023200Y009229D02*
X023200Y009749D01*
X022200Y009749D02*
X022200Y009229D01*
X021200Y009229D02*
X021200Y009749D01*
X020200Y009749D02*
X020200Y009229D01*
X019200Y009229D02*
X019200Y009749D01*
D18*
X021400Y006539D02*
X018150Y003289D01*
X017150Y003289D01*
X017150Y002379D01*
X017180Y002349D01*
X017150Y003289D02*
X011180Y003289D01*
X011180Y003689D01*
X011180Y004719D01*
X011500Y005039D01*
X011500Y005994D01*
X010555Y006939D01*
X010555Y007436D01*
X010529Y007463D01*
X010700Y009189D02*
X013850Y009189D01*
X014700Y010039D01*
X014700Y010992D01*
X014705Y010997D01*
X011593Y011061D02*
X011570Y011039D01*
X012200Y005369D02*
X012180Y005349D01*
X013340Y005349D01*
X013350Y005339D01*
X011180Y003289D02*
X011180Y002349D01*
X021400Y006539D02*
X022370Y006539D01*
X022380Y006549D01*
D19*
X004450Y004089D03*
X008000Y004989D03*
X008850Y005939D03*
X007800Y006989D03*
X008100Y008189D03*
X008800Y009989D03*
X004700Y009889D03*
X004050Y010339D03*
D20*
X007400Y010339D01*
X008100Y009639D01*
X008100Y008189D01*
X007650Y007889D02*
X008850Y006689D01*
X008850Y005939D01*
X008000Y004989D02*
X008000Y004339D01*
X008500Y003839D01*
X011030Y003839D01*
X011180Y003689D01*
X012180Y005349D02*
X012150Y005379D01*
X015200Y005639D02*
X015450Y005639D01*
X015650Y005839D01*
X016050Y005839D01*
X017550Y007339D01*
X020050Y007339D01*
X020700Y007989D01*
X021750Y007989D01*
X022400Y008639D01*
X022750Y008639D01*
X023200Y009089D01*
X023200Y009489D01*
X022700Y009491D02*
X022700Y009491D01*
X022700Y009333D02*
X022700Y009333D01*
X022700Y009174D02*
X022700Y009174D01*
X022700Y009129D02*
X022700Y009848D01*
X022624Y010032D01*
X022484Y010172D01*
X022300Y010248D01*
X022101Y010248D01*
X021917Y010172D01*
X021776Y010032D01*
X021700Y009848D01*
X021624Y010032D01*
X021484Y010172D01*
X021300Y010248D01*
X021263Y010248D01*
X021242Y012419D01*
X021249Y014431D01*
X029132Y014431D01*
X029132Y013538D01*
X029132Y013499D01*
X029117Y013309D01*
X029191Y012914D01*
X029364Y012553D01*
X029625Y012248D01*
X029956Y012021D01*
X029956Y012021D01*
X030335Y011888D01*
X030496Y011876D01*
X030505Y011872D01*
X030544Y011872D01*
X030582Y011869D01*
X030591Y011872D01*
X031691Y011872D01*
X031691Y001328D01*
X021201Y001328D01*
X021217Y005790D01*
X021566Y006139D01*
X021727Y006139D01*
X021774Y006091D01*
X021876Y006048D01*
X021774Y006006D01*
X021623Y005854D01*
X021540Y005656D01*
X021540Y005441D01*
X021623Y005243D01*
X021774Y005091D01*
X021876Y005049D01*
X021774Y005006D01*
X021623Y004854D01*
X021540Y004656D01*
X021540Y004441D01*
X021623Y004243D01*
X021774Y004091D01*
X021876Y004049D01*
X021774Y004006D01*
X021623Y003854D01*
X021540Y003656D01*
X021540Y003441D01*
X021623Y003243D01*
X021774Y003091D01*
X021973Y003009D01*
X022788Y003009D01*
X022986Y003091D01*
X023138Y003243D01*
X023220Y003441D01*
X023220Y003656D01*
X023138Y003854D01*
X022986Y004006D01*
X022884Y004049D01*
X022986Y004091D01*
X023138Y004243D01*
X023220Y004441D01*
X023220Y004656D01*
X023138Y004854D01*
X022986Y005006D01*
X022884Y005049D01*
X022986Y005091D01*
X023138Y005243D01*
X023220Y005441D01*
X023220Y005656D01*
X023138Y005854D01*
X022986Y006006D01*
X022884Y006048D01*
X022986Y006091D01*
X023138Y006243D01*
X023220Y006441D01*
X023220Y006656D01*
X023138Y006854D01*
X022986Y007006D01*
X022788Y007088D01*
X021973Y007088D01*
X021774Y007006D01*
X021707Y006938D01*
X021480Y006938D01*
X021321Y006938D01*
X021221Y006897D01*
X021223Y007319D01*
X021837Y007319D01*
X021964Y007319D01*
X022082Y007367D01*
X022633Y007919D01*
X023537Y007919D01*
X023664Y007919D01*
X023782Y007967D01*
X024382Y008567D01*
X024472Y008657D01*
X024520Y008775D01*
X024520Y008841D01*
X024624Y008945D01*
X024700Y009129D01*
X024700Y009848D01*
X024624Y010032D01*
X024484Y010172D01*
X024300Y010248D01*
X024101Y010248D01*
X023917Y010172D01*
X023776Y010032D01*
X023700Y009848D01*
X023624Y010032D01*
X023484Y010172D01*
X023300Y010248D01*
X023101Y010248D01*
X022917Y010172D01*
X022776Y010032D01*
X022700Y009848D01*
X022700Y009129D01*
X022638Y008979D01*
X022726Y009067D01*
X022700Y009129D01*
X022675Y009016D02*
X022653Y009016D01*
X023263Y008699D02*
X023608Y008699D01*
X023484Y008805D02*
X023624Y008945D01*
X023700Y009129D01*
X023700Y009848D01*
X023700Y009129D01*
X023776Y008945D01*
X023816Y008906D01*
X023468Y008558D01*
X023123Y008558D01*
X023293Y008729D01*
X023300Y008729D01*
X023484Y008805D01*
X023536Y008857D02*
X023766Y008857D01*
X023747Y009016D02*
X023653Y009016D01*
X023700Y009174D02*
X023700Y009174D01*
X023700Y009333D02*
X023700Y009333D01*
X023700Y009491D02*
X023700Y009491D01*
X023700Y009650D02*
X023700Y009650D01*
X023700Y009808D02*
X023700Y009808D01*
X023651Y009967D02*
X023750Y009967D01*
X023870Y010125D02*
X023530Y010125D01*
X022870Y010125D02*
X022530Y010125D01*
X022651Y009967D02*
X022750Y009967D01*
X022700Y009808D02*
X022700Y009808D01*
X022700Y009650D02*
X022700Y009650D01*
X022200Y009489D02*
X022200Y008939D01*
X021600Y008339D01*
X020550Y008339D01*
X019900Y007689D01*
X017350Y007689D01*
X016000Y006339D01*
X015900Y006339D01*
X015750Y006939D02*
X016100Y006939D01*
X017200Y008039D01*
X019700Y008039D01*
X020400Y008739D01*
X020850Y008739D01*
X021200Y009089D01*
X021200Y009489D01*
X020700Y009491D02*
X020700Y009491D01*
X020700Y009441D02*
X020700Y009441D01*
X020700Y009848D01*
X020624Y010032D01*
X020484Y010172D01*
X020300Y010248D01*
X020101Y010248D01*
X019917Y010172D01*
X019776Y010032D01*
X019700Y009848D01*
X019624Y010032D01*
X019484Y010172D01*
X019300Y010248D01*
X019101Y010248D01*
X018917Y010172D01*
X018776Y010032D01*
X018700Y009848D01*
X018700Y009461D01*
X014728Y009501D01*
X014927Y009699D01*
X015039Y009812D01*
X015100Y009959D01*
X015100Y010407D01*
X015173Y010407D01*
X015389Y010497D01*
X015555Y010663D01*
X015645Y010880D01*
X015645Y011114D01*
X015555Y011331D01*
X015389Y011497D01*
X015173Y011587D01*
X014238Y011587D01*
X014021Y011497D01*
X013855Y011331D01*
X013765Y011114D01*
X013765Y010880D01*
X013855Y010663D01*
X014021Y010497D01*
X014238Y010407D01*
X014300Y010407D01*
X014300Y010204D01*
X013685Y009588D01*
X013464Y009588D01*
X013517Y009642D01*
X013584Y009804D01*
X013584Y009979D01*
X013517Y010141D01*
X013393Y010265D01*
X013231Y010332D01*
X013056Y010332D01*
X012897Y010267D01*
X012897Y010364D01*
X012866Y010441D01*
X012897Y010441D01*
X013125Y010535D01*
X013299Y010710D01*
X013394Y010938D01*
X013394Y011184D01*
X013299Y011412D01*
X013125Y011587D01*
X012968Y011651D01*
X013125Y011716D01*
X013299Y011891D01*
X013394Y012119D01*
X013394Y012365D01*
X013299Y012593D01*
X013125Y012768D01*
X012897Y012862D01*
X012859Y012862D01*
X012897Y012954D01*
X012897Y013056D01*
X013056Y012990D01*
X013231Y012990D01*
X013393Y013057D01*
X013517Y013181D01*
X013584Y013343D01*
X013584Y013519D01*
X013517Y013681D01*
X013393Y013805D01*
X013231Y013872D01*
X013056Y013872D01*
X012894Y013805D01*
X012770Y013681D01*
X012723Y013567D01*
X012588Y013702D01*
X012325Y013811D01*
X012041Y013811D01*
X011778Y013702D01*
X011577Y013501D01*
X011469Y013239D01*
X011469Y012954D01*
X011507Y012862D01*
X011469Y012862D01*
X011241Y012768D01*
X011067Y012593D01*
X010973Y012365D01*
X010973Y012119D01*
X011067Y011891D01*
X011241Y011716D01*
X011398Y011651D01*
X011241Y011587D01*
X011133Y011478D01*
X010950Y011478D01*
X010950Y014431D01*
X020903Y014431D01*
X020943Y010183D01*
X020917Y010172D01*
X020776Y010032D01*
X020700Y009848D01*
X020700Y009441D01*
X020700Y009650D02*
X020700Y009650D01*
X020700Y009808D02*
X020700Y009808D01*
X020651Y009967D02*
X020750Y009967D01*
X020870Y010125D02*
X020530Y010125D01*
X020942Y010284D02*
X015100Y010284D01*
X015100Y010125D02*
X018870Y010125D01*
X018750Y009967D02*
X015100Y009967D01*
X015036Y009808D02*
X018700Y009808D01*
X018700Y009650D02*
X014877Y009650D01*
X015669Y009491D02*
X018700Y009491D01*
X019200Y009489D02*
X019200Y008839D01*
X019100Y008739D01*
X016850Y008739D01*
X016100Y007989D01*
X015100Y007989D01*
X015450Y007489D02*
X016100Y007489D01*
X017000Y008389D01*
X019500Y008389D01*
X020200Y009089D01*
X020200Y009489D01*
X020195Y009484D01*
X019700Y009491D02*
X019700Y009491D01*
X019700Y009451D02*
X019700Y009848D01*
X019700Y009451D01*
X019700Y009451D01*
X019700Y009650D02*
X019700Y009650D01*
X019700Y009808D02*
X019700Y009808D01*
X019651Y009967D02*
X019750Y009967D01*
X019870Y010125D02*
X019530Y010125D01*
X020941Y010443D02*
X015259Y010443D01*
X015494Y010601D02*
X020939Y010601D01*
X020938Y010760D02*
X015596Y010760D01*
X015645Y010918D02*
X020936Y010918D01*
X020935Y011077D02*
X015645Y011077D01*
X015595Y011235D02*
X020933Y011235D01*
X020932Y011394D02*
X015493Y011394D01*
X015256Y011552D02*
X020930Y011552D01*
X020929Y011711D02*
X013111Y011711D01*
X013159Y011552D02*
X014154Y011552D01*
X013918Y011394D02*
X013307Y011394D01*
X013372Y011235D02*
X013815Y011235D01*
X013765Y011077D02*
X013394Y011077D01*
X013386Y010918D02*
X013765Y010918D01*
X013815Y010760D02*
X013320Y010760D01*
X013191Y010601D02*
X013917Y010601D01*
X014152Y010443D02*
X012901Y010443D01*
X012897Y010284D02*
X012939Y010284D01*
X013348Y010284D02*
X014300Y010284D01*
X014222Y010125D02*
X013524Y010125D01*
X013584Y009967D02*
X014063Y009967D01*
X013905Y009808D02*
X013584Y009808D01*
X013521Y009650D02*
X013746Y009650D01*
X011207Y011552D02*
X010950Y011552D01*
X010950Y011711D02*
X011255Y011711D01*
X011088Y011869D02*
X010950Y011869D01*
X010950Y012028D02*
X011010Y012028D01*
X010973Y012187D02*
X010950Y012187D01*
X010950Y012345D02*
X010973Y012345D01*
X010950Y012504D02*
X011030Y012504D01*
X010950Y012662D02*
X011136Y012662D01*
X010950Y012821D02*
X011369Y012821D01*
X011469Y012979D02*
X010950Y012979D01*
X010950Y013138D02*
X011469Y013138D01*
X011493Y013296D02*
X010950Y013296D01*
X010950Y013455D02*
X011558Y013455D01*
X011690Y013613D02*
X010950Y013613D01*
X010950Y013772D02*
X011947Y013772D01*
X012419Y013772D02*
X012861Y013772D01*
X012742Y013613D02*
X012676Y013613D01*
X013426Y013772D02*
X020909Y013772D01*
X020908Y013931D02*
X010950Y013931D01*
X010950Y014089D02*
X020906Y014089D01*
X020904Y014248D02*
X010950Y014248D01*
X010950Y014406D02*
X020903Y014406D01*
X021249Y014406D02*
X029132Y014406D01*
X029132Y014248D02*
X021249Y014248D01*
X021248Y014089D02*
X029132Y014089D01*
X029132Y013931D02*
X021247Y013931D01*
X021247Y013772D02*
X029132Y013772D01*
X029132Y013613D02*
X021246Y013613D01*
X021246Y013455D02*
X029129Y013455D01*
X029120Y013296D02*
X021245Y013296D01*
X021245Y013138D02*
X029149Y013138D01*
X029179Y012979D02*
X021244Y012979D01*
X021243Y012821D02*
X029236Y012821D01*
X029312Y012662D02*
X021243Y012662D01*
X021242Y012504D02*
X029406Y012504D01*
X029542Y012345D02*
X021243Y012345D01*
X021244Y012187D02*
X029715Y012187D01*
X029625Y012248D02*
X029625Y012248D01*
X029947Y012028D02*
X021246Y012028D01*
X021247Y011869D02*
X030579Y011869D01*
X030583Y011869D02*
X031691Y011869D01*
X031691Y011711D02*
X021249Y011711D01*
X021250Y011552D02*
X031691Y011552D01*
X031691Y011394D02*
X021252Y011394D01*
X021253Y011235D02*
X031691Y011235D01*
X031691Y011077D02*
X021255Y011077D01*
X021256Y010918D02*
X031691Y010918D01*
X031691Y010760D02*
X021258Y010760D01*
X021259Y010601D02*
X031691Y010601D01*
X031691Y010443D02*
X021261Y010443D01*
X021262Y010284D02*
X031691Y010284D01*
X031691Y010125D02*
X024530Y010125D01*
X024651Y009967D02*
X025157Y009967D01*
X025201Y010011D02*
X025056Y009866D01*
X024977Y009677D01*
X024977Y008920D01*
X025056Y008731D01*
X025201Y008586D01*
X025390Y008507D01*
X025595Y008507D01*
X025785Y008586D01*
X025930Y008731D01*
X025939Y008752D01*
X025948Y008739D01*
X025997Y008691D01*
X026052Y008650D01*
X026113Y008619D01*
X026178Y008598D01*
X026246Y008587D01*
X026277Y008587D01*
X026277Y009295D01*
X026284Y009295D01*
X026284Y008587D01*
X026315Y008587D01*
X026382Y008598D01*
X026448Y008619D01*
X026509Y008650D01*
X026564Y008691D01*
X026613Y008739D01*
X026622Y008752D01*
X026631Y008731D01*
X026776Y008586D01*
X026965Y008507D01*
X027170Y008507D01*
X027360Y008586D01*
X027505Y008731D01*
X027583Y008920D01*
X027583Y009677D01*
X027505Y009866D01*
X027360Y010011D01*
X027170Y010090D01*
X026965Y010090D01*
X026776Y010011D01*
X026631Y009866D01*
X026622Y009845D01*
X026613Y009858D01*
X026564Y009906D01*
X026509Y009947D01*
X026448Y009978D01*
X026382Y009999D01*
X026315Y010010D01*
X026284Y010010D01*
X026284Y009302D01*
X026277Y009302D01*
X026277Y010010D01*
X026246Y010010D01*
X026178Y009999D01*
X026113Y009978D01*
X026052Y009947D01*
X025997Y009906D01*
X025948Y009858D01*
X025939Y009845D01*
X025930Y009866D01*
X025785Y010011D01*
X025595Y010090D01*
X025390Y010090D01*
X025201Y010011D01*
X025032Y009808D02*
X024700Y009808D01*
X024700Y009650D02*
X024977Y009650D01*
X024977Y009491D02*
X024700Y009491D01*
X024700Y009333D02*
X024977Y009333D01*
X024977Y009174D02*
X024700Y009174D01*
X024653Y009016D02*
X024977Y009016D01*
X025003Y008857D02*
X024536Y008857D01*
X024489Y008699D02*
X025088Y008699D01*
X025311Y008540D02*
X024354Y008540D01*
X024196Y008381D02*
X031691Y008381D01*
X031691Y008223D02*
X024037Y008223D01*
X023879Y008064D02*
X031691Y008064D01*
X031691Y007906D02*
X022620Y007906D01*
X022462Y007747D02*
X031691Y007747D01*
X031691Y007589D02*
X022303Y007589D01*
X022145Y007430D02*
X024360Y007430D01*
X024356Y007426D02*
X024314Y007368D01*
X024281Y007304D01*
X024259Y007235D01*
X024248Y007164D01*
X024248Y007147D01*
X024983Y007147D01*
X024983Y007585D01*
X024668Y007585D01*
X024597Y007574D01*
X024529Y007551D01*
X024465Y007519D01*
X024407Y007477D01*
X024356Y007426D01*
X024271Y007272D02*
X021223Y007272D01*
X021222Y007113D02*
X024983Y007113D01*
X024983Y007110D02*
X024248Y007110D01*
X024248Y007092D01*
X024259Y007021D01*
X024281Y006953D01*
X024314Y006889D01*
X024356Y006831D01*
X024407Y006780D01*
X024465Y006737D01*
X024529Y006705D01*
X024597Y006683D01*
X024668Y006671D01*
X024983Y006671D01*
X024983Y007109D01*
X025020Y007109D01*
X025020Y006671D01*
X025334Y006671D01*
X025405Y006683D01*
X025473Y006705D01*
X025537Y006737D01*
X025596Y006780D01*
X025646Y006831D01*
X025689Y006889D01*
X025721Y006953D01*
X025744Y007021D01*
X025755Y007092D01*
X025755Y007110D01*
X025020Y007110D01*
X025020Y007147D01*
X024983Y007147D01*
X024983Y007110D01*
X025020Y007113D02*
X027542Y007113D01*
X027542Y007110D02*
X026807Y007110D01*
X026807Y007092D01*
X026818Y007021D01*
X026840Y006953D01*
X026873Y006889D01*
X026915Y006831D01*
X026966Y006780D01*
X027024Y006737D01*
X027088Y006705D01*
X027156Y006683D01*
X027227Y006671D01*
X027542Y006671D01*
X027542Y007109D01*
X027579Y007109D01*
X027579Y006671D01*
X027893Y006671D01*
X027964Y006683D01*
X028032Y006705D01*
X028097Y006737D01*
X028155Y006780D01*
X028206Y006831D01*
X028248Y006889D01*
X028280Y006953D01*
X028303Y007021D01*
X028314Y007092D01*
X028314Y007110D01*
X027579Y007110D01*
X027579Y007147D01*
X027542Y007147D01*
X027542Y007585D01*
X027227Y007585D01*
X027156Y007574D01*
X027088Y007551D01*
X027024Y007519D01*
X026966Y007477D01*
X026915Y007426D01*
X026873Y007368D01*
X026840Y007304D01*
X026818Y007235D01*
X026807Y007164D01*
X026807Y007147D01*
X027542Y007147D01*
X027542Y007110D01*
X027579Y007113D02*
X031691Y007113D01*
X031691Y006955D02*
X028281Y006955D01*
X028171Y006796D02*
X031691Y006796D01*
X031691Y006638D02*
X023220Y006638D01*
X023220Y006479D02*
X031691Y006479D01*
X031691Y006320D02*
X023170Y006320D01*
X023057Y006162D02*
X031691Y006162D01*
X031691Y006003D02*
X022989Y006003D01*
X023142Y005845D02*
X024480Y005845D01*
X024400Y005812D02*
X024249Y005661D01*
X024168Y005463D01*
X024168Y005250D01*
X024249Y005052D01*
X024400Y004901D01*
X024598Y004820D01*
X025405Y004820D01*
X025602Y004901D01*
X025753Y005052D01*
X026809Y005052D01*
X026808Y005052D02*
X026959Y004901D01*
X027157Y004820D01*
X027964Y004820D01*
X028161Y004901D01*
X028312Y005052D01*
X031691Y005052D01*
X031691Y004894D02*
X028142Y004894D01*
X028312Y005052D02*
X028394Y005250D01*
X028394Y005463D01*
X028312Y005661D01*
X028161Y005812D01*
X027964Y005893D01*
X027157Y005893D01*
X026959Y005812D01*
X026808Y005661D01*
X026727Y005463D01*
X026727Y005250D01*
X026808Y005052D01*
X026743Y005211D02*
X025819Y005211D01*
X025835Y005250D02*
X025835Y005463D01*
X025753Y005661D01*
X025602Y005812D01*
X025405Y005893D01*
X024598Y005893D01*
X024400Y005812D01*
X024275Y005686D02*
X023208Y005686D01*
X023220Y005528D02*
X024194Y005528D01*
X024168Y005369D02*
X023190Y005369D01*
X023106Y005211D02*
X024184Y005211D01*
X024250Y005052D02*
X022893Y005052D01*
X023099Y004894D02*
X024419Y004894D01*
X025583Y004894D02*
X026978Y004894D01*
X026727Y005369D02*
X025835Y005369D01*
X025835Y005250D02*
X025753Y005052D01*
X025808Y005528D02*
X026753Y005528D01*
X026834Y005686D02*
X025727Y005686D01*
X025522Y005845D02*
X027040Y005845D01*
X028081Y005845D02*
X031691Y005845D01*
X031691Y005686D02*
X028287Y005686D01*
X028367Y005528D02*
X031691Y005528D01*
X031691Y005369D02*
X028394Y005369D01*
X028378Y005211D02*
X031691Y005211D01*
X031691Y004735D02*
X023188Y004735D01*
X023220Y004576D02*
X031691Y004576D01*
X031691Y004418D02*
X023211Y004418D01*
X023145Y004259D02*
X031691Y004259D01*
X031691Y004101D02*
X022996Y004101D01*
X023050Y003942D02*
X031691Y003942D01*
X031691Y003784D02*
X023167Y003784D01*
X023220Y003625D02*
X031691Y003625D01*
X031691Y003467D02*
X023220Y003467D01*
X023165Y003308D02*
X031691Y003308D01*
X031691Y003150D02*
X023045Y003150D01*
X022921Y002942D02*
X022857Y002975D01*
X022788Y002997D01*
X022716Y003008D01*
X022400Y003008D01*
X022400Y002569D01*
X022360Y002569D01*
X022360Y003008D01*
X022044Y003008D01*
X021973Y002997D01*
X021904Y002975D01*
X021839Y002942D01*
X021781Y002899D01*
X021729Y002848D01*
X021687Y002790D01*
X021654Y002725D01*
X021632Y002656D01*
X021620Y002585D01*
X021620Y002569D01*
X022360Y002569D01*
X022360Y002528D01*
X022400Y002528D01*
X022400Y002089D01*
X022716Y002089D01*
X022788Y002100D01*
X022857Y002122D01*
X022921Y002155D01*
X022980Y002198D01*
X023031Y002249D01*
X023074Y002307D01*
X023107Y002372D01*
X023129Y002441D01*
X023140Y002512D01*
X023140Y002528D01*
X022401Y002528D01*
X022401Y002569D01*
X023140Y002569D01*
X023140Y002585D01*
X023129Y002656D01*
X023107Y002725D01*
X023074Y002790D01*
X023031Y002848D01*
X022980Y002899D01*
X022921Y002942D01*
X022807Y002991D02*
X024968Y002991D01*
X024994Y003002D02*
X024725Y002890D01*
X024519Y002684D01*
X024408Y002415D01*
X024408Y002124D01*
X024519Y001855D01*
X024725Y001649D01*
X024994Y001537D01*
X025285Y001537D01*
X025554Y001649D01*
X025760Y001855D01*
X025872Y002124D01*
X025872Y002415D01*
X025760Y002684D01*
X025554Y002890D01*
X025285Y003002D01*
X024994Y003002D01*
X025311Y002991D02*
X031691Y002991D01*
X031691Y002832D02*
X025612Y002832D01*
X025765Y002674D02*
X031691Y002674D01*
X031691Y002515D02*
X025830Y002515D01*
X025872Y002357D02*
X031691Y002357D01*
X031691Y002198D02*
X025872Y002198D01*
X025837Y002040D02*
X031691Y002040D01*
X031691Y001881D02*
X025771Y001881D01*
X025628Y001723D02*
X031691Y001723D01*
X031691Y001564D02*
X025350Y001564D01*
X024930Y001564D02*
X021202Y001564D01*
X021201Y001406D02*
X031691Y001406D01*
X024651Y001723D02*
X021202Y001723D01*
X021203Y001881D02*
X024508Y001881D01*
X024442Y002040D02*
X021203Y002040D01*
X021204Y002198D02*
X021780Y002198D01*
X021781Y002198D02*
X021839Y002155D01*
X021904Y002122D01*
X021973Y002100D01*
X022044Y002089D01*
X022360Y002089D01*
X022360Y002528D01*
X021620Y002528D01*
X021620Y002512D01*
X021632Y002441D01*
X021654Y002372D01*
X021687Y002307D01*
X021729Y002249D01*
X021781Y002198D01*
X021662Y002357D02*
X021205Y002357D01*
X021205Y002515D02*
X021620Y002515D01*
X021637Y002674D02*
X021206Y002674D01*
X021206Y002832D02*
X021718Y002832D01*
X021954Y002991D02*
X021207Y002991D01*
X021208Y003150D02*
X021716Y003150D01*
X021595Y003308D02*
X021208Y003308D01*
X021209Y003467D02*
X021540Y003467D01*
X021540Y003625D02*
X021209Y003625D01*
X021210Y003784D02*
X021593Y003784D01*
X021710Y003942D02*
X021210Y003942D01*
X021211Y004101D02*
X021764Y004101D01*
X021616Y004259D02*
X021212Y004259D01*
X021212Y004418D02*
X021550Y004418D01*
X021540Y004576D02*
X021213Y004576D01*
X021213Y004735D02*
X021573Y004735D01*
X021662Y004894D02*
X021214Y004894D01*
X021215Y005052D02*
X021868Y005052D01*
X021654Y005211D02*
X021215Y005211D01*
X021216Y005369D02*
X021570Y005369D01*
X021540Y005528D02*
X021216Y005528D01*
X021217Y005686D02*
X021553Y005686D01*
X021619Y005845D02*
X021272Y005845D01*
X021431Y006003D02*
X021771Y006003D01*
X021723Y006955D02*
X021222Y006955D01*
X020850Y007639D02*
X021900Y007639D01*
X022500Y008239D01*
X023600Y008239D01*
X024200Y008839D01*
X024200Y009489D01*
X025829Y009967D02*
X026092Y009967D01*
X026277Y009967D02*
X026284Y009967D01*
X026277Y009808D02*
X026284Y009808D01*
X026277Y009650D02*
X026284Y009650D01*
X026277Y009491D02*
X026284Y009491D01*
X026277Y009333D02*
X026284Y009333D01*
X026277Y009174D02*
X026284Y009174D01*
X026277Y009016D02*
X026284Y009016D01*
X026277Y008857D02*
X026284Y008857D01*
X026277Y008699D02*
X026284Y008699D01*
X026572Y008699D02*
X026663Y008699D01*
X026886Y008540D02*
X025674Y008540D01*
X025898Y008699D02*
X025989Y008699D01*
X027249Y008540D02*
X031691Y008540D01*
X031691Y008699D02*
X027473Y008699D01*
X027557Y008857D02*
X031691Y008857D01*
X031691Y009016D02*
X027583Y009016D01*
X027583Y009174D02*
X031691Y009174D01*
X031691Y009333D02*
X027583Y009333D01*
X027583Y009491D02*
X031691Y009491D01*
X031691Y009650D02*
X027583Y009650D01*
X027529Y009808D02*
X031691Y009808D01*
X031691Y009967D02*
X027404Y009967D01*
X026731Y009967D02*
X026469Y009967D01*
X025473Y007551D02*
X025405Y007574D01*
X025334Y007585D01*
X025020Y007585D01*
X025020Y007147D01*
X025755Y007147D01*
X025755Y007164D01*
X025744Y007235D01*
X025721Y007304D01*
X025689Y007368D01*
X025646Y007426D01*
X025596Y007477D01*
X025537Y007519D01*
X025473Y007551D01*
X025642Y007430D02*
X026919Y007430D01*
X026830Y007272D02*
X025732Y007272D01*
X025722Y006955D02*
X026839Y006955D01*
X026949Y006796D02*
X025612Y006796D01*
X025020Y006796D02*
X024983Y006796D01*
X024983Y006955D02*
X025020Y006955D01*
X025020Y007272D02*
X024983Y007272D01*
X024983Y007430D02*
X025020Y007430D01*
X024390Y006796D02*
X023162Y006796D01*
X023038Y006955D02*
X024280Y006955D01*
X021770Y008961D02*
X021468Y008658D01*
X021228Y008658D01*
X021228Y008664D01*
X021293Y008729D01*
X021300Y008729D01*
X021484Y008805D01*
X021624Y008945D01*
X021700Y009129D01*
X021700Y009848D01*
X021700Y009129D01*
X021770Y008961D01*
X021747Y009016D02*
X021653Y009016D01*
X021666Y008857D02*
X021536Y008857D01*
X021508Y008699D02*
X021263Y008699D01*
X021700Y009174D02*
X021700Y009174D01*
X021700Y009333D02*
X021700Y009333D01*
X021700Y009491D02*
X021700Y009491D01*
X021700Y009650D02*
X021700Y009650D01*
X021700Y009808D02*
X021700Y009808D01*
X021651Y009967D02*
X021750Y009967D01*
X021870Y010125D02*
X021530Y010125D01*
X020927Y011869D02*
X013278Y011869D01*
X013356Y012028D02*
X020926Y012028D01*
X020924Y012187D02*
X013394Y012187D01*
X013394Y012345D02*
X020923Y012345D01*
X020921Y012504D02*
X015211Y012504D01*
X015175Y012492D02*
X015251Y012516D01*
X015323Y012553D01*
X015388Y012600D01*
X015444Y012657D01*
X015491Y012722D01*
X015528Y012793D01*
X015553Y012870D01*
X015565Y012949D01*
X015565Y012989D01*
X014706Y012989D01*
X014706Y012989D01*
X015565Y012989D01*
X015565Y013029D01*
X015553Y013109D01*
X015528Y013185D01*
X015491Y013256D01*
X015444Y013321D01*
X015388Y013378D01*
X015323Y013425D01*
X015251Y013462D01*
X015175Y013487D01*
X015095Y013499D01*
X014705Y013499D01*
X014315Y013499D01*
X014236Y013487D01*
X014160Y013462D01*
X014088Y013425D01*
X014023Y013378D01*
X013966Y013321D01*
X013919Y013256D01*
X013883Y013185D01*
X013858Y013109D01*
X013845Y013029D01*
X013845Y012989D01*
X013845Y012949D01*
X013858Y012870D01*
X013883Y012793D01*
X013919Y012722D01*
X013966Y012657D01*
X014023Y012600D01*
X014088Y012553D01*
X014160Y012516D01*
X014236Y012492D01*
X014315Y012479D01*
X014705Y012479D01*
X014705Y012989D01*
X013845Y012989D01*
X014705Y012989D01*
X014705Y012989D01*
X014705Y012989D01*
X014705Y012990D02*
X014705Y013499D01*
X014705Y012990D01*
X014705Y012990D01*
X014705Y012989D02*
X014705Y012479D01*
X015095Y012479D01*
X015175Y012492D01*
X015448Y012662D02*
X020920Y012662D01*
X020918Y012821D02*
X015537Y012821D01*
X015565Y012979D02*
X020917Y012979D01*
X020915Y013138D02*
X015543Y013138D01*
X015462Y013296D02*
X020914Y013296D01*
X020912Y013455D02*
X015265Y013455D01*
X014705Y013455D02*
X014705Y013455D01*
X014705Y013296D02*
X014705Y013296D01*
X014705Y013138D02*
X014705Y013138D01*
X014705Y012979D02*
X014705Y012979D01*
X014705Y012821D02*
X014705Y012821D01*
X014705Y012662D02*
X014705Y012662D01*
X014705Y012504D02*
X014705Y012504D01*
X014199Y012504D02*
X013336Y012504D01*
X013230Y012662D02*
X013962Y012662D01*
X013874Y012821D02*
X012997Y012821D01*
X012897Y012979D02*
X013845Y012979D01*
X013867Y013138D02*
X013474Y013138D01*
X013565Y013296D02*
X013948Y013296D01*
X014146Y013455D02*
X013584Y013455D01*
X013545Y013613D02*
X020911Y013613D01*
X020850Y007639D02*
X020150Y006939D01*
X017700Y006939D01*
X016100Y005339D01*
X015900Y005339D01*
X022360Y002991D02*
X022400Y002991D01*
X022400Y002832D02*
X022360Y002832D01*
X022360Y002674D02*
X022400Y002674D01*
X022400Y002515D02*
X022360Y002515D01*
X022360Y002357D02*
X022400Y002357D01*
X022400Y002198D02*
X022360Y002198D01*
X022981Y002198D02*
X024408Y002198D01*
X024408Y002357D02*
X023099Y002357D01*
X023140Y002515D02*
X024449Y002515D01*
X024515Y002674D02*
X023123Y002674D01*
X023043Y002832D02*
X024667Y002832D01*
X027542Y006796D02*
X027579Y006796D01*
X027579Y006955D02*
X027542Y006955D01*
X027579Y007147D02*
X028314Y007147D01*
X028314Y007164D01*
X028303Y007235D01*
X028280Y007304D01*
X028248Y007368D01*
X028206Y007426D01*
X028155Y007477D01*
X028097Y007519D01*
X028032Y007551D01*
X027964Y007574D01*
X027893Y007585D01*
X027579Y007585D01*
X027579Y007147D01*
X027579Y007272D02*
X027542Y007272D01*
X027542Y007430D02*
X027579Y007430D01*
X028201Y007430D02*
X031691Y007430D01*
X031691Y007272D02*
X028291Y007272D01*
X030335Y011888D02*
X030335Y011888D01*
X009700Y009989D02*
X008800Y009989D01*
X007650Y009489D02*
X007650Y007889D01*
X007800Y006989D02*
X005200Y006989D01*
X004450Y006239D01*
X004450Y004089D01*
X007650Y009489D02*
X007250Y009889D01*
X004700Y009889D01*
D21*
X012200Y014139D03*
X012900Y014139D03*
X013600Y014159D03*
X014350Y014139D03*
X015100Y014139D03*
X015850Y014139D03*
X015760Y013459D03*
X016200Y012939D03*
X016650Y013489D03*
X017100Y012939D03*
X017550Y013489D03*
X017950Y012939D03*
X018100Y014139D03*
X017350Y014139D03*
X016600Y014139D03*
X018850Y014139D03*
X019600Y014139D03*
X020100Y012339D03*
X022600Y013489D03*
X023350Y013489D03*
X024900Y012289D03*
X026150Y012289D03*
X027500Y012289D03*
X028650Y007889D03*
X028650Y007139D03*
X028650Y006389D03*
X027850Y006339D03*
X029050Y005789D03*
X027900Y004489D03*
X027050Y004489D03*
X028900Y002989D03*
X029400Y003539D03*
X029800Y004089D03*
X030250Y003539D03*
X030600Y002939D03*
X030950Y003539D03*
X031350Y002939D03*
X030950Y002389D03*
X030200Y002389D03*
X029450Y002389D03*
X029800Y002989D03*
X028605Y002379D03*
X028400Y001739D03*
X027700Y001739D03*
X027000Y001739D03*
X026650Y002339D03*
X029100Y001589D03*
X029850Y001589D03*
X030600Y001589D03*
X031350Y001739D03*
X031350Y004139D03*
X026250Y006239D03*
X023850Y003039D03*
X023850Y001689D03*
X013815Y013519D03*
D22*
X011570Y011039D02*
X010050Y011039D01*
X009700Y010689D01*
X009700Y009989D01*
X009700Y008639D01*
X010000Y008339D01*
X011500Y008339D01*
X013400Y006439D01*
X013400Y005289D01*
X013350Y005339D01*
X013400Y005289D02*
X013400Y004789D01*
X014150Y004039D01*
X018050Y004039D01*
X021200Y007189D01*
X023450Y007189D01*
X024450Y008189D01*
X027450Y008189D01*
X028850Y009589D01*
X028850Y012089D01*
D23*
X020710Y012359D03*
X020510Y013009D03*
X020505Y013639D03*
X020510Y014209D03*
X020610Y011509D03*
X020610Y010909D03*
X020660Y010309D03*
X019660Y010309D03*
X015450Y007489D03*
X015100Y007989D03*
X015750Y006939D03*
X015900Y006339D03*
X015200Y005639D03*
X015900Y005339D03*
X013595Y012874D03*
M02*
