G75*
G70*
%OFA0B0*%
%FSLAX24Y24*%
%IPPOS*%
%LPD*%
%AMOC8*
5,1,8,0,0,1.08239X$1,22.5*
%
%ADD10R,0.0157X0.0551*%
%ADD11R,0.0551X0.0157*%
%ADD12R,0.0354X0.0551*%
%ADD13R,0.0669X0.0591*%
%ADD14R,0.0591X0.0669*%
%ADD15R,0.0906X0.0906*%
%ADD16R,0.1040X0.0320*%
%ADD17R,0.1929X0.0748*%
%ADD18R,0.0433X0.0551*%
%ADD19R,0.0591X0.1024*%
%ADD20R,0.1024X0.0591*%
%ADD21R,0.0449X0.0276*%
%ADD22R,0.0453X0.0417*%
%ADD23R,0.0433X0.0417*%
%ADD24R,0.0827X0.0413*%
%ADD25R,0.0945X0.0413*%
%ADD26R,0.0551X0.0413*%
%ADD27R,0.1339X0.0866*%
%ADD28R,0.0945X0.0748*%
%ADD29R,0.0354X0.0512*%
%ADD30R,0.0551X0.0354*%
%ADD31R,0.1457X0.0748*%
%ADD32R,0.0551X0.0748*%
%ADD33R,0.0197X0.0827*%
D10*
X014846Y004217D03*
X015161Y004217D03*
X015476Y004217D03*
X015791Y004217D03*
X016106Y004217D03*
X016421Y004217D03*
X016736Y004217D03*
X017051Y004217D03*
X017366Y004217D03*
X017681Y004217D03*
X017996Y004217D03*
X017996Y008784D03*
X017681Y008784D03*
X017366Y008784D03*
X017051Y008784D03*
X016736Y008784D03*
X016421Y008784D03*
X016106Y008784D03*
X015791Y008784D03*
X015476Y008784D03*
X015161Y008784D03*
X014846Y008784D03*
D11*
X014138Y008075D03*
X014138Y007760D03*
X014138Y007445D03*
X014138Y007130D03*
X014138Y006815D03*
X014138Y006500D03*
X014138Y006185D03*
X014138Y005870D03*
X014138Y005555D03*
X014138Y005240D03*
X014138Y004925D03*
X018705Y004925D03*
X018705Y005240D03*
X018705Y005555D03*
X018705Y005870D03*
X018705Y006185D03*
X018705Y006500D03*
X018705Y006815D03*
X018705Y007130D03*
X018705Y007445D03*
X018705Y007760D03*
X018705Y008075D03*
D12*
X017494Y009849D03*
X017494Y010678D03*
X013094Y004768D03*
X013094Y003939D03*
X010179Y003809D03*
X010179Y004637D03*
X021091Y003366D03*
X021091Y002626D03*
D13*
X019797Y002626D03*
X019797Y003728D03*
X016426Y009983D03*
X016426Y011085D03*
X009400Y008890D03*
X009400Y007787D03*
D14*
X029519Y006742D03*
X030621Y006742D03*
D15*
X021412Y011550D03*
X021412Y013283D03*
D16*
X012329Y009039D03*
X012329Y008449D03*
X012329Y007859D03*
D17*
X024841Y011052D03*
X027461Y011077D03*
X027461Y013420D03*
X024841Y013395D03*
D18*
X022965Y012144D03*
X022965Y011003D03*
D19*
X029529Y009449D03*
X030631Y009449D03*
X030632Y008029D03*
X029530Y008029D03*
D20*
X027645Y003583D03*
X027645Y002480D03*
D21*
X002983Y005834D03*
X002983Y006267D03*
X002983Y006700D03*
X002983Y007134D03*
X002983Y007567D03*
X002983Y008000D03*
X002983Y008433D03*
X002983Y008866D03*
D22*
X004018Y009630D03*
D23*
X007546Y009630D03*
D24*
X003160Y009787D03*
X007696Y004165D03*
D25*
X003211Y004165D03*
D26*
X007924Y005858D03*
X007928Y008921D03*
D27*
X005644Y011046D03*
X006038Y013939D03*
D28*
X006727Y012514D03*
D29*
X011579Y004443D03*
X012327Y004443D03*
X011953Y003577D03*
D30*
X019966Y008199D03*
X020795Y008199D03*
X022761Y007999D03*
X023590Y007999D03*
X024826Y004454D03*
X025655Y004454D03*
D31*
X029780Y002406D03*
D32*
X029780Y004879D03*
X030686Y004879D03*
X028875Y004879D03*
D33*
X020030Y011175D03*
X019530Y011175D03*
X019030Y011175D03*
X018530Y011175D03*
X018530Y013222D03*
X019030Y013222D03*
X019530Y013222D03*
X020030Y013222D03*
M02*
