  0
SECTION
  2
ENTITIES
  0
LINE
  8
0
 10
 0 
 20
 0 
 11
-.563173414610521 
 21
 3.09745378035786 
  0
LINE
  8
0
 10
 15.093047511562 
 20
-.814724206469886 
 11
 14.6950716319039 
 21
 2.87593890394439 
  0
LINE
  8
0
 10
 30.1410411499551 
 20
-1.6932747332623 
 11
 29.9345442312645 
 21
 2.68070545354608 
  0
LINE
  8
0
 10
 44.8098313558438 
 20
-2.47796302428629 
 11
 44.821094824136 
 21
 2.51550791859366 
  0
LINE
  8
0
 10
 72.7244602733719 
 20
-3.43911231855491 
 11
 72.7131968050797 
 21
 2.36532834136419 
  0
LINE
  8
0
 10
 100.563999402285 
 20
-3.74322596244459 
 11
 100.556490423424 
 21
 2.40287323567155 
  0
LINE
  8
0
 10
 128.099424887309 
 20
-3.72069902586017 
 11
 128.088161419017 
 21
 2.48171751371703 
  0
LINE
  8
0
 10
 157.86501709419 
 20
-3.5705194486307 
 11
 157.853753625898 
 21
 2.51550791859366 
  0
LINE
  8
0
 10
 187.638118279933 
 20
-3.18005254783407 
 11
 187.62310032221 
 21
 2.53803485517808 
  0
LINE
  8
0
 10
 217.144650716094 
 20
-2.35781936250271 
 11
 217.129632758371 
 21
 2.62063362265429 
  0
LINE
  8
0
 10
 232.072500692703 
 20
-1.73832860643114 
 11
 232.429177188623 
 21
 2.69196892183829 
  0
LINE
  8
0
 10
 247.030386584759 
 20
-1.02497561459115 
 11
 247.747494066029 
 21
 2.78583115760671 
  0
LINE
  8
0
 10
 0 
 20
 0 
 11
-.563173414610521 
 21
 3.09745378035786 
  0
LINE
  8
0
 10
-.563173414610521 
 20
 3.09745378035786 
 11
-.563173414610521 
 21
 3.09745378035786 
  0
LINE
  8
0
 10
-.563173414610521 
 20
 3.09745378035786 
 11
 .934867868253464 
 21
 3.07492684377344 
  0
LINE
  8
0
 10
 .934867868253464 
 20
 3.07492684377344 
 11
 2.43666364054819 
 21
 3.05239990718902 
  0
LINE
  8
0
 10
 2.43666364054819 
 20
 3.05239990718902 
 11
 3.94221390227364 
 21
 3.03362746003534 
  0
LINE
  8
0
 10
 3.94221390227364 
 20
 3.03362746003534 
 11
 5.4477641639991 
 21
 3.00734603402018 
  0
LINE
  8
0
 10
 5.4477641639991 
 20
 3.00734603402018 
 11
 6.96833238344751 
 21
 2.98481909743576 
  0
LINE
  8
0
 10
 6.96833238344751 
 20
 2.98481909743576 
 11
 8.48890060289591 
 21
 2.96229216085134 
  0
LINE
  8
0
 10
 8.48890060289591 
 20
 2.96229216085134 
 11
 10.0244867800673 
 21
 2.94351971369765 
  0
LINE
  8
0
 10
 10.0244867800673 
 20
 2.94351971369765 
 11
 11.5675819361001 
 21
 2.9172382876825 
  0
LINE
  8
0
 10
 11.5675819361001 
 20
 2.9172382876825 
 11
 13.1219405604251 
 21
 2.89846584052881 
  0
LINE
  8
0
 10
 13.1219405604251 
 20
 2.89846584052881 
 11
 14.6950716319039 
 21
 2.87593890394439 
  0
LINE
  8
0
 10
 14.6950716319039 
 20
 2.87593890394439 
 11
 14.6950716319039 
 21
 2.87593890394439 
  0
LINE
  8
0
 10
 14.6950716319039 
 20
 2.87593890394439 
 11
 14.6950716319039 
 21
 2.87593890394439 
  0
LINE
  8
0
 10
 14.6950716319039 
 20
 2.87593890394439 
 11
 16.2832206611055 
 21
 2.85341196735997 
  0
LINE
  8
0
 10
 16.2832206611055 
 20
 2.85341196735997 
 11
 17.8788786691687 
 21
 2.83463952020629 
  0
LINE
  8
0
 10
 17.8788786691687 
 20
 2.83463952020629 
 11
 19.4707821878011 
 21
 2.81211258362187 
  0
LINE
  8
0
 10
 19.4707821878011 
 20
 2.81211258362187 
 11
 21.055176727572 
 21
 2.79334013646818 
  0
LINE
  8
0
 10
 21.055176727572 
 20
 2.79334013646818 
 11
 22.62455330962 
 21
 2.7745676893145 
  0
LINE
  8
0
 10
 22.62455330962 
 20
 2.7745676893145 
 11
 24.1714029550835 
 21
 2.75204075273008 
  0
LINE
  8
0
 10
 24.1714029550835 
 20
 2.75204075273008 
 11
 25.6807077062397 
 21
 2.73326830557639 
  0
LINE
  8
0
 10
 25.6807077062397 
 20
 2.73326830557639 
 11
 27.1487130736578 
 21
 2.71449585842271 
  0
LINE
  8
0
 10
 27.1487130736578 
 20
 2.71449585842271 
 11
 28.5679100784763 
 21
 2.69572341126903 
  0
LINE
  8
0
 10
 28.5679100784763 
 20
 2.69572341126903 
 11
 29.9345442312645 
 21
 2.68070545354608 
  0
LINE
  8
0
 10
 29.9345442312645 
 20
 2.68070545354608 
 11
 29.9345442312645 
 21
 2.68070545354608 
  0
LINE
  8
0
 10
 29.9345442312645 
 20
 2.68070545354608 
 11
 29.9345442312645 
 21
 2.68070545354608 
  0
LINE
  8
0
 10
 29.9345442312645 
 20
 2.68070545354608 
 11
 31.2335975742995 
 21
 2.66193300639239 
  0
LINE
  8
0
 10
 31.2335975742995 
 20
 2.66193300639239 
 11
 32.5026150018885 
 21
 2.64691504866945 
  0
LINE
  8
0
 10
 32.5026150018885 
 20
 2.64691504866945 
 11
 33.7603689611853 
 21
 2.6318970909465 
  0
LINE
  8
0
 10
 33.7603689611853 
 20
 2.6318970909465 
 11
 35.0444043464973 
 21
 2.61312464379282 
  0
LINE
  8
0
 10
 35.0444043464973 
 20
 2.61312464379282 
 11
 36.3734936049782 
 21
 2.59810668606987 
  0
LINE
  8
0
 10
 36.3734936049782 
 20
 2.59810668606987 
 11
 37.7889361203659 
 21
 2.58308872834692 
  0
LINE
  8
0
 10
 37.7889361203659 
 20
 2.58308872834692 
 11
 39.3095043398143 
 21
 2.56807077062397 
  0
LINE
  8
0
 10
 39.3095043398143 
 20
 2.56807077062397 
 11
 40.9689886682 
 21
 2.55305281290103 
  0
LINE
  8
0
 10
 40.9689886682 
 20
 2.55305281290103 
 11
 42.7974250209688 
 21
 2.53428036574734 
  0
LINE
  8
0
 10
 42.7974250209688 
 20
 2.53428036574734 
 11
 44.821094824136 
 21
 2.5192624080244 
  0
LINE
  8
0
 10
 44.821094824136 
 20
 2.5192624080244 
 11
 44.821094824136 
 21
 2.5192624080244 
  0
LINE
  8
0
 10
 44.821094824136 
 20
 2.5192624080244 
 11
 44.821094824136 
 21
 2.5192624080244 
  0
LINE
  8
0
 10
 44.821094824136 
 20
 2.5192624080244 
 11
 47.0625250142858 
 21
 2.49673547143997 
  0
LINE
  8
0
 10
 47.0625250142858 
 20
 2.49673547143997 
 11
 49.499188654834 
 21
 2.47796302428629 
  0
LINE
  8
0
 10
 49.499188654834 
 20
 2.47796302428629 
 11
 52.1048043197654 
 21
 2.46294506656334 
  0
LINE
  8
0
 10
 52.1048043197654 
 20
 2.46294506656334 
 11
 54.8568450724954 
 21
 2.44417261940966 
  0
LINE
  8
0
 10
 54.8568450724954 
 20
 2.44417261940966 
 11
 57.7140115292862 
 21
 2.42915466168671 
  0
LINE
  8
0
 10
 57.7140115292862 
 20
 2.42915466168671 
 11
 60.6575312429838 
 21
 2.41038221453303 
  0
LINE
  8
0
 10
 60.6575312429838 
 20
 2.41038221453303 
 11
 63.6611227875732 
 21
 2.39911874624082 
  0
LINE
  8
0
 10
 63.6611227875732 
 20
 2.39911874624082 
 11
 66.6872412687471 
 21
 2.38410078851787 
  0
LINE
  8
0
 10
 66.6872412687471 
 20
 2.38410078851787 
 11
 69.7171142393517 
 21
 2.37283732022566 
  0
LINE
  8
0
 10
 69.7171142393517 
 20
 2.37283732022566 
 11
 72.7131968050797 
 21
 2.36908283079492 
  0
LINE
  8
0
 10
 72.7131968050797 
 20
 2.36908283079492 
 11
 72.7131968050797 
 21
 2.36908283079492 
  0
LINE
  8
0
 10
 72.7131968050797 
 20
 2.36908283079492 
 11
 72.7131968050797 
 21
 2.36908283079492 
  0
LINE
  8
0
 10
 72.7131968050797 
 20
 2.36908283079492 
 11
 75.6642254976388 
 21
 2.36157385193345 
  0
LINE
  8
0
 10
 75.6642254976388 
 20
 2.36157385193345 
 11
 78.5551823593061 
 21
 2.36157385193345 
  0
LINE
  8
0
 10
 78.5551823593061 
 20
 2.36157385193345 
 11
 81.4085943266661 
 21
 2.35781936250271 
  0
LINE
  8
0
 10
 81.4085943266661 
 20
 2.35781936250271 
 11
 84.220706910288 
 21
 2.36157385193345 
  0
LINE
  8
0
 10
 84.220706910288 
 20
 2.36157385193345 
 11
 86.9915201101717 
 21
 2.36532834136419 
  0
LINE
  8
0
 10
 86.9915201101717 
 20
 2.36532834136419 
 11
 89.7435608629018 
 21
 2.36908283079492 
  0
LINE
  8
0
 10
 89.7435608629018 
 20
 2.36908283079492 
 11
 92.465565700186 
 21
 2.38034629908713 
  0
LINE
  8
0
 10
 92.465565700186 
 20
 2.38034629908713 
 11
 95.1687980903165 
 21
 2.38410078851787 
  0
LINE
  8
0
 10
 95.1687980903165 
 20
 2.38410078851787 
 11
 97.8682759910163 
 21
 2.39536425681008 
  0
LINE
  8
0
 10
 97.8682759910163 
 20
 2.39536425681008 
 11
 100.556490423424 
 21
 2.40287323567155 
  0
LINE
  8
0
 10
 100.556490423424 
 20
 2.40287323567155 
 11
 100.556490423424 
 21
 2.40287323567155 
  0
LINE
  8
0
 10
 100.556490423424 
 20
 2.40287323567155 
 11
 100.556490423424 
 21
 2.40287323567155 
  0
LINE
  8
0
 10
 100.556490423424 
 20
 2.40287323567155 
 11
 103.244704855831 
 21
 2.41413670396377 
  0
LINE
  8
0
 10
 103.244704855831 
 20
 2.41413670396377 
 11
 105.93667377767 
 21
 2.42164568282524 
  0
LINE
  8
0
 10
 105.93667377767 
 20
 2.42164568282524 
 11
 108.636151678369 
 21
 2.43290915111745 
  0
LINE
  8
0
 10
 108.636151678369 
 20
 2.43290915111745 
 11
 111.346893047361 
 21
 2.44041812997892 
  0
LINE
  8
0
 10
 111.346893047361 
 20
 2.44041812997892 
 11
 114.072652374076 
 21
 2.4479271088404 
  0
LINE
  8
0
 10
 114.072652374076 
 20
 2.4479271088404 
 11
 116.820938637376 
 21
 2.45543608770187 
  0
LINE
  8
0
 10
 116.820938637376 
 20
 2.45543608770187 
 11
 119.591751837259 
 21
 2.46294506656334 
  0
LINE
  8
0
 10
 119.591751837259 
 20
 2.46294506656334 
 11
 122.392600952589 
 21
 2.47045404542482 
  0
LINE
  8
0
 10
 122.392600952589 
 20
 2.47045404542482 
 11
 125.223485983365 
 21
 2.47796302428629 
  0
LINE
  8
0
 10
 125.223485983365 
 20
 2.47796302428629 
 11
 128.088161419017 
 21
 2.48547200314776 
  0
LINE
  8
0
 10
 128.088161419017 
 20
 2.48547200314776 
 11
 128.088161419017 
 21
 2.48547200314776 
  0
LINE
  8
0
 10
 128.088161419017 
 20
 2.48547200314776 
 11
 128.088161419017 
 21
 2.48547200314776 
  0
LINE
  8
0
 10
 128.088161419017 
 20
 2.48547200314776 
 11
 130.994136238407 
 21
 2.49298098200924 
  0
LINE
  8
0
 10
 130.994136238407 
 20
 2.49298098200924 
 11
 133.930146973243 
 21
 2.49673547143997 
  0
LINE
  8
0
 10
 133.930146973243 
 20
 2.49673547143997 
 11
 136.899948112956 
 21
 2.50048996087071 
  0
LINE
  8
0
 10
 136.899948112956 
 20
 2.50048996087071 
 11
 139.881012720961 
 21
 2.50424445030145 
  0
LINE
  8
0
 10
 139.881012720961 
 20
 2.50424445030145 
 11
 142.88084977612 
 21
 2.51175342916292 
  0
LINE
  8
0
 10
 142.88084977612 
 20
 2.51175342916292 
 11
 145.88819581014 
 21
 2.51175342916292 
  0
LINE
  8
0
 10
 145.88819581014 
 20
 2.51175342916292 
 11
 148.899296333591 
 21
 2.51550791859366 
  0
LINE
  8
0
 10
 148.899296333591 
 20
 2.51550791859366 
 11
 151.895378899319 
 21
 2.5192624080244 
  0
LINE
  8
0
 10
 151.895378899319 
 20
 2.5192624080244 
 11
 154.883952486185 
 21
 2.5192624080244 
  0
LINE
  8
0
 10
 154.883952486185 
 20
 2.5192624080244 
 11
 157.853753625898 
 21
 2.5192624080244 
  0
LINE
  8
0
 10
 157.853753625898 
 20
 2.5192624080244 
 11
 157.853753625898 
 21
 2.5192624080244 
  0
LINE
  8
0
 10
 157.853753625898 
 20
 2.5192624080244 
 11
 157.853753625898 
 21
 2.5192624080244 
  0
LINE
  8
0
 10
 157.853753625898 
 20
 2.5192624080244 
 11
 160.797273339596 
 21
 2.5192624080244 
  0
LINE
  8
0
 10
 160.797273339596 
 20
 2.5192624080244 
 11
 163.729529585001 
 21
 2.52301689745513 
  0
LINE
  8
0
 10
 163.729529585001 
 20
 2.52301689745513 
 11
 166.646767872684 
 21
 2.52301689745513 
  0
LINE
  8
0
 10
 166.646767872684 
 20
 2.52301689745513 
 11
 169.571515139228 
 21
 2.52301689745513 
  0
LINE
  8
0
 10
 169.571515139228 
 20
 2.52301689745513 
 11
 172.500016895202 
 21
 2.52301689745513 
  0
LINE
  8
0
 10
 172.500016895202 
 20
 2.52301689745513 
 11
 175.454800077192 
 21
 2.52677138688587 
  0
LINE
  8
0
 10
 175.454800077192 
 20
 2.52677138688587 
 11
 178.428355706336 
 21
 2.53052587631661 
  0
LINE
  8
0
 10
 178.428355706336 
 20
 2.53052587631661 
 11
 181.446965208648 
 21
 2.53052587631661 
  0
LINE
  8
0
 10
 181.446965208648 
 20
 2.53052587631661 
 11
 184.506874094699 
 21
 2.53803485517808 
  0
LINE
  8
0
 10
 184.506874094699 
 20
 2.53803485517808 
 11
 187.62310032221 
 21
 2.53803485517808 
  0
LINE
  8
0
 10
 187.62310032221 
 20
 2.53803485517808 
 11
 187.62310032221 
 21
 2.53803485517808 
  0
LINE
  8
0
 10
 187.62310032221 
 20
 2.53803485517808 
 11
 187.62310032221 
 21
 2.53803485517808 
  0
LINE
  8
0
 10
 187.62310032221 
 20
 2.53803485517808 
 11
 190.799398380614 
 21
 2.54554383403955 
  0
LINE
  8
0
 10
 190.799398380614 
 20
 2.54554383403955 
 11
 194.005732354463 
 21
 2.55305281290103 
  0
LINE
  8
0
 10
 194.005732354463 
 20
 2.55305281290103 
 11
 197.215820817743 
 21
 2.5605617917625 
  0
LINE
  8
0
 10
 197.215820817743 
 20
 2.5605617917625 
 11
 200.395873365577 
 21
 2.56807077062397 
  0
LINE
  8
0
 10
 200.395873365577 
 20
 2.56807077062397 
 11
 203.515854082519 
 21
 2.57933423891618 
  0
LINE
  8
0
 10
 203.515854082519 
 20
 2.57933423891618 
 11
 206.541972563693 
 21
 2.58684321777766 
  0
LINE
  8
0
 10
 206.541972563693 
 20
 2.58684321777766 
 11
 209.447947383083 
 21
 2.59435219663913 
  0
LINE
  8
0
 10
 209.447947383083 
 20
 2.59435219663913 
 11
 212.203742625244 
 21
 2.60186117550061 
  0
LINE
  8
0
 10
 212.203742625244 
 20
 2.60186117550061 
 11
 214.771813395868 
 21
 2.61312464379282 
  0
LINE
  8
0
 10
 214.771813395868 
 20
 2.61312464379282 
 11
 217.129632758371 
 21
 2.62063362265429 
  0
LINE
  8
0
 10
 217.129632758371 
 20
 2.62063362265429 
 11
 217.129632758371 
 21
 2.62063362265429 
  0
LINE
  8
0
 10
 217.129632758371 
 20
 2.62063362265429 
 11
 217.129632758371 
 21
 2.62063362265429 
  0
LINE
  8
0
 10
 217.129632758371 
 20
 2.62063362265429 
 11
 219.250919286737 
 21
 2.62814260151576 
  0
LINE
  8
0
 10
 219.250919286737 
 20
 2.62814260151576 
 11
 221.154445428121 
 21
 2.63565158037724 
  0
LINE
  8
0
 10
 221.154445428121 
 20
 2.63565158037724 
 11
 222.874001587398 
 21
 2.64316055923871 
  0
LINE
  8
0
 10
 222.874001587398 
 20
 2.64316055923871 
 11
 224.447132658877 
 21
 2.65066953810018 
  0
LINE
  8
0
 10
 224.447132658877 
 20
 2.65066953810018 
 11
 225.896365579141 
 21
 2.65817851696166 
  0
LINE
  8
0
 10
 225.896365579141 
 20
 2.65817851696166 
 11
 227.255490753068 
 21
 2.66568749582313 
  0
LINE
  8
0
 10
 227.255490753068 
 20
 2.66568749582313 
 11
 228.558298585534 
 21
 2.6731964746846 
  0
LINE
  8
0
 10
 228.558298585534 
 20
 2.6731964746846 
 11
 229.834824991984 
 21
 2.68070545354608 
  0
LINE
  8
0
 10
 229.834824991984 
 20
 2.68070545354608 
 11
 231.115105887865 
 21
 2.68821443240755 
  0
LINE
  8
0
 10
 231.115105887865 
 20
 2.68821443240755 
 11
 232.429177188623 
 21
 2.69572341126903 
  0
LINE
  8
0
 10
 232.429177188623 
 20
 2.69572341126903 
 11
 232.429177188623 
 21
 2.69572341126903 
  0
LINE
  8
0
 10
 232.429177188623 
 20
 2.69572341126903 
 11
 232.429177188623 
 21
 2.69572341126903 
  0
LINE
  8
0
 10
 232.429177188623 
 20
 2.69572341126903 
 11
 233.807074809704 
 21
 2.7032323901305 
  0
LINE
  8
0
 10
 233.807074809704 
 20
 2.7032323901305 
 11
 235.237535282814 
 21
 2.71074136899197 
  0
LINE
  8
0
 10
 235.237535282814 
 20
 2.71074136899197 
 11
 236.720558607956 
 21
 2.72200483728418 
  0
LINE
  8
0
 10
 236.720558607956 
 20
 2.72200483728418 
 11
 238.244881316835 
 21
 2.72951381614566 
  0
LINE
  8
0
 10
 238.244881316835 
 20
 2.72951381614566 
 11
 239.80299443059 
 21
 2.73702279500713 
  0
LINE
  8
0
 10
 239.80299443059 
 20
 2.73702279500713 
 11
 241.3798799915 
 21
 2.7445317738686 
  0
LINE
  8
0
 10
 241.3798799915 
 20
 2.7445317738686 
 11
 242.971783510132 
 21
 2.75579524216081 
  0
LINE
  8
0
 10
 242.971783510132 
 20
 2.75579524216081 
 11
 244.574950497057 
 21
 2.76330422102229 
  0
LINE
  8
0
 10
 244.574950497057 
 20
 2.76330422102229 
 11
 246.166854015689 
 21
 2.7745676893145 
  0
LINE
  8
0
 10
 246.166854015689 
 20
 2.7745676893145 
 11
 247.747494066029 
 21
 2.78583115760671 
  0
LINE
  8
0
 10
 247.747494066029 
 20
 2.78583115760671 
 11
 247.747494066029 
 21
 2.78583115760671 
  0
LINE
  8
0
 10
 247.747494066029 
 20
 2.78583115760671 
 11
 247.747494066029 
 21
 2.78583115760671 
  0
LINE
  8
0
 10
 247.747494066029 
 20
 2.78583115760671 
 11
 249.313116158647 
 21
 2.79334013646818 
  0
LINE
  8
0
 10
 249.313116158647 
 20
 2.79334013646818 
 11
 250.85996580411 
 21
 2.80460360476039 
  0
LINE
  8
0
 10
 250.85996580411 
 20
 2.80460360476039 
 11
 252.384288512989 
 21
 2.81211258362187 
  0
LINE
  8
0
 10
 252.384288512989 
 20
 2.81211258362187 
 11
 253.897347753576 
 21
 2.81962156248334 
  0
LINE
  8
0
 10
 253.897347753576 
 20
 2.81962156248334 
 11
 255.399143525871 
 21
 2.83088503077555 
  0
LINE
  8
0
 10
 255.399143525871 
 20
 2.83088503077555 
 11
 256.885921340443 
 21
 2.84214849906776 
  0
LINE
  8
0
 10
 256.885921340443 
 20
 2.84214849906776 
 11
 258.368944665584 
 21
 2.84965747792923 
  0
LINE
  8
0
 10
 258.368944665584 
 20
 2.84965747792923 
 11
 259.844459011863 
 21
 2.86092094622144 
  0
LINE
  8
0
 10
 259.844459011863 
 20
 2.86092094622144 
 11
 261.312464379282 
 21
 2.87218441451366 
  0
LINE
  8
0
 10
 261.312464379282 
 20
 2.87218441451366 
 11
 262.7804697467 
 21
 2.87593890394439 
  0
LINE
  8
0
 10
 262.7804697467 
 20
 2.87593890394439 
 11
 262.7804697467 
 21
 2.87593890394439 
  0
LINE
  8
0
 10
 262.7804697467 
 20
 2.87593890394439 
 11
 261.695422301217 
 21
-.289095686166734 
  0
LINE
  8
0
 10
 261.695422301217 
 20
-.289095686166734 
 11
 261.695422301217 
 21
-.289095686166734 
  0
LINE
  8
0
 10
 261.695422301217 
 20
-.289095686166734 
 11
 260.264961828106 
 21
-.360430985350733 
  0
LINE
  8
0
 10
 260.264961828106 
 20
-.360430985350733 
 11
 258.830746865565 
 21
-.435520773965469 
  0
LINE
  8
0
 10
 258.830746865565 
 20
-.435520773965469 
 11
 257.392777413592 
 21
-.506856073149469 
  0
LINE
  8
0
 10
 257.392777413592 
 20
-.506856073149469 
 11
 255.951053472189 
 21
-.581945861764205 
  0
LINE
  8
0
 10
 255.951053472189 
 20
-.581945861764205 
 11
 254.498066062494 
 21
-.653281160948204 
  0
LINE
  8
0
 10
 254.498066062494 
 20
-.653281160948204 
 11
 253.033815184507 
 21
-.72837094956294 
  0
LINE
  8
0
 10
 253.033815184507 
 20
-.72837094956294 
 11
 251.554546348797 
 21
-.803460738177676 
  0
LINE
  8
0
 10
 251.554546348797 
 20
-.803460738177676 
 11
 250.067768534225 
 21
-.878550526792412 
  0
LINE
  8
0
 10
 250.067768534225 
 20
-.878550526792412 
 11
 248.558463783069 
 21
-.949885825976411 
  0
LINE
  8
0
 10
 248.558463783069 
 20
-.949885825976411 
 11
 247.030386584759 
 21
-1.02497561459115 
  0
LINE
  8
0
 10
 247.030386584759 
 20
-1.02497561459115 
 11
 247.030386584759 
 21
-1.02497561459115 
  0
LINE
  8
0
 10
 247.030386584759 
 20
-1.02497561459115 
 11
 247.030386584759 
 21
-1.02497561459115 
  0
LINE
  8
0
 10
 247.030386584759 
 20
-1.02497561459115 
 11
 245.483536939295 
 21
-1.10006540320588 
  0
LINE
  8
0
 10
 245.483536939295 
 20
-1.10006540320588 
 11
 243.925423825539 
 21
-1.17515519182062 
  0
LINE
  8
0
 10
 243.925423825539 
 20
-1.17515519182062 
 11
 242.356047243491 
 21
-1.25024498043536 
  0
LINE
  8
0
 10
 242.356047243491 
 20
-1.25024498043536 
 11
 240.797934129736 
 21
-1.32533476905009 
  0
LINE
  8
0
 10
 240.797934129736 
 20
-1.32533476905009 
 11
 239.254838973703 
 21
-1.40042455766483 
  0
LINE
  8
0
 10
 239.254838973703 
 20
-1.40042455766483 
 11
 237.738025243685 
 21
-1.46800536741809 
  0
LINE
  8
0
 10
 237.738025243685 
 20
-1.46800536741809 
 11
 236.251247429113 
 21
-1.53934066660209 
  0
LINE
  8
0
 10
 236.251247429113 
 20
-1.53934066660209 
 11
 234.80576899828 
 21
-1.60692147635535 
  0
LINE
  8
0
 10
 234.80576899828 
 20
-1.60692147635535 
 11
 233.409098930046 
 21
-1.67450228610861 
  0
LINE
  8
0
 10
 233.409098930046 
 20
-1.67450228610861 
 11
 232.072500692703 
 21
-1.73832860643114 
  0
LINE
  8
0
 10
 232.072500692703 
 20
-1.73832860643114 
 11
 232.072500692703 
 21
-1.73832860643114 
  0
LINE
  8
0
 10
 232.072500692703 
 20
-1.73832860643114 
 11
 232.072500692703 
 21
-1.73832860643114 
  0
LINE
  8
0
 10
 232.072500692703 
 20
-1.73832860643114 
 11
 230.803483265114 
 21
-1.79840043732293 
  0
LINE
  8
0
 10
 230.803483265114 
 20
-1.79840043732293 
 11
 229.564501752971 
 21
-1.85847226821472 
  0
LINE
  8
0
 10
 229.564501752971 
 20
-1.85847226821472 
 11
 228.33302921969 
 21
-1.91854409910651 
  0
LINE
  8
0
 10
 228.33302921969 
 20
-1.91854409910651 
 11
 227.075275260393 
 21
-1.97486144056756 
  0
LINE
  8
0
 10
 227.075275260393 
 20
-1.97486144056756 
 11
 225.753694980773 
 21
-2.03117878202861 
  0
LINE
  8
0
 10
 225.753694980773 
 20
-2.03117878202861 
 11
 224.345761444247 
 21
-2.08749612348966 
  0
LINE
  8
0
 10
 224.345761444247 
 20
-2.08749612348966 
 11
 222.810175267076 
 21
-2.14756795438145 
  0
LINE
  8
0
 10
 222.810175267076 
 20
-2.14756795438145 
 11
 221.120655023244 
 21
-2.21514876413471 
  0
LINE
  8
0
 10
 221.120655023244 
 20
-2.21514876413471 
 11
 219.239655818445 
 21
-2.28272957388798 
  0
LINE
  8
0
 10
 219.239655818445 
 20
-2.28272957388798 
 11
 217.144650716094 
 21
-2.35781936250271 
  0
LINE
  8
0
 10
 217.144650716094 
 20
-2.35781936250271 
 11
 217.144650716094 
 21
-2.35781936250271 
  0
LINE
  8
0
 10
 217.144650716094 
 20
-2.35781936250271 
 11
 217.144650716094 
 21
-2.35781936250271 
  0
LINE
  8
0
 10
 217.144650716094 
 20
-2.35781936250271 
 11
 214.805603800745 
 21
-2.43666364054819 
  0
LINE
  8
0
 10
 214.805603800745 
 20
-2.43666364054819 
 11
 212.245042008982 
 21
-2.5192624080244 
  0
LINE
  8
0
 10
 212.245042008982 
 20
-2.5192624080244 
 11
 209.493001256252 
 21
-2.60186117550061 
  0
LINE
  8
0
 10
 209.493001256252 
 20
-2.60186117550061 
 11
 206.587026436862 
 21
-2.69196892183829 
  0
LINE
  8
0
 10
 206.587026436862 
 20
-2.69196892183829 
 11
 203.557153466257 
 21
-2.77832217874524 
  0
LINE
  8
0
 10
 203.557153466257 
 20
-2.77832217874524 
 11
 200.433418259884 
 21
-2.86467543565218 
  0
LINE
  8
0
 10
 200.433418259884 
 20
-2.86467543565218 
 11
 197.245856733189 
 21
-2.94727420312839 
  0
LINE
  8
0
 10
 197.245856733189 
 20
-2.94727420312839 
 11
 194.028259291047 
 21
-3.03362746003534 
  0
LINE
  8
0
 10
 194.028259291047 
 20
-3.03362746003534 
 11
 190.814416338337 
 21
-3.10871724865007 
  0
LINE
  8
0
 10
 190.814416338337 
 20
-3.10871724865007 
 11
 187.638118279933 
 21
-3.18005254783407 
  0
LINE
  8
0
 10
 187.638118279933 
 20
-3.18005254783407 
 11
 187.638118279933 
 21
-3.18005254783407 
  0
LINE
  8
0
 10
 187.638118279933 
 20
-3.18005254783407 
 11
 187.638118279933 
 21
-3.18005254783407 
  0
LINE
  8
0
 10
 187.638118279933 
 20
-3.18005254783407 
 11
 184.51438307356 
 21
-3.2438788681566 
  0
LINE
  8
0
 10
 184.51438307356 
 20
-3.2438788681566 
 11
 181.450719698079 
 21
-3.30019620961765 
  0
LINE
  8
0
 10
 181.450719698079 
 20
-3.30019620961765 
 11
 178.432110195767 
 21
-3.34900457221723 
  0
LINE
  8
0
 10
 178.432110195767 
 20
-3.34900457221723 
 11
 175.451045587762 
 21
-3.39405844538607 
  0
LINE
  8
0
 10
 175.451045587762 
 20
-3.39405844538607 
 11
 172.503771384633 
 21
-3.43160333969344 
  0
LINE
  8
0
 10
 172.503771384633 
 20
-3.43160333969344 
 11
 169.575269628659 
 21
-3.46914823400081 
  0
LINE
  8
0
 10
 169.575269628659 
 20
-3.46914823400081 
 11
 166.654276851545 
 21
-3.4991841494467 
  0
LINE
  8
0
 10
 166.654276851545 
 20
-3.4991841494467 
 11
 163.737038563863 
 21
-3.52546557546186 
  0
LINE
  8
0
 10
 163.737038563863 
 20
-3.52546557546186 
 11
 160.808536807888 
 21
-3.54799251204628 
  0
LINE
  8
0
 10
 160.808536807888 
 20
-3.54799251204628 
 11
 157.86501709419 
 21
-3.5705194486307 
  0
LINE
  8
0
 10
 157.86501709419 
 20
-3.5705194486307 
 11
 157.86501709419 
 21
-3.5705194486307 
  0
LINE
  8
0
 10
 157.86501709419 
 20
-3.5705194486307 
 11
 157.86501709419 
 21
-3.5705194486307 
  0
LINE
  8
0
 10
 157.86501709419 
 20
-3.5705194486307 
 11
 154.898970443908 
 21
-3.59304638521512 
  0
LINE
  8
0
 10
 154.898970443908 
 20
-3.59304638521512 
 11
 151.910396857042 
 21
-3.61181883236881 
  0
LINE
  8
0
 10
 151.910396857042 
 20
-3.61181883236881 
 11
 148.910559801883 
 21
-3.63059127952249 
  0
LINE
  8
0
 10
 148.910559801883 
 20
-3.63059127952249 
 11
 145.903213767863 
 21
-3.64560923724544 
  0
LINE
  8
0
 10
 145.903213767863 
 20
-3.64560923724544 
 11
 142.895867733843 
 21
-3.66062719496838 
  0
LINE
  8
0
 10
 142.895867733843 
 20
-3.66062719496838 
 11
 139.896030678684 
 21
-3.67189066326059 
  0
LINE
  8
0
 10
 139.896030678684 
 20
-3.67189066326059 
 11
 136.911211581248 
 21
-3.68690862098354 
  0
LINE
  8
0
 10
 136.911211581248 
 20
-3.68690862098354 
 11
 133.945164930966 
 21
-3.69441759984502 
  0
LINE
  8
0
 10
 133.945164930966 
 20
-3.69441759984502 
 11
 131.005399706699 
 21
-3.70568106813723 
  0
LINE
  8
0
 10
 131.005399706699 
 20
-3.70568106813723 
 11
 128.099424887309 
 21
-3.72069902586017 
  0
LINE
  8
0
 10
 128.099424887309 
 20
-3.72069902586017 
 11
 128.099424887309 
 21
-3.72069902586017 
  0
LINE
  8
0
 10
 128.099424887309 
 20
-3.72069902586017 
 11
 128.099424887309 
 21
-3.72069902586017 
  0
LINE
  8
0
 10
 128.099424887309 
 20
-3.72069902586017 
 11
 125.230994962226 
 21
-3.72445351529091 
  0
LINE
  8
0
 10
 125.230994962226 
 20
-3.72445351529091 
 11
 122.400109931451 
 21
-3.73571698358312 
  0
LINE
  8
0
 10
 122.400109931451 
 20
-3.73571698358312 
 11
 119.603015305552 
 21
-3.73947147301386 
  0
LINE
  8
0
 10
 119.603015305552 
 20
-3.73947147301386 
 11
 116.828447616237 
 21
-3.74698045187533 
  0
LINE
  8
0
 10
 116.828447616237 
 20
-3.74698045187533 
 11
 114.080161352938 
 21
-3.75073494130607 
  0
LINE
  8
0
 10
 114.080161352938 
 20
-3.75073494130607 
 11
 111.354402026223 
 21
-3.7544894307368 
  0
LINE
  8
0
 10
 111.354402026223 
 20
-3.7544894307368 
 11
 108.643660657231 
 21
-3.7544894307368 
  0
LINE
  8
0
 10
 108.643660657231 
 20
-3.7544894307368 
 11
 105.944182756531 
 21
-3.75073494130607 
  0
LINE
  8
0
 10
 105.944182756531 
 20
-3.75073494130607 
 11
 103.252213834693 
 21
-3.74698045187533 
  0
LINE
  8
0
 10
 103.252213834693 
 20
-3.74698045187533 
 11
 100.563999402285 
 21
-3.74322596244459 
  0
LINE
  8
0
 10
 100.563999402285 
 20
-3.74322596244459 
 11
 100.563999402285 
 21
-3.74322596244459 
  0
LINE
  8
0
 10
 100.563999402285 
 20
-3.74322596244459 
 11
 100.563999402285 
 21
-3.74322596244459 
  0
LINE
  8
0
 10
 100.563999402285 
 20
-3.74322596244459 
 11
 97.8757849698777 
 21
-3.73947147301386 
  0
LINE
  8
0
 10
 97.8757849698777 
 20
-3.73947147301386 
 11
 95.1838160480395 
 21
-3.72820800472165 
  0
LINE
  8
0
 10
 95.1838160480395 
 20
-3.72820800472165 
 11
 92.480583657909 
 21
-3.7131900469987 
  0
LINE
  8
0
 10
 92.480583657909 
 20
-3.7131900469987 
 11
 89.7585788206248 
 21
-3.69441759984502 
  0
LINE
  8
0
 10
 89.7585788206248 
 20
-3.69441759984502 
 11
 87.0140470467562 
 21
-3.67189066326059 
  0
LINE
  8
0
 10
 87.0140470467562 
 20
-3.67189066326059 
 11
 84.2357248680109 
 21
-3.6418547478147 
  0
LINE
  8
0
 10
 84.2357248680109 
 20
-3.6418547478147 
 11
 81.4236122843891 
 21
-3.6005553640766 
  0
LINE
  8
0
 10
 81.4236122843891 
 20
-3.6005553640766 
 11
 78.5739548064598 
 21
-3.55925598033849 
  0
LINE
  8
0
 10
 78.5739548064598 
 20
-3.55925598033849 
 11
 75.675488965931 
 21
-3.50293863887744 
  0
LINE
  8
0
 10
 75.675488965931 
 20
-3.50293863887744 
 11
 72.7244602733719 
 21
-3.43911231855491 
  0
LINE
  8
0
 10
 72.7244602733719 
 20
-3.43911231855491 
 11
 72.7244602733719 
 21
-3.43911231855491 
  0
LINE
  8
0
 10
 72.7244602733719 
 20
-3.43911231855491 
 11
 72.7244602733719 
 21
-3.43911231855491 
  0
LINE
  8
0
 10
 72.7244602733719 
 20
-3.43911231855491 
 11
 69.7246232182132 
 21
-3.36026804050944 
  0
LINE
  8
0
 10
 69.7246232182132 
 20
-3.36026804050944 
 11
 66.6909957581778 
 21
-3.27766927303323 
  0
LINE
  8
0
 10
 66.6909957581778 
 20
-3.27766927303323 
 11
 63.6536138087118 
 21
-3.18380703726481 
  0
LINE
  8
0
 10
 63.6536138087118 
 20
-3.18380703726481 
 11
 60.6462677746916 
 21
-3.08619031206565 
  0
LINE
  8
0
 10
 60.6462677746916 
 20
-3.08619031206565 
 11
 57.6952390821325 
 21
-2.98481909743576 
  0
LINE
  8
0
 10
 57.6952390821325 
 20
-2.98481909743576 
 11
 54.834318135911 
 21
-2.88344788280587 
  0
LINE
  8
0
 10
 54.834318135911 
 20
-2.88344788280587 
 11
 52.0860318726117 
 21
-2.77832217874524 
  0
LINE
  8
0
 10
 52.0860318726117 
 20
-2.77832217874524 
 11
 49.4766617182496 
 21
-2.6731964746846 
  0
LINE
  8
0
 10
 49.4766617182496 
 20
-2.6731964746846 
 11
 47.0437525671322 
 21
-2.57182526005471 
  0
LINE
  8
0
 10
 47.0437525671322 
 20
-2.57182526005471 
 11
 44.8098313558438 
 21
-2.47796302428629 
  0
LINE
  8
0
 10
 44.8098313558438 
 20
-2.47796302428629 
 11
 44.8098313558438 
 21
-2.47796302428629 
  0
LINE
  8
0
 10
 44.8098313558438 
 20
-2.47796302428629 
 11
 44.8098313558438 
 21
-2.47796302428629 
  0
LINE
  8
0
 10
 44.8098313558438 
 20
-2.47796302428629 
 11
 42.8011795103996 
 21
-2.38410078851787 
  0
LINE
  8
0
 10
 42.8011795103996 
 20
-2.38410078851787 
 11
 40.9877611153537 
 21
-2.30150202104166 
  0
LINE
  8
0
 10
 40.9877611153537 
 20
-2.30150202104166 
 11
 39.3470492341217 
 21
-2.22265774299619 
  0
LINE
  8
0
 10
 39.3470492341217 
 20
-2.22265774299619 
 11
 37.845253461827 
 21
-2.14381346495072 
  0
LINE
  8
0
 10
 37.845253461827 
 20
-2.14381346495072 
 11
 36.4598468618851 
 21
-2.06872367633598 
  0
LINE
  8
0
 10
 36.4598468618851 
 20
-2.06872367633598 
 11
 35.149530050558 
 21
-1.99363388772124 
  0
LINE
  8
0
 10
 35.149530050558 
 20
-1.99363388772124 
 11
 33.8955305806919 
 21
-1.91854409910651 
  0
LINE
  8
0
 10
 33.8955305806919 
 20
-1.91854409910651 
 11
 32.6603035579795 
 21
-1.84720879992251 
  0
LINE
  8
0
 10
 32.6603035579795 
 20
-1.84720879992251 
 11
 31.4213220458363 
 21
-1.76836452187704 
  0
LINE
  8
0
 10
 31.4213220458363 
 20
-1.76836452187704 
 11
 30.1410411499551 
 21
-1.6932747332623 
  0
LINE
  8
0
 10
 30.1410411499551 
 20
-1.6932747332623 
 11
 30.1410411499551 
 21
-1.6932747332623 
  0
LINE
  8
0
 10
 30.1410411499551 
 20
-1.6932747332623 
 11
 30.1410411499551 
 21
-1.6932747332623 
  0
LINE
  8
0
 10
 30.1410411499551 
 20
-1.6932747332623 
 11
 28.800688423182 
 21
-1.61067596578609 
  0
LINE
  8
0
 10
 28.800688423182 
 20
-1.61067596578609 
 11
 27.4002638655172 
 21
-1.52807719830988 
  0
LINE
  8
0
 10
 27.4002638655172 
 20
-1.52807719830988 
 11
 25.9547854346835 
 21
-1.44172394140293 
  0
LINE
  8
0
 10
 25.9547854346835 
 20
-1.44172394140293 
 11
 24.4604986412503 
 21
-1.35537068449599 
  0
LINE
  8
0
 10
 24.4604986412503 
 20
-1.35537068449599 
 11
 22.9361759323711 
 21
-1.2652629381583 
  0
LINE
  8
0
 10
 22.9361759323711 
 20
-1.2652629381583 
 11
 21.3893262869076 
 21
-1.17515519182062 
  0
LINE
  8
0
 10
 21.3893262869076 
 20
-1.17515519182062 
 11
 19.8161952154289 
 21
-1.0812929560522 
  0
LINE
  8
0
 10
 19.8161952154289 
 20
-1.0812929560522 
 11
 18.2430641439501 
 21
-.994939699145253 
  0
LINE
  8
0
 10
 18.2430641439501 
 20
-.994939699145253 
 11
 16.6624240936099 
 21
-.90483195280757 
  0
LINE
  8
0
 10
 16.6624240936099 
 20
-.90483195280757 
 11
 15.093047511562 
 21
-.814724206469886 
  0
LINE
  8
0
 10
 15.093047511562 
 20
-.814724206469886 
 11
 15.093047511562 
 21
-.814724206469886 
  0
LINE
  8
0
 10
 15.093047511562 
 20
-.814724206469886 
 11
 15.093047511562 
 21
-.814724206469886 
  0
LINE
  8
0
 10
 15.093047511562 
 20
-.814724206469886 
 11
 13.5386888872369 
 21
-.732125438993677 
  0
LINE
  8
0
 10
 13.5386888872369 
 20
-.732125438993677 
 11
 11.9955937312041 
 21
-.64577218208673 
  0
LINE
  8
0
 10
 11.9955937312041 
 20
-.64577218208673 
 11
 10.471271022325 
 21
-.563173414610521 
  0
LINE
  8
0
 10
 10.471271022325 
 20
-.563173414610521 
 11
 8.95070280287654 
 21
-.480574647134311 
  0
LINE
  8
0
 10
 8.95070280287654 
 20
-.480574647134311 
 11
 7.44515254115108 
 21
-.397975879658101 
  0
LINE
  8
0
 10
 7.44515254115108 
 20
-.397975879658101 
 11
 5.9471112582871 
 21
-.315377112181892 
  0
LINE
  8
0
 10
 5.9471112582871 
 20
-.315377112181892 
 11
 4.45282446485385 
 21
-.236532834136419 
  0
LINE
  8
0
 10
 4.45282446485385 
 20
-.236532834136419 
 11
 2.96604665028208 
 21
-.157688556090946 
  0
LINE
  8
0
 10
 2.96604665028208 
 20
-.157688556090946 
 11
 1.4792688357103 
 21
-8.25987674762097E-02 
  0
LINE
  8
0
 10
 1.4792688357103 
 20
-8.25987674762097E-02 
 11
 0 
 21
 0 
  0
LINE
  8
0
 10
 0 
 20
 0 
 11
 0 
 21
 0 
  0
ENDSEC
  0
EOF
