  0
SECTION
  2
ENTITIES
  0
LINE
  8
0
 10
 0 
 20
 0 
 11
-2.6731964746846 
 21
 2.46294506656334 
  0
LINE
  8
0
 10
 14.2407784107847 
 20
-.525628520303153 
 11
 12.4461324628925 
 21
 2.57557974948545 
  0
LINE
  8
0
 10
 28.4214849906776 
 20
-1.06252050889852 
 11
 27.51665303787 
 21
 2.66193300639239 
  0
LINE
  8
0
 10
 42.2079701803432 
 20
-1.52807719830988 
 11
 42.2079701803432 
 21
 2.69947790069976 
  0
LINE
  8
0
 10
 70.1338625661635 
 20
-2.0912506129204 
 11
 70.1376170555942 
 21
 2.69947790069976 
  0
LINE
  8
0
 10
 97.9696472056462 
 20
-2.30150202104166 
 11
 97.9809106739384 
 21
 2.63565158037724 
  0
LINE
  8
0
 10
 125.508827180101 
 20
-2.43290915111745 
 11
 125.516336158962 
 21
 2.51550791859366 
  0
LINE
  8
0
 10
 155.270664897551 
 20
-2.54929832347029 
 11
 155.278173876413 
 21
 2.43290915111745 
  0
LINE
  8
0
 10
 185.040011593863 
 20
-2.45543608770187 
 11
 185.055029551586 
 21
 2.39160976737934 
  0
LINE
  8
0
 10
 214.546544030024 
 20
-1.83219084219956 
 11
 214.572825456039 
 21
 2.40662772510229 
  0
LINE
  8
0
 10
 229.219088725343 
 20
-1.22020906498946 
 11
 229.515693390372 
 21
 2.45168159827113 
  0
LINE
  8
0
 10
 243.925423825539 
 20
-.45804771054989 
 11
 244.48859724015 
 21
 2.51175342916292 
  0
LINE
  8
0
 10
 0 
 20
 0 
 11
-2.6731964746846 
 21
 2.46294506656334 
  0
LINE
  8
0
 10
-2.6731964746846 
 20
 2.46294506656334 
 11
-2.6731964746846 
 21
 2.46294506656334 
  0
LINE
  8
0
 10
-2.6731964746846 
 20
 2.46294506656334 
 11
-1.19017314954357 
 21
 2.47420853485555 
  0
LINE
  8
0
 10
-1.19017314954357 
 20
 2.47420853485555 
 11
 .296604665028208 
 21
 2.4892264925785 
  0
LINE
  8
0
 10
 .296604665028208 
 20
 2.4892264925785 
 11
 1.78713696903072 
 21
 2.49673547143997 
  0
LINE
  8
0
 10
 1.78713696903072 
 20
 2.49673547143997 
 11
 3.28142376246397 
 21
 2.50799893973219 
  0
LINE
  8
0
 10
 3.28142376246397 
 20
 2.50799893973219 
 11
 4.78321953475869 
 21
 2.52301689745513 
  0
LINE
  8
0
 10
 4.78321953475869 
 20
 2.52301689745513 
 11
 6.29252428591488 
 21
 2.53428036574734 
  0
LINE
  8
0
 10
 6.29252428591488 
 20
 2.53428036574734 
 11
 7.81309250536329 
 21
 2.54554383403955 
  0
LINE
  8
0
 10
 7.81309250536329 
 20
 2.54554383403955 
 11
 9.34116970367317 
 21
 2.55680730233176 
  0
LINE
  8
0
 10
 9.34116970367317 
 20
 2.55680730233176 
 11
 10.884264859706 
 21
 2.56807077062397 
  0
LINE
  8
0
 10
 10.884264859706 
 20
 2.56807077062397 
 11
 12.4423779734618 
 21
 2.57557974948545 
  0
LINE
  8
0
 10
 12.4423779734618 
 20
 2.57557974948545 
 11
 12.4423779734618 
 21
 2.57557974948545 
  0
LINE
  8
0
 10
 12.4423779734618 
 20
 2.57557974948545 
 11
 12.4423779734618 
 21
 2.57557974948545 
  0
LINE
  8
0
 10
 12.4423779734618 
 20
 2.57557974948545 
 11
 14.0155090449405 
 21
 2.58684321777766 
  0
LINE
  8
0
 10
 14.0155090449405 
 20
 2.58684321777766 
 11
 15.5961490952807 
 21
 2.59810668606987 
  0
LINE
  8
0
 10
 15.5961490952807 
 20
 2.59810668606987 
 11
 17.1767891456209 
 21
 2.60561566493134 
  0
LINE
  8
0
 10
 17.1767891456209 
 20
 2.60561566493134 
 11
 18.7461657276689 
 21
 2.61687913322355 
  0
LINE
  8
0
 10
 18.7461657276689 
 20
 2.61687913322355 
 11
 20.3005243519939 
 21
 2.62438811208503 
  0
LINE
  8
0
 10
 20.3005243519939 
 20
 2.62438811208503 
 11
 21.8286015503038 
 21
 2.6318970909465 
  0
LINE
  8
0
 10
 21.8286015503038 
 20
 2.6318970909465 
 11
 23.3191338543063 
 21
 2.63940606980797 
  0
LINE
  8
0
 10
 23.3191338543063 
 20
 2.63940606980797 
 11
 24.7721212640014 
 21
 2.64691504866945 
  0
LINE
  8
0
 10
 24.7721212640014 
 20
 2.64691504866945 
 11
 26.1725458216663 
 21
 2.65442402753092 
  0
LINE
  8
0
 10
 26.1725458216663 
 20
 2.65442402753092 
 11
 27.51665303787 
 21
 2.66193300639239 
  0
LINE
  8
0
 10
 27.51665303787 
 20
 2.66193300639239 
 11
 27.51665303787 
 21
 2.66193300639239 
  0
LINE
  8
0
 10
 27.51665303787 
 20
 2.66193300639239 
 11
 27.51665303787 
 21
 2.66193300639239 
  0
LINE
  8
0
 10
 27.51665303787 
 20
 2.66193300639239 
 11
 28.7969339337513 
 21
 2.66568749582313 
  0
LINE
  8
0
 10
 28.7969339337513 
 20
 2.66568749582313 
 11
 30.0396699353252 
 21
 2.6731964746846 
  0
LINE
  8
0
 10
 30.0396699353252 
 20
 2.6731964746846 
 11
 31.2748969580376 
 21
 2.67695096411534 
  0
LINE
  8
0
 10
 31.2748969580376 
 20
 2.67695096411534 
 11
 32.5364054067651 
 21
 2.68070545354608 
  0
LINE
  8
0
 10
 32.5364054067651 
 20
 2.68070545354608 
 11
 33.8467222180923 
 21
 2.68445994297681 
  0
LINE
  8
0
 10
 33.8467222180923 
 20
 2.68445994297681 
 11
 35.2358833074649 
 21
 2.68821443240755 
  0
LINE
  8
0
 10
 35.2358833074649 
 20
 2.68821443240755 
 11
 36.7376790797596 
 21
 2.69196892183829 
  0
LINE
  8
0
 10
 36.7376790797596 
 20
 2.69196892183829 
 11
 38.3783909609916 
 21
 2.69572341126903 
  0
LINE
  8
0
 10
 38.3783909609916 
 20
 2.69572341126903 
 11
 40.1955638454682 
 21
 2.69572341126903 
  0
LINE
  8
0
 10
 40.1955638454682 
 20
 2.69572341126903 
 11
 42.2042156909124 
 21
 2.69947790069976 
  0
LINE
  8
0
 10
 42.2042156909124 
 20
 2.69947790069976 
 11
 42.2042156909124 
 21
 2.69947790069976 
  0
LINE
  8
0
 10
 42.2042156909124 
 20
 2.69947790069976 
 11
 42.2042156909124 
 21
 2.69947790069976 
  0
LINE
  8
0
 10
 42.2042156909124 
 20
 2.69947790069976 
 11
 44.4418913916315 
 21
 2.7032323901305 
  0
LINE
  8
0
 10
 44.4418913916315 
 20
 2.7032323901305 
 11
 46.8785550321797 
 21
 2.7032323901305 
  0
LINE
  8
0
 10
 46.8785550321797 
 20
 2.7032323901305 
 11
 49.4841706971111 
 21
 2.7032323901305 
  0
LINE
  8
0
 10
 49.4841706971111 
 20
 2.7032323901305 
 11
 52.2362114498412 
 21
 2.70698687956124 
  0
LINE
  8
0
 10
 52.2362114498412 
 20
 2.70698687956124 
 11
 55.1008868854933 
 21
 2.71074136899197 
  0
LINE
  8
0
 10
 55.1008868854933 
 20
 2.71074136899197 
 11
 58.0556700674832 
 21
 2.71074136899197 
  0
LINE
  8
0
 10
 58.0556700674832 
 20
 2.71074136899197 
 11
 61.0630161015034 
 21
 2.71074136899197 
  0
LINE
  8
0
 10
 61.0630161015034 
 20
 2.71074136899197 
 11
 64.1003980509695 
 21
 2.70698687956124 
  0
LINE
  8
0
 10
 64.1003980509695 
 20
 2.70698687956124 
 11
 67.1340255110048 
 21
 2.7032323901305 
  0
LINE
  8
0
 10
 67.1340255110048 
 20
 2.7032323901305 
 11
 70.1376170555942 
 21
 2.69947790069976 
  0
LINE
  8
0
 10
 70.1376170555942 
 20
 2.69947790069976 
 11
 70.1376170555942 
 21
 2.69947790069976 
  0
LINE
  8
0
 10
 70.1376170555942 
 20
 2.69947790069976 
 11
 70.1376170555942 
 21
 2.69947790069976 
  0
LINE
  8
0
 10
 70.1376170555942 
 20
 2.69947790069976 
 11
 73.0924002375841 
 21
 2.69947790069976 
  0
LINE
  8
0
 10
 73.0924002375841 
 20
 2.69947790069976 
 11
 75.9908660781129 
 21
 2.69196892183829 
  0
LINE
  8
0
 10
 75.9908660781129 
 20
 2.69196892183829 
 11
 78.8405235560421 
 21
 2.68821443240755 
  0
LINE
  8
0
 10
 78.8405235560421 
 20
 2.68821443240755 
 11
 81.6488816502333 
 21
 2.68445994297681 
  0
LINE
  8
0
 10
 81.6488816502333 
 20
 2.68445994297681 
 11
 84.4272038289785 
 21
 2.67695096411534 
  0
LINE
  8
0
 10
 84.4272038289785 
 20
 2.67695096411534 
 11
 87.1754900922778 
 21
 2.6731964746846 
  0
LINE
  8
0
 10
 87.1754900922778 
 20
 2.6731964746846 
 11
 89.8937404401313 
 21
 2.66568749582313 
  0
LINE
  8
0
 10
 89.8937404401313 
 20
 2.66568749582313 
 11
 92.6007273196925 
 21
 2.65442402753092 
  0
LINE
  8
0
 10
 92.6007273196925 
 20
 2.65442402753092 
 11
 95.2964507309616 
 21
 2.64691504866945 
  0
LINE
  8
0
 10
 95.2964507309616 
 20
 2.64691504866945 
 11
 97.9809106739384 
 21
 2.63565158037724 
  0
LINE
  8
0
 10
 97.9809106739384 
 20
 2.63565158037724 
 11
 97.9809106739384 
 21
 2.63565158037724 
  0
LINE
  8
0
 10
 97.9809106739384 
 20
 2.63565158037724 
 11
 97.9809106739384 
 21
 2.63565158037724 
  0
LINE
  8
0
 10
 97.9809106739384 
 20
 2.63565158037724 
 11
 100.669125106346 
 21
 2.62438811208503 
  0
LINE
  8
0
 10
 100.669125106346 
 20
 2.62438811208503 
 11
 103.357339538754 
 21
 2.60937015436208 
  0
LINE
  8
0
 10
 103.357339538754 
 20
 2.60937015436208 
 11
 106.056817439453 
 21
 2.60186117550061 
  0
LINE
  8
0
 10
 106.056817439453 
 20
 2.60186117550061 
 11
 108.771313297876 
 21
 2.59059770720839 
  0
LINE
  8
0
 10
 108.771313297876 
 20
 2.59059770720839 
 11
 111.497072624591 
 21
 2.57557974948545 
  0
LINE
  8
0
 10
 111.497072624591 
 20
 2.57557974948545 
 11
 114.24160439846 
 21
 2.56431628119324 
  0
LINE
  8
0
 10
 114.24160439846 
 20
 2.56431628119324 
 11
 117.016172087774 
 21
 2.55305281290103 
  0
LINE
  8
0
 10
 117.016172087774 
 20
 2.55305281290103 
 11
 119.813266713673 
 21
 2.54178934460882 
  0
LINE
  8
0
 10
 119.813266713673 
 20
 2.54178934460882 
 11
 122.644151744448 
 21
 2.52677138688587 
  0
LINE
  8
0
 10
 122.644151744448 
 20
 2.52677138688587 
 11
 125.512581669531 
 21
 2.5192624080244 
  0
LINE
  8
0
 10
 125.512581669531 
 20
 2.5192624080244 
 11
 125.512581669531 
 21
 2.5192624080244 
  0
LINE
  8
0
 10
 125.512581669531 
 20
 2.5192624080244 
 11
 125.512581669531 
 21
 2.5192624080244 
  0
LINE
  8
0
 10
 125.512581669531 
 20
 2.5192624080244 
 11
 128.418556488922 
 21
 2.50799893973219 
  0
LINE
  8
0
 10
 128.418556488922 
 20
 2.50799893973219 
 11
 131.358321713189 
 21
 2.49673547143997 
  0
LINE
  8
0
 10
 131.358321713189 
 20
 2.49673547143997 
 11
 134.324368363471 
 21
 2.4892264925785 
  0
LINE
  8
0
 10
 134.324368363471 
 20
 2.4892264925785 
 11
 137.312941950337 
 21
 2.47796302428629 
  0
LINE
  8
0
 10
 137.312941950337 
 20
 2.47796302428629 
 11
 140.312779005496 
 21
 2.47045404542482 
  0
LINE
  8
0
 10
 140.312779005496 
 20
 2.47045404542482 
 11
 143.316370550085 
 21
 2.45919057713261 
  0
LINE
  8
0
 10
 143.316370550085 
 20
 2.45919057713261 
 11
 146.323716584106 
 21
 2.45543608770187 
  0
LINE
  8
0
 10
 146.323716584106 
 20
 2.45543608770187 
 11
 149.327308128695 
 21
 2.4479271088404 
  0
LINE
  8
0
 10
 149.327308128695 
 20
 2.4479271088404 
 11
 152.312127226131 
 21
 2.44041812997892 
  0
LINE
  8
0
 10
 152.312127226131 
 20
 2.44041812997892 
 11
 155.281928365844 
 21
 2.43666364054819 
  0
LINE
  8
0
 10
 155.281928365844 
 20
 2.43666364054819 
 11
 155.281928365844 
 21
 2.43666364054819 
  0
LINE
  8
0
 10
 155.281928365844 
 20
 2.43666364054819 
 11
 155.281928365844 
 21
 2.43666364054819 
  0
LINE
  8
0
 10
 155.281928365844 
 20
 2.43666364054819 
 11
 158.225448079541 
 21
 2.42915466168671 
  0
LINE
  8
0
 10
 158.225448079541 
 20
 2.42915466168671 
 11
 161.150195346085 
 21
 2.42164568282524 
  0
LINE
  8
0
 10
 161.150195346085 
 20
 2.42164568282524 
 11
 164.067433633768 
 21
 2.4178911933945 
  0
LINE
  8
0
 10
 164.067433633768 
 20
 2.4178911933945 
 11
 166.988426410881 
 21
 2.41038221453303 
  0
LINE
  8
0
 10
 166.988426410881 
 20
 2.41038221453303 
 11
 169.920682656286 
 21
 2.40662772510229 
  0
LINE
  8
0
 10
 169.920682656286 
 20
 2.40662772510229 
 11
 172.867956859415 
 21
 2.40287323567155 
  0
LINE
  8
0
 10
 172.867956859415 
 20
 2.40287323567155 
 11
 175.84902146742 
 21
 2.40287323567155 
  0
LINE
  8
0
 10
 175.84902146742 
 20
 2.40287323567155 
 11
 178.867630969732 
 21
 2.39536425681008 
  0
LINE
  8
0
 10
 178.867630969732 
 20
 2.39536425681008 
 11
 181.931294345213 
 21
 2.39536425681008 
  0
LINE
  8
0
 10
 181.931294345213 
 20
 2.39536425681008 
 11
 185.055029551586 
 21
 2.39160976737934 
  0
LINE
  8
0
 10
 185.055029551586 
 20
 2.39160976737934 
 11
 185.055029551586 
 21
 2.39160976737934 
  0
LINE
  8
0
 10
 185.055029551586 
 20
 2.39160976737934 
 11
 185.055029551586 
 21
 2.39160976737934 
  0
LINE
  8
0
 10
 185.055029551586 
 20
 2.39160976737934 
 11
 188.23508209942 
 21
 2.39160976737934 
  0
LINE
  8
0
 10
 188.23508209942 
 20
 2.39160976737934 
 11
 191.4451705627 
 21
 2.39160976737934 
  0
LINE
  8
0
 10
 191.4451705627 
 20
 2.39160976737934 
 11
 194.662768004842 
 21
 2.39160976737934 
  0
LINE
  8
0
 10
 194.662768004842 
 20
 2.39160976737934 
 11
 197.854084020968 
 21
 2.39536425681008 
  0
LINE
  8
0
 10
 197.854084020968 
 20
 2.39536425681008 
 11
 200.977819227341 
 21
 2.39160976737934 
  0
LINE
  8
0
 10
 200.977819227341 
 20
 2.39160976737934 
 11
 204.011446687376 
 21
 2.39536425681008 
  0
LINE
  8
0
 10
 204.011446687376 
 20
 2.39536425681008 
 11
 206.921175996198 
 21
 2.39911874624082 
  0
LINE
  8
0
 10
 206.921175996198 
 20
 2.39911874624082 
 11
 209.669462259497 
 21
 2.39911874624082 
  0
LINE
  8
0
 10
 209.669462259497 
 20
 2.39911874624082 
 11
 212.23377854069 
 21
 2.40287323567155 
  0
LINE
  8
0
 10
 212.23377854069 
 20
 2.40287323567155 
 11
 214.572825456039 
 21
 2.40662772510229 
  0
LINE
  8
0
 10
 214.572825456039 
 20
 2.40662772510229 
 11
 214.572825456039 
 21
 2.40662772510229 
  0
LINE
  8
0
 10
 214.572825456039 
 20
 2.40662772510229 
 11
 214.572825456039 
 21
 2.40662772510229 
  0
LINE
  8
0
 10
 214.572825456039 
 20
 2.40662772510229 
 11
 216.675339537252 
 21
 2.40662772510229 
  0
LINE
  8
0
 10
 216.675339537252 
 20
 2.40662772510229 
 11
 218.55258425262 
 21
 2.41413670396377 
  0
LINE
  8
0
 10
 218.55258425262 
 20
 2.41413670396377 
 11
 220.245858985882 
 21
 2.41413670396377 
  0
LINE
  8
0
 10
 220.245858985882 
 20
 2.41413670396377 
 11
 221.781445163054 
 21
 2.4178911933945 
  0
LINE
  8
0
 10
 221.781445163054 
 20
 2.4178911933945 
 11
 223.193133189011 
 21
 2.42540017225598 
  0
LINE
  8
0
 10
 223.193133189011 
 20
 2.42540017225598 
 11
 224.510958979199 
 21
 2.42915466168671 
  0
LINE
  8
0
 10
 224.510958979199 
 20
 2.42915466168671 
 11
 225.772467427927 
 21
 2.43666364054819 
  0
LINE
  8
0
 10
 225.772467427927 
 20
 2.43666364054819 
 11
 227.003939961209 
 21
 2.44041812997892 
  0
LINE
  8
0
 10
 227.003939961209 
 20
 2.44041812997892 
 11
 228.242921473352 
 21
 2.44417261940966 
  0
LINE
  8
0
 10
 228.242921473352 
 20
 2.44417261940966 
 11
 229.515693390372 
 21
 2.45168159827113 
  0
LINE
  8
0
 10
 229.515693390372 
 20
 2.45168159827113 
 11
 229.515693390372 
 21
 2.45168159827113 
  0
LINE
  8
0
 10
 229.515693390372 
 20
 2.45168159827113 
 11
 229.515693390372 
 21
 2.45168159827113 
  0
LINE
  8
0
 10
 229.515693390372 
 20
 2.45168159827113 
 11
 230.852291627714 
 21
 2.45543608770187 
  0
LINE
  8
0
 10
 230.852291627714 
 20
 2.45543608770187 
 11
 232.248961695948 
 21
 2.46294506656334 
  0
LINE
  8
0
 10
 232.248961695948 
 20
 2.46294506656334 
 11
 233.698194616212 
 21
 2.46669955599408 
  0
LINE
  8
0
 10
 233.698194616212 
 20
 2.46669955599408 
 11
 235.184972430784 
 21
 2.47420853485555 
  0
LINE
  8
0
 10
 235.184972430784 
 20
 2.47420853485555 
 11
 236.709295139663 
 21
 2.48171751371703 
  0
LINE
  8
0
 10
 236.709295139663 
 20
 2.48171751371703 
 11
 238.252390295696 
 21
 2.48547200314776 
  0
LINE
  8
0
 10
 238.252390295696 
 20
 2.48547200314776 
 11
 239.814257898883 
 21
 2.49298098200924 
  0
LINE
  8
0
 10
 239.814257898883 
 20
 2.49298098200924 
 11
 241.3798799915 
 21
 2.50048996087071 
  0
LINE
  8
0
 10
 241.3798799915 
 20
 2.50048996087071 
 11
 242.941747594686 
 21
 2.50424445030145 
  0
LINE
  8
0
 10
 242.941747594686 
 20
 2.50424445030145 
 11
 244.48859724015 
 21
 2.51175342916292 
  0
LINE
  8
0
 10
 244.48859724015 
 20
 2.51175342916292 
 11
 244.48859724015 
 21
 2.51175342916292 
  0
LINE
  8
0
 10
 244.48859724015 
 20
 2.51175342916292 
 11
 244.48859724015 
 21
 2.51175342916292 
  0
LINE
  8
0
 10
 244.48859724015 
 20
 2.51175342916292 
 11
 246.020428927891 
 21
 2.5192624080244 
  0
LINE
  8
0
 10
 246.020428927891 
 20
 2.5192624080244 
 11
 247.529733679047 
 21
 2.52677138688587 
  0
LINE
  8
0
 10
 247.529733679047 
 20
 2.52677138688587 
 11
 249.02402047248 
 21
 2.53428036574734 
  0
LINE
  8
0
 10
 249.02402047248 
 20
 2.53428036574734 
 11
 250.49953481876 
 21
 2.54178934460882 
  0
LINE
  8
0
 10
 250.49953481876 
 20
 2.54178934460882 
 11
 251.967540186178 
 21
 2.54554383403955 
  0
LINE
  8
0
 10
 251.967540186178 
 20
 2.54554383403955 
 11
 253.420527595873 
 21
 2.55680730233176 
  0
LINE
  8
0
 10
 253.420527595873 
 20
 2.55680730233176 
 11
 254.869760516137 
 21
 2.56431628119324 
  0
LINE
  8
0
 10
 254.869760516137 
 20
 2.56431628119324 
 11
 256.307729968109 
 21
 2.56807077062397 
  0
LINE
  8
0
 10
 256.307729968109 
 20
 2.56807077062397 
 11
 257.741944930651 
 21
 2.57933423891618 
  0
LINE
  8
0
 10
 257.741944930651 
 20
 2.57933423891618 
 11
 259.176159893192 
 21
 2.58308872834692 
  0
LINE
  8
0
 10
 259.176159893192 
 20
 2.58308872834692 
 11
 259.176159893192 
 21
 2.58308872834692 
  0
LINE
  8
0
 10
 259.176159893192 
 20
 2.58308872834692 
 11
 258.35017221843 
 21
 .360430985350733 
  0
LINE
  8
0
 10
 258.35017221843 
 20
 .360430985350733 
 11
 258.35017221843 
 21
 .360430985350733 
  0
LINE
  8
0
 10
 258.35017221843 
 20
 .360430985350733 
 11
 256.942238681904 
 21
 .277832217874523 
  0
LINE
  8
0
 10
 256.942238681904 
 20
 .277832217874523 
 11
 255.534305145378 
 21
 .195233450398314 
  0
LINE
  8
0
 10
 255.534305145378 
 20
 .195233450398314 
 11
 254.122617119421 
 21
 .116389172352841 
  0
LINE
  8
0
 10
 254.122617119421 
 20
 .116389172352841 
 11
 252.703420114602 
 21
 3.37904048766312E-02 
  0
LINE
  8
0
 10
 252.703420114602 
 20
 3.37904048766312E-02 
 11
 251.276714130922 
 21
-4.88083625995784E-02 
  0
LINE
  8
0
 10
 251.276714130922 
 20
-4.88083625995784E-02 
 11
 249.834990189519 
 21
-.131407130075788 
  0
LINE
  8
0
 10
 249.834990189519 
 20
-.131407130075788 
 11
 248.382002779824 
 21
-.210251408121261 
  0
LINE
  8
0
 10
 248.382002779824 
 20
-.210251408121261 
 11
 246.917751901837 
 21
-.292850175597471 
  0
LINE
  8
0
 10
 246.917751901837 
 20
-.292850175597471 
 11
 245.430974087265 
 21
-.371694453642944 
  0
LINE
  8
0
 10
 245.430974087265 
 20
-.371694453642944 
 11
 243.925423825539 
 21
-.45804771054989 
  0
LINE
  8
0
 10
 243.925423825539 
 20
-.45804771054989 
 11
 243.925423825539 
 21
-.45804771054989 
  0
LINE
  8
0
 10
 243.925423825539 
 20
-.45804771054989 
 11
 243.925423825539 
 21
-.45804771054989 
  0
LINE
  8
0
 10
 243.925423825539 
 20
-.45804771054989 
 11
 242.40110111666 
 21
-.536891988595363 
  0
LINE
  8
0
 10
 242.40110111666 
 20
-.536891988595363 
 11
 240.865514939489 
 21
-.615736266640836 
  0
LINE
  8
0
 10
 240.865514939489 
 20
-.615736266640836 
 11
 239.322419783456 
 21
-.698335034117046 
  0
LINE
  8
0
 10
 239.322419783456 
 20
-.698335034117046 
 11
 237.790588095716 
 21
-.777179312162518 
  0
LINE
  8
0
 10
 237.790588095716 
 20
-.777179312162518 
 11
 236.270019876267 
 21
-.859778079638728 
  0
LINE
  8
0
 10
 236.270019876267 
 20
-.859778079638728 
 11
 234.775733082834 
 21
-.934867868253464 
  0
LINE
  8
0
 10
 234.775733082834 
 20
-.934867868253464 
 11
 233.311482204846 
 21
-1.0099576568682 
  0
LINE
  8
0
 10
 233.311482204846 
 20
-1.0099576568682 
 11
 231.892285200028 
 21
-1.0812929560522 
  0
LINE
  8
0
 10
 231.892285200028 
 20
-1.0812929560522 
 11
 230.52565104724 
 21
-1.14887376580546 
  0
LINE
  8
0
 10
 230.52565104724 
 20
-1.14887376580546 
 11
 229.219088725343 
 21
-1.22020906498946 
  0
LINE
  8
0
 10
 229.219088725343 
 20
-1.22020906498946 
 11
 229.219088725343 
 21
-1.22020906498946 
  0
LINE
  8
0
 10
 229.219088725343 
 20
-1.22020906498946 
 11
 229.219088725343 
 21
-1.22020906498946 
  0
LINE
  8
0
 10
 229.219088725343 
 20
-1.22020906498946 
 11
 227.97635272377 
 21
-1.28403538531199 
  0
LINE
  8
0
 10
 227.97635272377 
 20
-1.28403538531199 
 11
 226.771161616503 
 21
-1.34786170563451 
  0
LINE
  8
0
 10
 226.771161616503 
 20
-1.34786170563451 
 11
 225.569724998667 
 21
-1.4079335365263 
  0
LINE
  8
0
 10
 225.569724998667 
 20
-1.4079335365263 
 11
 224.342006954816 
 21
-1.46800536741809 
  0
LINE
  8
0
 10
 224.342006954816 
 20
-1.46800536741809 
 11
 223.050462590643 
 21
-1.52432270887914 
  0
LINE
  8
0
 10
 223.050462590643 
 20
-1.52432270887914 
 11
 221.668810480132 
 21
-1.58439453977093 
  0
LINE
  8
0
 10
 221.668810480132 
 20
-1.58439453977093 
 11
 220.159505728975 
 21
-1.64446637066272 
  0
LINE
  8
0
 10
 220.159505728975 
 20
-1.64446637066272 
 11
 218.492512421728 
 21
-1.70078371212377 
  0
LINE
  8
0
 10
 218.492512421728 
 20
-1.70078371212377 
 11
 216.634040153514 
 21
-1.76836452187704 
  0
LINE
  8
0
 10
 216.634040153514 
 20
-1.76836452187704 
 11
 214.546544030024 
 21
-1.83219084219956 
  0
LINE
  8
0
 10
 214.546544030024 
 20
-1.83219084219956 
 11
 214.546544030024 
 21
-1.83219084219956 
  0
LINE
  8
0
 10
 214.546544030024 
 20
-1.83219084219956 
 11
 214.546544030024 
 21
-1.83219084219956 
  0
LINE
  8
0
 10
 214.546544030024 
 20
-1.83219084219956 
 11
 212.218760582967 
 21
-1.89977165195282 
  0
LINE
  8
0
 10
 212.218760582967 
 20
-1.89977165195282 
 11
 209.665707770066 
 21
-1.97110695113682 
  0
LINE
  8
0
 10
 209.665707770066 
 20
-1.97110695113682 
 11
 206.921175996198 
 21
-2.03868776089008 
  0
LINE
  8
0
 10
 206.921175996198 
 20
-2.03868776089008 
 11
 204.015201176807 
 21
-2.10626857064335 
  0
LINE
  8
0
 10
 204.015201176807 
 20
-2.10626857064335 
 11
 200.981573716772 
 21
-2.17760386982735 
  0
LINE
  8
0
 10
 200.981573716772 
 20
-2.17760386982735 
 11
 197.854084020968 
 21
-2.24143019014987 
  0
LINE
  8
0
 10
 197.854084020968 
 20
-2.24143019014987 
 11
 194.662768004842 
 21
-2.30150202104166 
  0
LINE
  8
0
 10
 194.662768004842 
 20
-2.30150202104166 
 11
 191.44141607327 
 21
-2.36157385193345 
  0
LINE
  8
0
 10
 191.44141607327 
 20
-2.36157385193345 
 11
 188.223818631128 
 21
-2.41413670396377 
  0
LINE
  8
0
 10
 188.223818631128 
 20
-2.41413670396377 
 11
 185.040011593863 
 21
-2.45543608770187 
  0
LINE
  8
0
 10
 185.040011593863 
 20
-2.45543608770187 
 11
 185.040011593863 
 21
-2.45543608770187 
  0
LINE
  8
0
 10
 185.040011593863 
 20
-2.45543608770187 
 11
 185.040011593863 
 21
-2.45543608770187 
  0
LINE
  8
0
 10
 185.040011593863 
 20
-2.45543608770187 
 11
 181.91627638749 
 21
-2.4892264925785 
  0
LINE
  8
0
 10
 181.91627638749 
 20
-2.4892264925785 
 11
 178.848858522578 
 21
-2.51550791859366 
  0
LINE
  8
0
 10
 178.848858522578 
 20
-2.51550791859366 
 11
 175.830249020266 
 21
-2.53803485517808 
  0
LINE
  8
0
 10
 175.830249020266 
 20
-2.53803485517808 
 11
 172.852938901692 
 21
-2.54929832347029 
  0
LINE
  8
0
 10
 172.852938901692 
 20
-2.54929832347029 
 11
 169.901910209133 
 21
-2.55680730233176 
  0
LINE
  8
0
 10
 169.901910209133 
 20
-2.55680730233176 
 11
 166.973408453158 
 21
-2.56431628119324 
  0
LINE
  8
0
 10
 166.973408453158 
 20
-2.56431628119324 
 11
 164.056170165475 
 21
-2.56431628119324 
  0
LINE
  8
0
 10
 164.056170165475 
 20
-2.56431628119324 
 11
 161.138931877793 
 21
-2.5605617917625 
  0
LINE
  8
0
 10
 161.138931877793 
 20
-2.5605617917625 
 11
 158.210430121818 
 21
-2.55305281290103 
  0
LINE
  8
0
 10
 158.210430121818 
 20
-2.55305281290103 
 11
 155.270664897551 
 21
-2.54929832347029 
  0
LINE
  8
0
 10
 155.270664897551 
 20
-2.54929832347029 
 11
 155.270664897551 
 21
-2.54929832347029 
  0
LINE
  8
0
 10
 155.270664897551 
 20
-2.54929832347029 
 11
 155.270664897551 
 21
-2.54929832347029 
  0
LINE
  8
0
 10
 155.270664897551 
 20
-2.54929832347029 
 11
 152.304618247269 
 21
-2.54178934460882 
  0
LINE
  8
0
 10
 152.304618247269 
 20
-2.54178934460882 
 11
 149.316044660403 
 21
-2.53052587631661 
  0
LINE
  8
0
 10
 149.316044660403 
 20
-2.53052587631661 
 11
 146.316207605244 
 21
-2.52301689745513 
  0
LINE
  8
0
 10
 146.316207605244 
 20
-2.52301689745513 
 11
 143.312616060655 
 21
-2.50799893973219 
  0
LINE
  8
0
 10
 143.312616060655 
 20
-2.50799893973219 
 11
 140.305270026634 
 21
-2.49673547143997 
  0
LINE
  8
0
 10
 140.305270026634 
 20
-2.49673547143997 
 11
 137.305432971476 
 21
-2.48547200314776 
  0
LINE
  8
0
 10
 137.305432971476 
 20
-2.48547200314776 
 11
 134.32061387404 
 21
-2.47420853485555 
  0
LINE
  8
0
 10
 134.32061387404 
 20
-2.47420853485555 
 11
 131.350812734327 
 21
-2.45919057713261 
  0
LINE
  8
0
 10
 131.350812734327 
 20
-2.45919057713261 
 11
 128.41104751006 
 21
-2.4479271088404 
  0
LINE
  8
0
 10
 128.41104751006 
 20
-2.4479271088404 
 11
 125.508827180101 
 21
-2.43290915111745 
  0
LINE
  8
0
 10
 125.508827180101 
 20
-2.43290915111745 
 11
 125.508827180101 
 21
-2.43290915111745 
  0
LINE
  8
0
 10
 125.508827180101 
 20
-2.43290915111745 
 11
 125.508827180101 
 21
-2.43290915111745 
  0
LINE
  8
0
 10
 125.508827180101 
 20
-2.43290915111745 
 11
 122.636642765587 
 21
-2.4178911933945 
  0
LINE
  8
0
 10
 122.636642765587 
 20
-2.4178911933945 
 11
 119.805757734811 
 21
-2.40662772510229 
  0
LINE
  8
0
 10
 119.805757734811 
 20
-2.40662772510229 
 11
 117.001154130051 
 21
-2.39160976737934 
  0
LINE
  8
0
 10
 117.001154130051 
 20
-2.39160976737934 
 11
 114.230340930167 
 21
-2.38034629908713 
  0
LINE
  8
0
 10
 114.230340930167 
 20
-2.38034629908713 
 11
 111.482054666868 
 21
-2.36532834136419 
  0
LINE
  8
0
 10
 111.482054666868 
 20
-2.36532834136419 
 11
 108.752540850722 
 21
-2.35406487307198 
  0
LINE
  8
0
 10
 108.752540850722 
 20
-2.35406487307198 
 11
 106.04179948173 
 21
-2.33904691534903 
  0
LINE
  8
0
 10
 106.04179948173 
 20
-2.33904691534903 
 11
 103.346076070461 
 21
-2.32778344705682 
  0
LINE
  8
0
 10
 103.346076070461 
 20
-2.32778344705682 
 11
 100.654107148623 
 21
-2.31651997876461 
  0
LINE
  8
0
 10
 100.654107148623 
 20
-2.31651997876461 
 11
 97.9696472056462 
 21
-2.30150202104166 
  0
LINE
  8
0
 10
 97.9696472056462 
 20
-2.30150202104166 
 11
 97.9696472056462 
 21
-2.30150202104166 
  0
LINE
  8
0
 10
 97.9696472056462 
 20
-2.30150202104166 
 11
 97.9696472056462 
 21
-2.30150202104166 
  0
LINE
  8
0
 10
 97.9696472056462 
 20
-2.30150202104166 
 11
 95.2851872626693 
 21
-2.29023855274945 
  0
LINE
  8
0
 10
 95.2851872626693 
 20
-2.29023855274945 
 11
 92.6007273196925 
 21
-2.27897508445724 
  0
LINE
  8
0
 10
 92.6007273196925 
 20
-2.27897508445724 
 11
 89.897494929562 
 21
-2.26771161616503 
  0
LINE
  8
0
 10
 89.897494929562 
 20
-2.26771161616503 
 11
 87.1829990711393 
 21
-2.24893916901135 
  0
LINE
  8
0
 10
 87.1829990711393 
 20
-2.24893916901135 
 11
 84.4384672972707 
 21
-2.2339212112884 
  0
LINE
  8
0
 10
 84.4384672972707 
 20
-2.2339212112884 
 11
 81.6638996079562 
 21
-2.21139427470398 
  0
LINE
  8
0
 10
 81.6638996079562 
 20
-2.21139427470398 
 11
 78.8517870243343 
 21
-2.18886733811956 
  0
LINE
  8
0
 10
 78.8517870243343 
 20
-2.18886733811956 
 11
 76.0021295464051 
 21
-2.1625859121044 
  0
LINE
  8
0
 10
 76.0021295464051 
 20
-2.1625859121044 
 11
 73.0961547270148 
 21
-2.12879550722777 
  0
LINE
  8
0
 10
 73.0961547270148 
 20
-2.12879550722777 
 11
 70.1338625661635 
 21
-2.0912506129204 
  0
LINE
  8
0
 10
 70.1338625661635 
 20
-2.0912506129204 
 11
 70.1338625661635 
 21
-2.0912506129204 
  0
LINE
  8
0
 10
 70.1338625661635 
 20
-2.0912506129204 
 11
 70.1338625661635 
 21
-2.0912506129204 
  0
LINE
  8
0
 10
 70.1338625661635 
 20
-2.0912506129204 
 11
 67.1152530638511 
 21
-2.04619673975156 
  0
LINE
  8
0
 10
 67.1152530638511 
 20
-2.04619673975156 
 11
 64.0666076460928 
 21
-1.99738837715198 
  0
LINE
  8
0
 10
 64.0666076460928 
 20
-1.99738837715198 
 11
 61.0142077389038 
 21
-1.94107103569093 
  0
LINE
  8
0
 10
 61.0142077389038 
 20
-1.94107103569093 
 11
 57.9918437471607 
 21
-1.88475369422988 
  0
LINE
  8
0
 10
 57.9918437471607 
 20
-1.88475369422988 
 11
 55.0295515863093 
 21
-1.82468186333809 
  0
LINE
  8
0
 10
 55.0295515863093 
 20
-1.82468186333809 
 11
 52.1611216612264 
 21
-1.76085554301556 
  0
LINE
  8
0
 10
 52.1611216612264 
 20
-1.76085554301556 
 11
 49.4090809084963 
 21
-1.70453820155451 
  0
LINE
  8
0
 10
 49.4090809084963 
 20
-1.70453820155451 
 11
 46.8184832012879 
 21
-1.64071188123198 
  0
LINE
  8
0
 10
 46.8184832012879 
 20
-1.64071188123198 
 11
 44.4043464973242 
 21
-1.58439453977093 
  0
LINE
  8
0
 10
 44.4043464973242 
 20
-1.58439453977093 
 11
 42.2079701803432 
 21
-1.52807719830988 
  0
LINE
  8
0
 10
 42.2079701803432 
 20
-1.52807719830988 
 11
 42.2079701803432 
 21
-1.52807719830988 
  0
LINE
  8
0
 10
 42.2079701803432 
 20
-1.52807719830988 
 11
 42.2079701803432 
 21
-1.52807719830988 
  0
LINE
  8
0
 10
 42.2079701803432 
 20
-1.52807719830988 
 11
 40.2481266974985 
 21
-1.47175985684883 
  0
LINE
  8
0
 10
 40.2481266974985 
 20
-1.47175985684883 
 11
 38.4985346227752 
 21
-1.42295149424925 
  0
LINE
  8
0
 10
 38.4985346227752 
 20
-1.42295149424925 
 11
 36.9366670195887 
 21
-1.37414313164967 
  0
LINE
  8
0
 10
 36.9366670195887 
 20
-1.37414313164967 
 11
 35.5212245042009 
 21
-1.32908925848083 
  0
LINE
  8
0
 10
 35.5212245042009 
 20
-1.32908925848083 
 11
 34.2296801400274 
 21
-1.28778987474272 
  0
LINE
  8
0
 10
 34.2296801400274 
 20
-1.28778987474272 
 11
 33.0169800538995 
 21
-1.24273600157388 
  0
LINE
  8
0
 10
 33.0169800538995 
 20
-1.24273600157388 
 11
 31.8643517986633 
 21
-1.19768212840504 
  0
LINE
  8
0
 10
 31.8643517986633 
 20
-1.19768212840504 
 11
 30.7342504800115 
 21
-1.15638274466694 
  0
LINE
  8
0
 10
 30.7342504800115 
 20
-1.15638274466694 
 11
 29.600394671929 
 21
-1.10757438206736 
  0
LINE
  8
0
 10
 29.600394671929 
 20
-1.10757438206736 
 11
 28.4214849906776 
 21
-1.06252050889852 
  0
LINE
  8
0
 10
 28.4214849906776 
 20
-1.06252050889852 
 11
 28.4214849906776 
 21
-1.06252050889852 
  0
LINE
  8
0
 10
 28.4214849906776 
 20
-1.06252050889852 
 11
 28.4214849906776 
 21
-1.06252050889852 
  0
LINE
  8
0
 10
 28.4214849906776 
 20
-1.06252050889852 
 11
 27.1787489891037 
 21
-1.01371214629894 
  0
LINE
  8
0
 10
 27.1787489891037 
 20
-1.01371214629894 
 11
 25.8759411566381 
 21
-.964903783699359 
  0
LINE
  8
0
 10
 25.8759411566381 
 20
-.964903783699359 
 11
 24.5168159827113 
 21
-.908586442238306 
  0
LINE
  8
0
 10
 24.5168159827113 
 20
-.908586442238306 
 11
 23.1126369356158 
 21
-.859778079638728 
  0
LINE
  8
0
 10
 23.1126369356158 
 20
-.859778079638728 
 11
 21.6746674836436 
 21
-.803460738177676 
  0
LINE
  8
0
 10
 21.6746674836436 
 20
-.803460738177676 
 11
 20.2066621162255 
 21
-.743388907285887 
  0
LINE
  8
0
 10
 20.2066621162255 
 20
-.743388907285887 
 11
 18.716129812223 
 21
-.690826055255572 
  0
LINE
  8
0
 10
 18.716129812223 
 20
-.690826055255572 
 11
 17.2218430187897 
 21
-.63450871379452 
  0
LINE
  8
0
 10
 17.2218430187897 
 20
-.63450871379452 
 11
 15.7275562253565 
 21
-.578191372333468 
  0
LINE
  8
0
 10
 15.7275562253565 
 20
-.578191372333468 
 11
 14.2407784107847 
 21
-.525628520303153 
  0
LINE
  8
0
 10
 14.2407784107847 
 20
-.525628520303153 
 11
 14.2407784107847 
 21
-.525628520303153 
  0
LINE
  8
0
 10
 14.2407784107847 
 20
-.525628520303153 
 11
 14.2407784107847 
 21
-.525628520303153 
  0
LINE
  8
0
 10
 14.2407784107847 
 20
-.525628520303153 
 11
 12.7690185539359 
 21
-.4693111788421 
  0
LINE
  8
0
 10
 12.7690185539359 
 20
-.4693111788421 
 11
 11.3085221653793 
 21
-.416748326811785 
  0
LINE
  8
0
 10
 11.3085221653793 
 20
-.416748326811785 
 11
 9.86304373454558 
 21
-.360430985350733 
  0
LINE
  8
0
 10
 9.86304373454558 
 20
-.360430985350733 
 11
 8.4363377508656 
 21
-.311622622751155 
  0
LINE
  8
0
 10
 8.4363377508656 
 20
-.311622622751155 
 11
 7.01338625661635 
 21
-.25905977072084 
  0
LINE
  8
0
 10
 7.01338625661635 
 20
-.25905977072084 
 11
 5.60169823065931 
 21
-.206496918690524 
  0
LINE
  8
0
 10
 5.60169823065931 
 20
-.206496918690524 
 11
 4.19376469413301 
 21
-.153934066660209 
  0
LINE
  8
0
 10
 4.19376469413301 
 20
-.153934066660209 
 11
 2.79334013646818 
 21
-.105125704060631 
  0
LINE
  8
0
 10
 2.79334013646818 
 20
-.105125704060631 
 11
 1.39667006823409 
 21
-5.25628520303153E-02 
  0
LINE
  8
0
 10
 1.39667006823409 
 20
-5.25628520303153E-02 
 11
 3.7544894307368E-03 
 21
-3.7544894307368E-03 
  0
LINE
  8
0
 10
 3.7544894307368E-03 
 20
-3.7544894307368E-03 
 11
 0 
 21
 0 
  0
ENDSEC
  0
EOF
