  0
SECTION
  2
ENTITIES
  0
LINE
  8
0
 10
 0 
 20
 0 
 11
-5.37267437538437 
 21
 3.20257948441849 
  0
LINE
  8
0
 10
 12.3973241002929 
 20
-4.12993837381048E-02 
 11
 8.83806811995444 
 21
 4.22755509900964 
  0
LINE
  8
0
 10
 24.7608577957092 
 20
-9.76167251991569E-02 
 11
 23.0000022526937 
 21
 5.18870439327826 
  0
LINE
  8
0
 10
 36.7714694846363 
 20
-.172706513813893 
 11
 36.7714694846363 
 21
 5.95462023714857 
  0
LINE
  8
0
 10
 64.66357146558 
 20
-.44678424225768 
 11
 64.6936073810259 
 21
 6.70927261272667 
  0
LINE
  8
0
 10
 92.4956016156319 
 20
-.867287058500202 
 11
 92.5331465099393 
 21
 6.61916486638899 
  0
LINE
  8
0
 10
 120.027272611225 
 20
-1.25024498043536 
 11
 120.061063016102 
 21
 6.20992551843867 
  0
LINE
  8
0
 10
 149.792864818106 
 20
-1.41544251538778 
 11
 149.826655222983 
 21
 5.9170753428412 
  0
LINE
  8
0
 10
 179.558457024988 
 20
-1.31407130075788 
 11
 179.596001919295 
 21
 5.62422516724373 
  0
LINE
  8
0
 10
 209.046217013995 
 20
-1.00620316743746 
 11
 209.106288844886 
 21
 5.08357868921763 
  0
LINE
  8
0
 10
 223.076744016658 
 20
-.765915843870308 
 11
 223.786342519067 
 21
 4.71563872500543 
  0
LINE
  8
0
 10
 237.126043466475 
 20
-.476820157703574 
 11
 238.507695576986 
 21
 4.35145325022396 
  0
LINE
  8
0
 10
 0 
 20
 0 
 11
-5.37267437538437 
 21
 3.20257948441849 
  0
LINE
  8
0
 10
-5.37267437538437 
 20
 3.20257948441849 
 11
-5.37267437538437 
 21
 3.20257948441849 
  0
LINE
  8
0
 10
-5.37267437538437 
 20
 3.20257948441849 
 11
-3.97975879658101 
 21
 3.30395069904839 
  0
LINE
  8
0
 10
-3.97975879658101 
 20
 3.30395069904839 
 11
-2.58684321777766 
 21
 3.40532191367828 
  0
LINE
  8
0
 10
-2.58684321777766 
 20
 3.40532191367828 
 11
-1.18641866011283 
 21
 3.51044761773891 
  0
LINE
  8
0
 10
-1.18641866011283 
 20
 3.51044761773891 
 11
 .217760386982735 
 21
 3.61181883236881 
  0
LINE
  8
0
 10
 .217760386982735 
 20
 3.61181883236881 
 11
 1.6219394340783 
 21
 3.7131900469987 
  0
LINE
  8
0
 10
 1.6219394340783 
 20
 3.7131900469987 
 11
 3.04489092832755 
 21
 3.81456126162859 
  0
LINE
  8
0
 10
 3.04489092832755 
 20
 3.81456126162859 
 11
 4.47535140143827 
 21
 3.91968696568922 
  0
LINE
  8
0
 10
 4.47535140143827 
 20
 3.91968696568922 
 11
 5.91332085341047 
 21
 4.02481266974985 
  0
LINE
  8
0
 10
 5.91332085341047 
 20
 4.02481266974985 
 11
 7.36630826310561 
 21
 4.12618388437975 
  0
LINE
  8
0
 10
 7.36630826310561 
 20
 4.12618388437975 
 11
 8.84182260938517 
 21
 4.22755509900964 
  0
LINE
  8
0
 10
 8.84182260938517 
 20
 4.22755509900964 
 11
 8.84182260938517 
 21
 4.22755509900964 
  0
LINE
  8
0
 10
 8.84182260938517 
 20
 4.22755509900964 
 11
 8.84182260938517 
 21
 4.22755509900964 
  0
LINE
  8
0
 10
 8.84182260938517 
 20
 4.22755509900964 
 11
 10.3210914450955 
 21
 4.33268080307027 
  0
LINE
  8
0
 10
 10.3210914450955 
 20
 4.33268080307027 
 11
 11.8153782385287 
 21
 4.43405201770017 
  0
LINE
  8
0
 10
 11.8153782385287 
 20
 4.43405201770017 
 11
 13.309665031962 
 21
 4.53542323233006 
  0
LINE
  8
0
 10
 13.309665031962 
 20
 4.53542323233006 
 11
 14.7964428465337 
 21
 4.63679444695995 
  0
LINE
  8
0
 10
 14.7964428465337 
 20
 4.63679444695995 
 11
 16.2569392350904 
 21
 4.73441117215911 
  0
LINE
  8
0
 10
 16.2569392350904 
 20
 4.73441117215911 
 11
 17.6949086870626 
 21
 4.83202789735827 
  0
LINE
  8
0
 10
 17.6949086870626 
 20
 4.83202789735827 
 11
 19.0990877341581 
 21
 4.92589013312669 
  0
LINE
  8
0
 10
 19.0990877341581 
 20
 4.92589013312669 
 11
 20.4544584186541 
 21
 5.01599787946437 
  0
LINE
  8
0
 10
 20.4544584186541 
 20
 5.01599787946437 
 11
 21.7572662511198 
 21
 5.10610562580205 
  0
LINE
  8
0
 10
 21.7572662511198 
 20
 5.10610562580205 
 11
 22.9962477632629 
 21
 5.18870439327826 
  0
LINE
  8
0
 10
 22.9962477632629 
 20
 5.18870439327826 
 11
 22.9962477632629 
 21
 5.18870439327826 
  0
LINE
  8
0
 10
 22.9962477632629 
 20
 5.18870439327826 
 11
 22.9962477632629 
 21
 5.18870439327826 
  0
LINE
  8
0
 10
 22.9962477632629 
 20
 5.18870439327826 
 11
 24.1714029550835 
 21
 5.27130316075447 
  0
LINE
  8
0
 10
 24.1714029550835 
 20
 5.27130316075447 
 11
 25.3127677420275 
 21
 5.35014743879995 
  0
LINE
  8
0
 10
 25.3127677420275 
 20
 5.35014743879995 
 11
 26.4353600818178 
 21
 5.42523722741468 
  0
LINE
  8
0
 10
 26.4353600818178 
 20
 5.42523722741468 
 11
 27.587988337054 
 21
 5.49657252659868 
  0
LINE
  8
0
 10
 27.587988337054 
 20
 5.49657252659868 
 11
 28.7969339337513 
 21
 5.57166231521342 
  0
LINE
  8
0
 10
 28.7969339337513 
 20
 5.57166231521342 
 11
 30.0884782979247 
 21
 5.64299761439742 
  0
LINE
  8
0
 10
 30.0884782979247 
 20
 5.64299761439742 
 11
 31.5001663238818 
 21
 5.71808740301215 
  0
LINE
  8
0
 10
 31.5001663238818 
 20
 5.71808740301215 
 11
 33.065788416499 
 21
 5.79317719162689 
  0
LINE
  8
0
 10
 33.065788416499 
 20
 5.79317719162689 
 11
 34.8116260017916 
 21
 5.87202146967236 
  0
LINE
  8
0
 10
 34.8116260017916 
 20
 5.87202146967236 
 11
 36.7714694846363 
 21
 5.95462023714857 
  0
LINE
  8
0
 10
 36.7714694846363 
 20
 5.95462023714857 
 11
 36.7714694846363 
 21
 5.95462023714857 
  0
LINE
  8
0
 10
 36.7714694846363 
 20
 5.95462023714857 
 11
 36.7714694846363 
 21
 5.95462023714857 
  0
LINE
  8
0
 10
 36.7714694846363 
 20
 5.95462023714857 
 11
 38.9678458016173 
 21
 6.04097349405552 
  0
LINE
  8
0
 10
 38.9678458016173 
 20
 6.04097349405552 
 11
 41.3782280161503 
 21
 6.12732675096246 
  0
LINE
  8
0
 10
 41.3782280161503 
 20
 6.12732675096246 
 11
 43.9725802127895 
 21
 6.21743449730015 
  0
LINE
  8
0
 10
 43.9725802127895 
 20
 6.21743449730015 
 11
 46.7171119866581 
 21
 6.30378775420709 
  0
LINE
  8
0
 10
 46.7171119866581 
 20
 6.30378775420709 
 11
 49.5892964011717 
 21
 6.39014101111404 
  0
LINE
  8
0
 10
 49.5892964011717 
 20
 6.39014101111404 
 11
 52.551588562023 
 21
 6.47273977859025 
  0
LINE
  8
0
 10
 52.551588562023 
 20
 6.47273977859025 
 11
 55.5739525537662 
 21
 6.54782956720499 
  0
LINE
  8
0
 10
 55.5739525537662 
 20
 6.54782956720499 
 11
 58.6263524609552 
 21
 6.61165588752751 
  0
LINE
  8
0
 10
 58.6263524609552 
 20
 6.61165588752751 
 11
 61.6787523681442 
 21
 6.66797322898856 
  0
LINE
  8
0
 10
 61.6787523681442 
 20
 6.66797322898856 
 11
 64.6936073810259 
 21
 6.71302710215741 
  0
LINE
  8
0
 10
 64.6936073810259 
 20
 6.71302710215741 
 11
 64.6936073810259 
 21
 6.71302710215741 
  0
LINE
  8
0
 10
 64.6936073810259 
 20
 6.71302710215741 
 11
 64.6936073810259 
 21
 6.71302710215741 
  0
LINE
  8
0
 10
 64.6936073810259 
 20
 6.71302710215741 
 11
 67.6558995418772 
 21
 6.74681750703404 
  0
LINE
  8
0
 10
 67.6558995418772 
 20
 6.74681750703404 
 11
 70.5581198718368 
 21
 6.76558995418772 
  0
LINE
  8
0
 10
 70.5581198718368 
 20
 6.76558995418772 
 11
 73.4152863286275 
 21
 6.77685342247993 
  0
LINE
  8
0
 10
 73.4152863286275 
 20
 6.77685342247993 
 11
 76.2236444228186 
 21
 6.77309893304919 
  0
LINE
  8
0
 10
 76.2236444228186 
 20
 6.77309893304919 
 11
 78.9982121121331 
 21
 6.76183546475698 
  0
LINE
  8
0
 10
 78.9982121121331 
 20
 6.76183546475698 
 11
 81.7389893965709 
 21
 6.7430630176033 
  0
LINE
  8
0
 10
 81.7389893965709 
 20
 6.7430630176033 
 11
 84.4572397444244 
 21
 6.72053608101888 
  0
LINE
  8
0
 10
 84.4572397444244 
 20
 6.72053608101888 
 11
 87.1604721345549 
 21
 6.69050016557298 
  0
LINE
  8
0
 10
 87.1604721345549 
 20
 6.69050016557298 
 11
 89.8449320775317 
 21
 6.66046425012709 
  0
LINE
  8
0
 10
 89.8449320775317 
 20
 6.66046425012709 
 11
 92.5293920205085 
 21
 6.62291935581972 
  0
LINE
  8
0
 10
 92.5293920205085 
 20
 6.62291935581972 
 11
 92.5293920205085 
 21
 6.62291935581972 
  0
LINE
  8
0
 10
 92.5293920205085 
 20
 6.62291935581972 
 11
 92.5293920205085 
 21
 6.62291935581972 
  0
LINE
  8
0
 10
 92.5293920205085 
 20
 6.62291935581972 
 11
 95.2138519634853 
 21
 6.58161997208162 
  0
LINE
  8
0
 10
 95.2138519634853 
 20
 6.58161997208162 
 11
 97.9058208853236 
 21
 6.54407507777425 
  0
LINE
  8
0
 10
 97.9058208853236 
 20
 6.54407507777425 
 11
 100.601544296593 
 21
 6.49902120460541 
  0
LINE
  8
0
 10
 100.601544296593 
 20
 6.49902120460541 
 11
 103.312285665585 
 21
 6.4577218208673 
  0
LINE
  8
0
 10
 103.312285665585 
 20
 6.4577218208673 
 11
 106.0380449923 
 21
 6.4164224371292 
  0
LINE
  8
0
 10
 106.0380449923 
 20
 6.4164224371292 
 11
 108.786331255599 
 21
 6.37512305339109 
  0
LINE
  8
0
 10
 108.786331255599 
 20
 6.37512305339109 
 11
 111.560898944913 
 21
 6.33382366965299 
  0
LINE
  8
0
 10
 111.560898944913 
 20
 6.33382366965299 
 11
 114.361748060243 
 21
 6.28876979648415 
  0
LINE
  8
0
 10
 114.361748060243 
 20
 6.28876979648415 
 11
 117.192633091019 
 21
 6.25122490217678 
  0
LINE
  8
0
 10
 117.192633091019 
 20
 6.25122490217678 
 11
 120.064817505532 
 21
 6.21368000786941 
  0
LINE
  8
0
 10
 120.064817505532 
 20
 6.21368000786941 
 11
 120.064817505532 
 21
 6.21368000786941 
  0
LINE
  8
0
 10
 120.064817505532 
 20
 6.21368000786941 
 11
 120.064817505532 
 21
 6.21368000786941 
  0
LINE
  8
0
 10
 120.064817505532 
 20
 6.21368000786941 
 11
 122.970792324923 
 21
 6.17613511356204 
  0
LINE
  8
0
 10
 122.970792324923 
 20
 6.17613511356204 
 11
 125.906803059759 
 21
 6.14234470868541 
  0
LINE
  8
0
 10
 125.906803059759 
 20
 6.14234470868541 
 11
 128.876604199472 
 21
 6.10479981437804 
  0
LINE
  8
0
 10
 128.876604199472 
 20
 6.10479981437804 
 11
 131.865177786338 
 21
 6.07851838836289 
  0
LINE
  8
0
 10
 131.865177786338 
 20
 6.07851838836289 
 11
 134.861260352066 
 21
 6.04848247291699 
  0
LINE
  8
0
 10
 134.861260352066 
 20
 6.04848247291699 
 11
 137.868606386086 
 21
 6.0184465574711 
  0
LINE
  8
0
 10
 137.868606386086 
 20
 6.0184465574711 
 11
 140.875952420106 
 21
 5.99216513145594 
  0
LINE
  8
0
 10
 140.875952420106 
 20
 5.99216513145594 
 11
 143.872034985834 
 21
 5.96963819487152 
  0
LINE
  8
0
 10
 143.872034985834 
 20
 5.96963819487152 
 11
 146.860608572701 
 21
 5.94335676885636 
  0
LINE
  8
0
 10
 146.860608572701 
 20
 5.94335676885636 
 11
 149.826655222983 
 21
 5.92082983227194 
  0
LINE
  8
0
 10
 149.826655222983 
 20
 5.92082983227194 
 11
 149.826655222983 
 21
 5.92082983227194 
  0
LINE
  8
0
 10
 149.826655222983 
 20
 5.92082983227194 
 11
 149.826655222983 
 21
 5.92082983227194 
  0
LINE
  8
0
 10
 149.826655222983 
 20
 5.92082983227194 
 11
 152.76642044725 
 21
 5.89454840625678 
  0
LINE
  8
0
 10
 152.76642044725 
 20
 5.89454840625678 
 11
 155.694922203225 
 21
 5.87202146967236 
  0
LINE
  8
0
 10
 155.694922203225 
 20
 5.87202146967236 
 11
 158.608406001476 
 21
 5.84949453308794 
  0
LINE
  8
0
 10
 158.608406001476 
 20
 5.84949453308794 
 11
 161.52939877859 
 21
 5.82696759650352 
  0
LINE
  8
0
 10
 161.52939877859 
 20
 5.82696759650352 
 11
 164.457900534564 
 21
 5.80068617048836 
  0
LINE
  8
0
 10
 164.457900534564 
 20
 5.80068617048836 
 11
 167.405174737693 
 21
 5.7744047444732 
  0
LINE
  8
0
 10
 167.405174737693 
 20
 5.7744047444732 
 11
 170.386239345698 
 21
 5.74061433959657 
  0
LINE
  8
0
 10
 170.386239345698 
 20
 5.74061433959657 
 11
 173.40484884801 
 21
 5.71057842415068 
  0
LINE
  8
0
 10
 173.40484884801 
 20
 5.71057842415068 
 11
 176.468512223491 
 21
 5.66927904041257 
  0
LINE
  8
0
 10
 176.468512223491 
 20
 5.66927904041257 
 11
 179.592247429864 
 21
 5.63173414610521 
  0
LINE
  8
0
 10
 179.592247429864 
 20
 5.63173414610521 
 11
 179.592247429864 
 21
 5.63173414610521 
  0
LINE
  8
0
 10
 179.592247429864 
 20
 5.63173414610521 
 11
 179.592247429864 
 21
 5.63173414610521 
  0
LINE
  8
0
 10
 179.592247429864 
 20
 5.63173414610521 
 11
 182.776054467129 
 21
 5.58292578350563 
  0
LINE
  8
0
 10
 182.776054467129 
 20
 5.58292578350563 
 11
 185.997406398701 
 21
 5.53036293147531 
  0
LINE
  8
0
 10
 185.997406398701 
 20
 5.53036293147531 
 11
 189.218758330273 
 21
 5.477800079445 
  0
LINE
  8
0
 10
 189.218758330273 
 20
 5.477800079445 
 11
 192.4100743464 
 21
 5.41772824855321 
  0
LINE
  8
0
 10
 192.4100743464 
 20
 5.41772824855321 
 11
 195.537564042204 
 21
 5.36141090709216 
  0
LINE
  8
0
 10
 195.537564042204 
 20
 5.36141090709216 
 11
 198.571191502239 
 21
 5.30133907620037 
  0
LINE
  8
0
 10
 198.571191502239 
 20
 5.30133907620037 
 11
 201.473411832198 
 21
 5.24502173473931 
  0
LINE
  8
0
 10
 201.473411832198 
 20
 5.24502173473931 
 11
 204.221698095498 
 21
 5.18870439327826 
  0
LINE
  8
0
 10
 204.221698095498 
 20
 5.18870439327826 
 11
 206.774750908399 
 21
 5.13614154124795 
  0
LINE
  8
0
 10
 206.774750908399 
 20
 5.13614154124795 
 11
 209.106288844886 
 21
 5.08357868921763 
  0
LINE
  8
0
 10
 209.106288844886 
 20
 5.08357868921763 
 11
 209.106288844886 
 21
 5.08357868921763 
  0
LINE
  8
0
 10
 209.106288844886 
 20
 5.08357868921763 
 11
 209.106288844886 
 21
 5.08357868921763 
  0
LINE
  8
0
 10
 209.106288844886 
 20
 5.08357868921763 
 11
 211.190030478945 
 21
 5.03852481604879 
  0
LINE
  8
0
 10
 211.190030478945 
 20
 5.03852481604879 
 11
 213.052257236591 
 21
 4.99347094287995 
  0
LINE
  8
0
 10
 213.052257236591 
 20
 4.99347094287995 
 11
 214.719250543838 
 21
 4.95592604857258 
  0
LINE
  8
0
 10
 214.719250543838 
 20
 4.95592604857258 
 11
 216.228555294994 
 21
 4.91838115426521 
  0
LINE
  8
0
 10
 216.228555294994 
 20
 4.91838115426521 
 11
 217.613961894936 
 21
 4.88459074938858 
  0
LINE
  8
0
 10
 217.613961894936 
 20
 4.88459074938858 
 11
 218.905506259109 
 21
 4.85080034451195 
  0
LINE
  8
0
 10
 218.905506259109 
 20
 4.85080034451195 
 11
 220.12946981353 
 21
 4.81700993963532 
  0
LINE
  8
0
 10
 220.12946981353 
 20
 4.81700993963532 
 11
 221.334660920796 
 21
 4.78321953475869 
  0
LINE
  8
0
 10
 221.334660920796 
 20
 4.78321953475869 
 11
 222.543606517493 
 21
 4.74942912988206 
  0
LINE
  8
0
 10
 222.543606517493 
 20
 4.74942912988206 
 11
 223.786342519067 
 21
 4.71563872500543 
  0
LINE
  8
0
 10
 223.786342519067 
 20
 4.71563872500543 
 11
 223.786342519067 
 21
 4.71563872500543 
  0
LINE
  8
0
 10
 223.786342519067 
 20
 4.71563872500543 
 11
 223.786342519067 
 21
 4.71563872500543 
  0
LINE
  8
0
 10
 223.786342519067 
 20
 4.71563872500543 
 11
 225.092904840964 
 21
 4.68184832012879 
  0
LINE
  8
0
 10
 225.092904840964 
 20
 4.68184832012879 
 11
 226.463293483183 
 21
 4.64430342582143 
  0
LINE
  8
0
 10
 226.463293483183 
 20
 4.64430342582143 
 11
 227.882490488001 
 21
 4.60675853151406 
  0
LINE
  8
0
 10
 227.882490488001 
 20
 4.60675853151406 
 11
 229.346741365988 
 21
 4.56921363720669 
  0
LINE
  8
0
 10
 229.346741365988 
 20
 4.56921363720669 
 11
 230.844782648852 
 21
 4.53542323233006 
  0
LINE
  8
0
 10
 230.844782648852 
 20
 4.53542323233006 
 11
 232.365350868301 
 21
 4.49787833802269 
  0
LINE
  8
0
 10
 232.365350868301 
 20
 4.49787833802269 
 11
 233.900937045472 
 21
 4.46033344371532 
  0
LINE
  8
0
 10
 233.900937045472 
 20
 4.46033344371532 
 11
 235.440277712074 
 21
 4.42278854940795 
  0
LINE
  8
0
 10
 235.440277712074 
 20
 4.42278854940795 
 11
 236.979618378676 
 21
 4.38524365510059 
  0
LINE
  8
0
 10
 236.979618378676 
 20
 4.38524365510059 
 11
 238.507695576986 
 21
 4.35145325022396 
  0
LINE
  8
0
 10
 238.507695576986 
 20
 4.35145325022396 
 11
 238.507695576986 
 21
 4.35145325022396 
  0
LINE
  8
0
 10
 238.507695576986 
 20
 4.35145325022396 
 11
 238.507695576986 
 21
 4.35145325022396 
  0
LINE
  8
0
 10
 238.507695576986 
 20
 4.35145325022396 
 11
 240.013245838712 
 21
 4.32141733477806 
  0
LINE
  8
0
 10
 240.013245838712 
 20
 4.32141733477806 
 11
 241.500023653283 
 21
 4.28387244047069 
  0
LINE
  8
0
 10
 241.500023653283 
 20
 4.28387244047069 
 11
 242.968029020702 
 21
 4.2538365250248 
  0
LINE
  8
0
 10
 242.968029020702 
 20
 4.2538365250248 
 11
 244.424770919827 
 21
 4.22755509900964 
  0
LINE
  8
0
 10
 244.424770919827 
 20
 4.22755509900964 
 11
 245.86649486123 
 21
 4.19376469413301 
  0
LINE
  8
0
 10
 245.86649486123 
 20
 4.19376469413301 
 11
 247.296955334341 
 21
 4.16748326811785 
  0
LINE
  8
0
 10
 247.296955334341 
 20
 4.16748326811785 
 11
 248.71990682859 
 21
 4.13744735267196 
  0
LINE
  8
0
 10
 248.71990682859 
 20
 4.13744735267196 
 11
 250.131594854547 
 21
 4.1111659266568 
  0
LINE
  8
0
 10
 250.131594854547 
 20
 4.1111659266568 
 11
 251.547037369935 
 21
 4.08113001121091 
  0
LINE
  8
0
 10
 251.547037369935 
 20
 4.08113001121091 
 11
 252.951216417031 
 21
 4.05109409576501 
  0
LINE
  8
0
 10
 252.951216417031 
 20
 4.05109409576501 
 11
 252.951216417031 
 21
 4.05109409576501 
  0
LINE
  8
0
 10
 252.951216417031 
 20
 4.05109409576501 
 11
 250.886247230125 
 21
-.180215492675367 
  0
LINE
  8
0
 10
 250.886247230125 
 20
-.180215492675367 
 11
 250.886247230125 
 21
-.180215492675367 
  0
LINE
  8
0
 10
 250.886247230125 
 20
-.180215492675367 
 11
 249.549648992783 
 21
-.210251408121261 
  0
LINE
  8
0
 10
 249.549648992783 
 20
-.210251408121261 
 11
 248.20929626601 
 21
-.236532834136419 
  0
LINE
  8
0
 10
 248.20929626601 
 20
-.236532834136419 
 11
 246.861434560376 
 21
-.266568749582313 
  0
LINE
  8
0
 10
 246.861434560376 
 20
-.266568749582313 
 11
 245.50606387588 
 21
-.296604665028208 
  0
LINE
  8
0
 10
 245.50606387588 
 20
-.296604665028208 
 11
 244.146938701953 
 21
-.322886091043365 
  0
LINE
  8
0
 10
 244.146938701953 
 20
-.322886091043365 
 11
 242.772795570303 
 21
-.35292200648926 
  0
LINE
  8
0
 10
 242.772795570303 
 20
-.35292200648926 
 11
 241.387388970361 
 21
-.386712411365891 
  0
LINE
  8
0
 10
 241.387388970361 
 20
-.386712411365891 
 11
 239.986964412697 
 21
-.412993837381048 
  0
LINE
  8
0
 10
 239.986964412697 
 20
-.412993837381048 
 11
 238.564012918447 
 21
-.443029752826943 
  0
LINE
  8
0
 10
 238.564012918447 
 20
-.443029752826943 
 11
 237.126043466475 
 21
-.476820157703574 
  0
LINE
  8
0
 10
 237.126043466475 
 20
-.476820157703574 
 11
 237.126043466475 
 21
-.476820157703574 
  0
LINE
  8
0
 10
 237.126043466475 
 20
-.476820157703574 
 11
 237.126043466475 
 21
-.476820157703574 
  0
LINE
  8
0
 10
 237.126043466475 
 20
-.476820157703574 
 11
 235.661792588488 
 21
-.503101583718732 
  0
LINE
  8
0
 10
 235.661792588488 
 20
-.503101583718732 
 11
 234.186278242208 
 21
-.533137499164626 
  0
LINE
  8
0
 10
 234.186278242208 
 20
-.533137499164626 
 11
 232.714518385359 
 21
-.566927904041257 
  0
LINE
  8
0
 10
 232.714518385359 
 20
-.566927904041257 
 11
 231.23900403908 
 21
-.596963819487152 
  0
LINE
  8
0
 10
 231.23900403908 
 20
-.596963819487152 
 11
 229.786016629385 
 21
-.626999734933046 
  0
LINE
  8
0
 10
 229.786016629385 
 20
-.626999734933046 
 11
 228.355556156274 
 21
-.657035650378941 
  0
LINE
  8
0
 10
 228.355556156274 
 20
-.657035650378941 
 11
 226.95888608804 
 21
-.683317076394098 
  0
LINE
  8
0
 10
 226.95888608804 
 20
-.683317076394098 
 11
 225.607269892975 
 21
-.713352991839993 
  0
LINE
  8
0
 10
 225.607269892975 
 20
-.713352991839993 
 11
 224.30821654994 
 21
-.73963441785515 
  0
LINE
  8
0
 10
 224.30821654994 
 20
-.73963441785515 
 11
 223.076744016658 
 21
-.765915843870308 
  0
LINE
  8
0
 10
 223.076744016658 
 20
-.765915843870308 
 11
 223.076744016658 
 21
-.765915843870308 
  0
LINE
  8
0
 10
 223.076744016658 
 20
-.765915843870308 
 11
 223.076744016658 
 21
-.765915843870308 
  0
LINE
  8
0
 10
 223.076744016658 
 20
-.765915843870308 
 11
 221.905343314268 
 21
-.792197269885466 
  0
LINE
  8
0
 10
 221.905343314268 
 20
-.792197269885466 
 11
 220.775241995616 
 21
-.814724206469886 
  0
LINE
  8
0
 10
 220.775241995616 
 20
-.814724206469886 
 11
 219.652649655826 
 21
-.837251143054307 
  0
LINE
  8
0
 10
 219.652649655826 
 20
-.837251143054307 
 11
 218.496266911159 
 21
-.859778079638728 
  0
LINE
  8
0
 10
 218.496266911159 
 20
-.859778079638728 
 11
 217.27605784617 
 21
-.882305016223149 
  0
LINE
  8
0
 10
 217.27605784617 
 20
-.882305016223149 
 11
 215.961986545412 
 21
-.908586442238306 
  0
LINE
  8
0
 10
 215.961986545412 
 20
-.908586442238306 
 11
 214.516508114578 
 21
-.927358889391991 
  0
LINE
  8
0
 10
 214.516508114578 
 20
-.927358889391991 
 11
 212.902077659361 
 21
-.953640315407148 
  0
LINE
  8
0
 10
 212.902077659361 
 20
-.953640315407148 
 11
 211.092413753746 
 21
-.979921741422306 
  0
LINE
  8
0
 10
 211.092413753746 
 20
-.979921741422306 
 11
 209.046217013995 
 21
-1.00620316743746 
  0
LINE
  8
0
 10
 209.046217013995 
 20
-1.00620316743746 
 11
 209.046217013995 
 21
-1.00620316743746 
  0
LINE
  8
0
 10
 209.046217013995 
 20
-1.00620316743746 
 11
 209.046217013995 
 21
-1.00620316743746 
  0
LINE
  8
0
 10
 209.046217013995 
 20
-1.00620316743746 
 11
 206.744714992953 
 21
-1.0399935723141 
  0
LINE
  8
0
 10
 206.744714992953 
 20
-1.0399935723141 
 11
 204.210434627206 
 21
-1.06627499832925 
  0
LINE
  8
0
 10
 204.210434627206 
 20
-1.06627499832925 
 11
 201.477166321629 
 21
-1.10381989263662 
  0
LINE
  8
0
 10
 201.477166321629 
 20
-1.10381989263662 
 11
 198.57494599167 
 21
-1.13385580808252 
  0
LINE
  8
0
 10
 198.57494599167 
 20
-1.13385580808252 
 11
 195.541318531634 
 21
-1.16764621295915 
  0
LINE
  8
0
 10
 195.541318531634 
 20
-1.16764621295915 
 11
 192.406319856969 
 21
-1.20143661783578 
  0
LINE
  8
0
 10
 192.406319856969 
 20
-1.20143661783578 
 11
 189.211249351412 
 21
-1.23147253328167 
  0
LINE
  8
0
 10
 189.211249351412 
 20
-1.23147253328167 
 11
 185.982388440978 
 21
-1.26150844872757 
  0
LINE
  8
0
 10
 185.982388440978 
 20
-1.26150844872757 
 11
 182.749773041114 
 21
-1.29154436417346 
  0
LINE
  8
0
 10
 182.749773041114 
 20
-1.29154436417346 
 11
 179.558457024988 
 21
-1.31407130075788 
  0
LINE
  8
0
 10
 179.558457024988 
 20
-1.31407130075788 
 11
 179.558457024988 
 21
-1.31407130075788 
  0
LINE
  8
0
 10
 179.558457024988 
 20
-1.31407130075788 
 11
 179.558457024988 
 21
-1.31407130075788 
  0
LINE
  8
0
 10
 179.558457024988 
 20
-1.31407130075788 
 11
 176.427212839753 
 21
-1.3365982373423 
  0
LINE
  8
0
 10
 176.427212839753 
 20
-1.3365982373423 
 11
 173.359794974841 
 21
-1.35537068449599 
  0
LINE
  8
0
 10
 173.359794974841 
 20
-1.35537068449599 
 11
 170.337430983098 
 21
-1.37038864221893 
  0
LINE
  8
0
 10
 170.337430983098 
 20
-1.37038864221893 
 11
 167.356366375093 
 21
-1.38540659994188 
  0
LINE
  8
0
 10
 167.356366375093 
 20
-1.38540659994188 
 11
 164.409092171965 
 21
-1.39667006823409 
  0
LINE
  8
0
 10
 164.409092171965 
 20
-1.39667006823409 
 11
 161.484344905421 
 21
-1.40417904709557 
  0
LINE
  8
0
 10
 161.484344905421 
 20
-1.40417904709557 
 11
 158.567106617738 
 21
-1.41168802595704 
  0
LINE
  8
0
 10
 158.567106617738 
 20
-1.41168802595704 
 11
 155.653622819486 
 21
-1.41544251538778 
  0
LINE
  8
0
 10
 155.653622819486 
 20
-1.41544251538778 
 11
 152.732630042373 
 21
-1.41168802595704 
  0
LINE
  8
0
 10
 152.732630042373 
 20
-1.41168802595704 
 11
 149.792864818106 
 21
-1.41544251538778 
  0
LINE
  8
0
 10
 149.792864818106 
 20
-1.41544251538778 
 11
 149.792864818106 
 21
-1.41544251538778 
  0
LINE
  8
0
 10
 149.792864818106 
 20
-1.41544251538778 
 11
 149.792864818106 
 21
-1.41544251538778 
  0
LINE
  8
0
 10
 149.792864818106 
 20
-1.41544251538778 
 11
 146.826818167824 
 21
-1.4079335365263 
  0
LINE
  8
0
 10
 146.826818167824 
 20
-1.4079335365263 
 11
 143.845753559819 
 21
-1.40042455766483 
  0
LINE
  8
0
 10
 143.845753559819 
 20
-1.40042455766483 
 11
 140.849670994091 
 21
-1.38916108937262 
  0
LINE
  8
0
 10
 140.849670994091 
 20
-1.38916108937262 
 11
 137.83857047064 
 21
-1.37789762108041 
  0
LINE
  8
0
 10
 137.83857047064 
 20
-1.37789762108041 
 11
 134.83122443662 
 21
-1.36287966335746 
  0
LINE
  8
0
 10
 134.83122443662 
 20
-1.36287966335746 
 11
 131.835141870892 
 21
-1.34786170563451 
  0
LINE
  8
0
 10
 131.835141870892 
 20
-1.34786170563451 
 11
 128.846568284026 
 21
-1.32533476905009 
  0
LINE
  8
0
 10
 128.846568284026 
 20
-1.32533476905009 
 11
 125.876767144313 
 21
-1.30280783246567 
  0
LINE
  8
0
 10
 125.876767144313 
 20
-1.30280783246567 
 11
 122.937001920046 
 21
-1.28028089588125 
  0
LINE
  8
0
 10
 122.937001920046 
 20
-1.28028089588125 
 11
 120.027272611225 
 21
-1.25024498043536 
  0
LINE
  8
0
 10
 120.027272611225 
 20
-1.25024498043536 
 11
 120.027272611225 
 21
-1.25024498043536 
  0
LINE
  8
0
 10
 120.027272611225 
 20
-1.25024498043536 
 11
 120.027272611225 
 21
-1.25024498043536 
  0
LINE
  8
0
 10
 120.027272611225 
 20
-1.25024498043536 
 11
 117.155088196711 
 21
-1.21645457555872 
  0
LINE
  8
0
 10
 117.155088196711 
 20
-1.21645457555872 
 11
 114.320448676505 
 21
-1.18641866011283 
  0
LINE
  8
0
 10
 114.320448676505 
 20
-1.18641866011283 
 11
 111.519599561175 
 21
-1.1526282552362 
  0
LINE
  8
0
 10
 111.519599561175 
 20
-1.1526282552362 
 11
 108.745031871861 
 21
-1.11508336092883 
  0
LINE
  8
0
 10
 108.745031871861 
 20
-1.11508336092883 
 11
 105.992991119131 
 21
-1.07378397719073 
  0
LINE
  8
0
 10
 105.992991119131 
 20
-1.07378397719073 
 11
 103.267231792416 
 21
-1.03623908288336 
  0
LINE
  8
0
 10
 103.267231792416 
 20
-1.03623908288336 
 11
 100.556490423424 
 21
-.994939699145253 
  0
LINE
  8
0
 10
 100.556490423424 
 20
-.994939699145253 
 11
 97.8570125227241 
 21
-.949885825976411 
  0
LINE
  8
0
 10
 97.8570125227241 
 20
-.949885825976411 
 11
 95.176307069178 
 21
-.908586442238306 
  0
LINE
  8
0
 10
 95.176307069178 
 20
-.908586442238306 
 11
 92.4956016156319 
 21
-.867287058500202 
  0
LINE
  8
0
 10
 92.4956016156319 
 20
-.867287058500202 
 11
 92.4956016156319 
 21
-.867287058500202 
  0
LINE
  8
0
 10
 92.4956016156319 
 20
-.867287058500202 
 11
 92.4956016156319 
 21
-.867287058500202 
  0
LINE
  8
0
 10
 92.4956016156319 
 20
-.867287058500202 
 11
 89.8148961620858 
 21
-.82223318533136 
  0
LINE
  8
0
 10
 89.8148961620858 
 20
-.82223318533136 
 11
 87.1379451979705 
 21
-.777179312162518 
  0
LINE
  8
0
 10
 87.1379451979705 
 20
-.777179312162518 
 11
 84.4459762761322 
 21
-.732125438993677 
  0
LINE
  8
0
 10
 84.4459762761322 
 20
-.732125438993677 
 11
 81.7314804177095 
 21
-.690826055255572 
  0
LINE
  8
0
 10
 81.7314804177095 
 20
-.690826055255572 
 11
 78.9982121121331 
 21
-.64577218208673 
  0
LINE
  8
0
 10
 78.9982121121331 
 20
-.64577218208673 
 11
 76.2273989122493 
 21
-.604472798348625 
  0
LINE
  8
0
 10
 76.2273989122493 
 20
-.604472798348625 
 11
 73.4152863286275 
 21
-.563173414610521 
  0
LINE
  8
0
 10
 73.4152863286275 
 20
-.563173414610521 
 11
 70.554365382406 
 21
-.525628520303153 
  0
LINE
  8
0
 10
 70.554365382406 
 20
-.525628520303153 
 11
 67.6408815841543 
 21
-.480574647134311 
  0
LINE
  8
0
 10
 67.6408815841543 
 20
-.480574647134311 
 11
 64.66357146558 
 21
-.44678424225768 
  0
LINE
  8
0
 10
 64.66357146558 
 20
-.44678424225768 
 11
 64.66357146558 
 21
-.44678424225768 
  0
LINE
  8
0
 10
 64.66357146558 
 20
-.44678424225768 
 11
 64.66357146558 
 21
-.44678424225768 
  0
LINE
  8
0
 10
 64.66357146558 
 20
-.44678424225768 
 11
 61.6224350266832 
 21
-.409239347950312 
  0
LINE
  8
0
 10
 61.6224350266832 
 20
-.409239347950312 
 11
 58.5399992040482 
 21
-.37544894307368 
  0
LINE
  8
0
 10
 58.5399992040482 
 20
-.37544894307368 
 11
 55.4575633814133 
 21
-.341658538197049 
  0
LINE
  8
0
 10
 55.4575633814133 
 20
-.341658538197049 
 11
 52.4126724530858 
 21
-.311622622751155 
  0
LINE
  8
0
 10
 52.4126724530858 
 20
-.311622622751155 
 11
 49.4316078450808 
 21
-.285341196735997 
  0
LINE
  8
0
 10
 49.4316078450808 
 20
-.285341196735997 
 11
 46.5556689411364 
 21
-.255305281290103 
  0
LINE
  8
0
 10
 46.5556689411364 
 20
-.255305281290103 
 11
 43.8148916566985 
 21
-.232778344705682 
  0
LINE
  8
0
 10
 43.8148916566985 
 20
-.232778344705682 
 11
 41.2505753755053 
 21
-.210251408121261 
  0
LINE
  8
0
 10
 41.2505753755053 
 20
-.210251408121261 
 11
 38.8890015235718 
 21
-.191478960967577 
  0
LINE
  8
0
 10
 38.8890015235718 
 20
-.191478960967577 
 11
 36.7714694846363 
 21
-.172706513813893 
  0
LINE
  8
0
 10
 36.7714694846363 
 20
-.172706513813893 
 11
 36.7714694846363 
 21
-.172706513813893 
  0
LINE
  8
0
 10
 36.7714694846363 
 20
-.172706513813893 
 11
 36.7714694846363 
 21
-.172706513813893 
  0
LINE
  8
0
 10
 36.7714694846363 
 20
-.172706513813893 
 11
 34.9129972164215 
 21
-.157688556090946 
  0
LINE
  8
0
 10
 34.9129972164215 
 20
-.157688556090946 
 11
 33.2985667612047 
 21
-.150179577229472 
  0
LINE
  8
0
 10
 33.2985667612047 
 20
-.150179577229472 
 11
 31.8831242458169 
 21
-.135161619506525 
  0
LINE
  8
0
 10
 31.8831242458169 
 20
-.135161619506525 
 11
 30.6441427336738 
 21
-.127652640645051 
  0
LINE
  8
0
 10
 30.6441427336738 
 20
-.127652640645051 
 11
 29.5365683516064 
 21
-.123898151214315 
  0
LINE
  8
0
 10
 29.5365683516064 
 20
-.123898151214315 
 11
 28.5266106947382 
 21
-.116389172352841 
  0
LINE
  8
0
 10
 28.5266106947382 
 20
-.116389172352841 
 11
 27.5804793581926 
 21
-.112634682922104 
  0
LINE
  8
0
 10
 27.5804793581926 
 20
-.112634682922104 
 11
 26.660629447662 
 21
-.108880193491367 
  0
LINE
  8
0
 10
 26.660629447662 
 20
-.108880193491367 
 11
 25.7332705582701 
 21
-.105125704060631 
  0
LINE
  8
0
 10
 25.7332705582701 
 20
-.105125704060631 
 11
 24.7608577957092 
 21
-9.76167251991569E-02 
  0
LINE
  8
0
 10
 24.7608577957092 
 20
-9.76167251991569E-02 
 11
 24.7608577957092 
 21
-9.76167251991569E-02 
  0
LINE
  8
0
 10
 24.7608577957092 
 20
-9.76167251991569E-02 
 11
 24.7608577957092 
 21
-9.76167251991569E-02 
  0
LINE
  8
0
 10
 24.7608577957092 
 20
-9.76167251991569E-02 
 11
 23.7171097339644 
 21
-9.76167251991569E-02 
  0
LINE
  8
0
 10
 23.7171097339644 
 20
-9.76167251991569E-02 
 11
 22.609535351897 
 21
-9.01077463376833E-02 
  0
LINE
  8
0
 10
 22.609535351897 
 20
-9.01077463376833E-02 
 11
 21.4381346495072 
 21
-8.25987674762097E-02 
  0
LINE
  8
0
 10
 21.4381346495072 
 20
-8.25987674762097E-02 
 11
 20.2179255845177 
 21
-7.50897886147361E-02 
  0
LINE
  8
0
 10
 20.2179255845177 
 20
-7.50897886147361E-02 
 11
 18.9526626463594 
 21
-7.13352991839993E-02 
  0
LINE
  8
0
 10
 18.9526626463594 
 20
-7.13352991839993E-02 
 11
 17.6611182821859 
 21
-6.75808097532625E-02 
  0
LINE
  8
0
 10
 17.6611182821859 
 20
-6.75808097532625E-02 
 11
 16.3508014708588 
 21
-6.00718308917889E-02 
  0
LINE
  8
0
 10
 16.3508014708588 
 20
-6.00718308917889E-02 
 11
 15.0292211912394 
 21
-5.25628520303153E-02 
  0
LINE
  8
0
 10
 15.0292211912394 
 20
-5.25628520303153E-02 
 11
 13.7113954010508 
 21
-4.50538731688416E-02 
  0
LINE
  8
0
 10
 13.7113954010508 
 20
-4.50538731688416E-02 
 11
 12.3973241002929 
 21
-4.12993837381048E-02 
  0
LINE
  8
0
 10
 12.3973241002929 
 20
-4.12993837381048E-02 
 11
 12.3973241002929 
 21
-4.12993837381048E-02 
  0
LINE
  8
0
 10
 12.3973241002929 
 20
-4.12993837381048E-02 
 11
 12.3973241002929 
 21
-4.12993837381048E-02 
  0
LINE
  8
0
 10
 12.3973241002929 
 20
-4.12993837381048E-02 
 11
 11.1020252466887 
 21
-3.37904048766312E-02 
  0
LINE
  8
0
 10
 11.1020252466887 
 20
-3.37904048766312E-02 
 11
 9.82174435080748 
 21
-3.37904048766312E-02 
  0
LINE
  8
0
 10
 9.82174435080748 
 20
-3.37904048766312E-02 
 11
 8.56399039151065 
 21
-3.00359154458944E-02 
  0
LINE
  8
0
 10
 8.56399039151065 
 20
-3.00359154458944E-02 
 11
 7.31374541107529 
 21
-2.25269365844208E-02 
  0
LINE
  8
0
 10
 7.31374541107529 
 20
-2.25269365844208E-02 
 11
 6.07476389893215 
 21
-.018772447153684 
  0
LINE
  8
0
 10
 6.07476389893215 
 20
-.018772447153684 
 11
 4.85080034451195 
 21
-1.50179577229472E-02 
  0
LINE
  8
0
 10
 4.85080034451195 
 20
-1.50179577229472E-02 
 11
 3.63059127952249 
 21
-1.50179577229472E-02 
  0
LINE
  8
0
 10
 3.63059127952249 
 20
-1.50179577229472E-02 
 11
 2.42164568282524 
 21
-7.50897886147361E-03 
  0
LINE
  8
0
 10
 2.42164568282524 
 20
-7.50897886147361E-03 
 11
 1.20519110726651 
 21
-7.50897886147361E-03 
  0
LINE
  8
0
 10
 1.20519110726651 
 20
-7.50897886147361E-03 
 11
 0 
 21
-3.7544894307368E-03 
  0
LINE
  8
0
 10
 0 
 20
-3.7544894307368E-03 
 11
 0 
 21
 0 
  0
ENDSEC
  0
EOF
