  0
SECTION
  2
ENTITIES
  0
LINE
  8
0
 10
 0 
 20
 0 
 11
-11.5638274466694 
 21
 2.08749612348966 
  0
LINE
  8
0
 10
 6.55158405663572 
 20
 .018772447153684 
 11
-1.14887376580546 
 21
 2.03117878202861 
  0
LINE
  8
0
 10
 13.0994136238407 
 20
-4.50538731688416E-02 
 11
 9.25481644676622 
 21
 2.08749612348966 
  0
LINE
  8
0
 10
 19.3468840365868 
 20
-.153934066660209 
 11
 19.343129547156 
 21
 2.20013080641177 
  0
LINE
  8
0
 10
 47.1864231655001 
 20
-.484329136565048 
 11
 47.2089501020846 
 21
 2.59059770720839 
  0
LINE
  8
0
 10
 75.0146988261213 
 20
-.705844012978519 
 11
 75.0409802521365 
 21
 2.57933423891618 
  0
LINE
  8
0
 10
 102.550124311145 
 20
-.91609542109978 
 11
 102.57640573716 
 21
 2.29399304218019 
  0
LINE
  8
0
 10
 132.311962028596 
 20
-1.25775395929683 
 11
 132.338243454611 
 21
 1.85096328935324 
  0
LINE
  8
0
 10
 162.081308724908 
 20
-1.41919700481851 
 11
 162.103835661492 
 21
 1.48677781457177 
  0
LINE
  8
0
 10
 191.584086671638 
 20
-.795951759316202 
 11
 191.599104629361 
 21
 1.5506041348943 
  0
LINE
  8
0
 10
 201.860124243564 
 20
-.326640580474102 
 11
 203.778668342671 
 21
 1.76836452187704 
  0
LINE
  8
0
 10
 212.154934262645 
 20
 .217760386982735 
 11
 215.973250013704 
 21
 2.06496918690524 
  0
LINE
  8
0
 10
 0 
 20
 0 
 11
-11.5638274466694 
 21
 2.08749612348966 
  0
LINE
  8
0
 10
-11.5638274466694 
 20
 2.08749612348966 
 11
-11.5638274466694 
 21
 2.08749612348966 
  0
LINE
  8
0
 10
-11.5638274466694 
 20
 2.08749612348966 
 11
-10.5576242792319 
 21
 2.07623265519745 
  0
LINE
  8
0
 10
-10.5576242792319 
 20
 2.07623265519745 
 11
-9.55142111179443 
 21
 2.06872367633598 
  0
LINE
  8
0
 10
-9.55142111179443 
 20
 2.06872367633598 
 11
-8.54146345492623 
 21
 2.06121469747451 
  0
LINE
  8
0
 10
-8.54146345492623 
 20
 2.06121469747451 
 11
-7.52024232976582 
 21
 2.0499512291823 
  0
LINE
  8
0
 10
-7.52024232976582 
 20
 2.0499512291823 
 11
-6.49526671517467 
 21
 2.04619673975156 
  0
LINE
  8
0
 10
-6.49526671517467 
 20
 2.04619673975156 
 11
-5.45527314286058 
 21
 2.04244225032082 
  0
LINE
  8
0
 10
-5.45527314286058 
 20
 2.04244225032082 
 11
-4.40026161282353 
 21
 2.03493327145935 
  0
LINE
  8
0
 10
-4.40026161282353 
 20
 2.03493327145935 
 11
-3.33774110392502 
 21
 2.03493327145935 
  0
LINE
  8
0
 10
-3.33774110392502 
 20
 2.03493327145935 
 11
-2.25269365844208 
 21
 2.03117878202861 
  0
LINE
  8
0
 10
-2.25269365844208 
 20
 2.03117878202861 
 11
-1.14887376580546 
 21
 2.03117878202861 
  0
LINE
  8
0
 10
-1.14887376580546 
 20
 2.03117878202861 
 11
-1.14887376580546 
 21
 2.03117878202861 
  0
LINE
  8
0
 10
-1.14887376580546 
 20
 2.03117878202861 
 11
-1.14887376580546 
 21
 2.03117878202861 
  0
LINE
  8
0
 10
-1.14887376580546 
 20
 2.03117878202861 
 11
-2.62814260151576E-02 
 21
 2.03117878202861 
  0
LINE
  8
0
 10
-2.62814260151576E-02 
 20
 2.03117878202861 
 11
 1.10757438206736 
 21
 2.03493327145935 
  0
LINE
  8
0
 10
 1.10757438206736 
 20
 2.03493327145935 
 11
 2.24143019014987 
 21
 2.04244225032082 
  0
LINE
  8
0
 10
 2.24143019014987 
 20
 2.04244225032082 
 11
 3.36402252994018 
 21
 2.04619673975156 
  0
LINE
  8
0
 10
 3.36402252994018 
 20
 2.04619673975156 
 11
 4.46408793314606 
 21
 2.0499512291823 
  0
LINE
  8
0
 10
 4.46408793314606 
 20
 2.0499512291823 
 11
 5.53036293147531 
 21
 2.06121469747451 
  0
LINE
  8
0
 10
 5.53036293147531 
 20
 2.06121469747451 
 11
 6.55533854606646 
 21
 2.06872367633598 
  0
LINE
  8
0
 10
 6.55533854606646 
 20
 2.06872367633598 
 11
 7.52399681919655 
 21
 2.07623265519745 
  0
LINE
  8
0
 10
 7.52399681919655 
 20
 2.07623265519745 
 11
 8.42882877200412 
 21
 2.07998714462819 
  0
LINE
  8
0
 10
 8.42882877200412 
 20
 2.07998714462819 
 11
 9.25481644676622 
 21
 2.08749612348966 
  0
LINE
  8
0
 10
 9.25481644676622 
 20
 2.08749612348966 
 11
 9.25481644676622 
 21
 2.08749612348966 
  0
LINE
  8
0
 10
 9.25481644676622 
 20
 2.08749612348966 
 11
 9.25481644676622 
 21
 2.08749612348966 
  0
LINE
  8
0
 10
 9.25481644676622 
 20
 2.08749612348966 
 11
 10.0019598434828 
 21
 2.09500510235114 
  0
LINE
  8
0
 10
 10.0019598434828 
 20
 2.09500510235114 
 11
 10.7078038564614 
 21
 2.09500510235114 
  0
LINE
  8
0
 10
 10.7078038564614 
 20
 2.09500510235114 
 11
 11.3986299117169 
 21
 2.10251408121261 
  0
LINE
  8
0
 10
 11.3986299117169 
 20
 2.10251408121261 
 11
 12.1232463718491 
 21
 2.10251408121261 
  0
LINE
  8
0
 10
 12.1232463718491 
 20
 2.10251408121261 
 11
 12.9191981311653 
 21
 2.11377754950482 
  0
LINE
  8
0
 10
 12.9191981311653 
 20
 2.11377754950482 
 11
 13.8240300839729 
 21
 2.12128652836629 
  0
LINE
  8
0
 10
 13.8240300839729 
 20
 2.12128652836629 
 11
 14.87904161401 
 21
 2.13630448608924 
  0
LINE
  8
0
 10
 14.87904161401 
 20
 2.13630448608924 
 11
 16.1255321050146 
 21
 2.15132244381219 
  0
LINE
  8
0
 10
 16.1255321050146 
 20
 2.15132244381219 
 11
 17.5972919618634 
 21
 2.17760386982735 
  0
LINE
  8
0
 10
 17.5972919618634 
 20
 2.17760386982735 
 11
 19.343129547156 
 21
 2.20013080641177 
  0
LINE
  8
0
 10
 19.343129547156 
 20
 2.20013080641177 
 11
 19.343129547156 
 21
 2.20013080641177 
  0
LINE
  8
0
 10
 19.343129547156 
 20
 2.20013080641177 
 11
 19.343129547156 
 21
 2.20013080641177 
  0
LINE
  8
0
 10
 19.343129547156 
 20
 2.20013080641177 
 11
 21.3780628186154 
 21
 2.2339212112884 
  0
LINE
  8
0
 10
 21.3780628186154 
 20
 2.2339212112884 
 11
 23.6870738185185 
 21
 2.2752205950265 
  0
LINE
  8
0
 10
 23.6870738185185 
 20
 2.2752205950265 
 11
 26.2288631631273 
 21
 2.31651997876461 
  0
LINE
  8
0
 10
 26.2288631631273 
 20
 2.31651997876461 
 11
 28.958376979273 
 21
 2.35781936250271 
  0
LINE
  8
0
 10
 28.958376979273 
 20
 2.35781936250271 
 11
 31.8418248620788 
 21
 2.40287323567155 
  0
LINE
  8
0
 10
 31.8418248620788 
 20
 2.40287323567155 
 11
 34.8379074278068 
 21
 2.4479271088404 
  0
LINE
  8
0
 10
 34.8379074278068 
 20
 2.4479271088404 
 11
 37.9128342715802 
 21
 2.4892264925785 
  0
LINE
  8
0
 10
 37.9128342715802 
 20
 2.4892264925785 
 11
 41.0253060096611 
 21
 2.53052587631661 
  0
LINE
  8
0
 10
 41.0253060096611 
 20
 2.53052587631661 
 11
 44.1377777477419 
 21
 2.5605617917625 
  0
LINE
  8
0
 10
 44.1377777477419 
 20
 2.5605617917625 
 11
 47.2089501020846 
 21
 2.59059770720839 
  0
LINE
  8
0
 10
 47.2089501020846 
 20
 2.59059770720839 
 11
 47.2089501020846 
 21
 2.59059770720839 
  0
LINE
  8
0
 10
 47.2089501020846 
 20
 2.59059770720839 
 11
 47.2089501020846 
 21
 2.59059770720839 
  0
LINE
  8
0
 10
 47.2089501020846 
 20
 2.59059770720839 
 11
 50.2050326678125 
 21
 2.61687913322355 
  0
LINE
  8
0
 10
 50.2050326678125 
 20
 2.61687913322355 
 11
 53.137288913218 
 21
 2.6318970909465 
  0
LINE
  8
0
 10
 53.137288913218 
 20
 2.6318970909465 
 11
 56.0019643488702 
 21
 2.63940606980797 
  0
LINE
  8
0
 10
 56.0019643488702 
 20
 2.63940606980797 
 11
 58.814076932492 
 21
 2.64316055923871 
  0
LINE
  8
0
 10
 58.814076932492 
 20
 2.64316055923871 
 11
 61.5848901323758 
 21
 2.64316055923871 
  0
LINE
  8
0
 10
 61.5848901323758 
 20
 2.64316055923871 
 11
 64.3144039485214 
 21
 2.63940606980797 
  0
LINE
  8
0
 10
 64.3144039485214 
 20
 2.63940606980797 
 11
 67.0176363386519 
 21
 2.62814260151576 
  0
LINE
  8
0
 10
 67.0176363386519 
 20
 2.62814260151576 
 11
 69.7020962816288 
 21
 2.61687913322355 
  0
LINE
  8
0
 10
 69.7020962816288 
 20
 2.61687913322355 
 11
 72.3752927563134 
 21
 2.60186117550061 
  0
LINE
  8
0
 10
 72.3752927563134 
 20
 2.60186117550061 
 11
 75.0409802521365 
 21
 2.57933423891618 
  0
LINE
  8
0
 10
 75.0409802521365 
 20
 2.57933423891618 
 11
 75.0409802521365 
 21
 2.57933423891618 
  0
LINE
  8
0
 10
 75.0409802521365 
 20
 2.57933423891618 
 11
 75.0409802521365 
 21
 2.57933423891618 
  0
LINE
  8
0
 10
 75.0409802521365 
 20
 2.57933423891618 
 11
 77.7179312162518 
 21
 2.56431628119324 
  0
LINE
  8
0
 10
 77.7179312162518 
 20
 2.56431628119324 
 11
 80.3986366697979 
 21
 2.54178934460882 
  0
LINE
  8
0
 10
 80.3986366697979 
 20
 2.54178934460882 
 11
 83.0906055916362 
 21
 2.51550791859366 
  0
LINE
  8
0
 10
 83.0906055916362 
 20
 2.51550791859366 
 11
 85.8013469606282 
 21
 2.4892264925785 
  0
LINE
  8
0
 10
 85.8013469606282 
 20
 2.4892264925785 
 11
 88.5308607767738 
 21
 2.46294506656334 
  0
LINE
  8
0
 10
 88.5308607767738 
 20
 2.46294506656334 
 11
 91.2791470400732 
 21
 2.43666364054819 
  0
LINE
  8
0
 10
 91.2791470400732 
 20
 2.43666364054819 
 11
 94.0574692188184 
 21
 2.40287323567155 
  0
LINE
  8
0
 10
 94.0574692188184 
 20
 2.40287323567155 
 11
 96.8620728235788 
 21
 2.36908283079492 
  0
LINE
  8
0
 10
 96.8620728235788 
 20
 2.36908283079492 
 11
 99.7004668332158 
 21
 2.33529242591829 
  0
LINE
  8
0
 10
 99.7004668332158 
 20
 2.33529242591829 
 11
 102.57640573716 
 21
 2.29399304218019 
  0
LINE
  8
0
 10
 102.57640573716 
 20
 2.29399304218019 
 11
 102.57640573716 
 21
 2.29399304218019 
  0
LINE
  8
0
 10
 102.57640573716 
 20
 2.29399304218019 
 11
 102.57640573716 
 21
 2.29399304218019 
  0
LINE
  8
0
 10
 102.57640573716 
 20
 2.29399304218019 
 11
 105.489889535412 
 21
 2.25644814787282 
  0
LINE
  8
0
 10
 105.489889535412 
 20
 2.25644814787282 
 11
 108.43340924911 
 21
 2.21514876413471 
  0
LINE
  8
0
 10
 108.43340924911 
 20
 2.21514876413471 
 11
 111.403210388822 
 21
 2.17384938039661 
  0
LINE
  8
0
 10
 111.403210388822 
 20
 2.17384938039661 
 11
 114.391783975689 
 21
 2.1325499966585 
  0
LINE
  8
0
 10
 114.391783975689 
 20
 2.1325499966585 
 11
 117.391621030848 
 21
 2.08749612348966 
  0
LINE
  8
0
 10
 117.391621030848 
 20
 2.08749612348966 
 11
 120.402721554299 
 21
 2.04244225032082 
  0
LINE
  8
0
 10
 120.402721554299 
 20
 2.04244225032082 
 11
 123.402558609457 
 21
 1.99738837715198 
  0
LINE
  8
0
 10
 123.402558609457 
 20
 1.99738837715198 
 11
 126.402395664616 
 21
 1.9485800145524 
  0
LINE
  8
0
 10
 126.402395664616 
 20
 1.9485800145524 
 11
 129.37970578319 
 21
 1.90352614138356 
  0
LINE
  8
0
 10
 129.37970578319 
 20
 1.90352614138356 
 11
 132.338243454611 
 21
 1.85096328935324 
  0
LINE
  8
0
 10
 132.338243454611 
 20
 1.85096328935324 
 11
 132.338243454611 
 21
 1.85096328935324 
  0
LINE
  8
0
 10
 132.338243454611 
 20
 1.85096328935324 
 11
 132.338243454611 
 21
 1.85096328935324 
  0
LINE
  8
0
 10
 132.338243454611 
 20
 1.85096328935324 
 11
 135.266745210586 
 21
 1.8059094161844 
  0
LINE
  8
0
 10
 135.266745210586 
 20
 1.8059094161844 
 11
 138.183983498268 
 21
 1.75710105358482 
  0
LINE
  8
0
 10
 138.183983498268 
 20
 1.75710105358482 
 11
 141.086203828228 
 21
 1.71580166984672 
  0
LINE
  8
0
 10
 141.086203828228 
 20
 1.71580166984672 
 11
 143.995933137049 
 21
 1.67074779667788 
  0
LINE
  8
0
 10
 143.995933137049 
 20
 1.67074779667788 
 11
 146.913171424731 
 21
 1.62944841293977 
  0
LINE
  8
0
 10
 146.913171424731 
 20
 1.62944841293977 
 11
 149.86044562786 
 21
 1.59190351863241 
  0
LINE
  8
0
 10
 149.86044562786 
 20
 1.59190351863241 
 11
 152.841510235865 
 21
 1.55811311375577 
  0
LINE
  8
0
 10
 152.841510235865 
 20
 1.55811311375577 
 11
 155.871383206469 
 21
 1.52807719830988 
  0
LINE
  8
0
 10
 155.871383206469 
 20
 1.52807719830988 
 11
 158.953819029104 
 21
 1.50555026172546 
  0
LINE
  8
0
 10
 158.953819029104 
 20
 1.50555026172546 
 11
 162.103835661492 
 21
 1.48677781457177 
  0
LINE
  8
0
 10
 162.103835661492 
 20
 1.48677781457177 
 11
 162.103835661492 
 21
 1.48677781457177 
  0
LINE
  8
0
 10
 162.103835661492 
 20
 1.48677781457177 
 11
 162.103835661492 
 21
 1.48677781457177 
  0
LINE
  8
0
 10
 162.103835661492 
 20
 1.48677781457177 
 11
 165.325187593064 
 21
 1.47175985684883 
  0
LINE
  8
0
 10
 165.325187593064 
 20
 1.47175985684883 
 11
 168.587838908375 
 21
 1.46800536741809 
  0
LINE
  8
0
 10
 168.587838908375 
 20
 1.46800536741809 
 11
 171.850490223685 
 21
 1.46425087798735 
  0
LINE
  8
0
 10
 171.850490223685 
 20
 1.46425087798735 
 11
 175.079351134119 
 21
 1.46800536741809 
  0
LINE
  8
0
 10
 175.079351134119 
 20
 1.46800536741809 
 11
 178.236876745368 
 21
 1.47551434627956 
  0
LINE
  8
0
 10
 178.236876745368 
 20
 1.47551434627956 
 11
 181.278013184265 
 21
 1.48677781457177 
  0
LINE
  8
0
 10
 181.278013184265 
 20
 1.48677781457177 
 11
 184.176479024794 
 21
 1.50179577229472 
  0
LINE
  8
0
 10
 184.176479024794 
 20
 1.50179577229472 
 11
 186.887220393786 
 21
 1.51681373001767 
  0
LINE
  8
0
 10
 186.887220393786 
 20
 1.51681373001767 
 11
 189.372692396934 
 21
 1.53934066660209 
  0
LINE
  8
0
 10
 189.372692396934 
 20
 1.53934066660209 
 11
 191.599104629361 
 21
 1.55435862432504 
  0
LINE
  8
0
 10
 191.599104629361 
 20
 1.55435862432504 
 11
 191.599104629361 
 21
 1.55435862432504 
  0
LINE
  8
0
 10
 191.599104629361 
 20
 1.55435862432504 
 11
 191.599104629361 
 21
 1.55435862432504 
  0
LINE
  8
0
 10
 191.599104629361 
 20
 1.55435862432504 
 11
 193.536421175621 
 21
 1.57313107147872 
  0
LINE
  8
0
 10
 193.536421175621 
 20
 1.57313107147872 
 11
 195.210923461729 
 21
 1.59190351863241 
  0
LINE
  8
0
 10
 195.210923461729 
 20
 1.59190351863241 
 11
 196.663910871425 
 21
 1.61067596578609 
  0
LINE
  8
0
 10
 196.663910871425 
 20
 1.61067596578609 
 11
 197.932928299014 
 21
 1.63320290237051 
  0
LINE
  8
0
 10
 197.932928299014 
 20
 1.63320290237051 
 11
 199.051766149373 
 21
 1.65197534952419 
  0
LINE
  8
0
 10
 199.051766149373 
 20
 1.65197534952419 
 11
 200.065478295672 
 21
 1.67074779667788 
  0
LINE
  8
0
 10
 200.065478295672 
 20
 1.67074779667788 
 11
 201.004100653356 
 21
 1.69702922269304 
  0
LINE
  8
0
 10
 201.004100653356 
 20
 1.69702922269304 
 11
 201.912687095595 
 21
 1.71955615927746 
  0
LINE
  8
0
 10
 201.912687095595 
 20
 1.71955615927746 
 11
 202.825028027264 
 21
 1.74208309586188 
  0
LINE
  8
0
 10
 202.825028027264 
 20
 1.74208309586188 
 11
 203.778668342671 
 21
 1.76836452187704 
  0
LINE
  8
0
 10
 203.778668342671 
 20
 1.76836452187704 
 11
 203.778668342671 
 21
 1.76836452187704 
  0
LINE
  8
0
 10
 203.778668342671 
 20
 1.76836452187704 
 11
 203.778668342671 
 21
 1.76836452187704 
  0
LINE
  8
0
 10
 203.778668342671 
 20
 1.76836452187704 
 11
 204.803643957262 
 21
 1.79089145846146 
  0
LINE
  8
0
 10
 204.803643957262 
 20
 1.79089145846146 
 11
 205.903709360468 
 21
 1.82092737390735 
  0
LINE
  8
0
 10
 205.903709360468 
 20
 1.82092737390735 
 11
 207.067601083996 
 21
 1.85096328935324 
  0
LINE
  8
0
 10
 207.067601083996 
 20
 1.85096328935324 
 11
 208.272792191263 
 21
 1.8772447153684 
  0
LINE
  8
0
 10
 208.272792191263 
 20
 1.8772447153684 
 11
 209.523037171698 
 21
 1.9072806308143 
  0
LINE
  8
0
 10
 209.523037171698 
 20
 1.9072806308143 
 11
 210.799563578149 
 21
 1.94107103569093 
  0
LINE
  8
0
 10
 210.799563578149 
 20
 1.94107103569093 
 11
 212.091107942322 
 21
 1.97110695113682 
  0
LINE
  8
0
 10
 212.091107942322 
 20
 1.97110695113682 
 11
 213.393915774788 
 21
 2.00114286658272 
  0
LINE
  8
0
 10
 213.393915774788 
 20
 2.00114286658272 
 11
 214.689214628392 
 21
 2.03493327145935 
  0
LINE
  8
0
 10
 214.689214628392 
 20
 2.03493327145935 
 11
 215.973250013704 
 21
 2.06496918690524 
  0
LINE
  8
0
 10
 215.973250013704 
 20
 2.06496918690524 
 11
 215.973250013704 
 21
 2.06496918690524 
  0
LINE
  8
0
 10
 215.973250013704 
 20
 2.06496918690524 
 11
 215.973250013704 
 21
 2.06496918690524 
  0
LINE
  8
0
 10
 215.973250013704 
 20
 2.06496918690524 
 11
 217.234758462431 
 21
 2.10251408121261 
  0
LINE
  8
0
 10
 217.234758462431 
 20
 2.10251408121261 
 11
 218.469985485144 
 21
 2.1325499966585 
  0
LINE
  8
0
 10
 218.469985485144 
 20
 2.1325499966585 
 11
 219.686440060703 
 21
 2.17009489096587 
  0
LINE
  8
0
 10
 219.686440060703 
 20
 2.17009489096587 
 11
 220.887876678538 
 21
 2.20013080641177 
  0
LINE
  8
0
 10
 220.887876678538 
 20
 2.20013080641177 
 11
 222.078049828082 
 21
 2.23767570071914 
  0
LINE
  8
0
 10
 222.078049828082 
 20
 2.23767570071914 
 11
 223.249450530472 
 21
 2.27146610559577 
  0
LINE
  8
0
 10
 223.249450530472 
 20
 2.27146610559577 
 11
 224.413342254 
 21
 2.3052565104724 
  0
LINE
  8
0
 10
 224.413342254 
 20
 2.3052565104724 
 11
 225.569724998667 
 21
 2.33904691534903 
  0
LINE
  8
0
 10
 225.569724998667 
 20
 2.33904691534903 
 11
 226.722353253903 
 21
 2.3765918096564 
  0
LINE
  8
0
 10
 226.722353253903 
 20
 2.3765918096564 
 11
 227.867472530278 
 21
 2.41413670396377 
  0
LINE
  8
0
 10
 227.867472530278 
 20
 2.41413670396377 
 11
 227.867472530278 
 21
 2.41413670396377 
  0
LINE
  8
0
 10
 227.867472530278 
 20
 2.41413670396377 
 11
 222.160648595558 
 21
 .747143396716624 
  0
LINE
  8
0
 10
 222.160648595558 
 20
 .747143396716624 
 11
 222.160648595558 
 21
 .747143396716624 
  0
LINE
  8
0
 10
 222.160648595558 
 20
 .747143396716624 
 11
 221.20325379072 
 21
 .694580544686309 
  0
LINE
  8
0
 10
 221.20325379072 
 20
 .694580544686309 
 11
 220.245858985882 
 21
 .642017692655993 
  0
LINE
  8
0
 10
 220.245858985882 
 20
 .642017692655993 
 11
 219.280955202183 
 21
 .589454840625678 
  0
LINE
  8
0
 10
 219.280955202183 
 20
 .589454840625678 
 11
 218.308542439622 
 21
 .536891988595363 
  0
LINE
  8
0
 10
 218.308542439622 
 20
 .536891988595363 
 11
 217.3286206982 
 21
 .484329136565048 
  0
LINE
  8
0
 10
 217.3286206982 
 20
 .484329136565048 
 11
 216.329926509624 
 21
 .431766284534732 
  0
LINE
  8
0
 10
 216.329926509624 
 20
 .431766284534732 
 11
 215.316214363325 
 21
 .379203432504417 
  0
LINE
  8
0
 10
 215.316214363325 
 20
 .379203432504417 
 11
 214.283729769872 
 21
 .326640580474102 
  0
LINE
  8
0
 10
 214.283729769872 
 20
 .326640580474102 
 11
 213.232472729266 
 21
 .27032323901305 
  0
LINE
  8
0
 10
 213.232472729266 
 20
 .27032323901305 
 11
 212.154934262645 
 21
 .217760386982735 
  0
LINE
  8
0
 10
 212.154934262645 
 20
 .217760386982735 
 11
 212.154934262645 
 21
 .217760386982735 
  0
LINE
  8
0
 10
 212.154934262645 
 20
 .217760386982735 
 11
 212.154934262645 
 21
 .217760386982735 
  0
LINE
  8
0
 10
 212.154934262645 
 20
 .217760386982735 
 11
 211.054868859439 
 21
 .161443045521683 
  0
LINE
  8
0
 10
 211.054868859439 
 20
 .161443045521683 
 11
 209.936031009079 
 21
 .105125704060631 
  0
LINE
  8
0
 10
 209.936031009079 
 20
 .105125704060631 
 11
 208.81719315872 
 21
 4.50538731688416E-02 
  0
LINE
  8
0
 10
 208.81719315872 
 20
 4.50538731688416E-02 
 11
 207.702109797791 
 21
-1.12634682922104E-02 
  0
LINE
  8
0
 10
 207.702109797791 
 20
-1.12634682922104E-02 
 11
 206.609553373446 
 21
-6.75808097532625E-02 
  0
LINE
  8
0
 10
 206.609553373446 
 20
-6.75808097532625E-02 
 11
 205.550787353979 
 21
-.123898151214315 
  0
LINE
  8
0
 10
 205.550787353979 
 20
-.123898151214315 
 11
 204.533320718249 
 21
-.17646100324463 
  0
LINE
  8
0
 10
 204.533320718249 
 20
-.17646100324463 
 11
 203.57217142398 
 21
-.229023855274945 
  0
LINE
  8
0
 10
 203.57217142398 
 20
-.229023855274945 
 11
 202.674848450034 
 21
-.28158670730526 
  0
LINE
  8
0
 10
 202.674848450034 
 20
-.28158670730526 
 11
 201.860124243564 
 21
-.326640580474102 
  0
LINE
  8
0
 10
 201.860124243564 
 20
-.326640580474102 
 11
 201.860124243564 
 21
-.326640580474102 
  0
LINE
  8
0
 10
 201.860124243564 
 20
-.326640580474102 
 11
 201.860124243564 
 21
-.326640580474102 
  0
LINE
  8
0
 10
 201.860124243564 
 20
-.326640580474102 
 11
 201.120489825709 
 21
-.367939964212207 
  0
LINE
  8
0
 10
 201.120489825709 
 20
-.367939964212207 
 11
 200.437172749315 
 21
-.412993837381048 
  0
LINE
  8
0
 10
 200.437172749315 
 20
-.412993837381048 
 11
 199.753855672921 
 21
-.454293221119153 
  0
LINE
  8
0
 10
 199.753855672921 
 20
-.454293221119153 
 11
 199.03674819165 
 21
-.495592604857258 
  0
LINE
  8
0
 10
 199.03674819165 
 20
-.495592604857258 
 11
 198.237041942903 
 21
-.5406464780261 
  0
LINE
  8
0
 10
 198.237041942903 
 20
-.5406464780261 
 11
 197.317192032373 
 21
-.581945861764205 
  0
LINE
  8
0
 10
 197.317192032373 
 20
-.581945861764205 
 11
 196.23214458689 
 21
-.630754224363783 
  0
LINE
  8
0
 10
 196.23214458689 
 20
-.630754224363783 
 11
 194.948109201578 
 21
-.683317076394098 
  0
LINE
  8
0
 10
 194.948109201578 
 20
-.683317076394098 
 11
 193.408768534976 
 21
-.735879928424414 
  0
LINE
  8
0
 10
 193.408768534976 
 20
-.735879928424414 
 11
 191.584086671638 
 21
-.795951759316202 
  0
LINE
  8
0
 10
 191.584086671638 
 20
-.795951759316202 
 11
 191.584086671638 
 21
-.795951759316202 
  0
LINE
  8
0
 10
 191.584086671638 
 20
-.795951759316202 
 11
 191.584086671638 
 21
-.795951759316202 
  0
LINE
  8
0
 10
 191.584086671638 
 20
-.795951759316202 
 11
 189.436518717256 
 21
-.863532569069465 
  0
LINE
  8
0
 10
 189.436518717256 
 20
-.863532569069465 
 11
 186.999855076708 
 21
-.934867868253464 
  0
LINE
  8
0
 10
 186.999855076708 
 20
-.934867868253464 
 11
 184.315395133731 
 21
-1.00620316743746 
  0
LINE
  8
0
 10
 184.315395133731 
 20
-1.00620316743746 
 11
 181.420683782633 
 21
-1.07753846662146 
  0
LINE
  8
0
 10
 181.420683782633 
 20
-1.07753846662146 
 11
 178.364529386013 
 21
-1.14887376580546 
  0
LINE
  8
0
 10
 178.364529386013 
 20
-1.14887376580546 
 11
 175.184476838179 
 21
-1.22020906498946 
  0
LINE
  8
0
 10
 175.184476838179 
 20
-1.22020906498946 
 11
 171.9255800123 
 21
-1.28028089588125 
  0
LINE
  8
0
 10
 171.9255800123 
 20
-1.28028089588125 
 11
 168.625383802682 
 21
-1.3365982373423 
  0
LINE
  8
0
 10
 168.625383802682 
 20
-1.3365982373423 
 11
 165.328942082495 
 21
-1.38165211051114 
  0
LINE
  8
0
 10
 165.328942082495 
 20
-1.38165211051114 
 11
 162.081308724908 
 21
-1.41919700481851 
  0
LINE
  8
0
 10
 162.081308724908 
 20
-1.41919700481851 
 11
 162.081308724908 
 21
-1.41919700481851 
  0
LINE
  8
0
 10
 162.081308724908 
 20
-1.41919700481851 
 11
 162.081308724908 
 21
-1.41919700481851 
  0
LINE
  8
0
 10
 162.081308724908 
 20
-1.41919700481851 
 11
 158.905010666505 
 21
-1.44172394140293 
  0
LINE
  8
0
 10
 158.905010666505 
 20
-1.44172394140293 
 11
 155.807556886147 
 21
-1.44923292026441 
  0
LINE
  8
0
 10
 155.807556886147 
 20
-1.44923292026441 
 11
 152.773929426111 
 21
-1.44547843083367 
  0
LINE
  8
0
 10
 152.773929426111 
 20
-1.44547843083367 
 11
 149.792864818106 
 21
-1.43421496254146 
  0
LINE
  8
0
 10
 149.792864818106 
 20
-1.43421496254146 
 11
 146.849345104409 
 21
-1.41919700481851 
  0
LINE
  8
0
 10
 146.849345104409 
 20
-1.41919700481851 
 11
 143.932106816726 
 21
-1.39291557880335 
  0
LINE
  8
0
 10
 143.932106816726 
 20
-1.39291557880335 
 11
 141.033640976197 
 21
-1.36287966335746 
  0
LINE
  8
0
 10
 141.033640976197 
 20
-1.36287966335746 
 11
 138.138929625099 
 21
-1.32908925848083 
  0
LINE
  8
0
 10
 138.138929625099 
 20
-1.32908925848083 
 11
 135.23670929514 
 21
-1.29154436417346 
  0
LINE
  8
0
 10
 135.23670929514 
 20
-1.29154436417346 
 11
 132.311962028596 
 21
-1.25775395929683 
  0
LINE
  8
0
 10
 132.311962028596 
 20
-1.25775395929683 
 11
 132.311962028596 
 21
-1.25775395929683 
  0
LINE
  8
0
 10
 132.311962028596 
 20
-1.25775395929683 
 11
 132.311962028596 
 21
-1.25775395929683 
  0
LINE
  8
0
 10
 132.311962028596 
 20
-1.25775395929683 
 11
 129.360933336037 
 21
-1.21645457555872 
  0
LINE
  8
0
 10
 129.360933336037 
 20
-1.21645457555872 
 11
 126.391132196324 
 21
-1.17890968125136 
  0
LINE
  8
0
 10
 126.391132196324 
 20
-1.17890968125136 
 11
 123.395049630596 
 21
-1.14136478694399 
  0
LINE
  8
0
 10
 123.395049630596 
 20
-1.14136478694399 
 11
 120.395212575437 
 21
-1.10757438206736 
  0
LINE
  8
0
 10
 120.395212575437 
 20
-1.10757438206736 
 11
 117.387866541417 
 21
-1.07378397719073 
  0
LINE
  8
0
 10
 117.387866541417 
 20
-1.07378397719073 
 11
 114.380520507397 
 21
-1.03623908288336 
  0
LINE
  8
0
 10
 114.380520507397 
 20
-1.03623908288336 
 11
 111.3881924311 
 21
-1.00620316743746 
  0
LINE
  8
0
 10
 111.3881924311 
 20
-1.00620316743746 
 11
 108.414636801956 
 21
-.976167251991569 
  0
LINE
  8
0
 10
 108.414636801956 
 20
-.976167251991569 
 11
 105.467362598828 
 21
-.942376847114938 
  0
LINE
  8
0
 10
 105.467362598828 
 20
-.942376847114938 
 11
 102.550124311145 
 21
-.91609542109978 
  0
LINE
  8
0
 10
 102.550124311145 
 20
-.91609542109978 
 11
 102.550124311145 
 21
-.91609542109978 
  0
LINE
  8
0
 10
 102.550124311145 
 20
-.91609542109978 
 11
 102.550124311145 
 21
-.91609542109978 
  0
LINE
  8
0
 10
 102.550124311145 
 20
-.91609542109978 
 11
 99.6704309177699 
 21
-.889813995084622 
  0
LINE
  8
0
 10
 99.6704309177699 
 20
-.889813995084622 
 11
 96.8245279292714 
 21
-.863532569069465 
  0
LINE
  8
0
 10
 96.8245279292714 
 20
-.863532569069465 
 11
 94.0161698350803 
 21
-.841005632485044 
  0
LINE
  8
0
 10
 94.0161698350803 
 20
-.841005632485044 
 11
 91.2340931669043 
 21
-.818478695900623 
  0
LINE
  8
0
 10
 91.2340931669043 
 20
-.818478695900623 
 11
 88.4782979247435 
 21
-.799706248746939 
  0
LINE
  8
0
 10
 88.4782979247435 
 20
-.799706248746939 
 11
 85.7487841085979 
 21
-.777179312162518 
  0
LINE
  8
0
 10
 85.7487841085979 
 20
-.777179312162518 
 11
 83.0417972290366 
 21
-.758406865008834 
  0
LINE
  8
0
 10
 83.0417972290366 
 20
-.758406865008834 
 11
 80.3498283071983 
 21
-.743388907285887 
  0
LINE
  8
0
 10
 80.3498283071983 
 20
-.743388907285887 
 11
 77.6803863219445 
 21
-.720861970701466 
  0
LINE
  8
0
 10
 77.6803863219445 
 20
-.720861970701466 
 11
 75.0146988261213 
 21
-.705844012978519 
  0
LINE
  8
0
 10
 75.0146988261213 
 20
-.705844012978519 
 11
 75.0146988261213 
 21
-.705844012978519 
  0
LINE
  8
0
 10
 75.0146988261213 
 20
-.705844012978519 
 11
 75.0146988261213 
 21
-.705844012978519 
  0
LINE
  8
0
 10
 75.0146988261213 
 20
-.705844012978519 
 11
 72.3640292880212 
 21
-.687071565824835 
  0
LINE
  8
0
 10
 72.3640292880212 
 20
-.687071565824835 
 11
 69.713359749921 
 21
-.668299118671151 
  0
LINE
  8
0
 10
 69.713359749921 
 20
-.668299118671151 
 11
 67.0476722540978 
 21
-.649526671517467 
  0
LINE
  8
0
 10
 67.0476722540978 
 20
-.649526671517467 
 11
 64.3594578216903 
 21
-.63450871379452 
  0
LINE
  8
0
 10
 64.3594578216903 
 20
-.63450871379452 
 11
 61.6412074738368 
 21
-.611981777210099 
  0
LINE
  8
0
 10
 61.6412074738368 
 20
-.611981777210099 
 11
 58.8779032528146 
 21
-.589454840625678 
  0
LINE
  8
0
 10
 58.8779032528146 
 20
-.589454840625678 
 11
 56.062036179762 
 21
-.566927904041257 
  0
LINE
  8
0
 10
 56.062036179762 
 20
-.566927904041257 
 11
 53.1823427863868 
 21
-.5406464780261 
  0
LINE
  8
0
 10
 53.1823427863868 
 20
-.5406464780261 
 11
 50.227559604397 
 21
-.514365052010942 
  0
LINE
  8
0
 10
 50.227559604397 
 20
-.514365052010942 
 11
 47.1864231655001 
 21
-.484329136565048 
  0
LINE
  8
0
 10
 47.1864231655001 
 20
-.484329136565048 
 11
 47.1864231655001 
 21
-.484329136565048 
  0
LINE
  8
0
 10
 47.1864231655001 
 20
-.484329136565048 
 11
 47.1864231655001 
 21
-.484329136565048 
  0
LINE
  8
0
 10
 47.1864231655001 
 20
-.484329136565048 
 11
 44.0551789802657 
 21
-.450538731688416 
  0
LINE
  8
0
 10
 44.0551789802657 
 20
-.450538731688416 
 11
 40.8788809218623 
 21
-.416748326811785 
  0
LINE
  8
0
 10
 40.8788809218623 
 20
-.416748326811785 
 11
 37.702582863459 
 21
-.379203432504417 
  0
LINE
  8
0
 10
 37.702582863459 
 20
-.379203432504417 
 11
 34.5675841887938 
 21
-.345413027627786 
  0
LINE
  8
0
 10
 34.5675841887938 
 20
-.345413027627786 
 11
 31.5264477498969 
 21
-.311622622751155 
  0
LINE
  8
0
 10
 31.5264477498969 
 20
-.311622622751155 
 11
 28.6242274199374 
 21
-.277832217874523 
  0
LINE
  8
0
 10
 28.6242274199374 
 20
-.277832217874523 
 11
 25.905977072084 
 21
-.240287323567155 
  0
LINE
  8
0
 10
 25.905977072084 
 20
-.240287323567155 
 11
 23.4242595583669 
 21
-.210251408121261 
  0
LINE
  8
0
 10
 23.4242595583669 
 20
-.210251408121261 
 11
 21.2203742625244 
 21
-.180215492675367 
  0
LINE
  8
0
 10
 21.2203742625244 
 20
-.180215492675367 
 11
 19.3468840365868 
 21
-.153934066660209 
  0
LINE
  8
0
 10
 19.3468840365868 
 20
-.153934066660209 
 11
 19.3468840365868 
 21
-.153934066660209 
  0
LINE
  8
0
 10
 19.3468840365868 
 20
-.153934066660209 
 11
 19.3468840365868 
 21
-.153934066660209 
  0
LINE
  8
0
 10
 19.3468840365868 
 20
-.153934066660209 
 11
 17.8263158171383 
 21
-.131407130075788 
  0
LINE
  8
0
 10
 17.8263158171383 
 20
-.131407130075788 
 11
 16.6361426675948 
 21
-.116389172352841 
  0
LINE
  8
0
 10
 16.6361426675948 
 20
-.116389172352841 
 11
 15.7238017359257 
 21
-9.76167251991569E-02 
  0
LINE
  8
0
 10
 15.7238017359257 
 20
-9.76167251991569E-02 
 11
 15.0367301701009 
 21
-9.01077463376833E-02 
  0
LINE
  8
0
 10
 15.0367301701009 
 20
-9.01077463376833E-02 
 11
 14.5373830758129 
 21
-7.88442780454729E-02 
  0
LINE
  8
0
 10
 14.5373830758129 
 20
-7.88442780454729E-02 
 11
 14.1731976010314 
 21
-7.13352991839993E-02 
  0
LINE
  8
0
 10
 14.1731976010314 
 20
-7.13352991839993E-02 
 11
 13.8953653831569 
 21
-6.38263203225257E-02 
  0
LINE
  8
0
 10
 13.8953653831569 
 20
-6.38263203225257E-02 
 11
 13.6550780595898 
 21
-5.63173414610521E-02 
  0
LINE
  8
0
 10
 13.6550780595898 
 20
-5.63173414610521E-02 
 11
 13.4035272677304 
 21
-4.88083625995784E-02 
  0
LINE
  8
0
 10
 13.4035272677304 
 20
-4.88083625995784E-02 
 11
 13.0994136238407 
 21
-4.50538731688416E-02 
  0
LINE
  8
0
 10
 13.0994136238407 
 20
-4.50538731688416E-02 
 11
 13.0994136238407 
 21
-4.50538731688416E-02 
  0
LINE
  8
0
 10
 13.0994136238407 
 20
-4.50538731688416E-02 
 11
 13.0994136238407 
 21
-4.50538731688416E-02 
  0
LINE
  8
0
 10
 13.0994136238407 
 20
-4.50538731688416E-02 
 11
 12.7014377441826 
 21
-.037544894307368 
  0
LINE
  8
0
 10
 12.7014377441826 
 20
-.037544894307368 
 11
 12.2095996287561 
 21
-3.00359154458944E-02 
  0
LINE
  8
0
 10
 12.2095996287561 
 20
-3.00359154458944E-02 
 11
 11.6389172352841 
 21
-2.25269365844208E-02 
  0
LINE
  8
0
 10
 11.6389172352841 
 20
-2.25269365844208E-02 
 11
 11.0044085214896 
 21
-1.50179577229472E-02 
  0
LINE
  8
0
 10
 11.0044085214896 
 20
-1.50179577229472E-02 
 11
 10.313582466234 
 21
-7.50897886147361E-03 
  0
LINE
  8
0
 10
 10.313582466234 
 20
-7.50897886147361E-03 
 11
 9.59272049553253 
 21
 0 
  0
LINE
  8
0
 10
 9.59272049553253 
 20
 0 
 11
 8.83806811995444 
 21
 7.50897886147361E-03 
  0
LINE
  8
0
 10
 8.83806811995444 
 20
 7.50897886147361E-03 
 11
 8.07215227608413 
 21
 1.12634682922104E-02 
  0
LINE
  8
0
 10
 8.07215227608413 
 20
 1.12634682922104E-02 
 11
 7.30623643221382 
 21
 1.50179577229472E-02 
  0
LINE
  8
0
 10
 7.30623643221382 
 20
 1.50179577229472E-02 
 11
 6.55158405663572 
 21
 .018772447153684 
  0
LINE
  8
0
 10
 6.55158405663572 
 20
 .018772447153684 
 11
 6.55158405663572 
 21
 .018772447153684 
  0
LINE
  8
0
 10
 6.55158405663572 
 20
 .018772447153684 
 11
 6.55158405663572 
 21
 .018772447153684 
  0
LINE
  8
0
 10
 6.55158405663572 
 20
 .018772447153684 
 11
 5.82321310707278 
 21
 2.25269365844208E-02 
  0
LINE
  8
0
 10
 5.82321310707278 
 20
 2.25269365844208E-02 
 11
 5.11736909409426 
 21
 2.25269365844208E-02 
  0
LINE
  8
0
 10
 5.11736909409426 
 20
 2.25269365844208E-02 
 11
 4.43029752826943 
 21
 2.25269365844208E-02 
  0
LINE
  8
0
 10
 4.43029752826943 
 20
 2.25269365844208E-02 
 11
 3.76575289902901 
 21
 .018772447153684 
  0
LINE
  8
0
 10
 3.76575289902901 
 20
 .018772447153684 
 11
 3.11247173808081 
 21
 .018772447153684 
  0
LINE
  8
0
 10
 3.11247173808081 
 20
 .018772447153684 
 11
 2.47420853485555 
 21
 1.50179577229472E-02 
  0
LINE
  8
0
 10
 2.47420853485555 
 20
 1.50179577229472E-02 
 11
 1.84720879992251 
 21
 1.12634682922104E-02 
  0
LINE
  8
0
 10
 1.84720879992251 
 20
 1.12634682922104E-02 
 11
 1.23147253328167 
 21
 7.50897886147361E-03 
  0
LINE
  8
0
 10
 1.23147253328167 
 20
 7.50897886147361E-03 
 11
 .615736266640836 
 21
 3.7544894307368E-03 
  0
LINE
  8
0
 10
 .615736266640836 
 20
 3.7544894307368E-03 
 11
 0 
 21
-3.7544894307368E-03 
  0
LINE
  8
0
 10
 0 
 20
-3.7544894307368E-03 
 11
 0 
 21
 0 
  0
ENDSEC
  0
EOF
