  0
SECTION
  2
ENTITIES
  0
LINE
  8
0
 10
 0 
 20
 0 
 11
 2.12879550722777 
 21
 1.83969982106103 
  0
LINE
  8
0
 10
 15.2394725993607 
 20
-.784688291023992 
 11
 16.6398971570255 
 21
 1.36287966335746 
  0
LINE
  8
0
 10
 30.4489092832755 
 20
-1.66699330724714 
 11
 31.1434898279618 
 21
 .979921741422306 
  0
LINE
  8
0
 10
 45.320441918424 
 20
-2.45543608770187 
 11
 45.3279508972854 
 21
 .735879928424414 
  0
LINE
  8
0
 10
 73.2012804310755 
 20
-3.34149559335576 
 11
 73.1900169627833 
 21
 .724616460132203 
  0
LINE
  8
0
 10
 101.040819559989 
 20
-3.54423802261554 
 11
 101.029556091697 
 21
 1.11132887149809 
  0
LINE
  8
0
 10
 128.572490555582 
 20
-3.43160333969344 
 11
 128.557472597859 
 21
 1.46425087798735 
  0
LINE
  8
0
 10
 158.334328273033 
 20
-3.27766927303323 
 11
 158.32306480474 
 21
 1.47175985684883 
  0
LINE
  8
0
 10
 188.107429458775 
 20
-2.92850175597471 
 11
 188.092411501052 
 21
 1.25775395929683 
  0
LINE
  8
0
 10
 217.598943937213 
 20
-2.13630448608924 
 11
 217.58392597949 
 21
 1.09255642434441 
  0
LINE
  8
0
 10
 232.883470409742 
 20
-1.48677781457177 
 11
 232.785853684543 
 21
 1.10006540320588 
  0
LINE
  8
0
 10
 248.183014839995 
 20
-.717107481270729 
 11
 248.00655383675 
 21
 1.1526282552362 
  0
LINE
  8
0
 10
 0 
 20
 0 
 11
 2.12879550722777 
 21
 1.83969982106103 
  0
LINE
  8
0
 10
 2.12879550722777 
 20
 1.83969982106103 
 11
 2.12879550722777 
 21
 1.83969982106103 
  0
LINE
  8
0
 10
 2.12879550722777 
 20
 1.83969982106103 
 11
 3.54799251204628 
 21
 1.79089145846146 
  0
LINE
  8
0
 10
 3.54799251204628 
 20
 1.79089145846146 
 11
 4.97469849572627 
 21
 1.74208309586188 
  0
LINE
  8
0
 10
 4.97469849572627 
 20
 1.74208309586188 
 11
 6.40140447940625 
 21
 1.6932747332623 
  0
LINE
  8
0
 10
 6.40140447940625 
 20
 1.6932747332623 
 11
 7.83561944194771 
 21
 1.64071188123198 
  0
LINE
  8
0
 10
 7.83561944194771 
 20
 1.64071188123198 
 11
 9.27734338335064 
 21
 1.59190351863241 
  0
LINE
  8
0
 10
 9.27734338335064 
 20
 1.59190351863241 
 11
 10.7265763036151 
 21
 1.54684964546356 
  0
LINE
  8
0
 10
 10.7265763036151 
 20
 1.54684964546356 
 11
 12.1833182027409 
 21
 1.49804128286399 
  0
LINE
  8
0
 10
 12.1833182027409 
 20
 1.49804128286399 
 11
 13.6550780595898 
 21
 1.44923292026441 
  0
LINE
  8
0
 10
 13.6550780595898 
 20
 1.44923292026441 
 11
 15.1418558741615 
 21
 1.4079335365263 
  0
LINE
  8
0
 10
 15.1418558741615 
 20
 1.4079335365263 
 11
 16.6398971570255 
 21
 1.36287966335746 
  0
LINE
  8
0
 10
 16.6398971570255 
 20
 1.36287966335746 
 11
 16.6398971570255 
 21
 1.36287966335746 
  0
LINE
  8
0
 10
 16.6398971570255 
 20
 1.36287966335746 
 11
 16.6398971570255 
 21
 1.36287966335746 
  0
LINE
  8
0
 10
 16.6398971570255 
 20
 1.36287966335746 
 11
 18.1529563976125 
 21
 1.32158027961936 
  0
LINE
  8
0
 10
 18.1529563976125 
 20
 1.32158027961936 
 11
 19.6772791064916 
 21
 1.27652640645051 
  0
LINE
  8
0
 10
 19.6772791064916 
 20
 1.27652640645051 
 11
 21.2016018153707 
 21
 1.23522702271241 
  0
LINE
  8
0
 10
 21.2016018153707 
 20
 1.23522702271241 
 11
 22.7146610559577 
 21
 1.1939276389743 
  0
LINE
  8
0
 10
 22.7146610559577 
 20
 1.1939276389743 
 11
 24.2127023388217 
 21
 1.15638274466694 
  0
LINE
  8
0
 10
 24.2127023388217 
 20
 1.15638274466694 
 11
 25.6844621956705 
 21
 1.11883785035957 
  0
LINE
  8
0
 10
 25.6844621956705 
 20
 1.11883785035957 
 11
 27.1224316476427 
 21
 1.08504744548294 
  0
LINE
  8
0
 10
 27.1224316476427 
 20
 1.08504744548294 
 11
 28.515347226446 
 21
 1.04750255117557 
  0
LINE
  8
0
 10
 28.515347226446 
 20
 1.04750255117557 
 11
 29.8556999532191 
 21
 1.01746663572967 
  0
LINE
  8
0
 10
 29.8556999532191 
 20
 1.01746663572967 
 11
 31.1397353385311 
 21
 .983676230853043 
  0
LINE
  8
0
 10
 31.1397353385311 
 20
 .983676230853043 
 11
 31.1397353385311 
 21
 .983676230853043 
  0
LINE
  8
0
 10
 31.1397353385311 
 20
 .983676230853043 
 11
 31.1397353385311 
 21
 .983676230853043 
  0
LINE
  8
0
 10
 31.1397353385311 
 20
 .983676230853043 
 11
 32.3636988929513 
 21
 .949885825976411 
  0
LINE
  8
0
 10
 32.3636988929513 
 20
 .949885825976411 
 11
 33.5501175530641 
 21
 .923604399961254 
  0
LINE
  8
0
 10
 33.5501175530641 
 20
 .923604399961254 
 11
 34.7290272343154 
 21
 .893568484515359 
  0
LINE
  8
0
 10
 34.7290272343154 
 20
 .893568484515359 
 11
 35.9267093627205 
 21
 .867287058500202 
  0
LINE
  8
0
 10
 35.9267093627205 
 20
 .867287058500202 
 11
 37.1807088325866 
 21
 .841005632485044 
  0
LINE
  8
0
 10
 37.1807088325866 
 20
 .841005632485044 
 11
 38.5210615593596 
 21
 .818478695900623 
  0
LINE
  8
0
 10
 38.5210615593596 
 20
 .818478695900623 
 11
 39.9740489690548 
 21
 .795951759316202 
  0
LINE
  8
0
 10
 39.9740489690548 
 20
 .795951759316202 
 11
 41.5697069771179 
 21
 .773424822731782 
  0
LINE
  8
0
 10
 41.5697069771179 
 20
 .773424822731782 
 11
 43.3455804778564 
 21
 .758406865008834 
  0
LINE
  8
0
 10
 43.3455804778564 
 20
 .758406865008834 
 11
 45.3279508972854 
 21
 .735879928424414 
  0
LINE
  8
0
 10
 45.3279508972854 
 20
 .735879928424414 
 11
 45.3279508972854 
 21
 .735879928424414 
  0
LINE
  8
0
 10
 45.3279508972854 
 20
 .735879928424414 
 11
 45.3279508972854 
 21
 .735879928424414 
  0
LINE
  8
0
 10
 45.3279508972854 
 20
 .735879928424414 
 11
 47.5355906825587 
 21
 .720861970701466 
  0
LINE
  8
0
 10
 47.5355906825587 
 20
 .720861970701466 
 11
 49.9572363653839 
 21
 .705844012978519 
  0
LINE
  8
0
 10
 49.9572363653839 
 20
 .705844012978519 
 11
 52.551588562023 
 21
 .698335034117046 
  0
LINE
  8
0
 10
 52.551588562023 
 20
 .698335034117046 
 11
 55.2923658464609 
 21
 .690826055255572 
  0
LINE
  8
0
 10
 55.2923658464609 
 20
 .690826055255572 
 11
 58.1495323032516 
 21
 .683317076394098 
  0
LINE
  8
0
 10
 58.1495323032516 
 20
 .683317076394098 
 11
 61.1005609958107 
 21
 .683317076394098 
  0
LINE
  8
0
 10
 61.1005609958107 
 20
 .683317076394098 
 11
 64.1079070298309 
 21
 .687071565824835 
  0
LINE
  8
0
 10
 64.1079070298309 
 20
 .687071565824835 
 11
 67.145288979297 
 21
 .694580544686309 
  0
LINE
  8
0
 10
 67.145288979297 
 20
 .694580544686309 
 11
 70.1826709287631 
 21
 .709598502409256 
  0
LINE
  8
0
 10
 70.1826709287631 
 20
 .709598502409256 
 11
 73.1900169627833 
 21
 .72837094956294 
  0
LINE
  8
0
 10
 73.1900169627833 
 20
 .72837094956294 
 11
 73.1900169627833 
 21
 .72837094956294 
  0
LINE
  8
0
 10
 73.1900169627833 
 20
 .72837094956294 
 11
 73.1900169627833 
 21
 .72837094956294 
  0
LINE
  8
0
 10
 73.1900169627833 
 20
 .72837094956294 
 11
 76.1410456553424 
 21
 .750897886147361 
  0
LINE
  8
0
 10
 76.1410456553424 
 20
 .750897886147361 
 11
 79.0395114958712 
 21
 .777179312162518 
  0
LINE
  8
0
 10
 79.0395114958712 
 20
 .777179312162518 
 11
 81.8929234632312 
 21
 .814724206469886 
  0
LINE
  8
0
 10
 81.8929234632312 
 20
 .814724206469886 
 11
 84.705036046853 
 21
 .844760121915781 
  0
LINE
  8
0
 10
 84.705036046853 
 20
 .844760121915781 
 11
 87.4796037361675 
 21
 .886059505653886 
  0
LINE
  8
0
 10
 87.4796037361675 
 20
 .886059505653886 
 11
 90.2241355100361 
 21
 .931113378822727 
  0
LINE
  8
0
 10
 90.2241355100361 
 20
 .931113378822727 
 11
 92.9461403473203 
 21
 .976167251991569 
  0
LINE
  8
0
 10
 92.9461403473203 
 20
 .976167251991569 
 11
 95.6456182480201 
 21
 1.02122112516041 
  0
LINE
  8
0
 10
 95.6456182480201 
 20
 1.02122112516041 
 11
 98.3413416592891 
 21
 1.06627499832925 
  0
LINE
  8
0
 10
 98.3413416592891 
 20
 1.06627499832925 
 11
 101.029556091697 
 21
 1.11132887149809 
  0
LINE
  8
0
 10
 101.029556091697 
 20
 1.11132887149809 
 11
 101.029556091697 
 21
 1.11132887149809 
  0
LINE
  8
0
 10
 101.029556091697 
 20
 1.11132887149809 
 11
 101.029556091697 
 21
 1.11132887149809 
  0
LINE
  8
0
 10
 101.029556091697 
 20
 1.11132887149809 
 11
 103.710261545243 
 21
 1.15638274466694 
  0
LINE
  8
0
 10
 103.710261545243 
 20
 1.15638274466694 
 11
 106.402230467081 
 21
 1.20143661783578 
  0
LINE
  8
0
 10
 106.402230467081 
 20
 1.20143661783578 
 11
 109.101708367781 
 21
 1.24273600157388 
  0
LINE
  8
0
 10
 109.101708367781 
 20
 1.24273600157388 
 11
 111.812449736773 
 21
 1.28028089588125 
  0
LINE
  8
0
 10
 111.812449736773 
 20
 1.28028089588125 
 11
 114.541963552918 
 21
 1.32158027961936 
  0
LINE
  8
0
 10
 114.541963552918 
 20
 1.32158027961936 
 11
 117.286495326787 
 21
 1.35537068449599 
  0
LINE
  8
0
 10
 117.286495326787 
 20
 1.35537068449599 
 11
 120.061063016102 
 21
 1.38916108937262 
  0
LINE
  8
0
 10
 120.061063016102 
 20
 1.38916108937262 
 11
 122.861912131431 
 21
 1.41919700481851 
  0
LINE
  8
0
 10
 122.861912131431 
 20
 1.41919700481851 
 11
 125.692797162207 
 21
 1.44547843083367 
  0
LINE
  8
0
 10
 125.692797162207 
 20
 1.44547843083367 
 11
 128.56122708729 
 21
 1.46800536741809 
  0
LINE
  8
0
 10
 128.56122708729 
 20
 1.46800536741809 
 11
 128.56122708729 
 21
 1.46800536741809 
  0
LINE
  8
0
 10
 128.56122708729 
 20
 1.46800536741809 
 11
 128.56122708729 
 21
 1.46800536741809 
  0
LINE
  8
0
 10
 128.56122708729 
 20
 1.46800536741809 
 11
 131.463447417249 
 21
 1.48677781457177 
  0
LINE
  8
0
 10
 131.463447417249 
 20
 1.48677781457177 
 11
 134.403212641516 
 21
 1.49428679343325 
  0
LINE
  8
0
 10
 134.403212641516 
 20
 1.49428679343325 
 11
 137.369259291798 
 21
 1.5093047511562 
  0
LINE
  8
0
 10
 137.369259291798 
 20
 1.5093047511562 
 11
 140.354078389234 
 21
 1.51305924058693 
  0
LINE
  8
0
 10
 140.354078389234 
 20
 1.51305924058693 
 11
 143.353915444393 
 21
 1.51681373001767 
  0
LINE
  8
0
 10
 143.353915444393 
 20
 1.51681373001767 
 11
 146.357506988982 
 21
 1.51305924058693 
  0
LINE
  8
0
 10
 146.357506988982 
 20
 1.51305924058693 
 11
 149.364853023002 
 21
 1.50555026172546 
  0
LINE
  8
0
 10
 149.364853023002 
 20
 1.50555026172546 
 11
 152.364690078161 
 21
 1.49804128286399 
  0
LINE
  8
0
 10
 152.364690078161 
 20
 1.49804128286399 
 11
 155.357018154458 
 21
 1.49053230400251 
  0
LINE
  8
0
 10
 155.357018154458 
 20
 1.49053230400251 
 11
 158.32306480474 
 21
 1.47175985684883 
  0
LINE
  8
0
 10
 158.32306480474 
 20
 1.47175985684883 
 11
 158.32306480474 
 21
 1.47175985684883 
  0
LINE
  8
0
 10
 158.32306480474 
 20
 1.47175985684883 
 11
 158.32306480474 
 21
 1.47175985684883 
  0
LINE
  8
0
 10
 158.32306480474 
 20
 1.47175985684883 
 11
 161.270339007869 
 21
 1.46049638855662 
  0
LINE
  8
0
 10
 161.270339007869 
 20
 1.46049638855662 
 11
 164.198840763843 
 21
 1.44172394140293 
  0
LINE
  8
0
 10
 164.198840763843 
 20
 1.44172394140293 
 11
 167.116079051526 
 21
 1.42295149424925 
  0
LINE
  8
0
 10
 167.116079051526 
 20
 1.42295149424925 
 11
 170.037071828639 
 21
 1.40042455766483 
  0
LINE
  8
0
 10
 170.037071828639 
 20
 1.40042455766483 
 11
 172.965573584614 
 21
 1.37789762108041 
  0
LINE
  8
0
 10
 172.965573584614 
 20
 1.37789762108041 
 11
 175.920356766604 
 21
 1.35537068449599 
  0
LINE
  8
0
 10
 175.920356766604 
 20
 1.35537068449599 
 11
 178.901421374609 
 21
 1.32908925848083 
  0
LINE
  8
0
 10
 178.901421374609 
 20
 1.32908925848083 
 11
 181.91252189806 
 21
 1.30656232189641 
  0
LINE
  8
0
 10
 181.91252189806 
 20
 1.30656232189641 
 11
 184.976185273541 
 21
 1.28028089588125 
  0
LINE
  8
0
 10
 184.976185273541 
 20
 1.28028089588125 
 11
 188.092411501052 
 21
 1.26150844872757 
  0
LINE
  8
0
 10
 188.092411501052 
 20
 1.26150844872757 
 11
 188.092411501052 
 21
 1.26150844872757 
  0
LINE
  8
0
 10
 188.092411501052 
 20
 1.26150844872757 
 11
 188.092411501052 
 21
 1.26150844872757 
  0
LINE
  8
0
 10
 188.092411501052 
 20
 1.26150844872757 
 11
 191.268709559456 
 21
 1.23898151214315 
  0
LINE
  8
0
 10
 191.268709559456 
 20
 1.23898151214315 
 11
 194.475043533305 
 21
 1.21270008612799 
  0
LINE
  8
0
 10
 194.475043533305 
 20
 1.21270008612799 
 11
 197.681377507154 
 21
 1.1939276389743 
  0
LINE
  8
0
 10
 197.681377507154 
 20
 1.1939276389743 
 11
 200.865184544419 
 21
 1.17515519182062 
  0
LINE
  8
0
 10
 200.865184544419 
 20
 1.17515519182062 
 11
 203.981410771931 
 21
 1.15638274466694 
  0
LINE
  8
0
 10
 203.981410771931 
 20
 1.15638274466694 
 11
 207.011283742535 
 21
 1.14511927637473 
  0
LINE
  8
0
 10
 207.011283742535 
 20
 1.14511927637473 
 11
 209.917258561925 
 21
 1.13010131865178 
  0
LINE
  8
0
 10
 209.917258561925 
 20
 1.13010131865178 
 11
 212.669299314656 
 21
 1.11508336092883 
  0
LINE
  8
0
 10
 212.669299314656 
 20
 1.11508336092883 
 11
 215.233615595849 
 21
 1.10381989263662 
  0
LINE
  8
0
 10
 215.233615595849 
 20
 1.10381989263662 
 11
 217.58392597949 
 21
 1.09255642434441 
  0
LINE
  8
0
 10
 217.58392597949 
 20
 1.09255642434441 
 11
 217.58392597949 
 21
 1.09255642434441 
  0
LINE
  8
0
 10
 217.58392597949 
 20
 1.09255642434441 
 11
 217.58392597949 
 21
 1.09255642434441 
  0
LINE
  8
0
 10
 217.58392597949 
 20
 1.09255642434441 
 11
 219.697703528995 
 21
 1.08880193491367 
  0
LINE
  8
0
 10
 219.697703528995 
 20
 1.08880193491367 
 11
 221.597475180948 
 21
 1.08880193491367 
  0
LINE
  8
0
 10
 221.597475180948 
 20
 1.08880193491367 
 11
 223.309522361364 
 21
 1.08504744548294 
  0
LINE
  8
0
 10
 223.309522361364 
 20
 1.08504744548294 
 11
 224.87138996455 
 21
 1.08504744548294 
  0
LINE
  8
0
 10
 224.87138996455 
 20
 1.08504744548294 
 11
 226.309359416522 
 21
 1.0812929560522 
  0
LINE
  8
0
 10
 226.309359416522 
 20
 1.0812929560522 
 11
 227.660975611588 
 21
 1.08504744548294 
  0
LINE
  8
0
 10
 227.660975611588 
 20
 1.08504744548294 
 11
 228.952519975761 
 21
 1.08880193491367 
  0
LINE
  8
0
 10
 228.952519975761 
 20
 1.08880193491367 
 11
 230.214028424489 
 21
 1.09255642434441 
  0
LINE
  8
0
 10
 230.214028424489 
 20
 1.09255642434441 
 11
 231.483045852078 
 21
 1.10006540320588 
  0
LINE
  8
0
 10
 231.483045852078 
 20
 1.10006540320588 
 11
 232.785853684543 
 21
 1.10006540320588 
  0
LINE
  8
0
 10
 232.785853684543 
 20
 1.10006540320588 
 11
 232.785853684543 
 21
 1.10006540320588 
  0
LINE
  8
0
 10
 232.785853684543 
 20
 1.10006540320588 
 11
 232.785853684543 
 21
 1.10006540320588 
  0
LINE
  8
0
 10
 232.785853684543 
 20
 1.10006540320588 
 11
 234.152487837332 
 21
 1.10381989263662 
  0
LINE
  8
0
 10
 234.152487837332 
 20
 1.10381989263662 
 11
 235.579193821012 
 21
 1.10757438206736 
  0
LINE
  8
0
 10
 235.579193821012 
 20
 1.10757438206736 
 11
 237.04719918843 
 21
 1.11508336092883 
  0
LINE
  8
0
 10
 237.04719918843 
 20
 1.11508336092883 
 11
 238.564012918447 
 21
 1.11883785035957 
  0
LINE
  8
0
 10
 238.564012918447 
 20
 1.11883785035957 
 11
 240.110862563911 
 21
 1.12634682922104 
  0
LINE
  8
0
 10
 240.110862563911 
 20
 1.12634682922104 
 11
 241.676484656528 
 21
 1.13010131865178 
  0
LINE
  8
0
 10
 241.676484656528 
 20
 1.13010131865178 
 11
 243.260879196299 
 21
 1.13761029751325 
  0
LINE
  8
0
 10
 243.260879196299 
 20
 1.13761029751325 
 11
 244.852782714931 
 21
 1.14136478694399 
  0
LINE
  8
0
 10
 244.852782714931 
 20
 1.14136478694399 
 11
 246.433422765272 
 21
 1.14887376580546 
  0
LINE
  8
0
 10
 246.433422765272 
 20
 1.14887376580546 
 11
 248.00655383675 
 21
 1.1526282552362 
  0
LINE
  8
0
 10
 248.00655383675 
 20
 1.1526282552362 
 11
 248.00655383675 
 21
 1.1526282552362 
  0
LINE
  8
0
 10
 248.00655383675 
 20
 1.1526282552362 
 11
 248.00655383675 
 21
 1.1526282552362 
  0
LINE
  8
0
 10
 248.00655383675 
 20
 1.1526282552362 
 11
 249.557157971645 
 21
 1.16013723409767 
  0
LINE
  8
0
 10
 249.557157971645 
 20
 1.16013723409767 
 11
 251.096498638247 
 21
 1.16764621295915 
  0
LINE
  8
0
 10
 251.096498638247 
 20
 1.16764621295915 
 11
 252.613312368264 
 21
 1.17515519182062 
  0
LINE
  8
0
 10
 252.613312368264 
 20
 1.17515519182062 
 11
 254.115108140559 
 21
 1.18266417068209 
  0
LINE
  8
0
 10
 254.115108140559 
 20
 1.18266417068209 
 11
 255.601885955131 
 21
 1.19017314954357 
  0
LINE
  8
0
 10
 255.601885955131 
 20
 1.19017314954357 
 11
 257.081154790841 
 21
 1.19768212840504 
  0
LINE
  8
0
 10
 257.081154790841 
 20
 1.19768212840504 
 11
 258.55291464769 
 21
 1.20519110726651 
  0
LINE
  8
0
 10
 258.55291464769 
 20
 1.20519110726651 
 11
 260.017165525677 
 21
 1.21270008612799 
  0
LINE
  8
0
 10
 260.017165525677 
 20
 1.21270008612799 
 11
 261.477661914234 
 21
 1.22020906498946 
  0
LINE
  8
0
 10
 261.477661914234 
 20
 1.22020906498946 
 11
 262.93440381336 
 21
 1.22771804385094 
  0
LINE
  8
0
 10
 262.93440381336 
 20
 1.22771804385094 
 11
 262.93440381336 
 21
 1.22771804385094 
  0
LINE
  8
0
 10
 262.93440381336 
 20
 1.22771804385094 
 11
 263.197218073511 
 21
 9.01077463376833E-02 
  0
LINE
  8
0
 10
 263.197218073511 
 20
 9.01077463376833E-02 
 11
 263.197218073511 
 21
 9.01077463376833E-02 
  0
LINE
  8
0
 10
 263.197218073511 
 20
 9.01077463376833E-02 
 11
 261.729212706093 
 21
 1.12634682922104E-02 
  0
LINE
  8
0
 10
 261.729212706093 
 20
 1.12634682922104E-02 
 11
 260.261207338675 
 21
-7.13352991839993E-02 
  0
LINE
  8
0
 10
 260.261207338675 
 20
-7.13352991839993E-02 
 11
 258.789447481826 
 21
-.150179577229472 
  0
LINE
  8
0
 10
 258.789447481826 
 20
-.150179577229472 
 11
 257.310178646116 
 21
-.232778344705682 
  0
LINE
  8
0
 10
 257.310178646116 
 20
-.232778344705682 
 11
 255.823400831544 
 21
-.311622622751155 
  0
LINE
  8
0
 10
 255.823400831544 
 20
-.311622622751155 
 11
 254.32535954868 
 21
-.390466900796628 
  0
LINE
  8
0
 10
 254.32535954868 
 20
-.390466900796628 
 11
 252.816054797524 
 21
-.476820157703574 
  0
LINE
  8
0
 10
 252.816054797524 
 20
-.476820157703574 
 11
 251.287977599214 
 21
-.555664435749047 
  0
LINE
  8
0
 10
 251.287977599214 
 20
-.555664435749047 
 11
 249.748636932612 
 21
-.638263203225257 
  0
LINE
  8
0
 10
 249.748636932612 
 20
-.638263203225257 
 11
 248.183014839995 
 21
-.717107481270729 
  0
LINE
  8
0
 10
 248.183014839995 
 20
-.717107481270729 
 11
 248.183014839995 
 21
-.717107481270729 
  0
LINE
  8
0
 10
 248.183014839995 
 20
-.717107481270729 
 11
 248.183014839995 
 21
-.717107481270729 
  0
LINE
  8
0
 10
 248.183014839995 
 20
-.717107481270729 
 11
 246.609883768516 
 21
-.799706248746939 
  0
LINE
  8
0
 10
 246.609883768516 
 20
-.799706248746939 
 11
 245.014225760453 
 21
-.882305016223149 
  0
LINE
  8
0
 10
 245.014225760453 
 20
-.882305016223149 
 11
 243.41856775239 
 21
-.961149294268622 
  0
LINE
  8
0
 10
 243.41856775239 
 20
-.961149294268622 
 11
 241.826664233758 
 21
-1.04374806174483 
  0
LINE
  8
0
 10
 241.826664233758 
 20
-1.04374806174483 
 11
 240.249778672848 
 21
-1.11883785035957 
  0
LINE
  8
0
 10
 240.249778672848 
 20
-1.11883785035957 
 11
 238.695420048523 
 21
-1.19768212840504 
  0
LINE
  8
0
 10
 238.695420048523 
 20
-1.19768212840504 
 11
 237.171097339644 
 21
-1.27277191701978 
  0
LINE
  8
0
 10
 237.171097339644 
 20
-1.27277191701978 
 11
 235.691828503934 
 21
-1.34786170563451 
  0
LINE
  8
0
 10
 235.691828503934 
 20
-1.34786170563451 
 11
 234.257613541392 
 21
-1.41544251538778 
  0
LINE
  8
0
 10
 234.257613541392 
 20
-1.41544251538778 
 11
 232.883470409742 
 21
-1.48677781457177 
  0
LINE
  8
0
 10
 232.883470409742 
 20
-1.48677781457177 
 11
 232.883470409742 
 21
-1.48677781457177 
  0
LINE
  8
0
 10
 232.883470409742 
 20
-1.48677781457177 
 11
 232.883470409742 
 21
-1.48677781457177 
  0
LINE
  8
0
 10
 232.883470409742 
 20
-1.48677781457177 
 11
 231.569399108985 
 21
-1.5506041348943 
  0
LINE
  8
0
 10
 231.569399108985 
 20
-1.5506041348943 
 11
 230.289118213103 
 21
-1.61443045521683 
  0
LINE
  8
0
 10
 230.289118213103 
 20
-1.61443045521683 
 11
 229.020100785514 
 21
-1.67825677553935 
  0
LINE
  8
0
 10
 229.020100785514 
 20
-1.67825677553935 
 11
 227.717292953049 
 21
-1.73832860643114 
  0
LINE
  8
0
 10
 227.717292953049 
 20
-1.73832860643114 
 11
 226.358167779122 
 21
-1.79840043732293 
  0
LINE
  8
0
 10
 226.358167779122 
 20
-1.79840043732293 
 11
 224.912689348288 
 21
-1.86222675764546 
  0
LINE
  8
0
 10
 224.912689348288 
 20
-1.86222675764546 
 11
 223.34331276624 
 21
-1.92605307796798 
  0
LINE
  8
0
 10
 223.34331276624 
 20
-1.92605307796798 
 11
 221.623756606963 
 21
-1.98987939829051 
  0
LINE
  8
0
 10
 221.623756606963 
 20
-1.98987939829051 
 11
 219.716475976149 
 21
-2.06121469747451 
  0
LINE
  8
0
 10
 219.716475976149 
 20
-2.06121469747451 
 11
 217.598943937213 
 21
-2.13630448608924 
  0
LINE
  8
0
 10
 217.598943937213 
 20
-2.13630448608924 
 11
 217.598943937213 
 21
-2.13630448608924 
  0
LINE
  8
0
 10
 217.598943937213 
 20
-2.13630448608924 
 11
 217.598943937213 
 21
-2.13630448608924 
  0
LINE
  8
0
 10
 217.598943937213 
 20
-2.13630448608924 
 11
 215.244879064141 
 21
-2.21514876413471 
  0
LINE
  8
0
 10
 215.244879064141 
 20
-2.21514876413471 
 11
 212.676808293517 
 21
-2.29774753161092 
  0
LINE
  8
0
 10
 212.676808293517 
 20
-2.29774753161092 
 11
 209.921013051356 
 21
-2.38034629908713 
  0
LINE
  8
0
 10
 209.921013051356 
 20
-2.38034629908713 
 11
 207.018792721397 
 21
-2.46294506656334 
  0
LINE
  8
0
 10
 207.018792721397 
 20
-2.46294506656334 
 11
 203.988919750792 
 21
-2.54929832347029 
  0
LINE
  8
0
 10
 203.988919750792 
 20
-2.54929832347029 
 11
 200.872693523281 
 21
-2.63565158037724 
  0
LINE
  8
0
 10
 200.872693523281 
 20
-2.63565158037724 
 11
 197.692640975446 
 21
-2.71449585842271 
  0
LINE
  8
0
 10
 197.692640975446 
 20
-2.71449585842271 
 11
 194.482552512166 
 21
-2.79334013646818 
  0
LINE
  8
0
 10
 194.482552512166 
 20
-2.79334013646818 
 11
 191.279973027748 
 21
-2.86467543565218 
  0
LINE
  8
0
 10
 191.279973027748 
 20
-2.86467543565218 
 11
 188.107429458775 
 21
-2.92850175597471 
  0
LINE
  8
0
 10
 188.107429458775 
 20
-2.92850175597471 
 11
 188.107429458775 
 21
-2.92850175597471 
  0
LINE
  8
0
 10
 188.107429458775 
 20
-2.92850175597471 
 11
 188.107429458775 
 21
-2.92850175597471 
  0
LINE
  8
0
 10
 188.107429458775 
 20
-2.92850175597471 
 11
 184.991203231264 
 21
-2.9885735868665 
  0
LINE
  8
0
 10
 184.991203231264 
 20
-2.9885735868665 
 11
 181.927539855783 
 21
-3.04113643889681 
  0
LINE
  8
0
 10
 181.927539855783 
 20
-3.04113643889681 
 11
 178.912684842901 
 21
-3.08619031206565 
  0
LINE
  8
0
 10
 178.912684842901 
 20
-3.08619031206565 
 11
 175.935374724327 
 21
-3.12373520637302 
  0
LINE
  8
0
 10
 175.935374724327 
 20
-3.12373520637302 
 11
 172.984346031768 
 21
-3.15752561124965 
  0
LINE
  8
0
 10
 172.984346031768 
 20
-3.15752561124965 
 11
 170.052089786362 
 21
-3.18756152669555 
  0
LINE
  8
0
 10
 170.052089786362 
 20
-3.18756152669555 
 11
 167.127342519818 
 21
-3.2138429527107 
  0
LINE
  8
0
 10
 167.127342519818 
 20
-3.2138429527107 
 11
 164.210104232136 
 21
-3.23636988929512 
  0
LINE
  8
0
 10
 164.210104232136 
 20
-3.23636988929512 
 11
 161.281602476161 
 21
-3.25889682587955 
  0
LINE
  8
0
 10
 161.281602476161 
 20
-3.25889682587955 
 11
 158.334328273033 
 21
-3.27766927303323 
  0
LINE
  8
0
 10
 158.334328273033 
 20
-3.27766927303323 
 11
 158.334328273033 
 21
-3.27766927303323 
  0
LINE
  8
0
 10
 158.334328273033 
 20
-3.27766927303323 
 11
 158.334328273033 
 21
-3.27766927303323 
  0
LINE
  8
0
 10
 158.334328273033 
 20
-3.27766927303323 
 11
 155.36828162275 
 21
-3.29644172018691 
  0
LINE
  8
0
 10
 155.36828162275 
 20
-3.29644172018691 
 11
 152.379708035884 
 21
-3.31145967790986 
  0
LINE
  8
0
 10
 152.379708035884 
 20
-3.31145967790986 
 11
 149.376116491295 
 21
-3.32647763563281 
  0
LINE
  8
0
 10
 149.376116491295 
 20
-3.32647763563281 
 11
 146.372524946705 
 21
-3.34525008278649 
  0
LINE
  8
0
 10
 146.372524946705 
 20
-3.34525008278649 
 11
 143.365178912685 
 21
-3.36026804050944 
  0
LINE
  8
0
 10
 143.365178912685 
 20
-3.36026804050944 
 11
 140.365341857526 
 21
-3.37528599823239 
  0
LINE
  8
0
 10
 140.365341857526 
 20
-3.37528599823239 
 11
 137.37676827066 
 21
-3.3865494665246 
  0
LINE
  8
0
 10
 137.37676827066 
 20
-3.3865494665246 
 11
 134.414476109808 
 21
-3.40532191367828 
  0
LINE
  8
0
 10
 134.414476109808 
 20
-3.40532191367828 
 11
 131.478465374972 
 21
-3.41658538197049 
  0
LINE
  8
0
 10
 131.478465374972 
 20
-3.41658538197049 
 11
 128.572490555582 
 21
-3.43160333969344 
  0
LINE
  8
0
 10
 128.572490555582 
 20
-3.43160333969344 
 11
 128.572490555582 
 21
-3.43160333969344 
  0
LINE
  8
0
 10
 128.572490555582 
 20
-3.43160333969344 
 11
 128.572490555582 
 21
-3.43160333969344 
  0
LINE
  8
0
 10
 128.572490555582 
 20
-3.43160333969344 
 11
 125.704060630499 
 21
-3.44286680798565 
  0
LINE
  8
0
 10
 125.704060630499 
 20
-3.44286680798565 
 11
 122.873175599723 
 21
-3.4578847657086 
  0
LINE
  8
0
 10
 122.873175599723 
 20
-3.4578847657086 
 11
 120.076080973824 
 21
-3.47290272343154 
  0
LINE
  8
0
 10
 120.076080973824 
 20
-3.47290272343154 
 11
 117.305267773941 
 21
-3.48416619172375 
  0
LINE
  8
0
 10
 117.305267773941 
 20
-3.48416619172375 
 11
 114.556981510641 
 21
-3.4991841494467 
  0
LINE
  8
0
 10
 114.556981510641 
 20
-3.4991841494467 
 11
 111.827467694496 
 21
-3.50669312830818 
  0
LINE
  8
0
 10
 111.827467694496 
 20
-3.50669312830818 
 11
 109.120480814935 
 21
-3.51795659660039 
  0
LINE
  8
0
 10
 109.120480814935 
 20
-3.51795659660039 
 11
 106.417248424804 
 21
-3.5292200648926 
  0
LINE
  8
0
 10
 106.417248424804 
 20
-3.5292200648926 
 11
 103.725279502966 
 21
-3.54048353318481 
  0
LINE
  8
0
 10
 103.725279502966 
 20
-3.54048353318481 
 11
 101.040819559989 
 21
-3.54423802261554 
  0
LINE
  8
0
 10
 101.040819559989 
 20
-3.54423802261554 
 11
 101.040819559989 
 21
-3.54423802261554 
  0
LINE
  8
0
 10
 101.040819559989 
 20
-3.54423802261554 
 11
 101.040819559989 
 21
-3.54423802261554 
  0
LINE
  8
0
 10
 101.040819559989 
 20
-3.54423802261554 
 11
 98.3488506381506 
 21
-3.54799251204628 
  0
LINE
  8
0
 10
 98.3488506381506 
 20
-3.54799251204628 
 11
 95.6568817163123 
 21
-3.54799251204628 
  0
LINE
  8
0
 10
 95.6568817163123 
 20
-3.54799251204628 
 11
 92.949894836751 
 21
-3.54799251204628 
  0
LINE
  8
0
 10
 92.949894836751 
 20
-3.54799251204628 
 11
 90.2241355100361 
 21
-3.54048353318481 
  0
LINE
  8
0
 10
 90.2241355100361 
 20
-3.54048353318481 
 11
 87.4758492467368 
 21
-3.52546557546186 
  0
LINE
  8
0
 10
 87.4758492467368 
 20
-3.52546557546186 
 11
 84.7012815574223 
 21
-3.50669312830818 
  0
LINE
  8
0
 10
 84.7012815574223 
 20
-3.50669312830818 
 11
 81.8929234632312 
 21
-3.47665721286228 
  0
LINE
  8
0
 10
 81.8929234632312 
 20
-3.47665721286228 
 11
 79.0432659853019 
 21
-3.44286680798565 
  0
LINE
  8
0
 10
 79.0432659853019 
 20
-3.44286680798565 
 11
 76.1448001447731 
 21
-3.39781293481681 
  0
LINE
  8
0
 10
 76.1448001447731 
 20
-3.39781293481681 
 11
 73.2012804310755 
 21
-3.34149559335576 
  0
LINE
  8
0
 10
 73.2012804310755 
 20
-3.34149559335576 
 11
 73.2012804310755 
 21
-3.34149559335576 
  0
LINE
  8
0
 10
 73.2012804310755 
 20
-3.34149559335576 
 11
 73.2012804310755 
 21
-3.34149559335576 
  0
LINE
  8
0
 10
 73.2012804310755 
 20
-3.34149559335576 
 11
 70.197688886486 
 21
-3.27766927303323 
  0
LINE
  8
0
 10
 70.197688886486 
 20
-3.27766927303323 
 11
 67.1753248947429 
 21
-3.20257948441849 
  0
LINE
  8
0
 10
 67.1753248947429 
 20
-3.20257948441849 
 11
 64.1454519241383 
 21
-3.11998071694228 
  0
LINE
  8
0
 10
 64.1454519241383 
 20
-3.11998071694228 
 11
 61.1493693584103 
 21
-3.0298729706046 
  0
LINE
  8
0
 10
 61.1493693584103 
 20
-3.0298729706046 
 11
 58.2058496447127 
 21
-2.93601073483618 
  0
LINE
  8
0
 10
 58.2058496447127 
 20
-2.93601073483618 
 11
 55.3449286984912 
 21
-2.84214849906776 
  0
LINE
  8
0
 10
 55.3449286984912 
 20
-2.84214849906776 
 11
 52.5966424351919 
 21
-2.74077728443787 
  0
LINE
  8
0
 10
 52.5966424351919 
 20
-2.74077728443787 
 11
 49.9947812596913 
 21
-2.64316055923871 
  0
LINE
  8
0
 10
 49.9947812596913 
 20
-2.64316055923871 
 11
 47.5581176191431 
 21
-2.54554383403955 
  0
LINE
  8
0
 10
 47.5581176191431 
 20
-2.54554383403955 
 11
 45.320441918424 
 21
-2.45543608770187 
  0
LINE
  8
0
 10
 45.320441918424 
 20
-2.45543608770187 
 11
 45.320441918424 
 21
-2.45543608770187 
  0
LINE
  8
0
 10
 45.320441918424 
 20
-2.45543608770187 
 11
 45.320441918424 
 21
-2.45543608770187 
  0
LINE
  8
0
 10
 45.320441918424 
 20
-2.45543608770187 
 11
 43.2967721152568 
 21
-2.36908283079492 
  0
LINE
  8
0
 10
 43.2967721152568 
 20
-2.36908283079492 
 11
 41.4720902519187 
 21
-2.28272957388798 
  0
LINE
  8
0
 10
 41.4720902519187 
 20
-2.28272957388798 
 11
 39.8163604129638 
 21
-2.2038852958425 
  0
LINE
  8
0
 10
 39.8163604129638 
 20
-2.2038852958425 
 11
 38.2920377040847 
 21
-2.12504101779703 
  0
LINE
  8
0
 10
 38.2920377040847 
 20
-2.12504101779703 
 11
 36.8841041675584 
 21
-2.04619673975156 
  0
LINE
  8
0
 10
 36.8841041675584 
 20
-2.04619673975156 
 11
 35.5550149090775 
 21
-1.97486144056756 
  0
LINE
  8
0
 10
 35.5550149090775 
 20
-1.97486144056756 
 11
 34.2747340131963 
 21
-1.89977165195282 
  0
LINE
  8
0
 10
 34.2747340131963 
 20
-1.89977165195282 
 11
 33.0169800538995 
 21
-1.82092737390735 
  0
LINE
  8
0
 10
 33.0169800538995 
 20
-1.82092737390735 
 11
 31.7554716051719 
 21
-1.74583758529261 
  0
LINE
  8
0
 10
 31.7554716051719 
 20
-1.74583758529261 
 11
 30.4489092832755 
 21
-1.66699330724714 
  0
LINE
  8
0
 10
 30.4489092832755 
 20
-1.66699330724714 
 11
 30.4489092832755 
 21
-1.66699330724714 
  0
LINE
  8
0
 10
 30.4489092832755 
 20
-1.66699330724714 
 11
 30.4489092832755 
 21
-1.66699330724714 
  0
LINE
  8
0
 10
 30.4489092832755 
 20
-1.66699330724714 
 11
 29.0897841093488 
 21
-1.58064005034019 
  0
LINE
  8
0
 10
 29.0897841093488 
 20
-1.58064005034019 
 11
 27.674341593961 
 21
-1.49804128286399 
  0
LINE
  8
0
 10
 27.674341593961 
 20
-1.49804128286399 
 11
 26.2025817371122 
 21
-1.41168802595704 
  0
LINE
  8
0
 10
 26.2025817371122 
 20
-1.41168802595704 
 11
 24.6970314753867 
 21
-1.32158027961936 
  0
LINE
  8
0
 10
 24.6970314753867 
 20
-1.32158027961936 
 11
 23.1576908087846 
 21
-1.23522702271241 
  0
LINE
  8
0
 10
 23.1576908087846 
 20
-1.23522702271241 
 11
 21.5883142267366 
 21
-1.14511927637473 
  0
LINE
  8
0
 10
 21.5883142267366 
 20
-1.14511927637473 
 11
 20.0076741763964 
 21
-1.05125704060631 
  0
LINE
  8
0
 10
 20.0076741763964 
 20
-1.05125704060631 
 11
 18.415770657764 
 21
-.961149294268622 
  0
LINE
  8
0
 10
 18.415770657764 
 20
-.961149294268622 
 11
 16.8238671391316 
 21
-.871041547930939 
  0
LINE
  8
0
 10
 16.8238671391316 
 20
-.871041547930939 
 11
 15.2394725993607 
 21
-.784688291023992 
  0
LINE
  8
0
 10
 15.2394725993607 
 20
-.784688291023992 
 11
 15.2394725993607 
 21
-.784688291023992 
  0
LINE
  8
0
 10
 15.2394725993607 
 20
-.784688291023992 
 11
 15.2394725993607 
 21
-.784688291023992 
  0
LINE
  8
0
 10
 15.2394725993607 
 20
-.784688291023992 
 11
 13.666341527882 
 21
-.702089523547782 
  0
LINE
  8
0
 10
 13.666341527882 
 20
-.702089523547782 
 11
 12.1157373929877 
 21
-.619490756071573 
  0
LINE
  8
0
 10
 12.1157373929877 
 20
-.619490756071573 
 11
 10.5726422369548 
 21
-.536891988595363 
  0
LINE
  8
0
 10
 10.5726422369548 
 20
-.536891988595363 
 11
 9.04081054921422 
 21
-.45804771054989 
  0
LINE
  8
0
 10
 9.04081054921422 
 20
-.45804771054989 
 11
 7.52024232976582 
 21
-.379203432504417 
  0
LINE
  8
0
 10
 7.52024232976582 
 20
-.379203432504417 
 11
 6.00342859974815 
 21
-.304113643889681 
  0
LINE
  8
0
 10
 6.00342859974815 
 20
-.304113643889681 
 11
 4.49787833802269 
 21
-.225269365844208 
  0
LINE
  8
0
 10
 4.49787833802269 
 20
-.225269365844208 
 11
 2.99608256572797 
 21
-.150179577229472 
  0
LINE
  8
0
 10
 2.99608256572797 
 20
-.150179577229472 
 11
 1.49428679343325 
 21
-7.50897886147361E-02 
  0
LINE
  8
0
 10
 1.49428679343325 
 20
-7.50897886147361E-02 
 11
-3.7544894307368E-03 
 21
 3.7544894307368E-03 
  0
LINE
  8
0
 10
-3.7544894307368E-03 
 20
 3.7544894307368E-03 
 11
 0 
 21
 0 
  0
ENDSEC
  0
EOF
