  0
SECTION
  2
ENTITIES
  0
LINE
  8
0
 10
 0 
 20
 0 
 11
-5.80819514934984 
 21
 1.85471777878398 
  0
LINE
  8
0
 10
 10.4111991914332 
 20
 .232778344705682 
 11
 6.56660201435867 
 21
 2.59435219663913 
  0
LINE
  8
0
 10
 20.8186438934356 
 20
 .356676495919996 
 11
 18.9076087731905 
 21
 3.35275906164797 
  0
LINE
  8
0
 10
 30.9032025043946 
 20
 .450538731688416 
 11
 30.9032025043946 
 21
 3.9684953282888 
  0
LINE
  8
0
 10
 58.7727775487539 
 20
 .660790139809677 
 11
 58.7915499959076 
 21
 4.55419567948374 
  0
LINE
  8
0
 10
 86.6048076988058 
 20
 .702089523547782 
 11
 86.6198256565288 
 21
 4.21629163071743 
  0
LINE
  8
0
 10
 114.14023318383 
 20
 .555664435749047 
 11
 114.151496652122 
 21
 3.6831541315528 
  0
LINE
  8
0
 10
 143.90207090128 
 20
 .214005897551998 
 11
 143.917088859003 
 21
 3.49542966001596 
  0
LINE
  8
0
 10
 173.671417597592 
 20
-5.25628520303153E-02 
 11
 173.686435555315 
 21
 3.49167517058523 
  0
LINE
  8
0
 10
 203.166686565461 
 20
 2.62814260151576E-02 
 11
 203.174195544322 
 21
 3.2138429527107 
  0
LINE
  8
0
 10
 215.346250278771 
 20
 .202742429259787 
 11
 217.197213568124 
 21
 2.86842992508292 
  0
LINE
  8
0
 10
 227.540831949804 
 20
 .44678424225768 
 11
 231.242758528511 
 21
 2.40287323567155 
  0
LINE
  8
0
 10
 0 
 20
 0 
 11
-5.80819514934984 
 21
 1.85471777878398 
  0
LINE
  8
0
 10
-5.80819514934984 
 20
 1.85471777878398 
 11
-5.80819514934984 
 21
 1.85471777878398 
  0
LINE
  8
0
 10
-5.80819514934984 
 20
 1.85471777878398 
 11
-4.60300404208332 
 21
 1.92980756739872 
  0
LINE
  8
0
 10
-4.60300404208332 
 20
 1.92980756739872 
 11
-3.39405844538607 
 21
 1.99738837715198 
  0
LINE
  8
0
 10
-3.39405844538607 
 20
 1.99738837715198 
 11
-2.18135835925808 
 21
 2.06872367633598 
  0
LINE
  8
0
 10
-2.18135835925808 
 20
 2.06872367633598 
 11
-.961149294268622 
 21
 2.14381346495072 
  0
LINE
  8
0
 10
-.961149294268622 
 20
 2.14381346495072 
 11
 .25905977072084 
 21
 2.21890325356545 
  0
LINE
  8
0
 10
 .25905977072084 
 20
 2.21890325356545 
 11
 1.49804128286399 
 21
 2.29023855274945 
  0
LINE
  8
0
 10
 1.49804128286399 
 20
 2.29023855274945 
 11
 2.74077728443787 
 21
 2.36532834136419 
  0
LINE
  8
0
 10
 2.74077728443787 
 20
 2.36532834136419 
 11
 4.00228573316543 
 21
 2.44041812997892 
  0
LINE
  8
0
 10
 4.00228573316543 
 20
 2.44041812997892 
 11
 5.27505765018521 
 21
 2.51550791859366 
  0
LINE
  8
0
 10
 5.27505765018521 
 20
 2.51550791859366 
 11
 6.56660201435867 
 21
 2.59435219663913 
  0
LINE
  8
0
 10
 6.56660201435867 
 20
 2.59435219663913 
 11
 6.56660201435867 
 21
 2.59435219663913 
  0
LINE
  8
0
 10
 6.56660201435867 
 20
 2.59435219663913 
 11
 6.56660201435867 
 21
 2.59435219663913 
  0
LINE
  8
0
 10
 6.56660201435867 
 20
 2.59435219663913 
 11
 7.87316433625508 
 21
 2.6731964746846 
  0
LINE
  8
0
 10
 7.87316433625508 
 20
 2.6731964746846 
 11
 9.19474461587443 
 21
 2.75204075273008 
  0
LINE
  8
0
 10
 9.19474461587443 
 20
 2.75204075273008 
 11
 10.5125704060631 
 21
 2.83088503077555 
  0
LINE
  8
0
 10
 10.5125704060631 
 20
 2.83088503077555 
 11
 11.8228872173902 
 21
 2.90972930882102 
  0
LINE
  8
0
 10
 11.8228872173902 
 20
 2.90972930882102 
 11
 13.1069226027022 
 21
 2.9885735868665 
  0
LINE
  8
0
 10
 13.1069226027022 
 20
 2.9885735868665 
 11
 14.364676561999 
 21
 3.06741786491197 
  0
LINE
  8
0
 10
 14.364676561999 
 20
 3.06741786491197 
 11
 15.5848856269885 
 21
 3.1425076535267 
  0
LINE
  8
0
 10
 15.5848856269885 
 20
 3.1425076535267 
 11
 16.7525318399476 
 21
 3.2138429527107 
  0
LINE
  8
0
 10
 16.7525318399476 
 20
 3.2138429527107 
 11
 17.8638607114457 
 21
 3.2851782518947 
  0
LINE
  8
0
 10
 17.8638607114457 
 20
 3.2851782518947 
 11
 18.9076087731905 
 21
 3.35275906164797 
  0
LINE
  8
0
 10
 18.9076087731905 
 20
 3.35275906164797 
 11
 18.9076087731905 
 21
 3.35275906164797 
  0
LINE
  8
0
 10
 18.9076087731905 
 20
 3.35275906164797 
 11
 18.9076087731905 
 21
 3.35275906164797 
  0
LINE
  8
0
 10
 18.9076087731905 
 20
 3.35275906164797 
 11
 19.8800215357514 
 21
 3.41658538197049 
  0
LINE
  8
0
 10
 19.8800215357514 
 20
 3.41658538197049 
 11
 20.8073804251434 
 21
 3.48041170229302 
  0
LINE
  8
0
 10
 20.8073804251434 
 20
 3.48041170229302 
 11
 21.7309848251046 
 21
 3.54048353318481 
  0
LINE
  8
0
 10
 21.7309848251046 
 20
 3.54048353318481 
 11
 22.680870651081 
 21
 3.59680087464586 
  0
LINE
  8
0
 10
 22.680870651081 
 20
 3.59680087464586 
 11
 23.6908283079492 
 21
 3.65687270553765 
  0
LINE
  8
0
 10
 23.6908283079492 
 20
 3.65687270553765 
 11
 24.7984026900166 
 21
 3.71694453642944 
  0
LINE
  8
0
 10
 24.7984026900166 
 20
 3.71694453642944 
 11
 26.0373842021597 
 21
 3.77326187789049 
  0
LINE
  8
0
 10
 26.0373842021597 
 20
 3.77326187789049 
 11
 27.445317738686 
 21
 3.83708819821301 
  0
LINE
  8
0
 10
 27.445317738686 
 20
 3.83708819821301 
 11
 29.0559937044721 
 21
 3.90091451853554 
  0
LINE
  8
0
 10
 29.0559937044721 
 20
 3.90091451853554 
 11
 30.9032025043946 
 21
 3.9684953282888 
  0
LINE
  8
0
 10
 30.9032025043946 
 20
 3.9684953282888 
 11
 30.9032025043946 
 21
 3.9684953282888 
  0
LINE
  8
0
 10
 30.9032025043946 
 20
 3.9684953282888 
 11
 30.9032025043946 
 21
 3.9684953282888 
  0
LINE
  8
0
 10
 30.9032025043946 
 20
 3.9684953282888 
 11
 33.009471075038 
 21
 4.0398306274728 
  0
LINE
  8
0
 10
 33.009471075038 
 20
 4.0398306274728 
 11
 35.3597814586792 
 21
 4.11492041608754 
  0
LINE
  8
0
 10
 35.3597814586792 
 20
 4.11492041608754 
 11
 37.9128342715802 
 21
 4.18625571527154 
  0
LINE
  8
0
 10
 37.9128342715802 
 20
 4.18625571527154 
 11
 40.6385935982952 
 21
 4.25759101445554 
  0
LINE
  8
0
 10
 40.6385935982952 
 20
 4.25759101445554 
 11
 43.5070235233781 
 21
 4.32892631363954 
  0
LINE
  8
0
 10
 43.5070235233781 
 20
 4.32892631363954 
 11
 46.4805791525216 
 21
 4.39275263396206 
  0
LINE
  8
0
 10
 46.4805791525216 
 20
 4.39275263396206 
 11
 49.5292245702799 
 21
 4.44906997542311 
  0
LINE
  8
0
 10
 49.5292245702799 
 20
 4.44906997542311 
 11
 52.6191693717763 
 21
 4.49787833802269 
  0
LINE
  8
0
 10
 52.6191693717763 
 20
 4.49787833802269 
 11
 55.7166231521342 
 21
 4.53166874289932 
  0
LINE
  8
0
 10
 55.7166231521342 
 20
 4.53166874289932 
 11
 58.7915499959076 
 21
 4.55419567948374 
  0
LINE
  8
0
 10
 58.7915499959076 
 20
 4.55419567948374 
 11
 58.7915499959076 
 21
 4.55419567948374 
  0
LINE
  8
0
 10
 58.7915499959076 
 20
 4.55419567948374 
 11
 58.7915499959076 
 21
 4.55419567948374 
  0
LINE
  8
0
 10
 58.7915499959076 
 20
 4.55419567948374 
 11
 61.81015949822 
 21
 4.56170465834522 
  0
LINE
  8
0
 10
 61.81015949822 
 20
 4.56170465834522 
 11
 64.7724516590713 
 21
 4.55795016891448 
  0
LINE
  8
0
 10
 64.7724516590713 
 20
 4.55795016891448 
 11
 67.6784264784616 
 21
 4.54293221119153 
  0
LINE
  8
0
 10
 67.6784264784616 
 20
 4.54293221119153 
 11
 70.5318384458216 
 21
 4.51289629574564 
  0
LINE
  8
0
 10
 70.5318384458216 
 20
 4.51289629574564 
 11
 73.3326875611513 
 21
 4.48286038029974 
  0
LINE
  8
0
 10
 73.3326875611513 
 20
 4.48286038029974 
 11
 76.0847283138813 
 21
 4.4378065071309 
  0
LINE
  8
0
 10
 76.0847283138813 
 20
 4.4378065071309 
 11
 78.7879607040118 
 21
 4.38524365510059 
  0
LINE
  8
0
 10
 78.7879607040118 
 20
 4.38524365510059 
 11
 81.4423847315428 
 21
 4.33268080307027 
  0
LINE
  8
0
 10
 81.4423847315428 
 20
 4.33268080307027 
 11
 84.0555093753356 
 21
 4.27636346160922 
  0
LINE
  8
0
 10
 84.0555093753356 
 20
 4.27636346160922 
 11
 86.6198256565288 
 21
 4.21629163071743 
  0
LINE
  8
0
 10
 86.6198256565288 
 20
 4.21629163071743 
 11
 86.6198256565288 
 21
 4.21629163071743 
  0
LINE
  8
0
 10
 86.6198256565288 
 20
 4.21629163071743 
 11
 86.6198256565288 
 21
 4.21629163071743 
  0
LINE
  8
0
 10
 86.6198256565288 
 20
 4.21629163071743 
 11
 89.1503515328454 
 21
 4.15621979982564 
  0
LINE
  8
0
 10
 89.1503515328454 
 20
 4.15621979982564 
 11
 91.6621049620083 
 21
 4.09614796893385 
  0
LINE
  8
0
 10
 91.6621049620083 
 20
 4.09614796893385 
 11
 94.1813673700327 
 21
 4.03607613804206 
  0
LINE
  8
0
 10
 94.1813673700327 
 20
 4.03607613804206 
 11
 96.7344201829338 
 21
 3.97975879658101 
  0
LINE
  8
0
 10
 96.7344201829338 
 20
 3.97975879658101 
 11
 99.3475448267266 
 21
 3.92344145511996 
  0
LINE
  8
0
 10
 99.3475448267266 
 20
 3.92344145511996 
 11
 102.043268237996 
 21
 3.87087860308964 
  0
LINE
  8
0
 10
 102.043268237996 
 20
 3.87087860308964 
 11
 104.844117353325 
 21
 3.81831575105933 
  0
LINE
  8
0
 10
 104.844117353325 
 20
 3.81831575105933 
 11
 107.783882577592 
 21
 3.76950738845975 
  0
LINE
  8
0
 10
 107.783882577592 
 20
 3.76950738845975 
 11
 110.873827379089 
 21
 3.72820800472165 
  0
LINE
  8
0
 10
 110.873827379089 
 20
 3.72820800472165 
 11
 114.151496652122 
 21
 3.6831541315528 
  0
LINE
  8
0
 10
 114.151496652122 
 20
 3.6831541315528 
 11
 114.151496652122 
 21
 3.6831541315528 
  0
LINE
  8
0
 10
 114.151496652122 
 20
 3.6831541315528 
 11
 114.151496652122 
 21
 3.6831541315528 
  0
LINE
  8
0
 10
 114.151496652122 
 20
 3.6831541315528 
 11
 117.624399375553 
 21
 3.65311821610691 
  0
LINE
  8
0
 10
 117.624399375553 
 20
 3.65311821610691 
 11
 121.209936781907 
 21
 3.61932781123028 
  0
LINE
  8
0
 10
 121.209936781907 
 20
 3.61932781123028 
 11
 124.836773571999 
 21
 3.59304638521512 
  0
LINE
  8
0
 10
 124.836773571999 
 20
 3.59304638521512 
 11
 128.41104751006 
 21
 3.5705194486307 
  0
LINE
  8
0
 10
 128.41104751006 
 20
 3.5705194486307 
 11
 131.846405339184 
 21
 3.55174700147702 
  0
LINE
  8
0
 10
 131.846405339184 
 20
 3.55174700147702 
 11
 135.056493802464 
 21
 3.53297455432333 
  0
LINE
  8
0
 10
 135.056493802464 
 20
 3.53297455432333 
 11
 137.954959642993 
 21
 3.52171108603112 
  0
LINE
  8
0
 10
 137.954959642993 
 20
 3.52171108603112 
 11
 140.459204093295 
 21
 3.51044761773891 
  0
LINE
  8
0
 10
 140.459204093295 
 20
 3.51044761773891 
 11
 142.4753649176 
 21
 3.4991841494467 
  0
LINE
  8
0
 10
 142.4753649176 
 20
 3.4991841494467 
 11
 143.917088859003 
 21
 3.49542966001596 
  0
LINE
  8
0
 10
 143.917088859003 
 20
 3.49542966001596 
 11
 143.917088859003 
 21
 3.49542966001596 
  0
LINE
  8
0
 10
 143.917088859003 
 20
 3.49542966001596 
 11
 143.917088859003 
 21
 3.49542966001596 
  0
LINE
  8
0
 10
 143.917088859003 
 20
 3.49542966001596 
 11
 144.739322044335 
 21
 3.48792068115449 
  0
LINE
  8
0
 10
 144.739322044335 
 20
 3.48792068115449 
 11
 145.035926709363 
 21
 3.48792068115449 
  0
LINE
  8
0
 10
 145.035926709363 
 20
 3.48792068115449 
 11
 144.930801005302 
 21
 3.48416619172375 
  0
LINE
  8
0
 10
 144.930801005302 
 20
 3.48416619172375 
 11
 144.555352062228 
 21
 3.48041170229302 
  0
LINE
  8
0
 10
 144.555352062228 
 20
 3.48041170229302 
 11
 144.044741499648 
 21
 3.48041170229302 
  0
LINE
  8
0
 10
 144.044741499648 
 20
 3.48041170229302 
 11
 143.519112979345 
 21
 3.48041170229302 
  0
LINE
  8
0
 10
 143.519112979345 
 20
 3.48041170229302 
 11
 143.113628120826 
 21
 3.48416619172375 
  0
LINE
  8
0
 10
 143.113628120826 
 20
 3.48416619172375 
 11
 142.963448543596 
 21
 3.48792068115449 
  0
LINE
  8
0
 10
 142.963448543596 
 20
 3.48792068115449 
 11
 143.18871790944 
 21
 3.48792068115449 
  0
LINE
  8
0
 10
 143.18871790944 
 20
 3.48792068115449 
 11
 143.917088859003 
 21
 3.49542966001596 
  0
LINE
  8
0
 10
 143.917088859003 
 20
 3.49542966001596 
 11
 143.917088859003 
 21
 3.49542966001596 
  0
LINE
  8
0
 10
 143.917088859003 
 20
 3.49542966001596 
 11
 143.917088859003 
 21
 3.49542966001596 
  0
LINE
  8
0
 10
 143.917088859003 
 20
 3.49542966001596 
 11
 145.257441585776 
 21
 3.4991841494467 
  0
LINE
  8
0
 10
 145.257441585776 
 20
 3.4991841494467 
 11
 147.157213237729 
 21
 3.50669312830818 
  0
LINE
  8
0
 10
 147.157213237729 
 20
 3.50669312830818 
 11
 149.548823005108 
 21
 3.51044761773891 
  0
LINE
  8
0
 10
 149.548823005108 
 20
 3.51044761773891 
 11
 152.345917631007 
 21
 3.51420210716965 
  0
LINE
  8
0
 10
 152.345917631007 
 20
 3.51420210716965 
 11
 155.495934263396 
 21
 3.51795659660039 
  0
LINE
  8
0
 10
 155.495934263396 
 20
 3.51795659660039 
 11
 158.901256177074 
 21
 3.51795659660039 
  0
LINE
  8
0
 10
 158.901256177074 
 20
 3.51795659660039 
 11
 162.49805705172 
 21
 3.51795659660039 
  0
LINE
  8
0
 10
 162.49805705172 
 20
 3.51795659660039 
 11
 166.211247098718 
 21
 3.51420210716965 
  0
LINE
  8
0
 10
 166.211247098718 
 20
 3.51420210716965 
 11
 169.961982040024 
 21
 3.50293863887744 
  0
LINE
  8
0
 10
 169.961982040024 
 20
 3.50293863887744 
 11
 173.686435555315 
 21
 3.49167517058523 
  0
LINE
  8
0
 10
 173.686435555315 
 20
 3.49167517058523 
 11
 173.686435555315 
 21
 3.49167517058523 
  0
LINE
  8
0
 10
 173.686435555315 
 20
 3.49167517058523 
 11
 173.686435555315 
 21
 3.49167517058523 
  0
LINE
  8
0
 10
 173.686435555315 
 20
 3.49167517058523 
 11
 177.305763366546 
 21
 3.47665721286228 
  0
LINE
  8
0
 10
 177.305763366546 
 20
 3.47665721286228 
 11
 180.808702005423 
 21
 3.4578847657086 
  0
LINE
  8
0
 10
 180.808702005423 
 20
 3.4578847657086 
 11
 184.176479024794 
 21
 3.43535782912418 
  0
LINE
  8
0
 10
 184.176479024794 
 20
 3.43535782912418 
 11
 187.405339935228 
 21
 3.40907640310902 
  0
LINE
  8
0
 10
 187.405339935228 
 20
 3.40907640310902 
 11
 190.484021268432 
 21
 3.38279497709386 
  0
LINE
  8
0
 10
 190.484021268432 
 20
 3.38279497709386 
 11
 193.393750577253 
 21
 3.34900457221723 
  0
LINE
  8
0
 10
 193.393750577253 
 20
 3.34900457221723 
 11
 196.13077337226 
 21
 3.31896865677133 
  0
LINE
  8
0
 10
 196.13077337226 
 20
 3.31896865677133 
 11
 198.68007169573 
 21
 3.2851782518947 
  0
LINE
  8
0
 10
 198.68007169573 
 20
 3.2851782518947 
 11
 201.030382079371 
 21
 3.25514233644881 
  0
LINE
  8
0
 10
 201.030382079371 
 20
 3.25514233644881 
 11
 203.174195544322 
 21
 3.21759744214144 
  0
LINE
  8
0
 10
 203.174195544322 
 20
 3.21759744214144 
 11
 203.174195544322 
 21
 3.21759744214144 
  0
LINE
  8
0
 10
 203.174195544322 
 20
 3.21759744214144 
 11
 203.174195544322 
 21
 3.21759744214144 
  0
LINE
  8
0
 10
 203.174195544322 
 20
 3.21759744214144 
 11
 205.104003111721 
 21
 3.18756152669555 
  0
LINE
  8
0
 10
 205.104003111721 
 20
 3.18756152669555 
 11
 206.842331718152 
 21
 3.15001663238818 
  0
LINE
  8
0
 10
 206.842331718152 
 20
 3.15001663238818 
 11
 208.419217279061 
 21
 3.11998071694228 
  0
LINE
  8
0
 10
 208.419217279061 
 20
 3.11998071694228 
 11
 209.853432241603 
 21
 3.08619031206565 
  0
LINE
  8
0
 10
 209.853432241603 
 20
 3.08619031206565 
 11
 211.186275989515 
 21
 3.05239990718902 
  0
LINE
  8
0
 10
 211.186275989515 
 20
 3.05239990718902 
 11
 212.43652096995 
 21
 3.01860950231239 
  0
LINE
  8
0
 10
 212.43652096995 
 20
 3.01860950231239 
 11
 213.634203098355 
 21
 2.98106460800502 
  0
LINE
  8
0
 10
 213.634203098355 
 20
 2.98106460800502 
 11
 214.809358290176 
 21
 2.94351971369765 
  0
LINE
  8
0
 10
 214.809358290176 
 20
 2.94351971369765 
 11
 215.988267971427 
 21
 2.90597481939029 
  0
LINE
  8
0
 10
 215.988267971427 
 20
 2.90597481939029 
 11
 217.197213568124 
 21
 2.86842992508292 
  0
LINE
  8
0
 10
 217.197213568124 
 20
 2.86842992508292 
 11
 217.197213568124 
 21
 2.86842992508292 
  0
LINE
  8
0
 10
 217.197213568124 
 20
 2.86842992508292 
 11
 217.197213568124 
 21
 2.86842992508292 
  0
LINE
  8
0
 10
 217.197213568124 
 20
 2.86842992508292 
 11
 218.466230995713 
 21
 2.82337605191408 
  0
LINE
  8
0
 10
 218.466230995713 
 20
 2.82337605191408 
 11
 219.780302296471 
 21
 2.78207666817597 
  0
LINE
  8
0
 10
 219.780302296471 
 20
 2.78207666817597 
 11
 221.139427470398 
 21
 2.73702279500713 
  0
LINE
  8
0
 10
 221.139427470398 
 20
 2.73702279500713 
 11
 222.543606517493 
 21
 2.69196892183829 
  0
LINE
  8
0
 10
 222.543606517493 
 20
 2.69196892183829 
 11
 223.966558011743 
 21
 2.64691504866945 
  0
LINE
  8
0
 10
 223.966558011743 
 20
 2.64691504866945 
 11
 225.412036442576 
 21
 2.59810668606987 
  0
LINE
  8
0
 10
 225.412036442576 
 20
 2.59810668606987 
 11
 226.872532831133 
 21
 2.54929832347029 
  0
LINE
  8
0
 10
 226.872532831133 
 20
 2.54929832347029 
 11
 228.33302921969 
 21
 2.50424445030145 
  0
LINE
  8
0
 10
 228.33302921969 
 20
 2.50424445030145 
 11
 229.797280097677 
 21
 2.45543608770187 
  0
LINE
  8
0
 10
 229.797280097677 
 20
 2.45543608770187 
 11
 231.242758528511 
 21
 2.40287323567155 
  0
LINE
  8
0
 10
 231.242758528511 
 20
 2.40287323567155 
 11
 231.242758528511 
 21
 2.40287323567155 
  0
LINE
  8
0
 10
 231.242758528511 
 20
 2.40287323567155 
 11
 231.242758528511 
 21
 2.40287323567155 
  0
LINE
  8
0
 10
 231.242758528511 
 20
 2.40287323567155 
 11
 232.673219001621 
 21
 2.35406487307198 
  0
LINE
  8
0
 10
 232.673219001621 
 20
 2.35406487307198 
 11
 234.088661517009 
 21
 2.3052565104724 
  0
LINE
  8
0
 10
 234.088661517009 
 20
 2.3052565104724 
 11
 235.485331585243 
 21
 2.25269365844208 
  0
LINE
  8
0
 10
 235.485331585243 
 20
 2.25269365844208 
 11
 236.870738185185 
 21
 2.2038852958425 
  0
LINE
  8
0
 10
 236.870738185185 
 20
 2.2038852958425 
 11
 238.241126827404 
 21
 2.15132244381219 
  0
LINE
  8
0
 10
 238.241126827404 
 20
 2.15132244381219 
 11
 239.604006490761 
 21
 2.10251408121261 
  0
LINE
  8
0
 10
 239.604006490761 
 20
 2.10251408121261 
 11
 240.959377175257 
 21
 2.0499512291823 
  0
LINE
  8
0
 10
 240.959377175257 
 20
 2.0499512291823 
 11
 242.310993370323 
 21
 1.99738837715198 
  0
LINE
  8
0
 10
 242.310993370323 
 20
 1.99738837715198 
 11
 243.655100586526 
 21
 1.95233450398314 
  0
LINE
  8
0
 10
 243.655100586526 
 20
 1.95233450398314 
 11
 244.99920780273 
 21
 1.89977165195282 
  0
LINE
  8
0
 10
 244.99920780273 
 20
 1.89977165195282 
 11
 244.99920780273 
 21
 1.89977165195282 
  0
LINE
  8
0
 10
 244.99920780273 
 20
 1.89977165195282 
 11
 239.44256344524 
 21
 .720861970701466 
  0
LINE
  8
0
 10
 239.44256344524 
 20
 .720861970701466 
 11
 239.44256344524 
 21
 .720861970701466 
  0
LINE
  8
0
 10
 239.44256344524 
 20
 .720861970701466 
 11
 238.289935190003 
 21
 .690826055255572 
  0
LINE
  8
0
 10
 238.289935190003 
 20
 .690826055255572 
 11
 237.141061424198 
 21
 .664544629240414 
  0
LINE
  8
0
 10
 237.141061424198 
 20
 .664544629240414 
 11
 235.984678679531 
 21
 .63450871379452 
  0
LINE
  8
0
 10
 235.984678679531 
 20
 .63450871379452 
 11
 234.820786956003 
 21
 .608227287779362 
  0
LINE
  8
0
 10
 234.820786956003 
 20
 .608227287779362 
 11
 233.645631764182 
 21
 .581945861764205 
  0
LINE
  8
0
 10
 233.645631764182 
 20
 .581945861764205 
 11
 232.459213104069 
 21
 .555664435749047 
  0
LINE
  8
0
 10
 232.459213104069 
 20
 .555664435749047 
 11
 231.257776486233 
 21
 .529383009733889 
  0
LINE
  8
0
 10
 231.257776486233 
 20
 .529383009733889 
 11
 230.041321910675 
 21
 .499347094287995 
  0
LINE
  8
0
 10
 230.041321910675 
 20
 .499347094287995 
 11
 228.802340398532 
 21
 .473065668272837 
  0
LINE
  8
0
 10
 228.802340398532 
 20
 .473065668272837 
 11
 227.540831949804 
 21
 .44678424225768 
  0
LINE
  8
0
 10
 227.540831949804 
 20
 .44678424225768 
 11
 227.540831949804 
 21
 .44678424225768 
  0
LINE
  8
0
 10
 227.540831949804 
 20
 .44678424225768 
 11
 227.540831949804 
 21
 .44678424225768 
  0
LINE
  8
0
 10
 227.540831949804 
 20
 .44678424225768 
 11
 226.256796564492 
 21
 .420502816242522 
  0
LINE
  8
0
 10
 226.256796564492 
 20
 .420502816242522 
 11
 224.961497710888 
 21
 .394221390227364 
  0
LINE
  8
0
 10
 224.961497710888 
 20
 .394221390227364 
 11
 223.658689878422 
 21
 .367939964212207 
  0
LINE
  8
0
 10
 223.658689878422 
 20
 .367939964212207 
 11
 222.367145514249 
 21
 .345413027627786 
  0
LINE
  8
0
 10
 222.367145514249 
 20
 .345413027627786 
 11
 221.090619107798 
 21
 .319131601612628 
  0
LINE
  8
0
 10
 221.090619107798 
 20
 .319131601612628 
 11
 219.840374127363 
 21
 .292850175597471 
  0
LINE
  8
0
 10
 219.840374127363 
 20
 .292850175597471 
 11
 218.631428530666 
 21
 .266568749582313 
  0
LINE
  8
0
 10
 218.631428530666 
 20
 .266568749582313 
 11
 217.471291296568 
 21
 .244041812997892 
  0
LINE
  8
0
 10
 217.471291296568 
 20
 .244041812997892 
 11
 216.371225893362 
 21
 .225269365844208 
  0
LINE
  8
0
 10
 216.371225893362 
 20
 .225269365844208 
 11
 215.346250278771 
 21
 .202742429259787 
  0
LINE
  8
0
 10
 215.346250278771 
 20
 .202742429259787 
 11
 215.346250278771 
 21
 .202742429259787 
  0
LINE
  8
0
 10
 215.346250278771 
 20
 .202742429259787 
 11
 215.346250278771 
 21
 .202742429259787 
  0
LINE
  8
0
 10
 215.346250278771 
 20
 .202742429259787 
 11
 214.388855473933 
 21
 .183969982106103 
  0
LINE
  8
0
 10
 214.388855473933 
 20
 .183969982106103 
 11
 213.480269031695 
 21
 .161443045521683 
  0
LINE
  8
0
 10
 213.480269031695 
 20
 .161443045521683 
 11
 212.571682589456 
 21
 .146425087798735 
  0
LINE
  8
0
 10
 212.571682589456 
 20
 .146425087798735 
 11
 211.629305742341 
 21
 .127652640645051 
  0
LINE
  8
0
 10
 211.629305742341 
 20
 .127652640645051 
 11
 210.619348085473 
 21
 .105125704060631 
  0
LINE
  8
0
 10
 210.619348085473 
 20
 .105125704060631 
 11
 209.500510235114 
 21
 9.01077463376833E-02 
  0
LINE
  8
0
 10
 209.500510235114 
 20
 9.01077463376833E-02 
 11
 208.231492807525 
 21
 7.13352991839993E-02 
  0
LINE
  8
0
 10
 208.231492807525 
 20
 7.13352991839993E-02 
 11
 206.77850539783 
 21
 5.63173414610521E-02 
  0
LINE
  8
0
 10
 206.77850539783 
 20
 5.63173414610521E-02 
 11
 205.104003111721 
 21
 4.12993837381048E-02 
  0
LINE
  8
0
 10
 205.104003111721 
 20
 4.12993837381048E-02 
 11
 203.166686565461 
 21
 2.62814260151576E-02 
  0
LINE
  8
0
 10
 203.166686565461 
 20
 2.62814260151576E-02 
 11
 203.166686565461 
 21
 2.62814260151576E-02 
  0
LINE
  8
0
 10
 203.166686565461 
 20
 2.62814260151576E-02 
 11
 203.166686565461 
 21
 2.62814260151576E-02 
  0
LINE
  8
0
 10
 203.166686565461 
 20
 2.62814260151576E-02 
 11
 200.940274333034 
 21
 7.50897886147361E-03 
  0
LINE
  8
0
 10
 200.940274333034 
 20
 7.50897886147361E-03 
 11
 198.454802329886 
 21
-7.50897886147361E-03 
  0
LINE
  8
0
 10
 198.454802329886 
 20
-7.50897886147361E-03 
 11
 195.740306471463 
 21
-2.25269365844208E-02 
  0
LINE
  8
0
 10
 195.740306471463 
 20
-2.25269365844208E-02 
 11
 192.849349609796 
 21
-3.37904048766312E-02 
  0
LINE
  8
0
 10
 192.849349609796 
 20
-3.37904048766312E-02 
 11
 189.800704192038 
 21
-4.50538731688416E-02 
  0
LINE
  8
0
 10
 189.800704192038 
 20
-4.50538731688416E-02 
 11
 186.646933070219 
 21
-5.63173414610521E-02 
  0
LINE
  8
0
 10
 186.646933070219 
 20
-5.63173414610521E-02 
 11
 183.418072159785 
 21
-6.00718308917889E-02 
  0
LINE
  8
0
 10
 183.418072159785 
 20
-6.00718308917889E-02 
 11
 180.151666355044 
 21
-6.00718308917889E-02 
  0
LINE
  8
0
 10
 180.151666355044 
 20
-6.00718308917889E-02 
 11
 176.892769529165 
 21
-6.00718308917889E-02 
  0
LINE
  8
0
 10
 176.892769529165 
 20
-6.00718308917889E-02 
 11
 173.671417597592 
 21
-5.25628520303153E-02 
  0
LINE
  8
0
 10
 173.671417597592 
 20
-5.25628520303153E-02 
 11
 173.671417597592 
 21
-5.25628520303153E-02 
  0
LINE
  8
0
 10
 173.671417597592 
 20
-5.25628520303153E-02 
 11
 173.671417597592 
 21
-5.25628520303153E-02 
  0
LINE
  8
0
 10
 173.671417597592 
 20
-5.25628520303153E-02 
 11
 170.521400965204 
 21
-4.12993837381048E-02 
  0
LINE
  8
0
 10
 170.521400965204 
 20
-4.12993837381048E-02 
 11
 167.435210653139 
 21
-2.25269365844208E-02 
  0
LINE
  8
0
 10
 167.435210653139 
 20
-2.25269365844208E-02 
 11
 164.409092171965 
 21
-7.50897886147361E-03 
  0
LINE
  8
0
 10
 164.409092171965 
 20
-7.50897886147361E-03 
 11
 161.42802756396 
 21
 .018772447153684 
  0
LINE
  8
0
 10
 161.42802756396 
 20
 .018772447153684 
 11
 158.484507850262 
 21
 4.50538731688416E-02 
  0
LINE
  8
0
 10
 158.484507850262 
 20
 4.50538731688416E-02 
 11
 155.559760583718 
 21
 7.50897886147361E-02 
  0
LINE
  8
0
 10
 155.559760583718 
 20
 7.50897886147361E-02 
 11
 152.653785764328 
 21
 .108880193491367 
  0
LINE
  8
0
 10
 152.653785764328 
 20
 .108880193491367 
 11
 149.747810944937 
 21
 .142670598367999 
  0
LINE
  8
0
 10
 149.747810944937 
 20
 .142670598367999 
 11
 146.834327146686 
 21
 .180215492675367 
  0
LINE
  8
0
 10
 146.834327146686 
 20
 .180215492675367 
 11
 143.90207090128 
 21
 .214005897551998 
  0
LINE
  8
0
 10
 143.90207090128 
 20
 .214005897551998 
 11
 143.90207090128 
 21
 .214005897551998 
  0
LINE
  8
0
 10
 143.90207090128 
 20
 .214005897551998 
 11
 143.90207090128 
 21
 .214005897551998 
  0
LINE
  8
0
 10
 143.90207090128 
 20
 .214005897551998 
 11
 140.94728771929 
 21
 .251550791859366 
  0
LINE
  8
0
 10
 140.94728771929 
 20
 .251550791859366 
 11
 137.966223111285 
 21
 .285341196735997 
  0
LINE
  8
0
 10
 137.966223111285 
 20
 .285341196735997 
 11
 134.970140545557 
 21
 .326640580474102 
  0
LINE
  8
0
 10
 134.970140545557 
 20
 .326640580474102 
 11
 131.966549000968 
 21
 .360430985350733 
  0
LINE
  8
0
 10
 131.966549000968 
 20
 .360430985350733 
 11
 128.959202966948 
 21
 .397975879658101 
  0
LINE
  8
0
 10
 128.959202966948 
 20
 .397975879658101 
 11
 125.959365911789 
 21
 .431766284534732 
  0
LINE
  8
0
 10
 125.959365911789 
 20
 .431766284534732 
 11
 122.970792324923 
 21
 .465556689411364 
  0
LINE
  8
0
 10
 122.970792324923 
 20
 .465556689411364 
 11
 119.997236695779 
 21
 .495592604857258 
  0
LINE
  8
0
 10
 119.997236695779 
 20
 .495592604857258 
 11
 117.053716982081 
 21
 .525628520303153 
  0
LINE
  8
0
 10
 117.053716982081 
 20
 .525628520303153 
 11
 114.14023318383 
 21
 .555664435749047 
  0
LINE
  8
0
 10
 114.14023318383 
 20
 .555664435749047 
 11
 114.14023318383 
 21
 .555664435749047 
  0
LINE
  8
0
 10
 114.14023318383 
 20
 .555664435749047 
 11
 114.14023318383 
 21
 .555664435749047 
  0
LINE
  8
0
 10
 114.14023318383 
 20
 .555664435749047 
 11
 111.264294279885 
 21
 .578191372333468 
  0
LINE
  8
0
 10
 111.264294279885 
 20
 .578191372333468 
 11
 108.429654759679 
 21
 .600718308917889 
  0
LINE
  8
0
 10
 108.429654759679 
 20
 .600718308917889 
 11
 105.621296665488 
 21
 .623245245502309 
  0
LINE
  8
0
 10
 105.621296665488 
 20
 .623245245502309 
 11
 102.842974486743 
 21
 .638263203225257 
  0
LINE
  8
0
 10
 102.842974486743 
 20
 .638263203225257 
 11
 100.094688223443 
 21
 .653281160948204 
  0
LINE
  8
0
 10
 100.094688223443 
 20
 .653281160948204 
 11
 97.3651744072975 
 21
 .668299118671151 
  0
LINE
  8
0
 10
 97.3651744072975 
 20
 .668299118671151 
 11
 94.6544330383056 
 21
 .679562586963362 
  0
LINE
  8
0
 10
 94.6544330383056 
 20
 .679562586963362 
 11
 91.9624641164673 
 21
 .687071565824835 
  0
LINE
  8
0
 10
 91.9624641164673 
 20
 .687071565824835 
 11
 89.2780041734904 
 21
 .694580544686309 
  0
LINE
  8
0
 10
 89.2780041734904 
 20
 .694580544686309 
 11
 86.6048076988058 
 21
 .702089523547782 
  0
LINE
  8
0
 10
 86.6048076988058 
 20
 .702089523547782 
 11
 86.6048076988058 
 21
 .702089523547782 
  0
LINE
  8
0
 10
 86.6048076988058 
 20
 .702089523547782 
 11
 86.6048076988058 
 21
 .702089523547782 
  0
LINE
  8
0
 10
 86.6048076988058 
 20
 .702089523547782 
 11
 83.9391202029827 
 21
 .705844012978519 
  0
LINE
  8
0
 10
 83.9391202029827 
 20
 .705844012978519 
 11
 81.2659237282981 
 21
 .709598502409256 
  0
LINE
  8
0
 10
 81.2659237282981 
 20
 .709598502409256 
 11
 78.5814637853213 
 21
 .709598502409256 
  0
LINE
  8
0
 10
 78.5814637853213 
 20
 .709598502409256 
 11
 75.8782313951908 
 21
 .713352991839993 
  0
LINE
  8
0
 10
 75.8782313951908 
 20
 .713352991839993 
 11
 73.1524720684759 
 21
 .709598502409256 
  0
LINE
  8
0
 10
 73.1524720684759 
 20
 .709598502409256 
 11
 70.3816588685921 
 21
 .702089523547782 
  0
LINE
  8
0
 10
 70.3816588685921 
 20
 .702089523547782 
 11
 67.5657917955395 
 21
 .698335034117046 
  0
LINE
  8
0
 10
 67.5657917955395 
 20
 .698335034117046 
 11
 64.7011163598873 
 21
 .687071565824835 
  0
LINE
  8
0
 10
 64.7011163598873 
 20
 .687071565824835 
 11
 61.7726146039126 
 21
 .675808097532625 
  0
LINE
  8
0
 10
 61.7726146039126 
 20
 .675808097532625 
 11
 58.7727775487539 
 21
 .660790139809677 
  0
LINE
  8
0
 10
 58.7727775487539 
 20
 .660790139809677 
 11
 58.7727775487539 
 21
 .660790139809677 
  0
LINE
  8
0
 10
 58.7727775487539 
 20
 .660790139809677 
 11
 58.7727775487539 
 21
 .660790139809677 
  0
LINE
  8
0
 10
 58.7727775487539 
 20
 .660790139809677 
 11
 55.6978507049805 
 21
 .642017692655993 
  0
LINE
  8
0
 10
 55.6978507049805 
 20
 .642017692655993 
 11
 52.5928879457611 
 21
 .623245245502309 
  0
LINE
  8
0
 10
 52.5928879457611 
 20
 .623245245502309 
 11
 49.4766617182496 
 21
 .600718308917889 
  0
LINE
  8
0
 10
 49.4766617182496 
 20
 .600718308917889 
 11
 46.4054893639069 
 21
 .578191372333468 
  0
LINE
  8
0
 10
 46.4054893639069 
 20
 .578191372333468 
 11
 43.4056523087482 
 21
 .555664435749047 
  0
LINE
  8
0
 10
 43.4056523087482 
 20
 .555664435749047 
 11
 40.5222044259423 
 21
 .533137499164626 
  0
LINE
  8
0
 10
 40.5222044259423 
 20
 .533137499164626 
 11
 37.7889361203659 
 21
 .506856073149469 
  0
LINE
  8
0
 10
 37.7889361203659 
 20
 .506856073149469 
 11
 35.2509012651879 
 21
 .484329136565048 
  0
LINE
  8
0
 10
 35.2509012651879 
 20
 .484329136565048 
 11
 32.9418902652847 
 21
 .465556689411364 
  0
LINE
  8
0
 10
 32.9418902652847 
 20
 .465556689411364 
 11
 30.9032025043946 
 21
 .450538731688416 
  0
LINE
  8
0
 10
 30.9032025043946 
 20
 .450538731688416 
 11
 30.9032025043946 
 21
 .450538731688416 
  0
LINE
  8
0
 10
 30.9032025043946 
 20
 .450538731688416 
 11
 30.9032025043946 
 21
 .450538731688416 
  0
LINE
  8
0
 10
 30.9032025043946 
 20
 .450538731688416 
 11
 29.1611194085328 
 21
 .431766284534732 
  0
LINE
  8
0
 10
 29.1611194085328 
 20
 .431766284534732 
 11
 27.6856050622532 
 21
 .416748326811785 
  0
LINE
  8
0
 10
 27.6856050622532 
 20
 .416748326811785 
 11
 26.4428690606793 
 21
 .409239347950312 
  0
LINE
  8
0
 10
 26.4428690606793 
 20
 .409239347950312 
 11
 25.3841030412115 
 21
 .397975879658101 
  0
LINE
  8
0
 10
 25.3841030412115 
 20
 .397975879658101 
 11
 24.479271088404 
 21
 .390466900796628 
  0
LINE
  8
0
 10
 24.479271088404 
 20
 .390466900796628 
 11
 23.6870738185185 
 21
 .382957921935154 
  0
LINE
  8
0
 10
 23.6870738185185 
 20
 .382957921935154 
 11
 22.9624573583863 
 21
 .379203432504417 
  0
LINE
  8
0
 10
 22.9624573583863 
 20
 .379203432504417 
 11
 22.2678768137 
 21
 .371694453642944 
  0
LINE
  8
0
 10
 22.2678768137 
 20
 .371694453642944 
 11
 21.5657872901522 
 21
 .36418547478147 
  0
LINE
  8
0
 10
 21.5657872901522 
 20
 .36418547478147 
 11
 20.8186438934356 
 21
 .356676495919996 
  0
LINE
  8
0
 10
 20.8186438934356 
 20
 .356676495919996 
 11
 20.8186438934356 
 21
 .356676495919996 
  0
LINE
  8
0
 10
 20.8186438934356 
 20
 .356676495919996 
 11
 20.8186438934356 
 21
 .356676495919996 
  0
LINE
  8
0
 10
 20.8186438934356 
 20
 .356676495919996 
 11
 19.9889017292427 
 21
 .349167517058523 
  0
LINE
  8
0
 10
 19.9889017292427 
 20
 .349167517058523 
 11
 19.0878242658659 
 21
 .337904048766312 
  0
LINE
  8
0
 10
 19.0878242658659 
 20
 .337904048766312 
 11
 18.1191659927358 
 21
 .330395069904839 
  0
LINE
  8
0
 10
 18.1191659927358 
 20
 .330395069904839 
 11
 17.0941903781447 
 21
 .319131601612628 
  0
LINE
  8
0
 10
 17.0941903781447 
 20
 .319131601612628 
 11
 16.0279153798154 
 21
 .307868133320418 
  0
LINE
  8
0
 10
 16.0279153798154 
 20
 .307868133320418 
 11
 14.9278499766095 
 21
 .292850175597471 
  0
LINE
  8
0
 10
 14.9278499766095 
 20
 .292850175597471 
 11
 13.8015031473885 
 21
 .277832217874523 
  0
LINE
  8
0
 10
 13.8015031473885 
 20
 .277832217874523 
 11
 12.6714018287367 
 21
 .266568749582313 
  0
LINE
  8
0
 10
 12.6714018287367 
 20
 .266568749582313 
 11
 11.5375460206542 
 21
 .247796302428629 
  0
LINE
  8
0
 10
 11.5375460206542 
 20
 .247796302428629 
 11
 10.4111991914332 
 21
 .232778344705682 
  0
LINE
  8
0
 10
 10.4111991914332 
 20
 .232778344705682 
 11
 10.4111991914332 
 21
 .232778344705682 
  0
LINE
  8
0
 10
 10.4111991914332 
 20
 .232778344705682 
 11
 10.4111991914332 
 21
 .232778344705682 
  0
LINE
  8
0
 10
 10.4111991914332 
 20
 .232778344705682 
 11
 9.31113378822727 
 21
 .210251408121261 
  0
LINE
  8
0
 10
 9.31113378822727 
 20
 .210251408121261 
 11
 8.22608634274434 
 21
 .18772447153684 
  0
LINE
  8
0
 10
 8.22608634274434 
 20
 .18772447153684 
 11
 7.15981134441508 
 21
 .165197534952419 
  0
LINE
  8
0
 10
 7.15981134441508 
 20
 .165197534952419 
 11
 6.10855430380878 
 21
 .142670598367999 
  0
LINE
  8
0
 10
 6.10855430380878 
 20
 .142670598367999 
 11
 5.07231522092542 
 21
 .120143661783578 
  0
LINE
  8
0
 10
 5.07231522092542 
 20
 .120143661783578 
 11
 4.04358511690354 
 21
 9.76167251991569E-02 
  0
LINE
  8
0
 10
 4.04358511690354 
 20
 9.76167251991569E-02 
 11
 3.02611848117386 
 21
 7.13352991839993E-02 
  0
LINE
  8
0
 10
 3.02611848117386 
 20
 7.13352991839993E-02 
 11
 2.01616082430566 
 21
 4.88083625995784E-02 
  0
LINE
  8
0
 10
 2.01616082430566 
 20
 4.88083625995784E-02 
 11
 1.00620316743746 
 21
 2.25269365844208E-02 
  0
LINE
  8
0
 10
 1.00620316743746 
 20
 2.25269365844208E-02 
 11
 3.7544894307368E-03 
 21
-3.7544894307368E-03 
  0
LINE
  8
0
 10
 3.7544894307368E-03 
 20
-3.7544894307368E-03 
 11
 0 
 21
 0 
  0
ENDSEC
  0
EOF
