  0
SECTION
  2
ENTITIES
  0
LINE
  8
0
 10
 0 
 20
 0 
 11
 8.65785262727907 
 21
 .698335034117046 
  0
LINE
  8
0
 10
 14.4998381815055 
 20
-.713352991839993 
 11
 20.2554704788251 
 21
 .814724206469886 
  0
LINE
  8
0
 10
 28.9884128947189 
 20
-1.49804128286399 
 11
 31.853088330371 
 21
 .979921741422306 
  0
LINE
  8
0
 10
 43.1616104957503 
 20
-2.10251408121261 
 11
 43.1503470274581 
 21
 1.13761029751325 
  0
LINE
  8
0
 10
 71.0199220718174 
 20
-2.53052587631661 
 11
 70.997395135233 
 21
 1.46425087798735 
  0
LINE
  8
0
 10
 98.8594612007308 
 20
-2.29399304218019 
 11
 98.8369342641464 
 21
 1.73081962756967 
  0
LINE
  8
0
 10
 126.391132196324 
 20
-1.92980756739872 
 11
 126.37235974917 
 21
 1.92980756739872 
  0
LINE
  8
0
 10
 156.156724403205 
 20
-1.82468186333809 
 11
 156.134197466621 
 21
 2.07247816576672 
  0
LINE
  8
0
 10
 185.922316610087 
 20
-1.73081962756967 
 11
 185.907298652364 
 21
 2.11377754950482 
  0
LINE
  8
0
 10
 215.413831088524 
 20
-1.18641866011283 
 11
 215.398813130801 
 21
 2.02366980316714 
  0
LINE
  8
0
 10
 230.604495325285 
 20
-.608227287779362 
 11
 230.488106152932 
 21
 1.92605307796798 
  0
LINE
  8
0
 10
 245.806423030339 
 20
 .131407130075788 
 11
 245.592417132787 
 21
 1.80215492675367 
  0
LINE
  8
0
 10
 0 
 20
 0 
 11
 8.65785262727907 
 21
 .698335034117046 
  0
LINE
  8
0
 10
 8.65785262727907 
 20
 .698335034117046 
 11
 8.65785262727907 
 21
 .698335034117046 
  0
LINE
  8
0
 10
 8.65785262727907 
 20
 .698335034117046 
 11
 9.78419945650011 
 21
 .709598502409256 
  0
LINE
  8
0
 10
 9.78419945650011 
 20
 .709598502409256 
 11
 10.9143007751519 
 21
 .717107481270729 
  0
LINE
  8
0
 10
 10.9143007751519 
 20
 .717107481270729 
 11
 12.0444020938037 
 21
 .732125438993677 
  0
LINE
  8
0
 10
 12.0444020938037 
 20
 .732125438993677 
 11
 13.1857668807477 
 21
 .73963441785515 
  0
LINE
  8
0
 10
 13.1857668807477 
 20
 .73963441785515 
 11
 14.3308861571224 
 21
 .754652375578098 
  0
LINE
  8
0
 10
 14.3308861571224 
 20
 .754652375578098 
 11
 15.4872689017893 
 21
 .762161354439571 
  0
LINE
  8
0
 10
 15.4872689017893 
 20
 .762161354439571 
 11
 16.6586696041792 
 21
 .773424822731782 
  0
LINE
  8
0
 10
 16.6586696041792 
 20
 .773424822731782 
 11
 17.8413337748613 
 21
 .788442780454729 
  0
LINE
  8
0
 10
 17.8413337748613 
 20
 .788442780454729 
 11
 19.0390159032663 
 21
 .799706248746939 
  0
LINE
  8
0
 10
 19.0390159032663 
 20
 .799706248746939 
 11
 20.2554704788251 
 21
 .814724206469886 
  0
LINE
  8
0
 10
 20.2554704788251 
 20
 .814724206469886 
 11
 20.2554704788251 
 21
 .814724206469886 
  0
LINE
  8
0
 10
 20.2554704788251 
 20
 .814724206469886 
 11
 20.2554704788251 
 21
 .814724206469886 
  0
LINE
  8
0
 10
 20.2554704788251 
 20
 .814724206469886 
 11
 21.4944519909682 
 21
 .829742164192834 
  0
LINE
  8
0
 10
 21.4944519909682 
 20
 .829742164192834 
 11
 22.7371879925421 
 21
 .848514611346518 
  0
LINE
  8
0
 10
 22.7371879925421 
 20
 .848514611346518 
 11
 23.9836784835467 
 21
 .863532569069465 
  0
LINE
  8
0
 10
 23.9836784835467 
 20
 .863532569069465 
 11
 25.2226599956899 
 21
 .882305016223149 
  0
LINE
  8
0
 10
 25.2226599956899 
 20
 .882305016223149 
 11
 26.4391145712486 
 21
 .901077463376833 
  0
LINE
  8
0
 10
 26.4391145712486 
 20
 .901077463376833 
 11
 27.6217787419307 
 21
 .91609542109978 
  0
LINE
  8
0
 10
 27.6217787419307 
 20
 .91609542109978 
 11
 28.7668980183054 
 21
 .934867868253464 
  0
LINE
  8
0
 10
 28.7668980183054 
 20
 .934867868253464 
 11
 29.8594544426498 
 21
 .949885825976411 
  0
LINE
  8
0
 10
 29.8594544426498 
 20
 .949885825976411 
 11
 30.8956935255332 
 21
 .964903783699359 
  0
LINE
  8
0
 10
 30.8956935255332 
 20
 .964903783699359 
 11
 31.853088330371 
 21
 .979921741422306 
  0
LINE
  8
0
 10
 31.853088330371 
 20
 .979921741422306 
 11
 31.853088330371 
 21
 .979921741422306 
  0
LINE
  8
0
 10
 31.853088330371 
 20
 .979921741422306 
 11
 31.853088330371 
 21
 .979921741422306 
  0
LINE
  8
0
 10
 31.853088330371 
 20
 .979921741422306 
 11
 32.7429023254557 
 21
 .994939699145253 
  0
LINE
  8
0
 10
 32.7429023254557 
 20
 .994939699145253 
 11
 33.5839079579407 
 21
 1.00620316743746 
  0
LINE
  8
0
 10
 33.5839079579407 
 20
 1.00620316743746 
 11
 34.4249135904258 
 21
 1.01746663572967 
  0
LINE
  8
0
 10
 34.4249135904258 
 20
 1.01746663572967 
 11
 35.2884461594952 
 21
 1.03248459345262 
  0
LINE
  8
0
 10
 35.2884461594952 
 20
 1.03248459345262 
 11
 36.219559538318 
 21
 1.04374806174483 
  0
LINE
  8
0
 10
 36.219559538318 
 20
 1.04374806174483 
 11
 37.2520441317706 
 21
 1.06252050889852 
  0
LINE
  8
0
 10
 37.2520441317706 
 20
 1.06252050889852 
 11
 38.4271993235912 
 21
 1.07753846662146 
  0
LINE
  8
0
 10
 38.4271993235912 
 20
 1.07753846662146 
 11
 39.7750610292257 
 21
 1.09631091377515 
  0
LINE
  8
0
 10
 39.7750610292257 
 20
 1.09631091377515 
 11
 41.3406831218429 
 21
 1.11508336092883 
  0
LINE
  8
0
 10
 41.3406831218429 
 20
 1.11508336092883 
 11
 43.1503470274581 
 21
 1.13761029751325 
  0
LINE
  8
0
 10
 43.1503470274581 
 20
 1.13761029751325 
 11
 43.1503470274581 
 21
 1.13761029751325 
  0
LINE
  8
0
 10
 43.1503470274581 
 20
 1.13761029751325 
 11
 43.1503470274581 
 21
 1.13761029751325 
  0
LINE
  8
0
 10
 43.1503470274581 
 20
 1.13761029751325 
 11
 45.2378431509478 
 21
 1.16389172352841 
  0
LINE
  8
0
 10
 45.2378431509478 
 20
 1.16389172352841 
 11
 47.5768900662968 
 21
 1.1939276389743 
  0
LINE
  8
0
 10
 47.5768900662968 
 20
 1.1939276389743 
 11
 50.1299428791978 
 21
 1.2239635544202 
  0
LINE
  8
0
 10
 50.1299428791978 
 20
 1.2239635544202 
 11
 52.8632111847742 
 21
 1.25775395929683 
  0
LINE
  8
0
 10
 52.8632111847742 
 20
 1.25775395929683 
 11
 55.7353955992879 
 21
 1.2952988536042 
  0
LINE
  8
0
 10
 55.7353955992879 
 20
 1.2952988536042 
 11
 58.7202146967236 
 21
 1.32908925848083 
  0
LINE
  8
0
 10
 58.7202146967236 
 20
 1.32908925848083 
 11
 61.7726146039126 
 21
 1.36287966335746 
  0
LINE
  8
0
 10
 61.7726146039126 
 20
 1.36287966335746 
 11
 64.862559405409 
 21
 1.40042455766483 
  0
LINE
  8
0
 10
 64.862559405409 
 20
 1.40042455766483 
 11
 67.9487497174747 
 21
 1.43421496254146 
  0
LINE
  8
0
 10
 67.9487497174747 
 20
 1.43421496254146 
 11
 70.997395135233 
 21
 1.46425087798735 
  0
LINE
  8
0
 10
 70.997395135233 
 20
 1.46425087798735 
 11
 70.997395135233 
 21
 1.46425087798735 
  0
LINE
  8
0
 10
 70.997395135233 
 20
 1.46425087798735 
 11
 70.997395135233 
 21
 1.46425087798735 
  0
LINE
  8
0
 10
 70.997395135233 
 20
 1.46425087798735 
 11
 73.9859687220995 
 21
 1.49804128286399 
  0
LINE
  8
0
 10
 73.9859687220995 
 20
 1.49804128286399 
 11
 76.8994525203512 
 21
 1.53183168774062 
  0
LINE
  8
0
 10
 76.8994525203512 
 20
 1.53183168774062 
 11
 79.7641279560034 
 21
 1.55811311375577 
  0
LINE
  8
0
 10
 79.7641279560034 
 20
 1.55811311375577 
 11
 82.5762405396253 
 21
 1.58814902920167 
  0
LINE
  8
0
 10
 82.5762405396253 
 20
 1.58814902920167 
 11
 85.347053739509 
 21
 1.61443045521683 
  0
LINE
  8
0
 10
 85.347053739509 
 20
 1.61443045521683 
 11
 88.0840765345161 
 21
 1.63695739180125 
  0
LINE
  8
0
 10
 88.0840765345161 
 20
 1.63695739180125 
 11
 90.7948179035081 
 21
 1.6632388178164 
  0
LINE
  8
0
 10
 90.7948179035081 
 20
 1.6632388178164 
 11
 93.4830323359157 
 21
 1.68576575440083 
  0
LINE
  8
0
 10
 93.4830323359157 
 20
 1.68576575440083 
 11
 96.159983300031 
 21
 1.70829269098525 
  0
LINE
  8
0
 10
 96.159983300031 
 20
 1.70829269098525 
 11
 98.8369342641464 
 21
 1.73081962756967 
  0
LINE
  8
0
 10
 98.8369342641464 
 20
 1.73081962756967 
 11
 98.8369342641464 
 21
 1.73081962756967 
  0
LINE
  8
0
 10
 98.8369342641464 
 20
 1.73081962756967 
 11
 98.8369342641464 
 21
 1.73081962756967 
  0
LINE
  8
0
 10
 98.8369342641464 
 20
 1.73081962756967 
 11
 101.513885228262 
 21
 1.74959207472335 
  0
LINE
  8
0
 10
 101.513885228262 
 20
 1.74959207472335 
 11
 104.202099660669 
 21
 1.77587350073851 
  0
LINE
  8
0
 10
 104.202099660669 
 20
 1.77587350073851 
 11
 106.897823071938 
 21
 1.79464594789219 
  0
LINE
  8
0
 10
 106.897823071938 
 20
 1.79464594789219 
 11
 109.60856444093 
 21
 1.81717288447661 
  0
LINE
  8
0
 10
 109.60856444093 
 20
 1.81717288447661 
 11
 112.338078257076 
 21
 1.8359453316303 
  0
LINE
  8
0
 10
 112.338078257076 
 20
 1.8359453316303 
 11
 115.090119009806 
 21
 1.85471777878398 
  0
LINE
  8
0
 10
 115.090119009806 
 20
 1.85471777878398 
 11
 117.86093220969 
 21
 1.87349022593767 
  0
LINE
  8
0
 10
 117.86093220969 
 20
 1.87349022593767 
 11
 120.661781325019 
 21
 1.89226267309135 
  0
LINE
  8
0
 10
 120.661781325019 
 20
 1.89226267309135 
 11
 123.500175334656 
 21
 1.91103512024503 
  0
LINE
  8
0
 10
 123.500175334656 
 20
 1.91103512024503 
 11
 126.37235974917 
 21
 1.92980756739872 
  0
LINE
  8
0
 10
 126.37235974917 
 20
 1.92980756739872 
 11
 126.37235974917 
 21
 1.92980756739872 
  0
LINE
  8
0
 10
 126.37235974917 
 20
 1.92980756739872 
 11
 126.37235974917 
 21
 1.92980756739872 
  0
LINE
  8
0
 10
 126.37235974917 
 20
 1.92980756739872 
 11
 129.27833456856 
 21
 1.9485800145524 
  0
LINE
  8
0
 10
 129.27833456856 
 20
 1.9485800145524 
 11
 132.218099792827 
 21
 1.96359797227535 
  0
LINE
  8
0
 10
 132.218099792827 
 20
 1.96359797227535 
 11
 135.184146443109 
 21
 1.9786159299983 
  0
LINE
  8
0
 10
 135.184146443109 
 20
 1.9786159299983 
 11
 138.168965540545 
 21
 1.99363388772124 
  0
LINE
  8
0
 10
 138.168965540545 
 20
 1.99363388772124 
 11
 141.172557085135 
 21
 2.01240633487493 
  0
LINE
  8
0
 10
 141.172557085135 
 20
 2.01240633487493 
 11
 144.176148629724 
 21
 2.02742429259787 
  0
LINE
  8
0
 10
 144.176148629724 
 20
 2.02742429259787 
 11
 147.179740174313 
 21
 2.03868776089008 
  0
LINE
  8
0
 10
 147.179740174313 
 20
 2.03868776089008 
 11
 150.183331718903 
 21
 2.05370571861303 
  0
LINE
  8
0
 10
 150.183331718903 
 20
 2.05370571861303 
 11
 153.168150816339 
 21
 2.06121469747451 
  0
LINE
  8
0
 10
 153.168150816339 
 20
 2.06121469747451 
 11
 156.134197466621 
 21
 2.07247816576672 
  0
LINE
  8
0
 10
 156.134197466621 
 20
 2.07247816576672 
 11
 156.134197466621 
 21
 2.07247816576672 
  0
LINE
  8
0
 10
 156.134197466621 
 20
 2.07247816576672 
 11
 156.134197466621 
 21
 2.07247816576672 
  0
LINE
  8
0
 10
 156.134197466621 
 20
 2.07247816576672 
 11
 159.081471669749 
 21
 2.08374163405893 
  0
LINE
  8
0
 10
 159.081471669749 
 20
 2.08374163405893 
 11
 162.006218936293 
 21
 2.09500510235114 
  0
LINE
  8
0
 10
 162.006218936293 
 20
 2.09500510235114 
 11
 164.923457223976 
 21
 2.09875959178187 
  0
LINE
  8
0
 10
 164.923457223976 
 20
 2.09875959178187 
 11
 167.84820449052 
 21
 2.10626857064335 
  0
LINE
  8
0
 10
 167.84820449052 
 20
 2.10626857064335 
 11
 170.776706246494 
 21
 2.11377754950482 
  0
LINE
  8
0
 10
 170.776706246494 
 20
 2.11377754950482 
 11
 173.727734939053 
 21
 2.11753203893556 
  0
LINE
  8
0
 10
 173.727734939053 
 20
 2.11753203893556 
 11
 176.708799547058 
 21
 2.12128652836629 
  0
LINE
  8
0
 10
 176.708799547058 
 20
 2.12128652836629 
 11
 179.727409049371 
 21
 2.11753203893556 
  0
LINE
  8
0
 10
 179.727409049371 
 20
 2.11753203893556 
 11
 182.787317935421 
 21
 2.11753203893556 
  0
LINE
  8
0
 10
 182.787317935421 
 20
 2.11753203893556 
 11
 185.907298652364 
 21
 2.11753203893556 
  0
LINE
  8
0
 10
 185.907298652364 
 20
 2.11753203893556 
 11
 185.907298652364 
 21
 2.11753203893556 
  0
LINE
  8
0
 10
 185.907298652364 
 20
 2.11753203893556 
 11
 185.907298652364 
 21
 2.11753203893556 
  0
LINE
  8
0
 10
 185.907298652364 
 20
 2.11753203893556 
 11
 189.083596710767 
 21
 2.11377754950482 
  0
LINE
  8
0
 10
 189.083596710767 
 20
 2.11377754950482 
 11
 192.293685174047 
 21
 2.10251408121261 
  0
LINE
  8
0
 10
 192.293685174047 
 20
 2.10251408121261 
 11
 195.503773637327 
 21
 2.09875959178187 
  0
LINE
  8
0
 10
 195.503773637327 
 20
 2.09875959178187 
 11
 198.687580674592 
 21
 2.08749612348966 
  0
LINE
  8
0
 10
 198.687580674592 
 20
 2.08749612348966 
 11
 201.803806902103 
 21
 2.07998714462819 
  0
LINE
  8
0
 10
 201.803806902103 
 20
 2.07998714462819 
 11
 204.833679872708 
 21
 2.06872367633598 
  0
LINE
  8
0
 10
 204.833679872708 
 20
 2.06872367633598 
 11
 207.739654692098 
 21
 2.05746020804377 
  0
LINE
  8
0
 10
 207.739654692098 
 20
 2.05746020804377 
 11
 210.491695444828 
 21
 2.04619673975156 
  0
LINE
  8
0
 10
 210.491695444828 
 20
 2.04619673975156 
 11
 213.052257236591 
 21
 2.03868776089008 
  0
LINE
  8
0
 10
 213.052257236591 
 20
 2.03868776089008 
 11
 215.398813130801 
 21
 2.02742429259787 
  0
LINE
  8
0
 10
 215.398813130801 
 20
 2.02742429259787 
 11
 215.398813130801 
 21
 2.02742429259787 
  0
LINE
  8
0
 10
 215.398813130801 
 20
 2.02742429259787 
 11
 215.398813130801 
 21
 2.02742429259787 
  0
LINE
  8
0
 10
 215.398813130801 
 20
 2.02742429259787 
 11
 217.505081701445 
 21
 2.01616082430566 
  0
LINE
  8
0
 10
 217.505081701445 
 20
 2.01616082430566 
 11
 219.397344374536 
 21
 2.00865184544419 
  0
LINE
  8
0
 10
 219.397344374536 
 20
 2.00865184544419 
 11
 221.10188257609 
 21
 1.99738837715198 
  0
LINE
  8
0
 10
 221.10188257609 
 20
 1.99738837715198 
 11
 222.648732221554 
 21
 1.98612490885977 
  0
LINE
  8
0
 10
 222.648732221554 
 20
 1.98612490885977 
 11
 224.079192694665 
 21
 1.9786159299983 
  0
LINE
  8
0
 10
 224.079192694665 
 20
 1.9786159299983 
 11
 225.415790932007 
 21
 1.96735246170609 
  0
LINE
  8
0
 10
 225.415790932007 
 20
 1.96735246170609 
 11
 226.692317338458 
 21
 1.95984348284461 
  0
LINE
  8
0
 10
 226.692317338458 
 20
 1.95984348284461 
 11
 227.946316808324 
 21
 1.9485800145524 
  0
LINE
  8
0
 10
 227.946316808324 
 20
 1.9485800145524 
 11
 229.20031627819 
 21
 1.93731654626019 
  0
LINE
  8
0
 10
 229.20031627819 
 20
 1.93731654626019 
 11
 230.488106152932 
 21
 1.92605307796798 
  0
LINE
  8
0
 10
 230.488106152932 
 20
 1.92605307796798 
 11
 230.488106152932 
 21
 1.92605307796798 
  0
LINE
  8
0
 10
 230.488106152932 
 20
 1.92605307796798 
 11
 230.488106152932 
 21
 1.92605307796798 
  0
LINE
  8
0
 10
 230.488106152932 
 20
 1.92605307796798 
 11
 231.843476837428 
 21
 1.91854409910651 
  0
LINE
  8
0
 10
 231.843476837428 
 20
 1.91854409910651 
 11
 233.251410373955 
 21
 1.90352614138356 
  0
LINE
  8
0
 10
 233.251410373955 
 20
 1.90352614138356 
 11
 234.715661251942 
 21
 1.89226267309135 
  0
LINE
  8
0
 10
 234.715661251942 
 20
 1.89226267309135 
 11
 236.217457024237 
 21
 1.88475369422988 
  0
LINE
  8
0
 10
 236.217457024237 
 20
 1.88475369422988 
 11
 237.753043201408 
 21
 1.86598124707619 
  0
LINE
  8
0
 10
 237.753043201408 
 20
 1.86598124707619 
 11
 239.311156315164 
 21
 1.85847226821472 
  0
LINE
  8
0
 10
 239.311156315164 
 20
 1.85847226821472 
 11
 240.880532897212 
 21
 1.84345431049177 
  0
LINE
  8
0
 10
 240.880532897212 
 20
 1.84345431049177 
 11
 242.457418458121 
 21
 1.83219084219956 
  0
LINE
  8
0
 10
 242.457418458121 
 20
 1.83219084219956 
 11
 244.0305495296 
 21
 1.81717288447661 
  0
LINE
  8
0
 10
 244.0305495296 
 20
 1.81717288447661 
 11
 245.592417132787 
 21
 1.8059094161844 
  0
LINE
  8
0
 10
 245.592417132787 
 20
 1.8059094161844 
 11
 245.592417132787 
 21
 1.8059094161844 
  0
LINE
  8
0
 10
 245.592417132787 
 20
 1.8059094161844 
 11
 245.592417132787 
 21
 1.8059094161844 
  0
LINE
  8
0
 10
 245.592417132787 
 20
 1.8059094161844 
 11
 247.135512288819 
 21
 1.79089145846146 
  0
LINE
  8
0
 10
 247.135512288819 
 20
 1.79089145846146 
 11
 248.656080508268 
 21
 1.77962799016925 
  0
LINE
  8
0
 10
 248.656080508268 
 20
 1.77962799016925 
 11
 250.161630769993 
 21
 1.7646100324463 
  0
LINE
  8
0
 10
 250.161630769993 
 20
 1.7646100324463 
 11
 251.652163073996 
 21
 1.75334656415409 
  0
LINE
  8
0
 10
 251.652163073996 
 20
 1.75334656415409 
 11
 253.131431909706 
 21
 1.74208309586188 
  0
LINE
  8
0
 10
 253.131431909706 
 20
 1.74208309586188 
 11
 254.599437277124 
 21
 1.72706513813893 
  0
LINE
  8
0
 10
 254.599437277124 
 20
 1.72706513813893 
 11
 256.05617917625 
 21
 1.71580166984672 
  0
LINE
  8
0
 10
 256.05617917625 
 20
 1.71580166984672 
 11
 257.509166585945 
 21
 1.70078371212377 
  0
LINE
  8
0
 10
 257.509166585945 
 20
 1.70078371212377 
 11
 258.954645016779 
 21
 1.68952024383156 
  0
LINE
  8
0
 10
 258.954645016779 
 20
 1.68952024383156 
 11
 260.400123447613 
 21
 1.67450228610861 
  0
LINE
  8
0
 10
 260.400123447613 
 20
 1.67450228610861 
 11
 260.400123447613 
 21
 1.67450228610861 
  0
LINE
  8
0
 10
 260.400123447613 
 20
 1.67450228610861 
 11
 260.711746070364 
 21
 .938622357684201 
  0
LINE
  8
0
 10
 260.711746070364 
 20
 .938622357684201 
 11
 260.711746070364 
 21
 .938622357684201 
  0
LINE
  8
0
 10
 260.711746070364 
 20
 .938622357684201 
 11
 259.255004171238 
 21
 .859778079638728 
  0
LINE
  8
0
 10
 259.255004171238 
 20
 .859778079638728 
 11
 257.798262272112 
 21
 .780933801593255 
  0
LINE
  8
0
 10
 257.798262272112 
 20
 .780933801593255 
 11
 256.337765883555 
 21
 .698335034117046 
  0
LINE
  8
0
 10
 256.337765883555 
 20
 .698335034117046 
 11
 254.866006026706 
 21
 .619490756071573 
  0
LINE
  8
0
 10
 254.866006026706 
 20
 .619490756071573 
 11
 253.390491680427 
 21
 .536891988595363 
  0
LINE
  8
0
 10
 253.390491680427 
 20
 .536891988595363 
 11
 251.903713865855 
 21
 .454293221119153 
  0
LINE
  8
0
 10
 251.903713865855 
 20
 .454293221119153 
 11
 250.405672582991 
 21
 .37544894307368 
  0
LINE
  8
0
 10
 250.405672582991 
 20
 .37544894307368 
 11
 248.888858852973 
 21
 .296604665028208 
  0
LINE
  8
0
 10
 248.888858852973 
 20
 .296604665028208 
 11
 247.357027165233 
 21
 .214005897551998 
  0
LINE
  8
0
 10
 247.357027165233 
 20
 .214005897551998 
 11
 245.806423030339 
 21
 .131407130075788 
  0
LINE
  8
0
 10
 245.806423030339 
 20
 .131407130075788 
 11
 245.806423030339 
 21
 .131407130075788 
  0
LINE
  8
0
 10
 245.806423030339 
 20
 .131407130075788 
 11
 245.806423030339 
 21
 .131407130075788 
  0
LINE
  8
0
 10
 245.806423030339 
 20
 .131407130075788 
 11
 244.23329195886 
 21
 5.63173414610521E-02 
  0
LINE
  8
0
 10
 244.23329195886 
 20
 5.63173414610521E-02 
 11
 242.65265190852 
 21
-2.25269365844208E-02 
  0
LINE
  8
0
 10
 242.65265190852 
 20
-2.25269365844208E-02 
 11
 241.064502879318 
 21
-.101371214629894 
  0
LINE
  8
0
 10
 241.064502879318 
 20
-.101371214629894 
 11
 239.483862828978 
 21
-.180215492675367 
  0
LINE
  8
0
 10
 239.483862828978 
 20
-.180215492675367 
 11
 237.918240736361 
 21
-.255305281290103 
  0
LINE
  8
0
 10
 237.918240736361 
 20
-.255305281290103 
 11
 236.375145580328 
 21
-.330395069904839 
  0
LINE
  8
0
 10
 236.375145580328 
 20
-.330395069904839 
 11
 234.85833185031 
 21
-.401730369088838 
  0
LINE
  8
0
 10
 234.85833185031 
 20
-.401730369088838 
 11
 233.386571993461 
 21
-.473065668272837 
  0
LINE
  8
0
 10
 233.386571993461 
 20
-.473065668272837 
 11
 231.967374988643 
 21
-.544400967456837 
  0
LINE
  8
0
 10
 231.967374988643 
 20
-.544400967456837 
 11
 230.604495325285 
 21
-.608227287779362 
  0
LINE
  8
0
 10
 230.604495325285 
 20
-.608227287779362 
 11
 230.604495325285 
 21
-.608227287779362 
  0
LINE
  8
0
 10
 230.604495325285 
 20
-.608227287779362 
 11
 230.604495325285 
 21
-.608227287779362 
  0
LINE
  8
0
 10
 230.604495325285 
 20
-.608227287779362 
 11
 229.30168749282 
 21
-.672053608101888 
  0
LINE
  8
0
 10
 229.30168749282 
 20
-.672053608101888 
 11
 228.032670065231 
 21
-.732125438993677 
  0
LINE
  8
0
 10
 228.032670065231 
 20
-.732125438993677 
 11
 226.771161616503 
 21
-.792197269885466 
  0
LINE
  8
0
 10
 226.771161616503 
 20
-.792197269885466 
 11
 225.48337174176 
 21
-.848514611346518 
  0
LINE
  8
0
 10
 225.48337174176 
 20
-.848514611346518 
 11
 224.135510036126 
 21
-.90483195280757 
  0
LINE
  8
0
 10
 224.135510036126 
 20
-.90483195280757 
 11
 222.697540584154 
 21
-.957394804837885 
  0
LINE
  8
0
 10
 222.697540584154 
 20
-.957394804837885 
 11
 221.135672980967 
 21
-1.01746663572967 
  0
LINE
  8
0
 10
 221.135672980967 
 20
-1.01746663572967 
 11
 219.423625800551 
 21
-1.07378397719073 
  0
LINE
  8
0
 10
 219.423625800551 
 20
-1.07378397719073 
 11
 217.527608638029 
 21
-1.13010131865178 
  0
LINE
  8
0
 10
 217.527608638029 
 20
-1.13010131865178 
 11
 215.413831088524 
 21
-1.18641866011283 
  0
LINE
  8
0
 10
 215.413831088524 
 20
-1.18641866011283 
 11
 215.413831088524 
 21
-1.18641866011283 
  0
LINE
  8
0
 10
 215.413831088524 
 20
-1.18641866011283 
 11
 215.413831088524 
 21
-1.18641866011283 
  0
LINE
  8
0
 10
 215.413831088524 
 20
-1.18641866011283 
 11
 213.063520704883 
 21
-1.25024498043536 
  0
LINE
  8
0
 10
 213.063520704883 
 20
-1.25024498043536 
 11
 210.49920442369 
 21
-1.31407130075788 
  0
LINE
  8
0
 10
 210.49920442369 
 20
-1.31407130075788 
 11
 207.74716367096 
 21
-1.37414313164967 
  0
LINE
  8
0
 10
 207.74716367096 
 20
-1.37414313164967 
 11
 204.841188851569 
 21
-1.43421496254146 
  0
LINE
  8
0
 10
 204.841188851569 
 20
-1.43421496254146 
 11
 201.815070370395 
 21
-1.49428679343325 
  0
LINE
  8
0
 10
 201.815070370395 
 20
-1.49428679343325 
 11
 198.691335164022 
 21
-1.5506041348943 
  0
LINE
  8
0
 10
 198.691335164022 
 20
-1.5506041348943 
 11
 195.515037105619 
 21
-1.60316698692462 
  0
LINE
  8
0
 10
 195.515037105619 
 20
-1.60316698692462 
 11
 192.304948642339 
 21
-1.65197534952419 
  0
LINE
  8
0
 10
 192.304948642339 
 20
-1.65197534952419 
 11
 189.09861466849 
 21
-1.6932747332623 
  0
LINE
  8
0
 10
 189.09861466849 
 20
-1.6932747332623 
 11
 185.922316610087 
 21
-1.73081962756967 
  0
LINE
  8
0
 10
 185.922316610087 
 20
-1.73081962756967 
 11
 185.922316610087 
 21
-1.73081962756967 
  0
LINE
  8
0
 10
 185.922316610087 
 20
-1.73081962756967 
 11
 185.922316610087 
 21
-1.73081962756967 
  0
LINE
  8
0
 10
 185.922316610087 
 20
-1.73081962756967 
 11
 182.806090382575 
 21
-1.76085554301556 
  0
LINE
  8
0
 10
 182.806090382575 
 20
-1.76085554301556 
 11
 179.746181496525 
 21
-1.78338247959998 
  0
LINE
  8
0
 10
 179.746181496525 
 20
-1.78338247959998 
 11
 176.731326483643 
 21
-1.79840043732293 
  0
LINE
  8
0
 10
 176.731326483643 
 20
-1.79840043732293 
 11
 173.754016365069 
 21
-1.80966390561514 
  0
LINE
  8
0
 10
 173.754016365069 
 20
-1.80966390561514 
 11
 170.802987672509 
 21
-1.81717288447661 
  0
LINE
  8
0
 10
 170.802987672509 
 20
-1.81717288447661 
 11
 167.870731427104 
 21
-1.82092737390735 
  0
LINE
  8
0
 10
 167.870731427104 
 20
-1.82092737390735 
 11
 164.949738649991 
 21
-1.82468186333809 
  0
LINE
  8
0
 10
 164.949738649991 
 20
-1.82468186333809 
 11
 162.028745872878 
 21
-1.82468186333809 
  0
LINE
  8
0
 10
 162.028745872878 
 20
-1.82468186333809 
 11
 159.100244116903 
 21
-1.82468186333809 
  0
LINE
  8
0
 10
 159.100244116903 
 20
-1.82468186333809 
 11
 156.156724403205 
 21
-1.82468186333809 
  0
LINE
  8
0
 10
 156.156724403205 
 20
-1.82468186333809 
 11
 156.156724403205 
 21
-1.82468186333809 
  0
LINE
  8
0
 10
 156.156724403205 
 20
-1.82468186333809 
 11
 156.156724403205 
 21
-1.82468186333809 
  0
LINE
  8
0
 10
 156.156724403205 
 20
-1.82468186333809 
 11
 153.186923263492 
 21
-1.82468186333809 
  0
LINE
  8
0
 10
 153.186923263492 
 20
-1.82468186333809 
 11
 150.202104166057 
 21
-1.82843635276882 
  0
LINE
  8
0
 10
 150.202104166057 
 20
-1.82843635276882 
 11
 147.198512621467 
 21
-1.8359453316303 
  0
LINE
  8
0
 10
 147.198512621467 
 20
-1.8359453316303 
 11
 144.194921076878 
 21
-1.83969982106103 
  0
LINE
  8
0
 10
 144.194921076878 
 20
-1.83969982106103 
 11
 141.183820553427 
 21
-1.84720879992251 
  0
LINE
  8
0
 10
 141.183820553427 
 20
-1.84720879992251 
 11
 138.187737987699 
 21
-1.86222675764546 
  0
LINE
  8
0
 10
 138.187737987699 
 20
-1.86222675764546 
 11
 135.202918890263 
 21
-1.87349022593767 
  0
LINE
  8
0
 10
 135.202918890263 
 20
-1.87349022593767 
 11
 132.23311775055 
 21
-1.88850818366061 
  0
LINE
  8
0
 10
 132.23311775055 
 20
-1.88850818366061 
 11
 129.297107015714 
 21
-1.91103512024503 
  0
LINE
  8
0
 10
 129.297107015714 
 20
-1.91103512024503 
 11
 126.391132196324 
 21
-1.92980756739872 
  0
LINE
  8
0
 10
 126.391132196324 
 20
-1.92980756739872 
 11
 126.391132196324 
 21
-1.92980756739872 
  0
LINE
  8
0
 10
 126.391132196324 
 20
-1.92980756739872 
 11
 126.391132196324 
 21
-1.92980756739872 
  0
LINE
  8
0
 10
 126.391132196324 
 20
-1.92980756739872 
 11
 123.522702271241 
 21
-1.95984348284461 
  0
LINE
  8
0
 10
 123.522702271241 
 20
-1.95984348284461 
 11
 120.695571729896 
 21
-1.98612490885977 
  0
LINE
  8
0
 10
 120.695571729896 
 20
-1.98612490885977 
 11
 117.894722614566 
 21
-2.0199153137364 
  0
LINE
  8
0
 10
 117.894722614566 
 20
-2.0199153137364 
 11
 115.120154925252 
 21
-2.05746020804377 
  0
LINE
  8
0
 10
 115.120154925252 
 20
-2.05746020804377 
 11
 112.375623151383 
 21
-2.09500510235114 
  0
LINE
  8
0
 10
 112.375623151383 
 20
-2.09500510235114 
 11
 109.646109335238 
 21
-2.1325499966585 
  0
LINE
  8
0
 10
 109.646109335238 
 20
-2.1325499966585 
 11
 106.935367966246 
 21
-2.17009489096587 
  0
LINE
  8
0
 10
 106.935367966246 
 20
-2.17009489096587 
 11
 104.235890065546 
 21
-2.21139427470398 
  0
LINE
  8
0
 10
 104.235890065546 
 20
-2.21139427470398 
 11
 101.547675633138 
 21
-2.25644814787282 
  0
LINE
  8
0
 10
 101.547675633138 
 20
-2.25644814787282 
 11
 98.8594612007308 
 21
-2.29399304218019 
  0
LINE
  8
0
 10
 98.8594612007308 
 20
-2.29399304218019 
 11
 98.8594612007308 
 21
-2.29399304218019 
  0
LINE
  8
0
 10
 98.8594612007308 
 20
-2.29399304218019 
 11
 98.8594612007308 
 21
-2.29399304218019 
  0
LINE
  8
0
 10
 98.8594612007308 
 20
-2.29399304218019 
 11
 96.1712467683232 
 21
-2.33529242591829 
  0
LINE
  8
0
 10
 96.1712467683232 
 20
-2.33529242591829 
 11
 93.4792778464849 
 21
-2.37283732022566 
  0
LINE
  8
0
 10
 93.4792778464849 
 20
-2.37283732022566 
 11
 90.7760454563544 
 21
-2.41413670396377 
  0
LINE
  8
0
 10
 90.7760454563544 
 20
-2.41413670396377 
 11
 88.0540406190703 
 21
-2.4479271088404 
  0
LINE
  8
0
 10
 88.0540406190703 
 20
-2.4479271088404 
 11
 85.3132633346324 
 21
-2.47796302428629 
  0
LINE
  8
0
 10
 85.3132633346324 
 20
-2.47796302428629 
 11
 82.5349411558872 
 21
-2.50424445030145 
  0
LINE
  8
0
 10
 82.5349411558872 
 20
-2.50424445030145 
 11
 79.726583061696 
 21
-2.52301689745513 
  0
LINE
  8
0
 10
 79.726583061696 
 20
-2.52301689745513 
 11
 76.8769255837668 
 21
-2.53428036574734 
  0
LINE
  8
0
 10
 76.8769255837668 
 20
-2.53428036574734 
 11
 73.9747052538072 
 21
-2.53803485517808 
  0
LINE
  8
0
 10
 73.9747052538072 
 20
-2.53803485517808 
 11
 71.0199220718174 
 21
-2.53052587631661 
  0
LINE
  8
0
 10
 71.0199220718174 
 20
-2.53052587631661 
 11
 71.0199220718174 
 21
-2.53052587631661 
  0
LINE
  8
0
 10
 71.0199220718174 
 20
-2.53052587631661 
 11
 71.0199220718174 
 21
-2.53052587631661 
  0
LINE
  8
0
 10
 71.0199220718174 
 20
-2.53052587631661 
 11
 68.0125760377972 
 21
-2.51550791859366 
  0
LINE
  8
0
 10
 68.0125760377972 
 20
-2.51550791859366 
 11
 64.9751940883311 
 21
-2.49298098200924 
  0
LINE
  8
0
 10
 64.9751940883311 
 20
-2.49298098200924 
 11
 61.9378121388651 
 21
-2.45919057713261 
  0
LINE
  8
0
 10
 61.9378121388651 
 20
-2.45919057713261 
 11
 58.9342205942756 
 21
-2.4178911933945 
  0
LINE
  8
0
 10
 58.9342205942756 
 20
-2.4178911933945 
 11
 55.9831919017165 
 21
-2.37283732022566 
  0
LINE
  8
0
 10
 55.9831919017165 
 20
-2.37283732022566 
 11
 53.122270955495 
 21
-2.32402895762608 
  0
LINE
  8
0
 10
 53.122270955495 
 20
-2.32402895762608 
 11
 50.3814936710572 
 21
-2.26771161616503 
  0
LINE
  8
0
 10
 50.3814936710572 
 20
-2.26771161616503 
 11
 47.787141474418 
 21
-2.21514876413471 
  0
LINE
  8
0
 10
 47.787141474418 
 20
-2.21514876413471 
 11
 45.3692502810235 
 21
-2.15507693324293 
  0
LINE
  8
0
 10
 45.3692502810235 
 20
-2.15507693324293 
 11
 43.1616104957503 
 21
-2.10251408121261 
  0
LINE
  8
0
 10
 43.1616104957503 
 20
-2.10251408121261 
 11
 43.1616104957503 
 21
-2.10251408121261 
  0
LINE
  8
0
 10
 43.1616104957503 
 20
-2.10251408121261 
 11
 43.1616104957503 
 21
-2.10251408121261 
  0
LINE
  8
0
 10
 43.1616104957503 
 20
-2.10251408121261 
 11
 41.182994565752 
 21
-2.04244225032082 
  0
LINE
  8
0
 10
 41.182994565752 
 20
-2.04244225032082 
 11
 39.4071210650135 
 21
-1.98612490885977 
  0
LINE
  8
0
 10
 39.4071210650135 
 20
-1.98612490885977 
 11
 37.8114630569504 
 21
-1.92980756739872 
  0
LINE
  8
0
 10
 37.8114630569504 
 20
-1.92980756739872 
 11
 36.3547211578245 
 21
-1.86973573650693 
  0
LINE
  8
0
 10
 36.3547211578245 
 20
-1.86973573650693 
 11
 35.0181229204822 
 21
-1.81341839504588 
  0
LINE
  8
0
 10
 35.0181229204822 
 20
-1.81341839504588 
 11
 33.7678779400468 
 21
-1.75334656415409 
  0
LINE
  8
0
 10
 33.7678779400468 
 20
-1.75334656415409 
 11
 32.566441322211 
 21
-1.6932747332623 
  0
LINE
  8
0
 10
 32.566441322211 
 20
-1.6932747332623 
 11
 31.3912861303904 
 21
-1.62944841293977 
  0
LINE
  8
0
 10
 31.3912861303904 
 20
-1.62944841293977 
 11
 30.2086219597083 
 21
-1.56562209261725 
  0
LINE
  8
0
 10
 30.2086219597083 
 20
-1.56562209261725 
 11
 28.9884128947189 
 21
-1.49804128286399 
  0
LINE
  8
0
 10
 28.9884128947189 
 20
-1.49804128286399 
 11
 28.9884128947189 
 21
-1.49804128286399 
  0
LINE
  8
0
 10
 28.9884128947189 
 20
-1.49804128286399 
 11
 28.9884128947189 
 21
-1.49804128286399 
  0
LINE
  8
0
 10
 28.9884128947189 
 20
-1.49804128286399 
 11
 27.7043775094069 
 21
-1.42295149424925 
  0
LINE
  8
0
 10
 27.7043775094069 
 20
-1.42295149424925 
 11
 26.3640247826338 
 21
-1.35161619506525 
  0
LINE
  8
0
 10
 26.3640247826338 
 20
-1.35161619506525 
 11
 24.9711092038305 
 21
-1.27277191701978 
  0
LINE
  8
0
 10
 24.9711092038305 
 20
-1.27277191701978 
 11
 23.536894241289 
 21
-1.1939276389743 
  0
LINE
  8
0
 10
 23.536894241289 
 20
-1.1939276389743 
 11
 22.0651343844402 
 21
-1.11508336092883 
  0
LINE
  8
0
 10
 22.0651343844402 
 20
-1.11508336092883 
 11
 20.570847591007 
 21
-1.03248459345262 
  0
LINE
  8
0
 10
 20.570847591007 
 20
-1.03248459345262 
 11
 19.05778835042 
 21
-.953640315407148 
  0
LINE
  8
0
 10
 19.05778835042 
 20
-.953640315407148 
 11
 17.5372201309716 
 21
-.871041547930939 
  0
LINE
  8
0
 10
 17.5372201309716 
 20
-.871041547930939 
 11
 16.0128974220925 
 21
-.792197269885466 
  0
LINE
  8
0
 10
 16.0128974220925 
 20
-.792197269885466 
 11
 14.4998381815055 
 21
-.713352991839993 
  0
LINE
  8
0
 10
 14.4998381815055 
 20
-.713352991839993 
 11
 14.4998381815055 
 21
-.713352991839993 
  0
LINE
  8
0
 10
 14.4998381815055 
 20
-.713352991839993 
 11
 14.4998381815055 
 21
-.713352991839993 
  0
LINE
  8
0
 10
 14.4998381815055 
 20
-.713352991839993 
 11
 13.0017968986416 
 21
-.63450871379452 
  0
LINE
  8
0
 10
 13.0017968986416 
 20
-.63450871379452 
 11
 11.5187735735005 
 21
-.559418925179784 
  0
LINE
  8
0
 10
 11.5187735735005 
 20
-.559418925179784 
 11
 10.0507682060824 
 21
-.484329136565048 
  0
LINE
  8
0
 10
 10.0507682060824 
 20
-.484329136565048 
 11
 8.59027181752581 
 21
-.412993837381048 
  0
LINE
  8
0
 10
 8.59027181752581 
 20
-.412993837381048 
 11
 7.14479338669214 
 21
-.341658538197049 
  0
LINE
  8
0
 10
 7.14479338669214 
 20
-.341658538197049 
 11
 5.70682393471994 
 21
-.274077728443787 
  0
LINE
  8
0
 10
 5.70682393471994 
 20
-.274077728443787 
 11
 4.27260897217848 
 21
-.206496918690524 
  0
LINE
  8
0
 10
 4.27260897217848 
 20
-.206496918690524 
 11
 2.84214849906776 
 21
-.135161619506525 
  0
LINE
  8
0
 10
 2.84214849906776 
 20
-.135161619506525 
 11
 1.42295149424925 
 21
-6.75808097532625E-02 
  0
LINE
  8
0
 10
 1.42295149424925 
 20
-6.75808097532625E-02 
 11
 0 
 21
 0 
  0
LINE
  8
0
 10
 0 
 20
 0 
 11
 0 
 21
 0 
  0
ENDSEC
  0
EOF
