  0
SECTION
  2
ENTITIES
  0
LINE
  8
0
 10
 0 
 20
 0 
 11
-3.7544894307368E-03 
 21
 7.50897886147361E-03 
  0
LINE
  8
0
 10
 11.0231809686433 
 20
 3.60806434293807 
 11
 11.0194264792125 
 21
 3.61557332179954 
  0
LINE
  8
0
 10
 22.0501164267173 
 20
 7.21612868587614 
 11
 22.0463619372865 
 21
 7.21988317530687 
  0
LINE
  8
0
 10
 32.7842017091938 
 20
 10.7265763036151 
 11
 32.7842017091938 
 21
 10.7265763036151 
  0
LINE
  8
0
 10
 24.1301035713454 
 20
 37.1994812797403 
 11
 24.1263490819147 
 21
 37.1994812797403 
  0
LINE
  8
0
 10
 15.4797599229278 
 20
 63.6611227875732 
 11
 15.4760054334971 
 21
 63.6611227875732 
  0
LINE
  8
0
 10
 6.92327851027867 
 20
 89.8299141198088 
 11
 6.92327851027867 
 21
 89.8299141198088 
  0
LINE
  8
0
 10
-21.3630448608924 
 20
 80.5863611413348 
 11
-21.3630448608924 
 21
 80.5863611413348 
  0
LINE
  8
0
 10
-49.6643861897864 
 20
 71.33905367343 
 11
-49.6643861897864 
 21
 71.33905367343 
  0
LINE
  8
0
 10
-77.6991587690982 
 20
 62.1780994624322 
 11
-77.6991587690982 
 21
 62.1780994624322 
  0
LINE
  8
0
 10
-73.0135559595386 
 20
 47.8359498370176 
 11
-73.0135559595386 
 21
 47.8359498370176 
  0
LINE
  8
0
 10
-68.3241986605484 
 20
 33.4787822538801 
 11
-68.3241986605484 
 21
 33.4787822538801 
  0
LINE
  8
0
 10
 .326640580474102 
 20
 .405484858519575 
 11
 .17646100324463 
 21
 .356676495919996 
  0
LINE
  8
0
 10
 .17646100324463 
 20
 .356676495919996 
 11
 .214005897551998 
 21
 .240287323567155 
  0
LINE
  8
0
 10
 .214005897551998 
 20
 .240287323567155 
 11
 .334149559335576 
 21
 .277832217874523 
  0
LINE
  8
0
 10
 .334149559335576 
 20
 .277832217874523 
 11
 .214005897551998 
 21
 .240287323567155 
  0
LINE
  8
0
 10
 .214005897551998 
 20
 .240287323567155 
 11
 .255305281290103 
 21
 .120143661783578 
  0
LINE
  8
0
 10
 33.0395069904839 
 20
 10.8429654759679 
 11
 32.9606627124384 
 21
 11.083252799535 
  0
LINE
  8
0
 10
 32.9606627124384 
 20
 11.083252799535 
 11
 33.0845608636527 
 21
 11.1207976938424 
  0
LINE
  8
0
 10
 33.0845608636527 
 20
 11.1207976938424 
 11
 33.1221057579601 
 21
 11.1020252466887 
  0
LINE
  8
0
 10
 33.1221057579601 
 20
 11.1020252466887 
 11
 33.1408782051138 
 21
 11.0419534157969 
  0
LINE
  8
0
 10
 33.1408782051138 
 20
 11.0419534157969 
 11
 33.1221057579601 
 21
 11.0044085214896 
  0
LINE
  8
0
 10
 33.1221057579601 
 20
 11.0044085214896 
 11
 33.0019620961765 
 21
 10.9631091377515 
  0
LINE
  8
0
 10
 33.0019620961765 
 20
 10.9631091377515 
 11
 33.1221057579601 
 21
 11.0044085214896 
  0
LINE
  8
0
 10
 33.1221057579601 
 20
 11.0044085214896 
 11
 33.1596506522675 
 21
 10.9818815849052 
  0
LINE
  8
0
 10
 33.1596506522675 
 20
 10.9818815849052 
 11
 33.1784230994211 
 21
 10.9255642434441 
  0
LINE
  8
0
 10
 33.1784230994211 
 20
 10.9255642434441 
 11
 33.1634051416982 
 21
 10.884264859706 
  0
LINE
  8
0
 10
 33.1634051416982 
 20
 10.884264859706 
 11
 33.0395069904839 
 21
 10.8429654759679 
  0
LINE
  8
0
 10
 33.2009500360056 
 20
 11.1620970775805 
 11
 33.279794314051 
 21
 10.9218097540134 
  0
LINE
  8
0
 10
 33.279794314051 
 20
 10.9218097540134 
 11
 33.2384949303129 
 21
 11.0419534157969 
  0
LINE
  8
0
 10
 33.2384949303129 
 20
 11.0419534157969 
 11
 33.3886745075424 
 21
 11.0907617783965 
  0
LINE
  8
0
 10
 33.3886745075424 
 20
 11.0907617783965 
 11
 33.4299738912805 
 21
 10.9706181166129 
  0
LINE
  8
0
 10
 33.4299738912805 
 20
 10.9706181166129 
 11
 33.351129613235 
 21
 11.2109054401801 
  0
LINE
  8
0
 10
 33.4787822538801 
 20
 11.2184144190416 
 11
 33.4975547010338 
 21
 11.2559593133489 
  0
LINE
  8
0
 10
 33.4975547010338 
 20
 11.2559593133489 
 11
 33.5763989790792 
 21
 11.0194264792125 
  0
LINE
  8
0
 10
 33.5763989790792 
 20
 11.0194264792125 
 11
 33.5463630636333 
 21
 11.0081630109203 
  0
LINE
  8
0
 10
 33.5463630636333 
 20
 11.0081630109203 
 11
 33.6064348945251 
 21
 11.0306899475047 
  0
LINE
  8
0
 10
 7.18233828099951 
 20
 89.9500577815923 
 11
 7.10349400295403 
 21
 90.1865906157288 
  0
LINE
  8
0
 10
 7.10349400295403 
 20
 90.1865906157288 
 11
 7.22363766473761 
 21
 90.2241355100361 
  0
LINE
  8
0
 10
 7.22363766473761 
 20
 90.2241355100361 
 11
 7.26493704847572 
 21
 90.2053630628824 
  0
LINE
  8
0
 10
 7.26493704847572 
 20
 90.2053630628824 
 11
 7.2837094956294 
 21
 90.1452912319907 
  0
LINE
  8
0
 10
 7.2837094956294 
 20
 90.1452912319907 
 11
 7.26118255904498 
 21
 90.1077463376833 
  0
LINE
  8
0
 10
 7.26118255904498 
 20
 90.1077463376833 
 11
 7.14479338669214 
 21
 90.0664469539452 
  0
LINE
  8
0
 10
 7.14479338669214 
 20
 90.0664469539452 
 11
 7.26118255904498 
 21
 90.1077463376833 
  0
LINE
  8
0
 10
 7.26118255904498 
 20
 90.1077463376833 
 11
 7.30248194278308 
 21
 90.0889738905296 
  0
LINE
  8
0
 10
 7.30248194278308 
 20
 90.0889738905296 
 11
 7.32125438993677 
 21
 90.0289020596378 
  0
LINE
  8
0
 10
 7.32125438993677 
 20
 90.0289020596378 
 11
 7.29872745335235 
 21
 89.9876026758997 
  0
LINE
  8
0
 10
 7.29872745335235 
 20
 89.9876026758997 
 11
 7.18233828099951 
 21
 89.9500577815923 
  0
LINE
  8
0
 10
 7.34378132652119 
 20
 90.2654348937742 
 11
 7.42262560456666 
 21
 90.0289020596378 
  0
LINE
  8
0
 10
 7.42262560456666 
 20
 90.0289020596378 
 11
 7.38132622082856 
 21
 90.1452912319907 
  0
LINE
  8
0
 10
 7.38132622082856 
 20
 90.1452912319907 
 11
 7.52775130862729 
 21
 90.1940995945902 
  0
LINE
  8
0
 10
 7.52775130862729 
 20
 90.1940995945902 
 11
 7.5690506923654 
 21
 90.0777104222374 
  0
LINE
  8
0
 10
 7.5690506923654 
 20
 90.0777104222374 
 11
 7.49020641431992 
 21
 90.3104887669431 
  0
LINE
  8
0
 10
 7.58782313951908 
 20
 90.3104887669431 
 11
 7.6103500761035 
 21
 90.3517881506812 
  0
LINE
  8
0
 10
 7.6103500761035 
 20
 90.3517881506812 
 11
 7.70045782244118 
 21
 90.3818240661271 
  0
LINE
  8
0
 10
 7.70045782244118 
 20
 90.3818240661271 
 11
 7.73800271674855 
 21
 90.3630516189734 
  0
LINE
  8
0
 10
 7.73800271674855 
 20
 90.3630516189734 
 11
 7.75677516390224 
 21
 90.2992252986509 
  0
LINE
  8
0
 10
 7.75677516390224 
 20
 90.2992252986509 
 11
 7.73800271674855 
 21
 90.2616804043435 
  0
LINE
  8
0
 10
 7.73800271674855 
 20
 90.2616804043435 
 11
 7.65540394927234 
 21
 90.1039918482526 
  0
LINE
  8
0
 10
 7.65540394927234 
 20
 90.1039918482526 
 11
 7.80558352650182 
 21
 90.1528002108521 
  0
LINE
  8
0
 10
 7.80558352650182 
 20
 90.1528002108521 
 11
 7.79807454764034 
 21
 90.182836126298 
  0
LINE
  8
0
 10
 7.26118255904498 
 20
 89.7097704580252 
 11
 7.41136213627445 
 21
 89.7585788206248 
  0
LINE
  8
0
 10
 7.41136213627445 
 20
 89.7585788206248 
 11
 7.32125438993677 
 21
 89.7322973946096 
  0
LINE
  8
0
 10
 7.32125438993677 
 20
 89.7322973946096 
 11
 7.40009866798224 
 21
 89.4920100710424 
  0
LINE
  8
0
 10
 7.10349400295403 
 20
 90.1865906157288 
 11
 7.0284042143393 
 21
 90.4231234498652 
  0
LINE
  8
0
 10
 7.0284042143393 
 20
 90.4231234498652 
 11
 7.14479338669214 
 21
 90.4644228336033 
  0
LINE
  8
0
 10
 7.14479338669214 
 20
 90.4644228336033 
 11
 7.18609277043024 
 21
 90.4418958970189 
  0
LINE
  8
0
 10
 7.18609277043024 
 20
 90.4418958970189 
 11
 7.20486521758393 
 21
 90.3855785555578 
  0
LINE
  8
0
 10
 7.20486521758393 
 20
 90.3855785555578 
 11
 7.18233828099951 
 21
 90.340524682389 
  0
LINE
  8
0
 10
 7.18233828099951 
 20
 90.340524682389 
 11
 7.06594910864666 
 21
 90.3029797880816 
  0
LINE
  8
0
 10
 7.06594910864666 
 20
 90.3029797880816 
 11
 7.18233828099951 
 21
 90.340524682389 
  0
LINE
  8
0
 10
 7.18233828099951 
 20
 90.340524682389 
 11
 7.22739215416835 
 21
 90.325506724666 
  0
LINE
  8
0
 10
 7.22739215416835 
 20
 90.325506724666 
 11
 7.24241011189129 
 21
 90.2654348937742 
  0
LINE
  8
0
 10
 7.24241011189129 
 20
 90.2654348937742 
 11
 7.22363766473761 
 21
 90.2241355100361 
  0
LINE
  8
0
 10
 7.22363766473761 
 20
 90.2241355100361 
 11
 7.10349400295403 
 21
 90.1865906157288 
  0
LINE
  8
0
 10
-77.4400989983773 
 20
 62.2944886347851 
 11
-77.5189432764228 
 21
 62.5347759583522 
  0
LINE
  8
0
 10
-77.5189432764228 
 20
 62.5347759583522 
 11
-77.3987996146392 
 21
 62.5723208526596 
  0
LINE
  8
0
 10
-77.3987996146392 
 20
 62.5723208526596 
 11
-77.3612547203318 
 21
 62.5535484055059 
  0
LINE
  8
0
 10
-77.3612547203318 
 20
 62.5535484055059 
 11
-77.3424822731782 
 21
 62.4934765746141 
  0
LINE
  8
0
 10
-77.3424822731782 
 20
 62.4934765746141 
 11
-77.3612547203318 
 21
 62.4559316803067 
  0
LINE
  8
0
 10
-77.3612547203318 
 20
 62.4559316803067 
 11
-77.4813983821154 
 21
 62.4146322965686 
  0
LINE
  8
0
 10
-77.4813983821154 
 20
 62.4146322965686 
 11
-77.3612547203318 
 21
 62.4559316803067 
  0
LINE
  8
0
 10
-77.3612547203318 
 20
 62.4559316803067 
 11
-77.3237098260245 
 21
 62.4334047437223 
  0
LINE
  8
0
 10
-77.3237098260245 
 20
 62.4334047437223 
 11
-77.3049373788708 
 21
 62.3733329128305 
  0
LINE
  8
0
 10
-77.3049373788708 
 20
 62.3733329128305 
 11
-77.3237098260245 
 21
 62.3320335290924 
  0
LINE
  8
0
 10
-77.3237098260245 
 20
 62.3320335290924 
 11
-77.4400989983773 
 21
 62.2944886347851 
  0
LINE
  8
0
 10
-77.2824104422864 
 20
 62.6098657469669 
 11
-77.2035661642409 
 21
 62.3733329128305 
  0
LINE
  8
0
 10
-77.2035661642409 
 20
 62.3733329128305 
 11
-77.244865547979 
 21
 62.4934765746141 
  0
LINE
  8
0
 10
-77.244865547979 
 20
 62.4934765746141 
 11
-77.0946859707495 
 21
 62.5422849372137 
  0
LINE
  8
0
 10
-77.0946859707495 
 20
 62.5422849372137 
 11
-77.0533865870114 
 21
 62.4221412754301 
  0
LINE
  8
0
 10
-77.0533865870114 
 20
 62.4221412754301 
 11
-77.1322308650569 
 21
 62.6586741095665 
  0
LINE
  8
0
 10
-77.0346141398577 
 20
 62.6624285989973 
 11
-77.0158416927041 
 21
 62.6999734933046 
  0
LINE
  8
0
 10
-77.0158416927041 
 20
 62.6999734933046 
 11
-76.9257339463664 
 21
 62.7262549193198 
  0
LINE
  8
0
 10
-76.9257339463664 
 20
 62.7262549193198 
 11
-76.888189052059 
 21
 62.7074824721661 
  0
LINE
  8
0
 10
-76.888189052059 
 20
 62.7074824721661 
 11
-76.8694166049053 
 21
 62.6474106412743 
  0
LINE
  8
0
 10
-76.8694166049053 
 20
 62.6474106412743 
 11
-76.888189052059 
 21
 62.6098657469669 
  0
LINE
  8
0
 10
-76.888189052059 
 20
 62.6098657469669 
 11
-76.9782967983967 
 21
 62.579829831521 
  0
LINE
  8
0
 10
-76.9782967983967 
 20
 62.579829831521 
 11
-76.888189052059 
 21
 62.6098657469669 
  0
LINE
  8
0
 10
-76.888189052059 
 20
 62.6098657469669 
 11
-76.8468896683209 
 21
 62.5873388103825 
  0
LINE
  8
0
 10
-76.8468896683209 
 20
 62.5873388103825 
 11
-76.8281172211672 
 21
 62.5310214689215 
  0
LINE
  8
0
 10
-76.8281172211672 
 20
 62.5310214689215 
 11
-76.8468896683209 
 21
 62.4897220851834 
  0
LINE
  8
0
 10
-76.8468896683209 
 20
 62.4897220851834 
 11
-76.9369974146586 
 21
 62.4596861697375 
  0
LINE
  8
0
 10
-76.9369974146586 
 20
 62.4596861697375 
 11
-76.974542308966 
 21
 62.4822131063219 
  0
LINE
  8
0
 10
-64.1792423290149 
 20
 19.2830577162642 
 11
-64.2468231387682 
 21
 19.4933091243855 
  0
LINE
  8
0
 10
-64.2468231387682 
 20
 19.4933091243855 
 11
-64.2280506916145 
 21
 19.5346085081236 
  0
LINE
  8
0
 10
-64.2280506916145 
 20
 19.5346085081236 
 11
-64.1416974347076 
 21
 19.5608899341388 
  0
LINE
  8
0
 10
-64.1416974347076 
 20
 19.5608899341388 
 11
-64.1003980509695 
 21
 19.5458719764158 
  0
LINE
  8
0
 10
-64.1003980509695 
 20
 19.5458719764158 
 11
-64.0703621355236 
 21
 19.4557642300781 
  0
LINE
  8
0
 10
-64.0703621355236 
 20
 19.4557642300781 
 11
-64.220541712753 
 21
 19.4069558674785 
  0
LINE
  8
0
 10
-64.220541712753 
 20
 19.4069558674785 
 11
-64.0703621355236 
 21
 19.4557642300781 
  0
LINE
  8
0
 10
-64.0703621355236 
 20
 19.4557642300781 
 11
-64.0290627517855 
 21
 19.3318660788638 
  0
LINE
  8
0
 10
 0 
 20
 0 
 11
-3.7544894307368E-03 
 21
 7.50897886147361E-03 
  0
LINE
  8
0
 10
-3.7544894307368E-03 
 20
 7.50897886147361E-03 
 11
-3.7544894307368E-03 
 21
 7.50897886147361E-03 
  0
LINE
  8
0
 10
-3.7544894307368E-03 
 20
 7.50897886147361E-03 
 11
 1.13010131865178 
 21
 .322886091043365 
  0
LINE
  8
0
 10
 1.13010131865178 
 20
 .322886091043365 
 11
 2.26771161616503 
 21
 .638263203225257 
  0
LINE
  8
0
 10
 2.26771161616503 
 20
 .638263203225257 
 11
 3.39781293481681 
 21
 .964903783699359 
  0
LINE
  8
0
 10
 3.39781293481681 
 20
 .964903783699359 
 11
 4.52415976403785 
 21
 1.2952988536042 
  0
LINE
  8
0
 10
 4.52415976403785 
 20
 1.2952988536042 
 11
 5.63924312496668 
 21
 1.64071188123198 
  0
LINE
  8
0
 10
 5.63924312496668 
 20
 1.64071188123198 
 11
 6.7430630176033 
 21
 1.99363388772124 
  0
LINE
  8
0
 10
 6.7430630176033 
 20
 1.99363388772124 
 11
 7.83561944194771 
 21
 2.36532834136419 
  0
LINE
  8
0
 10
 7.83561944194771 
 20
 2.36532834136419 
 11
 8.91315790856917 
 21
 2.75954973159155 
  0
LINE
  8
0
 10
 8.91315790856917 
 20
 2.75954973159155 
 11
 9.97943290689842 
 21
 3.17629805840334 
  0
LINE
  8
0
 10
 9.97943290689842 
 20
 3.17629805840334 
 11
 11.0194264792125 
 21
 3.61557332179954 
  0
LINE
  8
0
 10
 11.0194264792125 
 20
 3.61557332179954 
 11
 11.0194264792125 
 21
 3.61557332179954 
  0
LINE
  8
0
 10
 11.0194264792125 
 20
 3.61557332179954 
 11
 11.0194264792125 
 21
 3.61557332179954 
  0
LINE
  8
0
 10
 11.0194264792125 
 20
 3.61557332179954 
 11
 12.0444020938037 
 21
 4.07737552178017 
  0
LINE
  8
0
 10
 12.0444020938037 
 20
 4.07737552178017 
 11
 13.0618687295333 
 21
 4.55419567948374 
  0
LINE
  8
0
 10
 13.0618687295333 
 20
 4.55419567948374 
 11
 14.0755808758323 
 21
 5.03101583718732 
  0
LINE
  8
0
 10
 14.0755808758323 
 20
 5.03101583718732 
 11
 15.1005564904234 
 21
 5.49657252659868 
  0
LINE
  8
0
 10
 15.1005564904234 
 20
 5.49657252659868 
 11
 16.148059041599 
 21
 5.93584778999489 
  0
LINE
  8
0
 10
 16.148059041599 
 20
 5.93584778999489 
 11
 17.2218430187897 
 21
 6.33006918022225 
  0
LINE
  8
0
 10
 17.2218430187897 
 20
 6.33006918022225 
 11
 18.3406808691493 
 21
 6.66797322898856 
  0
LINE
  8
0
 10
 18.3406808691493 
 20
 6.66797322898856 
 11
 19.5120815715392 
 21
 6.94205095743235 
  0
LINE
  8
0
 10
 19.5120815715392 
 20
 6.94205095743235 
 11
 20.7435541048208 
 21
 7.12602093953845 
  0
LINE
  8
0
 10
 20.7435541048208 
 20
 7.12602093953845 
 11
 22.0463619372865 
 21
 7.21988317530687 
  0
LINE
  8
0
 10
 22.0463619372865 
 20
 7.21988317530687 
 11
 22.0463619372865 
 21
 7.21988317530687 
  0
LINE
  8
0
 10
 22.0463619372865 
 20
 7.21988317530687 
 11
 22.0463619372865 
 21
 7.21988317530687 
  0
LINE
  8
0
 10
 22.0463619372865 
 20
 7.21988317530687 
 11
 23.4242595583669 
 21
 7.2123741964454 
  0
LINE
  8
0
 10
 23.4242595583669 
 20
 7.2123741964454 
 11
 24.8472110526162 
 21
 7.1410388972614 
  0
LINE
  8
0
 10
 24.8472110526162 
 20
 7.1410388972614 
 11
 26.2664080574347 
 21
 7.06594910864666 
  0
LINE
  8
0
 10
 26.2664080574347 
 20
 7.06594910864666 
 11
 27.6443056785151 
 21
 7.03966768263151 
  0
LINE
  8
0
 10
 27.6443056785151 
 20
 7.03966768263151 
 11
 28.9471135109808 
 21
 7.10724849238477 
  0
LINE
  8
0
 10
 28.9471135109808 
 20
 7.10724849238477 
 11
 30.1222687028014 
 21
 7.3250088793675 
  0
LINE
  8
0
 10
 30.1222687028014 
 20
 7.3250088793675 
 11
 31.1359808491003 
 21
 7.74175720617929 
  0
LINE
  8
0
 10
 31.1359808491003 
 20
 7.74175720617929 
 11
 31.9431960767087 
 21
 8.41381081428118 
  0
LINE
  8
0
 10
 31.9431960767087 
 20
 8.41381081428118 
 11
 32.5063694913193 
 21
 9.39373255570348 
  0
LINE
  8
0
 10
 32.5063694913193 
 20
 9.39373255570348 
 11
 32.7842017091938 
 21
 10.7265763036151 
  0
LINE
  8
0
 10
 32.7842017091938 
 20
 10.7265763036151 
 11
 32.7842017091938 
 21
 10.7265763036151 
  0
LINE
  8
0
 10
 32.7842017091938 
 20
 10.7265763036151 
 11
 32.7842017091938 
 21
 10.7265763036151 
  0
LINE
  8
0
 10
 32.7842017091938 
 20
 10.7265763036151 
 11
 32.7466568148864 
 21
 12.453641441754 
  0
LINE
  8
0
 10
 32.7466568148864 
 20
 12.453641441754 
 11
 32.4200162344123 
 21
 14.5373830758129 
  0
LINE
  8
0
 10
 32.4200162344123 
 20
 14.5373830758129 
 11
 31.8455793515096 
 21
 16.9102203960386 
  0
LINE
  8
0
 10
 31.8455793515096 
 20
 16.9102203960386 
 11
 31.0571365710548 
 21
 19.5346085081236 
  0
LINE
  8
0
 10
 31.0571365710548 
 20
 19.5346085081236 
 11
 30.1034962556477 
 21
 22.339212112884 
  0
LINE
  8
0
 10
 30.1034962556477 
 20
 22.339212112884 
 11
 29.014694320734 
 21
 25.2714683582894 
  0
LINE
  8
0
 10
 29.014694320734 
 20
 25.2714683582894 
 11
 27.8357846394827 
 21
 28.2825688817403 
  0
LINE
  8
0
 10
 27.8357846394827 
 20
 28.2825688817403 
 11
 26.6005576167703 
 21
 31.3086873629142 
  0
LINE
  8
0
 10
 26.6005576167703 
 20
 31.3086873629142 
 11
 25.3540671257656 
 21
 34.3010154392114 
  0
LINE
  8
0
 10
 25.3540671257656 
 20
 34.3010154392114 
 11
 24.1263490819147 
 21
 37.1994812797403 
  0
LINE
  8
0
 10
 24.1263490819147 
 20
 37.1994812797403 
 11
 24.1263490819147 
 21
 37.1994812797403 
  0
LINE
  8
0
 10
 24.1263490819147 
 20
 37.1994812797403 
 11
 24.1263490819147 
 21
 37.1994812797403 
  0
LINE
  8
0
 10
 24.1263490819147 
 20
 37.1994812797403 
 11
 22.9587028689556 
 21
 39.9590310113318 
  0
LINE
  8
0
 10
 22.9587028689556 
 20
 39.9590310113318 
 11
 21.8586374657497 
 21
 42.609700549432 
  0
LINE
  8
0
 10
 21.8586374657497 
 20
 42.609700549432 
 11
 20.8223983828663 
 21
 45.1740168306252 
  0
LINE
  8
0
 10
 20.8223983828663 
 20
 45.1740168306252 
 11
 19.8537401097362 
 21
 47.6857702597881 
  0
LINE
  8
0
 10
 19.8537401097362 
 20
 47.6857702597881 
 11
 18.9526626463594 
 21
 50.1900147100896 
  0
LINE
  8
0
 10
 18.9526626463594 
 20
 50.1900147100896 
 11
 18.1191659927358 
 21
 52.709277118114 
  0
LINE
  8
0
 10
 18.1191659927358 
 20
 52.709277118114 
 11
 17.3532501488655 
 21
 55.2848568675994 
  0
LINE
  8
0
 10
 17.3532501488655 
 20
 55.2848568675994 
 11
 16.6549151147485 
 21
 57.9430353845611 
  0
LINE
  8
0
 10
 16.6549151147485 
 20
 57.9430353845611 
 11
 16.0316698692462 
 21
 60.7251120527371 
  0
LINE
  8
0
 10
 16.0316698692462 
 20
 60.7251120527371 
 11
 15.4760054334971 
 21
 63.6611227875732 
  0
LINE
  8
0
 10
 15.4760054334971 
 20
 63.6611227875732 
 11
 15.4760054334971 
 21
 63.6611227875732 
  0
LINE
  8
0
 10
 15.4760054334971 
 20
 63.6611227875732 
 11
 15.4760054334971 
 21
 63.6611227875732 
  0
LINE
  8
0
 10
 15.4760054334971 
 20
 63.6611227875732 
 11
 14.9879218075013 
 21
 66.7585765679311 
  0
LINE
  8
0
 10
 14.9879218075013 
 20
 66.7585765679311 
 11
 14.5298740969514 
 21
 69.9724195206418 
  0
LINE
  8
0
 10
 14.5298740969514 
 20
 69.9724195206418 
 11
 14.0605629181093 
 21
 73.2087894099369 
  0
LINE
  8
0
 10
 14.0605629181093 
 20
 73.2087894099369 
 11
 13.5349343978062 
 21
 76.388841957771 
  0
LINE
  8
0
 10
 13.5349343978062 
 20
 76.388841957771 
 11
 12.9154436417346 
 21
 79.4337328860986 
  0
LINE
  8
0
 10
 12.9154436417346 
 20
 79.4337328860986 
 11
 12.1570367767258 
 21
 82.2683724063048 
  0
LINE
  8
0
 10
 12.1570367767258 
 20
 82.2683724063048 
 11
 11.225923397903 
 21
 84.8026527720522 
  0
LINE
  8
0
 10
 11.225923397903 
 20
 84.8026527720522 
 11
 10.0657861638054 
 21
 86.9652386841566 
  0
LINE
  8
0
 10
 10.0657861638054 
 20
 86.9652386841566 
 11
 8.64658915898686 
 21
 88.6697768857111 
  0
LINE
  8
0
 10
 8.64658915898686 
 20
 88.6697768857111 
 11
 6.92327851027867 
 21
 89.8299141198088 
  0
LINE
  8
0
 10
 6.92327851027867 
 20
 89.8299141198088 
 11
 6.92327851027867 
 21
 89.8299141198088 
  0
LINE
  8
0
 10
 6.92327851027867 
 20
 89.8299141198088 
 11
 6.92327851027867 
 21
 89.8299141198088 
  0
LINE
  8
0
 10
 6.92327851027867 
 20
 89.8299141198088 
 11
 4.86957279166563 
 21
 90.4043510027115 
  0
LINE
  8
0
 10
 4.86957279166563 
 20
 90.4043510027115 
 11
 2.51550791859366 
 21
 90.4381414075881 
  0
LINE
  8
0
 10
 2.51550791859366 
 20
 90.4381414075881 
 11
-9.01077463376833E-02 
 21
 90.0063751230534 
  0
LINE
  8
0
 10
-9.01077463376833E-02 
 20
 90.0063751230534 
 11
-2.89846584052881 
 21
 89.1954054060143 
  0
LINE
  8
0
 10
-2.89846584052881 
 20
 89.1954054060143 
 11
-5.86451249081089 
 21
 88.0765675556547 
  0
LINE
  8
0
 10
-5.86451249081089 
 20
 88.0765675556547 
 11
-8.93943933458433 
 21
 86.7249513605894 
  0
LINE
  8
0
 10
-8.93943933458433 
 20
 86.7249513605894 
 11
-12.0744380092496 
 21
 85.2231555882947 
  0
LINE
  8
0
 10
-12.0744380092496 
 20
 85.2231555882947 
 11
-15.220700152207 
 21
 83.6462700273852 
  0
LINE
  8
0
 10
-15.220700152207 
 20
 83.6462700273852 
 11
-18.3331718902878 
 21
 82.0768934453373 
  0
LINE
  8
0
 10
-18.3331718902878 
 20
 82.0768934453373 
 11
-21.3630448608924 
 21
 80.5863611413348 
  0
LINE
  8
0
 10
-21.3630448608924 
 20
 80.5863611413348 
 11
-21.3630448608924 
 21
 80.5863611413348 
  0
LINE
  8
0
 10
-21.3630448608924 
 20
 80.5863611413348 
 11
-21.3630448608924 
 21
 80.5863611413348 
  0
LINE
  8
0
 10
-21.3630448608924 
 20
 80.5863611413348 
 11
-24.2802831485749 
 21
 79.2347449462695 
  0
LINE
  8
0
 10
-24.2802831485749 
 20
 79.2347449462695 
 11
-27.0961502216275 
 21
 78.029553839003 
  0
LINE
  8
0
 10
-27.0961502216275 
 20
 78.029553839003 
 11
-29.8444364849269 
 21
 76.9482608829508 
  0
LINE
  8
0
 10
-29.8444364849269 
 20
 76.9482608829508 
 11
-32.5514233644881 
 21
 75.9720936309592 
  0
LINE
  8
0
 10
-32.5514233644881 
 20
 75.9720936309592 
 11
-35.2509012651879 
 21
 75.0860341253053 
  0
LINE
  8
0
 10
-35.2509012651879 
 20
 75.0860341253053 
 11
-37.972906102472 
 21
 74.263800939974 
  0
LINE
  8
0
 10
-37.972906102472 
 20
 74.263800939974 
 11
-40.7474737917865 
 21
 73.5016395855344 
  0
LINE
  8
0
 10
-40.7474737917865 
 20
 73.5016395855344 
 11
-43.5971312697158 
 21
 72.7695141465407 
  0
LINE
  8
0
 10
-43.5971312697158 
 20
 72.7695141465407 
 11
-46.5594234305671 
 21
 72.05240666527 
  0
LINE
  8
0
 10
-46.5594234305671 
 20
 72.05240666527 
 11
-49.6643861897864 
 21
 71.3352991839993 
  0
LINE
  8
0
 10
-49.6643861897864 
 20
 71.3352991839993 
 11
-49.6643861897864 
 21
 71.3352991839993 
  0
LINE
  8
0
 10
-49.6643861897864 
 20
 71.3352991839993 
 11
-49.6643861897864 
 21
 71.3352991839993 
  0
LINE
  8
0
 10
-49.6643861897864 
 20
 71.3352991839993 
 11
-52.9195285262353 
 21
 70.6031737450056 
  0
LINE
  8
0
 10
-52.9195285262353 
 20
 70.6031737450056 
 11
-56.2797965667447 
 21
 69.8447668799968 
  0
LINE
  8
0
 10
-56.2797965667447 
 20
 69.8447668799968 
 11
-59.6550825649771 
 21
 69.0600785889728 
  0
LINE
  8
0
 10
-59.6550825649771 
 20
 69.0600785889728 
 11
-62.9853146900406 
 21
 68.2303364247799 
  0
LINE
  8
0
 10
-62.9853146900406 
 20
 68.2303364247799 
 11
-66.1841396850284 
 21
 67.359294876849 
  0
LINE
  8
0
 10
-66.1841396850284 
 20
 67.359294876849 
 11
-69.1839767401871 
 21
 66.4469539451799 
  0
LINE
  8
0
 10
-69.1839767401871 
 20
 66.4469539451799 
 11
-71.909736066902 
 21
 65.4745411826191 
  0
LINE
  8
0
 10
-71.909736066902 
 20
 65.4745411826191 
 11
-74.2863278765584 
 21
 64.4458110785972 
  0
LINE
  8
0
 10
-74.2863278765584 
 20
 64.4458110785972 
 11
-76.2424168699723 
 21
 63.3457456753914 
  0
LINE
  8
0
 10
-76.2424168699723 
 20
 63.3457456753914 
 11
-77.6991587690982 
 21
 62.1780994624322 
  0
LINE
  8
0
 10
-77.6991587690982 
 20
 62.1780994624322 
 11
-77.6991587690982 
 21
 62.1780994624322 
  0
LINE
  8
0
 10
-77.6991587690982 
 20
 62.1780994624322 
 11
-77.6991587690982 
 21
 62.1780994624322 
  0
LINE
  8
0
 10
-77.6991587690982 
 20
 62.1780994624322 
 11
-78.6114997007672 
 21
 60.9316089714276 
  0
LINE
  8
0
 10
-78.6114997007672 
 20
 60.9316089714276 
 11
-79.0169845592868 
 21
 59.6212921601004 
  0
LINE
  8
0
 10
-79.0169845592868 
 20
 59.6212921601004 
 11
-79.0019666015638 
 21
 58.2471490284508 
  0
LINE
  8
0
 10
-79.0019666015638 
 20
 58.2471490284508 
 11
-78.6302721479209 
 21
 56.8279520236323 
  0
LINE
  8
0
 10
-78.6302721479209 
 20
 56.8279520236323 
 11
-77.9807454764034 
 21
 55.3712101245064 
  0
LINE
  8
0
 10
-77.9807454764034 
 20
 55.3712101245064 
 11
-77.117212907334 
 21
 53.8844323099346 
  0
LINE
  8
0
 10
-77.117212907334 
 20
 53.8844323099346 
 11
-76.1147642293272 
 21
 52.3751275587784 
  0
LINE
  8
0
 10
-76.1147642293272 
 20
 52.3751275587784 
 11
-75.048489230998 
 21
 50.8583138287607 
  0
LINE
  8
0
 10
-75.048489230998 
 20
 50.8583138287607 
 11
-73.9897232115302 
 21
 49.3415000987431 
  0
LINE
  8
0
 10
-73.9897232115302 
 20
 49.3415000987431 
 11
-73.0135559595386 
 21
 47.8359498370176 
  0
LINE
  8
0
 10
-73.0135559595386 
 20
 47.8359498370176 
 11
-73.0135559595386 
 21
 47.8359498370176 
  0
LINE
  8
0
 10
-73.0135559595386 
 20
 47.8359498370176 
 11
-73.0135559595386 
 21
 47.8359498370176 
  0
LINE
  8
0
 10
-73.0135559595386 
 20
 47.8359498370176 
 11
-72.1687958376228 
 21
 46.3454175330151 
  0
LINE
  8
0
 10
-72.1687958376228 
 20
 46.3454175330151 
 11
-71.4629518246443 
 21
 44.8699031867355 
  0
LINE
  8
0
 10
-71.4629518246443 
 20
 44.8699031867355 
 11
-70.8659880051572 
 21
 43.4131612876097 
  0
LINE
  8
0
 10
-70.8659880051572 
 20
 43.4131612876097 
 11
-70.3703954002999 
 21
 41.967682856776 
  0
LINE
  8
0
 10
-70.3703954002999 
 20
 41.967682856776 
 11
-69.9461380946267 
 21
 40.540976873096 
  0
LINE
  8
0
 10
-69.9461380946267 
 20
 40.540976873096 
 11
-69.5819526198452 
 21
 39.114270889416 
  0
LINE
  8
0
 10
-69.5819526198452 
 20
 39.114270889416 
 11
-69.2590665288018 
 21
 37.6988283740283 
  0
LINE
  8
0
 10
-69.2590665288018 
 20
 37.6988283740283 
 11
-68.9511983954814 
 21
 36.2908948375019 
  0
LINE
  8
0
 10
-68.9511983954814 
 20
 36.2908948375019 
 11
-68.643330262161 
 21
 34.8829613009756 
  0
LINE
  8
0
 10
-68.643330262161 
 20
 34.8829613009756 
 11
-68.3241986605484 
 21
 33.4787822538801 
  0
LINE
  8
0
 10
-68.3241986605484 
 20
 33.4787822538801 
 11
-68.3241986605484 
 21
 33.4787822538801 
  0
LINE
  8
0
 10
-68.3241986605484 
 20
 33.4787822538801 
 11
-68.3241986605484 
 21
 33.4787822538801 
  0
LINE
  8
0
 10
-68.3241986605484 
 20
 33.4787822538801 
 11
-67.9675221646284 
 21
 32.0708487173538 
  0
LINE
  8
0
 10
-67.9675221646284 
 20
 32.0708487173538 
 11
-67.5808097532625 
 21
 30.6666696702582 
  0
LINE
  8
0
 10
-67.5808097532625 
 20
 30.6666696702582 
 11
-67.1640614264507 
 21
 29.2587361337319 
  0
LINE
  8
0
 10
-67.1640614264507 
 20
 29.2587361337319 
 11
-66.717277184193 
 21
 27.8508025972056 
  0
LINE
  8
0
 10
-66.717277184193 
 20
 27.8508025972056 
 11
-66.2554749842124 
 21
 26.4428690606793 
  0
LINE
  8
0
 10
-66.2554749842124 
 20
 26.4428690606793 
 11
-65.7711458476473 
 21
 25.0386900135837 
  0
LINE
  8
0
 10
-65.7711458476473 
 20
 25.0386900135837 
 11
-65.2680442639286 
 21
 23.6307564770574 
  0
LINE
  8
0
 10
-65.2680442639286 
 20
 23.6307564770574 
 11
-64.7611881907791 
 21
 22.2190684511004 
  0
LINE
  8
0
 10
-64.7611881907791 
 20
 22.2190684511004 
 11
-64.2468231387682 
 21
 20.8111349145741 
  0
LINE
  8
0
 10
-64.2468231387682 
 20
 20.8111349145741 
 11
-63.7249491078958 
 21
 19.4032013780478 
  0
LINE
  8
0
 10
-63.7249491078958 
 20
 19.4032013780478 
 11
-63.7249491078958 
 21
 19.4032013780478 
  0
LINE
  8
0
 10
-63.7249491078958 
 20
 19.4032013780478 
 11
-63.7249491078958 
 21
 19.4032013780478 
  0
LINE
  8
0
 10
-63.7249491078958 
 20
 19.4032013780478 
 11
-63.7249491078958 
 21
 19.4032013780478 
  0
LINE
  8
0
 10
-63.7249491078958 
 20
 19.4032013780478 
 11
-64.2468231387682 
 21
 20.8111349145741 
  0
LINE
  8
0
 10
-64.2468231387682 
 20
 20.8111349145741 
 11
-64.7611881907791 
 21
 22.2190684511004 
  0
LINE
  8
0
 10
-64.7611881907791 
 20
 22.2190684511004 
 11
-65.2717987533593 
 21
 23.6270019876267 
  0
LINE
  8
0
 10
-65.2717987533593 
 20
 23.6270019876267 
 11
-65.7711458476473 
 21
 25.0386900135837 
  0
LINE
  8
0
 10
-65.7711458476473 
 20
 25.0386900135837 
 11
-66.2554749842124 
 21
 26.4428690606793 
  0
LINE
  8
0
 10
-66.2554749842124 
 20
 26.4428690606793 
 11
-66.717277184193 
 21
 27.8508025972056 
  0
LINE
  8
0
 10
-66.717277184193 
 20
 27.8508025972056 
 11
-67.1640614264507 
 21
 29.2587361337319 
  0
LINE
  8
0
 10
-67.1640614264507 
 20
 29.2587361337319 
 11
-67.5808097532625 
 21
 30.6666696702582 
  0
LINE
  8
0
 10
-67.5808097532625 
 20
 30.6666696702582 
 11
-67.9675221646284 
 21
 32.0708487173538 
  0
LINE
  8
0
 10
-67.9675221646284 
 20
 32.0708487173538 
 11
-68.3241986605484 
 21
 33.4787822538801 
  0
LINE
  8
0
 10
-68.3241986605484 
 20
 33.4787822538801 
 11
-68.3241986605484 
 21
 33.4787822538801 
  0
LINE
  8
0
 10
-68.3241986605484 
 20
 33.4787822538801 
 11
-68.3241986605484 
 21
 33.4787822538801 
  0
LINE
  8
0
 10
-68.3241986605484 
 20
 33.4787822538801 
 11
-68.6470847515917 
 21
 34.8792068115449 
  0
LINE
  8
0
 10
-68.6470847515917 
 20
 34.8792068115449 
 11
-68.9511983954814 
 21
 36.2908948375019 
  0
LINE
  8
0
 10
-68.9511983954814 
 20
 36.2908948375019 
 11
-69.2590665288018 
 21
 37.6988283740283 
  0
LINE
  8
0
 10
-69.2590665288018 
 20
 37.6988283740283 
 11
-69.5819526198452 
 21
 39.114270889416 
  0
LINE
  8
0
 10
-69.5819526198452 
 20
 39.114270889416 
 11
-69.9461380946267 
 21
 40.540976873096 
  0
LINE
  8
0
 10
-69.9461380946267 
 20
 40.540976873096 
 11
-70.3703954002999 
 21
 41.967682856776 
  0
LINE
  8
0
 10
-70.3703954002999 
 20
 41.967682856776 
 11
-70.8659880051572 
 21
 43.4131612876097 
  0
LINE
  8
0
 10
-70.8659880051572 
 20
 43.4131612876097 
 11
-71.4629518246443 
 21
 44.8699031867355 
  0
LINE
  8
0
 10
-71.4629518246443 
 20
 44.8699031867355 
 11
-72.1725503270536 
 21
 46.3454175330151 
  0
LINE
  8
0
 10
-72.1725503270536 
 20
 46.3454175330151 
 11
-73.0135559595386 
 21
 47.8359498370176 
  0
LINE
  8
0
 10
-73.0135559595386 
 20
 47.8359498370176 
 11
-73.0135559595386 
 21
 47.8359498370176 
  0
LINE
  8
0
 10
-73.0135559595386 
 20
 47.8359498370176 
 11
-73.0135559595386 
 21
 47.8359498370176 
  0
LINE
  8
0
 10
-73.0135559595386 
 20
 47.8359498370176 
 11
-73.9897232115302 
 21
 49.3415000987431 
  0
LINE
  8
0
 10
-73.9897232115302 
 20
 49.3415000987431 
 11
-75.048489230998 
 21
 50.8583138287607 
  0
LINE
  8
0
 10
-75.048489230998 
 20
 50.8583138287607 
 11
-76.1147642293272 
 21
 52.3751275587784 
  0
LINE
  8
0
 10
-76.1147642293272 
 20
 52.3751275587784 
 11
-77.117212907334 
 21
 53.8844323099346 
  0
LINE
  8
0
 10
-77.117212907334 
 20
 53.8844323099346 
 11
-77.9807454764034 
 21
 55.3712101245064 
  0
LINE
  8
0
 10
-77.9807454764034 
 20
 55.3712101245064 
 11
-78.6340266373516 
 21
 56.8279520236323 
  0
LINE
  8
0
 10
-78.6340266373516 
 20
 56.8279520236323 
 11
-79.0057210909946 
 21
 58.2509035178815 
  0
LINE
  8
0
 10
-79.0057210909946 
 20
 58.2509035178815 
 11
-79.0169845592868 
 21
 59.6212921601004 
  0
LINE
  8
0
 10
-79.0169845592868 
 20
 59.6212921601004 
 11
-78.6114997007672 
 21
 60.9316089714276 
  0
LINE
  8
0
 10
-78.6114997007672 
 20
 60.9316089714276 
 11
-77.6991587690982 
 21
 62.1780994624322 
  0
LINE
  8
0
 10
-77.6991587690982 
 20
 62.1780994624322 
 11
-77.6991587690982 
 21
 62.1780994624322 
  0
LINE
  8
0
 10
-77.6991587690982 
 20
 62.1780994624322 
 11
-77.6991587690982 
 21
 62.1780994624322 
  0
LINE
  8
0
 10
-77.6991587690982 
 20
 62.1780994624322 
 11
-76.2424168699723 
 21
 63.3457456753914 
  0
LINE
  8
0
 10
-76.2424168699723 
 20
 63.3457456753914 
 11
-74.2863278765584 
 21
 64.4458110785972 
  0
LINE
  8
0
 10
-74.2863278765584 
 20
 64.4458110785972 
 11
-71.909736066902 
 21
 65.4745411826191 
  0
LINE
  8
0
 10
-71.909736066902 
 20
 65.4745411826191 
 11
-69.1839767401871 
 21
 66.4469539451799 
  0
LINE
  8
0
 10
-69.1839767401871 
 20
 66.4469539451799 
 11
-66.1841396850284 
 21
 67.3630493662797 
  0
LINE
  8
0
 10
-66.1841396850284 
 20
 67.3630493662797 
 11
-62.9853146900406 
 21
 68.2340909142107 
  0
LINE
  8
0
 10
-62.9853146900406 
 20
 68.2340909142107 
 11
-59.6550825649771 
 21
 69.0600785889728 
  0
LINE
  8
0
 10
-59.6550825649771 
 20
 69.0600785889728 
 11
-56.2797965667447 
 21
 69.8485213694275 
  0
LINE
  8
0
 10
-56.2797965667447 
 20
 69.8485213694275 
 11
-52.923283015666 
 21
 70.6069282344363 
  0
LINE
  8
0
 10
-52.923283015666 
 20
 70.6069282344363 
 11
-49.6643861897864 
 21
 71.33905367343 
  0
LINE
  8
0
 10
-49.6643861897864 
 20
 71.33905367343 
 11
-49.6643861897864 
 21
 71.33905367343 
  0
LINE
  8
0
 10
-49.6643861897864 
 20
 71.33905367343 
 11
-49.6643861897864 
 21
 71.33905367343 
  0
LINE
  8
0
 10
-49.6643861897864 
 20
 71.33905367343 
 11
-46.5631779199978 
 21
 72.0561611547007 
  0
LINE
  8
0
 10
-46.5631779199978 
 20
 72.0561611547007 
 11
-43.5971312697158 
 21
 72.7695141465407 
  0
LINE
  8
0
 10
-43.5971312697158 
 20
 72.7695141465407 
 11
-40.7474737917865 
 21
 73.5016395855344 
  0
LINE
  8
0
 10
-40.7474737917865 
 20
 73.5016395855344 
 11
-37.9766605919028 
 21
 74.2675554294047 
  0
LINE
  8
0
 10
-37.9766605919028 
 20
 74.2675554294047 
 11
-35.2546557546186 
 21
 75.0897886147361 
  0
LINE
  8
0
 10
-35.2546557546186 
 20
 75.0897886147361 
 11
-32.5514233644881 
 21
 75.97584812039 
  0
LINE
  8
0
 10
-32.5514233644881 
 20
 75.97584812039 
 11
-29.8481909743576 
 21
 76.9520153723815 
  0
LINE
  8
0
 10
-29.8481909743576 
 20
 76.9520153723815 
 11
-27.0999047110583 
 21
 78.0333083284337 
  0
LINE
  8
0
 10
-27.0999047110583 
 20
 78.0333083284337 
 11
-24.2802831485749 
 21
 79.2384994357002 
  0
LINE
  8
0
 10
-24.2802831485749 
 20
 79.2384994357002 
 11
-21.3630448608924 
 21
 80.5863611413348 
  0
LINE
  8
0
 10
-21.3630448608924 
 20
 80.5863611413348 
 11
-21.3630448608924 
 21
 80.5863611413348 
  0
LINE
  8
0
 10
-21.3630448608924 
 20
 80.5863611413348 
 11
-21.3630448608924 
 21
 80.5863611413348 
  0
LINE
  8
0
 10
-21.3630448608924 
 20
 80.5863611413348 
 11
-18.3331718902878 
 21
 82.0768934453373 
  0
LINE
  8
0
 10
-18.3331718902878 
 20
 82.0768934453373 
 11
-15.220700152207 
 21
 83.650024516816 
  0
LINE
  8
0
 10
-15.220700152207 
 20
 83.650024516816 
 11
-12.0744380092496 
 21
 85.2231555882947 
  0
LINE
  8
0
 10
-12.0744380092496 
 20
 85.2231555882947 
 11
-8.93943933458433 
 21
 86.7249513605894 
  0
LINE
  8
0
 10
-8.93943933458433 
 20
 86.7249513605894 
 11
-5.86451249081089 
 21
 88.0765675556547 
  0
LINE
  8
0
 10
-5.86451249081089 
 20
 88.0765675556547 
 11
-2.89846584052881 
 21
 89.1954054060143 
  0
LINE
  8
0
 10
-2.89846584052881 
 20
 89.1954054060143 
 11
-9.01077463376833E-02 
 21
 90.0101296124841 
  0
LINE
  8
0
 10
-9.01077463376833E-02 
 20
 90.0101296124841 
 11
 2.51550791859366 
 21
 90.4381414075881 
  0
LINE
  8
0
 10
 2.51550791859366 
 20
 90.4381414075881 
 11
 4.86957279166563 
 21
 90.4043510027115 
  0
LINE
  8
0
 10
 4.86957279166563 
 20
 90.4043510027115 
 11
 6.92327851027867 
 21
 89.8299141198088 
  0
LINE
  8
0
 10
 6.92327851027867 
 20
 89.8299141198088 
 11
 6.92327851027867 
 21
 89.8299141198088 
  0
LINE
  8
0
 10
 6.92327851027867 
 20
 89.8299141198088 
 11
 6.92327851027867 
 21
 89.8299141198088 
  0
LINE
  8
0
 10
 6.92327851027867 
 20
 89.8299141198088 
 11
 8.6503436484176 
 21
 88.6660223962804 
  0
LINE
  8
0
 10
 8.6503436484176 
 20
 88.6660223962804 
 11
 10.0657861638054 
 21
 86.9652386841566 
  0
LINE
  8
0
 10
 10.0657861638054 
 20
 86.9652386841566 
 11
 11.225923397903 
 21
 84.8026527720522 
  0
LINE
  8
0
 10
 11.225923397903 
 20
 84.8026527720522 
 11
 12.1607912661565 
 21
 82.2683724063048 
  0
LINE
  8
0
 10
 12.1607912661565 
 20
 82.2683724063048 
 11
 12.9191981311653 
 21
 79.4337328860986 
  0
LINE
  8
0
 10
 12.9191981311653 
 20
 79.4337328860986 
 11
 13.5349343978062 
 21
 76.388841957771 
  0
LINE
  8
0
 10
 13.5349343978062 
 20
 76.388841957771 
 11
 14.0643174075401 
 21
 73.2087894099369 
  0
LINE
  8
0
 10
 14.0643174075401 
 20
 73.2087894099369 
 11
 14.5336285863822 
 21
 69.9724195206418 
  0
LINE
  8
0
 10
 14.5336285863822 
 20
 69.9724195206418 
 11
 14.9916762969321 
 21
 66.7623310573618 
  0
LINE
  8
0
 10
 14.9916762969321 
 20
 66.7623310573618 
 11
 15.4797599229278 
 21
 63.6611227875732 
  0
LINE
  8
0
 10
 15.4797599229278 
 20
 63.6611227875732 
 11
 15.4797599229278 
 21
 63.6611227875732 
  0
LINE
  8
0
 10
 15.4797599229278 
 20
 63.6611227875732 
 11
 15.4797599229278 
 21
 63.6611227875732 
  0
LINE
  8
0
 10
 15.4797599229278 
 20
 63.6611227875732 
 11
 16.0354243586769 
 21
 60.7251120527371 
  0
LINE
  8
0
 10
 16.0354243586769 
 20
 60.7251120527371 
 11
 16.6586696041792 
 21
 57.9430353845611 
  0
LINE
  8
0
 10
 16.6586696041792 
 20
 57.9430353845611 
 11
 17.3570046382962 
 21
 55.2848568675994 
  0
LINE
  8
0
 10
 17.3570046382962 
 20
 55.2848568675994 
 11
 18.1229204821666 
 21
 52.709277118114 
  0
LINE
  8
0
 10
 18.1229204821666 
 20
 52.709277118114 
 11
 18.9564171357901 
 21
 50.1900147100896 
  0
LINE
  8
0
 10
 18.9564171357901 
 20
 50.1900147100896 
 11
 19.857494599167 
 21
 47.6895247492189 
  0
LINE
  8
0
 10
 19.857494599167 
 20
 47.6895247492189 
 11
 20.8261528722971 
 21
 45.1740168306252 
  0
LINE
  8
0
 10
 20.8261528722971 
 20
 45.1740168306252 
 11
 21.8623919551804 
 21
 42.609700549432 
  0
LINE
  8
0
 10
 21.8623919551804 
 20
 42.609700549432 
 11
 22.966211847817 
 21
 39.9590310113318 
  0
LINE
  8
0
 10
 22.966211847817 
 20
 39.9590310113318 
 11
 24.1301035713454 
 21
 37.1994812797403 
  0
LINE
  8
0
 10
 24.1301035713454 
 20
 37.1994812797403 
 11
 24.1301035713454 
 21
 37.1994812797403 
  0
LINE
  8
0
 10
 24.1301035713454 
 20
 37.1994812797403 
 11
 24.1301035713454 
 21
 37.1994812797403 
  0
LINE
  8
0
 10
 24.1301035713454 
 20
 37.1994812797403 
 11
 25.3540671257656 
 21
 34.3010154392114 
  0
LINE
  8
0
 10
 25.3540671257656 
 20
 34.3010154392114 
 11
 26.604312106201 
 21
 31.3086873629142 
  0
LINE
  8
0
 10
 26.604312106201 
 20
 31.3086873629142 
 11
 27.8395391289134 
 21
 28.2863233711711 
  0
LINE
  8
0
 10
 27.8395391289134 
 20
 28.2863233711711 
 11
 29.0184488101648 
 21
 25.2714683582894 
  0
LINE
  8
0
 10
 29.0184488101648 
 20
 25.2714683582894 
 11
 30.1034962556477 
 21
 22.339212112884 
  0
LINE
  8
0
 10
 30.1034962556477 
 20
 22.339212112884 
 11
 31.0608910604856 
 21
 19.5308540186929 
  0
LINE
  8
0
 10
 31.0608910604856 
 20
 19.5308540186929 
 11
 31.8455793515096 
 21
 16.9102203960386 
  0
LINE
  8
0
 10
 31.8455793515096 
 20
 16.9102203960386 
 11
 32.4200162344123 
 21
 14.5373830758129 
  0
LINE
  8
0
 10
 32.4200162344123 
 20
 14.5373830758129 
 11
 32.7466568148864 
 21
 12.453641441754 
  0
LINE
  8
0
 10
 32.7466568148864 
 20
 12.453641441754 
 11
 32.7842017091938 
 21
 10.7265763036151 
  0
LINE
  8
0
 10
 32.7842017091938 
 20
 10.7265763036151 
 11
 32.7842017091938 
 21
 10.7265763036151 
  0
LINE
  8
0
 10
 32.7842017091938 
 20
 10.7265763036151 
 11
 32.7842017091938 
 21
 10.7265763036151 
  0
LINE
  8
0
 10
 32.7842017091938 
 20
 10.7265763036151 
 11
 32.5063694913193 
 21
 9.39373255570348 
  0
LINE
  8
0
 10
 32.5063694913193 
 20
 9.39373255570348 
 11
 31.9431960767087 
 21
 8.41381081428118 
  0
LINE
  8
0
 10
 31.9431960767087 
 20
 8.41381081428118 
 11
 31.1359808491003 
 21
 7.74175720617929 
  0
LINE
  8
0
 10
 31.1359808491003 
 20
 7.74175720617929 
 11
 30.1222687028014 
 21
 7.32125438993677 
  0
LINE
  8
0
 10
 30.1222687028014 
 20
 7.32125438993677 
 11
 28.9471135109808 
 21
 7.10724849238477 
  0
LINE
  8
0
 10
 28.9471135109808 
 20
 7.10724849238477 
 11
 27.6443056785151 
 21
 7.03591319320077 
  0
LINE
  8
0
 10
 27.6443056785151 
 20
 7.03591319320077 
 11
 26.2664080574347 
 21
 7.06594910864666 
  0
LINE
  8
0
 10
 26.2664080574347 
 20
 7.06594910864666 
 11
 24.8472110526162 
 21
 7.13728440783066 
  0
LINE
  8
0
 10
 24.8472110526162 
 20
 7.13728440783066 
 11
 23.4242595583669 
 21
 7.20861970701466 
  0
LINE
  8
0
 10
 23.4242595583669 
 20
 7.20861970701466 
 11
 22.0501164267173 
 21
 7.21612868587614 
  0
LINE
  8
0
 10
 22.0501164267173 
 20
 7.21612868587614 
 11
 22.0501164267173 
 21
 7.21612868587614 
  0
LINE
  8
0
 10
 22.0501164267173 
 20
 7.21612868587614 
 11
 22.0501164267173 
 21
 7.21612868587614 
  0
LINE
  8
0
 10
 22.0501164267173 
 20
 7.21612868587614 
 11
 20.7435541048208 
 21
 7.12226645010772 
  0
LINE
  8
0
 10
 20.7435541048208 
 20
 7.12226645010772 
 11
 19.5120815715392 
 21
 6.93829646800161 
  0
LINE
  8
0
 10
 19.5120815715392 
 20
 6.93829646800161 
 11
 18.3406808691493 
 21
 6.66421873955783 
  0
LINE
  8
0
 10
 18.3406808691493 
 20
 6.66421873955783 
 11
 17.2255975082205 
 21
 6.32256020136078 
  0
LINE
  8
0
 10
 17.2255975082205 
 20
 6.32256020136078 
 11
 16.148059041599 
 21
 5.92833881113341 
  0
LINE
  8
0
 10
 16.148059041599 
 20
 5.92833881113341 
 11
 15.1005564904234 
 21
 5.49657252659868 
  0
LINE
  8
0
 10
 15.1005564904234 
 20
 5.49657252659868 
 11
 14.0755808758323 
 21
 5.02726134775658 
  0
LINE
  8
0
 10
 14.0755808758323 
 20
 5.02726134775658 
 11
 13.0656232189641 
 21
 4.55044119005301 
  0
LINE
  8
0
 10
 13.0656232189641 
 20
 4.55044119005301 
 11
 12.0481565832344 
 21
 4.07362103234943 
  0
LINE
  8
0
 10
 12.0481565832344 
 20
 4.07362103234943 
 11
 11.0231809686433 
 21
 3.60806434293807 
  0
LINE
  8
0
 10
 11.0231809686433 
 20
 3.60806434293807 
 11
 11.0231809686433 
 21
 3.60806434293807 
  0
LINE
  8
0
 10
 11.0231809686433 
 20
 3.60806434293807 
 11
 11.0231809686433 
 21
 3.60806434293807 
  0
LINE
  8
0
 10
 11.0231809686433 
 20
 3.60806434293807 
 11
 9.97943290689842 
 21
 3.16878907954186 
  0
LINE
  8
0
 10
 9.97943290689842 
 20
 3.16878907954186 
 11
 8.91691239799991 
 21
 2.75204075273008 
  0
LINE
  8
0
 10
 8.91691239799991 
 20
 2.75204075273008 
 11
 7.83937393137845 
 21
 2.36157385193345 
  0
LINE
  8
0
 10
 7.83937393137845 
 20
 2.36157385193345 
 11
 6.74681750703404 
 21
 1.98612490885977 
  0
LINE
  8
0
 10
 6.74681750703404 
 20
 1.98612490885977 
 11
 5.64299761439742 
 21
 1.62944841293977 
  0
LINE
  8
0
 10
 5.64299761439742 
 20
 1.62944841293977 
 11
 4.52415976403785 
 21
 1.28778987474272 
  0
LINE
  8
0
 10
 4.52415976403785 
 20
 1.28778987474272 
 11
 3.40156742424754 
 21
 .953640315407148 
  0
LINE
  8
0
 10
 3.40156742424754 
 20
 .953640315407148 
 11
 2.27146610559577 
 21
 .630754224363783 
  0
LINE
  8
0
 10
 2.27146610559577 
 20
 .630754224363783 
 11
 1.13385580808252 
 21
 .311622622751155 
  0
LINE
  8
0
 10
 1.13385580808252 
 20
 .311622622751155 
 11
-3.7544894307368E-03 
 21
 0 
  0
LINE
  8
0
 10
-3.7544894307368E-03 
 20
 0 
 11
 0 
 21
 0 
  0
ENDSEC
  0
EOF
