  0
SECTION
  2
ENTITIES
  0
LINE
  8
0
 10
 0 
 20
 0 
 11
-3.7544894307368E-03 
 21
 1.12634682922104E-02 
  0
LINE
  8
0
 10
 6.0184465574711 
 20
 2.57557974948545 
 11
 6.0184465574711 
 21
 2.58308872834692 
  0
LINE
  8
0
 10
 12.0406476043729 
 20
 5.15491398840163 
 11
 12.0406476043729 
 21
 5.15491398840163 
  0
LINE
  8
0
 10
 17.7812619439695 
 20
 7.6103500761035 
 11
 17.7812619439695 
 21
 7.6103500761035 
  0
LINE
  8
0
 10
 6.84818872166393 
 20
 33.2122135042978 
 11
 6.84067974280246 
 21
 33.208459014867 
  0
LINE
  8
0
 10
-4.09239347950312 
 20
 58.8065679536306 
 11
-4.09239347950312 
 21
 58.8065679536306 
  0
LINE
  8
0
 10
-14.9090775294559 
 20
 84.1268446745196 
 11
-14.9090775294559 
 21
 84.1268446745196 
  0
LINE
  8
0
 10
-42.2793054795272 
 20
 72.4353645872052 
 11
-42.2755509900964 
 21
 72.4241011189129 
  0
LINE
  8
0
 10
-69.6532879190292 
 20
 60.74013001046 
 11
-69.6457789401677 
 21
 60.7251120527371 
  0
LINE
  8
0
 10
-96.7869830349641 
 20
 49.1387576694833 
 11
-96.7869830349641 
 21
 49.1387576694833 
  0
LINE
  8
0
 10
-92.7471524074913 
 20
 39.6774443040265 
 11
-92.735888939199 
 21
 39.6811987934573 
  0
LINE
  8
0
 10
-88.7035672905877 
 20
 30.1936040019854 
 11
-88.6697768857111 
 21
 30.2086219597083 
  0
LINE
  8
0
 10
 .289095686166734 
 20
 .431766284534732 
 11
 .142670598367999 
 21
 .371694453642944 
  0
LINE
  8
0
 10
 .142670598367999 
 20
 .371694453642944 
 11
 .191478960967577 
 21
 .25905977072084 
  0
LINE
  8
0
 10
 .191478960967577 
 20
 .25905977072084 
 11
 .307868133320418 
 21
 .307868133320418 
  0
LINE
  8
0
 10
 .307868133320418 
 20
 .307868133320418 
 11
 .191478960967577 
 21
 .25905977072084 
  0
LINE
  8
0
 10
 .191478960967577 
 20
 .25905977072084 
 11
 .240287323567155 
 21
 .142670598367999 
  0
LINE
  8
0
 10
 18.0290582463981 
 20
 7.74926618504076 
 11
 17.931441521199 
 21
 7.98204452974644 
  0
LINE
  8
0
 10
 17.931441521199 
 20
 7.98204452974644 
 11
 18.0440762041211 
 21
 8.03085289234602 
  0
LINE
  8
0
 10
 18.0440762041211 
 20
 8.03085289234602 
 11
 18.0891300772899 
 21
 8.01208044519234 
  0
LINE
  8
0
 10
 18.0891300772899 
 20
 8.01208044519234 
 11
 18.1116570138743 
 21
 7.95576310373129 
  0
LINE
  8
0
 10
 18.1116570138743 
 20
 7.95576310373129 
 11
 18.0966390561514 
 21
 7.91070923056245 
  0
LINE
  8
0
 10
 18.0966390561514 
 20
 7.91070923056245 
 11
 17.9802498837986 
 21
 7.86190086796287 
  0
LINE
  8
0
 10
 17.9802498837986 
 20
 7.86190086796287 
 11
 18.0966390561514 
 21
 7.91070923056245 
  0
LINE
  8
0
 10
 18.0966390561514 
 20
 7.91070923056245 
 11
 18.1379384398895 
 21
 7.89944576227024 
  0
LINE
  8
0
 10
 18.1379384398895 
 20
 7.89944576227024 
 11
 18.1642198659047 
 21
 7.83937393137845 
  0
LINE
  8
0
 10
 18.1642198659047 
 20
 7.83937393137845 
 11
 18.145447418751 
 21
 7.79807454764034 
  0
LINE
  8
0
 10
 18.145447418751 
 20
 7.79807454764034 
 11
 18.0290582463981 
 21
 7.74926618504076 
  0
LINE
  8
0
 10
 18.1604653764739 
 20
 8.0796612549456 
 11
 18.2618365911038 
 21
 7.84688291023992 
  0
LINE
  8
0
 10
 18.2618365911038 
 20
 7.84688291023992 
 11
 18.2130282285042 
 21
 7.96327208259276 
  0
LINE
  8
0
 10
 18.2130282285042 
 20
 7.96327208259276 
 11
 18.3556988268722 
 21
 8.02334391348455 
  0
LINE
  8
0
 10
 18.3556988268722 
 20
 8.02334391348455 
 11
 18.4045071894718 
 21
 7.91070923056245 
  0
LINE
  8
0
 10
 18.4045071894718 
 20
 7.91070923056245 
 11
 18.3031359748419 
 21
 8.13973308583739 
  0
LINE
  8
0
 10
 18.430788615487 
 20
 8.15850553299107 
 11
 18.4495610626407 
 21
 8.20355940615992 
  0
LINE
  8
0
 10
 18.4495610626407 
 20
 8.20355940615992 
 11
 18.5471777878398 
 21
 7.97078106145423 
  0
LINE
  8
0
 10
 18.5471777878398 
 20
 7.97078106145423 
 11
 18.5171418723939 
 21
 7.95951759316202 
  0
LINE
  8
0
 10
 18.5171418723939 
 20
 7.95951759316202 
 11
 18.573459213855 
 21
 7.98204452974644 
  0
LINE
  8
0
 10
-14.6612812270272 
 20
 84.2657607834568 
 11
-14.7588979522264 
 21
 84.4985391281625 
  0
LINE
  8
0
 10
-14.7588979522264 
 20
 84.4985391281625 
 11
-14.6462632693043 
 21
 84.5473474907621 
  0
LINE
  8
0
 10
-14.6462632693043 
 20
 84.5473474907621 
 11
-14.6049638855662 
 21
 84.5285750436084 
  0
LINE
  8
0
 10
-14.6049638855662 
 20
 84.5285750436084 
 11
-14.5824369489817 
 21
 84.4722577021474 
  0
LINE
  8
0
 10
-14.5824369489817 
 20
 84.4722577021474 
 11
-14.5974549067047 
 21
 84.4309583184092 
  0
LINE
  8
0
 10
-14.5974549067047 
 20
 84.4309583184092 
 11
-14.7100895896268 
 21
 84.3821499558097 
  0
LINE
  8
0
 10
-14.7100895896268 
 20
 84.3821499558097 
 11
-14.5974549067047 
 21
 84.4309583184092 
  0
LINE
  8
0
 10
-14.5974549067047 
 20
 84.4309583184092 
 11
-14.5561555229666 
 21
 84.4121858712556 
  0
LINE
  8
0
 10
-14.5561555229666 
 20
 84.4121858712556 
 11
-14.5336285863822 
 21
 84.3558685297945 
  0
LINE
  8
0
 10
-14.5336285863822 
 20
 84.3558685297945 
 11
-14.5486465441051 
 21
 84.3145691460564 
  0
LINE
  8
0
 10
-14.5486465441051 
 20
 84.3145691460564 
 11
-14.6612812270272 
 21
 84.2657607834568 
  0
LINE
  8
0
 10
-14.5336285863822 
 20
 84.5961558533617 
 11
-14.4322573717523 
 21
 84.363377508656 
  0
LINE
  8
0
 10
-14.4322573717523 
 20
 84.363377508656 
 11
-14.4848202237826 
 21
 84.4797666810088 
  0
LINE
  8
0
 10
-14.4848202237826 
 20
 84.4797666810088 
 11
-14.3383951359839 
 21
 84.5435930013314 
  0
LINE
  8
0
 10
-14.3383951359839 
 20
 84.5435930013314 
 11
-14.2895867733843 
 21
 84.4234493395478 
  0
LINE
  8
0
 10
-14.2895867733843 
 20
 84.4234493395478 
 11
-14.3872034985834 
 21
 84.6562276842535 
  0
LINE
  8
0
 10
-14.2895867733843 
 20
 84.6674911525457 
 11
-14.2745688156613 
 21
 84.705036046853 
  0
LINE
  8
0
 10
-14.2745688156613 
 20
 84.705036046853 
 11
-14.1882155587544 
 21
 84.7425809411604 
  0
LINE
  8
0
 10
-14.1882155587544 
 20
 84.7425809411604 
 11
-14.1431616855855 
 21
 84.7275629834375 
  0
LINE
  8
0
 10
-14.1431616855855 
 20
 84.7275629834375 
 11
-14.1206347490011 
 21
 84.6674911525457 
  0
LINE
  8
0
 10
-14.1206347490011 
 20
 84.6674911525457 
 11
-14.1394071961548 
 21
 84.6261917688076 
  0
LINE
  8
0
 10
-14.1394071961548 
 20
 84.6261917688076 
 11
-14.2032335164773 
 21
 84.4609942338551 
  0
LINE
  8
0
 10
-14.2032335164773 
 20
 84.4609942338551 
 11
-14.0568084286786 
 21
 84.5248205541777 
  0
LINE
  8
0
 10
-14.0568084286786 
 20
 84.5248205541777 
 11
-14.0718263864015 
 21
 84.5548564696236 
  0
LINE
  8
0
 10
-14.5636645018281 
 20
 84.0367369281819 
 11
-14.4209939034601 
 21
 84.0968087590737 
  0
LINE
  8
0
 10
-14.4209939034601 
 20
 84.0968087590737 
 11
-14.507347160367 
 21
 84.063018354197 
  0
LINE
  8
0
 10
-14.507347160367 
 20
 84.063018354197 
 11
-14.4097304351679 
 21
 83.8302400094914 
  0
LINE
  8
0
 10
-14.7588979522264 
 20
 84.4985391281625 
 11
-14.8565146774255 
 21
 84.7238084940067 
  0
LINE
  8
0
 10
-14.8565146774255 
 20
 84.7238084940067 
 11
-14.7438799945034 
 21
 84.7726168566063 
  0
LINE
  8
0
 10
-14.7438799945034 
 20
 84.7726168566063 
 11
-14.7025806107653 
 21
 84.7575988988833 
  0
LINE
  8
0
 10
-14.7025806107653 
 20
 84.7575988988833 
 11
-14.6800536741809 
 21
 84.7012815574223 
  0
LINE
  8
0
 10
-14.6800536741809 
 20
 84.7012815574223 
 11
-14.6950716319039 
 21
 84.6599821736842 
  0
LINE
  8
0
 10
-14.6950716319039 
 20
 84.6599821736842 
 11
-14.807706314826 
 21
 84.6111738110846 
  0
LINE
  8
0
 10
-14.807706314826 
 20
 84.6111738110846 
 11
-14.6950716319039 
 21
 84.6599821736842 
  0
LINE
  8
0
 10
-14.6950716319039 
 20
 84.6599821736842 
 11
-14.6537722481657 
 21
 84.6449642159612 
  0
LINE
  8
0
 10
-14.6537722481657 
 20
 84.6449642159612 
 11
-14.6312453115813 
 21
 84.5848923850695 
  0
LINE
  8
0
 10
-14.6312453115813 
 20
 84.5848923850695 
 11
-14.6462632693043 
 21
 84.5473474907621 
  0
LINE
  8
0
 10
-14.6462632693043 
 20
 84.5473474907621 
 11
-14.7588979522264 
 21
 84.4985391281625 
  0
LINE
  8
0
 10
-96.5391867325354 
 20
 49.2776737784206 
 11
-96.6405579471653 
 21
 49.5066976336955 
  0
LINE
  8
0
 10
-96.6405579471653 
 20
 49.5066976336955 
 11
-96.5241687748125 
 21
 49.5555059962951 
  0
LINE
  8
0
 10
-96.5241687748125 
 20
 49.5555059962951 
 11
-96.4866238805051 
 21
 49.5404880385721 
  0
LINE
  8
0
 10
-96.4866238805051 
 20
 49.5404880385721 
 11
-96.46034245449 
 21
 49.4804162076803 
  0
LINE
  8
0
 10
-96.46034245449 
 20
 49.4804162076803 
 11
-96.4753604122129 
 21
 49.442871313373 
  0
LINE
  8
0
 10
-96.4753604122129 
 20
 49.442871313373 
 11
-96.5917495845658 
 21
 49.3940629507734 
  0
LINE
  8
0
 10
-96.5917495845658 
 20
 49.3940629507734 
 11
-96.4753604122129 
 21
 49.442871313373 
  0
LINE
  8
0
 10
-96.4753604122129 
 20
 49.442871313373 
 11
-96.4340610284748 
 21
 49.4240988662193 
  0
LINE
  8
0
 10
-96.4340610284748 
 20
 49.4240988662193 
 11
-96.4115340918904 
 21
 49.3677815247582 
  0
LINE
  8
0
 10
-96.4115340918904 
 20
 49.3677815247582 
 11
-96.4265520496133 
 21
 49.3264821410201 
  0
LINE
  8
0
 10
-96.4265520496133 
 20
 49.3264821410201 
 11
-96.5391867325354 
 21
 49.2776737784206 
  0
LINE
  8
0
 10
-96.4115340918904 
 20
 49.6043143588947 
 11
-96.3139173666912 
 21
 49.3752905036197 
  0
LINE
  8
0
 10
-96.3139173666912 
 20
 49.3752905036197 
 11
-96.3627257292908 
 21
 49.4916796759725 
  0
LINE
  8
0
 10
-96.3627257292908 
 20
 49.4916796759725 
 11
-96.2163006414921 
 21
 49.5517515068643 
  0
LINE
  8
0
 10
-96.2163006414921 
 20
 49.5517515068643 
 11
-96.1674922788925 
 21
 49.4353623345115 
  0
LINE
  8
0
 10
-96.1674922788925 
 20
 49.4353623345115 
 11
-96.2651090040916 
 21
 49.6681406792172 
  0
LINE
  8
0
 10
-96.1674922788925 
 20
 49.6756496580787 
 11
-96.1524743211695 
 21
 49.7169490418168 
  0
LINE
  8
0
 10
-96.1524743211695 
 20
 49.7169490418168 
 11
-96.0661210642626 
 21
 49.7544939361241 
  0
LINE
  8
0
 10
-96.0661210642626 
 20
 49.7544939361241 
 11
-96.0248216805245 
 21
 49.7394759784012 
  0
LINE
  8
0
 10
-96.0248216805245 
 20
 49.7394759784012 
 11
-95.9985402545093 
 21
 49.6794041475094 
  0
LINE
  8
0
 10
-95.9985402545093 
 20
 49.6794041475094 
 11
-96.017312701663 
 21
 49.6381047637713 
  0
LINE
  8
0
 10
-96.017312701663 
 20
 49.6381047637713 
 11
-96.10366595857 
 21
 49.6005598694639 
  0
LINE
  8
0
 10
-96.10366595857 
 20
 49.6005598694639 
 11
-96.017312701663 
 21
 49.6381047637713 
  0
LINE
  8
0
 10
-96.017312701663 
 20
 49.6381047637713 
 11
-95.9722588284942 
 21
 49.6193323166176 
  0
LINE
  8
0
 10
-95.9722588284942 
 20
 49.6193323166176 
 11
-95.9497318919098 
 21
 49.5667694645873 
  0
LINE
  8
0
 10
-95.9497318919098 
 20
 49.5667694645873 
 11
-95.9685043390634 
 21
 49.5217155914184 
  0
LINE
  8
0
 10
-95.9685043390634 
 20
 49.5217155914184 
 11
-96.0548575959704 
 21
 49.4841706971111 
  0
LINE
  8
0
 10
-96.0548575959704 
 20
 49.4841706971111 
 11
-96.0924024902778 
 21
 49.5029431442648 
  0
LINE
  8
0
 10
-85.1893651834181 
 20
 20.8336618511585 
 11
-85.275718440325 
 21
 21.0326497909876 
  0
LINE
  8
0
 10
-85.275718440325 
 20
 21.0326497909876 
 11
-85.2607004826021 
 21
 21.0739491747257 
  0
LINE
  8
0
 10
-85.2607004826021 
 20
 21.0739491747257 
 11
-85.1743472256951 
 21
 21.1114940690331 
  0
LINE
  8
0
 10
-85.1743472256951 
 20
 21.1114940690331 
 11
-85.1292933525263 
 21
 21.0964761113101 
  0
LINE
  8
0
 10
-85.1292933525263 
 20
 21.0964761113101 
 11
-85.0917484582189 
 21
 21.0101228544032 
  0
LINE
  8
0
 10
-85.0917484582189 
 20
 21.0101228544032 
 11
-85.2381735460177 
 21
 20.9462965340806 
  0
LINE
  8
0
 10
-85.2381735460177 
 20
 20.9462965340806 
 11
-85.0917484582189 
 21
 21.0101228544032 
  0
LINE
  8
0
 10
-85.0917484582189 
 20
 21.0101228544032 
 11
-85.0429400956193 
 21
 20.8974881714811 
  0
LINE
  8
0
 10
 0 
 20
 0 
 11
-3.7544894307368E-03 
 21
 1.12634682922104E-02 
  0
LINE
  8
0
 10
-3.7544894307368E-03 
 20
 1.12634682922104E-02 
 11
-3.7544894307368E-03 
 21
 1.12634682922104E-02 
  0
LINE
  8
0
 10
-3.7544894307368E-03 
 20
 1.12634682922104E-02 
 11
 .623245245502309 
 21
 .221514876413471 
  0
LINE
  8
0
 10
 .623245245502309 
 20
 .221514876413471 
 11
 1.25399946986609 
 21
 .435520773965469 
  0
LINE
  8
0
 10
 1.25399946986609 
 20
 .435520773965469 
 11
 1.88099920479914 
 21
 .653281160948204 
  0
LINE
  8
0
 10
 1.88099920479914 
 20
 .653281160948204 
 11
 2.50048996087071 
 21
 .882305016223149 
  0
LINE
  8
0
 10
 2.50048996087071 
 20
 .882305016223149 
 11
 3.11622622751155 
 21
 1.1225923397903 
  0
LINE
  8
0
 10
 3.11622622751155 
 20
 1.1225923397903 
 11
 3.72069902586017 
 21
 1.37414313164967 
  0
LINE
  8
0
 10
 3.72069902586017 
 20
 1.37414313164967 
 11
 4.31390835591659 
 21
 1.64446637066272 
  0
LINE
  8
0
 10
 4.31390835591659 
 20
 1.64446637066272 
 11
 4.89585421768079 
 21
 1.93731654626019 
  0
LINE
  8
0
 10
 4.89585421768079 
 20
 1.93731654626019 
 11
 5.46653661115279 
 21
 2.24893916901135 
  0
LINE
  8
0
 10
 5.46653661115279 
 20
 2.24893916901135 
 11
 6.0184465574711 
 21
 2.58308872834692 
  0
LINE
  8
0
 10
 6.0184465574711 
 20
 2.58308872834692 
 11
 6.0184465574711 
 21
 2.58308872834692 
  0
LINE
  8
0
 10
 6.0184465574711 
 20
 2.58308872834692 
 11
 6.0184465574711 
 21
 2.58308872834692 
  0
LINE
  8
0
 10
 6.0184465574711 
 20
 2.58308872834692 
 11
 6.55158405663572 
 21
 2.94727420312839 
  0
LINE
  8
0
 10
 6.55158405663572 
 20
 2.94727420312839 
 11
 7.08096706636961 
 21
 3.32272314620207 
  0
LINE
  8
0
 10
 7.08096706636961 
 20
 3.32272314620207 
 11
 7.60659558667276 
 21
 3.69817208927575 
  0
LINE
  8
0
 10
 7.60659558667276 
 20
 3.69817208927575 
 11
 8.14348757526813 
 21
 4.06235756405722 
  0
LINE
  8
0
 10
 8.14348757526813 
 20
 4.06235756405722 
 11
 8.69539752158644 
 21
 4.39275263396206 
  0
LINE
  8
0
 10
 8.69539752158644 
 20
 4.39275263396206 
 11
 9.27734338335064 
 21
 4.68935729899027 
  0
LINE
  8
0
 10
 9.27734338335064 
 20
 4.68935729899027 
 11
 9.88932516056074 
 21
 4.92589013312669 
  0
LINE
  8
0
 10
 9.88932516056074 
 20
 4.92589013312669 
 11
 10.5501153003704 
 21
 5.09108766807911 
  0
LINE
  8
0
 10
 10.5501153003704 
 20
 5.09108766807911 
 11
 11.2634682922104 
 21
 5.17368643555532 
  0
LINE
  8
0
 10
 11.2634682922104 
 20
 5.17368643555532 
 11
 12.0368931149422 
 21
 5.15866847783237 
  0
LINE
  8
0
 10
 12.0368931149422 
 20
 5.15866847783237 
 11
 12.0368931149422 
 21
 5.15866847783237 
  0
LINE
  8
0
 10
 12.0368931149422 
 20
 5.15866847783237 
 11
 12.0368931149422 
 21
 5.15866847783237 
  0
LINE
  8
0
 10
 12.0368931149422 
 20
 5.15866847783237 
 11
 12.8778987474272 
 21
 5.03852481604879 
  0
LINE
  8
0
 10
 12.8778987474272 
 20
 5.03852481604879 
 11
 13.7526947847889 
 21
 4.86206381280416 
  0
LINE
  8
0
 10
 13.7526947847889 
 20
 4.86206381280416 
 11
 14.6237363327199 
 21
 4.67809383069806 
  0
LINE
  8
0
 10
 14.6237363327199 
 20
 4.67809383069806 
 11
 15.4609874757742 
 21
 4.5391777217608 
  0
LINE
  8
0
 10
 15.4609874757742 
 20
 4.5391777217608 
 11
 16.2306578090752 
 21
 4.50163282745343 
  0
LINE
  8
0
 10
 16.2306578090752 
 20
 4.50163282745343 
 11
 16.8914479488849 
 21
 4.61426751037553 
  0
LINE
  8
0
 10
 16.8914479488849 
 20
 4.61426751037553 
 11
 17.417076469188 
 21
 4.92589013312669 
  0
LINE
  8
0
 10
 17.417076469188 
 20
 4.92589013312669 
 11
 17.7624894968158 
 21
 5.49657252659868 
  0
LINE
  8
0
 10
 17.7624894968158 
 20
 5.49657252659868 
 11
 17.8976511163223 
 21
 6.37136856396036 
  0
LINE
  8
0
 10
 17.8976511163223 
 20
 6.37136856396036 
 11
 17.7812619439695 
 21
 7.6103500761035 
  0
LINE
  8
0
 10
 17.7812619439695 
 20
 7.6103500761035 
 11
 17.7812619439695 
 21
 7.6103500761035 
  0
LINE
  8
0
 10
 17.7812619439695 
 20
 7.6103500761035 
 11
 17.7812619439695 
 21
 7.6103500761035 
  0
LINE
  8
0
 10
 17.7812619439695 
 20
 7.6103500761035 
 11
 17.4020585114651 
 21
 9.24355297847401 
  0
LINE
  8
0
 10
 17.4020585114651 
 20
 9.24355297847401 
 11
 16.7713042871013 
 21
 11.2334323767645 
  0
LINE
  8
0
 10
 16.7713042871013 
 20
 11.2334323767645 
 11
 15.9265441651855 
 21
 13.5274254189447 
  0
LINE
  8
0
 10
 15.9265441651855 
 20
 13.5274254189447 
 11
 14.8978140611636 
 21
 16.061705784692 
  0
LINE
  8
0
 10
 14.8978140611636 
 20
 16.061705784692 
 11
 13.7264133587738 
 21
 18.7799561325455 
  0
LINE
  8
0
 10
 13.7264133587738 
 20
 18.7799561325455 
 11
 12.4423779734618 
 21
 21.6333680999055 
  0
LINE
  8
0
 10
 12.4423779734618 
 20
 21.6333680999055 
 11
 11.0757438206736 
 21
 24.5543608770187 
  0
LINE
  8
0
 10
 11.0757438206736 
 20
 24.5543608770187 
 11
 9.66405579471653 
 21
 27.5016350801471 
  0
LINE
  8
0
 10
 9.66405579471653 
 20
 27.5016350801471 
 11
 8.24110430046728 
 21
 30.4038554101066 
  0
LINE
  8
0
 10
 8.24110430046728 
 20
 30.4038554101066 
 11
 6.84067974280246 
 21
 33.208459014867 
  0
LINE
  8
0
 10
 6.84067974280246 
 20
 33.208459014867 
 11
 6.84067974280246 
 21
 33.208459014867 
  0
LINE
  8
0
 10
 6.84067974280246 
 20
 33.208459014867 
 11
 6.84067974280246 
 21
 33.208459014867 
  0
LINE
  8
0
 10
 6.84067974280246 
 20
 33.208459014867 
 11
 5.48906354773721 
 21
 35.8816554895516 
  0
LINE
  8
0
 10
 5.48906354773721 
 20
 35.8816554895516 
 11
 4.19376469413301 
 21
 38.4347083024527 
  0
LINE
  8
0
 10
 4.19376469413301 
 20
 38.4347083024527 
 11
 2.95478318198986 
 21
 40.9014078584467 
  0
LINE
  8
0
 10
 2.95478318198986 
 20
 40.9014078584467 
 11
 1.77211901130777 
 21
 43.323053541272 
  0
LINE
  8
0
 10
 1.77211901130777 
 20
 43.323053541272 
 11
 .64577218208673 
 21
 45.733435755805 
  0
LINE
  8
0
 10
 .64577218208673 
 20
 45.733435755805 
 11
-.420502816242522 
 21
 48.1663449069225 
  0
LINE
  8
0
 10
-.420502816242522 
 20
 48.1663449069225 
 11
-1.42670598367999 
 21
 50.655571399501 
  0
LINE
  8
0
 10
-1.42670598367999 
 20
 50.655571399501 
 11
-2.3765918096564 
 21
 53.2349056384171 
  0
LINE
  8
0
 10
-2.3765918096564 
 20
 53.2349056384171 
 11
-3.26640580474102 
 21
 55.9418925179784 
  0
LINE
  8
0
 10
-3.26640580474102 
 20
 55.9418925179784 
 11
-4.09239347950312 
 21
 58.8065679536306 
  0
LINE
  8
0
 10
-4.09239347950312 
 20
 58.8065679536306 
 11
-4.09239347950312 
 21
 58.8065679536306 
  0
LINE
  8
0
 10
-4.09239347950312 
 20
 58.8065679536306 
 11
-4.09239347950312 
 21
 58.8065679536306 
  0
LINE
  8
0
 10
-4.09239347950312 
 20
 58.8065679536306 
 11
-4.86957279166563 
 21
 61.8514588819581 
  0
LINE
  8
0
 10
-4.86957279166563 
 20
 61.8514588819581 
 11
-5.61671618838226 
 21
 65.005230003777 
  0
LINE
  8
0
 10
-5.61671618838226 
 20
 65.005230003777 
 11
-6.37512305339109 
 21
 68.1852825516111 
  0
LINE
  8
0
 10
-6.37512305339109 
 20
 68.1852825516111 
 11
-7.17482930213803 
 21
 71.3090177579841 
  0
LINE
  8
0
 10
-7.17482930213803 
 20
 71.3090177579841 
 11
-8.05713431836118 
 21
 74.2900823659891 
  0
LINE
  8
0
 10
-8.05713431836118 
 20
 74.2900823659891 
 11
-9.05958299636791 
 21
 77.0496320975807 
  0
LINE
  8
0
 10
-9.05958299636791 
 20
 77.0496320975807 
 11
-10.2084567621734 
 21
 79.4938047169903 
  0
LINE
  8
0
 10
-10.2084567621734 
 20
 79.4938047169903 
 11
-11.5413005100849 
 21
 81.5437559461726 
  0
LINE
  8
0
 10
-11.5413005100849 
 20
 81.5437559461726 
 11
-13.09565913441 
 21
 83.1168870176514 
  0
LINE
  8
0
 10
-13.09565913441 
 20
 83.1168870176514 
 11
-14.9090775294559 
 21
 84.1268446745196 
  0
LINE
  8
0
 10
-14.9090775294559 
 20
 84.1268446745196 
 11
-14.9090775294559 
 21
 84.1268446745196 
  0
LINE
  8
0
 10
-14.9090775294559 
 20
 84.1268446745196 
 11
-14.9090775294559 
 21
 84.1268446745196 
  0
LINE
  8
0
 10
-14.9090775294559 
 20
 84.1268446745196 
 11
-17.0003281423763 
 21
 84.5135570858855 
  0
LINE
  8
0
 10
-17.0003281423763 
 20
 84.5135570858855 
 11
-19.3468840365868 
 21
 84.3370960826408 
  0
LINE
  8
0
 10
-19.3468840365868 
 20
 84.3370960826408 
 11
-21.896182360057 
 21
 83.6725514534004 
  0
LINE
  8
0
 10
-21.896182360057 
 20
 83.6725514534004 
 11
-24.621941686772 
 21
 82.6100309445019 
  0
LINE
  8
0
 10
-24.621941686772 
 20
 82.6100309445019 
 11
-27.4791081435627 
 21
 81.2283788339908 
  0
LINE
  8
0
 10
-27.4791081435627 
 20
 81.2283788339908 
 11
-30.4226278572603 
 21
 79.6101938893432 
  0
LINE
  8
0
 10
-30.4226278572603 
 20
 79.6101938893432 
 11
-33.4112014441268 
 21
 77.8380748780354 
  0
LINE
  8
0
 10
-33.4112014441268 
 20
 77.8380748780354 
 11
-36.4110384992855 
 21
 75.9946205675436 
  0
LINE
  8
0
 10
-36.4110384992855 
 20
 75.9946205675436 
 11
-39.3808396389983 
 21
 74.1624297253441 
  0
LINE
  8
0
 10
-39.3808396389983 
 20
 74.1624297253441 
 11
-42.2755509900964 
 21
 72.4241011189129 
  0
LINE
  8
0
 10
-42.2755509900964 
 20
 72.4241011189129 
 11
-42.2755509900964 
 21
 72.4241011189129 
  0
LINE
  8
0
 10
-42.2755509900964 
 20
 72.4241011189129 
 11
-42.2755509900964 
 21
 72.4241011189129 
  0
LINE
  8
0
 10
-42.2755509900964 
 20
 72.4241011189129 
 11
-45.0726456159953 
 21
 70.8434610685728 
  0
LINE
  8
0
 10
-45.0726456159953 
 20
 70.8434610685728 
 11
-47.7796324955566 
 21
 69.4167550848928 
  0
LINE
  8
0
 10
-47.7796324955566 
 20
 69.4167550848928 
 11
-50.4303020336567 
 21
 68.1139472524271 
  0
LINE
  8
0
 10
-50.4303020336567 
 20
 68.1139472524271 
 11
-53.0471811668803 
 21
 66.9237741028835 
  0
LINE
  8
0
 10
-53.0471811668803 
 20
 66.9237741028835 
 11
-55.6603058106731 
 21
 65.8161997208162 
  0
LINE
  8
0
 10
-55.6603058106731 
 20
 65.8161997208162 
 11
-58.2997118804811 
 21
 64.7686971696406 
  0
LINE
  8
0
 10
-58.2997118804811 
 20
 64.7686971696406 
 11
-60.9916808023194 
 21
 63.7587395127724 
  0
LINE
  8
0
 10
-60.9916808023194 
 20
 63.7587395127724 
 11
-63.7587395127724 
 21
 62.7637998136271 
  0
LINE
  8
0
 10
-63.7587395127724 
 20
 62.7637998136271 
 11
-66.6384329061475 
 21
 61.7575966461897 
  0
LINE
  8
0
 10
-66.6384329061475 
 20
 61.7575966461897 
 11
-69.6457789401677 
 21
 60.7251120527371 
  0
LINE
  8
0
 10
-69.6457789401677 
 20
 60.7251120527371 
 11
-69.6457789401677 
 21
 60.7251120527371 
  0
LINE
  8
0
 10
-69.6457789401677 
 20
 60.7251120527371 
 11
-69.6457789401677 
 21
 60.7251120527371 
  0
LINE
  8
0
 10
-69.6457789401677 
 20
 60.7251120527371 
 11
-72.7995500619866 
 21
 59.6400646072541 
  0
LINE
  8
0
 10
-72.7995500619866 
 20
 59.6400646072541 
 11
-76.0434289301432 
 21
 58.5099632886023 
  0
LINE
  8
0
 10
-76.0434289301432 
 20
 58.5099632886023 
 11
-79.3060802454535 
 21
 57.3460715650739 
  0
LINE
  8
0
 10
-79.3060802454535 
 20
 57.3460715650739 
 11
-82.5236776875949 
 21
 56.1634073943919 
  0
LINE
  8
0
 10
-82.5236776875949 
 20
 56.1634073943919 
 11
-85.6098679996606 
 21
 54.9657252659868 
  0
LINE
  8
0
 10
-85.6098679996606 
 20
 54.9657252659868 
 11
-88.5120883296201 
 21
 53.764288648151 
  0
LINE
  8
0
 10
-88.5120883296201 
 20
 53.764288648151 
 11
-91.1514943994281 
 21
 52.5703610091767 
  0
LINE
  8
0
 10
-91.1514943994281 
 20
 52.5703610091767 
 11
-93.4567509099005 
 21
 51.3914513279254 
  0
LINE
  8
0
 10
-93.4567509099005 
 20
 51.3914513279254 
 11
-95.3602770512841 
 21
 50.2463320515506 
  0
LINE
  8
0
 10
-95.3602770512841 
 20
 50.2463320515506 
 11
-96.7869830349641 
 21
 49.1387576694833 
  0
LINE
  8
0
 10
-96.7869830349641 
 20
 49.1387576694833 
 11
-96.7869830349641 
 21
 49.1387576694833 
  0
LINE
  8
0
 10
-96.7869830349641 
 20
 49.1387576694833 
 11
-96.7869830349641 
 21
 49.1387576694833 
  0
LINE
  8
0
 10
-96.7869830349641 
 20
 49.1387576694833 
 11
-97.6955694772024 
 21
 48.0762371605848 
  0
LINE
  8
0
 10
-97.6955694772024 
 20
 48.0762371605848 
 11
-98.1273357617371 
 21
 47.0587705248551 
  0
LINE
  8
0
 10
-98.1273357617371 
 20
 47.0587705248551 
 11
-98.1498626983215 
 21
 46.0750942940021 
  0
LINE
  8
0
 10
-98.1498626983215 
 20
 46.0750942940021 
 11
-97.8382400755704 
 21
 45.1252084680256 
  0
LINE
  8
0
 10
-97.8382400755704 
 20
 45.1252084680256 
 11
-97.2600487032369 
 21
 44.1940950892029 
  0
LINE
  8
0
 10
-97.2600487032369 
 20
 44.1940950892029 
 11
-96.4791149016436 
 21
 43.2817541575339 
  0
LINE
  8
0
 10
-96.4791149016436 
 20
 43.2817541575339 
 11
-95.5667739699746 
 21
 42.3844311835878 
  0
LINE
  8
0
 10
-95.5667739699746 
 20
 42.3844311835878 
 11
-94.590606717983 
 21
 41.4871082096417 
  0
LINE
  8
0
 10
-94.590606717983 
 20
 41.4871082096417 
 11
-93.6257029342837 
 21
 40.5897852356956 
  0
LINE
  8
0
 10
-93.6257029342837 
 20
 40.5897852356956 
 11
-92.735888939199 
 21
 39.6811987934573 
  0
LINE
  8
0
 10
-92.735888939199 
 20
 39.6811987934573 
 11
-92.735888939199 
 21
 39.6811987934573 
  0
LINE
  8
0
 10
-92.735888939199 
 20
 39.6811987934573 
 11
-92.735888939199 
 21
 39.6811987934573 
  0
LINE
  8
0
 10
-92.735888939199 
 20
 39.6811987934573 
 11
-91.9737275847595 
 21
 38.7613488829268 
  0
LINE
  8
0
 10
-91.9737275847595 
 20
 38.7613488829268 
 11
-91.339218870965 
 21
 37.8339899935348 
  0
LINE
  8
0
 10
-91.339218870965 
 20
 37.8339899935348 
 11
-90.8098358612311 
 21
 36.8916131464198 
  0
LINE
  8
0
 10
-90.8098358612311 
 20
 36.8916131464198 
 11
-90.3743150872656 
 21
 35.9417273204434 
  0
LINE
  8
0
 10
-90.3743150872656 
 20
 35.9417273204434 
 11
-90.0176385913456 
 21
 34.9880870050363 
  0
LINE
  8
0
 10
-90.0176385913456 
 20
 34.9880870050363 
 11
-89.7097704580252 
 21
 34.0306922001984 
  0
LINE
  8
0
 10
-89.7097704580252 
 20
 34.0306922001984 
 11
-89.4356927295814 
 21
 33.0732973953605 
  0
LINE
  8
0
 10
-89.4356927295814 
 20
 33.0732973953605 
 11
-89.1878964271528 
 21
 32.1159025905226 
  0
LINE
  8
0
 10
-89.1878964271528 
 20
 32.1159025905226 
 11
-88.9363456352934 
 21
 31.1585077856847 
  0
LINE
  8
0
 10
-88.9363456352934 
 20
 31.1585077856847 
 11
-88.6697768857111 
 21
 30.2086219597083 
  0
LINE
  8
0
 10
-88.6697768857111 
 20
 30.2086219597083 
 11
-88.6697768857111 
 21
 30.2086219597083 
  0
LINE
  8
0
 10
-88.6697768857111 
 20
 30.2086219597083 
 11
-88.6697768857111 
 21
 30.2086219597083 
  0
LINE
  8
0
 10
-88.6697768857111 
 20
 30.2086219597083 
 11
-88.3731722206829 
 21
 29.2662451125934 
  0
LINE
  8
0
 10
-88.3731722206829 
 20
 29.2662451125934 
 11
-88.0465316402088 
 21
 28.3313772443399 
  0
LINE
  8
0
 10
-88.0465316402088 
 20
 28.3313772443399 
 11
-87.6898551442888 
 21
 27.4002638655172 
  0
LINE
  8
0
 10
-87.6898551442888 
 20
 27.4002638655172 
 11
-87.3106517117844 
 21
 26.4766594655559 
  0
LINE
  8
0
 10
-87.3106517117844 
 20
 26.4766594655559 
 11
-86.9089213426955 
 21
 25.5530550655947 
  0
LINE
  8
0
 10
-86.9089213426955 
 20
 25.5530550655947 
 11
-86.4921730158837 
 21
 24.6407141339256 
  0
LINE
  8
0
 10
-86.4921730158837 
 20
 24.6407141339256 
 11
-86.060406731349 
 21
 23.7283732022566 
  0
LINE
  8
0
 10
-86.060406731349 
 20
 23.7283732022566 
 11
-85.6211314679528 
 21
 22.8160322705876 
  0
LINE
  8
0
 10
-85.6211314679528 
 20
 22.8160322705876 
 11
-85.1705927362644 
 21
 21.9074458283493 
  0
LINE
  8
0
 10
-85.1705927362644 
 20
 21.9074458283493 
 11
-84.720054004576 
 21
 20.9988593861109 
  0
LINE
  8
0
 10
-84.720054004576 
 20
 20.9988593861109 
 11
-84.720054004576 
 21
 20.9988593861109 
  0
LINE
  8
0
 10
-84.720054004576 
 20
 20.9988593861109 
 11
-84.7726168566063 
 21
 20.9763324495265 
  0
LINE
  8
0
 10
-84.7726168566063 
 20
 20.9763324495265 
 11
-84.7726168566063 
 21
 20.9763324495265 
  0
LINE
  8
0
 10
-84.7726168566063 
 20
 20.9763324495265 
 11
-85.2231555882947 
 21
 21.8849188917648 
  0
LINE
  8
0
 10
-85.2231555882947 
 20
 21.8849188917648 
 11
-85.6699398305524 
 21
 22.7935053340031 
  0
LINE
  8
0
 10
-85.6699398305524 
 20
 22.7935053340031 
 11
-86.1092150939486 
 21
 23.7096007551029 
  0
LINE
  8
0
 10
-86.1092150939486 
 20
 23.7096007551029 
 11
-86.5372268890526 
 21
 24.6181871973412 
  0
LINE
  8
0
 10
-86.5372268890526 
 20
 24.6181871973412 
 11
-86.9502207264336 
 21
 25.534282618441 
  0
LINE
  8
0
 10
-86.9502207264336 
 20
 25.534282618441 
 11
-87.3519510955225 
 21
 26.4578870184023 
  0
LINE
  8
0
 10
-87.3519510955225 
 20
 26.4578870184023 
 11
-87.7274000385961 
 21
 27.3852459077943 
  0
LINE
  8
0
 10
-87.7274000385961 
 20
 27.3852459077943 
 11
-88.0840765345161 
 21
 28.316359286617 
  0
LINE
  8
0
 10
-88.0840765345161 
 20
 28.316359286617 
 11
-88.4069626255595 
 21
 29.2512271548704 
  0
LINE
  8
0
 10
-88.4069626255595 
 20
 29.2512271548704 
 11
-88.7035672905877 
 21
 30.1936040019854 
  0
LINE
  8
0
 10
-88.7035672905877 
 20
 30.1936040019854 
 11
-88.7035672905877 
 21
 30.1936040019854 
  0
LINE
  8
0
 10
-88.7035672905877 
 20
 30.1936040019854 
 11
-88.7035672905877 
 21
 30.1936040019854 
  0
LINE
  8
0
 10
-88.7035672905877 
 20
 30.1936040019854 
 11
-88.9663815507393 
 21
 31.1472443173925 
  0
LINE
  8
0
 10
-88.9663815507393 
 20
 31.1472443173925 
 11
-89.2141778531679 
 21
 32.1008846327997 
  0
LINE
  8
0
 10
-89.2141778531679 
 20
 32.1008846327997 
 11
-89.4657286450273 
 21
 33.0620339270683 
  0
LINE
  8
0
 10
-89.4657286450273 
 20
 33.0620339270683 
 11
-89.7322973946096 
 21
 34.0194287319062 
  0
LINE
  8
0
 10
-89.7322973946096 
 20
 34.0194287319062 
 11
-90.0364110384993 
 21
 34.9805780261748 
  0
LINE
  8
0
 10
-90.0364110384993 
 20
 34.9805780261748 
 11
-90.4005965132808 
 21
 35.934218341582 
  0
LINE
  8
0
 10
-90.4005965132808 
 20
 35.934218341582 
 11
-90.8286083083847 
 21
 36.8841041675584 
  0
LINE
  8
0
 10
-90.8286083083847 
 20
 36.8841041675584 
 11
-91.3542368286879 
 21
 37.8264810146733 
  0
LINE
  8
0
 10
-91.3542368286879 
 20
 37.8264810146733 
 11
-91.9887455424824 
 21
 38.757594393496 
  0
LINE
  8
0
 10
-91.9887455424824 
 20
 38.757594393496 
 11
-92.7471524074913 
 21
 39.6774443040265 
  0
LINE
  8
0
 10
-92.7471524074913 
 20
 39.6774443040265 
 11
-92.7471524074913 
 21
 39.6774443040265 
  0
LINE
  8
0
 10
-92.7471524074913 
 20
 39.6774443040265 
 11
-92.7471524074913 
 21
 39.6774443040265 
  0
LINE
  8
0
 10
-92.7471524074913 
 20
 39.6774443040265 
 11
-93.6369664025759 
 21
 40.5822762568341 
  0
LINE
  8
0
 10
-93.6369664025759 
 20
 40.5822762568341 
 11
-94.6018701862752 
 21
 41.4795992307802 
  0
LINE
  8
0
 10
-94.6018701862752 
 20
 41.4795992307802 
 11
-95.5780374382668 
 21
 42.3731677152956 
  0
LINE
  8
0
 10
-95.5780374382668 
 20
 42.3731677152956 
 11
-96.4866238805051 
 21
 43.2779996681031 
  0
LINE
  8
0
 10
-96.4866238805051 
 20
 43.2779996681031 
 11
-97.2638031926676 
 21
 44.1903405997722 
  0
LINE
  8
0
 10
-97.2638031926676 
 20
 44.1903405997722 
 11
-97.8419945650011 
 21
 45.1176994891642 
  0
LINE
  8
0
 10
-97.8419945650011 
 20
 45.1176994891642 
 11
-98.1536171877523 
 21
 46.0713398045713 
  0
LINE
  8
0
 10
-98.1536171877523 
 20
 46.0713398045713 
 11
-98.1273357617371 
 21
 47.0512615459936 
  0
LINE
  8
0
 10
-98.1273357617371 
 20
 47.0512615459936 
 11
-97.6955694772024 
 21
 48.0762371605848 
  0
LINE
  8
0
 10
-97.6955694772024 
 20
 48.0762371605848 
 11
-96.7869830349641 
 21
 49.1387576694833 
  0
LINE
  8
0
 10
-96.7869830349641 
 20
 49.1387576694833 
 11
-96.7869830349641 
 21
 49.1387576694833 
  0
LINE
  8
0
 10
-96.7869830349641 
 20
 49.1387576694833 
 11
-96.7869830349641 
 21
 49.1387576694833 
  0
LINE
  8
0
 10
-96.7869830349641 
 20
 49.1387576694833 
 11
-95.3602770512841 
 21
 50.2463320515506 
  0
LINE
  8
0
 10
-95.3602770512841 
 20
 50.2463320515506 
 11
-93.4567509099005 
 21
 51.3952058173561 
  0
LINE
  8
0
 10
-93.4567509099005 
 20
 51.3952058173561 
 11
-91.1514943994281 
 21
 52.5741154986075 
  0
LINE
  8
0
 10
-91.1514943994281 
 20
 52.5741154986075 
 11
-88.5158428190509 
 21
 53.7717976270125 
  0
LINE
  8
0
 10
-88.5158428190509 
 20
 53.7717976270125 
 11
-85.6173769785221 
 21
 54.9732342448483 
  0
LINE
  8
0
 10
-85.6173769785221 
 20
 54.9732342448483 
 11
-82.5236776875949 
 21
 56.1746708626841 
  0
LINE
  8
0
 10
-82.5236776875949 
 20
 56.1746708626841 
 11
-79.313589224315 
 21
 57.3648440122276 
  0
LINE
  8
0
 10
-79.313589224315 
 20
 57.3648440122276 
 11
-76.0509379090047 
 21
 58.528735735756 
  0
LINE
  8
0
 10
-76.0509379090047 
 20
 58.528735735756 
 11
-72.8070590408481 
 21
 59.6588370544078 
  0
LINE
  8
0
 10
-72.8070590408481 
 20
 59.6588370544078 
 11
-69.6532879190292 
 21
 60.74013001046 
  0
LINE
  8
0
 10
-69.6532879190292 
 20
 60.74013001046 
 11
-69.6532879190292 
 21
 60.74013001046 
  0
LINE
  8
0
 10
-69.6532879190292 
 20
 60.74013001046 
 11
-69.6532879190292 
 21
 60.74013001046 
  0
LINE
  8
0
 10
-69.6532879190292 
 20
 60.74013001046 
 11
-66.645941885009 
 21
 61.7801235827741 
  0
LINE
  8
0
 10
-66.645941885009 
 20
 61.7801235827741 
 11
-63.7737574704954 
 21
 62.7825722607808 
  0
LINE
  8
0
 10
-63.7737574704954 
 20
 62.7825722607808 
 11
-60.9991897811809 
 21
 63.7775119599261 
  0
LINE
  8
0
 10
-60.9991897811809 
 20
 63.7775119599261 
 11
-58.3072208593426 
 21
 64.7874696167943 
  0
LINE
  8
0
 10
-58.3072208593426 
 20
 64.7874696167943 
 11
-55.6678147895346 
 21
 65.8349721679699 
  0
LINE
  8
0
 10
-55.6678147895346 
 20
 65.8349721679699 
 11
-53.0546901457418 
 21
 66.9387920606065 
  0
LINE
  8
0
 10
-53.0546901457418 
 20
 66.9387920606065 
 11
-50.4378110125182 
 21
 68.1327196995808 
  0
LINE
  8
0
 10
-50.4378110125182 
 20
 68.1327196995808 
 11
-47.787141474418 
 21
 69.428018553185 
  0
LINE
  8
0
 10
-47.787141474418 
 20
 69.428018553185 
 11
-45.0764001054261 
 21
 70.854724536865 
  0
LINE
  8
0
 10
-45.0764001054261 
 20
 70.854724536865 
 11
-42.2793054795272 
 21
 72.4353645872052 
  0
LINE
  8
0
 10
-42.2793054795272 
 20
 72.4353645872052 
 11
-42.2793054795272 
 21
 72.4353645872052 
  0
LINE
  8
0
 10
-42.2793054795272 
 20
 72.4353645872052 
 11
-42.2793054795272 
 21
 72.4353645872052 
  0
LINE
  8
0
 10
-42.2793054795272 
 20
 72.4353645872052 
 11
-39.3845941284291 
 21
 74.1699387042056 
  0
LINE
  8
0
 10
-39.3845941284291 
 20
 74.1699387042056 
 11
-36.418547478147 
 21
 76.0058840358359 
  0
LINE
  8
0
 10
-36.418547478147 
 20
 76.0058840358359 
 11
-33.4149559335576 
 21
 77.8455838568969 
  0
LINE
  8
0
 10
-33.4149559335576 
 20
 77.8455838568969 
 11
-30.4226278572603 
 21
 79.6177028682047 
  0
LINE
  8
0
 10
-30.4226278572603 
 20
 79.6177028682047 
 11
-27.4753536541319 
 21
 81.2321333234215 
  0
LINE
  8
0
 10
-27.4753536541319 
 20
 81.2321333234215 
 11
-24.6256961762027 
 21
 82.6137854339326 
  0
LINE
  8
0
 10
-24.6256961762027 
 20
 82.6137854339326 
 11
-21.8999368494878 
 21
 83.6763059428311 
  0
LINE
  8
0
 10
-21.8999368494878 
 20
 83.6763059428311 
 11
-19.343129547156 
 21
 84.3370960826408 
  0
LINE
  8
0
 10
-19.343129547156 
 20
 84.3370960826408 
 11
-17.0003281423763 
 21
 84.5135570858855 
  0
LINE
  8
0
 10
-17.0003281423763 
 20
 84.5135570858855 
 11
-14.9090775294559 
 21
 84.1268446745196 
  0
LINE
  8
0
 10
-14.9090775294559 
 20
 84.1268446745196 
 11
-14.9090775294559 
 21
 84.1268446745196 
  0
LINE
  8
0
 10
-14.9090775294559 
 20
 84.1268446745196 
 11
-14.9090775294559 
 21
 84.1268446745196 
  0
LINE
  8
0
 10
-14.9090775294559 
 20
 84.1268446745196 
 11
-13.09565913441 
 21
 83.1168870176514 
  0
LINE
  8
0
 10
-13.09565913441 
 20
 83.1168870176514 
 11
-11.5375460206542 
 21
 81.5475104356034 
  0
LINE
  8
0
 10
-11.5375460206542 
 20
 81.5475104356034 
 11
-10.2047022727426 
 21
 79.4975592064211 
  0
LINE
  8
0
 10
-10.2047022727426 
 20
 79.4975592064211 
 11
-9.05582850693717 
 21
 77.0496320975807 
  0
LINE
  8
0
 10
-9.05582850693717 
 20
 77.0496320975807 
 11
-8.05713431836118 
 21
 74.2900823659891 
  0
LINE
  8
0
 10
-8.05713431836118 
 20
 74.2900823659891 
 11
-7.17482930213803 
 21
 71.3090177579841 
  0
LINE
  8
0
 10
-7.17482930213803 
 20
 71.3090177579841 
 11
-6.37512305339109 
 21
 68.1852825516111 
  0
LINE
  8
0
 10
-6.37512305339109 
 20
 68.1852825516111 
 11
-5.61296169895152 
 21
 65.005230003777 
  0
LINE
  8
0
 10
-5.61296169895152 
 20
 65.005230003777 
 11
-4.8658183022349 
 21
 61.8514588819581 
  0
LINE
  8
0
 10
-4.8658183022349 
 20
 61.8514588819581 
 11
-4.09239347950312 
 21
 58.8065679536306 
  0
LINE
  8
0
 10
-4.09239347950312 
 20
 58.8065679536306 
 11
-4.09239347950312 
 21
 58.8065679536306 
  0
LINE
  8
0
 10
-4.09239347950312 
 20
 58.8065679536306 
 11
-4.09239347950312 
 21
 58.8065679536306 
  0
LINE
  8
0
 10
-4.09239347950312 
 20
 58.8065679536306 
 11
-3.26265131531028 
 21
 55.9418925179784 
  0
LINE
  8
0
 10
-3.26265131531028 
 20
 55.9418925179784 
 11
-2.3765918096564 
 21
 53.2349056384171 
  0
LINE
  8
0
 10
-2.3765918096564 
 20
 53.2349056384171 
 11
-1.42295149424925 
 21
 50.655571399501 
  0
LINE
  8
0
 10
-1.42295149424925 
 20
 50.655571399501 
 11
-.416748326811785 
 21
 48.1663449069225 
  0
LINE
  8
0
 10
-.416748326811785 
 20
 48.1663449069225 
 11
 .653281160948204 
 21
 45.7371902452357 
  0
LINE
  8
0
 10
 .653281160948204 
 20
 45.7371902452357 
 11
 1.77587350073851 
 21
 43.3268080307027 
  0
LINE
  8
0
 10
 1.77587350073851 
 20
 43.3268080307027 
 11
 2.9585376714206 
 21
 40.9051623478775 
  0
LINE
  8
0
 10
 2.9585376714206 
 20
 40.9051623478775 
 11
 4.20127367299448 
 21
 38.4384627918834 
  0
LINE
  8
0
 10
 4.20127367299448 
 20
 38.4384627918834 
 11
 5.49281803716794 
 21
 35.8854099789824 
  0
LINE
  8
0
 10
 5.49281803716794 
 20
 35.8854099789824 
 11
 6.84818872166393 
 21
 33.2122135042978 
  0
LINE
  8
0
 10
 6.84818872166393 
 20
 33.2122135042978 
 11
 6.84818872166393 
 21
 33.2122135042978 
  0
LINE
  8
0
 10
 6.84818872166393 
 20
 33.2122135042978 
 11
 6.84818872166393 
 21
 33.2122135042978 
  0
LINE
  8
0
 10
 6.84818872166393 
 20
 33.2122135042978 
 11
 8.24861327932876 
 21
 30.4076098995374 
  0
LINE
  8
0
 10
 8.24861327932876 
 20
 30.4076098995374 
 11
 9.67156477357801 
 21
 27.5016350801471 
  0
LINE
  8
0
 10
 9.67156477357801 
 20
 27.5016350801471 
 11
 11.0794983101043 
 21
 24.5581153664494 
  0
LINE
  8
0
 10
 11.0794983101043 
 20
 24.5581153664494 
 11
 12.4461324628925 
 21
 21.6333680999055 
  0
LINE
  8
0
 10
 12.4461324628925 
 20
 21.6333680999055 
 11
 13.7301678482045 
 21
 18.7837106219762 
  0
LINE
  8
0
 10
 13.7301678482045 
 20
 18.7837106219762 
 11
 14.9015685505944 
 21
 16.061705784692 
  0
LINE
  8
0
 10
 14.9015685505944 
 20
 16.061705784692 
 11
 15.9265441651855 
 21
 13.5274254189447 
  0
LINE
  8
0
 10
 15.9265441651855 
 20
 13.5274254189447 
 11
 16.7713042871013 
 21
 11.2334323767645 
  0
LINE
  8
0
 10
 16.7713042871013 
 20
 11.2334323767645 
 11
 17.4020585114651 
 21
 9.24355297847401 
  0
LINE
  8
0
 10
 17.4020585114651 
 20
 9.24355297847401 
 11
 17.7812619439695 
 21
 7.6103500761035 
  0
LINE
  8
0
 10
 17.7812619439695 
 20
 7.6103500761035 
 11
 17.7812619439695 
 21
 7.6103500761035 
  0
LINE
  8
0
 10
 17.7812619439695 
 20
 7.6103500761035 
 11
 17.7812619439695 
 21
 7.6103500761035 
  0
LINE
  8
0
 10
 17.7812619439695 
 20
 7.6103500761035 
 11
 17.8976511163223 
 21
 6.37136856396036 
  0
LINE
  8
0
 10
 17.8976511163223 
 20
 6.37136856396036 
 11
 17.7624894968158 
 21
 5.49657252659868 
  0
LINE
  8
0
 10
 17.7624894968158 
 20
 5.49657252659868 
 11
 17.4133219797573 
 21
 4.92213564369595 
  0
LINE
  8
0
 10
 17.4133219797573 
 20
 4.92213564369595 
 11
 16.8952024383156 
 21
 4.61051302094479 
  0
LINE
  8
0
 10
 16.8952024383156 
 20
 4.61051302094479 
 11
 16.2306578090752 
 21
 4.49787833802269 
  0
LINE
  8
0
 10
 16.2306578090752 
 20
 4.49787833802269 
 11
 15.4609874757742 
 21
 4.5391777217608 
  0
LINE
  8
0
 10
 15.4609874757742 
 20
 4.5391777217608 
 11
 14.6237363327199 
 21
 4.67433934126732 
  0
LINE
  8
0
 10
 14.6237363327199 
 20
 4.67433934126732 
 11
 13.7526947847889 
 21
 4.86206381280416 
  0
LINE
  8
0
 10
 13.7526947847889 
 20
 4.86206381280416 
 11
 12.8778987474272 
 21
 5.03477032661805 
  0
LINE
  8
0
 10
 12.8778987474272 
 20
 5.03477032661805 
 11
 12.0406476043729 
 21
 5.15491398840163 
  0
LINE
  8
0
 10
 12.0406476043729 
 20
 5.15491398840163 
 11
 12.0406476043729 
 21
 5.15491398840163 
  0
LINE
  8
0
 10
 12.0406476043729 
 20
 5.15491398840163 
 11
 12.0406476043729 
 21
 5.15491398840163 
  0
LINE
  8
0
 10
 12.0406476043729 
 20
 5.15491398840163 
 11
 11.2672227816412 
 21
 5.16617745669384 
  0
LINE
  8
0
 10
 11.2672227816412 
 20
 5.16617745669384 
 11
 10.5538697898012 
 21
 5.08733317864837 
  0
LINE
  8
0
 10
 10.5538697898012 
 20
 5.08733317864837 
 11
 9.89307964999148 
 21
 4.91838115426521 
  0
LINE
  8
0
 10
 9.89307964999148 
 20
 4.91838115426521 
 11
 9.27734338335064 
 21
 4.68560280955953 
  0
LINE
  8
0
 10
 9.27734338335064 
 20
 4.68560280955953 
 11
 8.69915201101718 
 21
 4.38899814453132 
  0
LINE
  8
0
 10
 8.69915201101718 
 20
 4.38899814453132 
 11
 8.14724206469886 
 21
 4.05860307462648 
  0
LINE
  8
0
 10
 8.14724206469886 
 20
 4.05860307462648 
 11
 7.6103500761035 
 21
 3.69066311041428 
  0
LINE
  8
0
 10
 7.6103500761035 
 20
 3.69066311041428 
 11
 7.08472155580035 
 21
 3.3152141673406 
  0
LINE
  8
0
 10
 7.08472155580035 
 20
 3.3152141673406 
 11
 6.55533854606646 
 21
 2.93976522426692 
  0
LINE
  8
0
 10
 6.55533854606646 
 20
 2.93976522426692 
 11
 6.0184465574711 
 21
 2.57557974948545 
  0
LINE
  8
0
 10
 6.0184465574711 
 20
 2.57557974948545 
 11
 6.0184465574711 
 21
 2.57557974948545 
  0
LINE
  8
0
 10
 6.0184465574711 
 20
 2.57557974948545 
 11
 6.0184465574711 
 21
 2.57557974948545 
  0
LINE
  8
0
 10
 6.0184465574711 
 20
 2.57557974948545 
 11
 5.47029110058352 
 21
 2.23767570071914 
  0
LINE
  8
0
 10
 5.47029110058352 
 20
 2.23767570071914 
 11
 4.90336319654227 
 21
 1.92605307796798 
  0
LINE
  8
0
 10
 4.90336319654227 
 20
 1.92605307796798 
 11
 4.31766284534732 
 21
 1.63695739180125 
  0
LINE
  8
0
 10
 4.31766284534732 
 20
 1.63695739180125 
 11
 3.72445351529091 
 21
 1.36287966335746 
  0
LINE
  8
0
 10
 3.72445351529091 
 20
 1.36287966335746 
 11
 3.12373520637302 
 21
 1.11132887149809 
  0
LINE
  8
0
 10
 3.12373520637302 
 20
 1.11132887149809 
 11
 2.50424445030145 
 21
 .871041547930939 
  0
LINE
  8
0
 10
 2.50424445030145 
 20
 .871041547930939 
 11
 1.88475369422988 
 21
 .642017692655993 
  0
LINE
  8
0
 10
 1.88475369422988 
 20
 .642017692655993 
 11
 1.26150844872757 
 21
 .424257305673259 
  0
LINE
  8
0
 10
 1.26150844872757 
 20
 .424257305673259 
 11
 .630754224363783 
 21
 .206496918690524 
  0
LINE
  8
0
 10
 .630754224363783 
 20
 .206496918690524 
 11
-3.7544894307368E-03 
 21
-3.7544894307368E-03 
  0
LINE
  8
0
 10
-3.7544894307368E-03 
 20
-3.7544894307368E-03 
 11
 0 
 21
 0 
  0
ENDSEC
  0
EOF
