  0
SECTION
  2
ENTITIES
  0
POLYLINE
  8
0
 66
     1
 10
0.0
 20
0.0
 30
0.0
  0
VERTEX
  8
0
 10
-7.86316342178498E-03 
 20
 16.8410480403999 
 30
 11.9069444479905 
  0
VERTEX
  8
0
 10
-7.86316342178498E-03 
 20
 15.11 
 30
 2.42 
  0
VERTEX
  8
0
 10
-5.3806530968161E-03 
 20
 14.05 
 30
 1.37 
  0
VERTEX
  8
0
 10
-.01 
 20
 12 
 30
 2.16 
  0
VERTEX
  8
0
 10
-5.3806530968161E-03 
 20
 9.43348998454346 
 30
 5.26945626634474 
  0
VERTEX
  8
0
 10
-5.3806530968161E-03 
 20
 6.55494577698794 
 30
 10.0525011850269 
  0
VERTEX
  8
0
 10
-5.3806530968161E-03 
 20
 4.28652778733817 
 30
 15.6259645436607 
  0
VERTEX
  8
0
 10
-9.54430411479767E-03 
 20
 2.18146718146719 
 30
 27.0487254939428 
  0
VERTEX
  8
0
 10
 9.54430411479767E-03 
 20
 2.18146718146719 
 30
 27.0487254939428 
  0
VERTEX
  8
0
 10
 5.3806530968161E-03 
 20
 4.28652778733817 
 30
 15.6259645436607 
  0
VERTEX
  8
0
 10
 5.3806530968161E-03 
 20
 6.55494577698794 
 30
 10.0525011850269 
  0
VERTEX
  8
0
 10
 5.3806530968161E-03 
 20
 9.43348998454346 
 30
 5.26945626634474 
  0
VERTEX
  8
0
 10
 .01 
 20
 12 
 30
 2.16 
  0
VERTEX
  8
0
 10
 5.3806530968161E-03 
 20
 14.05 
 30
 1.37 
  0
VERTEX
  8
0
 10
 7.86316342178498E-03 
 20
 15.11 
 30
 2.42 
  0
VERTEX
  8
0
 10
 7.86316342178498E-03 
 20
 16.8410480403999 
 30
 11.9069444479905 
  0
SEQEND
  0
POLYLINE
  8
0
 66
     1
 10
0.0
 20
0.0
 30
0.0
  0
VERTEX
  8
0
 10
-9.54430411479767E-03 
 20
 18.4362934362934 
 30
 46.07999 
  0
VERTEX
  8
0
 10
-4.35733897697865 
 20
 17.69 
 30
 46.07999 
  0
VERTEX
  8
0
 10
-6.84306926585908 
 20
 15.94 
 30
 46.07999 
  0
VERTEX
  8
0
 10
-9.26 
 20
 12 
 30
 46.07999 
  0
VERTEX
  8
0
 10
-8.74 
 20
 8.63 
 30
 46.07999 
  0
VERTEX
  8
0
 10
-6.99903665653393 
 20
 4.06 
 30
 46.07999 
  0
VERTEX
  8
0
 10
-2.32976289820559 
 20
 2.14 
 30
 46.07999 
  0
VERTEX
  8
0
 10
-.104987345262774 
 20
 1.3030888030888 
 30
 46.07999 
  0
VERTEX
  8
0
 10
 .104987345262774 
 20
 1.3030888030888 
 30
 46.07999 
  0
VERTEX
  8
0
 10
 2.32976289820559 
 20
 2.14 
 30
 46.07999 
  0
VERTEX
  8
0
 10
 6.99903665653393 
 20
 4.06 
 30
 46.07999 
  0
VERTEX
  8
0
 10
 8.74 
 20
 8.63 
 30
 46.07999 
  0
VERTEX
  8
0
 10
 9.26 
 20
 12 
 30
 46.07999 
  0
VERTEX
  8
0
 10
 6.84306926585908 
 20
 15.94 
 30
 46.07999 
  0
VERTEX
  8
0
 10
 4.35733897697865 
 20
 17.69 
 30
 46.07999 
  0
VERTEX
  8
0
 10
 9.54430411479767E-03 
 20
 18.4362934362934 
 30
 46.07999 
  0
SEQEND
  0
POLYLINE
  8
0
 66
     1
 10
0.0
 20
0.0
 30
0.0
  0
VERTEX
  8
0
 10
 0 
 20
 20 
 30
 138.9736 
  0
VERTEX
  8
0
 10
-5.42961478786825 
 20
 19.52 
 30
 138.9736 
  0
VERTEX
  8
0
 10
-9.48476694541437 
 20
 16.5 
 30
 138.9736 
  0
VERTEX
  8
0
 10
-11.77 
 20
 12 
 30
 138.97 
  0
VERTEX
  8
0
 10
-11.16 
 20
 8.32046332046333 
 30
 138.9736 
  0
VERTEX
  8
0
 10
-8.23673445107037 
 20
 3.75482625482626 
 30
 138.9736 
  0
VERTEX
  8
0
 10
-2.79648110563571 
 20
 .888030888030888 
 30
 138.9736 
  0
VERTEX
  8
0
 10
-3.89918476687127E-02 
 20
 .03 
 30
 138.9736 
  0
VERTEX
  8
0
 10
 3.89918476687127E-02 
 20
 .03 
 30
 138.9736 
  0
VERTEX
  8
0
 10
 2.79648110563571 
 20
 .888030888030888 
 30
 138.9736 
  0
VERTEX
  8
0
 10
 8.23673445107037 
 20
 3.75482625482626 
 30
 138.9736 
  0
VERTEX
  8
0
 10
 11.16 
 20
 8.32046332046333 
 30
 138.9736 
  0
VERTEX
  8
0
 10
 11.77 
 20
 12 
 30
 138.97 
  0
VERTEX
  8
0
 10
 9.48476694541437 
 20
 16.5 
 30
 138.9736 
  0
VERTEX
  8
0
 10
 5.42961478786825 
 20
 19.52 
 30
 138.9736 
  0
VERTEX
  8
0
 10
 0 
 20
 20 
 30
 138.9736 
  0
SEQEND
  0
POLYLINE
  8
0
 66
     1
 10
0.0
 20
0.0
 30
0.0
  0
VERTEX
  8
0
 10
 0 
 20
 18.48 
 30
 219.2358 
  0
VERTEX
  8
0
 10
-4.55 
 20
 17.57 
 30
 219.2358 
  0
VERTEX
  8
0
 10
-6.99 
 20
 15.7 
 30
 219.2358 
  0
VERTEX
  8
0
 10
-9.22157197365056 
 20
 12 
 30
 219.2358 
  0
VERTEX
  8
0
 10
-8.79 
 20
 8.87 
 30
 219.2358 
  0
VERTEX
  8
0
 10
-7.14 
 20
 4.38 
 30
 219.2358 
  0
VERTEX
  8
0
 10
-2.63 
 20
 2.39 
 30
 219.2358 
  0
VERTEX
  8
0
 10
-8.58987370331789E-02 
 20
 1.24517374517375 
 30
 219.2358 
  0
VERTEX
  8
0
 10
 8.58987370331789E-02 
 20
 1.24517374517375 
 30
 219.2358 
  0
VERTEX
  8
0
 10
 2.63 
 20
 2.39 
 30
 219.2358 
  0
VERTEX
  8
0
 10
 7.14 
 20
 4.38 
 30
 219.2358 
  0
VERTEX
  8
0
 10
 8.79 
 20
 8.87 
 30
 219.2358 
  0
VERTEX
  8
0
 10
 9.22157197365056 
 20
 12 
 30
 219.2358 
  0
VERTEX
  8
0
 10
 6.99 
 20
 15.7 
 30
 219.2358 
  0
VERTEX
  8
0
 10
 4.55 
 20
 17.57 
 30
 219.2358 
  0
VERTEX
  8
0
 10
 0 
 20
 18.48 
 30
 219.2358 
  0
SEQEND
  0
POLYLINE
  8
0
 66
     1
 10
0.0
 20
0.0
 30
0.0
  0
VERTEX
  8
0
 10
 0 
 20
 15.2027027027027 
 30
 263.435013566706 
  0
VERTEX
  8
0
 10
-.668101288035836 
 20
 14.7779922779923 
 30
 263.747773913708 
  0
VERTEX
  8
0
 10
-.96397471559456 
 20
 14.2760617760618 
 30
 264 
  0
VERTEX
  8
0
 10
-1.27 
 20
 12 
 30
 262.88 
  0
VERTEX
  8
0
 10
-1.48891144190844 
 20
 9.64285714285715 
 30
 261.58871861505 
  0
VERTEX
  8
0
 10
-1.41255700899005 
 20
 7.87644787644788 
 30
 260.539458096075 
  0
VERTEX
  8
0
 10
-.897164586790979 
 20
 5.6949806949807 
 30
 253.174456376352 
  0
VERTEX
  8
0
 10
 0 
 20
 4.28 
 30
 248.95 
  0
VERTEX
  8
0
 10
 0 
 20
 4.28 
 30
 248.95 
  0
VERTEX
  8
0
 10
 .897164586790979 
 20
 5.6949806949807 
 30
 253.174456376352 
  0
VERTEX
  8
0
 10
 1.41255700899005 
 20
 7.87644787644788 
 30
 260.539458096075 
  0
VERTEX
  8
0
 10
 1.48891144190844 
 20
 9.64285714285715 
 30
 261.58871861505 
  0
VERTEX
  8
0
 10
 1.27 
 20
 12 
 30
 262.88 
  0
VERTEX
  8
0
 10
 .96397471559456 
 20
 14.2760617760618 
 30
 264 
  0
VERTEX
  8
0
 10
 .668101288035836 
 20
 14.7779922779923 
 30
 263.747773913708 
  0
VERTEX
  8
0
 10
 0 
 20
 15.2027027027027 
 30
 263.435013566706 
  0
SEQEND
  0
POLYLINE
  8
0
 66
     1
 10
0.0
 20
0.0
 30
0.0
  0
VERTEX
  8
0
 10
-9.54430411479767E-03 
 20
 2.18146718146719 
 30
 27.0487254939428 
  0
VERTEX
  8
0
 10
-.045436315879499 
 20
 1.86567191702133 
 30
 33.4924803292952 
  0
VERTEX
  8
0
 10
-7.85499476432232E-02 
 20
 1.56416185274 
 30
 39.9362351646476 
  0
VERTEX
  8
0
 10
-.104987345262774 
 20
 1.3030888030888 
 30
 46.07999 
  0
VERTEX
  8
0
 10
-.142830869347804 
 20
 .486215321974119 
 30
 77.1445266666667 
  0
VERTEX
  8
0
 10
-8.80811080031835E-02 
 20
 .20818966476023 
 30
 108.209063333333 
  0
VERTEX
  8
0
 10
-3.89918476687127E-02 
 20
 .03 
 30
 138.9736 
  0
VERTEX
  8
0
 10
-5.49526071984444E-02 
 20
-.221143571893846 
 30
 165.827666666667 
  0
VERTEX
  8
0
 10
-8.97355748521107E-02 
 20
-3.78778533408592E-02 
 30
 192.681733333333 
  0
VERTEX
  8
0
 10
-8.58987370331789E-02 
 20
 1.24517374517375 
 30
 219.2358 
  0
VERTEX
  8
0
 10
-.064281554836346 
 20
 2.13024118992236 
 30
 229.240533333333 
  0
VERTEX
  8
0
 10
-3.37921807839995E-02 
 20
 3.18140649874254 
 30
 239.245266666667 
  0
VERTEX
  8
0
 10
 0 
 20
 4.28 
 30
 248.95 
  0
VERTEX
  8
0
 10
 0 
 20
 4.28 
 30
 248.95 
  0
VERTEX
  8
0
 10
 3.37921807839995E-02 
 20
 3.18140649874254 
 30
 239.245266666667 
  0
VERTEX
  8
0
 10
 .064281554836346 
 20
 2.13024118992236 
 30
 229.240533333333 
  0
VERTEX
  8
0
 10
 8.58987370331789E-02 
 20
 1.24517374517375 
 30
 219.2358 
  0
VERTEX
  8
0
 10
 8.97355748521107E-02 
 20
-3.78778533408592E-02 
 30
 192.681733333333 
  0
VERTEX
  8
0
 10
 5.49526071984444E-02 
 20
-.221143571893846 
 30
 165.827666666667 
  0
VERTEX
  8
0
 10
 3.89918476687127E-02 
 20
 .03 
 30
 138.9736 
  0
VERTEX
  8
0
 10
 8.80811080031835E-02 
 20
 .20818966476023 
 30
 108.209063333333 
  0
VERTEX
  8
0
 10
 .142830869347804 
 20
 .486215321974119 
 30
 77.1445266666667 
  0
VERTEX
  8
0
 10
 .104987345262774 
 20
 1.3030888030888 
 30
 46.07999 
  0
VERTEX
  8
0
 10
 7.85499476432232E-02 
 20
 1.56416185274 
 30
 39.9362351646476 
  0
VERTEX
  8
0
 10
 .045436315879499 
 20
 1.86567191702133 
 30
 33.4924803292952 
  0
VERTEX
  8
0
 10
 9.54430411479767E-03 
 20
 2.18146718146719 
 30
 27.0487254939428 
  0
VERTEX
  8
0
 10
-9.54430411479767E-03 
 20
 2.18146718146719 
 30
 27.0487254939428 
  0
SEQEND
  0
POLYLINE
  8
0
 66
     1
 10
0.0
 20
0.0
 30
0.0
  0
VERTEX
  8
0
 10
-5.3806530968161E-03 
 20
 4.28652778733817 
 30
 15.6259645436607 
  0
VERTEX
  8
0
 10
-.881422181191837 
 20
 3.493772964075 
 30
 25.8773063624405 
  0
VERTEX
  8
0
 10
-1.68568470064951 
 20
 2.75484156940691 
 30
 36.1286481812202 
  0
VERTEX
  8
0
 10
-2.32976289820559 
 20
 2.14 
 30
 46.07999 
  0
VERTEX
  8
0
 10
-3.23310207145155 
 20
 1.06325563453385 
 30
 77.1445266666667 
  0
VERTEX
  8
0
 10
-3.08594582733653 
 20
 .848062031421995 
 30
 108.209063333333 
  0
VERTEX
  8
0
 10
-2.79648110563571 
 20
 .888030888030888 
 30
 138.9736 
  0
VERTEX
  8
0
 10
-2.9272571917611 
 20
 .833841244661218 
 30
 165.827666666667 
  0
VERTEX
  8
0
 10
-3.05702941672787 
 20
 1.13661081828961 
 30
 192.681733333333 
  0
VERTEX
  8
0
 10
-2.63 
 20
 2.39 
 30
 219.2358 
  0
VERTEX
  8
0
 10
-2.15863392799209 
 20
 3.34509927750229 
 30
 230.648685458784 
  0
VERTEX
  8
0
 10
-1.55222614625698 
 20
 4.48975045179785 
 30
 242.061570917568 
  0
VERTEX
  8
0
 10
-.897164586790979 
 20
 5.6949806949807 
 30
 253.174456376352 
  0
VERTEX
  8
0
 10
 .897164586790979 
 20
 5.6949806949807 
 30
 253.174456376352 
  0
VERTEX
  8
0
 10
 1.55222614625698 
 20
 4.48975045179785 
 30
 242.061570917568 
  0
VERTEX
  8
0
 10
 2.15863392799209 
 20
 3.34509927750229 
 30
 230.648685458784 
  0
VERTEX
  8
0
 10
 2.63 
 20
 2.39 
 30
 219.2358 
  0
VERTEX
  8
0
 10
 3.05702941672787 
 20
 1.13661081828961 
 30
 192.681733333333 
  0
VERTEX
  8
0
 10
 2.9272571917611 
 20
 .833841244661218 
 30
 165.827666666667 
  0
VERTEX
  8
0
 10
 2.79648110563571 
 20
 .888030888030888 
 30
 138.9736 
  0
VERTEX
  8
0
 10
 3.08594582733653 
 20
 .848062031421995 
 30
 108.209063333333 
  0
VERTEX
  8
0
 10
 3.23310207145155 
 20
 1.06325563453385 
 30
 77.1445266666667 
  0
VERTEX
  8
0
 10
 2.32976289820559 
 20
 2.14 
 30
 46.07999 
  0
VERTEX
  8
0
 10
 1.68568470064951 
 20
 2.75484156940691 
 30
 36.1286481812202 
  0
VERTEX
  8
0
 10
 .881422181191837 
 20
 3.493772964075 
 30
 25.8773063624405 
  0
VERTEX
  8
0
 10
 5.3806530968161E-03 
 20
 4.28652778733817 
 30
 15.6259645436607 
  0
VERTEX
  8
0
 10
-5.3806530968161E-03 
 20
 4.28652778733817 
 30
 15.6259645436607 
  0
SEQEND
  0
POLYLINE
  8
0
 66
     1
 10
0.0
 20
0.0
 30
0.0
  0
VERTEX
  8
0
 10
-5.3806530968161E-03 
 20
 6.55494577698794 
 30
 10.0525011850269 
  0
VERTEX
  8
0
 10
-2.66602136645035 
 20
 5.59883473380749 
 30
 22.1616641233513 
  0
VERTEX
  8
0
 10
-5.08977105516938 
 20
 4.73253864921304 
 30
 34.2708270616756 
  0
VERTEX
  8
0
 10
-6.99903665653393 
 20
 4.06 
 30
 46.07999 
  0
VERTEX
  8
0
 10
-9.26493867264657 
 20
 3.32699321772961 
 30
 77.1445266666667 
  0
VERTEX
  8
0
 10
-8.98053495707603 
 20
 3.50710951492803 
 30
 108.209063333333 
  0
VERTEX
  8
0
 10
-8.23673445107037 
 20
 3.75482625482626 
 30
 138.9736 
  0
VERTEX
  8
0
 10
-8.36669658288096 
 20
 3.5924073200834 
 30
 165.827666666667 
  0
VERTEX
  8
0
 10
-8.41830718438978 
 20
 3.56844298306972 
 30
 192.681733333333 
  0
VERTEX
  8
0
 10
-7.14 
 20
 4.38 
 30
 219.2358 
  0
VERTEX
  8
0
 10
-5.60050965742009 
 20
 5.3259801327381 
 30
 233.103686032025 
  0
VERTEX
  8
0
 10
-3.59677336275652 
 20
 6.54790933845043 
 30
 246.97157206405 
  0
VERTEX
  8
0
 10
-1.41255700899005 
 20
 7.87644787644788 
 30
 260.539458096075 
  0
VERTEX
  8
0
 10
 1.41255700899005 
 20
 7.87644787644788 
 30
 260.539458096075 
  0
VERTEX
  8
0
 10
 3.59677336275652 
 20
 6.54790933845043 
 30
 246.97157206405 
  0
VERTEX
  8
0
 10
 5.60050965742009 
 20
 5.3259801327381 
 30
 233.103686032025 
  0
VERTEX
  8
0
 10
 7.14 
 20
 4.38 
 30
 219.2358 
  0
VERTEX
  8
0
 10
 8.41830718438978 
 20
 3.56844298306972 
 30
 192.681733333333 
  0
VERTEX
  8
0
 10
 8.36669658288096 
 20
 3.5924073200834 
 30
 165.827666666667 
  0
VERTEX
  8
0
 10
 8.23673445107037 
 20
 3.75482625482626 
 30
 138.9736 
  0
VERTEX
  8
0
 10
 8.98053495707603 
 20
 3.50710951492803 
 30
 108.209063333333 
  0
VERTEX
  8
0
 10
 9.26493867264657 
 20
 3.32699321772961 
 30
 77.1445266666667 
  0
VERTEX
  8
0
 10
 6.99903665653393 
 20
 4.06 
 30
 46.07999 
  0
VERTEX
  8
0
 10
 5.08977105516938 
 20
 4.73253864921304 
 30
 34.2708270616756 
  0
VERTEX
  8
0
 10
 2.66602136645035 
 20
 5.59883473380749 
 30
 22.1616641233513 
  0
VERTEX
  8
0
 10
 5.3806530968161E-03 
 20
 6.55494577698794 
 30
 10.0525011850269 
  0
VERTEX
  8
0
 10
-5.3806530968161E-03 
 20
 6.55494577698794 
 30
 10.0525011850269 
  0
SEQEND
  0
POLYLINE
  8
0
 66
     1
 10
0.0
 20
0.0
 30
0.0
  0
VERTEX
  8
0
 10
-5.3806530968161E-03 
 20
 9.43348998454346 
 30
 5.26945626634474 
  0
VERTEX
  8
0
 10
-3.32095519531914 
 20
 9.13379989225317 
 30
 18.9729675108965 
  0
VERTEX
  8
0
 10
-6.34478305453877 
 20
 8.85690109898327 
 30
 32.6764787554483 
  0
VERTEX
  8
0
 10
-8.74 
 20
 8.63 
 30
 46.07999 
  0
VERTEX
  8
0
 10
-11.5131966987995 
 20
 8.32695298063525 
 30
 77.1445266666667 
  0
VERTEX
  8
0
 10
-11.6945985223296 
 20
 8.2612138980859 
 30
 108.209063333333 
  0
VERTEX
  8
0
 10
-11.16 
 20
 8.32046332046333 
 30
 138.9736 
  0
VERTEX
  8
0
 10
-11.1362673672082 
 20
 8.41064961466631 
 30
 165.827666666667 
  0
VERTEX
  8
0
 10
-10.7412647860553 
 20
 8.57453966706457 
 30
 192.681733333333 
  0
VERTEX
  8
0
 10
-8.79 
 20
 8.87 
 30
 219.2358 
  0
VERTEX
  8
0
 10
-6.76966157601297 
 20
 9.09907134490684 
 30
 233.45343953835 
  0
VERTEX
  8
0
 10
-4.22820909186465 
 20
 9.36489993536418 
 30
 247.6710790767 
  0
VERTEX
  8
0
 10
-1.48891144190844 
 20
 9.64285714285715 
 30
 261.58871861505 
  0
VERTEX
  8
0
 10
 1.48891144190844 
 20
 9.64285714285715 
 30
 261.58871861505 
  0
VERTEX
  8
0
 10
 4.22820909186465 
 20
 9.36489993536418 
 30
 247.6710790767 
  0
VERTEX
  8
0
 10
 6.76966157601297 
 20
 9.09907134490684 
 30
 233.45343953835 
  0
VERTEX
  8
0
 10
 8.79 
 20
 8.87 
 30
 219.2358 
  0
VERTEX
  8
0
 10
 10.7412647860553 
 20
 8.57453966706457 
 30
 192.681733333333 
  0
VERTEX
  8
0
 10
 11.1362673672082 
 20
 8.41064961466631 
 30
 165.827666666667 
  0
VERTEX
  8
0
 10
 11.16 
 20
 8.32046332046333 
 30
 138.9736 
  0
VERTEX
  8
0
 10
 11.6945985223296 
 20
 8.2612138980859 
 30
 108.209063333333 
  0
VERTEX
  8
0
 10
 11.5131966987995 
 20
 8.32695298063525 
 30
 77.1445266666667 
  0
VERTEX
  8
0
 10
 8.74 
 20
 8.63 
 30
 46.07999 
  0
VERTEX
  8
0
 10
 6.34478305453877 
 20
 8.85690109898327 
 30
 32.6764787554483 
  0
VERTEX
  8
0
 10
 3.32095519531914 
 20
 9.13379989225317 
 30
 18.9729675108965 
  0
VERTEX
  8
0
 10
 5.3806530968161E-03 
 20
 9.43348998454346 
 30
 5.26945626634474 
  0
VERTEX
  8
0
 10
-5.3806530968161E-03 
 20
 9.43348998454346 
 30
 5.26945626634474 
  0
SEQEND
  0
POLYLINE
  8
0
 66
     1
 10
0.0
 20
0.0
 30
0.0
  0
VERTEX
  8
0
 10
-.01 
 20
 12 
 30
 2.16 
  0
VERTEX
  8
0
 10
-3.53514507186198 
 20
 12 
 30
 16.8999966666667 
  0
VERTEX
  8
0
 10
-6.73985234912549 
 20
 12 
 30
 31.6399933333333 
  0
VERTEX
  8
0
 10
-9.26 
 20
 12 
 30
 46.07999 
  0
VERTEX
  8
0
 10
-11.9783060372888 
 20
 12 
 30
 77.1433266666667 
  0
VERTEX
  8
0
 10
-12.2247335376641 
 20
 12 
 30
 108.206663333333 
  0
VERTEX
  8
0
 10
-11.77 
 20
 12 
 30
 138.97 
  0
VERTEX
  8
0
 10
-11.7591907205903 
 20
 12 
 30
 165.825266666667 
  0
VERTEX
  8
0
 10
-11.3058806673327 
 20
 12 
 30
 192.680533333333 
  0
VERTEX
  8
0
 10
-9.22157197365056 
 20
 12 
 30
 219.2358 
  0
VERTEX
  8
0
 10
-7.02342278096169 
 20
 12 
 30
 233.883866666667 
  0
VERTEX
  8
0
 10
-4.25589647795255 
 20
 12 
 30
 248.531933333333 
  0
VERTEX
  8
0
 10
-1.27 
 20
 12 
 30
 262.88 
  0
VERTEX
  8
0
 10
 1.27 
 20
 12 
 30
 262.88 
  0
VERTEX
  8
0
 10
 4.25589647795255 
 20
 12 
 30
 248.531933333333 
  0
VERTEX
  8
0
 10
 7.02342278096169 
 20
 12 
 30
 233.883866666667 
  0
VERTEX
  8
0
 10
 9.22157197365056 
 20
 12 
 30
 219.2358 
  0
VERTEX
  8
0
 10
 11.3058806673327 
 20
 12 
 30
 192.680533333333 
  0
VERTEX
  8
0
 10
 11.7591907205903 
 20
 12 
 30
 165.825266666667 
  0
VERTEX
  8
0
 10
 11.77 
 20
 12 
 30
 138.97 
  0
VERTEX
  8
0
 10
 12.2247335376641 
 20
 12 
 30
 108.206663333333 
  0
VERTEX
  8
0
 10
 11.9783060372888 
 20
 12 
 30
 77.1433266666667 
  0
VERTEX
  8
0
 10
 9.26 
 20
 12 
 30
 46.07999 
  0
VERTEX
  8
0
 10
 6.73985234912549 
 20
 12 
 30
 31.6399933333333 
  0
VERTEX
  8
0
 10
 3.53514507186198 
 20
 12 
 30
 16.8999966666667 
  0
VERTEX
  8
0
 10
 .01 
 20
 12 
 30
 2.16 
  0
VERTEX
  8
0
 10
-.01 
 20
 12 
 30
 2.16 
  0
SEQEND
  0
POLYLINE
  8
0
 66
     1
 10
0.0
 20
0.0
 30
0.0
  0
VERTEX
  8
0
 10
-5.3806530968161E-03 
 20
 14.05 
 30
 1.37 
  0
VERTEX
  8
0
 10
-2.58011617674801 
 20
 14.7648790050765 
 30
 16.37333 
  0
VERTEX
  8
0
 10
-4.94150342819501 
 20
 15.4183513624178 
 30
 31.37666 
  0
VERTEX
  8
0
 10
-6.84306926585908 
 20
 15.94 
 30
 46.07999 
  0
VERTEX
  8
0
 10
-9.09296249222779 
 20
 16.5319167176158 
 30
 77.1445266666667 
  0
VERTEX
  8
0
 10
-9.63407783219272 
 20
 16.6234391918043 
 30
 108.209063333333 
  0
VERTEX
  8
0
 10
-9.48476694541437 
 20
 16.5 
 30
 138.9736 
  0
VERTEX
  8
0
 10
-9.34606618300689 
 20
 16.3796012945362 
 30
 165.827666666667 
  0
VERTEX
  8
0
 10
-8.739325382437 
 20
 16.1598735535167 
 30
 192.681733333333 
  0
VERTEX
  8
0
 10
-6.99 
 20
 15.7 
 30
 219.2358 
  0
VERTEX
  8
0
 10
-5.28875115007645 
 20
 15.289811908686 
 30
 234.2572 
  0
VERTEX
  8
0
 10
-3.19933585069511 
 20
 14.7978034362666 
 30
 249.2786 
  0
VERTEX
  8
0
 10
-.96397471559456 
 20
 14.2760617760618 
 30
 264 
  0
VERTEX
  8
0
 10
 .96397471559456 
 20
 14.2760617760618 
 30
 264 
  0
VERTEX
  8
0
 10
 3.19933585069511 
 20
 14.7978034362666 
 30
 249.2786 
  0
VERTEX
  8
0
 10
 5.28875115007645 
 20
 15.289811908686 
 30
 234.2572 
  0
VERTEX
  8
0
 10
 6.99 
 20
 15.7 
 30
 219.2358 
  0
VERTEX
  8
0
 10
 8.739325382437 
 20
 16.1598735535167 
 30
 192.681733333333 
  0
VERTEX
  8
0
 10
 9.34606618300689 
 20
 16.3796012945362 
 30
 165.827666666667 
  0
VERTEX
  8
0
 10
 9.48476694541437 
 20
 16.5 
 30
 138.9736 
  0
VERTEX
  8
0
 10
 9.63407783219272 
 20
 16.6234391918043 
 30
 108.209063333333 
  0
VERTEX
  8
0
 10
 9.09296249222779 
 20
 16.5319167176158 
 30
 77.1445266666667 
  0
VERTEX
  8
0
 10
 6.84306926585908 
 20
 15.94 
 30
 46.07999 
  0
VERTEX
  8
0
 10
 4.94150342819501 
 20
 15.4183513624178 
 30
 31.37666 
  0
VERTEX
  8
0
 10
 2.58011617674801 
 20
 14.7648790050765 
 30
 16.37333 
  0
VERTEX
  8
0
 10
 5.3806530968161E-03 
 20
 14.05 
 30
 1.37 
  0
VERTEX
  8
0
 10
-5.3806530968161E-03 
 20
 14.05 
 30
 1.37 
  0
SEQEND
  0
POLYLINE
  8
0
 66
     1
 10
0.0
 20
0.0
 30
0.0
  0
VERTEX
  8
0
 10
-7.86316342178498E-03 
 20
 15.11 
 30
 2.42 
  0
VERTEX
  8
0
 10
-1.6721118844661 
 20
 16.0456056261482 
 30
 17.07333 
  0
VERTEX
  8
0
 10
-3.18063159453082 
 20
 16.9281266826005 
 30
 31.72666 
  0
VERTEX
  8
0
 10
-4.35733897697865 
 20
 17.69 
 30
 46.07999 
  0
VERTEX
  8
0
 10
-5.5843742485257 
 20
 18.8565046899179 
 30
 77.1445266666667 
  0
VERTEX
  8
0
 10
-5.63777704575153 
 20
 19.4276588585011 
 30
 108.209063333333 
  0
VERTEX
  8
0
 10
-5.42961478786825 
 20
 19.52 
 30
 138.9736 
  0
VERTEX
  8
0
 10
-5.52390982168381 
 20
 19.2742472938455 
 30
 165.827666666667 
  0
VERTEX
  8
0
 10
-5.44303807391681 
 20
 18.6532075227849 
 30
 192.681733333333 
  0
VERTEX
  8
0
 10
-4.55 
 20
 17.57 
 30
 219.2358 
  0
VERTEX
  8
0
 10
-3.49816226906175 
 20
 16.7313613612117 
 30
 234.173124637903 
  0
VERTEX
  8
0
 10
-2.14286726053566 
 20
 15.7738036717401 
 30
 249.110449275805 
  0
VERTEX
  8
0
 10
-.668101288035836 
 20
 14.7779922779923 
 30
 263.747773913708 
  0
VERTEX
  8
0
 10
 .668101288035836 
 20
 14.7779922779923 
 30
 263.747773913708 
  0
VERTEX
  8
0
 10
 2.14286726053566 
 20
 15.7738036717401 
 30
 249.110449275805 
  0
VERTEX
  8
0
 10
 3.49816226906175 
 20
 16.7313613612117 
 30
 234.173124637903 
  0
VERTEX
  8
0
 10
 4.55 
 20
 17.57 
 30
 219.2358 
  0
VERTEX
  8
0
 10
 5.44303807391681 
 20
 18.6532075227849 
 30
 192.681733333333 
  0
VERTEX
  8
0
 10
 5.52390982168381 
 20
 19.2742472938455 
 30
 165.827666666667 
  0
VERTEX
  8
0
 10
 5.42961478786825 
 20
 19.52 
 30
 138.9736 
  0
VERTEX
  8
0
 10
 5.63777704575153 
 20
 19.4276588585011 
 30
 108.209063333333 
  0
VERTEX
  8
0
 10
 5.5843742485257 
 20
 18.8565046899179 
 30
 77.1445266666667 
  0
VERTEX
  8
0
 10
 4.35733897697865 
 20
 17.69 
 30
 46.07999 
  0
VERTEX
  8
0
 10
 3.18063159453082 
 20
 16.9281266826005 
 30
 31.72666 
  0
VERTEX
  8
0
 10
 1.6721118844661 
 20
 16.0456056261482 
 30
 17.07333 
  0
VERTEX
  8
0
 10
 7.86316342178498E-03 
 20
 15.11 
 30
 2.42 
  0
VERTEX
  8
0
 10
-7.86316342178498E-03 
 20
 15.11 
 30
 2.42 
  0
SEQEND
  0
POLYLINE
  8
0
 66
     1
 10
0.0
 20
0.0
 30
0.0
  0
VERTEX
  8
0
 10
-7.86316342178498E-03 
 20
 16.8410480403999 
 30
 11.9069444479905 
  0
VERTEX
  8
0
 10
-8.70703128304665E-03 
 20
 17.4152336366057 
 30
 23.3979596319937 
  0
VERTEX
  8
0
 10
-9.33781897635927E-03 
 20
 17.9605292702082 
 30
 34.8889748159968 
  0
VERTEX
  8
0
 10
-9.54430411479767E-03 
 20
 18.4362934362934 
 30
 46.07999 
  0
VERTEX
  8
0
 10
-7.4952400352429E-03 
 20
 19.3692859599763 
 30
 77.1445266666667 
  0
VERTEX
  8
0
 10
-3.43358853985535E-03 
 20
 19.836649601149 
 30
 108.209063333333 
  0
VERTEX
  8
0
 10
 0 
 20
 20 
 30
 138.9736 
  0
VERTEX
  8
0
 10
 9.78735701968247E-04 
 20
 19.9596272304954 
 30
 165.827666666667 
  0
VERTEX
  8
0
 10
 6.24587160129357E-04 
 20
 19.538722450748 
 30
 192.681733333333 
  0
VERTEX
  8
0
 10
 0 
 20
 18.48 
 30
 219.2358 
  0
VERTEX
  8
0
 10
-1.29160110868247E-04 
 20
 17.535195134416 
 30
 234.068871188902 
  0
VERTEX
  8
0
 10
-1.02063970841416E-04 
 20
 16.4028219571946 
 30
 248.901942377804 
  0
VERTEX
  8
0
 10
 0 
 20
 15.2027027027027 
 30
 263.435013566706 
  0
VERTEX
  8
0
 10
 0 
 20
 15.2027027027027 
 30
 263.435013566706 
  0
VERTEX
  8
0
 10
 1.02063970841416E-04 
 20
 16.4028219571946 
 30
 248.901942377804 
  0
VERTEX
  8
0
 10
 1.29160110868247E-04 
 20
 17.535195134416 
 30
 234.068871188902 
  0
VERTEX
  8
0
 10
 0 
 20
 18.48 
 30
 219.2358 
  0
VERTEX
  8
0
 10
-6.24587160129357E-04 
 20
 19.538722450748 
 30
 192.681733333333 
  0
VERTEX
  8
0
 10
-9.78735701968247E-04 
 20
 19.9596272304954 
 30
 165.827666666667 
  0
VERTEX
  8
0
 10
 0 
 20
 20 
 30
 138.9736 
  0
VERTEX
  8
0
 10
 3.43358853985535E-03 
 20
 19.836649601149 
 30
 108.209063333333 
  0
VERTEX
  8
0
 10
 7.4952400352429E-03 
 20
 19.3692859599763 
 30
 77.1445266666667 
  0
VERTEX
  8
0
 10
 9.54430411479767E-03 
 20
 18.4362934362934 
 30
 46.07999 
  0
VERTEX
  8
0
 10
 9.33781897635927E-03 
 20
 17.9605292702082 
 30
 34.8889748159968 
  0
VERTEX
  8
0
 10
 8.70703128304665E-03 
 20
 17.4152336366057 
 30
 23.3979596319937 
  0
VERTEX
  8
0
 10
 7.86316342178498E-03 
 20
 16.8410480403999 
 30
 11.9069444479905 
  0
VERTEX
  8
0
 10
-7.86316342178498E-03 
 20
 16.8410480403999 
 30
 11.9069444479905 
  0
SEQEND
  0
POLYLINE
  8
0
 66
     1
 10
0.0
 20
0.0
 30
0.0
  0
VERTEX
  8
0
 10
 36.3564115233188 
 20
 16.8410480403999 
 30
-7.86316342178498E-03 
  0
VERTEX
  8
0
 10
 26.8694670753283 
 20
 15.11 
 30
-7.86316342178498E-03 
  0
VERTEX
  8
0
 10
 25.8194670753283 
 20
 14.05 
 30
-5.3806530968161E-03 
  0
VERTEX
  8
0
 10
 26.6094670753283 
 20
 12 
 30
-.01 
  0
VERTEX
  8
0
 10
 29.718923341673 
 20
 9.43348998454346 
 30
-5.3806530968161E-03 
  0
VERTEX
  8
0
 10
 34.5019682603552 
 20
 6.55494577698794 
 30
-5.3806530968161E-03 
  0
VERTEX
  8
0
 10
 40.075431618989 
 20
 4.28652778733817 
 30
-5.3806530968161E-03 
  0
VERTEX
  8
0
 10
 51.4981925692711 
 20
 2.18146718146719 
 30
-9.54430411479767E-03 
  0
VERTEX
  8
0
 10
 51.4981925692711 
 20
 2.18146718146719 
 30
 9.54430411479767E-03 
  0
VERTEX
  8
0
 10
 40.075431618989 
 20
 4.28652778733817 
 30
 5.3806530968161E-03 
  0
VERTEX
  8
0
 10
 34.5019682603552 
 20
 6.55494577698794 
 30
 5.3806530968161E-03 
  0
VERTEX
  8
0
 10
 29.718923341673 
 20
 9.43348998454346 
 30
 5.3806530968161E-03 
  0
VERTEX
  8
0
 10
 26.6094670753283 
 20
 12 
 30
 .01 
  0
VERTEX
  8
0
 10
 25.8194670753283 
 20
 14.05 
 30
 5.3806530968161E-03 
  0
VERTEX
  8
0
 10
 26.8694670753283 
 20
 15.11 
 30
 7.86316342178498E-03 
  0
VERTEX
  8
0
 10
 36.3564115233188 
 20
 16.8410480403999 
 30
 7.86316342178498E-03 
  0
SEQEND
  0
POLYLINE
  8
0
 66
     1
 10
0.0
 20
0.0
 30
0.0
  0
VERTEX
  8
0
 10
 70.5294570753283 
 20
 18.4362934362934 
 30
-9.54430411479767E-03 
  0
VERTEX
  8
0
 10
 70.5294570753283 
 20
 17.69 
 30
-4.35733897697865 
  0
VERTEX
  8
0
 10
 70.5294570753283 
 20
 15.94 
 30
-6.84306926585908 
  0
VERTEX
  8
0
 10
 70.5294570753283 
 20
 12 
 30
-9.26 
  0
VERTEX
  8
0
 10
 70.5294570753283 
 20
 8.63 
 30
-8.74 
  0
VERTEX
  8
0
 10
 70.5294570753283 
 20
 4.06 
 30
-6.99903665653393 
  0
VERTEX
  8
0
 10
 70.5294570753283 
 20
 2.14 
 30
-2.32976289820559 
  0
VERTEX
  8
0
 10
 70.5294570753283 
 20
 1.3030888030888 
 30
-.104987345262774 
  0
VERTEX
  8
0
 10
 70.5294570753283 
 20
 1.3030888030888 
 30
 .104987345262774 
  0
VERTEX
  8
0
 10
 70.5294570753283 
 20
 2.14 
 30
 2.32976289820559 
  0
VERTEX
  8
0
 10
 70.5294570753283 
 20
 4.06 
 30
 6.99903665653393 
  0
VERTEX
  8
0
 10
 70.5294570753283 
 20
 8.63 
 30
 8.74 
  0
VERTEX
  8
0
 10
 70.5294570753283 
 20
 12 
 30
 9.26 
  0
VERTEX
  8
0
 10
 70.5294570753283 
 20
 15.94 
 30
 6.84306926585908 
  0
VERTEX
  8
0
 10
 70.5294570753283 
 20
 17.69 
 30
 4.35733897697865 
  0
VERTEX
  8
0
 10
 70.5294570753283 
 20
 18.4362934362934 
 30
 9.54430411479767E-03 
  0
SEQEND
  0
POLYLINE
  8
0
 66
     1
 10
0.0
 20
0.0
 30
0.0
  0
VERTEX
  8
0
 10
 163.423067075328 
 20
 20 
 30
 0 
  0
VERTEX
  8
0
 10
 163.423067075328 
 20
 19.52 
 30
-5.42961478786825 
  0
VERTEX
  8
0
 10
 163.423067075328 
 20
 16.5 
 30
-9.48476694541437 
  0
VERTEX
  8
0
 10
 163.419467075328 
 20
 12 
 30
-11.77 
  0
VERTEX
  8
0
 10
 163.423067075328 
 20
 8.32046332046333 
 30
-11.16 
  0
VERTEX
  8
0
 10
 163.423067075328 
 20
 3.75482625482626 
 30
-8.23673445107037 
  0
VERTEX
  8
0
 10
 163.423067075328 
 20
 .888030888030888 
 30
-2.79648110563571 
  0
VERTEX
  8
0
 10
 163.423067075328 
 20
 .03 
 30
-3.89918476687127E-02 
  0
VERTEX
  8
0
 10
 163.423067075328 
 20
 .03 
 30
 3.89918476687127E-02 
  0
VERTEX
  8
0
 10
 163.423067075328 
 20
 .888030888030888 
 30
 2.79648110563571 
  0
VERTEX
  8
0
 10
 163.423067075328 
 20
 3.75482625482626 
 30
 8.23673445107037 
  0
VERTEX
  8
0
 10
 163.423067075328 
 20
 8.32046332046333 
 30
 11.16 
  0
VERTEX
  8
0
 10
 163.419467075328 
 20
 12 
 30
 11.77 
  0
VERTEX
  8
0
 10
 163.423067075328 
 20
 16.5 
 30
 9.48476694541437 
  0
VERTEX
  8
0
 10
 163.423067075328 
 20
 19.52 
 30
 5.42961478786825 
  0
VERTEX
  8
0
 10
 163.423067075328 
 20
 20 
 30
 0 
  0
SEQEND
  0
POLYLINE
  8
0
 66
     1
 10
0.0
 20
0.0
 30
0.0
  0
VERTEX
  8
0
 10
 243.685267075328 
 20
 18.48 
 30
 0 
  0
VERTEX
  8
0
 10
 243.685267075328 
 20
 17.57 
 30
-4.55 
  0
VERTEX
  8
0
 10
 243.685267075328 
 20
 15.7 
 30
-6.99 
  0
VERTEX
  8
0
 10
 243.685267075328 
 20
 12 
 30
-9.22157197365056 
  0
VERTEX
  8
0
 10
 243.685267075328 
 20
 8.87 
 30
-8.79 
  0
VERTEX
  8
0
 10
 243.685267075328 
 20
 4.38 
 30
-7.14 
  0
VERTEX
  8
0
 10
 243.685267075328 
 20
 2.39 
 30
-2.63 
  0
VERTEX
  8
0
 10
 243.685267075328 
 20
 1.24517374517375 
 30
-8.58987370331789E-02 
  0
VERTEX
  8
0
 10
 243.685267075328 
 20
 1.24517374517375 
 30
 8.58987370331789E-02 
  0
VERTEX
  8
0
 10
 243.685267075328 
 20
 2.39 
 30
 2.63 
  0
VERTEX
  8
0
 10
 243.685267075328 
 20
 4.38 
 30
 7.14 
  0
VERTEX
  8
0
 10
 243.685267075328 
 20
 8.87 
 30
 8.79 
  0
VERTEX
  8
0
 10
 243.685267075328 
 20
 12 
 30
 9.22157197365056 
  0
VERTEX
  8
0
 10
 243.685267075328 
 20
 15.7 
 30
 6.99 
  0
VERTEX
  8
0
 10
 243.685267075328 
 20
 17.57 
 30
 4.55 
  0
VERTEX
  8
0
 10
 243.685267075328 
 20
 18.48 
 30
 0 
  0
SEQEND
  0
POLYLINE
  8
0
 66
     1
 10
0.0
 20
0.0
 30
0.0
  0
VERTEX
  8
0
 10
 287.884480642034 
 20
 15.2027027027027 
 30
 0 
  0
VERTEX
  8
0
 10
 288.197240989036 
 20
 14.7779922779923 
 30
-.668101288035836 
  0
VERTEX
  8
0
 10
 288.449467075328 
 20
 14.2760617760618 
 30
-.96397471559456 
  0
VERTEX
  8
0
 10
 287.329467075328 
 20
 12 
 30
-1.27 
  0
VERTEX
  8
0
 10
 286.038185690378 
 20
 9.64285714285715 
 30
-1.48891144190844 
  0
VERTEX
  8
0
 10
 284.988925171403 
 20
 7.87644787644788 
 30
-1.41255700899005 
  0
VERTEX
  8
0
 10
 277.62392345168 
 20
 5.6949806949807 
 30
-.897164586790979 
  0
VERTEX
  8
0
 10
 273.399467075328 
 20
 4.28 
 30
 0 
  0
VERTEX
  8
0
 10
 273.399467075328 
 20
 4.28 
 30
 0 
  0
VERTEX
  8
0
 10
 277.62392345168 
 20
 5.6949806949807 
 30
 .897164586790979 
  0
VERTEX
  8
0
 10
 284.988925171403 
 20
 7.87644787644788 
 30
 1.41255700899005 
  0
VERTEX
  8
0
 10
 286.038185690378 
 20
 9.64285714285715 
 30
 1.48891144190844 
  0
VERTEX
  8
0
 10
 287.329467075328 
 20
 12 
 30
 1.27 
  0
VERTEX
  8
0
 10
 288.449467075328 
 20
 14.2760617760618 
 30
 .96397471559456 
  0
VERTEX
  8
0
 10
 288.197240989036 
 20
 14.7779922779923 
 30
 .668101288035836 
  0
VERTEX
  8
0
 10
 287.884480642034 
 20
 15.2027027027027 
 30
 0 
  0
SEQEND
  0
POLYLINE
  8
0
 66
     1
 10
0.0
 20
0.0
 30
0.0
  0
VERTEX
  8
0
 10
 51.4981925692711 
 20
 2.18146718146719 
 30
-9.54430411479767E-03 
  0
VERTEX
  8
0
 10
 57.9419474046235 
 20
 1.86567191702133 
 30
-.045436315879499 
  0
VERTEX
  8
0
 10
 64.3857022399759 
 20
 1.56416185274 
 30
-7.85499476432232E-02 
  0
VERTEX
  8
0
 10
 70.5294570753283 
 20
 1.3030888030888 
 30
-.104987345262774 
  0
VERTEX
  8
0
 10
 101.593993741995 
 20
 .486215321974119 
 30
-.142830869347804 
  0
VERTEX
  8
0
 10
 132.658530408662 
 20
 .20818966476023 
 30
-8.80811080031835E-02 
  0
VERTEX
  8
0
 10
 163.423067075328 
 20
 .03 
 30
-3.89918476687127E-02 
  0
VERTEX
  8
0
 10
 190.277133741995 
 20
-.221143571893846 
 30
-5.49526071984444E-02 
  0
VERTEX
  8
0
 10
 217.131200408662 
 20
-3.78778533408592E-02 
 30
-8.97355748521107E-02 
  0
VERTEX
  8
0
 10
 243.685267075328 
 20
 1.24517374517375 
 30
-8.58987370331789E-02 
  0
VERTEX
  8
0
 10
 253.690000408662 
 20
 2.13024118992236 
 30
-.064281554836346 
  0
VERTEX
  8
0
 10
 263.694733741995 
 20
 3.18140649874254 
 30
-3.37921807839995E-02 
  0
VERTEX
  8
0
 10
 273.399467075328 
 20
 4.28 
 30
 0 
  0
VERTEX
  8
0
 10
 273.399467075328 
 20
 4.28 
 30
 0 
  0
VERTEX
  8
0
 10
 263.694733741995 
 20
 3.18140649874254 
 30
 3.37921807839995E-02 
  0
VERTEX
  8
0
 10
 253.690000408662 
 20
 2.13024118992236 
 30
 .064281554836346 
  0
VERTEX
  8
0
 10
 243.685267075328 
 20
 1.24517374517375 
 30
 8.58987370331789E-02 
  0
VERTEX
  8
0
 10
 217.131200408662 
 20
-3.78778533408592E-02 
 30
 8.97355748521107E-02 
  0
VERTEX
  8
0
 10
 190.277133741995 
 20
-.221143571893846 
 30
 5.49526071984444E-02 
  0
VERTEX
  8
0
 10
 163.423067075328 
 20
 .03 
 30
 3.89918476687127E-02 
  0
VERTEX
  8
0
 10
 132.658530408662 
 20
 .20818966476023 
 30
 8.80811080031835E-02 
  0
VERTEX
  8
0
 10
 101.593993741995 
 20
 .486215321974119 
 30
 .142830869347804 
  0
VERTEX
  8
0
 10
 70.5294570753283 
 20
 1.3030888030888 
 30
 .104987345262774 
  0
VERTEX
  8
0
 10
 64.3857022399759 
 20
 1.56416185274 
 30
 7.85499476432232E-02 
  0
VERTEX
  8
0
 10
 57.9419474046235 
 20
 1.86567191702133 
 30
 .045436315879499 
  0
VERTEX
  8
0
 10
 51.4981925692711 
 20
 2.18146718146719 
 30
 9.54430411479767E-03 
  0
VERTEX
  8
0
 10
 51.4981925692711 
 20
 2.18146718146719 
 30
-9.54430411479767E-03 
  0
SEQEND
  0
POLYLINE
  8
0
 66
     1
 10
0.0
 20
0.0
 30
0.0
  0
VERTEX
  8
0
 10
 40.075431618989 
 20
 4.28652778733817 
 30
-5.3806530968161E-03 
  0
VERTEX
  8
0
 10
 50.3267734377688 
 20
 3.493772964075 
 30
-.881422181191837 
  0
VERTEX
  8
0
 10
 60.5781152565485 
 20
 2.75484156940691 
 30
-1.68568470064951 
  0
VERTEX
  8
0
 10
 70.5294570753283 
 20
 2.14 
 30
-2.32976289820559 
  0
VERTEX
  8
0
 10
 101.593993741995 
 20
 1.06325563453385 
 30
-3.23310207145155 
  0
VERTEX
  8
0
 10
 132.658530408662 
 20
 .848062031421995 
 30
-3.08594582733653 
  0
VERTEX
  8
0
 10
 163.423067075328 
 20
 .888030888030888 
 30
-2.79648110563571 
  0
VERTEX
  8
0
 10
 190.277133741995 
 20
 .833841244661218 
 30
-2.9272571917611 
  0
VERTEX
  8
0
 10
 217.131200408662 
 20
 1.13661081828961 
 30
-3.05702941672787 
  0
VERTEX
  8
0
 10
 243.685267075328 
 20
 2.39 
 30
-2.63 
  0
VERTEX
  8
0
 10
 255.098152534112 
 20
 3.34509927750229 
 30
-2.15863392799209 
  0
VERTEX
  8
0
 10
 266.511037992896 
 20
 4.48975045179785 
 30
-1.55222614625698 
  0
VERTEX
  8
0
 10
 277.62392345168 
 20
 5.6949806949807 
 30
-.897164586790979 
  0
VERTEX
  8
0
 10
 277.62392345168 
 20
 5.6949806949807 
 30
 .897164586790979 
  0
VERTEX
  8
0
 10
 266.511037992896 
 20
 4.48975045179785 
 30
 1.55222614625698 
  0
VERTEX
  8
0
 10
 255.098152534112 
 20
 3.34509927750229 
 30
 2.15863392799209 
  0
VERTEX
  8
0
 10
 243.685267075328 
 20
 2.39 
 30
 2.63 
  0
VERTEX
  8
0
 10
 217.131200408662 
 20
 1.13661081828961 
 30
 3.05702941672787 
  0
VERTEX
  8
0
 10
 190.277133741995 
 20
 .833841244661218 
 30
 2.9272571917611 
  0
VERTEX
  8
0
 10
 163.423067075328 
 20
 .888030888030888 
 30
 2.79648110563571 
  0
VERTEX
  8
0
 10
 132.658530408662 
 20
 .848062031421995 
 30
 3.08594582733653 
  0
VERTEX
  8
0
 10
 101.593993741995 
 20
 1.06325563453385 
 30
 3.23310207145155 
  0
VERTEX
  8
0
 10
 70.5294570753283 
 20
 2.14 
 30
 2.32976289820559 
  0
VERTEX
  8
0
 10
 60.5781152565485 
 20
 2.75484156940691 
 30
 1.68568470064951 
  0
VERTEX
  8
0
 10
 50.3267734377688 
 20
 3.493772964075 
 30
 .881422181191837 
  0
VERTEX
  8
0
 10
 40.075431618989 
 20
 4.28652778733817 
 30
 5.3806530968161E-03 
  0
VERTEX
  8
0
 10
 40.075431618989 
 20
 4.28652778733817 
 30
-5.3806530968161E-03 
  0
SEQEND
  0
POLYLINE
  8
0
 66
     1
 10
0.0
 20
0.0
 30
0.0
  0
VERTEX
  8
0
 10
 34.5019682603552 
 20
 6.55494577698794 
 30
-5.3806530968161E-03 
  0
VERTEX
  8
0
 10
 46.6111311986796 
 20
 5.59883473380749 
 30
-2.66602136645035 
  0
VERTEX
  8
0
 10
 58.7202941370039 
 20
 4.73253864921304 
 30
-5.08977105516938 
  0
VERTEX
  8
0
 10
 70.5294570753283 
 20
 4.06 
 30
-6.99903665653393 
  0
VERTEX
  8
0
 10
 101.593993741995 
 20
 3.32699321772961 
 30
-9.26493867264657 
  0
VERTEX
  8
0
 10
 132.658530408662 
 20
 3.50710951492803 
 30
-8.98053495707603 
  0
VERTEX
  8
0
 10
 163.423067075328 
 20
 3.75482625482626 
 30
-8.23673445107037 
  0
VERTEX
  8
0
 10
 190.277133741995 
 20
 3.5924073200834 
 30
-8.36669658288096 
  0
VERTEX
  8
0
 10
 217.131200408662 
 20
 3.56844298306972 
 30
-8.41830718438978 
  0
VERTEX
  8
0
 10
 243.685267075328 
 20
 4.38 
 30
-7.14 
  0
VERTEX
  8
0
 10
 257.553153107353 
 20
 5.3259801327381 
 30
-5.60050965742009 
  0
VERTEX
  8
0
 10
 271.421039139378 
 20
 6.54790933845043 
 30
-3.59677336275652 
  0
VERTEX
  8
0
 10
 284.988925171403 
 20
 7.87644787644788 
 30
-1.41255700899005 
  0
VERTEX
  8
0
 10
 284.988925171403 
 20
 7.87644787644788 
 30
 1.41255700899005 
  0
VERTEX
  8
0
 10
 271.421039139378 
 20
 6.54790933845043 
 30
 3.59677336275652 
  0
VERTEX
  8
0
 10
 257.553153107353 
 20
 5.3259801327381 
 30
 5.60050965742009 
  0
VERTEX
  8
0
 10
 243.685267075328 
 20
 4.38 
 30
 7.14 
  0
VERTEX
  8
0
 10
 217.131200408662 
 20
 3.56844298306972 
 30
 8.41830718438978 
  0
VERTEX
  8
0
 10
 190.277133741995 
 20
 3.5924073200834 
 30
 8.36669658288096 
  0
VERTEX
  8
0
 10
 163.423067075328 
 20
 3.75482625482626 
 30
 8.23673445107037 
  0
VERTEX
  8
0
 10
 132.658530408662 
 20
 3.50710951492803 
 30
 8.98053495707603 
  0
VERTEX
  8
0
 10
 101.593993741995 
 20
 3.32699321772961 
 30
 9.26493867264657 
  0
VERTEX
  8
0
 10
 70.5294570753283 
 20
 4.06 
 30
 6.99903665653393 
  0
VERTEX
  8
0
 10
 58.7202941370039 
 20
 4.73253864921304 
 30
 5.08977105516938 
  0
VERTEX
  8
0
 10
 46.6111311986796 
 20
 5.59883473380749 
 30
 2.66602136645035 
  0
VERTEX
  8
0
 10
 34.5019682603552 
 20
 6.55494577698794 
 30
 5.3806530968161E-03 
  0
VERTEX
  8
0
 10
 34.5019682603552 
 20
 6.55494577698794 
 30
-5.3806530968161E-03 
  0
SEQEND
  0
POLYLINE
  8
0
 66
     1
 10
0.0
 20
0.0
 30
0.0
  0
VERTEX
  8
0
 10
 29.718923341673 
 20
 9.43348998454346 
 30
-5.3806530968161E-03 
  0
VERTEX
  8
0
 10
 43.4224345862248 
 20
 9.13379989225317 
 30
-3.32095519531914 
  0
VERTEX
  8
0
 10
 57.1259458307765 
 20
 8.85690109898327 
 30
-6.34478305453877 
  0
VERTEX
  8
0
 10
 70.5294570753283 
 20
 8.63 
 30
-8.74 
  0
VERTEX
  8
0
 10
 101.593993741995 
 20
 8.32695298063525 
 30
-11.5131966987995 
  0
VERTEX
  8
0
 10
 132.658530408662 
 20
 8.2612138980859 
 30
-11.6945985223296 
  0
VERTEX
  8
0
 10
 163.423067075328 
 20
 8.32046332046333 
 30
-11.16 
  0
VERTEX
  8
0
 10
 190.277133741995 
 20
 8.41064961466631 
 30
-11.1362673672082 
  0
VERTEX
  8
0
 10
 217.131200408662 
 20
 8.57453966706457 
 30
-10.7412647860553 
  0
VERTEX
  8
0
 10
 243.685267075328 
 20
 8.87 
 30
-8.79 
  0
VERTEX
  8
0
 10
 257.902906613678 
 20
 9.09907134490684 
 30
-6.76966157601297 
  0
VERTEX
  8
0
 10
 272.120546152028 
 20
 9.36489993536418 
 30
-4.22820909186465 
  0
VERTEX
  8
0
 10
 286.038185690378 
 20
 9.64285714285715 
 30
-1.48891144190844 
  0
VERTEX
  8
0
 10
 286.038185690378 
 20
 9.64285714285715 
 30
 1.48891144190844 
  0
VERTEX
  8
0
 10
 272.120546152028 
 20
 9.36489993536418 
 30
 4.22820909186465 
  0
VERTEX
  8
0
 10
 257.902906613678 
 20
 9.09907134490684 
 30
 6.76966157601297 
  0
VERTEX
  8
0
 10
 243.685267075328 
 20
 8.87 
 30
 8.79 
  0
VERTEX
  8
0
 10
 217.131200408662 
 20
 8.57453966706457 
 30
 10.7412647860553 
  0
VERTEX
  8
0
 10
 190.277133741995 
 20
 8.41064961466631 
 30
 11.1362673672082 
  0
VERTEX
  8
0
 10
 163.423067075328 
 20
 8.32046332046333 
 30
 11.16 
  0
VERTEX
  8
0
 10
 132.658530408662 
 20
 8.2612138980859 
 30
 11.6945985223296 
  0
VERTEX
  8
0
 10
 101.593993741995 
 20
 8.32695298063525 
 30
 11.5131966987995 
  0
VERTEX
  8
0
 10
 70.5294570753283 
 20
 8.63 
 30
 8.74 
  0
VERTEX
  8
0
 10
 57.1259458307765 
 20
 8.85690109898327 
 30
 6.34478305453877 
  0
VERTEX
  8
0
 10
 43.4224345862248 
 20
 9.13379989225317 
 30
 3.32095519531914 
  0
VERTEX
  8
0
 10
 29.718923341673 
 20
 9.43348998454346 
 30
 5.3806530968161E-03 
  0
VERTEX
  8
0
 10
 29.718923341673 
 20
 9.43348998454346 
 30
-5.3806530968161E-03 
  0
SEQEND
  0
POLYLINE
  8
0
 66
     1
 10
0.0
 20
0.0
 30
0.0
  0
VERTEX
  8
0
 10
 26.6094670753283 
 20
 12 
 30
-.01 
  0
VERTEX
  8
0
 10
 41.349463741995 
 20
 12 
 30
-3.53514507186198 
  0
VERTEX
  8
0
 10
 56.0894604086616 
 20
 12 
 30
-6.73985234912549 
  0
VERTEX
  8
0
 10
 70.5294570753283 
 20
 12 
 30
-9.26 
  0
VERTEX
  8
0
 10
 101.592793741995 
 20
 12 
 30
-11.9783060372888 
  0
VERTEX
  8
0
 10
 132.656130408662 
 20
 12 
 30
-12.2247335376641 
  0
VERTEX
  8
0
 10
 163.419467075328 
 20
 12 
 30
-11.77 
  0
VERTEX
  8
0
 10
 190.274733741995 
 20
 12 
 30
-11.7591907205903 
  0
VERTEX
  8
0
 10
 217.130000408662 
 20
 12 
 30
-11.3058806673327 
  0
VERTEX
  8
0
 10
 243.685267075328 
 20
 12 
 30
-9.22157197365056 
  0
VERTEX
  8
0
 10
 258.333333741995 
 20
 12 
 30
-7.02342278096169 
  0
VERTEX
  8
0
 10
 272.981400408662 
 20
 12 
 30
-4.25589647795255 
  0
VERTEX
  8
0
 10
 287.329467075328 
 20
 12 
 30
-1.27 
  0
VERTEX
  8
0
 10
 287.329467075328 
 20
 12 
 30
 1.27 
  0
VERTEX
  8
0
 10
 272.981400408662 
 20
 12 
 30
 4.25589647795255 
  0
VERTEX
  8
0
 10
 258.333333741995 
 20
 12 
 30
 7.02342278096169 
  0
VERTEX
  8
0
 10
 243.685267075328 
 20
 12 
 30
 9.22157197365056 
  0
VERTEX
  8
0
 10
 217.130000408662 
 20
 12 
 30
 11.3058806673327 
  0
VERTEX
  8
0
 10
 190.274733741995 
 20
 12 
 30
 11.7591907205903 
  0
VERTEX
  8
0
 10
 163.419467075328 
 20
 12 
 30
 11.77 
  0
VERTEX
  8
0
 10
 132.656130408662 
 20
 12 
 30
 12.2247335376641 
  0
VERTEX
  8
0
 10
 101.592793741995 
 20
 12 
 30
 11.9783060372888 
  0
VERTEX
  8
0
 10
 70.5294570753283 
 20
 12 
 30
 9.26 
  0
VERTEX
  8
0
 10
 56.0894604086616 
 20
 12 
 30
 6.73985234912549 
  0
VERTEX
  8
0
 10
 41.349463741995 
 20
 12 
 30
 3.53514507186198 
  0
VERTEX
  8
0
 10
 26.6094670753283 
 20
 12 
 30
 .01 
  0
VERTEX
  8
0
 10
 26.6094670753283 
 20
 12 
 30
-.01 
  0
SEQEND
  0
POLYLINE
  8
0
 66
     1
 10
0.0
 20
0.0
 30
0.0
  0
VERTEX
  8
0
 10
 25.8194670753283 
 20
 14.05 
 30
-5.3806530968161E-03 
  0
VERTEX
  8
0
 10
 40.8227970753283 
 20
 14.7648790050765 
 30
-2.58011617674801 
  0
VERTEX
  8
0
 10
 55.8261270753283 
 20
 15.4183513624178 
 30
-4.94150342819501 
  0
VERTEX
  8
0
 10
 70.5294570753283 
 20
 15.94 
 30
-6.84306926585908 
  0
VERTEX
  8
0
 10
 101.593993741995 
 20
 16.5319167176158 
 30
-9.09296249222779 
  0
VERTEX
  8
0
 10
 132.658530408662 
 20
 16.6234391918043 
 30
-9.63407783219272 
  0
VERTEX
  8
0
 10
 163.423067075328 
 20
 16.5 
 30
-9.48476694541437 
  0
VERTEX
  8
0
 10
 190.277133741995 
 20
 16.3796012945362 
 30
-9.34606618300689 
  0
VERTEX
  8
0
 10
 217.131200408662 
 20
 16.1598735535167 
 30
-8.739325382437 
  0
VERTEX
  8
0
 10
 243.685267075328 
 20
 15.7 
 30
-6.99 
  0
VERTEX
  8
0
 10
 258.706667075328 
 20
 15.289811908686 
 30
-5.28875115007645 
  0
VERTEX
  8
0
 10
 273.728067075328 
 20
 14.7978034362666 
 30
-3.19933585069511 
  0
VERTEX
  8
0
 10
 288.449467075328 
 20
 14.2760617760618 
 30
-.96397471559456 
  0
VERTEX
  8
0
 10
 288.449467075328 
 20
 14.2760617760618 
 30
 .96397471559456 
  0
VERTEX
  8
0
 10
 273.728067075328 
 20
 14.7978034362666 
 30
 3.19933585069511 
  0
VERTEX
  8
0
 10
 258.706667075328 
 20
 15.289811908686 
 30
 5.28875115007645 
  0
VERTEX
  8
0
 10
 243.685267075328 
 20
 15.7 
 30
 6.99 
  0
VERTEX
  8
0
 10
 217.131200408662 
 20
 16.1598735535167 
 30
 8.739325382437 
  0
VERTEX
  8
0
 10
 190.277133741995 
 20
 16.3796012945362 
 30
 9.34606618300689 
  0
VERTEX
  8
0
 10
 163.423067075328 
 20
 16.5 
 30
 9.48476694541437 
  0
VERTEX
  8
0
 10
 132.658530408662 
 20
 16.6234391918043 
 30
 9.63407783219272 
  0
VERTEX
  8
0
 10
 101.593993741995 
 20
 16.5319167176158 
 30
 9.09296249222779 
  0
VERTEX
  8
0
 10
 70.5294570753283 
 20
 15.94 
 30
 6.84306926585908 
  0
VERTEX
  8
0
 10
 55.8261270753283 
 20
 15.4183513624178 
 30
 4.94150342819501 
  0
VERTEX
  8
0
 10
 40.8227970753283 
 20
 14.7648790050765 
 30
 2.58011617674801 
  0
VERTEX
  8
0
 10
 25.8194670753283 
 20
 14.05 
 30
 5.3806530968161E-03 
  0
VERTEX
  8
0
 10
 25.8194670753283 
 20
 14.05 
 30
-5.3806530968161E-03 
  0
SEQEND
  0
POLYLINE
  8
0
 66
     1
 10
0.0
 20
0.0
 30
0.0
  0
VERTEX
  8
0
 10
 26.8694670753283 
 20
 15.11 
 30
-7.86316342178498E-03 
  0
VERTEX
  8
0
 10
 41.5227970753283 
 20
 16.0456056261482 
 30
-1.6721118844661 
  0
VERTEX
  8
0
 10
 56.1761270753283 
 20
 16.9281266826005 
 30
-3.18063159453082 
  0
VERTEX
  8
0
 10
 70.5294570753283 
 20
 17.69 
 30
-4.35733897697865 
  0
VERTEX
  8
0
 10
 101.593993741995 
 20
 18.8565046899179 
 30
-5.5843742485257 
  0
VERTEX
  8
0
 10
 132.658530408662 
 20
 19.4276588585011 
 30
-5.63777704575153 
  0
VERTEX
  8
0
 10
 163.423067075328 
 20
 19.52 
 30
-5.42961478786825 
  0
VERTEX
  8
0
 10
 190.277133741995 
 20
 19.2742472938455 
 30
-5.52390982168381 
  0
VERTEX
  8
0
 10
 217.131200408662 
 20
 18.6532075227849 
 30
-5.44303807391681 
  0
VERTEX
  8
0
 10
 243.685267075328 
 20
 17.57 
 30
-4.55 
  0
VERTEX
  8
0
 10
 258.622591713231 
 20
 16.7313613612117 
 30
-3.49816226906175 
  0
VERTEX
  8
0
 10
 273.559916351134 
 20
 15.7738036717401 
 30
-2.14286726053566 
  0
VERTEX
  8
0
 10
 288.197240989036 
 20
 14.7779922779923 
 30
-.668101288035836 
  0
VERTEX
  8
0
 10
 288.197240989036 
 20
 14.7779922779923 
 30
 .668101288035836 
  0
VERTEX
  8
0
 10
 273.559916351134 
 20
 15.7738036717401 
 30
 2.14286726053566 
  0
VERTEX
  8
0
 10
 258.622591713231 
 20
 16.7313613612117 
 30
 3.49816226906175 
  0
VERTEX
  8
0
 10
 243.685267075328 
 20
 17.57 
 30
 4.55 
  0
VERTEX
  8
0
 10
 217.131200408662 
 20
 18.6532075227849 
 30
 5.44303807391681 
  0
VERTEX
  8
0
 10
 190.277133741995 
 20
 19.2742472938455 
 30
 5.52390982168381 
  0
VERTEX
  8
0
 10
 163.423067075328 
 20
 19.52 
 30
 5.42961478786825 
  0
VERTEX
  8
0
 10
 132.658530408662 
 20
 19.4276588585011 
 30
 5.63777704575153 
  0
VERTEX
  8
0
 10
 101.593993741995 
 20
 18.8565046899179 
 30
 5.5843742485257 
  0
VERTEX
  8
0
 10
 70.5294570753283 
 20
 17.69 
 30
 4.35733897697865 
  0
VERTEX
  8
0
 10
 56.1761270753283 
 20
 16.9281266826005 
 30
 3.18063159453082 
  0
VERTEX
  8
0
 10
 41.5227970753283 
 20
 16.0456056261482 
 30
 1.6721118844661 
  0
VERTEX
  8
0
 10
 26.8694670753283 
 20
 15.11 
 30
 7.86316342178498E-03 
  0
VERTEX
  8
0
 10
 26.8694670753283 
 20
 15.11 
 30
-7.86316342178498E-03 
  0
SEQEND
  0
POLYLINE
  8
0
 66
     1
 10
0.0
 20
0.0
 30
0.0
  0
VERTEX
  8
0
 10
 36.3564115233188 
 20
 16.8410480403999 
 30
-7.86316342178498E-03 
  0
VERTEX
  8
0
 10
 47.847426707322 
 20
 17.4152336366057 
 30
-8.70703128304665E-03 
  0
VERTEX
  8
0
 10
 59.3384418913251 
 20
 17.9605292702082 
 30
-9.33781897635927E-03 
  0
VERTEX
  8
0
 10
 70.5294570753283 
 20
 18.4362934362934 
 30
-9.54430411479767E-03 
  0
VERTEX
  8
0
 10
 101.593993741995 
 20
 19.3692859599763 
 30
-7.4952400352429E-03 
  0
VERTEX
  8
0
 10
 132.658530408662 
 20
 19.836649601149 
 30
-3.43358853985535E-03 
  0
VERTEX
  8
0
 10
 163.423067075328 
 20
 20 
 30
 0 
  0
VERTEX
  8
0
 10
 190.277133741995 
 20
 19.9596272304954 
 30
 9.78735701968247E-04 
  0
VERTEX
  8
0
 10
 217.131200408662 
 20
 19.538722450748 
 30
 6.24587160129357E-04 
  0
VERTEX
  8
0
 10
 243.685267075328 
 20
 18.48 
 30
 0 
  0
VERTEX
  8
0
 10
 258.51833826423 
 20
 17.535195134416 
 30
-1.29160110868247E-04 
  0
VERTEX
  8
0
 10
 273.351409453132 
 20
 16.4028219571946 
 30
-1.02063970841416E-04 
  0
VERTEX
  8
0
 10
 287.884480642034 
 20
 15.2027027027027 
 30
 0 
  0
VERTEX
  8
0
 10
 287.884480642034 
 20
 15.2027027027027 
 30
 0 
  0
VERTEX
  8
0
 10
 273.351409453132 
 20
 16.4028219571946 
 30
 1.02063970841416E-04 
  0
VERTEX
  8
0
 10
 258.51833826423 
 20
 17.535195134416 
 30
 1.29160110868247E-04 
  0
VERTEX
  8
0
 10
 243.685267075328 
 20
 18.48 
 30
 0 
  0
VERTEX
  8
0
 10
 217.131200408662 
 20
 19.538722450748 
 30
-6.24587160129357E-04 
  0
VERTEX
  8
0
 10
 190.277133741995 
 20
 19.9596272304954 
 30
-9.78735701968247E-04 
  0
VERTEX
  8
0
 10
 163.423067075328 
 20
 20 
 30
 0 
  0
VERTEX
  8
0
 10
 132.658530408662 
 20
 19.836649601149 
 30
 3.43358853985535E-03 
  0
VERTEX
  8
0
 10
 101.593993741995 
 20
 19.3692859599763 
 30
 7.4952400352429E-03 
  0
VERTEX
  8
0
 10
 70.5294570753283 
 20
 18.4362934362934 
 30
 9.54430411479767E-03 
  0
VERTEX
  8
0
 10
 59.3384418913251 
 20
 17.9605292702082 
 30
 9.33781897635927E-03 
  0
VERTEX
  8
0
 10
 47.847426707322 
 20
 17.4152336366057 
 30
 8.70703128304665E-03 
  0
VERTEX
  8
0
 10
 36.3564115233188 
 20
 16.8410480403999 
 30
 7.86316342178498E-03 
  0
VERTEX
  8
0
 10
 36.3564115233188 
 20
 16.8410480403999 
 30
-7.86316342178498E-03 
  0
SEQEND
  0
POLYLINE
  8
0
 66
     1
 10
0.0
 20
0.0
 30
0.0
  0
VERTEX
  8
0
 10
 36.3564115233188 
 20
 36.6663374495706 
 30
 16.8410480403999 
  0
VERTEX
  8
0
 10
 26.8694670753283 
 20
 36.6663374495706 
 30
 15.11 
  0
VERTEX
  8
0
 10
 25.8194670753283 
 20
 36.6688199598956 
 30
 14.05 
  0
VERTEX
  8
0
 10
 26.6094670753283 
 20
 36.6642006129924 
 30
 12 
  0
VERTEX
  8
0
 10
 29.718923341673 
 20
 36.6688199598956 
 30
 9.43348998454346 
  0
VERTEX
  8
0
 10
 34.5019682603552 
 20
 36.6688199598956 
 30
 6.55494577698794 
  0
VERTEX
  8
0
 10
 40.075431618989 
 20
 36.6688199598956 
 30
 4.28652778733817 
  0
VERTEX
  8
0
 10
 51.4981925692711 
 20
 36.6646563088776 
 30
 2.18146718146719 
  0
VERTEX
  8
0
 10
 51.4981925692711 
 20
 36.6837449171072 
 30
 2.18146718146719 
  0
VERTEX
  8
0
 10
 40.075431618989 
 20
 36.6795812660892 
 30
 4.28652778733817 
  0
VERTEX
  8
0
 10
 34.5019682603552 
 20
 36.6795812660892 
 30
 6.55494577698794 
  0
VERTEX
  8
0
 10
 29.718923341673 
 20
 36.6795812660892 
 30
 9.43348998454346 
  0
VERTEX
  8
0
 10
 26.6094670753283 
 20
 36.6842006129924 
 30
 12 
  0
VERTEX
  8
0
 10
 25.8194670753283 
 20
 36.6795812660892 
 30
 14.05 
  0
VERTEX
  8
0
 10
 26.8694670753283 
 20
 36.6820637764142 
 30
 15.11 
  0
VERTEX
  8
0
 10
 36.3564115233188 
 20
 36.6820637764142 
 30
 16.8410480403999 
  0
SEQEND
  0
POLYLINE
  8
0
 66
     1
 10
0.0
 20
0.0
 30
0.0
  0
VERTEX
  8
0
 10
 70.5294570753283 
 20
 36.6646563088776 
 30
 18.4362934362934 
  0
VERTEX
  8
0
 10
 70.5294570753283 
 20
 32.3168616360138 
 30
 17.69 
  0
VERTEX
  8
0
 10
 70.5294570753283 
 20
 29.8311313471334 
 30
 15.94 
  0
VERTEX
  8
0
 10
 70.5294570753283 
 20
 27.4142006129924 
 30
 12 
  0
VERTEX
  8
0
 10
 70.5294570753283 
 20
 27.9342006129924 
 30
 8.63 
  0
VERTEX
  8
0
 10
 70.5294570753283 
 20
 29.6751639564585 
 30
 4.06 
  0
VERTEX
  8
0
 10
 70.5294570753283 
 20
 34.3444377147868 
 30
 2.14 
  0
VERTEX
  8
0
 10
 70.5294570753283 
 20
 36.5692132677297 
 30
 1.3030888030888 
  0
VERTEX
  8
0
 10
 70.5294570753283 
 20
 36.7791879582552 
 30
 1.3030888030888 
  0
VERTEX
  8
0
 10
 70.5294570753283 
 20
 39.003963511198 
 30
 2.14 
  0
VERTEX
  8
0
 10
 70.5294570753283 
 20
 43.6732372695264 
 30
 4.06 
  0
VERTEX
  8
0
 10
 70.5294570753283 
 20
 45.4142006129924 
 30
 8.63 
  0
VERTEX
  8
0
 10
 70.5294570753283 
 20
 45.9342006129924 
 30
 12 
  0
VERTEX
  8
0
 10
 70.5294570753283 
 20
 43.5172698788515 
 30
 15.94 
  0
VERTEX
  8
0
 10
 70.5294570753283 
 20
 41.0315395899711 
 30
 17.69 
  0
VERTEX
  8
0
 10
 70.5294570753283 
 20
 36.6837449171072 
 30
 18.4362934362934 
  0
SEQEND
  0
POLYLINE
  8
0
 66
     1
 10
0.0
 20
0.0
 30
0.0
  0
VERTEX
  8
0
 10
 163.423067075328 
 20
 36.6742006129924 
 30
 20 
  0
VERTEX
  8
0
 10
 163.423067075328 
 20
 31.2445858251242 
 30
 19.52 
  0
VERTEX
  8
0
 10
 163.423067075328 
 20
 27.1894336675781 
 30
 16.5 
  0
VERTEX
  8
0
 10
 163.419467075328 
 20
 24.9042006129924 
 30
 12 
  0
VERTEX
  8
0
 10
 163.423067075328 
 20
 25.5142006129924 
 30
 8.32046332046333 
  0
VERTEX
  8
0
 10
 163.423067075328 
 20
 28.4374661619221 
 30
 3.75482625482626 
  0
VERTEX
  8
0
 10
 163.423067075328 
 20
 33.8777195073567 
 30
 .888030888030888 
  0
VERTEX
  8
0
 10
 163.423067075328 
 20
 36.6352087653237 
 30
 .03 
  0
VERTEX
  8
0
 10
 163.423067075328 
 20
 36.7131924606611 
 30
 .03 
  0
VERTEX
  8
0
 10
 163.423067075328 
 20
 39.4706817186281 
 30
 .888030888030888 
  0
VERTEX
  8
0
 10
 163.423067075328 
 20
 44.9109350640628 
 30
 3.75482625482626 
  0
VERTEX
  8
0
 10
 163.423067075328 
 20
 47.8342006129924 
 30
 8.32046332046333 
  0
VERTEX
  8
0
 10
 163.419467075328 
 20
 48.4442006129924 
 30
 12 
  0
VERTEX
  8
0
 10
 163.423067075328 
 20
 46.1589675584068 
 30
 16.5 
  0
VERTEX
  8
0
 10
 163.423067075328 
 20
 42.1038154008607 
 30
 19.52 
  0
VERTEX
  8
0
 10
 163.423067075328 
 20
 36.6742006129924 
 30
 20 
  0
SEQEND
  0
POLYLINE
  8
0
 66
     1
 10
0.0
 20
0.0
 30
0.0
  0
VERTEX
  8
0
 10
 243.685267075328 
 20
 36.6742006129924 
 30
 18.48 
  0
VERTEX
  8
0
 10
 243.685267075328 
 20
 32.1242006129924 
 30
 17.57 
  0
VERTEX
  8
0
 10
 243.685267075328 
 20
 29.6842006129924 
 30
 15.7 
  0
VERTEX
  8
0
 10
 243.685267075328 
 20
 27.4526286393419 
 30
 12 
  0
VERTEX
  8
0
 10
 243.685267075328 
 20
 27.8842006129924 
 30
 8.87 
  0
VERTEX
  8
0
 10
 243.685267075328 
 20
 29.5342006129924 
 30
 4.38 
  0
VERTEX
  8
0
 10
 243.685267075328 
 20
 34.0442006129924 
 30
 2.39 
  0
VERTEX
  8
0
 10
 243.685267075328 
 20
 36.5883018759593 
 30
 1.24517374517375 
  0
VERTEX
  8
0
 10
 243.685267075328 
 20
 36.7600993500256 
 30
 1.24517374517375 
  0
VERTEX
  8
0
 10
 243.685267075328 
 20
 39.3042006129924 
 30
 2.39 
  0
VERTEX
  8
0
 10
 243.685267075328 
 20
 43.8142006129924 
 30
 4.38 
  0
VERTEX
  8
0
 10
 243.685267075328 
 20
 45.4642006129924 
 30
 8.87 
  0
VERTEX
  8
0
 10
 243.685267075328 
 20
 45.895772586643 
 30
 12 
  0
VERTEX
  8
0
 10
 243.685267075328 
 20
 43.6642006129924 
 30
 15.7 
  0
VERTEX
  8
0
 10
 243.685267075328 
 20
 41.2242006129924 
 30
 17.57 
  0
VERTEX
  8
0
 10
 243.685267075328 
 20
 36.6742006129924 
 30
 18.48 
  0
SEQEND
  0
POLYLINE
  8
0
 66
     1
 10
0.0
 20
0.0
 30
0.0
  0
VERTEX
  8
0
 10
 287.884480642034 
 20
 36.6742006129924 
 30
 15.2027027027027 
  0
VERTEX
  8
0
 10
 288.197240989036 
 20
 36.0060993249566 
 30
 14.7779922779923 
  0
VERTEX
  8
0
 10
 288.449467075328 
 20
 35.7102258973979 
 30
 14.2760617760618 
  0
VERTEX
  8
0
 10
 287.329467075328 
 20
 35.4042006129924 
 30
 12 
  0
VERTEX
  8
0
 10
 286.038185690378 
 20
 35.185289171084 
 30
 9.64285714285715 
  0
VERTEX
  8
0
 10
 284.988925171403 
 20
 35.2616436040024 
 30
 7.87644787644788 
  0
VERTEX
  8
0
 10
 277.62392345168 
 20
 35.7770360262015 
 30
 5.6949806949807 
  0
VERTEX
  8
0
 10
 273.399467075328 
 20
 36.6742006129924 
 30
 4.28 
  0
VERTEX
  8
0
 10
 273.399467075328 
 20
 36.6742006129924 
 30
 4.28 
  0
VERTEX
  8
0
 10
 277.62392345168 
 20
 37.5713651997834 
 30
 5.6949806949807 
  0
VERTEX
  8
0
 10
 284.988925171403 
 20
 38.0867576219825 
 30
 7.87644787644788 
  0
VERTEX
  8
0
 10
 286.038185690378 
 20
 38.1631120549009 
 30
 9.64285714285715 
  0
VERTEX
  8
0
 10
 287.329467075328 
 20
 37.9442006129924 
 30
 12 
  0
VERTEX
  8
0
 10
 288.449467075328 
 20
 37.638175328587 
 30
 14.2760617760618 
  0
VERTEX
  8
0
 10
 288.197240989036 
 20
 37.3423019010283 
 30
 14.7779922779923 
  0
VERTEX
  8
0
 10
 287.884480642034 
 20
 36.6742006129924 
 30
 15.2027027027027 
  0
SEQEND
  0
POLYLINE
  8
0
 66
     1
 10
0.0
 20
0.0
 30
0.0
  0
VERTEX
  8
0
 10
 51.4981925692711 
 20
 36.6646563088776 
 30
 2.18146718146719 
  0
VERTEX
  8
0
 10
 57.9419474046235 
 20
 36.6287642971129 
 30
 1.86567191702133 
  0
VERTEX
  8
0
 10
 64.3857022399759 
 20
 36.5956506653492 
 30
 1.56416185274 
  0
VERTEX
  8
0
 10
 70.5294570753283 
 20
 36.5692132677297 
 30
 1.3030888030888 
  0
VERTEX
  8
0
 10
 101.593993741995 
 20
 36.5313697436446 
 30
 .486215321974119 
  0
VERTEX
  8
0
 10
 132.658530408662 
 20
 36.5861195049893 
 30
 .20818966476023 
  0
VERTEX
  8
0
 10
 163.423067075328 
 20
 36.6352087653237 
 30
 .03 
  0
VERTEX
  8
0
 10
 190.277133741995 
 20
 36.619248005794 
 30
-.221143571893846 
  0
VERTEX
  8
0
 10
 217.131200408662 
 20
 36.5844650381403 
 30
-3.78778533408592E-02 
  0
VERTEX
  8
0
 10
 243.685267075328 
 20
 36.5883018759593 
 30
 1.24517374517375 
  0
VERTEX
  8
0
 10
 253.690000408662 
 20
 36.6099190581561 
 30
 2.13024118992236 
  0
VERTEX
  8
0
 10
 263.694733741995 
 20
 36.6404084322084 
 30
 3.18140649874254 
  0
VERTEX
  8
0
 10
 273.399467075328 
 20
 36.6742006129924 
 30
 4.28 
  0
VERTEX
  8
0
 10
 273.399467075328 
 20
 36.6742006129924 
 30
 4.28 
  0
VERTEX
  8
0
 10
 263.694733741995 
 20
 36.7079927937764 
 30
 3.18140649874254 
  0
VERTEX
  8
0
 10
 253.690000408662 
 20
 36.7384821678288 
 30
 2.13024118992236 
  0
VERTEX
  8
0
 10
 243.685267075328 
 20
 36.7600993500256 
 30
 1.24517374517375 
  0
VERTEX
  8
0
 10
 217.131200408662 
 20
 36.7639361878445 
 30
-3.78778533408592E-02 
  0
VERTEX
  8
0
 10
 190.277133741995 
 20
 36.7291532201909 
 30
-.221143571893846 
  0
VERTEX
  8
0
 10
 163.423067075328 
 20
 36.7131924606611 
 30
 .03 
  0
VERTEX
  8
0
 10
 132.658530408662 
 20
 36.7622817209956 
 30
 .20818966476023 
  0
VERTEX
  8
0
 10
 101.593993741995 
 20
 36.8170314823402 
 30
 .486215321974119 
  0
VERTEX
  8
0
 10
 70.5294570753283 
 20
 36.7791879582552 
 30
 1.3030888030888 
  0
VERTEX
  8
0
 10
 64.3857022399759 
 20
 36.7527505606357 
 30
 1.56416185274 
  0
VERTEX
  8
0
 10
 57.9419474046235 
 20
 36.7196369288719 
 30
 1.86567191702133 
  0
VERTEX
  8
0
 10
 51.4981925692711 
 20
 36.6837449171072 
 30
 2.18146718146719 
  0
VERTEX
  8
0
 10
 51.4981925692711 
 20
 36.6646563088776 
 30
 2.18146718146719 
  0
SEQEND
  0
POLYLINE
  8
0
 66
     1
 10
0.0
 20
0.0
 30
0.0
  0
VERTEX
  8
0
 10
 40.075431618989 
 20
 36.6688199598956 
 30
 4.28652778733817 
  0
VERTEX
  8
0
 10
 50.3267734377688 
 20
 35.7927784318006 
 30
 3.493772964075 
  0
VERTEX
  8
0
 10
 60.5781152565485 
 20
 34.9885159123429 
 30
 2.75484156940691 
  0
VERTEX
  8
0
 10
 70.5294570753283 
 20
 34.3444377147868 
 30
 2.14 
  0
VERTEX
  8
0
 10
 101.593993741995 
 20
 33.4410985415409 
 30
 1.06325563453385 
  0
VERTEX
  8
0
 10
 132.658530408662 
 20
 33.5882547856559 
 30
 .848062031421995 
  0
VERTEX
  8
0
 10
 163.423067075328 
 20
 33.8777195073567 
 30
 .888030888030888 
  0
VERTEX
  8
0
 10
 190.277133741995 
 20
 33.7469434212313 
 30
 .833841244661218 
  0
VERTEX
  8
0
 10
 217.131200408662 
 20
 33.6171711962646 
 30
 1.13661081828961 
  0
VERTEX
  8
0
 10
 243.685267075328 
 20
 34.0442006129924 
 30
 2.39 
  0
VERTEX
  8
0
 10
 255.098152534112 
 20
 34.5155666850003 
 30
 3.34509927750229 
  0
VERTEX
  8
0
 10
 266.511037992896 
 20
 35.1219744667355 
 30
 4.48975045179785 
  0
VERTEX
  8
0
 10
 277.62392345168 
 20
 35.7770360262015 
 30
 5.6949806949807 
  0
VERTEX
  8
0
 10
 277.62392345168 
 20
 37.5713651997834 
 30
 5.6949806949807 
  0
VERTEX
  8
0
 10
 266.511037992896 
 20
 38.2264267592494 
 30
 4.48975045179785 
  0
VERTEX
  8
0
 10
 255.098152534112 
 20
 38.8328345409845 
 30
 3.34509927750229 
  0
VERTEX
  8
0
 10
 243.685267075328 
 20
 39.3042006129924 
 30
 2.39 
  0
VERTEX
  8
0
 10
 217.131200408662 
 20
 39.7312300297203 
 30
 1.13661081828961 
  0
VERTEX
  8
0
 10
 190.277133741995 
 20
 39.6014578047535 
 30
 .833841244661218 
  0
VERTEX
  8
0
 10
 163.423067075328 
 20
 39.4706817186281 
 30
 .888030888030888 
  0
VERTEX
  8
0
 10
 132.658530408662 
 20
 39.760146440329 
 30
 .848062031421995 
  0
VERTEX
  8
0
 10
 101.593993741995 
 20
 39.907302684444 
 30
 1.06325563453385 
  0
VERTEX
  8
0
 10
 70.5294570753283 
 20
 39.003963511198 
 30
 2.14 
  0
VERTEX
  8
0
 10
 60.5781152565485 
 20
 38.3598853136419 
 30
 2.75484156940691 
  0
VERTEX
  8
0
 10
 50.3267734377688 
 20
 37.5556227941843 
 30
 3.493772964075 
  0
VERTEX
  8
0
 10
 40.075431618989 
 20
 36.6795812660892 
 30
 4.28652778733817 
  0
VERTEX
  8
0
 10
 40.075431618989 
 20
 36.6688199598956 
 30
 4.28652778733817 
  0
SEQEND
  0
POLYLINE
  8
0
 66
     1
 10
0.0
 20
0.0
 30
0.0
  0
VERTEX
  8
0
 10
 34.5019682603552 
 20
 36.6688199598956 
 30
 6.55494577698794 
  0
VERTEX
  8
0
 10
 46.6111311986796 
 20
 34.0081792465421 
 30
 5.59883473380749 
  0
VERTEX
  8
0
 10
 58.7202941370039 
 20
 31.5844295578231 
 30
 4.73253864921304 
  0
VERTEX
  8
0
 10
 70.5294570753283 
 20
 29.6751639564585 
 30
 4.06 
  0
VERTEX
  8
0
 10
 101.593993741995 
 20
 27.4092619403459 
 30
 3.32699321772961 
  0
VERTEX
  8
0
 10
 132.658530408662 
 20
 27.6936656559164 
 30
 3.50710951492803 
  0
VERTEX
  8
0
 10
 163.423067075328 
 20
 28.4374661619221 
 30
 3.75482625482626 
  0
VERTEX
  8
0
 10
 190.277133741995 
 20
 28.3075040301115 
 30
 3.5924073200834 
  0
VERTEX
  8
0
 10
 217.131200408662 
 20
 28.2558934286027 
 30
 3.56844298306972 
  0
VERTEX
  8
0
 10
 243.685267075328 
 20
 29.5342006129924 
 30
 4.38 
  0
VERTEX
  8
0
 10
 257.553153107353 
 20
 31.0736909555723 
 30
 5.3259801327381 
  0
VERTEX
  8
0
 10
 271.421039139378 
 20
 33.0774272502359 
 30
 6.54790933845043 
  0
VERTEX
  8
0
 10
 284.988925171403 
 20
 35.2616436040024 
 30
 7.87644787644788 
  0
VERTEX
  8
0
 10
 284.988925171403 
 20
 38.0867576219825 
 30
 7.87644787644788 
  0
VERTEX
  8
0
 10
 271.421039139378 
 20
 40.2709739757489 
 30
 6.54790933845043 
  0
VERTEX
  8
0
 10
 257.553153107353 
 20
 42.2747102704125 
 30
 5.3259801327381 
  0
VERTEX
  8
0
 10
 243.685267075328 
 20
 43.8142006129924 
 30
 4.38 
  0
VERTEX
  8
0
 10
 217.131200408662 
 20
 45.0925077973822 
 30
 3.56844298306972 
  0
VERTEX
  8
0
 10
 190.277133741995 
 20
 45.0408971958734 
 30
 3.5924073200834 
  0
VERTEX
  8
0
 10
 163.423067075328 
 20
 44.9109350640628 
 30
 3.75482625482626 
  0
VERTEX
  8
0
 10
 132.658530408662 
 20
 45.6547355700685 
 30
 3.50710951492803 
  0
VERTEX
  8
0
 10
 101.593993741995 
 20
 45.939139285639 
 30
 3.32699321772961 
  0
VERTEX
  8
0
 10
 70.5294570753283 
 20
 43.6732372695264 
 30
 4.06 
  0
VERTEX
  8
0
 10
 58.7202941370039 
 20
 41.7639716681618 
 30
 4.73253864921304 
  0
VERTEX
  8
0
 10
 46.6111311986796 
 20
 39.3402219794428 
 30
 5.59883473380749 
  0
VERTEX
  8
0
 10
 34.5019682603552 
 20
 36.6795812660892 
 30
 6.55494577698794 
  0
VERTEX
  8
0
 10
 34.5019682603552 
 20
 36.6688199598956 
 30
 6.55494577698794 
  0
SEQEND
  0
POLYLINE
  8
0
 66
     1
 10
0.0
 20
0.0
 30
0.0
  0
VERTEX
  8
0
 10
 29.718923341673 
 20
 36.6688199598956 
 30
 9.43348998454346 
  0
VERTEX
  8
0
 10
 43.4224345862248 
 20
 33.3532454176733 
 30
 9.13379989225317 
  0
VERTEX
  8
0
 10
 57.1259458307765 
 20
 30.3294175584537 
 30
 8.85690109898327 
  0
VERTEX
  8
0
 10
 70.5294570753283 
 20
 27.9342006129924 
 30
 8.63 
  0
VERTEX
  8
0
 10
 101.593993741995 
 20
 25.161003914193 
 30
 8.32695298063525 
  0
VERTEX
  8
0
 10
 132.658530408662 
 20
 24.9796020906628 
 30
 8.2612138980859 
  0
VERTEX
  8
0
 10
 163.423067075328 
 20
 25.5142006129924 
 30
 8.32046332046333 
  0
VERTEX
  8
0
 10
 190.277133741995 
 20
 25.5379332457843 
 30
 8.41064961466631 
  0
VERTEX
  8
0
 10
 217.131200408662 
 20
 25.9329358269371 
 30
 8.57453966706457 
  0
VERTEX
  8
0
 10
 243.685267075328 
 20
 27.8842006129924 
 30
 8.87 
  0
VERTEX
  8
0
 10
 257.902906613678 
 20
 29.9045390369795 
 30
 9.09907134490684 
  0
VERTEX
  8
0
 10
 272.120546152028 
 20
 32.4459915211278 
 30
 9.36489993536418 
  0
VERTEX
  8
0
 10
 286.038185690378 
 20
 35.185289171084 
 30
 9.64285714285715 
  0
VERTEX
  8
0
 10
 286.038185690378 
 20
 38.1631120549009 
 30
 9.64285714285715 
  0
VERTEX
  8
0
 10
 272.120546152028 
 20
 40.9024097048571 
 30
 9.36489993536418 
  0
VERTEX
  8
0
 10
 257.902906613678 
 20
 43.4438621890054 
 30
 9.09907134490684 
  0
VERTEX
  8
0
 10
 243.685267075328 
 20
 45.4642006129924 
 30
 8.87 
  0
VERTEX
  8
0
 10
 217.131200408662 
 20
 47.4154653990477 
 30
 8.57453966706457 
  0
VERTEX
  8
0
 10
 190.277133741995 
 20
 47.8104679802006 
 30
 8.41064961466631 
  0
VERTEX
  8
0
 10
 163.423067075328 
 20
 47.8342006129924 
 30
 8.32046332046333 
  0
VERTEX
  8
0
 10
 132.658530408662 
 20
 48.368799135322 
 30
 8.2612138980859 
  0
VERTEX
  8
0
 10
 101.593993741995 
 20
 48.1873973117919 
 30
 8.32695298063525 
  0
VERTEX
  8
0
 10
 70.5294570753283 
 20
 45.4142006129924 
 30
 8.63 
  0
VERTEX
  8
0
 10
 57.1259458307765 
 20
 43.0189836675312 
 30
 8.85690109898327 
  0
VERTEX
  8
0
 10
 43.4224345862248 
 20
 39.9951558083116 
 30
 9.13379989225317 
  0
VERTEX
  8
0
 10
 29.718923341673 
 20
 36.6795812660892 
 30
 9.43348998454346 
  0
VERTEX
  8
0
 10
 29.718923341673 
 20
 36.6688199598956 
 30
 9.43348998454346 
  0
SEQEND
  0
POLYLINE
  8
0
 66
     1
 10
0.0
 20
0.0
 30
0.0
  0
VERTEX
  8
0
 10
 26.6094670753283 
 20
 36.6642006129924 
 30
 12 
  0
VERTEX
  8
0
 10
 41.349463741995 
 20
 33.1390555411305 
 30
 12 
  0
VERTEX
  8
0
 10
 56.0894604086616 
 20
 29.9343482638669 
 30
 12 
  0
VERTEX
  8
0
 10
 70.5294570753283 
 20
 27.4142006129924 
 30
 12 
  0
VERTEX
  8
0
 10
 101.592793741995 
 20
 24.6958945757036 
 30
 12 
  0
VERTEX
  8
0
 10
 132.656130408662 
 20
 24.4494670753283 
 30
 12 
  0
VERTEX
  8
0
 10
 163.419467075328 
 20
 24.9042006129924 
 30
 12 
  0
VERTEX
  8
0
 10
 190.274733741995 
 20
 24.9150098924021 
 30
 12 
  0
VERTEX
  8
0
 10
 217.130000408662 
 20
 25.3683199456597 
 30
 12 
  0
VERTEX
  8
0
 10
 243.685267075328 
 20
 27.4526286393419 
 30
 12 
  0
VERTEX
  8
0
 10
 258.333333741995 
 20
 29.6507778320307 
 30
 12 
  0
VERTEX
  8
0
 10
 272.981400408662 
 20
 32.4183041350399 
 30
 12 
  0
VERTEX
  8
0
 10
 287.329467075328 
 20
 35.4042006129924 
 30
 12 
  0
VERTEX
  8
0
 10
 287.329467075328 
 20
 37.9442006129924 
 30
 12 
  0
VERTEX
  8
0
 10
 272.981400408662 
 20
 40.930097090945 
 30
 12 
  0
VERTEX
  8
0
 10
 258.333333741995 
 20
 43.6976233939541 
 30
 12 
  0
VERTEX
  8
0
 10
 243.685267075328 
 20
 45.895772586643 
 30
 12 
  0
VERTEX
  8
0
 10
 217.130000408662 
 20
 47.9800812803252 
 30
 12 
  0
VERTEX
  8
0
 10
 190.274733741995 
 20
 48.4333913335828 
 30
 12 
  0
VERTEX
  8
0
 10
 163.419467075328 
 20
 48.4442006129924 
 30
 12 
  0
VERTEX
  8
0
 10
 132.656130408662 
 20
 48.8989341506566 
 30
 12 
  0
VERTEX
  8
0
 10
 101.592793741995 
 20
 48.6525066502813 
 30
 12 
  0
VERTEX
  8
0
 10
 70.5294570753283 
 20
 45.9342006129924 
 30
 12 
  0
VERTEX
  8
0
 10
 56.0894604086616 
 20
 43.4140529621179 
 30
 12 
  0
VERTEX
  8
0
 10
 41.349463741995 
 20
 40.2093456848544 
 30
 12 
  0
VERTEX
  8
0
 10
 26.6094670753283 
 20
 36.6842006129924 
 30
 12 
  0
VERTEX
  8
0
 10
 26.6094670753283 
 20
 36.6642006129924 
 30
 12 
  0
SEQEND
  0
POLYLINE
  8
0
 66
     1
 10
0.0
 20
0.0
 30
0.0
  0
VERTEX
  8
0
 10
 25.8194670753283 
 20
 36.6688199598956 
 30
 14.05 
  0
VERTEX
  8
0
 10
 40.8227970753283 
 20
 34.0940844362444 
 30
 14.7648790050765 
  0
VERTEX
  8
0
 10
 55.8261270753283 
 20
 31.7326971847974 
 30
 15.4183513624178 
  0
VERTEX
  8
0
 10
 70.5294570753283 
 20
 29.8311313471334 
 30
 15.94 
  0
VERTEX
  8
0
 10
 101.593993741995 
 20
 27.5812381207646 
 30
 16.5319167176158 
  0
VERTEX
  8
0
 10
 132.658530408662 
 20
 27.0401227807997 
 30
 16.6234391918043 
  0
VERTEX
  8
0
 10
 163.423067075328 
 20
 27.1894336675781 
 30
 16.5 
  0
VERTEX
  8
0
 10
 190.277133741995 
 20
 27.3281344299855 
 30
 16.3796012945362 
  0
VERTEX
  8
0
 10
 217.131200408662 
 20
 27.9348752305554 
 30
 16.1598735535167 
  0
VERTEX
  8
0
 10
 243.685267075328 
 20
 29.6842006129924 
 30
 15.7 
  0
VERTEX
  8
0
 10
 258.706667075328 
 20
 31.385449462916 
 30
 15.289811908686 
  0
VERTEX
  8
0
 10
 273.728067075328 
 20
 33.4748647622973 
 30
 14.7978034362666 
  0
VERTEX
  8
0
 10
 288.449467075328 
 20
 35.7102258973979 
 30
 14.2760617760618 
  0
VERTEX
  8
0
 10
 288.449467075328 
 20
 37.638175328587 
 30
 14.2760617760618 
  0
VERTEX
  8
0
 10
 273.728067075328 
 20
 39.8735364636875 
 30
 14.7978034362666 
  0
VERTEX
  8
0
 10
 258.706667075328 
 20
 41.9629517630689 
 30
 15.289811908686 
  0
VERTEX
  8
0
 10
 243.685267075328 
 20
 43.6642006129924 
 30
 15.7 
  0
VERTEX
  8
0
 10
 217.131200408662 
 20
 45.4135259954294 
 30
 16.1598735535167 
  0
VERTEX
  8
0
 10
 190.277133741995 
 20
 46.0202667959993 
 30
 16.3796012945362 
  0
VERTEX
  8
0
 10
 163.423067075328 
 20
 46.1589675584068 
 30
 16.5 
  0
VERTEX
  8
0
 10
 132.658530408662 
 20
 46.3082784451852 
 30
 16.6234391918043 
  0
VERTEX
  8
0
 10
 101.593993741995 
 20
 45.7671631052202 
 30
 16.5319167176158 
  0
VERTEX
  8
0
 10
 70.5294570753283 
 20
 43.5172698788515 
 30
 15.94 
  0
VERTEX
  8
0
 10
 55.8261270753283 
 20
 41.6157040411874 
 30
 15.4183513624178 
  0
VERTEX
  8
0
 10
 40.8227970753283 
 20
 39.2543167897404 
 30
 14.7648790050765 
  0
VERTEX
  8
0
 10
 25.8194670753283 
 20
 36.6795812660892 
 30
 14.05 
  0
VERTEX
  8
0
 10
 25.8194670753283 
 20
 36.6688199598956 
 30
 14.05 
  0
SEQEND
  0
POLYLINE
  8
0
 66
     1
 10
0.0
 20
0.0
 30
0.0
  0
VERTEX
  8
0
 10
 26.8694670753283 
 20
 36.6663374495706 
 30
 15.11 
  0
VERTEX
  8
0
 10
 41.5227970753283 
 20
 35.0020887285263 
 30
 16.0456056261482 
  0
VERTEX
  8
0
 10
 56.1761270753283 
 20
 33.4935690184616 
 30
 16.9281266826005 
  0
VERTEX
  8
0
 10
 70.5294570753283 
 20
 32.3168616360138 
 30
 17.69 
  0
VERTEX
  8
0
 10
 101.593993741995 
 20
 31.0898263644667 
 30
 18.8565046899179 
  0
VERTEX
  8
0
 10
 132.658530408662 
 20
 31.0364235672409 
 30
 19.4276588585011 
  0
VERTEX
  8
0
 10
 163.423067075328 
 20
 31.2445858251242 
 30
 19.52 
  0
VERTEX
  8
0
 10
 190.277133741995 
 20
 31.1502907913086 
 30
 19.2742472938455 
  0
VERTEX
  8
0
 10
 217.131200408662 
 20
 31.2311625390756 
 30
 18.6532075227849 
  0
VERTEX
  8
0
 10
 243.685267075328 
 20
 32.1242006129924 
 30
 17.57 
  0
VERTEX
  8
0
 10
 258.622591713231 
 20
 33.1760383439307 
 30
 16.7313613612117 
  0
VERTEX
  8
0
 10
 273.559916351134 
 20
 34.5313333524568 
 30
 15.7738036717401 
  0
VERTEX
  8
0
 10
 288.197240989036 
 20
 36.0060993249566 
 30
 14.7779922779923 
  0
VERTEX
  8
0
 10
 288.197240989036 
 20
 37.3423019010283 
 30
 14.7779922779923 
  0
VERTEX
  8
0
 10
 273.559916351134 
 20
 38.8170678735281 
 30
 15.7738036717401 
  0
VERTEX
  8
0
 10
 258.622591713231 
 20
 40.1723628820542 
 30
 16.7313613612117 
  0
VERTEX
  8
0
 10
 243.685267075328 
 20
 41.2242006129924 
 30
 17.57 
  0
VERTEX
  8
0
 10
 217.131200408662 
 20
 42.1172386869092 
 30
 18.6532075227849 
  0
VERTEX
  8
0
 10
 190.277133741995 
 20
 42.1981104346762 
 30
 19.2742472938455 
  0
VERTEX
  8
0
 10
 163.423067075328 
 20
 42.1038154008607 
 30
 19.52 
  0
VERTEX
  8
0
 10
 132.658530408662 
 20
 42.311977658744 
 30
 19.4276588585011 
  0
VERTEX
  8
0
 10
 101.593993741995 
 20
 42.2585748615181 
 30
 18.8565046899179 
  0
VERTEX
  8
0
 10
 70.5294570753283 
 20
 41.0315395899711 
 30
 17.69 
  0
VERTEX
  8
0
 10
 56.1761270753283 
 20
 39.8548322075232 
 30
 16.9281266826005 
  0
VERTEX
  8
0
 10
 41.5227970753283 
 20
 38.3463124974585 
 30
 16.0456056261482 
  0
VERTEX
  8
0
 10
 26.8694670753283 
 20
 36.6820637764142 
 30
 15.11 
  0
VERTEX
  8
0
 10
 26.8694670753283 
 20
 36.6663374495706 
 30
 15.11 
  0
SEQEND
  0
POLYLINE
  8
0
 66
     1
 10
0.0
 20
0.0
 30
0.0
  0
VERTEX
  8
0
 10
 36.3564115233188 
 20
 36.6663374495706 
 30
 16.8410480403999 
  0
VERTEX
  8
0
 10
 47.847426707322 
 20
 36.6654935817094 
 30
 17.4152336366057 
  0
VERTEX
  8
0
 10
 59.3384418913251 
 20
 36.6648627940161 
 30
 17.9605292702082 
  0
VERTEX
  8
0
 10
 70.5294570753283 
 20
 36.6646563088776 
 30
 18.4362934362934 
  0
VERTEX
  8
0
 10
 101.593993741995 
 20
 36.6667053729572 
 30
 19.3692859599763 
  0
VERTEX
  8
0
 10
 132.658530408662 
 20
 36.6707670244526 
 30
 19.836649601149 
  0
VERTEX
  8
0
 10
 163.423067075328 
 20
 36.6742006129924 
 30
 20 
  0
VERTEX
  8
0
 10
 190.277133741995 
 20
 36.6751793486944 
 30
 19.9596272304954 
  0
VERTEX
  8
0
 10
 217.131200408662 
 20
 36.6748252001526 
 30
 19.538722450748 
  0
VERTEX
  8
0
 10
 243.685267075328 
 20
 36.6742006129924 
 30
 18.48 
  0
VERTEX
  8
0
 10
 258.51833826423 
 20
 36.6740714528816 
 30
 17.535195134416 
  0
VERTEX
  8
0
 10
 273.351409453132 
 20
 36.6740985490216 
 30
 16.4028219571946 
  0
VERTEX
  8
0
 10
 287.884480642034 
 20
 36.6742006129924 
 30
 15.2027027027027 
  0
VERTEX
  8
0
 10
 287.884480642034 
 20
 36.6742006129924 
 30
 15.2027027027027 
  0
VERTEX
  8
0
 10
 273.351409453132 
 20
 36.6743026769633 
 30
 16.4028219571946 
  0
VERTEX
  8
0
 10
 258.51833826423 
 20
 36.6743297731033 
 30
 17.535195134416 
  0
VERTEX
  8
0
 10
 243.685267075328 
 20
 36.6742006129924 
 30
 18.48 
  0
VERTEX
  8
0
 10
 217.131200408662 
 20
 36.6735760258323 
 30
 19.538722450748 
  0
VERTEX
  8
0
 10
 190.277133741995 
 20
 36.6732218772905 
 30
 19.9596272304954 
  0
VERTEX
  8
0
 10
 163.423067075328 
 20
 36.6742006129924 
 30
 20 
  0
VERTEX
  8
0
 10
 132.658530408662 
 20
 36.6776342015323 
 30
 19.836649601149 
  0
VERTEX
  8
0
 10
 101.593993741995 
 20
 36.6816958530277 
 30
 19.3692859599763 
  0
VERTEX
  8
0
 10
 70.5294570753283 
 20
 36.6837449171072 
 30
 18.4362934362934 
  0
VERTEX
  8
0
 10
 59.3384418913251 
 20
 36.6835384319688 
 30
 17.9605292702082 
  0
VERTEX
  8
0
 10
 47.847426707322 
 20
 36.6829076442755 
 30
 17.4152336366057 
  0
VERTEX
  8
0
 10
 36.3564115233188 
 20
 36.6820637764142 
 30
 16.8410480403999 
  0
VERTEX
  8
0
 10
 36.3564115233188 
 20
 36.6663374495706 
 30
 16.8410480403999 
  0
SEQEND
  0
ENDSEC
  0
EOF
