  0
SECTION
  2
ENTITIES
  0
POLYLINE
  8
0
 66
     1
 10
0.0
 20
0.0
 30
0.0
  0
VERTEX
  8
0
 10
-5.48277271381882E-03 
 20
 20.2092576484799 
 30
 11.9069444479905 
  0
VERTEX
  8
0
 10
-5.48277271381882E-03 
 20
 18.132 
 30
 2.42 
  0
VERTEX
  8
0
 10
-3.75178492412043E-03 
 20
 16.86 
 30
 1.37 
  0
VERTEX
  8
0
 10
-6.97273148187247E-03 
 20
 14.4 
 30
 2.16 
  0
VERTEX
  8
0
 10
-3.75178492412043E-03 
 20
 11.3201879814522 
 30
 5.26945626634474 
  0
VERTEX
  8
0
 10
-3.75178492412043E-03 
 20
 7.86593493238553 
 30
 10.0525011850269 
  0
VERTEX
  8
0
 10
-6.97273148187247E-03 
 20
 5.4 
 30
 15.63 
  0
VERTEX
  8
0
 10
-6.65498697738147E-03 
 20
 2.61776061776063 
 30
 27.0487254939428 
  0
VERTEX
  8
0
 10
 6.65498697738147E-03 
 20
 2.61776061776063 
 30
 27.0487254939428 
  0
VERTEX
  8
0
 10
 6.97273148187247E-03 
 20
 5.4 
 30
 15.63 
  0
VERTEX
  8
0
 10
 3.75178492412043E-03 
 20
 7.86593493238553 
 30
 10.0525011850269 
  0
VERTEX
  8
0
 10
 3.75178492412043E-03 
 20
 11.3201879814522 
 30
 5.26945626634474 
  0
VERTEX
  8
0
 10
 6.97273148187247E-03 
 20
 14.4 
 30
 2.16 
  0
VERTEX
  8
0
 10
 3.75178492412043E-03 
 20
 16.86 
 30
 1.37 
  0
VERTEX
  8
0
 10
 5.48277271381882E-03 
 20
 18.132 
 30
 2.42 
  0
VERTEX
  8
0
 10
 5.48277271381882E-03 
 20
 20.2092576484799 
 30
 11.9069444479905 
  0
SEQEND
  0
POLYLINE
  8
0
 66
     1
 10
0.0
 20
0.0
 30
0.0
  0
VERTEX
  8
0
 10
 0 
 20
 21.79 
 30
 46.63259 
  0
VERTEX
  8
0
 10
-3.14510564421812 
 20
 21.03 
 30
 46.63259 
  0
VERTEX
  8
0
 10
-5.54666729102598 
 20
 18.93 
 30
 46.63259 
  0
VERTEX
  8
0
 10
-7.66619500778167 
 20
 14.38 
 30
 46.63259 
  0
VERTEX
  8
0
 10
-7.39270756045835 
 20
 10.19 
 30
 46.63259 
  0
VERTEX
  8
0
 10
-4.88024032377937 
 20
 4.872 
 30
 46.63259 
  0
VERTEX
  8
0
 10
-1.99133047582289 
 20
 2.18 
 30
 46.63259 
  0
VERTEX
  8
0
 10
 0 
 20
 .99 
 30
 46.63259 
  0
VERTEX
  8
0
 10
 0 
 20
 .99 
 30
 46.63259 
  0
VERTEX
  8
0
 10
 1.99133047582289 
 20
 2.18 
 30
 46.63259 
  0
VERTEX
  8
0
 10
 4.88024032377937 
 20
 4.872 
 30
 46.63259 
  0
VERTEX
  8
0
 10
 7.39270756045835 
 20
 10.19 
 30
 46.63259 
  0
VERTEX
  8
0
 10
 7.66619500778167 
 20
 14.38 
 30
 46.63259 
  0
VERTEX
  8
0
 10
 5.54666729102598 
 20
 18.93 
 30
 46.63259 
  0
VERTEX
  8
0
 10
 3.14510564421812 
 20
 21.03 
 30
 46.63259 
  0
VERTEX
  8
0
 10
 0 
 20
 21.79 
 30
 46.63259 
  0
SEQEND
  0
POLYLINE
  8
0
 66
     1
 10
0.0
 20
0.0
 30
0.0
  0
VERTEX
  8
0
 10
 0 
 20
 23.59 
 30
 129.5008 
  0
VERTEX
  8
0
 10
-3.78592459658093 
 20
 22.83 
 30
 129.5008 
  0
VERTEX
  8
0
 10
-7.75165983507021 
 20
 19.96 
 30
 129.5008 
  0
VERTEX
  8
0
 10
-9.77717624180851 
 20
 14.4 
 30
 129.5008 
  0
VERTEX
  8
0
 10
-9.43531693265436 
 20
 8.98 
 30
 129.5008 
  0
VERTEX
  8
0
 10
-5.7432537614802 
 20
 3.5 
 30
 129.5008 
  0
VERTEX
  8
0
 10
-3.03400136874302 
 20
 1.39 
 30
 129.5008 
  0
VERTEX
  8
0
 10
-1.70929654577072E-02 
 20
 .76 
 30
 129.5008 
  0
VERTEX
  8
0
 10
 1.70929654577072E-02 
 20
 .76 
 30
 129.5008 
  0
VERTEX
  8
0
 10
 3.03400136874302 
 20
 1.39 
 30
 129.5008 
  0
VERTEX
  8
0
 10
 5.7432537614802 
 20
 3.5 
 30
 129.5008 
  0
VERTEX
  8
0
 10
 9.43531693265436 
 20
 8.98 
 30
 129.5008 
  0
VERTEX
  8
0
 10
 9.77717624180851 
 20
 14.4 
 30
 129.5008 
  0
VERTEX
  8
0
 10
 7.75165983507021 
 20
 19.96 
 30
 129.5008 
  0
VERTEX
  8
0
 10
 3.78592459658093 
 20
 22.83 
 30
 129.5008 
  0
VERTEX
  8
0
 10
 0 
 20
 23.59 
 30
 129.5008 
  0
SEQEND
  0
POLYLINE
  8
0
 66
     1
 10
0.0
 20
0.0
 30
0.0
  0
VERTEX
  8
0
 10
 0 
 20
 21.6 
 30
 218.6828 
  0
VERTEX
  8
0
 10
-3.17259282425198 
 20
 21.084 
 30
 218.6828 
  0
VERTEX
  8
0
 10
-5.62358563558566 
 20
 18.98 
 30
 218.6828 
  0
VERTEX
  8
0
 10
-7.58927666322199 
 20
 14.33 
 30
 218.6828 
  0
VERTEX
  8
0
 10
-7.31578921589867 
 20
 10.14 
 30
 218.6828 
  0
VERTEX
  8
0
 10
-4.93986701727738 
 20
 4.9 
 30
 218.6828 
  0
VERTEX
  8
0
 10
-2.04260937219601 
 20
 3.22 
 30
 218.6828 
  0
VERTEX
  8
0
 10
 0 
 20
 2.4 
 30
 218.6828 
  0
VERTEX
  8
0
 10
 0 
 20
 2.4 
 30
 218.6828 
  0
VERTEX
  8
0
 10
 2.04260937219601 
 20
 3.22 
 30
 218.6828 
  0
VERTEX
  8
0
 10
 4.93986701727738 
 20
 4.9 
 30
 218.6828 
  0
VERTEX
  8
0
 10
 7.31578921589867 
 20
 10.14 
 30
 218.6828 
  0
VERTEX
  8
0
 10
 7.58927666322199 
 20
 14.33 
 30
 218.6828 
  0
VERTEX
  8
0
 10
 5.62358563558566 
 20
 18.98 
 30
 218.6828 
  0
VERTEX
  8
0
 10
 3.17259282425198 
 20
 21.084 
 30
 218.6828 
  0
VERTEX
  8
0
 10
 0 
 20
 21.6 
 30
 218.6828 
  0
SEQEND
  0
POLYLINE
  8
0
 66
     1
 10
0.0
 20
0.0
 30
0.0
  0
VERTEX
  8
0
 10
 0 
 20
 18.2432432432432 
 30
 263.435013566706 
  0
VERTEX
  8
0
 10
-.465849088416703 
 20
 17.7335907335908 
 30
 263.747773913708 
  0
VERTEX
  8
0
 10
-.672153684715525 
 20
 17.1312741312742 
 30
 264 
  0
VERTEX
  8
0
 10
-1.26206439821892 
 20
 14.412 
 30
 262.88 
  0
VERTEX
  8
0
 10
-1.26206439821892 
 20
 11.496 
 30
 261.58871861505 
  0
VERTEX
  8
0
 10
-.984938072652456 
 20
 9.45173745173746 
 30
 260.539458096075 
  0
VERTEX
  8
0
 10
-.599654907441033 
 20
 7.488 
 30
 253.174456376352 
  0
VERTEX
  8
0
 10
-2.78909259274899E-02 
 20
 6.108 
 30
 248.95 
  0
VERTEX
  8
0
 10
 2.78909259274899E-02 
 20
 6.108 
 30
 248.95 
  0
VERTEX
  8
0
 10
 .599654907441033 
 20
 7.488 
 30
 253.174456376352 
  0
VERTEX
  8
0
 10
 .984938072652456 
 20
 9.45173745173746 
 30
 260.539458096075 
  0
VERTEX
  8
0
 10
 1.26206439821892 
 20
 11.496 
 30
 261.58871861505 
  0
VERTEX
  8
0
 10
 1.26206439821892 
 20
 14.412 
 30
 262.88 
  0
VERTEX
  8
0
 10
 .672153684715525 
 20
 17.1312741312742 
 30
 264 
  0
VERTEX
  8
0
 10
 .465849088416703 
 20
 17.7335907335908 
 30
 263.747773913708 
  0
VERTEX
  8
0
 10
 0 
 20
 18.2432432432432 
 30
 263.435013566706 
  0
SEQEND
  0
POLYLINE
  8
0
 66
     1
 10
0.0
 20
0.0
 30
0.0
  0
VERTEX
  8
0
 10
-6.65498697738147E-03 
 20
 2.61776061776063 
 30
 27.0487254939428 
  0
VERTEX
  8
0
 10
-3.92298829073342E-03 
 20
 2.01338303746897 
 30
 33.6766803292952 
  0
VERTEX
  8
0
 10
-1.56329886538436E-03 
 20
 1.45051311610481 
 30
 40.3046351646476 
  0
VERTEX
  8
0
 10
 0 
 20
 .99 
 30
 46.63259 
  0
VERTEX
  8
0
 10
-2.70189986665259E-03 
 20
 9.76528082731518E-02 
 30
 74.3553266666667 
  0
VERTEX
  8
0
 10
-1.24568559399198E-02 
 20
 .353901525450234 
 30
 102.078063333333 
  0
VERTEX
  8
0
 10
-1.70929654577072E-02 
 20
 .76 
 30
 129.5008 
  0
VERTEX
  8
0
 10
-8.07702640041378E-03 
 20
 .652969015060638 
 30
 159.328133333333 
  0
VERTEX
  8
0
 10
 3.3859512312549E-03 
 20
 .801576449321066 
 30
 189.155466666667 
  0
VERTEX
  8
0
 10
 0 
 20
 2.4 
 30
 218.6828 
  0
VERTEX
  8
0
 10
-7.32971621432921E-03 
 20
 3.47694820244115 
 30
 228.871866666667 
  0
VERTEX
  8
0
 10
-1.71601742187003E-02 
 20
 4.7619094629072 
 30
 239.060933333333 
  0
VERTEX
  8
0
 10
-2.78909259274899E-02 
 20
 6.108 
 30
 248.95 
  0
VERTEX
  8
0
 10
 2.78909259274899E-02 
 20
 6.108 
 30
 248.95 
  0
VERTEX
  8
0
 10
 1.71601742187003E-02 
 20
 4.7619094629072 
 30
 239.060933333333 
  0
VERTEX
  8
0
 10
 7.32971621432921E-03 
 20
 3.47694820244115 
 30
 228.871866666667 
  0
VERTEX
  8
0
 10
 0 
 20
 2.4 
 30
 218.6828 
  0
VERTEX
  8
0
 10
-3.3859512312549E-03 
 20
 .801576449321066 
 30
 189.155466666667 
  0
VERTEX
  8
0
 10
 8.07702640041378E-03 
 20
 .652969015060638 
 30
 159.328133333333 
  0
VERTEX
  8
0
 10
 1.70929654577072E-02 
 20
 .76 
 30
 129.5008 
  0
VERTEX
  8
0
 10
 1.24568559399198E-02 
 20
 .353901525450234 
 30
 102.078063333333 
  0
VERTEX
  8
0
 10
 2.70189986665259E-03 
 20
 9.76528082731518E-02 
 30
 74.3553266666667 
  0
VERTEX
  8
0
 10
 0 
 20
 .99 
 30
 46.63259 
  0
VERTEX
  8
0
 10
 1.56329886538436E-03 
 20
 1.45051311610481 
 30
 40.3046351646476 
  0
VERTEX
  8
0
 10
 3.92298829073342E-03 
 20
 2.01338303746897 
 30
 33.6766803292952 
  0
VERTEX
  8
0
 10
 6.65498697738147E-03 
 20
 2.61776061776063 
 30
 27.0487254939428 
  0
VERTEX
  8
0
 10
-6.65498697738147E-03 
 20
 2.61776061776063 
 30
 27.0487254939428 
  0
SEQEND
  0
POLYLINE
  8
0
 66
     1
 10
0.0
 20
0.0
 30
0.0
  0
VERTEX
  8
0
 10
-6.97273148187247E-03 
 20
 5.4 
 30
 15.63 
  0
VERTEX
  8
0
 10
-.741850507453432 
 20
 4.18210457513535 
 30
 26.0641966666667 
  0
VERTEX
  8
0
 10
-1.42535741363865 
 20
 3.06704800801046 
 30
 36.4983933333333 
  0
VERTEX
  8
0
 10
-1.99133047582289 
 20
 2.18 
 30
 46.63259 
  0
VERTEX
  8
0
 10
-2.8909955854258 
 20
 1.02509796218265 
 30
 74.3553266666667 
  0
VERTEX
  8
0
 10
-3.10697056316515 
 20
 1.07847491609572 
 30
 102.078063333333 
  0
VERTEX
  8
0
 10
-3.03400136874302 
 20
 1.39 
 30
 129.5008 
  0
VERTEX
  8
0
 10
-2.95052359126229 
 20
 1.32486642534563 
 30
 159.328133333333 
  0
VERTEX
  8
0
 10
-2.70817591180314 
 20
 1.57648921353809 
 30
 189.155466666667 
  0
VERTEX
  8
0
 10
-2.04260937219601 
 20
 3.22 
 30
 218.6828 
  0
VERTEX
  8
0
 10
-1.61574385389611 
 20
 4.44724531912181 
 30
 230.280018792117 
  0
VERTEX
  8
0
 10
-1.11818348406547 
 20
 5.92645218765564 
 30
 241.877237584235 
  0
VERTEX
  8
0
 10
-.599654907441033 
 20
 7.488 
 30
 253.174456376352 
  0
VERTEX
  8
0
 10
 .599654907441033 
 20
 7.488 
 30
 253.174456376352 
  0
VERTEX
  8
0
 10
 1.11818348406547 
 20
 5.92645218765564 
 30
 241.877237584235 
  0
VERTEX
  8
0
 10
 1.61574385389611 
 20
 4.44724531912181 
 30
 230.280018792117 
  0
VERTEX
  8
0
 10
 2.04260937219601 
 20
 3.22 
 30
 218.6828 
  0
VERTEX
  8
0
 10
 2.70817591180314 
 20
 1.57648921353809 
 30
 189.155466666667 
  0
VERTEX
  8
0
 10
 2.95052359126229 
 20
 1.32486642534563 
 30
 159.328133333333 
  0
VERTEX
  8
0
 10
 3.03400136874302 
 20
 1.39 
 30
 129.5008 
  0
VERTEX
  8
0
 10
 3.10697056316515 
 20
 1.07847491609572 
 30
 102.078063333333 
  0
VERTEX
  8
0
 10
 2.8909955854258 
 20
 1.02509796218265 
 30
 74.3553266666667 
  0
VERTEX
  8
0
 10
 1.99133047582289 
 20
 2.18 
 30
 46.63259 
  0
VERTEX
  8
0
 10
 1.42535741363865 
 20
 3.06704800801046 
 30
 36.4983933333333 
  0
VERTEX
  8
0
 10
 .741850507453432 
 20
 4.18210457513535 
 30
 26.0641966666667 
  0
VERTEX
  8
0
 10
 6.97273148187247E-03 
 20
 5.4 
 30
 15.63 
  0
VERTEX
  8
0
 10
-6.97273148187247E-03 
 20
 5.4 
 30
 15.63 
  0
SEQEND
  0
POLYLINE
  8
0
 66
     1
 10
0.0
 20
0.0
 30
0.0
  0
VERTEX
  8
0
 10
-3.75178492412043E-03 
 20
 7.86593493238553 
 30
 10.0525011850269 
  0
VERTEX
  8
0
 10
-1.87317615303611 
 20
 6.74004483878494 
 30
 22.3458641233513 
  0
VERTEX
  8
0
 10
-3.56644157738033 
 20
 5.70561732090873 
 30
 34.6392270616756 
  0
VERTEX
  8
0
 10
-4.88024032377937 
 20
 4.872 
 30
 46.63259 
  0
VERTEX
  8
0
 10
-6.26646039141187 
 20
 3.80670236486664 
 30
 74.3553266666667 
  0
VERTEX
  8
0
 10
-6.16182789192034 
 20
 3.54304414077939 
 30
 102.078063333333 
  0
VERTEX
  8
0
 10
-5.7432537614802 
 20
 3.5 
 30
 129.5008 
  0
VERTEX
  8
0
 10
-5.8515842441037 
 20
 3.2954303784879 
 30
 159.328133333333 
  0
VERTEX
  8
0
 10
-5.91800965614929 
 20
 3.49680126417414 
 30
 189.155466666667 
  0
VERTEX
  8
0
 10
-4.93986701727738 
 20
 4.9 
 30
 218.6828 
  0
VERTEX
  8
0
 10
-3.86479694901576 
 20
 6.18013015556573 
 30
 232.735019365358 
  0
VERTEX
  8
0
 10
-2.48388916614753 
 20
 7.76041177228476 
 30
 246.787238730717 
  0
VERTEX
  8
0
 10
-.984938072652456 
 20
 9.45173745173746 
 30
 260.539458096075 
  0
VERTEX
  8
0
 10
 .984938072652456 
 20
 9.45173745173746 
 30
 260.539458096075 
  0
VERTEX
  8
0
 10
 2.48388916614753 
 20
 7.76041177228476 
 30
 246.787238730717 
  0
VERTEX
  8
0
 10
 3.86479694901576 
 20
 6.18013015556573 
 30
 232.735019365358 
  0
VERTEX
  8
0
 10
 4.93986701727738 
 20
 4.9 
 30
 218.6828 
  0
VERTEX
  8
0
 10
 5.91800965614929 
 20
 3.49680126417414 
 30
 189.155466666667 
  0
VERTEX
  8
0
 10
 5.8515842441037 
 20
 3.2954303784879 
 30
 159.328133333333 
  0
VERTEX
  8
0
 10
 5.7432537614802 
 20
 3.5 
 30
 129.5008 
  0
VERTEX
  8
0
 10
 6.16182789192034 
 20
 3.54304414077939 
 30
 102.078063333333 
  0
VERTEX
  8
0
 10
 6.26646039141187 
 20
 3.80670236486664 
 30
 74.3553266666667 
  0
VERTEX
  8
0
 10
 4.88024032377937 
 20
 4.872 
 30
 46.63259 
  0
VERTEX
  8
0
 10
 3.56644157738033 
 20
 5.70561732090873 
 30
 34.6392270616756 
  0
VERTEX
  8
0
 10
 1.87317615303611 
 20
 6.74004483878494 
 30
 22.3458641233513 
  0
VERTEX
  8
0
 10
 3.75178492412043E-03 
 20
 7.86593493238553 
 30
 10.0525011850269 
  0
VERTEX
  8
0
 10
-3.75178492412043E-03 
 20
 7.86593493238553 
 30
 10.0525011850269 
  0
SEQEND
  0
POLYLINE
  8
0
 66
     1
 10
0.0
 20
0.0
 30
0.0
  0
VERTEX
  8
0
 10
-3.75178492412043E-03 
 20
 11.3201879814522 
 30
 5.26945626634474 
  0
VERTEX
  8
0
 10
-2.82574233332013 
 20
 10.9247726877475 
 30
 19.1571675108965 
  0
VERTEX
  8
0
 10
-5.38767856606479 
 20
 10.5415189262599 
 30
 33.0448787554483 
  0
VERTEX
  8
0
 10
-7.39270756045835 
 20
 10.19 
 30
 46.63259 
  0
VERTEX
  8
0
 10
-9.47705042194788 
 20
 9.58376563331374 
 30
 74.3553266666667 
  0
VERTEX
  8
0
 10
-9.73672472171033 
 20
 9.16563683831475 
 30
 102.078063333333 
  0
VERTEX
  8
0
 10
-9.43531693265436 
 20
 8.98 
 30
 129.5008 
  0
VERTEX
  8
0
 10
-9.45602971489698 
 20
 9.07329443856487 
 30
 159.328133333333 
  0
VERTEX
  8
0
 10
-9.12219291288232 
 20
 9.46830111042917 
 30
 189.155466666667 
  0
VERTEX
  8
0
 10
-7.31578921589867 
 20
 10.14 
 30
 218.6828 
  0
VERTEX
  8
0
 10
-5.62148423830625 
 20
 10.5608269685383 
 30
 233.084772871683 
  0
VERTEX
  8
0
 10
-3.51851911190049 
 20
 11.0232002302838 
 30
 247.486745743367 
  0
VERTEX
  8
0
 10
-1.26206439821892 
 20
 11.496 
 30
 261.58871861505 
  0
VERTEX
  8
0
 10
 1.26206439821892 
 20
 11.496 
 30
 261.58871861505 
  0
VERTEX
  8
0
 10
 3.51851911190049 
 20
 11.0232002302838 
 30
 247.486745743367 
  0
VERTEX
  8
0
 10
 5.62148423830625 
 20
 10.5608269685383 
 30
 233.084772871683 
  0
VERTEX
  8
0
 10
 7.31578921589867 
 20
 10.14 
 30
 218.6828 
  0
VERTEX
  8
0
 10
 9.12219291288232 
 20
 9.46830111042917 
 30
 189.155466666667 
  0
VERTEX
  8
0
 10
 9.45602971489698 
 20
 9.07329443856487 
 30
 159.328133333333 
  0
VERTEX
  8
0
 10
 9.43531693265436 
 20
 8.98 
 30
 129.5008 
  0
VERTEX
  8
0
 10
 9.73672472171033 
 20
 9.16563683831475 
 30
 102.078063333333 
  0
VERTEX
  8
0
 10
 9.47705042194788 
 20
 9.58376563331374 
 30
 74.3553266666667 
  0
VERTEX
  8
0
 10
 7.39270756045835 
 20
 10.19 
 30
 46.63259 
  0
VERTEX
  8
0
 10
 5.38767856606479 
 20
 10.5415189262599 
 30
 33.0448787554483 
  0
VERTEX
  8
0
 10
 2.82574233332013 
 20
 10.9247726877475 
 30
 19.1571675108965 
  0
VERTEX
  8
0
 10
 3.75178492412043E-03 
 20
 11.3201879814522 
 30
 5.26945626634474 
  0
VERTEX
  8
0
 10
-3.75178492412043E-03 
 20
 11.3201879814522 
 30
 5.26945626634474 
  0
SEQEND
  0
POLYLINE
  8
0
 66
     1
 10
0.0
 20
0.0
 30
0.0
  0
VERTEX
  8
0
 10
-6.97273148187247E-03 
 20
 14.4 
 30
 2.16 
  0
VERTEX
  8
0
 10
-2.94158586651804 
 20
 14.3902670094663 
 30
 17.0841966666667 
  0
VERTEX
  8
0
 10
-5.59879326753164 
 20
 14.3828346010004 
 30
 32.0083933333333 
  0
VERTEX
  8
0
 10
-7.66619500778167 
 20
 14.38 
 30
 46.63259 
  0
VERTEX
  8
0
 10
-9.68176405858768 
 20
 14.3887812082634 
 30
 74.3553266666667 
  0
VERTEX
  8
0
 10
-10 
 20
 14.4018475173763 
 30
 102.078063333333 
  0
VERTEX
  8
0
 10
-9.77717624180851 
 20
 14.4 
 30
 129.5008 
  0
VERTEX
  8
0
 10
-9.81499556129081 
 20
 14.3692379444833 
 30
 159.328133333333 
  0
VERTEX
  8
0
 10
-9.44365631835031 
 20
 14.3341946509755 
 30
 189.155466666667 
  0
VERTEX
  8
0
 10
-7.58927666322199 
 20
 14.33 
 30
 218.6828 
  0
VERTEX
  8
0
 10
-5.81981044554818 
 20
 14.3485440082799 
 30
 233.5152 
  0
VERTEX
  8
0
 10
-3.62217568963763 
 20
 14.3779456880315 
 30
 248.3476 
  0
VERTEX
  8
0
 10
-1.26206439821892 
 20
 14.412 
 30
 262.88 
  0
VERTEX
  8
0
 10
 1.26206439821892 
 20
 14.412 
 30
 262.88 
  0
VERTEX
  8
0
 10
 3.62217568963763 
 20
 14.3779456880315 
 30
 248.3476 
  0
VERTEX
  8
0
 10
 5.81981044554818 
 20
 14.3485440082799 
 30
 233.5152 
  0
VERTEX
  8
0
 10
 7.58927666322199 
 20
 14.33 
 30
 218.6828 
  0
VERTEX
  8
0
 10
 9.44365631835031 
 20
 14.3341946509755 
 30
 189.155466666667 
  0
VERTEX
  8
0
 10
 9.81499556129081 
 20
 14.3692379444833 
 30
 159.328133333333 
  0
VERTEX
  8
0
 10
 9.77717624180851 
 20
 14.4 
 30
 129.5008 
  0
VERTEX
  8
0
 10
 10 
 20
 14.4018475173763 
 30
 102.078063333333 
  0
VERTEX
  8
0
 10
 9.68176405858768 
 20
 14.3887812082634 
 30
 74.3553266666667 
  0
VERTEX
  8
0
 10
 7.66619500778167 
 20
 14.38 
 30
 46.63259 
  0
VERTEX
  8
0
 10
 5.59879326753164 
 20
 14.3828346010004 
 30
 32.0083933333333 
  0
VERTEX
  8
0
 10
 2.94158586651804 
 20
 14.3902670094663 
 30
 17.0841966666667 
  0
VERTEX
  8
0
 10
 6.97273148187247E-03 
 20
 14.4 
 30
 2.16 
  0
VERTEX
  8
0
 10
-6.97273148187247E-03 
 20
 14.4 
 30
 2.16 
  0
SEQEND
  0
POLYLINE
  8
0
 66
     1
 10
0.0
 20
0.0
 30
0.0
  0
VERTEX
  8
0
 10
-3.75178492412043E-03 
 20
 16.86 
 30
 1.37 
  0
VERTEX
  8
0
 10
-2.09787356837355 
 20
 17.6319560173405 
 30
 16.55753 
  0
VERTEX
  8
0
 10
-4.01368454849984 
 20
 18.3450051873146 
 30
 31.74506 
  0
VERTEX
  8
0
 10
-5.54666729102598 
 20
 18.93 
 30
 46.63259 
  0
VERTEX
  8
0
 10
-7.19930783846063 
 20
 19.6171719012762 
 30
 74.3553266666667 
  0
VERTEX
  8
0
 10
-7.72105172528707 
 20
 19.9002519720278 
 30
 102.078063333333 
  0
VERTEX
  8
0
 10
-7.75165983507021 
 20
 19.96 
 30
 129.5008 
  0
VERTEX
  8
0
 10
-7.72342977758054 
 20
 19.914834623473 
 30
 159.328133333333 
  0
VERTEX
  8
0
 10
-7.21935671478616 
 20
 19.6433759140693 
 30
 189.155466666667 
  0
VERTEX
  8
0
 10
-5.62358563558566 
 20
 18.98 
 30
 218.6828 
  0
VERTEX
  8
0
 10
-4.21188917433382 
 20
 18.4416939528717 
 30
 233.888533333333 
  0
VERTEX
  8
0
 10
-2.49816072448212 
 20
 17.8041865128909 
 30
 249.094266666667 
  0
VERTEX
  8
0
 10
-.672153684715525 
 20
 17.1312741312742 
 30
 264 
  0
VERTEX
  8
0
 10
 .672153684715525 
 20
 17.1312741312742 
 30
 264 
  0
VERTEX
  8
0
 10
 2.49816072448212 
 20
 17.8041865128909 
 30
 249.094266666667 
  0
VERTEX
  8
0
 10
 4.21188917433382 
 20
 18.4416939528717 
 30
 233.888533333333 
  0
VERTEX
  8
0
 10
 5.62358563558566 
 20
 18.98 
 30
 218.6828 
  0
VERTEX
  8
0
 10
 7.21935671478616 
 20
 19.6433759140693 
 30
 189.155466666667 
  0
VERTEX
  8
0
 10
 7.72342977758054 
 20
 19.914834623473 
 30
 159.328133333333 
  0
VERTEX
  8
0
 10
 7.75165983507021 
 20
 19.96 
 30
 129.5008 
  0
VERTEX
  8
0
 10
 7.72105172528707 
 20
 19.9002519720278 
 30
 102.078063333333 
  0
VERTEX
  8
0
 10
 7.19930783846063 
 20
 19.6171719012762 
 30
 74.3553266666667 
  0
VERTEX
  8
0
 10
 5.54666729102598 
 20
 18.93 
 30
 46.63259 
  0
VERTEX
  8
0
 10
 4.01368454849984 
 20
 18.3450051873146 
 30
 31.74506 
  0
VERTEX
  8
0
 10
 2.09787356837355 
 20
 17.6319560173405 
 30
 16.55753 
  0
VERTEX
  8
0
 10
 3.75178492412043E-03 
 20
 16.86 
 30
 1.37 
  0
VERTEX
  8
0
 10
-3.75178492412043E-03 
 20
 16.86 
 30
 1.37 
  0
SEQEND
  0
POLYLINE
  8
0
 66
     1
 10
0.0
 20
0.0
 30
0.0
  0
VERTEX
  8
0
 10
-5.48277271381882E-03 
 20
 18.132 
 30
 2.42 
  0
VERTEX
  8
0
 10
-1.21969707207703 
 20
 19.1991092314089 
 30
 17.25753 
  0
VERTEX
  8
0
 10
-2.31163427019746 
 20
 20.1942143509862 
 30
 32.09506 
  0
VERTEX
  8
0
 10
-3.14510564421812 
 20
 21.03 
 30
 46.63259 
  0
VERTEX
  8
0
 10
-3.89368473822949 
 20
 22.1083283859688 
 30
 74.3553266666667 
  0
VERTEX
  8
0
 10
-3.9229360707483 
 20
 22.6408928729523 
 30
 102.078063333333 
  0
VERTEX
  8
0
 10
-3.78592459658093 
 20
 22.83 
 30
 129.5008 
  0
VERTEX
  8
0
 10
-3.87046493700564 
 20
 22.7943372381906 
 30
 159.328133333333 
  0
VERTEX
  8
0
 10
-3.84523851860679 
 20
 22.3037039073031 
 30
 189.155466666667 
  0
VERTEX
  8
0
 10
-3.17259282425198 
 20
 21.084 
 30
 218.6828 
  0
VERTEX
  8
0
 10
-2.43425660394209 
 20
 20.10581477424 
 30
 233.804457971236 
  0
VERTEX
  8
0
 10
-1.49038774456848 
 20
 18.9509646207481 
 30
 248.926115942472 
  0
VERTEX
  8
0
 10
-.465849088416703 
 20
 17.7335907335908 
 30
 263.747773913708 
  0
VERTEX
  8
0
 10
 .465849088416703 
 20
 17.7335907335908 
 30
 263.747773913708 
  0
VERTEX
  8
0
 10
 1.49038774456848 
 20
 18.9509646207481 
 30
 248.926115942472 
  0
VERTEX
  8
0
 10
 2.43425660394209 
 20
 20.10581477424 
 30
 233.804457971236 
  0
VERTEX
  8
0
 10
 3.17259282425198 
 20
 21.084 
 30
 218.6828 
  0
VERTEX
  8
0
 10
 3.84523851860679 
 20
 22.3037039073031 
 30
 189.155466666667 
  0
VERTEX
  8
0
 10
 3.87046493700564 
 20
 22.7943372381906 
 30
 159.328133333333 
  0
VERTEX
  8
0
 10
 3.78592459658093 
 20
 22.83 
 30
 129.5008 
  0
VERTEX
  8
0
 10
 3.9229360707483 
 20
 22.6408928729523 
 30
 102.078063333333 
  0
VERTEX
  8
0
 10
 3.89368473822949 
 20
 22.1083283859688 
 30
 74.3553266666667 
  0
VERTEX
  8
0
 10
 3.14510564421812 
 20
 21.03 
 30
 46.63259 
  0
VERTEX
  8
0
 10
 2.31163427019746 
 20
 20.1942143509862 
 30
 32.09506 
  0
VERTEX
  8
0
 10
 1.21969707207703 
 20
 19.1991092314089 
 30
 17.25753 
  0
VERTEX
  8
0
 10
 5.48277271381882E-03 
 20
 18.132 
 30
 2.42 
  0
VERTEX
  8
0
 10
-5.48277271381882E-03 
 20
 18.132 
 30
 2.42 
  0
SEQEND
  0
POLYLINE
  8
0
 66
     1
 10
0.0
 20
0.0
 30
0.0
  0
VERTEX
  8
0
 10
-5.48277271381882E-03 
 20
 20.2092576484799 
 30
 11.9069444479905 
  0
VERTEX
  8
0
 10
-3.37326870954135E-03 
 20
 20.7690697494127 
 30
 23.5821596319937 
  0
VERTEX
  8
0
 10
-1.46726284676329E-03 
 20
 21.3072064997742 
 30
 35.2573748159968 
  0
VERTEX
  8
0
 10
 0 
 20
 21.79 
 30
 46.63259 
  0
VERTEX
  8
0
 10
 1.48632160376084E-03 
 20
 22.7223926641046 
 30
 74.3553266666667 
  0
VERTEX
  8
0
 10
 1.00258458375718E-03 
 20
 23.3149638037312 
 30
 102.078063333333 
  0
VERTEX
  8
0
 10
 0 
 20
 23.59 
 30
 129.5008 
  0
VERTEX
  8
0
 10
-4.21731808619757E-04 
 20
 23.5264323923329 
 30
 159.328133333333 
  0
VERTEX
  8
0
 10
-2.66430857726646E-04 
 20
 22.9238636258663 
 30
 189.155466666667 
  0
VERTEX
  8
0
 10
 0 
 20
 21.6 
 30
 218.6828 
  0
VERTEX
  8
0
 10
 4.82658346179195E-05 
 20
 20.6040770536844 
 30
 233.700204522235 
  0
VERTEX
  8
0
 10
 3.81461246683603E-05 
 20
 19.4502966303596 
 30
 248.717609044471 
  0
VERTEX
  8
0
 10
 0 
 20
 18.2432432432432 
 30
 263.435013566706 
  0
VERTEX
  8
0
 10
 0 
 20
 18.2432432432432 
 30
 263.435013566706 
  0
VERTEX
  8
0
 10
-3.81461246683603E-05 
 20
 19.4502966303596 
 30
 248.717609044471 
  0
VERTEX
  8
0
 10
-4.82658346179195E-05 
 20
 20.6040770536844 
 30
 233.700204522235 
  0
VERTEX
  8
0
 10
 0 
 20
 21.6 
 30
 218.6828 
  0
VERTEX
  8
0
 10
 2.66430857726646E-04 
 20
 22.9238636258663 
 30
 189.155466666667 
  0
VERTEX
  8
0
 10
 4.21731808619757E-04 
 20
 23.5264323923329 
 30
 159.328133333333 
  0
VERTEX
  8
0
 10
 0 
 20
 23.59 
 30
 129.5008 
  0
VERTEX
  8
0
 10
-1.00258458375718E-03 
 20
 23.3149638037312 
 30
 102.078063333333 
  0
VERTEX
  8
0
 10
-1.48632160376084E-03 
 20
 22.7223926641046 
 30
 74.3553266666667 
  0
VERTEX
  8
0
 10
 0 
 20
 21.79 
 30
 46.63259 
  0
VERTEX
  8
0
 10
 1.46726284676329E-03 
 20
 21.3072064997742 
 30
 35.2573748159968 
  0
VERTEX
  8
0
 10
 3.37326870954135E-03 
 20
 20.7690697494127 
 30
 23.5821596319937 
  0
VERTEX
  8
0
 10
 5.48277271381882E-03 
 20
 20.2092576484799 
 30
 11.9069444479905 
  0
VERTEX
  8
0
 10
-5.48277271381882E-03 
 20
 20.2092576484799 
 30
 11.9069444479905 
  0
SEQEND
  0
POLYLINE
  8
0
 66
     1
 10
0.0
 20
0.0
 30
0.0
  0
VERTEX
  8
0
 10
 31.9069444479905 
 20
 20.2092576484799 
 30
-5.48277271381882E-03 
  0
VERTEX
  8
0
 10
 22.42 
 20
 18.132 
 30
-5.48277271381882E-03 
  0
VERTEX
  8
0
 10
 21.37 
 20
 16.86 
 30
-3.75178492412043E-03 
  0
VERTEX
  8
0
 10
 22.16 
 20
 14.4 
 30
-6.97273148187247E-03 
  0
VERTEX
  8
0
 10
 25.2694562663448 
 20
 11.3201879814522 
 30
-3.75178492412043E-03 
  0
VERTEX
  8
0
 10
 30.0525011850269 
 20
 7.86593493238553 
 30
-3.75178492412043E-03 
  0
VERTEX
  8
0
 10
 35.63 
 20
 5.4 
 30
-6.97273148187247E-03 
  0
VERTEX
  8
0
 10
 47.0487254939428 
 20
 2.61776061776063 
 30
-6.65498697738147E-03 
  0
VERTEX
  8
0
 10
 47.0487254939428 
 20
 2.61776061776063 
 30
 6.65498697738147E-03 
  0
VERTEX
  8
0
 10
 35.63 
 20
 5.4 
 30
 6.97273148187247E-03 
  0
VERTEX
  8
0
 10
 30.0525011850269 
 20
 7.86593493238553 
 30
 3.75178492412043E-03 
  0
VERTEX
  8
0
 10
 25.2694562663448 
 20
 11.3201879814522 
 30
 3.75178492412043E-03 
  0
VERTEX
  8
0
 10
 22.16 
 20
 14.4 
 30
 6.97273148187247E-03 
  0
VERTEX
  8
0
 10
 21.37 
 20
 16.86 
 30
 3.75178492412043E-03 
  0
VERTEX
  8
0
 10
 22.42 
 20
 18.132 
 30
 5.48277271381882E-03 
  0
VERTEX
  8
0
 10
 31.9069444479905 
 20
 20.2092576484799 
 30
 5.48277271381882E-03 
  0
SEQEND
  0
POLYLINE
  8
0
 66
     1
 10
0.0
 20
0.0
 30
0.0
  0
VERTEX
  8
0
 10
 66.63259 
 20
 21.79 
 30
 0 
  0
VERTEX
  8
0
 10
 66.63259 
 20
 21.03 
 30
-3.14510564421812 
  0
VERTEX
  8
0
 10
 66.63259 
 20
 18.93 
 30
-5.54666729102598 
  0
VERTEX
  8
0
 10
 66.63259 
 20
 14.38 
 30
-7.66619500778167 
  0
VERTEX
  8
0
 10
 66.63259 
 20
 10.19 
 30
-7.39270756045835 
  0
VERTEX
  8
0
 10
 66.63259 
 20
 4.872 
 30
-4.88024032377937 
  0
VERTEX
  8
0
 10
 66.63259 
 20
 2.18 
 30
-1.99133047582289 
  0
VERTEX
  8
0
 10
 66.63259 
 20
 .99 
 30
 0 
  0
VERTEX
  8
0
 10
 66.63259 
 20
 .99 
 30
 0 
  0
VERTEX
  8
0
 10
 66.63259 
 20
 2.18 
 30
 1.99133047582289 
  0
VERTEX
  8
0
 10
 66.63259 
 20
 4.872 
 30
 4.88024032377937 
  0
VERTEX
  8
0
 10
 66.63259 
 20
 10.19 
 30
 7.39270756045835 
  0
VERTEX
  8
0
 10
 66.63259 
 20
 14.38 
 30
 7.66619500778167 
  0
VERTEX
  8
0
 10
 66.63259 
 20
 18.93 
 30
 5.54666729102598 
  0
VERTEX
  8
0
 10
 66.63259 
 20
 21.03 
 30
 3.14510564421812 
  0
VERTEX
  8
0
 10
 66.63259 
 20
 21.79 
 30
 0 
  0
SEQEND
  0
POLYLINE
  8
0
 66
     1
 10
0.0
 20
0.0
 30
0.0
  0
VERTEX
  8
0
 10
 149.5008 
 20
 23.59 
 30
 0 
  0
VERTEX
  8
0
 10
 149.5008 
 20
 22.83 
 30
-3.78592459658093 
  0
VERTEX
  8
0
 10
 149.5008 
 20
 19.96 
 30
-7.75165983507021 
  0
VERTEX
  8
0
 10
 149.5008 
 20
 14.4 
 30
-9.77717624180851 
  0
VERTEX
  8
0
 10
 149.5008 
 20
 8.98 
 30
-9.43531693265436 
  0
VERTEX
  8
0
 10
 149.5008 
 20
 3.5 
 30
-5.7432537614802 
  0
VERTEX
  8
0
 10
 149.5008 
 20
 1.39 
 30
-3.03400136874302 
  0
VERTEX
  8
0
 10
 149.5008 
 20
 .76 
 30
-1.70929654577072E-02 
  0
VERTEX
  8
0
 10
 149.5008 
 20
 .76 
 30
 1.70929654577072E-02 
  0
VERTEX
  8
0
 10
 149.5008 
 20
 1.39 
 30
 3.03400136874302 
  0
VERTEX
  8
0
 10
 149.5008 
 20
 3.5 
 30
 5.7432537614802 
  0
VERTEX
  8
0
 10
 149.5008 
 20
 8.98 
 30
 9.43531693265436 
  0
VERTEX
  8
0
 10
 149.5008 
 20
 14.4 
 30
 9.77717624180851 
  0
VERTEX
  8
0
 10
 149.5008 
 20
 19.96 
 30
 7.75165983507021 
  0
VERTEX
  8
0
 10
 149.5008 
 20
 22.83 
 30
 3.78592459658093 
  0
VERTEX
  8
0
 10
 149.5008 
 20
 23.59 
 30
 0 
  0
SEQEND
  0
POLYLINE
  8
0
 66
     1
 10
0.0
 20
0.0
 30
0.0
  0
VERTEX
  8
0
 10
 238.6828 
 20
 21.6 
 30
 0 
  0
VERTEX
  8
0
 10
 238.6828 
 20
 21.084 
 30
-3.17259282425198 
  0
VERTEX
  8
0
 10
 238.6828 
 20
 18.98 
 30
-5.62358563558566 
  0
VERTEX
  8
0
 10
 238.6828 
 20
 14.33 
 30
-7.58927666322199 
  0
VERTEX
  8
0
 10
 238.6828 
 20
 10.14 
 30
-7.31578921589867 
  0
VERTEX
  8
0
 10
 238.6828 
 20
 4.9 
 30
-4.93986701727738 
  0
VERTEX
  8
0
 10
 238.6828 
 20
 3.22 
 30
-2.04260937219601 
  0
VERTEX
  8
0
 10
 238.6828 
 20
 2.4 
 30
 0 
  0
VERTEX
  8
0
 10
 238.6828 
 20
 2.4 
 30
 0 
  0
VERTEX
  8
0
 10
 238.6828 
 20
 3.22 
 30
 2.04260937219601 
  0
VERTEX
  8
0
 10
 238.6828 
 20
 4.9 
 30
 4.93986701727738 
  0
VERTEX
  8
0
 10
 238.6828 
 20
 10.14 
 30
 7.31578921589867 
  0
VERTEX
  8
0
 10
 238.6828 
 20
 14.33 
 30
 7.58927666322199 
  0
VERTEX
  8
0
 10
 238.6828 
 20
 18.98 
 30
 5.62358563558566 
  0
VERTEX
  8
0
 10
 238.6828 
 20
 21.084 
 30
 3.17259282425198 
  0
VERTEX
  8
0
 10
 238.6828 
 20
 21.6 
 30
 0 
  0
SEQEND
  0
POLYLINE
  8
0
 66
     1
 10
0.0
 20
0.0
 30
0.0
  0
VERTEX
  8
0
 10
 283.435013566706 
 20
 18.2432432432432 
 30
 0 
  0
VERTEX
  8
0
 10
 283.747773913708 
 20
 17.7335907335908 
 30
-.465849088416703 
  0
VERTEX
  8
0
 10
 284 
 20
 17.1312741312742 
 30
-.672153684715525 
  0
VERTEX
  8
0
 10
 282.88 
 20
 14.412 
 30
-1.26206439821892 
  0
VERTEX
  8
0
 10
 281.58871861505 
 20
 11.496 
 30
-1.26206439821892 
  0
VERTEX
  8
0
 10
 280.539458096075 
 20
 9.45173745173746 
 30
-.984938072652456 
  0
VERTEX
  8
0
 10
 273.174456376352 
 20
 7.488 
 30
-.599654907441033 
  0
VERTEX
  8
0
 10
 268.95 
 20
 6.108 
 30
-2.78909259274899E-02 
  0
VERTEX
  8
0
 10
 268.95 
 20
 6.108 
 30
 2.78909259274899E-02 
  0
VERTEX
  8
0
 10
 273.174456376352 
 20
 7.488 
 30
 .599654907441033 
  0
VERTEX
  8
0
 10
 280.539458096075 
 20
 9.45173745173746 
 30
 .984938072652456 
  0
VERTEX
  8
0
 10
 281.58871861505 
 20
 11.496 
 30
 1.26206439821892 
  0
VERTEX
  8
0
 10
 282.88 
 20
 14.412 
 30
 1.26206439821892 
  0
VERTEX
  8
0
 10
 284 
 20
 17.1312741312742 
 30
 .672153684715525 
  0
VERTEX
  8
0
 10
 283.747773913708 
 20
 17.7335907335908 
 30
 .465849088416703 
  0
VERTEX
  8
0
 10
 283.435013566706 
 20
 18.2432432432432 
 30
 0 
  0
SEQEND
  0
POLYLINE
  8
0
 66
     1
 10
0.0
 20
0.0
 30
0.0
  0
VERTEX
  8
0
 10
 47.0487254939428 
 20
 2.61776061776063 
 30
-6.65498697738147E-03 
  0
VERTEX
  8
0
 10
 53.6766803292952 
 20
 2.01338303746897 
 30
-3.92298829073342E-03 
  0
VERTEX
  8
0
 10
 60.3046351646476 
 20
 1.45051311610481 
 30
-1.56329886538436E-03 
  0
VERTEX
  8
0
 10
 66.63259 
 20
 .99 
 30
 0 
  0
VERTEX
  8
0
 10
 94.3553266666667 
 20
 9.76528082731518E-02 
 30
-2.70189986665259E-03 
  0
VERTEX
  8
0
 10
 122.078063333333 
 20
 .353901525450234 
 30
-1.24568559399198E-02 
  0
VERTEX
  8
0
 10
 149.5008 
 20
 .76 
 30
-1.70929654577072E-02 
  0
VERTEX
  8
0
 10
 179.328133333333 
 20
 .652969015060638 
 30
-8.07702640041378E-03 
  0
VERTEX
  8
0
 10
 209.155466666667 
 20
 .801576449321066 
 30
 3.3859512312549E-03 
  0
VERTEX
  8
0
 10
 238.6828 
 20
 2.4 
 30
 0 
  0
VERTEX
  8
0
 10
 248.871866666667 
 20
 3.47694820244115 
 30
-7.32971621432921E-03 
  0
VERTEX
  8
0
 10
 259.060933333333 
 20
 4.7619094629072 
 30
-1.71601742187003E-02 
  0
VERTEX
  8
0
 10
 268.95 
 20
 6.108 
 30
-2.78909259274899E-02 
  0
VERTEX
  8
0
 10
 268.95 
 20
 6.108 
 30
 2.78909259274899E-02 
  0
VERTEX
  8
0
 10
 259.060933333333 
 20
 4.7619094629072 
 30
 1.71601742187003E-02 
  0
VERTEX
  8
0
 10
 248.871866666667 
 20
 3.47694820244115 
 30
 7.32971621432921E-03 
  0
VERTEX
  8
0
 10
 238.6828 
 20
 2.4 
 30
 0 
  0
VERTEX
  8
0
 10
 209.155466666667 
 20
 .801576449321066 
 30
-3.3859512312549E-03 
  0
VERTEX
  8
0
 10
 179.328133333333 
 20
 .652969015060638 
 30
 8.07702640041378E-03 
  0
VERTEX
  8
0
 10
 149.5008 
 20
 .76 
 30
 1.70929654577072E-02 
  0
VERTEX
  8
0
 10
 122.078063333333 
 20
 .353901525450234 
 30
 1.24568559399198E-02 
  0
VERTEX
  8
0
 10
 94.3553266666667 
 20
 9.76528082731518E-02 
 30
 2.70189986665259E-03 
  0
VERTEX
  8
0
 10
 66.63259 
 20
 .99 
 30
 0 
  0
VERTEX
  8
0
 10
 60.3046351646476 
 20
 1.45051311610481 
 30
 1.56329886538436E-03 
  0
VERTEX
  8
0
 10
 53.6766803292952 
 20
 2.01338303746897 
 30
 3.92298829073342E-03 
  0
VERTEX
  8
0
 10
 47.0487254939428 
 20
 2.61776061776063 
 30
 6.65498697738147E-03 
  0
VERTEX
  8
0
 10
 47.0487254939428 
 20
 2.61776061776063 
 30
-6.65498697738147E-03 
  0
SEQEND
  0
POLYLINE
  8
0
 66
     1
 10
0.0
 20
0.0
 30
0.0
  0
VERTEX
  8
0
 10
 35.63 
 20
 5.4 
 30
-6.97273148187247E-03 
  0
VERTEX
  8
0
 10
 46.0641966666667 
 20
 4.18210457513535 
 30
-.741850507453432 
  0
VERTEX
  8
0
 10
 56.4983933333333 
 20
 3.06704800801046 
 30
-1.42535741363865 
  0
VERTEX
  8
0
 10
 66.63259 
 20
 2.18 
 30
-1.99133047582289 
  0
VERTEX
  8
0
 10
 94.3553266666667 
 20
 1.02509796218265 
 30
-2.8909955854258 
  0
VERTEX
  8
0
 10
 122.078063333333 
 20
 1.07847491609572 
 30
-3.10697056316515 
  0
VERTEX
  8
0
 10
 149.5008 
 20
 1.39 
 30
-3.03400136874302 
  0
VERTEX
  8
0
 10
 179.328133333333 
 20
 1.32486642534563 
 30
-2.95052359126229 
  0
VERTEX
  8
0
 10
 209.155466666667 
 20
 1.57648921353809 
 30
-2.70817591180314 
  0
VERTEX
  8
0
 10
 238.6828 
 20
 3.22 
 30
-2.04260937219601 
  0
VERTEX
  8
0
 10
 250.280018792117 
 20
 4.44724531912181 
 30
-1.61574385389611 
  0
VERTEX
  8
0
 10
 261.877237584235 
 20
 5.92645218765564 
 30
-1.11818348406547 
  0
VERTEX
  8
0
 10
 273.174456376352 
 20
 7.488 
 30
-.599654907441033 
  0
VERTEX
  8
0
 10
 273.174456376352 
 20
 7.488 
 30
 .599654907441033 
  0
VERTEX
  8
0
 10
 261.877237584235 
 20
 5.92645218765564 
 30
 1.11818348406547 
  0
VERTEX
  8
0
 10
 250.280018792117 
 20
 4.44724531912181 
 30
 1.61574385389611 
  0
VERTEX
  8
0
 10
 238.6828 
 20
 3.22 
 30
 2.04260937219601 
  0
VERTEX
  8
0
 10
 209.155466666667 
 20
 1.57648921353809 
 30
 2.70817591180314 
  0
VERTEX
  8
0
 10
 179.328133333333 
 20
 1.32486642534563 
 30
 2.95052359126229 
  0
VERTEX
  8
0
 10
 149.5008 
 20
 1.39 
 30
 3.03400136874302 
  0
VERTEX
  8
0
 10
 122.078063333333 
 20
 1.07847491609572 
 30
 3.10697056316515 
  0
VERTEX
  8
0
 10
 94.3553266666667 
 20
 1.02509796218265 
 30
 2.8909955854258 
  0
VERTEX
  8
0
 10
 66.63259 
 20
 2.18 
 30
 1.99133047582289 
  0
VERTEX
  8
0
 10
 56.4983933333333 
 20
 3.06704800801046 
 30
 1.42535741363865 
  0
VERTEX
  8
0
 10
 46.0641966666667 
 20
 4.18210457513535 
 30
 .741850507453432 
  0
VERTEX
  8
0
 10
 35.63 
 20
 5.4 
 30
 6.97273148187247E-03 
  0
VERTEX
  8
0
 10
 35.63 
 20
 5.4 
 30
-6.97273148187247E-03 
  0
SEQEND
  0
POLYLINE
  8
0
 66
     1
 10
0.0
 20
0.0
 30
0.0
  0
VERTEX
  8
0
 10
 30.0525011850269 
 20
 7.86593493238553 
 30
-3.75178492412043E-03 
  0
VERTEX
  8
0
 10
 42.3458641233513 
 20
 6.74004483878494 
 30
-1.87317615303611 
  0
VERTEX
  8
0
 10
 54.6392270616757 
 20
 5.70561732090873 
 30
-3.56644157738033 
  0
VERTEX
  8
0
 10
 66.63259 
 20
 4.872 
 30
-4.88024032377937 
  0
VERTEX
  8
0
 10
 94.3553266666667 
 20
 3.80670236486664 
 30
-6.26646039141187 
  0
VERTEX
  8
0
 10
 122.078063333333 
 20
 3.54304414077939 
 30
-6.16182789192034 
  0
VERTEX
  8
0
 10
 149.5008 
 20
 3.5 
 30
-5.7432537614802 
  0
VERTEX
  8
0
 10
 179.328133333333 
 20
 3.2954303784879 
 30
-5.8515842441037 
  0
VERTEX
  8
0
 10
 209.155466666667 
 20
 3.49680126417414 
 30
-5.91800965614929 
  0
VERTEX
  8
0
 10
 238.6828 
 20
 4.9 
 30
-4.93986701727738 
  0
VERTEX
  8
0
 10
 252.735019365358 
 20
 6.18013015556573 
 30
-3.86479694901576 
  0
VERTEX
  8
0
 10
 266.787238730717 
 20
 7.76041177228476 
 30
-2.48388916614753 
  0
VERTEX
  8
0
 10
 280.539458096075 
 20
 9.45173745173746 
 30
-.984938072652456 
  0
VERTEX
  8
0
 10
 280.539458096075 
 20
 9.45173745173746 
 30
 .984938072652456 
  0
VERTEX
  8
0
 10
 266.787238730717 
 20
 7.76041177228476 
 30
 2.48388916614753 
  0
VERTEX
  8
0
 10
 252.735019365358 
 20
 6.18013015556573 
 30
 3.86479694901576 
  0
VERTEX
  8
0
 10
 238.6828 
 20
 4.9 
 30
 4.93986701727738 
  0
VERTEX
  8
0
 10
 209.155466666667 
 20
 3.49680126417414 
 30
 5.91800965614929 
  0
VERTEX
  8
0
 10
 179.328133333333 
 20
 3.2954303784879 
 30
 5.8515842441037 
  0
VERTEX
  8
0
 10
 149.5008 
 20
 3.5 
 30
 5.7432537614802 
  0
VERTEX
  8
0
 10
 122.078063333333 
 20
 3.54304414077939 
 30
 6.16182789192034 
  0
VERTEX
  8
0
 10
 94.3553266666667 
 20
 3.80670236486664 
 30
 6.26646039141187 
  0
VERTEX
  8
0
 10
 66.63259 
 20
 4.872 
 30
 4.88024032377937 
  0
VERTEX
  8
0
 10
 54.6392270616757 
 20
 5.70561732090873 
 30
 3.56644157738033 
  0
VERTEX
  8
0
 10
 42.3458641233513 
 20
 6.74004483878494 
 30
 1.87317615303611 
  0
VERTEX
  8
0
 10
 30.0525011850269 
 20
 7.86593493238553 
 30
 3.75178492412043E-03 
  0
VERTEX
  8
0
 10
 30.0525011850269 
 20
 7.86593493238553 
 30
-3.75178492412043E-03 
  0
SEQEND
  0
POLYLINE
  8
0
 66
     1
 10
0.0
 20
0.0
 30
0.0
  0
VERTEX
  8
0
 10
 25.2694562663448 
 20
 11.3201879814522 
 30
-3.75178492412043E-03 
  0
VERTEX
  8
0
 10
 39.1571675108965 
 20
 10.9247726877475 
 30
-2.82574233332013 
  0
VERTEX
  8
0
 10
 53.0448787554483 
 20
 10.5415189262599 
 30
-5.38767856606479 
  0
VERTEX
  8
0
 10
 66.63259 
 20
 10.19 
 30
-7.39270756045835 
  0
VERTEX
  8
0
 10
 94.3553266666667 
 20
 9.58376563331374 
 30
-9.47705042194788 
  0
VERTEX
  8
0
 10
 122.078063333333 
 20
 9.16563683831475 
 30
-9.73672472171033 
  0
VERTEX
  8
0
 10
 149.5008 
 20
 8.98 
 30
-9.43531693265436 
  0
VERTEX
  8
0
 10
 179.328133333333 
 20
 9.07329443856487 
 30
-9.45602971489698 
  0
VERTEX
  8
0
 10
 209.155466666667 
 20
 9.46830111042917 
 30
-9.12219291288232 
  0
VERTEX
  8
0
 10
 238.6828 
 20
 10.14 
 30
-7.31578921589867 
  0
VERTEX
  8
0
 10
 253.084772871683 
 20
 10.5608269685383 
 30
-5.62148423830625 
  0
VERTEX
  8
0
 10
 267.486745743367 
 20
 11.0232002302838 
 30
-3.51851911190049 
  0
VERTEX
  8
0
 10
 281.58871861505 
 20
 11.496 
 30
-1.26206439821892 
  0
VERTEX
  8
0
 10
 281.58871861505 
 20
 11.496 
 30
 1.26206439821892 
  0
VERTEX
  8
0
 10
 267.486745743367 
 20
 11.0232002302838 
 30
 3.51851911190049 
  0
VERTEX
  8
0
 10
 253.084772871683 
 20
 10.5608269685383 
 30
 5.62148423830625 
  0
VERTEX
  8
0
 10
 238.6828 
 20
 10.14 
 30
 7.31578921589867 
  0
VERTEX
  8
0
 10
 209.155466666667 
 20
 9.46830111042917 
 30
 9.12219291288232 
  0
VERTEX
  8
0
 10
 179.328133333333 
 20
 9.07329443856487 
 30
 9.45602971489698 
  0
VERTEX
  8
0
 10
 149.5008 
 20
 8.98 
 30
 9.43531693265436 
  0
VERTEX
  8
0
 10
 122.078063333333 
 20
 9.16563683831475 
 30
 9.73672472171033 
  0
VERTEX
  8
0
 10
 94.3553266666667 
 20
 9.58376563331374 
 30
 9.47705042194788 
  0
VERTEX
  8
0
 10
 66.63259 
 20
 10.19 
 30
 7.39270756045835 
  0
VERTEX
  8
0
 10
 53.0448787554483 
 20
 10.5415189262599 
 30
 5.38767856606479 
  0
VERTEX
  8
0
 10
 39.1571675108965 
 20
 10.9247726877475 
 30
 2.82574233332013 
  0
VERTEX
  8
0
 10
 25.2694562663448 
 20
 11.3201879814522 
 30
 3.75178492412043E-03 
  0
VERTEX
  8
0
 10
 25.2694562663448 
 20
 11.3201879814522 
 30
-3.75178492412043E-03 
  0
SEQEND
  0
POLYLINE
  8
0
 66
     1
 10
0.0
 20
0.0
 30
0.0
  0
VERTEX
  8
0
 10
 22.16 
 20
 14.4 
 30
-6.97273148187247E-03 
  0
VERTEX
  8
0
 10
 37.0841966666667 
 20
 14.3902670094663 
 30
-2.94158586651804 
  0
VERTEX
  8
0
 10
 52.0083933333333 
 20
 14.3828346010004 
 30
-5.59879326753164 
  0
VERTEX
  8
0
 10
 66.63259 
 20
 14.38 
 30
-7.66619500778167 
  0
VERTEX
  8
0
 10
 94.3553266666667 
 20
 14.3887812082634 
 30
-9.68176405858768 
  0
VERTEX
  8
0
 10
 122.078063333333 
 20
 14.4018475173763 
 30
-10 
  0
VERTEX
  8
0
 10
 149.5008 
 20
 14.4 
 30
-9.77717624180851 
  0
VERTEX
  8
0
 10
 179.328133333333 
 20
 14.3692379444833 
 30
-9.81499556129081 
  0
VERTEX
  8
0
 10
 209.155466666667 
 20
 14.3341946509755 
 30
-9.44365631835031 
  0
VERTEX
  8
0
 10
 238.6828 
 20
 14.33 
 30
-7.58927666322199 
  0
VERTEX
  8
0
 10
 253.5152 
 20
 14.3485440082799 
 30
-5.81981044554818 
  0
VERTEX
  8
0
 10
 268.3476 
 20
 14.3779456880315 
 30
-3.62217568963763 
  0
VERTEX
  8
0
 10
 282.88 
 20
 14.412 
 30
-1.26206439821892 
  0
VERTEX
  8
0
 10
 282.88 
 20
 14.412 
 30
 1.26206439821892 
  0
VERTEX
  8
0
 10
 268.3476 
 20
 14.3779456880315 
 30
 3.62217568963763 
  0
VERTEX
  8
0
 10
 253.5152 
 20
 14.3485440082799 
 30
 5.81981044554818 
  0
VERTEX
  8
0
 10
 238.6828 
 20
 14.33 
 30
 7.58927666322199 
  0
VERTEX
  8
0
 10
 209.155466666667 
 20
 14.3341946509755 
 30
 9.44365631835031 
  0
VERTEX
  8
0
 10
 179.328133333333 
 20
 14.3692379444833 
 30
 9.81499556129081 
  0
VERTEX
  8
0
 10
 149.5008 
 20
 14.4 
 30
 9.77717624180851 
  0
VERTEX
  8
0
 10
 122.078063333333 
 20
 14.4018475173763 
 30
 10 
  0
VERTEX
  8
0
 10
 94.3553266666667 
 20
 14.3887812082634 
 30
 9.68176405858768 
  0
VERTEX
  8
0
 10
 66.63259 
 20
 14.38 
 30
 7.66619500778167 
  0
VERTEX
  8
0
 10
 52.0083933333333 
 20
 14.3828346010004 
 30
 5.59879326753164 
  0
VERTEX
  8
0
 10
 37.0841966666667 
 20
 14.3902670094663 
 30
 2.94158586651804 
  0
VERTEX
  8
0
 10
 22.16 
 20
 14.4 
 30
 6.97273148187247E-03 
  0
VERTEX
  8
0
 10
 22.16 
 20
 14.4 
 30
-6.97273148187247E-03 
  0
SEQEND
  0
POLYLINE
  8
0
 66
     1
 10
0.0
 20
0.0
 30
0.0
  0
VERTEX
  8
0
 10
 21.37 
 20
 16.86 
 30
-3.75178492412043E-03 
  0
VERTEX
  8
0
 10
 36.55753 
 20
 17.6319560173405 
 30
-2.09787356837355 
  0
VERTEX
  8
0
 10
 51.74506 
 20
 18.3450051873146 
 30
-4.01368454849984 
  0
VERTEX
  8
0
 10
 66.63259 
 20
 18.93 
 30
-5.54666729102598 
  0
VERTEX
  8
0
 10
 94.3553266666667 
 20
 19.6171719012762 
 30
-7.19930783846063 
  0
VERTEX
  8
0
 10
 122.078063333333 
 20
 19.9002519720278 
 30
-7.72105172528707 
  0
VERTEX
  8
0
 10
 149.5008 
 20
 19.96 
 30
-7.75165983507021 
  0
VERTEX
  8
0
 10
 179.328133333333 
 20
 19.914834623473 
 30
-7.72342977758054 
  0
VERTEX
  8
0
 10
 209.155466666667 
 20
 19.6433759140693 
 30
-7.21935671478616 
  0
VERTEX
  8
0
 10
 238.6828 
 20
 18.98 
 30
-5.62358563558566 
  0
VERTEX
  8
0
 10
 253.888533333333 
 20
 18.4416939528717 
 30
-4.21188917433382 
  0
VERTEX
  8
0
 10
 269.094266666667 
 20
 17.8041865128909 
 30
-2.49816072448212 
  0
VERTEX
  8
0
 10
 284 
 20
 17.1312741312742 
 30
-.672153684715525 
  0
VERTEX
  8
0
 10
 284 
 20
 17.1312741312742 
 30
 .672153684715525 
  0
VERTEX
  8
0
 10
 269.094266666667 
 20
 17.8041865128909 
 30
 2.49816072448212 
  0
VERTEX
  8
0
 10
 253.888533333333 
 20
 18.4416939528717 
 30
 4.21188917433382 
  0
VERTEX
  8
0
 10
 238.6828 
 20
 18.98 
 30
 5.62358563558566 
  0
VERTEX
  8
0
 10
 209.155466666667 
 20
 19.6433759140693 
 30
 7.21935671478616 
  0
VERTEX
  8
0
 10
 179.328133333333 
 20
 19.914834623473 
 30
 7.72342977758054 
  0
VERTEX
  8
0
 10
 149.5008 
 20
 19.96 
 30
 7.75165983507021 
  0
VERTEX
  8
0
 10
 122.078063333333 
 20
 19.9002519720278 
 30
 7.72105172528707 
  0
VERTEX
  8
0
 10
 94.3553266666667 
 20
 19.6171719012762 
 30
 7.19930783846063 
  0
VERTEX
  8
0
 10
 66.63259 
 20
 18.93 
 30
 5.54666729102598 
  0
VERTEX
  8
0
 10
 51.74506 
 20
 18.3450051873146 
 30
 4.01368454849984 
  0
VERTEX
  8
0
 10
 36.55753 
 20
 17.6319560173405 
 30
 2.09787356837355 
  0
VERTEX
  8
0
 10
 21.37 
 20
 16.86 
 30
 3.75178492412043E-03 
  0
VERTEX
  8
0
 10
 21.37 
 20
 16.86 
 30
-3.75178492412043E-03 
  0
SEQEND
  0
POLYLINE
  8
0
 66
     1
 10
0.0
 20
0.0
 30
0.0
  0
VERTEX
  8
0
 10
 22.42 
 20
 18.132 
 30
-5.48277271381882E-03 
  0
VERTEX
  8
0
 10
 37.25753 
 20
 19.1991092314089 
 30
-1.21969707207703 
  0
VERTEX
  8
0
 10
 52.09506 
 20
 20.1942143509862 
 30
-2.31163427019746 
  0
VERTEX
  8
0
 10
 66.63259 
 20
 21.03 
 30
-3.14510564421812 
  0
VERTEX
  8
0
 10
 94.3553266666667 
 20
 22.1083283859688 
 30
-3.89368473822949 
  0
VERTEX
  8
0
 10
 122.078063333333 
 20
 22.6408928729523 
 30
-3.9229360707483 
  0
VERTEX
  8
0
 10
 149.5008 
 20
 22.83 
 30
-3.78592459658093 
  0
VERTEX
  8
0
 10
 179.328133333333 
 20
 22.7943372381906 
 30
-3.87046493700564 
  0
VERTEX
  8
0
 10
 209.155466666667 
 20
 22.3037039073031 
 30
-3.84523851860679 
  0
VERTEX
  8
0
 10
 238.6828 
 20
 21.084 
 30
-3.17259282425198 
  0
VERTEX
  8
0
 10
 253.804457971236 
 20
 20.10581477424 
 30
-2.43425660394209 
  0
VERTEX
  8
0
 10
 268.926115942472 
 20
 18.9509646207481 
 30
-1.49038774456848 
  0
VERTEX
  8
0
 10
 283.747773913708 
 20
 17.7335907335908 
 30
-.465849088416703 
  0
VERTEX
  8
0
 10
 283.747773913708 
 20
 17.7335907335908 
 30
 .465849088416703 
  0
VERTEX
  8
0
 10
 268.926115942472 
 20
 18.9509646207481 
 30
 1.49038774456848 
  0
VERTEX
  8
0
 10
 253.804457971236 
 20
 20.10581477424 
 30
 2.43425660394209 
  0
VERTEX
  8
0
 10
 238.6828 
 20
 21.084 
 30
 3.17259282425198 
  0
VERTEX
  8
0
 10
 209.155466666667 
 20
 22.3037039073031 
 30
 3.84523851860679 
  0
VERTEX
  8
0
 10
 179.328133333333 
 20
 22.7943372381906 
 30
 3.87046493700564 
  0
VERTEX
  8
0
 10
 149.5008 
 20
 22.83 
 30
 3.78592459658093 
  0
VERTEX
  8
0
 10
 122.078063333333 
 20
 22.6408928729523 
 30
 3.9229360707483 
  0
VERTEX
  8
0
 10
 94.3553266666667 
 20
 22.1083283859688 
 30
 3.89368473822949 
  0
VERTEX
  8
0
 10
 66.63259 
 20
 21.03 
 30
 3.14510564421812 
  0
VERTEX
  8
0
 10
 52.09506 
 20
 20.1942143509862 
 30
 2.31163427019746 
  0
VERTEX
  8
0
 10
 37.25753 
 20
 19.1991092314089 
 30
 1.21969707207703 
  0
VERTEX
  8
0
 10
 22.42 
 20
 18.132 
 30
 5.48277271381882E-03 
  0
VERTEX
  8
0
 10
 22.42 
 20
 18.132 
 30
-5.48277271381882E-03 
  0
SEQEND
  0
POLYLINE
  8
0
 66
     1
 10
0.0
 20
0.0
 30
0.0
  0
VERTEX
  8
0
 10
 31.9069444479905 
 20
 20.2092576484799 
 30
-5.48277271381882E-03 
  0
VERTEX
  8
0
 10
 43.5821596319937 
 20
 20.7690697494127 
 30
-3.37326870954135E-03 
  0
VERTEX
  8
0
 10
 55.2573748159969 
 20
 21.3072064997742 
 30
-1.46726284676329E-03 
  0
VERTEX
  8
0
 10
 66.63259 
 20
 21.79 
 30
 0 
  0
VERTEX
  8
0
 10
 94.3553266666667 
 20
 22.7223926641046 
 30
 1.48632160376084E-03 
  0
VERTEX
  8
0
 10
 122.078063333333 
 20
 23.3149638037312 
 30
 1.00258458375718E-03 
  0
VERTEX
  8
0
 10
 149.5008 
 20
 23.59 
 30
 0 
  0
VERTEX
  8
0
 10
 179.328133333333 
 20
 23.5264323923329 
 30
-4.21731808619757E-04 
  0
VERTEX
  8
0
 10
 209.155466666667 
 20
 22.9238636258663 
 30
-2.66430857726646E-04 
  0
VERTEX
  8
0
 10
 238.6828 
 20
 21.6 
 30
 0 
  0
VERTEX
  8
0
 10
 253.700204522235 
 20
 20.6040770536844 
 30
 4.82658346179195E-05 
  0
VERTEX
  8
0
 10
 268.717609044471 
 20
 19.4502966303596 
 30
 3.81461246683603E-05 
  0
VERTEX
  8
0
 10
 283.435013566706 
 20
 18.2432432432432 
 30
 0 
  0
VERTEX
  8
0
 10
 283.435013566706 
 20
 18.2432432432432 
 30
 0 
  0
VERTEX
  8
0
 10
 268.717609044471 
 20
 19.4502966303596 
 30
-3.81461246683603E-05 
  0
VERTEX
  8
0
 10
 253.700204522235 
 20
 20.6040770536844 
 30
-4.82658346179195E-05 
  0
VERTEX
  8
0
 10
 238.6828 
 20
 21.6 
 30
 0 
  0
VERTEX
  8
0
 10
 209.155466666667 
 20
 22.9238636258663 
 30
 2.66430857726646E-04 
  0
VERTEX
  8
0
 10
 179.328133333333 
 20
 23.5264323923329 
 30
 4.21731808619757E-04 
  0
VERTEX
  8
0
 10
 149.5008 
 20
 23.59 
 30
 0 
  0
VERTEX
  8
0
 10
 122.078063333333 
 20
 23.3149638037312 
 30
-1.00258458375718E-03 
  0
VERTEX
  8
0
 10
 94.3553266666667 
 20
 22.7223926641046 
 30
-1.48632160376084E-03 
  0
VERTEX
  8
0
 10
 66.63259 
 20
 21.79 
 30
 0 
  0
VERTEX
  8
0
 10
 55.2573748159969 
 20
 21.3072064997742 
 30
 1.46726284676329E-03 
  0
VERTEX
  8
0
 10
 43.5821596319937 
 20
 20.7690697494127 
 30
 3.37326870954135E-03 
  0
VERTEX
  8
0
 10
 31.9069444479905 
 20
 20.2092576484799 
 30
 5.48277271381882E-03 
  0
VERTEX
  8
0
 10
 31.9069444479905 
 20
 20.2092576484799 
 30
-5.48277271381882E-03 
  0
SEQEND
  0
POLYLINE
  8
0
 66
     1
 10
0.0
 20
0.0
 30
0.0
  0
VERTEX
  8
0
 10
 31.9069444479905 
 20
 29.9945172272862 
 30
 20.2092576484799 
  0
VERTEX
  8
0
 10
 22.42 
 20
 29.9945172272862 
 30
 18.132 
  0
VERTEX
  8
0
 10
 21.37 
 20
 29.9962482150759 
 30
 16.86 
  0
VERTEX
  8
0
 10
 22.16 
 20
 29.9930272685181 
 30
 14.4 
  0
VERTEX
  8
0
 10
 25.2694562663448 
 20
 29.9962482150759 
 30
 11.3201879814522 
  0
VERTEX
  8
0
 10
 30.0525011850269 
 20
 29.9962482150759 
 30
 7.86593493238553 
  0
VERTEX
  8
0
 10
 35.63 
 20
 29.9930272685181 
 30
 5.4 
  0
VERTEX
  8
0
 10
 47.0487254939428 
 20
 29.9933450130226 
 30
 2.61776061776063 
  0
VERTEX
  8
0
 10
 47.0487254939428 
 20
 30.0066549869774 
 30
 2.61776061776063 
  0
VERTEX
  8
0
 10
 35.63 
 20
 30.0069727314819 
 30
 5.4 
  0
VERTEX
  8
0
 10
 30.0525011850269 
 20
 30.0037517849241 
 30
 7.86593493238553 
  0
VERTEX
  8
0
 10
 25.2694562663448 
 20
 30.0037517849241 
 30
 11.3201879814522 
  0
VERTEX
  8
0
 10
 22.16 
 20
 30.0069727314819 
 30
 14.4 
  0
VERTEX
  8
0
 10
 21.37 
 20
 30.0037517849241 
 30
 16.86 
  0
VERTEX
  8
0
 10
 22.42 
 20
 30.0054827727138 
 30
 18.132 
  0
VERTEX
  8
0
 10
 31.9069444479905 
 20
 30.0054827727138 
 30
 20.2092576484799 
  0
SEQEND
  0
POLYLINE
  8
0
 66
     1
 10
0.0
 20
0.0
 30
0.0
  0
VERTEX
  8
0
 10
 66.63259 
 20
 30 
 30
 21.79 
  0
VERTEX
  8
0
 10
 66.63259 
 20
 26.8548943557819 
 30
 21.03 
  0
VERTEX
  8
0
 10
 66.63259 
 20
 24.453332708974 
 30
 18.93 
  0
VERTEX
  8
0
 10
 66.63259 
 20
 22.3338049922183 
 30
 14.38 
  0
VERTEX
  8
0
 10
 66.63259 
 20
 22.6072924395417 
 30
 10.19 
  0
VERTEX
  8
0
 10
 66.63259 
 20
 25.1197596762206 
 30
 4.872 
  0
VERTEX
  8
0
 10
 66.63259 
 20
 28.0086695241771 
 30
 2.18 
  0
VERTEX
  8
0
 10
 66.63259 
 20
 30 
 30
 .99 
  0
VERTEX
  8
0
 10
 66.63259 
 20
 30 
 30
 .99 
  0
VERTEX
  8
0
 10
 66.63259 
 20
 31.9913304758229 
 30
 2.18 
  0
VERTEX
  8
0
 10
 66.63259 
 20
 34.8802403237794 
 30
 4.872 
  0
VERTEX
  8
0
 10
 66.63259 
 20
 37.3927075604584 
 30
 10.19 
  0
VERTEX
  8
0
 10
 66.63259 
 20
 37.6661950077817 
 30
 14.38 
  0
VERTEX
  8
0
 10
 66.63259 
 20
 35.546667291026 
 30
 18.93 
  0
VERTEX
  8
0
 10
 66.63259 
 20
 33.1451056442181 
 30
 21.03 
  0
VERTEX
  8
0
 10
 66.63259 
 20
 30 
 30
 21.79 
  0
SEQEND
  0
POLYLINE
  8
0
 66
     1
 10
0.0
 20
0.0
 30
0.0
  0
VERTEX
  8
0
 10
 149.5008 
 20
 30 
 30
 23.59 
  0
VERTEX
  8
0
 10
 149.5008 
 20
 26.2140754034191 
 30
 22.83 
  0
VERTEX
  8
0
 10
 149.5008 
 20
 22.2483401649298 
 30
 19.96 
  0
VERTEX
  8
0
 10
 149.5008 
 20
 20.2228237581915 
 30
 14.4 
  0
VERTEX
  8
0
 10
 149.5008 
 20
 20.5646830673457 
 30
 8.98 
  0
VERTEX
  8
0
 10
 149.5008 
 20
 24.2567462385198 
 30
 3.5 
  0
VERTEX
  8
0
 10
 149.5008 
 20
 26.965998631257 
 30
 1.39 
  0
VERTEX
  8
0
 10
 149.5008 
 20
 29.9829070345423 
 30
 .76 
  0
VERTEX
  8
0
 10
 149.5008 
 20
 30.0170929654577 
 30
 .76 
  0
VERTEX
  8
0
 10
 149.5008 
 20
 33.034001368743 
 30
 1.39 
  0
VERTEX
  8
0
 10
 149.5008 
 20
 35.7432537614802 
 30
 3.5 
  0
VERTEX
  8
0
 10
 149.5008 
 20
 39.4353169326544 
 30
 8.98 
  0
VERTEX
  8
0
 10
 149.5008 
 20
 39.7771762418085 
 30
 14.4 
  0
VERTEX
  8
0
 10
 149.5008 
 20
 37.7516598350702 
 30
 19.96 
  0
VERTEX
  8
0
 10
 149.5008 
 20
 33.7859245965809 
 30
 22.83 
  0
VERTEX
  8
0
 10
 149.5008 
 20
 30 
 30
 23.59 
  0
SEQEND
  0
POLYLINE
  8
0
 66
     1
 10
0.0
 20
0.0
 30
0.0
  0
VERTEX
  8
0
 10
 238.6828 
 20
 30 
 30
 21.6 
  0
VERTEX
  8
0
 10
 238.6828 
 20
 26.827407175748 
 30
 21.084 
  0
VERTEX
  8
0
 10
 238.6828 
 20
 24.3764143644144 
 30
 18.98 
  0
VERTEX
  8
0
 10
 238.6828 
 20
 22.410723336778 
 30
 14.33 
  0
VERTEX
  8
0
 10
 238.6828 
 20
 22.6842107841013 
 30
 10.14 
  0
VERTEX
  8
0
 10
 238.6828 
 20
 25.0601329827226 
 30
 4.9 
  0
VERTEX
  8
0
 10
 238.6828 
 20
 27.957390627804 
 30
 3.22 
  0
VERTEX
  8
0
 10
 238.6828 
 20
 30 
 30
 2.4 
  0
VERTEX
  8
0
 10
 238.6828 
 20
 30 
 30
 2.4 
  0
VERTEX
  8
0
 10
 238.6828 
 20
 32.042609372196 
 30
 3.22 
  0
VERTEX
  8
0
 10
 238.6828 
 20
 34.9398670172774 
 30
 4.9 
  0
VERTEX
  8
0
 10
 238.6828 
 20
 37.3157892158987 
 30
 10.14 
  0
VERTEX
  8
0
 10
 238.6828 
 20
 37.589276663222 
 30
 14.33 
  0
VERTEX
  8
0
 10
 238.6828 
 20
 35.6235856355857 
 30
 18.98 
  0
VERTEX
  8
0
 10
 238.6828 
 20
 33.172592824252 
 30
 21.084 
  0
VERTEX
  8
0
 10
 238.6828 
 20
 30 
 30
 21.6 
  0
SEQEND
  0
POLYLINE
  8
0
 66
     1
 10
0.0
 20
0.0
 30
0.0
  0
VERTEX
  8
0
 10
 283.435013566706 
 20
 30 
 30
 18.2432432432432 
  0
VERTEX
  8
0
 10
 283.747773913708 
 20
 29.5341509115833 
 30
 17.7335907335908 
  0
VERTEX
  8
0
 10
 284 
 20
 29.3278463152845 
 30
 17.1312741312742 
  0
VERTEX
  8
0
 10
 282.88 
 20
 28.7379356017811 
 30
 14.412 
  0
VERTEX
  8
0
 10
 281.58871861505 
 20
 28.7379356017811 
 30
 11.496 
  0
VERTEX
  8
0
 10
 280.539458096075 
 20
 29.0150619273476 
 30
 9.45173745173746 
  0
VERTEX
  8
0
 10
 273.174456376352 
 20
 29.400345092559 
 30
 7.488 
  0
VERTEX
  8
0
 10
 268.95 
 20
 29.9721090740725 
 30
 6.108 
  0
VERTEX
  8
0
 10
 268.95 
 20
 30.0278909259275 
 30
 6.108 
  0
VERTEX
  8
0
 10
 273.174456376352 
 20
 30.599654907441 
 30
 7.488 
  0
VERTEX
  8
0
 10
 280.539458096075 
 20
 30.9849380726525 
 30
 9.45173745173746 
  0
VERTEX
  8
0
 10
 281.58871861505 
 20
 31.2620643982189 
 30
 11.496 
  0
VERTEX
  8
0
 10
 282.88 
 20
 31.2620643982189 
 30
 14.412 
  0
VERTEX
  8
0
 10
 284 
 20
 30.6721536847155 
 30
 17.1312741312742 
  0
VERTEX
  8
0
 10
 283.747773913708 
 20
 30.4658490884167 
 30
 17.7335907335908 
  0
VERTEX
  8
0
 10
 283.435013566706 
 20
 30 
 30
 18.2432432432432 
  0
SEQEND
  0
POLYLINE
  8
0
 66
     1
 10
0.0
 20
0.0
 30
0.0
  0
VERTEX
  8
0
 10
 47.0487254939428 
 20
 29.9933450130226 
 30
 2.61776061776063 
  0
VERTEX
  8
0
 10
 53.6766803292952 
 20
 29.9960770117093 
 30
 2.01338303746897 
  0
VERTEX
  8
0
 10
 60.3046351646476 
 20
 29.9984367011346 
 30
 1.45051311610481 
  0
VERTEX
  8
0
 10
 66.63259 
 20
 30 
 30
 .99 
  0
VERTEX
  8
0
 10
 94.3553266666667 
 20
 29.9972981001334 
 30
 9.76528082731518E-02 
  0
VERTEX
  8
0
 10
 122.078063333333 
 20
 29.9875431440601 
 30
 .353901525450234 
  0
VERTEX
  8
0
 10
 149.5008 
 20
 29.9829070345423 
 30
 .76 
  0
VERTEX
  8
0
 10
 179.328133333333 
 20
 29.9919229735996 
 30
 .652969015060638 
  0
VERTEX
  8
0
 10
 209.155466666667 
 20
 30.0033859512313 
 30
 .801576449321066 
  0
VERTEX
  8
0
 10
 238.6828 
 20
 30 
 30
 2.4 
  0
VERTEX
  8
0
 10
 248.871866666667 
 20
 29.9926702837857 
 30
 3.47694820244115 
  0
VERTEX
  8
0
 10
 259.060933333333 
 20
 29.9828398257813 
 30
 4.7619094629072 
  0
VERTEX
  8
0
 10
 268.95 
 20
 29.9721090740725 
 30
 6.108 
  0
VERTEX
  8
0
 10
 268.95 
 20
 30.0278909259275 
 30
 6.108 
  0
VERTEX
  8
0
 10
 259.060933333333 
 20
 30.0171601742187 
 30
 4.7619094629072 
  0
VERTEX
  8
0
 10
 248.871866666667 
 20
 30.0073297162143 
 30
 3.47694820244115 
  0
VERTEX
  8
0
 10
 238.6828 
 20
 30 
 30
 2.4 
  0
VERTEX
  8
0
 10
 209.155466666667 
 20
 29.9966140487688 
 30
 .801576449321066 
  0
VERTEX
  8
0
 10
 179.328133333333 
 20
 30.0080770264004 
 30
 .652969015060638 
  0
VERTEX
  8
0
 10
 149.5008 
 20
 30.0170929654577 
 30
 .76 
  0
VERTEX
  8
0
 10
 122.078063333333 
 20
 30.0124568559399 
 30
 .353901525450234 
  0
VERTEX
  8
0
 10
 94.3553266666667 
 20
 30.0027018998667 
 30
 9.76528082731518E-02 
  0
VERTEX
  8
0
 10
 66.63259 
 20
 30 
 30
 .99 
  0
VERTEX
  8
0
 10
 60.3046351646476 
 20
 30.0015632988654 
 30
 1.45051311610481 
  0
VERTEX
  8
0
 10
 53.6766803292952 
 20
 30.0039229882907 
 30
 2.01338303746897 
  0
VERTEX
  8
0
 10
 47.0487254939428 
 20
 30.0066549869774 
 30
 2.61776061776063 
  0
VERTEX
  8
0
 10
 47.0487254939428 
 20
 29.9933450130226 
 30
 2.61776061776063 
  0
SEQEND
  0
POLYLINE
  8
0
 66
     1
 10
0.0
 20
0.0
 30
0.0
  0
VERTEX
  8
0
 10
 35.63 
 20
 29.9930272685181 
 30
 5.4 
  0
VERTEX
  8
0
 10
 46.0641966666667 
 20
 29.2581494925466 
 30
 4.18210457513535 
  0
VERTEX
  8
0
 10
 56.4983933333333 
 20
 28.5746425863614 
 30
 3.06704800801046 
  0
VERTEX
  8
0
 10
 66.63259 
 20
 28.0086695241771 
 30
 2.18 
  0
VERTEX
  8
0
 10
 94.3553266666667 
 20
 27.1090044145742 
 30
 1.02509796218265 
  0
VERTEX
  8
0
 10
 122.078063333333 
 20
 26.8930294368349 
 30
 1.07847491609572 
  0
VERTEX
  8
0
 10
 149.5008 
 20
 26.965998631257 
 30
 1.39 
  0
VERTEX
  8
0
 10
 179.328133333333 
 20
 27.0494764087377 
 30
 1.32486642534563 
  0
VERTEX
  8
0
 10
 209.155466666667 
 20
 27.2918240881969 
 30
 1.57648921353809 
  0
VERTEX
  8
0
 10
 238.6828 
 20
 27.957390627804 
 30
 3.22 
  0
VERTEX
  8
0
 10
 250.280018792117 
 20
 28.3842561461039 
 30
 4.44724531912181 
  0
VERTEX
  8
0
 10
 261.877237584235 
 20
 28.8818165159345 
 30
 5.92645218765564 
  0
VERTEX
  8
0
 10
 273.174456376352 
 20
 29.400345092559 
 30
 7.488 
  0
VERTEX
  8
0
 10
 273.174456376352 
 20
 30.599654907441 
 30
 7.488 
  0
VERTEX
  8
0
 10
 261.877237584235 
 20
 31.1181834840655 
 30
 5.92645218765564 
  0
VERTEX
  8
0
 10
 250.280018792117 
 20
 31.6157438538961 
 30
 4.44724531912181 
  0
VERTEX
  8
0
 10
 238.6828 
 20
 32.042609372196 
 30
 3.22 
  0
VERTEX
  8
0
 10
 209.155466666667 
 20
 32.7081759118032 
 30
 1.57648921353809 
  0
VERTEX
  8
0
 10
 179.328133333333 
 20
 32.9505235912623 
 30
 1.32486642534563 
  0
VERTEX
  8
0
 10
 149.5008 
 20
 33.034001368743 
 30
 1.39 
  0
VERTEX
  8
0
 10
 122.078063333333 
 20
 33.1069705631652 
 30
 1.07847491609572 
  0
VERTEX
  8
0
 10
 94.3553266666667 
 20
 32.8909955854258 
 30
 1.02509796218265 
  0
VERTEX
  8
0
 10
 66.63259 
 20
 31.9913304758229 
 30
 2.18 
  0
VERTEX
  8
0
 10
 56.4983933333333 
 20
 31.4253574136387 
 30
 3.06704800801046 
  0
VERTEX
  8
0
 10
 46.0641966666667 
 20
 30.7418505074534 
 30
 4.18210457513535 
  0
VERTEX
  8
0
 10
 35.63 
 20
 30.0069727314819 
 30
 5.4 
  0
VERTEX
  8
0
 10
 35.63 
 20
 29.9930272685181 
 30
 5.4 
  0
SEQEND
  0
POLYLINE
  8
0
 66
     1
 10
0.0
 20
0.0
 30
0.0
  0
VERTEX
  8
0
 10
 30.0525011850269 
 20
 29.9962482150759 
 30
 7.86593493238553 
  0
VERTEX
  8
0
 10
 42.3458641233513 
 20
 28.1268238469639 
 30
 6.74004483878494 
  0
VERTEX
  8
0
 10
 54.6392270616757 
 20
 26.4335584226197 
 30
 5.70561732090873 
  0
VERTEX
  8
0
 10
 66.63259 
 20
 25.1197596762206 
 30
 4.872 
  0
VERTEX
  8
0
 10
 94.3553266666667 
 20
 23.7335396085881 
 30
 3.80670236486664 
  0
VERTEX
  8
0
 10
 122.078063333333 
 20
 23.8381721080797 
 30
 3.54304414077939 
  0
VERTEX
  8
0
 10
 149.5008 
 20
 24.2567462385198 
 30
 3.5 
  0
VERTEX
  8
0
 10
 179.328133333333 
 20
 24.1484157558963 
 30
 3.2954303784879 
  0
VERTEX
  8
0
 10
 209.155466666667 
 20
 24.0819903438507 
 30
 3.49680126417414 
  0
VERTEX
  8
0
 10
 238.6828 
 20
 25.0601329827226 
 30
 4.9 
  0
VERTEX
  8
0
 10
 252.735019365358 
 20
 26.1352030509843 
 30
 6.18013015556573 
  0
VERTEX
  8
0
 10
 266.787238730717 
 20
 27.5161108338525 
 30
 7.76041177228476 
  0
VERTEX
  8
0
 10
 280.539458096075 
 20
 29.0150619273476 
 30
 9.45173745173746 
  0
VERTEX
  8
0
 10
 280.539458096075 
 20
 30.9849380726525 
 30
 9.45173745173746 
  0
VERTEX
  8
0
 10
 266.787238730717 
 20
 32.4838891661475 
 30
 7.76041177228476 
  0
VERTEX
  8
0
 10
 252.735019365358 
 20
 33.8647969490158 
 30
 6.18013015556573 
  0
VERTEX
  8
0
 10
 238.6828 
 20
 34.9398670172774 
 30
 4.9 
  0
VERTEX
  8
0
 10
 209.155466666667 
 20
 35.9180096561493 
 30
 3.49680126417414 
  0
VERTEX
  8
0
 10
 179.328133333333 
 20
 35.8515842441037 
 30
 3.2954303784879 
  0
VERTEX
  8
0
 10
 149.5008 
 20
 35.7432537614802 
 30
 3.5 
  0
VERTEX
  8
0
 10
 122.078063333333 
 20
 36.1618278919204 
 30
 3.54304414077939 
  0
VERTEX
  8
0
 10
 94.3553266666667 
 20
 36.2664603914119 
 30
 3.80670236486664 
  0
VERTEX
  8
0
 10
 66.63259 
 20
 34.8802403237794 
 30
 4.872 
  0
VERTEX
  8
0
 10
 54.6392270616757 
 20
 33.5664415773803 
 30
 5.70561732090873 
  0
VERTEX
  8
0
 10
 42.3458641233513 
 20
 31.8731761530361 
 30
 6.74004483878494 
  0
VERTEX
  8
0
 10
 30.0525011850269 
 20
 30.0037517849241 
 30
 7.86593493238553 
  0
VERTEX
  8
0
 10
 30.0525011850269 
 20
 29.9962482150759 
 30
 7.86593493238553 
  0
SEQEND
  0
POLYLINE
  8
0
 66
     1
 10
0.0
 20
0.0
 30
0.0
  0
VERTEX
  8
0
 10
 25.2694562663448 
 20
 29.9962482150759 
 30
 11.3201879814522 
  0
VERTEX
  8
0
 10
 39.1571675108965 
 20
 27.1742576666799 
 30
 10.9247726877475 
  0
VERTEX
  8
0
 10
 53.0448787554483 
 20
 24.6123214339352 
 30
 10.5415189262599 
  0
VERTEX
  8
0
 10
 66.63259 
 20
 22.6072924395417 
 30
 10.19 
  0
VERTEX
  8
0
 10
 94.3553266666667 
 20
 20.5229495780521 
 30
 9.58376563331374 
  0
VERTEX
  8
0
 10
 122.078063333333 
 20
 20.2632752782897 
 30
 9.16563683831475 
  0
VERTEX
  8
0
 10
 149.5008 
 20
 20.5646830673457 
 30
 8.98 
  0
VERTEX
  8
0
 10
 179.328133333333 
 20
 20.543970285103 
 30
 9.07329443856487 
  0
VERTEX
  8
0
 10
 209.155466666667 
 20
 20.8778070871177 
 30
 9.46830111042917 
  0
VERTEX
  8
0
 10
 238.6828 
 20
 22.6842107841013 
 30
 10.14 
  0
VERTEX
  8
0
 10
 253.084772871683 
 20
 24.3785157616938 
 30
 10.5608269685383 
  0
VERTEX
  8
0
 10
 267.486745743367 
 20
 26.4814808880995 
 30
 11.0232002302838 
  0
VERTEX
  8
0
 10
 281.58871861505 
 20
 28.7379356017811 
 30
 11.496 
  0
VERTEX
  8
0
 10
 281.58871861505 
 20
 31.2620643982189 
 30
 11.496 
  0
VERTEX
  8
0
 10
 267.486745743367 
 20
 33.5185191119005 
 30
 11.0232002302838 
  0
VERTEX
  8
0
 10
 253.084772871683 
 20
 35.6214842383063 
 30
 10.5608269685383 
  0
VERTEX
  8
0
 10
 238.6828 
 20
 37.3157892158987 
 30
 10.14 
  0
VERTEX
  8
0
 10
 209.155466666667 
 20
 39.1221929128823 
 30
 9.46830111042917 
  0
VERTEX
  8
0
 10
 179.328133333333 
 20
 39.456029714897 
 30
 9.07329443856487 
  0
VERTEX
  8
0
 10
 149.5008 
 20
 39.4353169326544 
 30
 8.98 
  0
VERTEX
  8
0
 10
 122.078063333333 
 20
 39.7367247217104 
 30
 9.16563683831475 
  0
VERTEX
  8
0
 10
 94.3553266666667 
 20
 39.4770504219479 
 30
 9.58376563331374 
  0
VERTEX
  8
0
 10
 66.63259 
 20
 37.3927075604584 
 30
 10.19 
  0
VERTEX
  8
0
 10
 53.0448787554483 
 20
 35.3876785660648 
 30
 10.5415189262599 
  0
VERTEX
  8
0
 10
 39.1571675108965 
 20
 32.8257423333201 
 30
 10.9247726877475 
  0
VERTEX
  8
0
 10
 25.2694562663448 
 20
 30.0037517849241 
 30
 11.3201879814522 
  0
VERTEX
  8
0
 10
 25.2694562663448 
 20
 29.9962482150759 
 30
 11.3201879814522 
  0
SEQEND
  0
POLYLINE
  8
0
 66
     1
 10
0.0
 20
0.0
 30
0.0
  0
VERTEX
  8
0
 10
 22.16 
 20
 29.9930272685181 
 30
 14.4 
  0
VERTEX
  8
0
 10
 37.0841966666667 
 20
 27.058414133482 
 30
 14.3902670094663 
  0
VERTEX
  8
0
 10
 52.0083933333333 
 20
 24.4012067324684 
 30
 14.3828346010004 
  0
VERTEX
  8
0
 10
 66.63259 
 20
 22.3338049922183 
 30
 14.38 
  0
VERTEX
  8
0
 10
 94.3553266666667 
 20
 20.3182359414123 
 30
 14.3887812082634 
  0
VERTEX
  8
0
 10
 122.078063333333 
 20
 20 
 30
 14.4018475173763 
  0
VERTEX
  8
0
 10
 149.5008 
 20
 20.2228237581915 
 30
 14.4 
  0
VERTEX
  8
0
 10
 179.328133333333 
 20
 20.1850044387092 
 30
 14.3692379444833 
  0
VERTEX
  8
0
 10
 209.155466666667 
 20
 20.5563436816497 
 30
 14.3341946509755 
  0
VERTEX
  8
0
 10
 238.6828 
 20
 22.410723336778 
 30
 14.33 
  0
VERTEX
  8
0
 10
 253.5152 
 20
 24.1801895544518 
 30
 14.3485440082799 
  0
VERTEX
  8
0
 10
 268.3476 
 20
 26.3778243103624 
 30
 14.3779456880315 
  0
VERTEX
  8
0
 10
 282.88 
 20
 28.7379356017811 
 30
 14.412 
  0
VERTEX
  8
0
 10
 282.88 
 20
 31.2620643982189 
 30
 14.412 
  0
VERTEX
  8
0
 10
 268.3476 
 20
 33.6221756896376 
 30
 14.3779456880315 
  0
VERTEX
  8
0
 10
 253.5152 
 20
 35.8198104455482 
 30
 14.3485440082799 
  0
VERTEX
  8
0
 10
 238.6828 
 20
 37.589276663222 
 30
 14.33 
  0
VERTEX
  8
0
 10
 209.155466666667 
 20
 39.4436563183503 
 30
 14.3341946509755 
  0
VERTEX
  8
0
 10
 179.328133333333 
 20
 39.8149955612908 
 30
 14.3692379444833 
  0
VERTEX
  8
0
 10
 149.5008 
 20
 39.7771762418085 
 30
 14.4 
  0
VERTEX
  8
0
 10
 122.078063333333 
 20
 40 
 30
 14.4018475173763 
  0
VERTEX
  8
0
 10
 94.3553266666667 
 20
 39.6817640585877 
 30
 14.3887812082634 
  0
VERTEX
  8
0
 10
 66.63259 
 20
 37.6661950077817 
 30
 14.38 
  0
VERTEX
  8
0
 10
 52.0083933333333 
 20
 35.5987932675317 
 30
 14.3828346010004 
  0
VERTEX
  8
0
 10
 37.0841966666667 
 20
 32.9415858665181 
 30
 14.3902670094663 
  0
VERTEX
  8
0
 10
 22.16 
 20
 30.0069727314819 
 30
 14.4 
  0
VERTEX
  8
0
 10
 22.16 
 20
 29.9930272685181 
 30
 14.4 
  0
SEQEND
  0
POLYLINE
  8
0
 66
     1
 10
0.0
 20
0.0
 30
0.0
  0
VERTEX
  8
0
 10
 21.37 
 20
 29.9962482150759 
 30
 16.86 
  0
VERTEX
  8
0
 10
 36.55753 
 20
 27.9021264316265 
 30
 17.6319560173405 
  0
VERTEX
  8
0
 10
 51.74506 
 20
 25.9863154515002 
 30
 18.3450051873146 
  0
VERTEX
  8
0
 10
 66.63259 
 20
 24.453332708974 
 30
 18.93 
  0
VERTEX
  8
0
 10
 94.3553266666667 
 20
 22.8006921615394 
 30
 19.6171719012762 
  0
VERTEX
  8
0
 10
 122.078063333333 
 20
 22.278948274713 
 30
 19.9002519720278 
  0
VERTEX
  8
0
 10
 149.5008 
 20
 22.2483401649298 
 30
 19.96 
  0
VERTEX
  8
0
 10
 179.328133333333 
 20
 22.2765702224195 
 30
 19.914834623473 
  0
VERTEX
  8
0
 10
 209.155466666667 
 20
 22.7806432852139 
 30
 19.6433759140693 
  0
VERTEX
  8
0
 10
 238.6828 
 20
 24.3764143644144 
 30
 18.98 
  0
VERTEX
  8
0
 10
 253.888533333333 
 20
 25.7881108256662 
 30
 18.4416939528717 
  0
VERTEX
  8
0
 10
 269.094266666667 
 20
 27.5018392755179 
 30
 17.8041865128909 
  0
VERTEX
  8
0
 10
 284 
 20
 29.3278463152845 
 30
 17.1312741312742 
  0
VERTEX
  8
0
 10
 284 
 20
 30.6721536847155 
 30
 17.1312741312742 
  0
VERTEX
  8
0
 10
 269.094266666667 
 20
 32.4981607244821 
 30
 17.8041865128909 
  0
VERTEX
  8
0
 10
 253.888533333333 
 20
 34.2118891743338 
 30
 18.4416939528717 
  0
VERTEX
  8
0
 10
 238.6828 
 20
 35.6235856355857 
 30
 18.98 
  0
VERTEX
  8
0
 10
 209.155466666667 
 20
 37.2193567147862 
 30
 19.6433759140693 
  0
VERTEX
  8
0
 10
 179.328133333333 
 20
 37.7234297775806 
 30
 19.914834623473 
  0
VERTEX
  8
0
 10
 149.5008 
 20
 37.7516598350702 
 30
 19.96 
  0
VERTEX
  8
0
 10
 122.078063333333 
 20
 37.7210517252871 
 30
 19.9002519720278 
  0
VERTEX
  8
0
 10
 94.3553266666667 
 20
 37.1993078384606 
 30
 19.6171719012762 
  0
VERTEX
  8
0
 10
 66.63259 
 20
 35.546667291026 
 30
 18.93 
  0
VERTEX
  8
0
 10
 51.74506 
 20
 34.0136845484999 
 30
 18.3450051873146 
  0
VERTEX
  8
0
 10
 36.55753 
 20
 32.0978735683736 
 30
 17.6319560173405 
  0
VERTEX
  8
0
 10
 21.37 
 20
 30.0037517849241 
 30
 16.86 
  0
VERTEX
  8
0
 10
 21.37 
 20
 29.9962482150759 
 30
 16.86 
  0
SEQEND
  0
POLYLINE
  8
0
 66
     1
 10
0.0
 20
0.0
 30
0.0
  0
VERTEX
  8
0
 10
 22.42 
 20
 29.9945172272862 
 30
 18.132 
  0
VERTEX
  8
0
 10
 37.25753 
 20
 28.780302927923 
 30
 19.1991092314089 
  0
VERTEX
  8
0
 10
 52.09506 
 20
 27.6883657298026 
 30
 20.1942143509862 
  0
VERTEX
  8
0
 10
 66.63259 
 20
 26.8548943557819 
 30
 21.03 
  0
VERTEX
  8
0
 10
 94.3553266666667 
 20
 26.1063152617705 
 30
 22.1083283859688 
  0
VERTEX
  8
0
 10
 122.078063333333 
 20
 26.0770639292517 
 30
 22.6408928729523 
  0
VERTEX
  8
0
 10
 149.5008 
 20
 26.2140754034191 
 30
 22.83 
  0
VERTEX
  8
0
 10
 179.328133333333 
 20
 26.1295350629944 
 30
 22.7943372381906 
  0
VERTEX
  8
0
 10
 209.155466666667 
 20
 26.1547614813932 
 30
 22.3037039073031 
  0
VERTEX
  8
0
 10
 238.6828 
 20
 26.827407175748 
 30
 21.084 
  0
VERTEX
  8
0
 10
 253.804457971236 
 20
 27.5657433960579 
 30
 20.10581477424 
  0
VERTEX
  8
0
 10
 268.926115942472 
 20
 28.5096122554315 
 30
 18.9509646207481 
  0
VERTEX
  8
0
 10
 283.747773913708 
 20
 29.5341509115833 
 30
 17.7335907335908 
  0
VERTEX
  8
0
 10
 283.747773913708 
 20
 30.4658490884167 
 30
 17.7335907335908 
  0
VERTEX
  8
0
 10
 268.926115942472 
 20
 31.4903877445685 
 30
 18.9509646207481 
  0
VERTEX
  8
0
 10
 253.804457971236 
 20
 32.4342566039421 
 30
 20.10581477424 
  0
VERTEX
  8
0
 10
 238.6828 
 20
 33.172592824252 
 30
 21.084 
  0
VERTEX
  8
0
 10
 209.155466666667 
 20
 33.8452385186068 
 30
 22.3037039073031 
  0
VERTEX
  8
0
 10
 179.328133333333 
 20
 33.8704649370057 
 30
 22.7943372381906 
  0
VERTEX
  8
0
 10
 149.5008 
 20
 33.7859245965809 
 30
 22.83 
  0
VERTEX
  8
0
 10
 122.078063333333 
 20
 33.9229360707483 
 30
 22.6408928729523 
  0
VERTEX
  8
0
 10
 94.3553266666667 
 20
 33.8936847382295 
 30
 22.1083283859688 
  0
VERTEX
  8
0
 10
 66.63259 
 20
 33.1451056442181 
 30
 21.03 
  0
VERTEX
  8
0
 10
 52.09506 
 20
 32.3116342701975 
 30
 20.1942143509862 
  0
VERTEX
  8
0
 10
 37.25753 
 20
 31.219697072077 
 30
 19.1991092314089 
  0
VERTEX
  8
0
 10
 22.42 
 20
 30.0054827727138 
 30
 18.132 
  0
VERTEX
  8
0
 10
 22.42 
 20
 29.9945172272862 
 30
 18.132 
  0
SEQEND
  0
POLYLINE
  8
0
 66
     1
 10
0.0
 20
0.0
 30
0.0
  0
VERTEX
  8
0
 10
 31.9069444479905 
 20
 29.9945172272862 
 30
 20.2092576484799 
  0
VERTEX
  8
0
 10
 43.5821596319937 
 20
 29.9966267312905 
 30
 20.7690697494127 
  0
VERTEX
  8
0
 10
 55.2573748159969 
 20
 29.9985327371533 
 30
 21.3072064997742 
  0
VERTEX
  8
0
 10
 66.63259 
 20
 30 
 30
 21.79 
  0
VERTEX
  8
0
 10
 94.3553266666667 
 20
 30.0014863216038 
 30
 22.7223926641046 
  0
VERTEX
  8
0
 10
 122.078063333333 
 20
 30.0010025845838 
 30
 23.3149638037312 
  0
VERTEX
  8
0
 10
 149.5008 
 20
 30 
 30
 23.59 
  0
VERTEX
  8
0
 10
 179.328133333333 
 20
 29.9995782681914 
 30
 23.5264323923329 
  0
VERTEX
  8
0
 10
 209.155466666667 
 20
 29.9997335691423 
 30
 22.9238636258663 
  0
VERTEX
  8
0
 10
 238.6828 
 20
 30 
 30
 21.6 
  0
VERTEX
  8
0
 10
 253.700204522235 
 20
 30.0000482658346 
 30
 20.6040770536844 
  0
VERTEX
  8
0
 10
 268.717609044471 
 20
 30.0000381461247 
 30
 19.4502966303596 
  0
VERTEX
  8
0
 10
 283.435013566706 
 20
 30 
 30
 18.2432432432432 
  0
VERTEX
  8
0
 10
 283.435013566706 
 20
 30 
 30
 18.2432432432432 
  0
VERTEX
  8
0
 10
 268.717609044471 
 20
 29.9999618538753 
 30
 19.4502966303596 
  0
VERTEX
  8
0
 10
 253.700204522235 
 20
 29.9999517341654 
 30
 20.6040770536844 
  0
VERTEX
  8
0
 10
 238.6828 
 20
 30 
 30
 21.6 
  0
VERTEX
  8
0
 10
 209.155466666667 
 20
 30.0002664308577 
 30
 22.9238636258663 
  0
VERTEX
  8
0
 10
 179.328133333333 
 20
 30.0004217318086 
 30
 23.5264323923329 
  0
VERTEX
  8
0
 10
 149.5008 
 20
 30 
 30
 23.59 
  0
VERTEX
  8
0
 10
 122.078063333333 
 20
 29.9989974154163 
 30
 23.3149638037312 
  0
VERTEX
  8
0
 10
 94.3553266666667 
 20
 29.9985136783963 
 30
 22.7223926641046 
  0
VERTEX
  8
0
 10
 66.63259 
 20
 30 
 30
 21.79 
  0
VERTEX
  8
0
 10
 55.2573748159969 
 20
 30.0014672628468 
 30
 21.3072064997742 
  0
VERTEX
  8
0
 10
 43.5821596319937 
 20
 30.0033732687096 
 30
 20.7690697494127 
  0
VERTEX
  8
0
 10
 31.9069444479905 
 20
 30.0054827727138 
 30
 20.2092576484799 
  0
VERTEX
  8
0
 10
 31.9069444479905 
 20
 29.9945172272862 
 30
 20.2092576484799 
  0
SEQEND
  0
ENDSEC
  0
EOF
