  0
SECTION
  2
ENTITIES
  0
POLYLINE
  8
0
 66
     1
 10
0.0
 20
0.0
 30
0.0
  0
VERTEX
  8
0
 10
-1.00003090166442E-02 
 20
 20.21 
 30
 11.91 
  0
VERTEX
  8
0
 10
-1.00003090166442E-02 
 20
 18.89 
 30
 3.32 
  0
VERTEX
  8
0
 10
-1.00003090166442E-02 
 20
 16.86 
 30
 1.37 
  0
VERTEX
  8
0
 10
-1.00003090166442E-02 
 20
 14.46 
 30
 2.16 
  0
VERTEX
  8
0
 10
-1.00003090166442E-02 
 20
 11.43 
 30
 4.91 
  0
VERTEX
  8
0
 10
-1.00003090166442E-02 
 20
 8.26 
 30
 11.11 
  0
VERTEX
  8
0
 10
-1.00003090166442E-02 
 20
 6.68 
 30
 15.83 
  0
VERTEX
  8
0
 10
-1.00003090166442E-02 
 20
 4.03 
 30
 27.05 
  0
VERTEX
  8
0
 10
 1.00003090166442E-02 
 20
 4.03 
 30
 27.05 
  0
VERTEX
  8
0
 10
 1.00003090166442E-02 
 20
 6.68 
 30
 15.83 
  0
VERTEX
  8
0
 10
 1.00003090166442E-02 
 20
 8.26 
 30
 11.11 
  0
VERTEX
  8
0
 10
 1.00003090166442E-02 
 20
 11.43 
 30
 4.91 
  0
VERTEX
  8
0
 10
 1.00003090166442E-02 
 20
 14.46 
 30
 2.16 
  0
VERTEX
  8
0
 10
 1.00003090166442E-02 
 20
 16.86 
 30
 1.37 
  0
VERTEX
  8
0
 10
 1.00003090166442E-02 
 20
 18.89 
 30
 3.32 
  0
VERTEX
  8
0
 10
 1.00003090166442E-02 
 20
 20.21 
 30
 11.91 
  0
SEQEND
  0
POLYLINE
  8
0
 66
     1
 10
0.0
 20
0.0
 30
0.0
  0
VERTEX
  8
0
 10
 0 
 20
 21.79 
 30
 46.37 
  0
VERTEX
  8
0
 10
-3.14520283321731 
 20
 21.03 
 30
 46.36703 
  0
VERTEX
  8
0
 10
-5.54683869227727 
 20
 18.93 
 30
 46.36703 
  0
VERTEX
  8
0
 10
-7.67023701576612 
 20
 14.4 
 30
 46.37 
  0
VERTEX
  8
0
 10
-7.92024474118223 
 20
 10.19 
 30
 46.36703 
  0
VERTEX
  8
0
 10
-4.88039113132816 
 20
 4.872 
 30
 46.36703 
  0
VERTEX
  8
0
 10
-2.38007354596133 
 20
 2.64 
 30
 46.36703 
  0
VERTEX
  8
0
 10
 0 
 20
 1.8 
 30
 46.37 
  0
VERTEX
  8
0
 10
 0 
 20
 1.8 
 30
 46.37 
  0
VERTEX
  8
0
 10
 2.38007354596133 
 20
 2.64 
 30
 46.36703 
  0
VERTEX
  8
0
 10
 4.88039113132816 
 20
 4.872 
 30
 46.36703 
  0
VERTEX
  8
0
 10
 7.92024474118223 
 20
 10.19 
 30
 46.36703 
  0
VERTEX
  8
0
 10
 7.67023701576612 
 20
 14.4 
 30
 46.37 
  0
VERTEX
  8
0
 10
 5.54683869227727 
 20
 18.93 
 30
 46.36703 
  0
VERTEX
  8
0
 10
 3.14520283321731 
 20
 21.03 
 30
 46.36703 
  0
VERTEX
  8
0
 10
 0 
 20
 21.79 
 30
 46.37 
  0
SEQEND
  0
POLYLINE
  8
0
 66
     1
 10
0.0
 20
0.0
 30
0.0
  0
VERTEX
  8
0
 10
 0 
 20
 23.59 
 30
 129.57 
  0
VERTEX
  8
0
 10
-3.78604158795234 
 20
 22.83 
 30
 129.5668 
  0
VERTEX
  8
0
 10
-7.75189937426115 
 20
 19.96 
 30
 129.5668 
  0
VERTEX
  8
0
 10
-10.5203250855097 
 20
 14.4 
 30
 129.57 
  0
VERTEX
  8
0
 10
-10.2203158150104 
 20
 9.47 
 30
 129.5668 
  0
VERTEX
  8
0
 10
-5.74343123758063 
 20
 3.5 
 30
 129.5668 
  0
VERTEX
  8
0
 10
-3.03409512443518 
 20
 1.93 
 30
 129.5668 
  0
VERTEX
  8
0
 10
 0 
 20
 1.16 
 30
 129.57 
  0
VERTEX
  8
0
 10
 0 
 20
 1.16 
 30
 129.57 
  0
VERTEX
  8
0
 10
 3.03409512443518 
 20
 1.93 
 30
 129.5668 
  0
VERTEX
  8
0
 10
 5.74343123758063 
 20
 3.5 
 30
 129.5668 
  0
VERTEX
  8
0
 10
 10.2203158150104 
 20
 9.47 
 30
 129.5668 
  0
VERTEX
  8
0
 10
 10.5203250855097 
 20
 14.4 
 30
 129.57 
  0
VERTEX
  8
0
 10
 7.75189937426115 
 20
 19.96 
 30
 129.5668 
  0
VERTEX
  8
0
 10
 3.78604158795234 
 20
 22.83 
 30
 129.5668 
  0
VERTEX
  8
0
 10
 0 
 20
 23.59 
 30
 129.57 
  0
SEQEND
  0
POLYLINE
  8
0
 66
     1
 10
0.0
 20
0.0
 30
0.0
  0
VERTEX
  8
0
 10
-.08 
 20
 22.57 
 30
 218.6587 
  0
VERTEX
  8
0
 10
-3.17269086265079 
 20
 21.084 
 30
 218.6587 
  0
VERTEX
  8
0
 10
-5.62375941374183 
 20
 18.98 
 30
 218.6587 
  0
VERTEX
  8
0
 10
-7.59023454363297 
 20
 14.4 
 30
 218.6587 
  0
VERTEX
  8
0
 10
-7.96024597724881 
 20
 10.19 
 30
 218.6587 
  0
VERTEX
  8
0
 10
-4.94001966739024 
 20
 4.9 
 30
 218.6587 
  0
VERTEX
  8
0
 10
-2.10006489349529 
 20
 3.24 
 30
 218.6587 
  0
VERTEX
  8
0
 10
 0 
 20
 2.4 
 30
 218.6587 
  0
VERTEX
  8
0
 10
 0 
 20
 2.4 
 30
 218.6587 
  0
VERTEX
  8
0
 10
 2.10006489349529 
 20
 3.24 
 30
 218.6587 
  0
VERTEX
  8
0
 10
 4.94001966739024 
 20
 4.9 
 30
 218.6587 
  0
VERTEX
  8
0
 10
 7.96024597724881 
 20
 10.19 
 30
 218.6587 
  0
VERTEX
  8
0
 10
 7.59023454363297 
 20
 14.4 
 30
 218.6587 
  0
VERTEX
  8
0
 10
 5.62375941374183 
 20
 18.98 
 30
 218.6587 
  0
VERTEX
  8
0
 10
 3.17269086265079 
 20
 21.084 
 30
 218.6587 
  0
VERTEX
  8
0
 10
 .08 
 20
 22.57 
 30
 218.6587 
  0
SEQEND
  0
POLYLINE
  8
0
 66
     1
 10
0.0
 20
0.0
 30
0.0
  0
VERTEX
  8
0
 10
 0 
 20
 21.93 
 30
 262.74 
  0
VERTEX
  8
0
 10
-1.78 
 20
 20.09 
 30
 262.74 
  0
VERTEX
  8
0
 10
-2.1 
 20
 17.99 
 30
 262.48 
  0
VERTEX
  8
0
 10
-2.15 
 20
 14.83 
 30
 261.96 
  0
VERTEX
  8
0
 10
-1.92 
 20
 11.94 
 30
 261.7 
  0
VERTEX
  8
0
 10
-1.46 
 20
 10.47 
 30
 261.43 
  0
VERTEX
  8
0
 10
-.86 
 20
 9.08 
 30
 254.69 
  0
VERTEX
  8
0
 10
 0 
 20
 8.29 
 30
 248.95 
  0
VERTEX
  8
0
 10
 0 
 20
 8.29 
 30
 248.95 
  0
VERTEX
  8
0
 10
 .86 
 20
 9.08 
 30
 254.69 
  0
VERTEX
  8
0
 10
 1.46 
 20
 10.47 
 30
 261.43 
  0
VERTEX
  8
0
 10
 1.92 
 20
 11.94 
 30
 261.7 
  0
VERTEX
  8
0
 10
 2.15 
 20
 14.83 
 30
 261.96 
  0
VERTEX
  8
0
 10
 2.1 
 20
 17.99 
 30
 262.48 
  0
VERTEX
  8
0
 10
 1.78 
 20
 20.09 
 30
 262.74 
  0
VERTEX
  8
0
 10
 0 
 20
 21.93 
 30
 262.74 
  0
SEQEND
  0
POLYLINE
  8
0
 66
     1
 10
0.0
 20
0.0
 30
0.0
  0
VERTEX
  8
0
 10
-1.00003090166442E-02 
 20
 4.03 
 30
 27.05 
  0
VERTEX
  8
0
 10
-6.29833990938673E-03 
 20
 3.20171199985133 
 30
 33.59 
  0
VERTEX
  8
0
 10
-2.8423470921655E-03 
 20
 2.43042936752643 
 30
 40.13 
  0
VERTEX
  8
0
 10
 0 
 20
 1.8 
 30
 46.37 
  0
VERTEX
  8
0
 10
 5.71100421647172E-03 
 20
 .564565067841315 
 30
 74.2033333333333 
  0
VERTEX
  8
0
 10
 3.8402656958983E-03 
 20
 .85771543804317 
 30
 102.036666666667 
  0
VERTEX
  8
0
 10
 0 
 20
 1.16 
 30
 129.57 
  0
VERTEX
  8
0
 10
-1.56088846855708E-03 
 20
 .457021264413537 
 30
 159.366233333333 
  0
VERTEX
  8
0
 10
-9.42162964993671E-04 
 20
 .172715968099925 
 30
 189.162466666667 
  0
VERTEX
  8
0
 10
 0 
 20
 2.4 
 30
 218.6587 
  0
VERTEX
  8
0
 10
 9.62291025687546E-05 
 20
 4.08408912805175 
 30
 228.8558 
  0
VERTEX
  8
0
 10
 7.56081849764888E-05 
 20
 6.13087294465967 
 30
 239.0529 
  0
VERTEX
  8
0
 10
 0 
 20
 8.29 
 30
 248.95 
  0
VERTEX
  8
0
 10
 0 
 20
 8.29 
 30
 248.95 
  0
VERTEX
  8
0
 10
-7.56081849764888E-05 
 20
 6.13087294465967 
 30
 239.0529 
  0
VERTEX
  8
0
 10
-9.62291025687546E-05 
 20
 4.08408912805175 
 30
 228.8558 
  0
VERTEX
  8
0
 10
 0 
 20
 2.4 
 30
 218.6587 
  0
VERTEX
  8
0
 10
 9.42162964993671E-04 
 20
 .172715968099925 
 30
 189.162466666667 
  0
VERTEX
  8
0
 10
 1.56088846855708E-03 
 20
 .457021264413537 
 30
 159.366233333333 
  0
VERTEX
  8
0
 10
 0 
 20
 1.16 
 30
 129.57 
  0
VERTEX
  8
0
 10
-3.8402656958983E-03 
 20
 .85771543804317 
 30
 102.036666666667 
  0
VERTEX
  8
0
 10
-5.71100421647172E-03 
 20
 .564565067841315 
 30
 74.2033333333333 
  0
VERTEX
  8
0
 10
 0 
 20
 1.8 
 30
 46.37 
  0
VERTEX
  8
0
 10
 2.8423470921655E-03 
 20
 2.43042936752643 
 30
 40.13 
  0
VERTEX
  8
0
 10
 6.29833990938673E-03 
 20
 3.20171199985133 
 30
 33.59 
  0
VERTEX
  8
0
 10
 1.00003090166442E-02 
 20
 4.03 
 30
 27.05 
  0
VERTEX
  8
0
 10
-1.00003090166442E-02 
 20
 4.03 
 30
 27.05 
  0
SEQEND
  0
POLYLINE
  8
0
 66
     1
 10
0.0
 20
0.0
 30
0.0
  0
VERTEX
  8
0
 10
-1.00003090166442E-02 
 20
 6.68 
 30
 15.83 
  0
VERTEX
  8
0
 10
-.898785744517812 
 20
 5.14181936517613 
 30
 26.10901 
  0
VERTEX
  8
0
 10
-1.71780161848254 
 20
 3.74032932988091 
 30
 36.38802 
  0
VERTEX
  8
0
 10
-2.38007354596133 
 20
 2.64 
 30
 46.36703 
  0
VERTEX
  8
0
 10
-3.32377464774728 
 20
 1.30092756728805 
 30
 74.2002866666667 
  0
VERTEX
  8
0
 10
-3.34251870341145 
 20
 1.53306093917891 
 30
 102.033543333333 
  0
VERTEX
  8
0
 10
-3.03409512443518 
 20
 1.93 
 30
 129.5668 
  0
VERTEX
  8
0
 10
-2.83035774936605 
 20
 1.53439562816764 
 30
 159.3641 
  0
VERTEX
  8
0
 10
-2.61792668926286 
 20
 1.42020699284763 
 30
 189.1614 
  0
VERTEX
  8
0
 10
-2.10006489349529 
 20
 3.24 
 30
 218.6587 
  0
VERTEX
  8
0
 10
-1.73889799954751 
 20
 4.87373633167202 
 30
 230.769133333333 
  0
VERTEX
  8
0
 10
-1.31030737301297 
 20
 6.90639163437385 
 30
 242.879566666667 
  0
VERTEX
  8
0
 10
-.86 
 20
 9.08 
 30
 254.69 
  0
VERTEX
  8
0
 10
 .86 
 20
 9.08 
 30
 254.69 
  0
VERTEX
  8
0
 10
 1.31030737301297 
 20
 6.90639163437385 
 30
 242.879566666667 
  0
VERTEX
  8
0
 10
 1.73889799954751 
 20
 4.87373633167202 
 30
 230.769133333333 
  0
VERTEX
  8
0
 10
 2.10006489349529 
 20
 3.24 
 30
 218.6587 
  0
VERTEX
  8
0
 10
 2.61792668926286 
 20
 1.42020699284763 
 30
 189.1614 
  0
VERTEX
  8
0
 10
 2.83035774936605 
 20
 1.53439562816764 
 30
 159.3641 
  0
VERTEX
  8
0
 10
 3.03409512443518 
 20
 1.93 
 30
 129.5668 
  0
VERTEX
  8
0
 10
 3.34251870341145 
 20
 1.53306093917891 
 30
 102.033543333333 
  0
VERTEX
  8
0
 10
 3.32377464774728 
 20
 1.30092756728805 
 30
 74.2002866666667 
  0
VERTEX
  8
0
 10
 2.38007354596133 
 20
 2.64 
 30
 46.36703 
  0
VERTEX
  8
0
 10
 1.71780161848254 
 20
 3.74032932988091 
 30
 36.38802 
  0
VERTEX
  8
0
 10
 .898785744517812 
 20
 5.14181936517613 
 30
 26.10901 
  0
VERTEX
  8
0
 10
 1.00003090166442E-02 
 20
 6.68 
 30
 15.83 
  0
VERTEX
  8
0
 10
-1.00003090166442E-02 
 20
 6.68 
 30
 15.83 
  0
SEQEND
  0
POLYLINE
  8
0
 66
     1
 10
0.0
 20
0.0
 30
0.0
  0
VERTEX
  8
0
 10
-1.00003090166442E-02 
 20
 8.26 
 30
 11.11 
  0
VERTEX
  8
0
 10
-1.86994741933506 
 20
 6.98080314740122 
 30
 22.9623433333333 
  0
VERTEX
  8
0
 10
-3.55967461713019 
 20
 5.8088236445476 
 30
 34.8146866666667 
  0
VERTEX
  8
0
 10
-4.88039113132816 
 20
 4.872 
 30
 46.36703 
  0
VERTEX
  8
0
 10
-6.35107605441203 
 20
 3.69010629419971 
 30
 74.2002866666667 
  0
VERTEX
  8
0
 10
-6.23564224794377 
 20
 3.49095241693184 
 30
 102.033543333333 
  0
VERTEX
  8
0
 10
-5.74343123758063 
 20
 3.5 
 30
 129.5668 
  0
VERTEX
  8
0
 10
-5.74594248001329 
 20
 3.20355474828023 
 30
 159.3641 
  0
VERTEX
  8
0
 10
-5.77478243224905 
 20
 3.325426523365 
 30
 189.1614 
  0
VERTEX
  8
0
 10
-4.94001966739024 
 20
 4.9 
 30
 218.6587 
  0
VERTEX
  8
0
 10
-3.99826409687329 
 20
 6.44719083067115 
 30
 233.0158 
  0
VERTEX
  8
0
 10
-2.78255395605996 
 20
 8.38464185197901 
 30
 247.3729 
  0
VERTEX
  8
0
 10
-1.46 
 20
 10.47 
 30
 261.43 
  0
VERTEX
  8
0
 10
 1.46 
 20
 10.47 
 30
 261.43 
  0
VERTEX
  8
0
 10
 2.78255395605996 
 20
 8.38464185197901 
 30
 247.3729 
  0
VERTEX
  8
0
 10
 3.99826409687329 
 20
 6.44719083067115 
 30
 233.0158 
  0
VERTEX
  8
0
 10
 4.94001966739024 
 20
 4.9 
 30
 218.6587 
  0
VERTEX
  8
0
 10
 5.77478243224905 
 20
 3.325426523365 
 30
 189.1614 
  0
VERTEX
  8
0
 10
 5.74594248001329 
 20
 3.20355474828023 
 30
 159.3641 
  0
VERTEX
  8
0
 10
 5.74343123758063 
 20
 3.5 
 30
 129.5668 
  0
VERTEX
  8
0
 10
 6.23564224794377 
 20
 3.49095241693184 
 30
 102.033543333333 
  0
VERTEX
  8
0
 10
 6.35107605441203 
 20
 3.69010629419971 
 30
 74.2002866666667 
  0
VERTEX
  8
0
 10
 4.88039113132816 
 20
 4.872 
 30
 46.36703 
  0
VERTEX
  8
0
 10
 3.55967461713019 
 20
 5.8088236445476 
 30
 34.8146866666667 
  0
VERTEX
  8
0
 10
 1.86994741933506 
 20
 6.98080314740122 
 30
 22.9623433333333 
  0
VERTEX
  8
0
 10
 1.00003090166442E-02 
 20
 8.26 
 30
 11.11 
  0
VERTEX
  8
0
 10
-1.00003090166442E-02 
 20
 8.26 
 30
 11.11 
  0
SEQEND
  0
POLYLINE
  8
0
 66
     1
 10
0.0
 20
0.0
 30
0.0
  0
VERTEX
  8
0
 10
-1.00003090166442E-02 
 20
 11.43 
 30
 4.91 
  0
VERTEX
  8
0
 10
-3.02484581435887 
 20
 10.969223829364 
 30
 18.82901 
  0
VERTEX
  8
0
 10
-5.76602076109079 
 20
 10.5423322753836 
 30
 32.74802 
  0
VERTEX
  8
0
 10
-7.92024474118223 
 20
 10.19 
 30
 46.36703 
  0
VERTEX
  8
0
 10
-10.2011387138133 
 20
 9.73592190728267 
 30
 74.2002866666667 
  0
VERTEX
  8
0
 10
-10.5310022589373 
 20
 9.54312541982163 
 30
 102.033543333333 
  0
VERTEX
  8
0
 10
-10.2203158150104 
 20
 9.47 
 30
 129.5668 
  0
VERTEX
  8
0
 10
-10.1891080890528 
 20
 9.43020359649922 
 30
 159.3641 
  0
VERTEX
  8
0
 10
-9.79551177735608 
 20
 9.59627900324737 
 30
 189.1614 
  0
VERTEX
  8
0
 10
-7.96024597724881 
 20
 10.19 
 30
 218.6587 
  0
VERTEX
  8
0
 10
-6.26439926316629 
 20
 10.6915591375833 
 30
 233.1058 
  0
VERTEX
  8
0
 10
-4.16729699428104 
 20
 11.2969891131996 
 30
 247.5529 
  0
VERTEX
  8
0
 10
-1.92 
 20
 11.94 
 30
 261.7 
  0
VERTEX
  8
0
 10
 1.92 
 20
 11.94 
 30
 261.7 
  0
VERTEX
  8
0
 10
 4.16729699428104 
 20
 11.2969891131996 
 30
 247.5529 
  0
VERTEX
  8
0
 10
 6.26439926316629 
 20
 10.6915591375833 
 30
 233.1058 
  0
VERTEX
  8
0
 10
 7.96024597724881 
 20
 10.19 
 30
 218.6587 
  0
VERTEX
  8
0
 10
 9.79551177735608 
 20
 9.59627900324737 
 30
 189.1614 
  0
VERTEX
  8
0
 10
 10.1891080890528 
 20
 9.43020359649922 
 30
 159.3641 
  0
VERTEX
  8
0
 10
 10.2203158150104 
 20
 9.47 
 30
 129.5668 
  0
VERTEX
  8
0
 10
 10.5310022589373 
 20
 9.54312541982163 
 30
 102.033543333333 
  0
VERTEX
  8
0
 10
 10.2011387138133 
 20
 9.73592190728267 
 30
 74.2002866666667 
  0
VERTEX
  8
0
 10
 7.92024474118223 
 20
 10.19 
 30
 46.36703 
  0
VERTEX
  8
0
 10
 5.76602076109079 
 20
 10.5423322753836 
 30
 32.74802 
  0
VERTEX
  8
0
 10
 3.02484581435887 
 20
 10.969223829364 
 30
 18.82901 
  0
VERTEX
  8
0
 10
 1.00003090166442E-02 
 20
 11.43 
 30
 4.91 
  0
VERTEX
  8
0
 10
-1.00003090166442E-02 
 20
 11.43 
 30
 4.91 
  0
SEQEND
  0
POLYLINE
  8
0
 66
     1
 10
0.0
 20
0.0
 30
0.0
  0
VERTEX
  8
0
 10
-1.00003090166442E-02 
 20
 14.46 
 30
 2.16 
  0
VERTEX
  8
0
 10
-2.90451913238951 
 20
 14.4342622033248 
 30
 16.9966666666667 
  0
VERTEX
  8
0
 10
-5.55247668089007 
 20
 14.4127904442264 
 30
 31.8333333333333 
  0
VERTEX
  8
0
 10
-7.67023701576612 
 20
 14.4 
 30
 46.37 
  0
VERTEX
  8
0
 10
-9.98377558706325 
 20
 14.4023742841911 
 30
 74.2033333333333 
  0
VERTEX
  8
0
 10
-10.6277847126244 
 20
 14.4140469571214 
 30
 102.036666666667 
  0
VERTEX
  8
0
 10
-10.5203250855097 
 20
 14.4 
 30
 129.57 
  0
VERTEX
  8
0
 10
-10.2954955828788 
 20
 14.3398774466998 
 30
 159.366233333333 
  0
VERTEX
  8
0
 10
-9.54344408680808 
 20
 14.3077888574167 
 30
 189.162466666667 
  0
VERTEX
  8
0
 10
-7.59023454363297 
 20
 14.4 
 30
 218.6587 
  0
VERTEX
  8
0
 10
-6.01570520263829 
 20
 14.515145663399 
 30
 233.192466666667 
  0
VERTEX
  8
0
 10
-4.13692878663673 
 20
 14.665599709265 
 30
 247.726233333333 
  0
VERTEX
  8
0
 10
-2.15 
 20
 14.83 
 30
 261.96 
  0
VERTEX
  8
0
 10
 2.15 
 20
 14.83 
 30
 261.96 
  0
VERTEX
  8
0
 10
 4.13692878663673 
 20
 14.665599709265 
 30
 247.726233333333 
  0
VERTEX
  8
0
 10
 6.01570520263829 
 20
 14.515145663399 
 30
 233.192466666667 
  0
VERTEX
  8
0
 10
 7.59023454363297 
 20
 14.4 
 30
 218.6587 
  0
VERTEX
  8
0
 10
 9.54344408680808 
 20
 14.3077888574167 
 30
 189.162466666667 
  0
VERTEX
  8
0
 10
 10.2954955828788 
 20
 14.3398774466998 
 30
 159.366233333333 
  0
VERTEX
  8
0
 10
 10.5203250855097 
 20
 14.4 
 30
 129.57 
  0
VERTEX
  8
0
 10
 10.6277847126244 
 20
 14.4140469571214 
 30
 102.036666666667 
  0
VERTEX
  8
0
 10
 9.98377558706325 
 20
 14.4023742841911 
 30
 74.2033333333333 
  0
VERTEX
  8
0
 10
 7.67023701576612 
 20
 14.4 
 30
 46.37 
  0
VERTEX
  8
0
 10
 5.55247668089007 
 20
 14.4127904442264 
 30
 31.8333333333333 
  0
VERTEX
  8
0
 10
 2.90451913238951 
 20
 14.4342622033248 
 30
 16.9966666666667 
  0
VERTEX
  8
0
 10
 1.00003090166442E-02 
 20
 14.46 
 30
 2.16 
  0
VERTEX
  8
0
 10
-1.00003090166442E-02 
 20
 14.46 
 30
 2.16 
  0
SEQEND
  0
POLYLINE
  8
0
 66
     1
 10
0.0
 20
0.0
 30
0.0
  0
VERTEX
  8
0
 10
-1.00003090166442E-02 
 20
 16.86 
 30
 1.37 
  0
VERTEX
  8
0
 10
-2.09486640108307 
 20
 17.6278285530505 
 30
 16.46901 
  0
VERTEX
  8
0
 10
-4.00695505182554 
 20
 18.3399079157274 
 30
 31.56802 
  0
VERTEX
  8
0
 10
-5.54683869227727 
 20
 18.93 
 30
 46.36703 
  0
VERTEX
  8
0
 10
-7.251440745957 
 20
 19.6476518983201 
 30
 74.2002866666667 
  0
VERTEX
  8
0
 10
-7.79107539449156 
 20
 19.9432227786811 
 30
 102.033543333333 
  0
VERTEX
  8
0
 10
-7.75189937426115 
 20
 19.96 
 30
 129.5668 
  0
VERTEX
  8
0
 10
-7.54235119277259 
 20
 19.7992650532839 
 30
 159.3641 
  0
VERTEX
  8
0
 10
-6.95274047973917 
 20
 19.4728723303168 
 30
 189.1614 
  0
VERTEX
  8
0
 10
-5.62375941374183 
 20
 18.98 
 30
 218.6587 
  0
VERTEX
  8
0
 10
-4.59257514040204 
 20
 18.6716921593333 
 30
 233.3658 
  0
VERTEX
  8
0
 10
-3.37816377746608 
 20
 18.3344062758152 
 30
 248.0729 
  0
VERTEX
  8
0
 10
-2.1 
 20
 17.99 
 30
 262.48 
  0
VERTEX
  8
0
 10
 2.1 
 20
 17.99 
 30
 262.48 
  0
VERTEX
  8
0
 10
 3.37816377746608 
 20
 18.3344062758152 
 30
 248.0729 
  0
VERTEX
  8
0
 10
 4.59257514040204 
 20
 18.6716921593333 
 30
 233.3658 
  0
VERTEX
  8
0
 10
 5.62375941374183 
 20
 18.98 
 30
 218.6587 
  0
VERTEX
  8
0
 10
 6.95274047973917 
 20
 19.4728723303168 
 30
 189.1614 
  0
VERTEX
  8
0
 10
 7.54235119277259 
 20
 19.7992650532839 
 30
 159.3641 
  0
VERTEX
  8
0
 10
 7.75189937426115 
 20
 19.96 
 30
 129.5668 
  0
VERTEX
  8
0
 10
 7.79107539449156 
 20
 19.9432227786811 
 30
 102.033543333333 
  0
VERTEX
  8
0
 10
 7.251440745957 
 20
 19.6476518983201 
 30
 74.2002866666667 
  0
VERTEX
  8
0
 10
 5.54683869227727 
 20
 18.93 
 30
 46.36703 
  0
VERTEX
  8
0
 10
 4.00695505182554 
 20
 18.3399079157274 
 30
 31.56802 
  0
VERTEX
  8
0
 10
 2.09486640108307 
 20
 17.6278285530505 
 30
 16.46901 
  0
VERTEX
  8
0
 10
 1.00003090166442E-02 
 20
 16.86 
 30
 1.37 
  0
VERTEX
  8
0
 10
-1.00003090166442E-02 
 20
 16.86 
 30
 1.37 
  0
SEQEND
  0
POLYLINE
  8
0
 66
     1
 10
0.0
 20
0.0
 30
0.0
  0
VERTEX
  8
0
 10
-1.00003090166442E-02 
 20
 18.89 
 30
 3.32 
  0
VERTEX
  8
0
 10
-1.21429491541232 
 20
 19.6500654994047 
 30
 17.76901 
  0
VERTEX
  8
0
 10
-2.30283531308176 
 20
 20.3783166558433 
 30
 32.21802 
  0
VERTEX
  8
0
 10
-3.14520283321731 
 20
 21.03 
 30
 46.36703 
  0
VERTEX
  8
0
 10
-3.95782047661234 
 20
 22.0481656131117 
 30
 74.2002866666667 
  0
VERTEX
  8
0
 10
-4.00079103489054 
 20
 22.6645776670001 
 30
 102.033543333333 
  0
VERTEX
  8
0
 10
-3.78604158795234 
 20
 22.83 
 30
 129.5668 
  0
VERTEX
  8
0
 10
-3.6861512348092 
 20
 22.5044859284753 
 30
 159.3641 
  0
VERTEX
  8
0
 10
-3.5763577331616 
 20
 21.8411140040915 
 30
 189.1614 
  0
VERTEX
  8
0
 10
-3.17269086265079 
 20
 21.084 
 30
 218.6587 
  0
VERTEX
  8
0
 10
-2.78490997741148 
 20
 20.7323872493831 
 30
 233.452466666667 
  0
VERTEX
  8
0
 10
-2.30081733157343 
 20
 20.4025807723191 
 30
 248.246233333333 
  0
VERTEX
  8
0
 10
-1.78 
 20
 20.09 
 30
 262.74 
  0
VERTEX
  8
0
 10
 1.78 
 20
 20.09 
 30
 262.74 
  0
VERTEX
  8
0
 10
 2.30081733157343 
 20
 20.4025807723191 
 30
 248.246233333333 
  0
VERTEX
  8
0
 10
 2.78490997741148 
 20
 20.7323872493831 
 30
 233.452466666667 
  0
VERTEX
  8
0
 10
 3.17269086265079 
 20
 21.084 
 30
 218.6587 
  0
VERTEX
  8
0
 10
 3.5763577331616 
 20
 21.8411140040915 
 30
 189.1614 
  0
VERTEX
  8
0
 10
 3.6861512348092 
 20
 22.5044859284753 
 30
 159.3641 
  0
VERTEX
  8
0
 10
 3.78604158795234 
 20
 22.83 
 30
 129.5668 
  0
VERTEX
  8
0
 10
 4.00079103489054 
 20
 22.6645776670001 
 30
 102.033543333333 
  0
VERTEX
  8
0
 10
 3.95782047661234 
 20
 22.0481656131117 
 30
 74.2002866666667 
  0
VERTEX
  8
0
 10
 3.14520283321731 
 20
 21.03 
 30
 46.36703 
  0
VERTEX
  8
0
 10
 2.30283531308176 
 20
 20.3783166558433 
 30
 32.21802 
  0
VERTEX
  8
0
 10
 1.21429491541232 
 20
 19.6500654994047 
 30
 17.76901 
  0
VERTEX
  8
0
 10
 1.00003090166442E-02 
 20
 18.89 
 30
 3.32 
  0
VERTEX
  8
0
 10
-1.00003090166442E-02 
 20
 18.89 
 30
 3.32 
  0
SEQEND
  0
POLYLINE
  8
0
 66
     1
 10
0.0
 20
0.0
 30
0.0
  0
VERTEX
  8
0
 10
-1.00003090166442E-02 
 20
 20.21 
 30
 11.91 
  0
VERTEX
  8
0
 10
-6.94826452257011E-03 
 20
 20.7673850041518 
 30
 23.4966666666667 
  0
VERTEX
  8
0
 10
-3.65882097969993E-03 
 20
 21.3047835858218 
 30
 35.0833333333333 
  0
VERTEX
  8
0
 10
 0 
 20
 21.79 
 30
 46.37 
  0
VERTEX
  8
0
 10
 1.00221826438486E-02 
 20
 22.7508897203589 
 30
 74.2033333333333 
  0
VERTEX
  8
0
 10
 1.34768906066238E-02 
 20
 23.3554889643246 
 30
 102.036666666667 
  0
VERTEX
  8
0
 10
 0 
 20
 23.59 
 30
 129.57 
  0
VERTEX
  8
0
 10
-3.79168551221812E-02 
 20
 23.4533685970818 
 30
 159.366233333333 
  0
VERTEX
  8
0
 10
-7.52862555810929E-02 
 20
 23.0533684779073 
 30
 189.162466666667 
  0
VERTEX
  8
0
 10
-.08 
 20
 22.57 
 30
 218.6587 
  0
VERTEX
  8
0
 10
-.061936384272869 
 20
 22.343664703261 
 30
 233.452466666667 
  0
VERTEX
  8
0
 10
-3.32451215788892E-02 
 20
 22.131302873357 
 30
 248.246233333333 
  0
VERTEX
  8
0
 10
 0 
 20
 21.93 
 30
 262.74 
  0
VERTEX
  8
0
 10
 0 
 20
 21.93 
 30
 262.74 
  0
VERTEX
  8
0
 10
 3.32451215788892E-02 
 20
 22.131302873357 
 30
 248.246233333333 
  0
VERTEX
  8
0
 10
 .061936384272869 
 20
 22.343664703261 
 30
 233.452466666667 
  0
VERTEX
  8
0
 10
 .08 
 20
 22.57 
 30
 218.6587 
  0
VERTEX
  8
0
 10
 7.52862555810929E-02 
 20
 23.0533684779073 
 30
 189.162466666667 
  0
VERTEX
  8
0
 10
 3.79168551221812E-02 
 20
 23.4533685970818 
 30
 159.366233333333 
  0
VERTEX
  8
0
 10
 0 
 20
 23.59 
 30
 129.57 
  0
VERTEX
  8
0
 10
-1.34768906066238E-02 
 20
 23.3554889643246 
 30
 102.036666666667 
  0
VERTEX
  8
0
 10
-1.00221826438486E-02 
 20
 22.7508897203589 
 30
 74.2033333333333 
  0
VERTEX
  8
0
 10
 0 
 20
 21.79 
 30
 46.37 
  0
VERTEX
  8
0
 10
 3.65882097969993E-03 
 20
 21.3047835858218 
 30
 35.0833333333333 
  0
VERTEX
  8
0
 10
 6.94826452257011E-03 
 20
 20.7673850041518 
 30
 23.4966666666667 
  0
VERTEX
  8
0
 10
 1.00003090166442E-02 
 20
 20.21 
 30
 11.91 
  0
VERTEX
  8
0
 10
-1.00003090166442E-02 
 20
 20.21 
 30
 11.91 
  0
SEQEND
  0
POLYLINE
  8
0
 66
     1
 10
0.0
 20
0.0
 30
0.0
  0
VERTEX
  8
0
 10
 33.1655694252489 
 20
 20.21 
 30
-1.00003090166442E-02 
  0
VERTEX
  8
0
 10
 24.5755694252489 
 20
 18.89 
 30
-1.00003090166442E-02 
  0
VERTEX
  8
0
 10
 22.6255694252489 
 20
 16.86 
 30
-1.00003090166442E-02 
  0
VERTEX
  8
0
 10
 23.4155694252489 
 20
 14.46 
 30
-1.00003090166442E-02 
  0
VERTEX
  8
0
 10
 26.1655694252489 
 20
 11.43 
 30
-1.00003090166442E-02 
  0
VERTEX
  8
0
 10
 32.3655694252489 
 20
 8.26 
 30
-1.00003090166442E-02 
  0
VERTEX
  8
0
 10
 37.0855694252489 
 20
 6.68 
 30
-1.00003090166442E-02 
  0
VERTEX
  8
0
 10
 48.3055694252489 
 20
 4.03 
 30
-1.00003090166442E-02 
  0
VERTEX
  8
0
 10
 48.3055694252489 
 20
 4.03 
 30
 1.00003090166442E-02 
  0
VERTEX
  8
0
 10
 37.0855694252489 
 20
 6.68 
 30
 1.00003090166442E-02 
  0
VERTEX
  8
0
 10
 32.3655694252489 
 20
 8.26 
 30
 1.00003090166442E-02 
  0
VERTEX
  8
0
 10
 26.1655694252489 
 20
 11.43 
 30
 1.00003090166442E-02 
  0
VERTEX
  8
0
 10
 23.4155694252489 
 20
 14.46 
 30
 1.00003090166442E-02 
  0
VERTEX
  8
0
 10
 22.6255694252489 
 20
 16.86 
 30
 1.00003090166442E-02 
  0
VERTEX
  8
0
 10
 24.5755694252489 
 20
 18.89 
 30
 1.00003090166442E-02 
  0
VERTEX
  8
0
 10
 33.1655694252489 
 20
 20.21 
 30
 1.00003090166442E-02 
  0
SEQEND
  0
POLYLINE
  8
0
 66
     1
 10
0.0
 20
0.0
 30
0.0
  0
VERTEX
  8
0
 10
 67.6255694252489 
 20
 21.79 
 30
 0 
  0
VERTEX
  8
0
 10
 67.6225994252489 
 20
 21.03 
 30
-3.14520283321731 
  0
VERTEX
  8
0
 10
 67.6225994252489 
 20
 18.93 
 30
-5.54683869227727 
  0
VERTEX
  8
0
 10
 67.6255694252489 
 20
 14.4 
 30
-7.67023701576612 
  0
VERTEX
  8
0
 10
 67.6225994252489 
 20
 10.19 
 30
-7.92024474118223 
  0
VERTEX
  8
0
 10
 67.6225994252489 
 20
 4.872 
 30
-4.88039113132816 
  0
VERTEX
  8
0
 10
 67.6225994252489 
 20
 2.64 
 30
-2.38007354596133 
  0
VERTEX
  8
0
 10
 67.6255694252489 
 20
 1.8 
 30
 0 
  0
VERTEX
  8
0
 10
 67.6255694252489 
 20
 1.8 
 30
 0 
  0
VERTEX
  8
0
 10
 67.6225994252489 
 20
 2.64 
 30
 2.38007354596133 
  0
VERTEX
  8
0
 10
 67.6225994252489 
 20
 4.872 
 30
 4.88039113132816 
  0
VERTEX
  8
0
 10
 67.6225994252489 
 20
 10.19 
 30
 7.92024474118223 
  0
VERTEX
  8
0
 10
 67.6255694252489 
 20
 14.4 
 30
 7.67023701576612 
  0
VERTEX
  8
0
 10
 67.6225994252489 
 20
 18.93 
 30
 5.54683869227727 
  0
VERTEX
  8
0
 10
 67.6225994252489 
 20
 21.03 
 30
 3.14520283321731 
  0
VERTEX
  8
0
 10
 67.6255694252489 
 20
 21.79 
 30
 0 
  0
SEQEND
  0
POLYLINE
  8
0
 66
     1
 10
0.0
 20
0.0
 30
0.0
  0
VERTEX
  8
0
 10
 150.825569425249 
 20
 23.59 
 30
 0 
  0
VERTEX
  8
0
 10
 150.822369425249 
 20
 22.83 
 30
-3.78604158795234 
  0
VERTEX
  8
0
 10
 150.822369425249 
 20
 19.96 
 30
-7.75189937426115 
  0
VERTEX
  8
0
 10
 150.825569425249 
 20
 14.4 
 30
-10.5203250855097 
  0
VERTEX
  8
0
 10
 150.822369425249 
 20
 9.47 
 30
-10.2203158150104 
  0
VERTEX
  8
0
 10
 150.822369425249 
 20
 3.5 
 30
-5.74343123758063 
  0
VERTEX
  8
0
 10
 150.822369425249 
 20
 1.93 
 30
-3.03409512443518 
  0
VERTEX
  8
0
 10
 150.825569425249 
 20
 1.16 
 30
 0 
  0
VERTEX
  8
0
 10
 150.825569425249 
 20
 1.16 
 30
 0 
  0
VERTEX
  8
0
 10
 150.822369425249 
 20
 1.93 
 30
 3.03409512443518 
  0
VERTEX
  8
0
 10
 150.822369425249 
 20
 3.5 
 30
 5.74343123758063 
  0
VERTEX
  8
0
 10
 150.822369425249 
 20
 9.47 
 30
 10.2203158150104 
  0
VERTEX
  8
0
 10
 150.825569425249 
 20
 14.4 
 30
 10.5203250855097 
  0
VERTEX
  8
0
 10
 150.822369425249 
 20
 19.96 
 30
 7.75189937426115 
  0
VERTEX
  8
0
 10
 150.822369425249 
 20
 22.83 
 30
 3.78604158795234 
  0
VERTEX
  8
0
 10
 150.825569425249 
 20
 23.59 
 30
 0 
  0
SEQEND
  0
POLYLINE
  8
0
 66
     1
 10
0.0
 20
0.0
 30
0.0
  0
VERTEX
  8
0
 10
 239.914269425249 
 20
 22.57 
 30
-.08 
  0
VERTEX
  8
0
 10
 239.914269425249 
 20
 21.084 
 30
-3.17269086265079 
  0
VERTEX
  8
0
 10
 239.914269425249 
 20
 18.98 
 30
-5.62375941374183 
  0
VERTEX
  8
0
 10
 239.914269425249 
 20
 14.4 
 30
-7.59023454363297 
  0
VERTEX
  8
0
 10
 239.914269425249 
 20
 10.19 
 30
-7.96024597724881 
  0
VERTEX
  8
0
 10
 239.914269425249 
 20
 4.9 
 30
-4.94001966739024 
  0
VERTEX
  8
0
 10
 239.914269425249 
 20
 3.24 
 30
-2.10006489349529 
  0
VERTEX
  8
0
 10
 239.914269425249 
 20
 2.4 
 30
 0 
  0
VERTEX
  8
0
 10
 239.914269425249 
 20
 2.4 
 30
 0 
  0
VERTEX
  8
0
 10
 239.914269425249 
 20
 3.24 
 30
 2.10006489349529 
  0
VERTEX
  8
0
 10
 239.914269425249 
 20
 4.9 
 30
 4.94001966739024 
  0
VERTEX
  8
0
 10
 239.914269425249 
 20
 10.19 
 30
 7.96024597724881 
  0
VERTEX
  8
0
 10
 239.914269425249 
 20
 14.4 
 30
 7.59023454363297 
  0
VERTEX
  8
0
 10
 239.914269425249 
 20
 18.98 
 30
 5.62375941374183 
  0
VERTEX
  8
0
 10
 239.914269425249 
 20
 21.084 
 30
 3.17269086265079 
  0
VERTEX
  8
0
 10
 239.914269425249 
 20
 22.57 
 30
 .08 
  0
SEQEND
  0
POLYLINE
  8
0
 66
     1
 10
0.0
 20
0.0
 30
0.0
  0
VERTEX
  8
0
 10
 283.995569425249 
 20
 21.93 
 30
 0 
  0
VERTEX
  8
0
 10
 283.995569425249 
 20
 20.09 
 30
-1.78 
  0
VERTEX
  8
0
 10
 283.735569425249 
 20
 17.99 
 30
-2.1 
  0
VERTEX
  8
0
 10
 283.215569425249 
 20
 14.83 
 30
-2.15 
  0
VERTEX
  8
0
 10
 282.955569425249 
 20
 11.94 
 30
-1.92 
  0
VERTEX
  8
0
 10
 282.685569425249 
 20
 10.47 
 30
-1.46 
  0
VERTEX
  8
0
 10
 275.945569425249 
 20
 9.08 
 30
-.86 
  0
VERTEX
  8
0
 10
 270.205569425249 
 20
 8.29 
 30
 0 
  0
VERTEX
  8
0
 10
 270.205569425249 
 20
 8.29 
 30
 0 
  0
VERTEX
  8
0
 10
 275.945569425249 
 20
 9.08 
 30
 .86 
  0
VERTEX
  8
0
 10
 282.685569425249 
 20
 10.47 
 30
 1.46 
  0
VERTEX
  8
0
 10
 282.955569425249 
 20
 11.94 
 30
 1.92 
  0
VERTEX
  8
0
 10
 283.215569425249 
 20
 14.83 
 30
 2.15 
  0
VERTEX
  8
0
 10
 283.735569425249 
 20
 17.99 
 30
 2.1 
  0
VERTEX
  8
0
 10
 283.995569425249 
 20
 20.09 
 30
 1.78 
  0
VERTEX
  8
0
 10
 283.995569425249 
 20
 21.93 
 30
 0 
  0
SEQEND
  0
POLYLINE
  8
0
 66
     1
 10
0.0
 20
0.0
 30
0.0
  0
VERTEX
  8
0
 10
 48.3055694252489 
 20
 4.03 
 30
-1.00003090166442E-02 
  0
VERTEX
  8
0
 10
 54.8455694252489 
 20
 3.20171199985133 
 30
-6.29833990938673E-03 
  0
VERTEX
  8
0
 10
 61.3855694252489 
 20
 2.43042936752643 
 30
-2.8423470921655E-03 
  0
VERTEX
  8
0
 10
 67.6255694252489 
 20
 1.8 
 30
 0 
  0
VERTEX
  8
0
 10
 95.4589027585822 
 20
 .564565067841315 
 30
 5.71100421647172E-03 
  0
VERTEX
  8
0
 10
 123.292236091916 
 20
 .85771543804317 
 30
 3.8402656958983E-03 
  0
VERTEX
  8
0
 10
 150.825569425249 
 20
 1.16 
 30
 0 
  0
VERTEX
  8
0
 10
 180.621802758582 
 20
 .457021264413537 
 30
-1.56088846855708E-03 
  0
VERTEX
  8
0
 10
 210.418036091916 
 20
 .172715968099925 
 30
-9.42162964993671E-04 
  0
VERTEX
  8
0
 10
 239.914269425249 
 20
 2.4 
 30
 0 
  0
VERTEX
  8
0
 10
 250.111369425249 
 20
 4.08408912805175 
 30
 9.62291025687546E-05 
  0
VERTEX
  8
0
 10
 260.308469425249 
 20
 6.13087294465967 
 30
 7.56081849764888E-05 
  0
VERTEX
  8
0
 10
 270.205569425249 
 20
 8.29 
 30
 0 
  0
VERTEX
  8
0
 10
 270.205569425249 
 20
 8.29 
 30
 0 
  0
VERTEX
  8
0
 10
 260.308469425249 
 20
 6.13087294465967 
 30
-7.56081849764888E-05 
  0
VERTEX
  8
0
 10
 250.111369425249 
 20
 4.08408912805175 
 30
-9.62291025687546E-05 
  0
VERTEX
  8
0
 10
 239.914269425249 
 20
 2.4 
 30
 0 
  0
VERTEX
  8
0
 10
 210.418036091916 
 20
 .172715968099925 
 30
 9.42162964993671E-04 
  0
VERTEX
  8
0
 10
 180.621802758582 
 20
 .457021264413537 
 30
 1.56088846855708E-03 
  0
VERTEX
  8
0
 10
 150.825569425249 
 20
 1.16 
 30
 0 
  0
VERTEX
  8
0
 10
 123.292236091916 
 20
 .85771543804317 
 30
-3.8402656958983E-03 
  0
VERTEX
  8
0
 10
 95.4589027585822 
 20
 .564565067841315 
 30
-5.71100421647172E-03 
  0
VERTEX
  8
0
 10
 67.6255694252489 
 20
 1.8 
 30
 0 
  0
VERTEX
  8
0
 10
 61.3855694252489 
 20
 2.43042936752643 
 30
 2.8423470921655E-03 
  0
VERTEX
  8
0
 10
 54.8455694252489 
 20
 3.20171199985133 
 30
 6.29833990938673E-03 
  0
VERTEX
  8
0
 10
 48.3055694252489 
 20
 4.03 
 30
 1.00003090166442E-02 
  0
VERTEX
  8
0
 10
 48.3055694252489 
 20
 4.03 
 30
-1.00003090166442E-02 
  0
SEQEND
  0
POLYLINE
  8
0
 66
     1
 10
0.0
 20
0.0
 30
0.0
  0
VERTEX
  8
0
 10
 37.0855694252489 
 20
 6.68 
 30
-1.00003090166442E-02 
  0
VERTEX
  8
0
 10
 47.3645794252489 
 20
 5.14181936517613 
 30
-.898785744517812 
  0
VERTEX
  8
0
 10
 57.6435894252489 
 20
 3.74032932988091 
 30
-1.71780161848254 
  0
VERTEX
  8
0
 10
 67.6225994252489 
 20
 2.64 
 30
-2.38007354596133 
  0
VERTEX
  8
0
 10
 95.4558560919156 
 20
 1.30092756728805 
 30
-3.32377464774728 
  0
VERTEX
  8
0
 10
 123.289112758582 
 20
 1.53306093917891 
 30
-3.34251870341145 
  0
VERTEX
  8
0
 10
 150.822369425249 
 20
 1.93 
 30
-3.03409512443518 
  0
VERTEX
  8
0
 10
 180.619669425249 
 20
 1.53439562816764 
 30
-2.83035774936605 
  0
VERTEX
  8
0
 10
 210.416969425249 
 20
 1.42020699284763 
 30
-2.61792668926286 
  0
VERTEX
  8
0
 10
 239.914269425249 
 20
 3.24 
 30
-2.10006489349529 
  0
VERTEX
  8
0
 10
 252.024702758582 
 20
 4.87373633167202 
 30
-1.73889799954751 
  0
VERTEX
  8
0
 10
 264.135136091916 
 20
 6.90639163437385 
 30
-1.31030737301297 
  0
VERTEX
  8
0
 10
 275.945569425249 
 20
 9.08 
 30
-.86 
  0
VERTEX
  8
0
 10
 275.945569425249 
 20
 9.08 
 30
 .86 
  0
VERTEX
  8
0
 10
 264.135136091916 
 20
 6.90639163437385 
 30
 1.31030737301297 
  0
VERTEX
  8
0
 10
 252.024702758582 
 20
 4.87373633167202 
 30
 1.73889799954751 
  0
VERTEX
  8
0
 10
 239.914269425249 
 20
 3.24 
 30
 2.10006489349529 
  0
VERTEX
  8
0
 10
 210.416969425249 
 20
 1.42020699284763 
 30
 2.61792668926286 
  0
VERTEX
  8
0
 10
 180.619669425249 
 20
 1.53439562816764 
 30
 2.83035774936605 
  0
VERTEX
  8
0
 10
 150.822369425249 
 20
 1.93 
 30
 3.03409512443518 
  0
VERTEX
  8
0
 10
 123.289112758582 
 20
 1.53306093917891 
 30
 3.34251870341145 
  0
VERTEX
  8
0
 10
 95.4558560919156 
 20
 1.30092756728805 
 30
 3.32377464774728 
  0
VERTEX
  8
0
 10
 67.6225994252489 
 20
 2.64 
 30
 2.38007354596133 
  0
VERTEX
  8
0
 10
 57.6435894252489 
 20
 3.74032932988091 
 30
 1.71780161848254 
  0
VERTEX
  8
0
 10
 47.3645794252489 
 20
 5.14181936517613 
 30
 .898785744517812 
  0
VERTEX
  8
0
 10
 37.0855694252489 
 20
 6.68 
 30
 1.00003090166442E-02 
  0
VERTEX
  8
0
 10
 37.0855694252489 
 20
 6.68 
 30
-1.00003090166442E-02 
  0
SEQEND
  0
POLYLINE
  8
0
 66
     1
 10
0.0
 20
0.0
 30
0.0
  0
VERTEX
  8
0
 10
 32.3655694252489 
 20
 8.26 
 30
-1.00003090166442E-02 
  0
VERTEX
  8
0
 10
 44.2179127585822 
 20
 6.98080314740122 
 30
-1.86994741933506 
  0
VERTEX
  8
0
 10
 56.0702560919155 
 20
 5.8088236445476 
 30
-3.55967461713019 
  0
VERTEX
  8
0
 10
 67.6225994252489 
 20
 4.872 
 30
-4.88039113132816 
  0
VERTEX
  8
0
 10
 95.4558560919156 
 20
 3.69010629419971 
 30
-6.35107605441203 
  0
VERTEX
  8
0
 10
 123.289112758582 
 20
 3.49095241693184 
 30
-6.23564224794377 
  0
VERTEX
  8
0
 10
 150.822369425249 
 20
 3.5 
 30
-5.74343123758063 
  0
VERTEX
  8
0
 10
 180.619669425249 
 20
 3.20355474828023 
 30
-5.74594248001329 
  0
VERTEX
  8
0
 10
 210.416969425249 
 20
 3.325426523365 
 30
-5.77478243224905 
  0
VERTEX
  8
0
 10
 239.914269425249 
 20
 4.9 
 30
-4.94001966739024 
  0
VERTEX
  8
0
 10
 254.271369425249 
 20
 6.44719083067115 
 30
-3.99826409687329 
  0
VERTEX
  8
0
 10
 268.628469425249 
 20
 8.38464185197901 
 30
-2.78255395605996 
  0
VERTEX
  8
0
 10
 282.685569425249 
 20
 10.47 
 30
-1.46 
  0
VERTEX
  8
0
 10
 282.685569425249 
 20
 10.47 
 30
 1.46 
  0
VERTEX
  8
0
 10
 268.628469425249 
 20
 8.38464185197901 
 30
 2.78255395605996 
  0
VERTEX
  8
0
 10
 254.271369425249 
 20
 6.44719083067115 
 30
 3.99826409687329 
  0
VERTEX
  8
0
 10
 239.914269425249 
 20
 4.9 
 30
 4.94001966739024 
  0
VERTEX
  8
0
 10
 210.416969425249 
 20
 3.325426523365 
 30
 5.77478243224905 
  0
VERTEX
  8
0
 10
 180.619669425249 
 20
 3.20355474828023 
 30
 5.74594248001329 
  0
VERTEX
  8
0
 10
 150.822369425249 
 20
 3.5 
 30
 5.74343123758063 
  0
VERTEX
  8
0
 10
 123.289112758582 
 20
 3.49095241693184 
 30
 6.23564224794377 
  0
VERTEX
  8
0
 10
 95.4558560919156 
 20
 3.69010629419971 
 30
 6.35107605441203 
  0
VERTEX
  8
0
 10
 67.6225994252489 
 20
 4.872 
 30
 4.88039113132816 
  0
VERTEX
  8
0
 10
 56.0702560919155 
 20
 5.8088236445476 
 30
 3.55967461713019 
  0
VERTEX
  8
0
 10
 44.2179127585822 
 20
 6.98080314740122 
 30
 1.86994741933506 
  0
VERTEX
  8
0
 10
 32.3655694252489 
 20
 8.26 
 30
 1.00003090166442E-02 
  0
VERTEX
  8
0
 10
 32.3655694252489 
 20
 8.26 
 30
-1.00003090166442E-02 
  0
SEQEND
  0
POLYLINE
  8
0
 66
     1
 10
0.0
 20
0.0
 30
0.0
  0
VERTEX
  8
0
 10
 26.1655694252489 
 20
 11.43 
 30
-1.00003090166442E-02 
  0
VERTEX
  8
0
 10
 40.0845794252489 
 20
 10.969223829364 
 30
-3.02484581435887 
  0
VERTEX
  8
0
 10
 54.0035894252489 
 20
 10.5423322753836 
 30
-5.76602076109079 
  0
VERTEX
  8
0
 10
 67.6225994252489 
 20
 10.19 
 30
-7.92024474118223 
  0
VERTEX
  8
0
 10
 95.4558560919156 
 20
 9.73592190728267 
 30
-10.2011387138133 
  0
VERTEX
  8
0
 10
 123.289112758582 
 20
 9.54312541982163 
 30
-10.5310022589373 
  0
VERTEX
  8
0
 10
 150.822369425249 
 20
 9.47 
 30
-10.2203158150104 
  0
VERTEX
  8
0
 10
 180.619669425249 
 20
 9.43020359649922 
 30
-10.1891080890528 
  0
VERTEX
  8
0
 10
 210.416969425249 
 20
 9.59627900324737 
 30
-9.79551177735608 
  0
VERTEX
  8
0
 10
 239.914269425249 
 20
 10.19 
 30
-7.96024597724881 
  0
VERTEX
  8
0
 10
 254.361369425249 
 20
 10.6915591375833 
 30
-6.26439926316629 
  0
VERTEX
  8
0
 10
 268.808469425249 
 20
 11.2969891131996 
 30
-4.16729699428104 
  0
VERTEX
  8
0
 10
 282.955569425249 
 20
 11.94 
 30
-1.92 
  0
VERTEX
  8
0
 10
 282.955569425249 
 20
 11.94 
 30
 1.92 
  0
VERTEX
  8
0
 10
 268.808469425249 
 20
 11.2969891131996 
 30
 4.16729699428104 
  0
VERTEX
  8
0
 10
 254.361369425249 
 20
 10.6915591375833 
 30
 6.26439926316629 
  0
VERTEX
  8
0
 10
 239.914269425249 
 20
 10.19 
 30
 7.96024597724881 
  0
VERTEX
  8
0
 10
 210.416969425249 
 20
 9.59627900324737 
 30
 9.79551177735608 
  0
VERTEX
  8
0
 10
 180.619669425249 
 20
 9.43020359649922 
 30
 10.1891080890528 
  0
VERTEX
  8
0
 10
 150.822369425249 
 20
 9.47 
 30
 10.2203158150104 
  0
VERTEX
  8
0
 10
 123.289112758582 
 20
 9.54312541982163 
 30
 10.5310022589373 
  0
VERTEX
  8
0
 10
 95.4558560919156 
 20
 9.73592190728267 
 30
 10.2011387138133 
  0
VERTEX
  8
0
 10
 67.6225994252489 
 20
 10.19 
 30
 7.92024474118223 
  0
VERTEX
  8
0
 10
 54.0035894252489 
 20
 10.5423322753836 
 30
 5.76602076109079 
  0
VERTEX
  8
0
 10
 40.0845794252489 
 20
 10.969223829364 
 30
 3.02484581435887 
  0
VERTEX
  8
0
 10
 26.1655694252489 
 20
 11.43 
 30
 1.00003090166442E-02 
  0
VERTEX
  8
0
 10
 26.1655694252489 
 20
 11.43 
 30
-1.00003090166442E-02 
  0
SEQEND
  0
POLYLINE
  8
0
 66
     1
 10
0.0
 20
0.0
 30
0.0
  0
VERTEX
  8
0
 10
 23.4155694252489 
 20
 14.46 
 30
-1.00003090166442E-02 
  0
VERTEX
  8
0
 10
 38.2522360919155 
 20
 14.4342622033248 
 30
-2.90451913238951 
  0
VERTEX
  8
0
 10
 53.0889027585822 
 20
 14.4127904442264 
 30
-5.55247668089007 
  0
VERTEX
  8
0
 10
 67.6255694252489 
 20
 14.4 
 30
-7.67023701576612 
  0
VERTEX
  8
0
 10
 95.4589027585822 
 20
 14.4023742841911 
 30
-9.98377558706325 
  0
VERTEX
  8
0
 10
 123.292236091916 
 20
 14.4140469571214 
 30
-10.6277847126244 
  0
VERTEX
  8
0
 10
 150.825569425249 
 20
 14.4 
 30
-10.5203250855097 
  0
VERTEX
  8
0
 10
 180.621802758582 
 20
 14.3398774466998 
 30
-10.2954955828788 
  0
VERTEX
  8
0
 10
 210.418036091916 
 20
 14.3077888574167 
 30
-9.54344408680808 
  0
VERTEX
  8
0
 10
 239.914269425249 
 20
 14.4 
 30
-7.59023454363297 
  0
VERTEX
  8
0
 10
 254.448036091916 
 20
 14.515145663399 
 30
-6.01570520263829 
  0
VERTEX
  8
0
 10
 268.981802758582 
 20
 14.665599709265 
 30
-4.13692878663673 
  0
VERTEX
  8
0
 10
 283.215569425249 
 20
 14.83 
 30
-2.15 
  0
VERTEX
  8
0
 10
 283.215569425249 
 20
 14.83 
 30
 2.15 
  0
VERTEX
  8
0
 10
 268.981802758582 
 20
 14.665599709265 
 30
 4.13692878663673 
  0
VERTEX
  8
0
 10
 254.448036091916 
 20
 14.515145663399 
 30
 6.01570520263829 
  0
VERTEX
  8
0
 10
 239.914269425249 
 20
 14.4 
 30
 7.59023454363297 
  0
VERTEX
  8
0
 10
 210.418036091916 
 20
 14.3077888574167 
 30
 9.54344408680808 
  0
VERTEX
  8
0
 10
 180.621802758582 
 20
 14.3398774466998 
 30
 10.2954955828788 
  0
VERTEX
  8
0
 10
 150.825569425249 
 20
 14.4 
 30
 10.5203250855097 
  0
VERTEX
  8
0
 10
 123.292236091916 
 20
 14.4140469571214 
 30
 10.6277847126244 
  0
VERTEX
  8
0
 10
 95.4589027585822 
 20
 14.4023742841911 
 30
 9.98377558706325 
  0
VERTEX
  8
0
 10
 67.6255694252489 
 20
 14.4 
 30
 7.67023701576612 
  0
VERTEX
  8
0
 10
 53.0889027585822 
 20
 14.4127904442264 
 30
 5.55247668089007 
  0
VERTEX
  8
0
 10
 38.2522360919155 
 20
 14.4342622033248 
 30
 2.90451913238951 
  0
VERTEX
  8
0
 10
 23.4155694252489 
 20
 14.46 
 30
 1.00003090166442E-02 
  0
VERTEX
  8
0
 10
 23.4155694252489 
 20
 14.46 
 30
-1.00003090166442E-02 
  0
SEQEND
  0
POLYLINE
  8
0
 66
     1
 10
0.0
 20
0.0
 30
0.0
  0
VERTEX
  8
0
 10
 22.6255694252489 
 20
 16.86 
 30
-1.00003090166442E-02 
  0
VERTEX
  8
0
 10
 37.7245794252489 
 20
 17.6278285530505 
 30
-2.09486640108307 
  0
VERTEX
  8
0
 10
 52.8235894252489 
 20
 18.3399079157274 
 30
-4.00695505182554 
  0
VERTEX
  8
0
 10
 67.6225994252489 
 20
 18.93 
 30
-5.54683869227727 
  0
VERTEX
  8
0
 10
 95.4558560919156 
 20
 19.6476518983201 
 30
-7.251440745957 
  0
VERTEX
  8
0
 10
 123.289112758582 
 20
 19.9432227786811 
 30
-7.79107539449156 
  0
VERTEX
  8
0
 10
 150.822369425249 
 20
 19.96 
 30
-7.75189937426115 
  0
VERTEX
  8
0
 10
 180.619669425249 
 20
 19.7992650532839 
 30
-7.54235119277259 
  0
VERTEX
  8
0
 10
 210.416969425249 
 20
 19.4728723303168 
 30
-6.95274047973917 
  0
VERTEX
  8
0
 10
 239.914269425249 
 20
 18.98 
 30
-5.62375941374183 
  0
VERTEX
  8
0
 10
 254.621369425249 
 20
 18.6716921593333 
 30
-4.59257514040204 
  0
VERTEX
  8
0
 10
 269.328469425249 
 20
 18.3344062758152 
 30
-3.37816377746608 
  0
VERTEX
  8
0
 10
 283.735569425249 
 20
 17.99 
 30
-2.1 
  0
VERTEX
  8
0
 10
 283.735569425249 
 20
 17.99 
 30
 2.1 
  0
VERTEX
  8
0
 10
 269.328469425249 
 20
 18.3344062758152 
 30
 3.37816377746608 
  0
VERTEX
  8
0
 10
 254.621369425249 
 20
 18.6716921593333 
 30
 4.59257514040204 
  0
VERTEX
  8
0
 10
 239.914269425249 
 20
 18.98 
 30
 5.62375941374183 
  0
VERTEX
  8
0
 10
 210.416969425249 
 20
 19.4728723303168 
 30
 6.95274047973917 
  0
VERTEX
  8
0
 10
 180.619669425249 
 20
 19.7992650532839 
 30
 7.54235119277259 
  0
VERTEX
  8
0
 10
 150.822369425249 
 20
 19.96 
 30
 7.75189937426115 
  0
VERTEX
  8
0
 10
 123.289112758582 
 20
 19.9432227786811 
 30
 7.79107539449156 
  0
VERTEX
  8
0
 10
 95.4558560919156 
 20
 19.6476518983201 
 30
 7.251440745957 
  0
VERTEX
  8
0
 10
 67.6225994252489 
 20
 18.93 
 30
 5.54683869227727 
  0
VERTEX
  8
0
 10
 52.8235894252489 
 20
 18.3399079157274 
 30
 4.00695505182554 
  0
VERTEX
  8
0
 10
 37.7245794252489 
 20
 17.6278285530505 
 30
 2.09486640108307 
  0
VERTEX
  8
0
 10
 22.6255694252489 
 20
 16.86 
 30
 1.00003090166442E-02 
  0
VERTEX
  8
0
 10
 22.6255694252489 
 20
 16.86 
 30
-1.00003090166442E-02 
  0
SEQEND
  0
POLYLINE
  8
0
 66
     1
 10
0.0
 20
0.0
 30
0.0
  0
VERTEX
  8
0
 10
 24.5755694252489 
 20
 18.89 
 30
-1.00003090166442E-02 
  0
VERTEX
  8
0
 10
 39.0245794252489 
 20
 19.6500654994047 
 30
-1.21429491541232 
  0
VERTEX
  8
0
 10
 53.4735894252489 
 20
 20.3783166558433 
 30
-2.30283531308176 
  0
VERTEX
  8
0
 10
 67.6225994252489 
 20
 21.03 
 30
-3.14520283321731 
  0
VERTEX
  8
0
 10
 95.4558560919156 
 20
 22.0481656131117 
 30
-3.95782047661234 
  0
VERTEX
  8
0
 10
 123.289112758582 
 20
 22.6645776670001 
 30
-4.00079103489054 
  0
VERTEX
  8
0
 10
 150.822369425249 
 20
 22.83 
 30
-3.78604158795234 
  0
VERTEX
  8
0
 10
 180.619669425249 
 20
 22.5044859284753 
 30
-3.6861512348092 
  0
VERTEX
  8
0
 10
 210.416969425249 
 20
 21.8411140040915 
 30
-3.5763577331616 
  0
VERTEX
  8
0
 10
 239.914269425249 
 20
 21.084 
 30
-3.17269086265079 
  0
VERTEX
  8
0
 10
 254.708036091916 
 20
 20.7323872493831 
 30
-2.78490997741148 
  0
VERTEX
  8
0
 10
 269.501802758582 
 20
 20.4025807723191 
 30
-2.30081733157343 
  0
VERTEX
  8
0
 10
 283.995569425249 
 20
 20.09 
 30
-1.78 
  0
VERTEX
  8
0
 10
 283.995569425249 
 20
 20.09 
 30
 1.78 
  0
VERTEX
  8
0
 10
 269.501802758582 
 20
 20.4025807723191 
 30
 2.30081733157343 
  0
VERTEX
  8
0
 10
 254.708036091916 
 20
 20.7323872493831 
 30
 2.78490997741148 
  0
VERTEX
  8
0
 10
 239.914269425249 
 20
 21.084 
 30
 3.17269086265079 
  0
VERTEX
  8
0
 10
 210.416969425249 
 20
 21.8411140040915 
 30
 3.5763577331616 
  0
VERTEX
  8
0
 10
 180.619669425249 
 20
 22.5044859284753 
 30
 3.6861512348092 
  0
VERTEX
  8
0
 10
 150.822369425249 
 20
 22.83 
 30
 3.78604158795234 
  0
VERTEX
  8
0
 10
 123.289112758582 
 20
 22.6645776670001 
 30
 4.00079103489054 
  0
VERTEX
  8
0
 10
 95.4558560919156 
 20
 22.0481656131117 
 30
 3.95782047661234 
  0
VERTEX
  8
0
 10
 67.6225994252489 
 20
 21.03 
 30
 3.14520283321731 
  0
VERTEX
  8
0
 10
 53.4735894252489 
 20
 20.3783166558433 
 30
 2.30283531308176 
  0
VERTEX
  8
0
 10
 39.0245794252489 
 20
 19.6500654994047 
 30
 1.21429491541232 
  0
VERTEX
  8
0
 10
 24.5755694252489 
 20
 18.89 
 30
 1.00003090166442E-02 
  0
VERTEX
  8
0
 10
 24.5755694252489 
 20
 18.89 
 30
-1.00003090166442E-02 
  0
SEQEND
  0
POLYLINE
  8
0
 66
     1
 10
0.0
 20
0.0
 30
0.0
  0
VERTEX
  8
0
 10
 33.1655694252489 
 20
 20.21 
 30
-1.00003090166442E-02 
  0
VERTEX
  8
0
 10
 44.7522360919155 
 20
 20.7673850041518 
 30
-6.94826452257011E-03 
  0
VERTEX
  8
0
 10
 56.3389027585822 
 20
 21.3047835858218 
 30
-3.65882097969993E-03 
  0
VERTEX
  8
0
 10
 67.6255694252489 
 20
 21.79 
 30
 0 
  0
VERTEX
  8
0
 10
 95.4589027585822 
 20
 22.7508897203589 
 30
 1.00221826438486E-02 
  0
VERTEX
  8
0
 10
 123.292236091916 
 20
 23.3554889643246 
 30
 1.34768906066238E-02 
  0
VERTEX
  8
0
 10
 150.825569425249 
 20
 23.59 
 30
 0 
  0
VERTEX
  8
0
 10
 180.621802758582 
 20
 23.4533685970818 
 30
-3.79168551221812E-02 
  0
VERTEX
  8
0
 10
 210.418036091916 
 20
 23.0533684779073 
 30
-7.52862555810929E-02 
  0
VERTEX
  8
0
 10
 239.914269425249 
 20
 22.57 
 30
-.08 
  0
VERTEX
  8
0
 10
 254.708036091916 
 20
 22.343664703261 
 30
-.061936384272869 
  0
VERTEX
  8
0
 10
 269.501802758582 
 20
 22.131302873357 
 30
-3.32451215788892E-02 
  0
VERTEX
  8
0
 10
 283.995569425249 
 20
 21.93 
 30
 0 
  0
VERTEX
  8
0
 10
 283.995569425249 
 20
 21.93 
 30
 0 
  0
VERTEX
  8
0
 10
 269.501802758582 
 20
 22.131302873357 
 30
 3.32451215788892E-02 
  0
VERTEX
  8
0
 10
 254.708036091916 
 20
 22.343664703261 
 30
 .061936384272869 
  0
VERTEX
  8
0
 10
 239.914269425249 
 20
 22.57 
 30
 .08 
  0
VERTEX
  8
0
 10
 210.418036091916 
 20
 23.0533684779073 
 30
 7.52862555810929E-02 
  0
VERTEX
  8
0
 10
 180.621802758582 
 20
 23.4533685970818 
 30
 3.79168551221812E-02 
  0
VERTEX
  8
0
 10
 150.825569425249 
 20
 23.59 
 30
 0 
  0
VERTEX
  8
0
 10
 123.292236091916 
 20
 23.3554889643246 
 30
-1.34768906066238E-02 
  0
VERTEX
  8
0
 10
 95.4589027585822 
 20
 22.7508897203589 
 30
-1.00221826438486E-02 
  0
VERTEX
  8
0
 10
 67.6255694252489 
 20
 21.79 
 30
 0 
  0
VERTEX
  8
0
 10
 56.3389027585822 
 20
 21.3047835858218 
 30
 3.65882097969993E-03 
  0
VERTEX
  8
0
 10
 44.7522360919155 
 20
 20.7673850041518 
 30
 6.94826452257011E-03 
  0
VERTEX
  8
0
 10
 33.1655694252489 
 20
 20.21 
 30
 1.00003090166442E-02 
  0
VERTEX
  8
0
 10
 33.1655694252489 
 20
 20.21 
 30
-1.00003090166442E-02 
  0
SEQEND
  0
POLYLINE
  8
0
 66
     1
 10
0.0
 20
0.0
 30
0.0
  0
VERTEX
  8
0
 10
 33.1655694252489 
 20
 31.8733538288567 
 30
 20.21 
  0
VERTEX
  8
0
 10
 24.5755694252489 
 20
 31.8733538288567 
 30
 18.89 
  0
VERTEX
  8
0
 10
 22.6255694252489 
 20
 31.8733538288567 
 30
 16.86 
  0
VERTEX
  8
0
 10
 23.4155694252489 
 20
 31.8733538288567 
 30
 14.46 
  0
VERTEX
  8
0
 10
 26.1655694252489 
 20
 31.8733538288567 
 30
 11.43 
  0
VERTEX
  8
0
 10
 32.3655694252489 
 20
 31.8733538288567 
 30
 8.26 
  0
VERTEX
  8
0
 10
 37.0855694252489 
 20
 31.8733538288567 
 30
 6.68 
  0
VERTEX
  8
0
 10
 48.3055694252489 
 20
 31.8733538288567 
 30
 4.03 
  0
VERTEX
  8
0
 10
 48.3055694252489 
 20
 31.89335444689 
 30
 4.03 
  0
VERTEX
  8
0
 10
 37.0855694252489 
 20
 31.89335444689 
 30
 6.68 
  0
VERTEX
  8
0
 10
 32.3655694252489 
 20
 31.89335444689 
 30
 8.26 
  0
VERTEX
  8
0
 10
 26.1655694252489 
 20
 31.89335444689 
 30
 11.43 
  0
VERTEX
  8
0
 10
 23.4155694252489 
 20
 31.89335444689 
 30
 14.46 
  0
VERTEX
  8
0
 10
 22.6255694252489 
 20
 31.89335444689 
 30
 16.86 
  0
VERTEX
  8
0
 10
 24.5755694252489 
 20
 31.89335444689 
 30
 18.89 
  0
VERTEX
  8
0
 10
 33.1655694252489 
 20
 31.89335444689 
 30
 20.21 
  0
SEQEND
  0
POLYLINE
  8
0
 66
     1
 10
0.0
 20
0.0
 30
0.0
  0
VERTEX
  8
0
 10
 67.6255694252489 
 20
 31.8833541378733 
 30
 21.79 
  0
VERTEX
  8
0
 10
 67.6225994252489 
 20
 28.738151304656 
 30
 21.03 
  0
VERTEX
  8
0
 10
 67.6225994252489 
 20
 26.336515445596 
 30
 18.93 
  0
VERTEX
  8
0
 10
 67.6255694252489 
 20
 24.2131171221072 
 30
 14.4 
  0
VERTEX
  8
0
 10
 67.6225994252489 
 20
 23.9631093966911 
 30
 10.19 
  0
VERTEX
  8
0
 10
 67.6225994252489 
 20
 27.0029630065452 
 30
 4.872 
  0
VERTEX
  8
0
 10
 67.6225994252489 
 20
 29.503280591912 
 30
 2.64 
  0
VERTEX
  8
0
 10
 67.6255694252489 
 20
 31.8833541378733 
 30
 1.8 
  0
VERTEX
  8
0
 10
 67.6255694252489 
 20
 31.8833541378733 
 30
 1.8 
  0
VERTEX
  8
0
 10
 67.6225994252489 
 20
 34.2634276838346 
 30
 2.64 
  0
VERTEX
  8
0
 10
 67.6225994252489 
 20
 36.7637452692015 
 30
 4.872 
  0
VERTEX
  8
0
 10
 67.6225994252489 
 20
 39.8035988790555 
 30
 10.19 
  0
VERTEX
  8
0
 10
 67.6255694252489 
 20
 39.5535911536394 
 30
 14.4 
  0
VERTEX
  8
0
 10
 67.6225994252489 
 20
 37.4301928301506 
 30
 18.93 
  0
VERTEX
  8
0
 10
 67.6225994252489 
 20
 35.0285569710906 
 30
 21.03 
  0
VERTEX
  8
0
 10
 67.6255694252489 
 20
 31.8833541378733 
 30
 21.79 
  0
SEQEND
  0
POLYLINE
  8
0
 66
     1
 10
0.0
 20
0.0
 30
0.0
  0
VERTEX
  8
0
 10
 150.825569425249 
 20
 31.8833541378733 
 30
 23.59 
  0
VERTEX
  8
0
 10
 150.822369425249 
 20
 28.097312549921 
 30
 22.83 
  0
VERTEX
  8
0
 10
 150.822369425249 
 20
 24.1314547636122 
 30
 19.96 
  0
VERTEX
  8
0
 10
 150.825569425249 
 20
 21.3630290523636 
 30
 14.4 
  0
VERTEX
  8
0
 10
 150.822369425249 
 20
 21.6630383228629 
 30
 9.47 
  0
VERTEX
  8
0
 10
 150.822369425249 
 20
 26.1399229002927 
 30
 3.5 
  0
VERTEX
  8
0
 10
 150.822369425249 
 20
 28.8492590134381 
 30
 1.93 
  0
VERTEX
  8
0
 10
 150.825569425249 
 20
 31.8833541378733 
 30
 1.16 
  0
VERTEX
  8
0
 10
 150.825569425249 
 20
 31.8833541378733 
 30
 1.16 
  0
VERTEX
  8
0
 10
 150.822369425249 
 20
 34.9174492623085 
 30
 1.93 
  0
VERTEX
  8
0
 10
 150.822369425249 
 20
 37.6267853754539 
 30
 3.5 
  0
VERTEX
  8
0
 10
 150.822369425249 
 20
 42.1036699528837 
 30
 9.47 
  0
VERTEX
  8
0
 10
 150.825569425249 
 20
 42.403679223383 
 30
 14.4 
  0
VERTEX
  8
0
 10
 150.822369425249 
 20
 39.6352535121345 
 30
 19.96 
  0
VERTEX
  8
0
 10
 150.822369425249 
 20
 35.6693957258257 
 30
 22.83 
  0
VERTEX
  8
0
 10
 150.825569425249 
 20
 31.8833541378733 
 30
 23.59 
  0
SEQEND
  0
POLYLINE
  8
0
 66
     1
 10
0.0
 20
0.0
 30
0.0
  0
VERTEX
  8
0
 10
 239.914269425249 
 20
 31.8033541378733 
 30
 22.57 
  0
VERTEX
  8
0
 10
 239.914269425249 
 20
 28.7106632752225 
 30
 21.084 
  0
VERTEX
  8
0
 10
 239.914269425249 
 20
 26.2595947241315 
 30
 18.98 
  0
VERTEX
  8
0
 10
 239.914269425249 
 20
 24.2931195942403 
 30
 14.4 
  0
VERTEX
  8
0
 10
 239.914269425249 
 20
 23.9231081606245 
 30
 10.19 
  0
VERTEX
  8
0
 10
 239.914269425249 
 20
 26.9433344704831 
 30
 4.9 
  0
VERTEX
  8
0
 10
 239.914269425249 
 20
 29.783289244378 
 30
 3.24 
  0
VERTEX
  8
0
 10
 239.914269425249 
 20
 31.8833541378733 
 30
 2.4 
  0
VERTEX
  8
0
 10
 239.914269425249 
 20
 31.8833541378733 
 30
 2.4 
  0
VERTEX
  8
0
 10
 239.914269425249 
 20
 33.9834190313686 
 30
 3.24 
  0
VERTEX
  8
0
 10
 239.914269425249 
 20
 36.8233738052636 
 30
 4.9 
  0
VERTEX
  8
0
 10
 239.914269425249 
 20
 39.8436001151221 
 30
 10.19 
  0
VERTEX
  8
0
 10
 239.914269425249 
 20
 39.4735886815063 
 30
 14.4 
  0
VERTEX
  8
0
 10
 239.914269425249 
 20
 37.5071135516151 
 30
 18.98 
  0
VERTEX
  8
0
 10
 239.914269425249 
 20
 35.0560450005241 
 30
 21.084 
  0
VERTEX
  8
0
 10
 239.914269425249 
 20
 31.9633541378733 
 30
 22.57 
  0
SEQEND
  0
POLYLINE
  8
0
 66
     1
 10
0.0
 20
0.0
 30
0.0
  0
VERTEX
  8
0
 10
 283.995569425249 
 20
 31.8833541378733 
 30
 21.93 
  0
VERTEX
  8
0
 10
 283.995569425249 
 20
 30.1033541378733 
 30
 20.09 
  0
VERTEX
  8
0
 10
 283.735569425249 
 20
 29.7833541378733 
 30
 17.99 
  0
VERTEX
  8
0
 10
 283.215569425249 
 20
 29.7333541378733 
 30
 14.83 
  0
VERTEX
  8
0
 10
 282.955569425249 
 20
 29.9633541378733 
 30
 11.94 
  0
VERTEX
  8
0
 10
 282.685569425249 
 20
 30.4233541378733 
 30
 10.47 
  0
VERTEX
  8
0
 10
 275.945569425249 
 20
 31.0233541378733 
 30
 9.08 
  0
VERTEX
  8
0
 10
 270.205569425249 
 20
 31.8833541378733 
 30
 8.29 
  0
VERTEX
  8
0
 10
 270.205569425249 
 20
 31.8833541378733 
 30
 8.29 
  0
VERTEX
  8
0
 10
 275.945569425249 
 20
 32.7433541378733 
 30
 9.08 
  0
VERTEX
  8
0
 10
 282.685569425249 
 20
 33.3433541378733 
 30
 10.47 
  0
VERTEX
  8
0
 10
 282.955569425249 
 20
 33.8033541378733 
 30
 11.94 
  0
VERTEX
  8
0
 10
 283.215569425249 
 20
 34.0333541378733 
 30
 14.83 
  0
VERTEX
  8
0
 10
 283.735569425249 
 20
 33.9833541378733 
 30
 17.99 
  0
VERTEX
  8
0
 10
 283.995569425249 
 20
 33.6633541378733 
 30
 20.09 
  0
VERTEX
  8
0
 10
 283.995569425249 
 20
 31.8833541378733 
 30
 21.93 
  0
SEQEND
  0
POLYLINE
  8
0
 66
     1
 10
0.0
 20
0.0
 30
0.0
  0
VERTEX
  8
0
 10
 48.3055694252489 
 20
 31.8733538288567 
 30
 4.03 
  0
VERTEX
  8
0
 10
 54.8455694252489 
 20
 31.8770557979639 
 30
 3.20171199985133 
  0
VERTEX
  8
0
 10
 61.3855694252489 
 20
 31.8805117907812 
 30
 2.43042936752643 
  0
VERTEX
  8
0
 10
 67.6255694252489 
 20
 31.8833541378733 
 30
 1.8 
  0
VERTEX
  8
0
 10
 95.4589027585822 
 20
 31.8890651420898 
 30
 .564565067841315 
  0
VERTEX
  8
0
 10
 123.292236091916 
 20
 31.8871944035692 
 30
 .85771543804317 
  0
VERTEX
  8
0
 10
 150.825569425249 
 20
 31.8833541378733 
 30
 1.16 
  0
VERTEX
  8
0
 10
 180.621802758582 
 20
 31.8817932494048 
 30
 .457021264413537 
  0
VERTEX
  8
0
 10
 210.418036091916 
 20
 31.8824119749083 
 30
 .172715968099925 
  0
VERTEX
  8
0
 10
 239.914269425249 
 20
 31.8833541378733 
 30
 2.4 
  0
VERTEX
  8
0
 10
 250.111369425249 
 20
 31.8834503669759 
 30
 4.08408912805175 
  0
VERTEX
  8
0
 10
 260.308469425249 
 20
 31.8834297460583 
 30
 6.13087294465967 
  0
VERTEX
  8
0
 10
 270.205569425249 
 20
 31.8833541378733 
 30
 8.29 
  0
VERTEX
  8
0
 10
 270.205569425249 
 20
 31.8833541378733 
 30
 8.29 
  0
VERTEX
  8
0
 10
 260.308469425249 
 20
 31.8832785296883 
 30
 6.13087294465967 
  0
VERTEX
  8
0
 10
 250.111369425249 
 20
 31.8832579087707 
 30
 4.08408912805175 
  0
VERTEX
  8
0
 10
 239.914269425249 
 20
 31.8833541378733 
 30
 2.4 
  0
VERTEX
  8
0
 10
 210.418036091916 
 20
 31.8842963008383 
 30
 .172715968099925 
  0
VERTEX
  8
0
 10
 180.621802758582 
 20
 31.8849150263419 
 30
 .457021264413537 
  0
VERTEX
  8
0
 10
 150.825569425249 
 20
 31.8833541378733 
 30
 1.16 
  0
VERTEX
  8
0
 10
 123.292236091916 
 20
 31.8795138721774 
 30
 .85771543804317 
  0
VERTEX
  8
0
 10
 95.4589027585822 
 20
 31.8776431336568 
 30
 .564565067841315 
  0
VERTEX
  8
0
 10
 67.6255694252489 
 20
 31.8833541378733 
 30
 1.8 
  0
VERTEX
  8
0
 10
 61.3855694252489 
 20
 31.8861964849655 
 30
 2.43042936752643 
  0
VERTEX
  8
0
 10
 54.8455694252489 
 20
 31.8896524777827 
 30
 3.20171199985133 
  0
VERTEX
  8
0
 10
 48.3055694252489 
 20
 31.89335444689 
 30
 4.03 
  0
VERTEX
  8
0
 10
 48.3055694252489 
 20
 31.8733538288567 
 30
 4.03 
  0
SEQEND
  0
POLYLINE
  8
0
 66
     1
 10
0.0
 20
0.0
 30
0.0
  0
VERTEX
  8
0
 10
 37.0855694252489 
 20
 31.8733538288567 
 30
 6.68 
  0
VERTEX
  8
0
 10
 47.3645794252489 
 20
 30.9845683933555 
 30
 5.14181936517613 
  0
VERTEX
  8
0
 10
 57.6435894252489 
 20
 30.1655525193908 
 30
 3.74032932988091 
  0
VERTEX
  8
0
 10
 67.6225994252489 
 20
 29.503280591912 
 30
 2.64 
  0
VERTEX
  8
0
 10
 95.4558560919156 
 20
 28.559579490126 
 30
 1.30092756728805 
  0
VERTEX
  8
0
 10
 123.289112758582 
 20
 28.5408354344619 
 30
 1.53306093917891 
  0
VERTEX
  8
0
 10
 150.822369425249 
 20
 28.8492590134381 
 30
 1.93 
  0
VERTEX
  8
0
 10
 180.619669425249 
 20
 29.0529963885073 
 30
 1.53439562816764 
  0
VERTEX
  8
0
 10
 210.416969425249 
 20
 29.2654274486105 
 30
 1.42020699284763 
  0
VERTEX
  8
0
 10
 239.914269425249 
 20
 29.783289244378 
 30
 3.24 
  0
VERTEX
  8
0
 10
 252.024702758582 
 20
 30.1444561383258 
 30
 4.87373633167202 
  0
VERTEX
  8
0
 10
 264.135136091916 
 20
 30.5730467648604 
 30
 6.90639163437385 
  0
VERTEX
  8
0
 10
 275.945569425249 
 20
 31.0233541378733 
 30
 9.08 
  0
VERTEX
  8
0
 10
 275.945569425249 
 20
 32.7433541378733 
 30
 9.08 
  0
VERTEX
  8
0
 10
 264.135136091916 
 20
 33.1936615108863 
 30
 6.90639163437385 
  0
VERTEX
  8
0
 10
 252.024702758582 
 20
 33.6222521374208 
 30
 4.87373633167202 
  0
VERTEX
  8
0
 10
 239.914269425249 
 20
 33.9834190313686 
 30
 3.24 
  0
VERTEX
  8
0
 10
 210.416969425249 
 20
 34.5012808271362 
 30
 1.42020699284763 
  0
VERTEX
  8
0
 10
 180.619669425249 
 20
 34.7137118872394 
 30
 1.53439562816764 
  0
VERTEX
  8
0
 10
 150.822369425249 
 20
 34.9174492623085 
 30
 1.93 
  0
VERTEX
  8
0
 10
 123.289112758582 
 20
 35.2258728412848 
 30
 1.53306093917891 
  0
VERTEX
  8
0
 10
 95.4558560919156 
 20
 35.2071287856206 
 30
 1.30092756728805 
  0
VERTEX
  8
0
 10
 67.6225994252489 
 20
 34.2634276838346 
 30
 2.64 
  0
VERTEX
  8
0
 10
 57.6435894252489 
 20
 33.6011557563559 
 30
 3.74032932988091 
  0
VERTEX
  8
0
 10
 47.3645794252489 
 20
 32.7821398823911 
 30
 5.14181936517613 
  0
VERTEX
  8
0
 10
 37.0855694252489 
 20
 31.89335444689 
 30
 6.68 
  0
VERTEX
  8
0
 10
 37.0855694252489 
 20
 31.8733538288567 
 30
 6.68 
  0
SEQEND
  0
POLYLINE
  8
0
 66
     1
 10
0.0
 20
0.0
 30
0.0
  0
VERTEX
  8
0
 10
 32.3655694252489 
 20
 31.8733538288567 
 30
 8.26 
  0
VERTEX
  8
0
 10
 44.2179127585822 
 20
 30.0134067185383 
 30
 6.98080314740122 
  0
VERTEX
  8
0
 10
 56.0702560919155 
 20
 28.3236795207431 
 30
 5.8088236445476 
  0
VERTEX
  8
0
 10
 67.6225994252489 
 20
 27.0029630065452 
 30
 4.872 
  0
VERTEX
  8
0
 10
 95.4558560919156 
 20
 25.5322780834613 
 30
 3.69010629419971 
  0
VERTEX
  8
0
 10
 123.289112758582 
 20
 25.6477118899296 
 30
 3.49095241693184 
  0
VERTEX
  8
0
 10
 150.822369425249 
 20
 26.1399229002927 
 30
 3.5 
  0
VERTEX
  8
0
 10
 180.619669425249 
 20
 26.13741165786 
 30
 3.20355474828023 
  0
VERTEX
  8
0
 10
 210.416969425249 
 20
 26.1085717056243 
 30
 3.325426523365 
  0
VERTEX
  8
0
 10
 239.914269425249 
 20
 26.9433344704831 
 30
 4.9 
  0
VERTEX
  8
0
 10
 254.271369425249 
 20
 27.885090041 
 30
 6.44719083067115 
  0
VERTEX
  8
0
 10
 268.628469425249 
 20
 29.1008001818134 
 30
 8.38464185197901 
  0
VERTEX
  8
0
 10
 282.685569425249 
 20
 30.4233541378733 
 30
 10.47 
  0
VERTEX
  8
0
 10
 282.685569425249 
 20
 33.3433541378733 
 30
 10.47 
  0
VERTEX
  8
0
 10
 268.628469425249 
 20
 34.6659080939333 
 30
 8.38464185197901 
  0
VERTEX
  8
0
 10
 254.271369425249 
 20
 35.8816182347466 
 30
 6.44719083067115 
  0
VERTEX
  8
0
 10
 239.914269425249 
 20
 36.8233738052636 
 30
 4.9 
  0
VERTEX
  8
0
 10
 210.416969425249 
 20
 37.6581365701224 
 30
 3.325426523365 
  0
VERTEX
  8
0
 10
 180.619669425249 
 20
 37.6292966178866 
 30
 3.20355474828023 
  0
VERTEX
  8
0
 10
 150.822369425249 
 20
 37.6267853754539 
 30
 3.5 
  0
VERTEX
  8
0
 10
 123.289112758582 
 20
 38.1189963858171 
 30
 3.49095241693184 
  0
VERTEX
  8
0
 10
 95.4558560919156 
 20
 38.2344301922853 
 30
 3.69010629419971 
  0
VERTEX
  8
0
 10
 67.6225994252489 
 20
 36.7637452692015 
 30
 4.872 
  0
VERTEX
  8
0
 10
 56.0702560919155 
 20
 35.4430287550035 
 30
 5.8088236445476 
  0
VERTEX
  8
0
 10
 44.2179127585822 
 20
 33.7533015572084 
 30
 6.98080314740122 
  0
VERTEX
  8
0
 10
 32.3655694252489 
 20
 31.89335444689 
 30
 8.26 
  0
VERTEX
  8
0
 10
 32.3655694252489 
 20
 31.8733538288567 
 30
 8.26 
  0
SEQEND
  0
POLYLINE
  8
0
 66
     1
 10
0.0
 20
0.0
 30
0.0
  0
VERTEX
  8
0
 10
 26.1655694252489 
 20
 31.8733538288567 
 30
 11.43 
  0
VERTEX
  8
0
 10
 40.0845794252489 
 20
 28.8585083235144 
 30
 10.969223829364 
  0
VERTEX
  8
0
 10
 54.0035894252489 
 20
 26.1173333767825 
 30
 10.5423322753836 
  0
VERTEX
  8
0
 10
 67.6225994252489 
 20
 23.9631093966911 
 30
 10.19 
  0
VERTEX
  8
0
 10
 95.4558560919156 
 20
 21.68221542406 
 30
 9.73592190728267 
  0
VERTEX
  8
0
 10
 123.289112758582 
 20
 21.352351878936 
 30
 9.54312541982163 
  0
VERTEX
  8
0
 10
 150.822369425249 
 20
 21.6630383228629 
 30
 9.47 
  0
VERTEX
  8
0
 10
 180.619669425249 
 20
 21.6942460488205 
 30
 9.43020359649922 
  0
VERTEX
  8
0
 10
 210.416969425249 
 20
 22.0878423605172 
 30
 9.59627900324737 
  0
VERTEX
  8
0
 10
 239.914269425249 
 20
 23.9231081606245 
 30
 10.19 
  0
VERTEX
  8
0
 10
 254.361369425249 
 20
 25.618954874707 
 30
 10.6915591375833 
  0
VERTEX
  8
0
 10
 268.808469425249 
 20
 27.7160571435923 
 30
 11.2969891131996 
  0
VERTEX
  8
0
 10
 282.955569425249 
 20
 29.9633541378733 
 30
 11.94 
  0
VERTEX
  8
0
 10
 282.955569425249 
 20
 33.8033541378733 
 30
 11.94 
  0
VERTEX
  8
0
 10
 268.808469425249 
 20
 36.0506511321544 
 30
 11.2969891131996 
  0
VERTEX
  8
0
 10
 254.361369425249 
 20
 38.1477534010396 
 30
 10.6915591375833 
  0
VERTEX
  8
0
 10
 239.914269425249 
 20
 39.8436001151221 
 30
 10.19 
  0
VERTEX
  8
0
 10
 210.416969425249 
 20
 41.6788659152294 
 30
 9.59627900324737 
  0
VERTEX
  8
0
 10
 180.619669425249 
 20
 42.0724622269261 
 30
 9.43020359649922 
  0
VERTEX
  8
0
 10
 150.822369425249 
 20
 42.1036699528837 
 30
 9.47 
  0
VERTEX
  8
0
 10
 123.289112758582 
 20
 42.4143563968106 
 30
 9.54312541982163 
  0
VERTEX
  8
0
 10
 95.4558560919156 
 20
 42.0844928516866 
 30
 9.73592190728267 
  0
VERTEX
  8
0
 10
 67.6225994252489 
 20
 39.8035988790555 
 30
 10.19 
  0
VERTEX
  8
0
 10
 54.0035894252489 
 20
 37.6493748989641 
 30
 10.5423322753836 
  0
VERTEX
  8
0
 10
 40.0845794252489 
 20
 34.9081999522322 
 30
 10.969223829364 
  0
VERTEX
  8
0
 10
 26.1655694252489 
 20
 31.89335444689 
 30
 11.43 
  0
VERTEX
  8
0
 10
 26.1655694252489 
 20
 31.8733538288567 
 30
 11.43 
  0
SEQEND
  0
POLYLINE
  8
0
 66
     1
 10
0.0
 20
0.0
 30
0.0
  0
VERTEX
  8
0
 10
 23.4155694252489 
 20
 31.8733538288567 
 30
 14.46 
  0
VERTEX
  8
0
 10
 38.2522360919155 
 20
 28.9788350054838 
 30
 14.4342622033248 
  0
VERTEX
  8
0
 10
 53.0889027585822 
 20
 26.3308774569833 
 30
 14.4127904442264 
  0
VERTEX
  8
0
 10
 67.6255694252489 
 20
 24.2131171221072 
 30
 14.4 
  0
VERTEX
  8
0
 10
 95.4589027585822 
 20
 21.8995785508101 
 30
 14.4023742841911 
  0
VERTEX
  8
0
 10
 123.292236091916 
 20
 21.2555694252489 
 30
 14.4140469571214 
  0
VERTEX
  8
0
 10
 150.825569425249 
 20
 21.3630290523636 
 30
 14.4 
  0
VERTEX
  8
0
 10
 180.621802758582 
 20
 21.5878585549945 
 30
 14.3398774466998 
  0
VERTEX
  8
0
 10
 210.418036091916 
 20
 22.3399100510652 
 30
 14.3077888574167 
  0
VERTEX
  8
0
 10
 239.914269425249 
 20
 24.2931195942403 
 30
 14.4 
  0
VERTEX
  8
0
 10
 254.448036091916 
 20
 25.867648935235 
 30
 14.515145663399 
  0
VERTEX
  8
0
 10
 268.981802758582 
 20
 27.7464253512366 
 30
 14.665599709265 
  0
VERTEX
  8
0
 10
 283.215569425249 
 20
 29.7333541378733 
 30
 14.83 
  0
VERTEX
  8
0
 10
 283.215569425249 
 20
 34.0333541378733 
 30
 14.83 
  0
VERTEX
  8
0
 10
 268.981802758582 
 20
 36.0202829245101 
 30
 14.665599709265 
  0
VERTEX
  8
0
 10
 254.448036091916 
 20
 37.8990593405116 
 30
 14.515145663399 
  0
VERTEX
  8
0
 10
 239.914269425249 
 20
 39.4735886815063 
 30
 14.4 
  0
VERTEX
  8
0
 10
 210.418036091916 
 20
 41.4267982246814 
 30
 14.3077888574167 
  0
VERTEX
  8
0
 10
 180.621802758582 
 20
 42.1788497207521 
 30
 14.3398774466998 
  0
VERTEX
  8
0
 10
 150.825569425249 
 20
 42.403679223383 
 30
 14.4 
  0
VERTEX
  8
0
 10
 123.292236091916 
 20
 42.5111388504978 
 30
 14.4140469571214 
  0
VERTEX
  8
0
 10
 95.4589027585822 
 20
 41.8671297249366 
 30
 14.4023742841911 
  0
VERTEX
  8
0
 10
 67.6255694252489 
 20
 39.5535911536394 
 30
 14.4 
  0
VERTEX
  8
0
 10
 53.0889027585822 
 20
 37.4358308187634 
 30
 14.4127904442264 
  0
VERTEX
  8
0
 10
 38.2522360919155 
 20
 34.7878732702628 
 30
 14.4342622033248 
  0
VERTEX
  8
0
 10
 23.4155694252489 
 20
 31.89335444689 
 30
 14.46 
  0
VERTEX
  8
0
 10
 23.4155694252489 
 20
 31.8733538288567 
 30
 14.46 
  0
SEQEND
  0
POLYLINE
  8
0
 66
     1
 10
0.0
 20
0.0
 30
0.0
  0
VERTEX
  8
0
 10
 22.6255694252489 
 20
 31.8733538288567 
 30
 16.86 
  0
VERTEX
  8
0
 10
 37.7245794252489 
 20
 29.7884877367902 
 30
 17.6278285530505 
  0
VERTEX
  8
0
 10
 52.8235894252489 
 20
 27.8763990860478 
 30
 18.3399079157274 
  0
VERTEX
  8
0
 10
 67.6225994252489 
 20
 26.336515445596 
 30
 18.93 
  0
VERTEX
  8
0
 10
 95.4558560919156 
 20
 24.6319133919163 
 30
 19.6476518983201 
  0
VERTEX
  8
0
 10
 123.289112758582 
 20
 24.0922787433818 
 30
 19.9432227786811 
  0
VERTEX
  8
0
 10
 150.822369425249 
 20
 24.1314547636122 
 30
 19.96 
  0
VERTEX
  8
0
 10
 180.619669425249 
 20
 24.3410029451007 
 30
 19.7992650532839 
  0
VERTEX
  8
0
 10
 210.416969425249 
 20
 24.9306136581342 
 30
 19.4728723303168 
  0
VERTEX
  8
0
 10
 239.914269425249 
 20
 26.2595947241315 
 30
 18.98 
  0
VERTEX
  8
0
 10
 254.621369425249 
 20
 27.2907789974713 
 30
 18.6716921593333 
  0
VERTEX
  8
0
 10
 269.328469425249 
 20
 28.5051903604072 
 30
 18.3344062758152 
  0
VERTEX
  8
0
 10
 283.735569425249 
 20
 29.7833541378733 
 30
 17.99 
  0
VERTEX
  8
0
 10
 283.735569425249 
 20
 33.9833541378733 
 30
 17.99 
  0
VERTEX
  8
0
 10
 269.328469425249 
 20
 35.2615179153394 
 30
 18.3344062758152 
  0
VERTEX
  8
0
 10
 254.621369425249 
 20
 36.4759292782753 
 30
 18.6716921593333 
  0
VERTEX
  8
0
 10
 239.914269425249 
 20
 37.5071135516151 
 30
 18.98 
  0
VERTEX
  8
0
 10
 210.416969425249 
 20
 38.8360946176125 
 30
 19.4728723303168 
  0
VERTEX
  8
0
 10
 180.619669425249 
 20
 39.4257053306459 
 30
 19.7992650532839 
  0
VERTEX
  8
0
 10
 150.822369425249 
 20
 39.6352535121345 
 30
 19.96 
  0
VERTEX
  8
0
 10
 123.289112758582 
 20
 39.6744295323649 
 30
 19.9432227786811 
  0
VERTEX
  8
0
 10
 95.4558560919156 
 20
 39.1347948838303 
 30
 19.6476518983201 
  0
VERTEX
  8
0
 10
 67.6225994252489 
 20
 37.4301928301506 
 30
 18.93 
  0
VERTEX
  8
0
 10
 52.8235894252489 
 20
 35.8903091896989 
 30
 18.3399079157274 
  0
VERTEX
  8
0
 10
 37.7245794252489 
 20
 33.9782205389564 
 30
 17.6278285530505 
  0
VERTEX
  8
0
 10
 22.6255694252489 
 20
 31.89335444689 
 30
 16.86 
  0
VERTEX
  8
0
 10
 22.6255694252489 
 20
 31.8733538288567 
 30
 16.86 
  0
SEQEND
  0
POLYLINE
  8
0
 66
     1
 10
0.0
 20
0.0
 30
0.0
  0
VERTEX
  8
0
 10
 24.5755694252489 
 20
 31.8733538288567 
 30
 18.89 
  0
VERTEX
  8
0
 10
 39.0245794252489 
 20
 30.669059222461 
 30
 19.6500654994047 
  0
VERTEX
  8
0
 10
 53.4735894252489 
 20
 29.5805188247916 
 30
 20.3783166558433 
  0
VERTEX
  8
0
 10
 67.6225994252489 
 20
 28.738151304656 
 30
 21.03 
  0
VERTEX
  8
0
 10
 95.4558560919156 
 20
 27.925533661261 
 30
 22.0481656131117 
  0
VERTEX
  8
0
 10
 123.289112758582 
 20
 27.8825631029828 
 30
 22.6645776670001 
  0
VERTEX
  8
0
 10
 150.822369425249 
 20
 28.097312549921 
 30
 22.83 
  0
VERTEX
  8
0
 10
 180.619669425249 
 20
 28.1972029030641 
 30
 22.5044859284753 
  0
VERTEX
  8
0
 10
 210.416969425249 
 20
 28.3069964047117 
 30
 21.8411140040915 
  0
VERTEX
  8
0
 10
 239.914269425249 
 20
 28.7106632752225 
 30
 21.084 
  0
VERTEX
  8
0
 10
 254.708036091916 
 20
 29.0984441604618 
 30
 20.7323872493831 
  0
VERTEX
  8
0
 10
 269.501802758582 
 20
 29.5825368062999 
 30
 20.4025807723191 
  0
VERTEX
  8
0
 10
 283.995569425249 
 20
 30.1033541378733 
 30
 20.09 
  0
VERTEX
  8
0
 10
 283.995569425249 
 20
 33.6633541378733 
 30
 20.09 
  0
VERTEX
  8
0
 10
 269.501802758582 
 20
 34.1841714694468 
 30
 20.4025807723191 
  0
VERTEX
  8
0
 10
 254.708036091916 
 20
 34.6682641152848 
 30
 20.7323872493831 
  0
VERTEX
  8
0
 10
 239.914269425249 
 20
 35.0560450005241 
 30
 21.084 
  0
VERTEX
  8
0
 10
 210.416969425249 
 20
 35.4597118710349 
 30
 21.8411140040915 
  0
VERTEX
  8
0
 10
 180.619669425249 
 20
 35.5695053726825 
 30
 22.5044859284753 
  0
VERTEX
  8
0
 10
 150.822369425249 
 20
 35.6693957258257 
 30
 22.83 
  0
VERTEX
  8
0
 10
 123.289112758582 
 20
 35.8841451727639 
 30
 22.6645776670001 
  0
VERTEX
  8
0
 10
 95.4558560919156 
 20
 35.8411746144857 
 30
 22.0481656131117 
  0
VERTEX
  8
0
 10
 67.6225994252489 
 20
 35.0285569710906 
 30
 21.03 
  0
VERTEX
  8
0
 10
 53.4735894252489 
 20
 34.1861894509551 
 30
 20.3783166558433 
  0
VERTEX
  8
0
 10
 39.0245794252489 
 20
 33.0976490532856 
 30
 19.6500654994047 
  0
VERTEX
  8
0
 10
 24.5755694252489 
 20
 31.89335444689 
 30
 18.89 
  0
VERTEX
  8
0
 10
 24.5755694252489 
 20
 31.8733538288567 
 30
 18.89 
  0
SEQEND
  0
POLYLINE
  8
0
 66
     1
 10
0.0
 20
0.0
 30
0.0
  0
VERTEX
  8
0
 10
 33.1655694252489 
 20
 31.8733538288567 
 30
 20.21 
  0
VERTEX
  8
0
 10
 44.7522360919155 
 20
 31.8764058733507 
 30
 20.7673850041518 
  0
VERTEX
  8
0
 10
 56.3389027585822 
 20
 31.8796953168936 
 30
 21.3047835858218 
  0
VERTEX
  8
0
 10
 67.6255694252489 
 20
 31.8833541378733 
 30
 21.79 
  0
VERTEX
  8
0
 10
 95.4589027585822 
 20
 31.8933763205172 
 30
 22.7508897203589 
  0
VERTEX
  8
0
 10
 123.292236091916 
 20
 31.8968310284799 
 30
 23.3554889643246 
  0
VERTEX
  8
0
 10
 150.825569425249 
 20
 31.8833541378733 
 30
 23.59 
  0
VERTEX
  8
0
 10
 180.621802758582 
 20
 31.8454372827511 
 30
 23.4533685970818 
  0
VERTEX
  8
0
 10
 210.418036091916 
 20
 31.8080678822922 
 30
 23.0533684779073 
  0
VERTEX
  8
0
 10
 239.914269425249 
 20
 31.8033541378733 
 30
 22.57 
  0
VERTEX
  8
0
 10
 254.708036091916 
 20
 31.8214177536004 
 30
 22.343664703261 
  0
VERTEX
  8
0
 10
 269.501802758582 
 20
 31.8501090162944 
 30
 22.131302873357 
  0
VERTEX
  8
0
 10
 283.995569425249 
 20
 31.8833541378733 
 30
 21.93 
  0
VERTEX
  8
0
 10
 283.995569425249 
 20
 31.8833541378733 
 30
 21.93 
  0
VERTEX
  8
0
 10
 269.501802758582 
 20
 31.9165992594522 
 30
 22.131302873357 
  0
VERTEX
  8
0
 10
 254.708036091916 
 20
 31.9452905221462 
 30
 22.343664703261 
  0
VERTEX
  8
0
 10
 239.914269425249 
 20
 31.9633541378733 
 30
 22.57 
  0
VERTEX
  8
0
 10
 210.418036091916 
 20
 31.9586403934544 
 30
 23.0533684779073 
  0
VERTEX
  8
0
 10
 180.621802758582 
 20
 31.9212709929955 
 30
 23.4533685970818 
  0
VERTEX
  8
0
 10
 150.825569425249 
 20
 31.8833541378733 
 30
 23.59 
  0
VERTEX
  8
0
 10
 123.292236091916 
 20
 31.8698772472667 
 30
 23.3554889643246 
  0
VERTEX
  8
0
 10
 95.4589027585822 
 20
 31.8733319552295 
 30
 22.7508897203589 
  0
VERTEX
  8
0
 10
 67.6255694252489 
 20
 31.8833541378733 
 30
 21.79 
  0
VERTEX
  8
0
 10
 56.3389027585822 
 20
 31.887012958853 
 30
 21.3047835858218 
  0
VERTEX
  8
0
 10
 44.7522360919155 
 20
 31.8903024023959 
 30
 20.7673850041518 
  0
VERTEX
  8
0
 10
 33.1655694252489 
 20
 31.89335444689 
 30
 20.21 
  0
VERTEX
  8
0
 10
 33.1655694252489 
 20
 31.8733538288567 
 30
 20.21 
  0
SEQEND
  0
ENDSEC
  0
EOF
