  0
SECTION
  2
ENTITIES
  0
POLYLINE
  8
0
 66
     1
 10
0.0
 20
0.0
 30
0.0
  0
VERTEX
  8
0
 10
-5.48277271381882E-03 
 20
 20.2092576484799 
 30
 11.9069444479905 
  0
VERTEX
  8
0
 10
-.03 
 20
 19.04 
 30
 3.32 
  0
VERTEX
  8
0
 10
-3.75178492412043E-03 
 20
 16.86 
 30
 1.37 
  0
VERTEX
  8
0
 10
-.01 
 20
 13.81 
 30
 2.16 
  0
VERTEX
  8
0
 10
-3.75178492412043E-03 
 20
 11.43 
 30
 4.91 
  0
VERTEX
  8
0
 10
-3.75178492412043E-03 
 20
 7.86593493238553 
 30
 10.0525011850269 
  0
VERTEX
  8
0
 10
-6.97273148187247E-03 
 20
 5.4 
 30
 15.63 
  0
VERTEX
  8
0
 10
-6.65498697738147E-03 
 20
 2.61776061776063 
 30
 27.0487254939428 
  0
VERTEX
  8
0
 10
 6.65498697738147E-03 
 20
 2.61776061776063 
 30
 27.0487254939428 
  0
VERTEX
  8
0
 10
 6.97273148187247E-03 
 20
 5.4 
 30
 15.63 
  0
VERTEX
  8
0
 10
 3.75178492412043E-03 
 20
 7.86593493238553 
 30
 10.0525011850269 
  0
VERTEX
  8
0
 10
 3.75178492412043E-03 
 20
 11.43 
 30
 4.91 
  0
VERTEX
  8
0
 10
 .01 
 20
 13.81 
 30
 2.16 
  0
VERTEX
  8
0
 10
 3.75178492412043E-03 
 20
 16.86 
 30
 1.37 
  0
VERTEX
  8
0
 10
 .03 
 20
 19.04 
 30
 3.32 
  0
VERTEX
  8
0
 10
 5.48277271381882E-03 
 20
 20.2092576484799 
 30
 11.9069444479905 
  0
SEQEND
  0
POLYLINE
  8
0
 66
     1
 10
0.0
 20
0.0
 30
0.0
  0
VERTEX
  8
0
 10
 0 
 20
 21.79 
 30
 46.36703 
  0
VERTEX
  8
0
 10
-3.14510564421812 
 20
 21.03 
 30
 46.36703 
  0
VERTEX
  8
0
 10
-5.54666729102598 
 20
 18.93 
 30
 46.36703 
  0
VERTEX
  8
0
 10
-7.65 
 20
 14.48 
 30
 46.37 
  0
VERTEX
  8
0
 10
-7.92 
 20
 10.19 
 30
 46.36703 
  0
VERTEX
  8
0
 10
-5.05 
 20
 4.84 
 30
 46.36703 
  0
VERTEX
  8
0
 10
-1.99133047582289 
 20
 2.86 
 30
 46.36703 
  0
VERTEX
  8
0
 10
 0 
 20
 1.6 
 30
 46.36703 
  0
VERTEX
  8
0
 10
 0 
 20
 1.6 
 30
 46.36703 
  0
VERTEX
  8
0
 10
 1.99133047582289 
 20
 2.86 
 30
 46.36703 
  0
VERTEX
  8
0
 10
 5.05 
 20
 4.84 
 30
 46.36703 
  0
VERTEX
  8
0
 10
 7.92 
 20
 10.19 
 30
 46.36703 
  0
VERTEX
  8
0
 10
 7.65 
 20
 14.48 
 30
 46.37 
  0
VERTEX
  8
0
 10
 5.54666729102598 
 20
 18.93 
 30
 46.36703 
  0
VERTEX
  8
0
 10
 3.14510564421812 
 20
 21.03 
 30
 46.36703 
  0
VERTEX
  8
0
 10
 0 
 20
 21.79 
 30
 46.36703 
  0
SEQEND
  0
POLYLINE
  8
0
 66
     1
 10
0.0
 20
0.0
 30
0.0
  0
VERTEX
  8
0
 10
 0 
 20
 23.59 
 30
 129.5668 
  0
VERTEX
  8
0
 10
-5.7 
 20
 22.94 
 30
 129.5668 
  0
VERTEX
  8
0
 10
-9.59 
 20
 20.24 
 30
 129.5668 
  0
VERTEX
  8
0
 10
-12.16 
 20
 14.94 
 30
 129.57 
  0
VERTEX
  8
0
 10
-12.56 
 20
 9.37 
 30
 129.5668 
  0
VERTEX
  8
0
 10
-8.41 
 20
 2.85 
 30
 129.5668 
  0
VERTEX
  8
0
 10
-3.62 
 20
 .97 
 30
 129.5668 
  0
VERTEX
  8
0
 10
 0 
 20
 .88 
 30
 129.5668 
  0
VERTEX
  8
0
 10
 0 
 20
 .88 
 30
 129.5668 
  0
VERTEX
  8
0
 10
 3.62 
 20
 .97 
 30
 129.5668 
  0
VERTEX
  8
0
 10
 8.41 
 20
 2.85 
 30
 129.5668 
  0
VERTEX
  8
0
 10
 12.56 
 20
 9.37 
 30
 129.5668 
  0
VERTEX
  8
0
 10
 12.16 
 20
 14.94 
 30
 129.57 
  0
VERTEX
  8
0
 10
 9.59 
 20
 20.24 
 30
 129.5668 
  0
VERTEX
  8
0
 10
 5.7 
 20
 22.94 
 30
 129.5668 
  0
VERTEX
  8
0
 10
 0 
 20
 23.59 
 30
 129.5668 
  0
SEQEND
  0
POLYLINE
  8
0
 66
     1
 10
0.0
 20
0.0
 30
0.0
  0
VERTEX
  8
0
 10
 0 
 20
 21.6 
 30
 218.56 
  0
VERTEX
  8
0
 10
-3.17259282425198 
 20
 21.084 
 30
 218.56 
  0
VERTEX
  8
0
 10
-5.62358563558566 
 20
 18.98 
 30
 218.56 
  0
VERTEX
  8
0
 10
-7.59 
 20
 14.41 
 30
 218.56 
  0
VERTEX
  8
0
 10
-7.96 
 20
 10.19 
 30
 218.56 
  0
VERTEX
  8
0
 10
-4.93986701727738 
 20
 4.9 
 30
 218.56 
  0
VERTEX
  8
0
 10
-2.22 
 20
 3.24 
 30
 218.56 
  0
VERTEX
  8
0
 10
 0 
 20
 2.4 
 30
 218.56 
  0
VERTEX
  8
0
 10
 0 
 20
 2.4 
 30
 218.56 
  0
VERTEX
  8
0
 10
 2.22 
 20
 3.24 
 30
 218.56 
  0
VERTEX
  8
0
 10
 4.93986701727738 
 20
 4.9 
 30
 218.56 
  0
VERTEX
  8
0
 10
 7.96 
 20
 10.19 
 30
 218.56 
  0
VERTEX
  8
0
 10
 7.59 
 20
 14.41 
 30
 218.56 
  0
VERTEX
  8
0
 10
 5.62358563558566 
 20
 18.98 
 30
 218.56 
  0
VERTEX
  8
0
 10
 3.17259282425198 
 20
 21.084 
 30
 218.56 
  0
VERTEX
  8
0
 10
 0 
 20
 21.6 
 30
 218.56 
  0
SEQEND
  0
POLYLINE
  8
0
 66
     1
 10
0.0
 20
0.0
 30
0.0
  0
VERTEX
  8
0
 10
 0 
 20
 18.54 
 30
 264.2 
  0
VERTEX
  8
0
 10
-.03 
 20
 19.04 
 30
 263.747773913708 
  0
VERTEX
  8
0
 10
-1.55 
 20
 17.38 
 30
 264 
  0
VERTEX
  8
0
 10
-3.14 
 20
 14.12 
 30
 262.82 
  0
VERTEX
  8
0
 10
-3.46 
 20
 10.84 
 30
 261.51 
  0
VERTEX
  8
0
 10
-1.52 
 20
 7.01 
 30
 258.61 
  0
VERTEX
  8
0
 10
 0 
 20
 5.87 
 30
 254.13 
  0
VERTEX
  8
0
 10
-2.78909259274899E-02 
 20
 4.29 
 30
 248.6 
  0
VERTEX
  8
0
 10
 2.78909259274899E-02 
 20
 4.29 
 30
 248.6 
  0
VERTEX
  8
0
 10
 0 
 20
 5.87 
 30
 254.13 
  0
VERTEX
  8
0
 10
 1.52 
 20
 7.01 
 30
 258.61 
  0
VERTEX
  8
0
 10
 3.46 
 20
 10.84 
 30
 261.51 
  0
VERTEX
  8
0
 10
 3.14 
 20
 14.12 
 30
 262.82 
  0
VERTEX
  8
0
 10
 1.55 
 20
 17.38 
 30
 264 
  0
VERTEX
  8
0
 10
 .03 
 20
 19.04 
 30
 263.747773913708 
  0
VERTEX
  8
0
 10
 0 
 20
 18.54 
 30
 264.2 
  0
SEQEND
  0
POLYLINE
  8
0
 66
     1
 10
0.0
 20
0.0
 30
0.0
  0
VERTEX
  8
0
 10
-6.65498697738147E-03 
 20
 2.61776061776063 
 30
 27.0487254939428 
  0
VERTEX
  8
0
 10
-4.13460336396369E-03 
 20
 2.24770229905577 
 30
 33.5881603292952 
  0
VERTEX
  8
0
 10
-1.82201887662672E-03 
 20
 1.89747332890721 
 30
 40.1275951646476 
  0
VERTEX
  8
0
 10
 0 
 20
 1.6 
 30
 46.36703 
  0
VERTEX
  8
0
 10
 2.53027730457571E-03 
 20
 .84190889662385 
 30
 74.2002866666667 
  0
VERTEX
  8
0
 10
 3.89845278622201E-04 
 20
 .738034847798596 
 30
 102.033543333333 
  0
VERTEX
  8
0
 10
 0 
 20
 .88 
 30
 129.5668 
  0
VERTEX
  8
0
 10
 5.56446850924207E-03 
 20
 1.00415106895868 
 30
 159.3312 
  0
VERTEX
  8
0
 10
 9.23882874158862E-03 
 20
 1.374597536501 
 30
 189.0956 
  0
VERTEX
  8
0
 10
 0 
 20
 2.4 
 30
 218.56 
  0
VERTEX
  8
0
 10
-7.86256939674327E-03 
 20
 2.96756637469309 
 30
 228.673333333333 
  0
VERTEX
  8
0
 10
-1.75798481369068E-02 
 20
 3.61859333678447 
 30
 238.786666666667 
  0
VERTEX
  8
0
 10
-2.78909259274899E-02 
 20
 4.29 
 30
 248.6 
  0
VERTEX
  8
0
 10
 2.78909259274899E-02 
 20
 4.29 
 30
 248.6 
  0
VERTEX
  8
0
 10
 1.75798481369068E-02 
 20
 3.61859333678447 
 30
 238.786666666667 
  0
VERTEX
  8
0
 10
 7.86256939674327E-03 
 20
 2.96756637469309 
 30
 228.673333333333 
  0
VERTEX
  8
0
 10
 0 
 20
 2.4 
 30
 218.56 
  0
VERTEX
  8
0
 10
-9.23882874158862E-03 
 20
 1.374597536501 
 30
 189.0956 
  0
VERTEX
  8
0
 10
-5.56446850924207E-03 
 20
 1.00415106895868 
 30
 159.3312 
  0
VERTEX
  8
0
 10
 0 
 20
 .88 
 30
 129.5668 
  0
VERTEX
  8
0
 10
-3.89845278622201E-04 
 20
 .738034847798596 
 30
 102.033543333333 
  0
VERTEX
  8
0
 10
-2.53027730457571E-03 
 20
 .84190889662385 
 30
 74.2002866666667 
  0
VERTEX
  8
0
 10
 0 
 20
 1.6 
 30
 46.36703 
  0
VERTEX
  8
0
 10
 1.82201887662672E-03 
 20
 1.89747332890721 
 30
 40.1275951646476 
  0
VERTEX
  8
0
 10
 4.13460336396369E-03 
 20
 2.24770229905577 
 30
 33.5881603292952 
  0
VERTEX
  8
0
 10
 6.65498697738147E-03 
 20
 2.61776061776063 
 30
 27.0487254939428 
  0
VERTEX
  8
0
 10
-6.65498697738147E-03 
 20
 2.61776061776063 
 30
 27.0487254939428 
  0
SEQEND
  0
POLYLINE
  8
0
 66
     1
 10
0.0
 20
0.0
 30
0.0
  0
VERTEX
  8
0
 10
-6.97273148187247E-03 
 20
 5.4 
 30
 15.63 
  0
VERTEX
  8
0
 10
-.729738639759957 
 20
 4.47422473481038 
 30
 25.9756766666667 
  0
VERTEX
  8
0
 10
-1.41045132981652 
 20
 3.60275860077525 
 30
 36.3213533333333 
  0
VERTEX
  8
0
 10
-1.99133047582289 
 20
 2.86 
 30
 46.36703 
  0
VERTEX
  8
0
 10
-3.05158486685331 
 20
 1.51696896387516 
 30
 74.2002866666667 
  0
VERTEX
  8
0
 10
-3.49789690342489 
 20
 1.0009392802311 
 30
 102.033543333333 
  0
VERTEX
  8
0
 10
-3.62 
 20
 .97 
 30
 129.5668 
  0
VERTEX
  8
0
 10
-3.60896330847211 
 20
 1.20470104089597 
 30
 159.3312 
  0
VERTEX
  8
0
 10
-3.24210135460665 
 20
 1.87805138711242 
 30
 189.0956 
  0
VERTEX
  8
0
 10
-2.22 
 20
 3.24 
 30
 218.56 
  0
VERTEX
  8
0
 10
-1.56046991921001 
 20
 4.03811460186185 
 30
 230.516666666667 
  0
VERTEX
  8
0
 10
-.795831586105236 
 20
 4.94040990975313 
 30
 242.473333333333 
  0
VERTEX
  8
0
 10
 0 
 20
 5.87 
 30
 254.13 
  0
VERTEX
  8
0
 10
 0 
 20
 5.87 
 30
 254.13 
  0
VERTEX
  8
0
 10
 .795831586105236 
 20
 4.94040990975313 
 30
 242.473333333333 
  0
VERTEX
  8
0
 10
 1.56046991921001 
 20
 4.03811460186185 
 30
 230.516666666667 
  0
VERTEX
  8
0
 10
 2.22 
 20
 3.24 
 30
 218.56 
  0
VERTEX
  8
0
 10
 3.24210135460665 
 20
 1.87805138711242 
 30
 189.0956 
  0
VERTEX
  8
0
 10
 3.60896330847211 
 20
 1.20470104089597 
 30
 159.3312 
  0
VERTEX
  8
0
 10
 3.62 
 20
 .97 
 30
 129.5668 
  0
VERTEX
  8
0
 10
 3.49789690342489 
 20
 1.0009392802311 
 30
 102.033543333333 
  0
VERTEX
  8
0
 10
 3.05158486685331 
 20
 1.51696896387516 
 30
 74.2002866666667 
  0
VERTEX
  8
0
 10
 1.99133047582289 
 20
 2.86 
 30
 46.36703 
  0
VERTEX
  8
0
 10
 1.41045132981652 
 20
 3.60275860077525 
 30
 36.3213533333333 
  0
VERTEX
  8
0
 10
 .729738639759957 
 20
 4.47422473481038 
 30
 25.9756766666667 
  0
VERTEX
  8
0
 10
 6.97273148187247E-03 
 20
 5.4 
 30
 15.63 
  0
VERTEX
  8
0
 10
-6.97273148187247E-03 
 20
 5.4 
 30
 15.63 
  0
SEQEND
  0
POLYLINE
  8
0
 66
     1
 10
0.0
 20
0.0
 30
0.0
  0
VERTEX
  8
0
 10
-3.75178492412043E-03 
 20
 7.86593493238553 
 30
 10.0525011850269 
  0
VERTEX
  8
0
 10
-1.84789446122822 
 20
 6.75895973874574 
 30
 22.2573441233513 
  0
VERTEX
  8
0
 10
-3.57883579363165 
 20
 5.72074520750455 
 30
 34.4621870616756 
  0
VERTEX
  8
0
 10
-5.05 
 20
 4.84 
 30
 46.36703 
  0
VERTEX
  8
0
 10
-7.35121807355911 
 20
 3.47082114743363 
 30
 74.2002866666667 
  0
VERTEX
  8
0
 10
-8.32799015609736 
 20
 2.8973746367849 
 30
 102.033543333333 
  0
VERTEX
  8
0
 10
-8.41 
 20
 2.85 
 30
 129.5668 
  0
VERTEX
  8
0
 10
-7.88924277449499 
 20
 3.14558431995165 
 30
 159.3312 
  0
VERTEX
  8
0
 10
-6.75031387976164 
 20
 3.81028019404764 
 30
 189.0956 
  0
VERTEX
  8
0
 10
-4.93986701727738 
 20
 4.9 
 30
 218.56 
  0
VERTEX
  8
0
 10
-3.87744818981216 
 20
 5.55177788286357 
 30
 232.01 
  0
VERTEX
  8
0
 10
-2.71080850431162 
 20
 6.27235825487341 
 30
 245.46 
  0
VERTEX
  8
0
 10
-1.52 
 20
 7.01 
 30
 258.61 
  0
VERTEX
  8
0
 10
 1.52 
 20
 7.01 
 30
 258.61 
  0
VERTEX
  8
0
 10
 2.71080850431162 
 20
 6.27235825487341 
 30
 245.46 
  0
VERTEX
  8
0
 10
 3.87744818981216 
 20
 5.55177788286357 
 30
 232.01 
  0
VERTEX
  8
0
 10
 4.93986701727738 
 20
 4.9 
 30
 218.56 
  0
VERTEX
  8
0
 10
 6.75031387976164 
 20
 3.81028019404764 
 30
 189.0956 
  0
VERTEX
  8
0
 10
 7.88924277449499 
 20
 3.14558431995165 
 30
 159.3312 
  0
VERTEX
  8
0
 10
 8.41 
 20
 2.85 
 30
 129.5668 
  0
VERTEX
  8
0
 10
 8.32799015609736 
 20
 2.8973746367849 
 30
 102.033543333333 
  0
VERTEX
  8
0
 10
 7.35121807355911 
 20
 3.47082114743363 
 30
 74.2002866666667 
  0
VERTEX
  8
0
 10
 5.05 
 20
 4.84 
 30
 46.36703 
  0
VERTEX
  8
0
 10
 3.57883579363165 
 20
 5.72074520750455 
 30
 34.4621870616756 
  0
VERTEX
  8
0
 10
 1.84789446122822 
 20
 6.75895973874574 
 30
 22.2573441233513 
  0
VERTEX
  8
0
 10
 3.75178492412043E-03 
 20
 7.86593493238553 
 30
 10.0525011850269 
  0
VERTEX
  8
0
 10
-3.75178492412043E-03 
 20
 7.86593493238553 
 30
 10.0525011850269 
  0
SEQEND
  0
POLYLINE
  8
0
 66
     1
 10
0.0
 20
0.0
 30
0.0
  0
VERTEX
  8
0
 10
-3.75178492412043E-03 
 20
 11.43 
 30
 4.91 
  0
VERTEX
  8
0
 10
-2.91271099977813 
 20
 10.9786796381406 
 30
 18.82901 
  0
VERTEX
  8
0
 10
-5.63025099306836 
 20
 10.5540359387378 
 30
 32.74802 
  0
VERTEX
  8
0
 10
-7.92 
 20
 10.19 
 30
 46.36703 
  0
VERTEX
  8
0
 10
-11.0499485316913 
 20
 9.66576336556983 
 30
 74.2002866666667 
  0
VERTEX
  8
0
 10
-12.4216752948916 
 20
 9.40927384025878 
 30
 102.033543333333 
  0
VERTEX
  8
0
 10
-12.56 
 20
 9.37 
 30
 129.5668 
  0
VERTEX
  8
0
 10
-11.8270257730769 
 20
 9.51386699543228 
 30
 159.3312 
  0
VERTEX
  8
0
 10
-10.2808026885102 
 20
 9.80403609702474 
 30
 189.0956 
  0
VERTEX
  8
0
 10
-7.96 
 20
 10.19 
 30
 218.56 
  0
VERTEX
  8
0
 10
-6.55144071152737 
 20
 10.4011846249957 
 30
 232.976666666667 
  0
VERTEX
  8
0
 10
-5.0195532636708 
 20
 10.620834225097 
 30
 247.393333333333 
  0
VERTEX
  8
0
 10
-3.46 
 20
 10.84 
 30
 261.51 
  0
VERTEX
  8
0
 10
 3.46 
 20
 10.84 
 30
 261.51 
  0
VERTEX
  8
0
 10
 5.0195532636708 
 20
 10.620834225097 
 30
 247.393333333333 
  0
VERTEX
  8
0
 10
 6.55144071152737 
 20
 10.4011846249957 
 30
 232.976666666667 
  0
VERTEX
  8
0
 10
 7.96 
 20
 10.19 
 30
 218.56 
  0
VERTEX
  8
0
 10
 10.2808026885102 
 20
 9.80403609702474 
 30
 189.0956 
  0
VERTEX
  8
0
 10
 11.8270257730769 
 20
 9.51386699543228 
 30
 159.3312 
  0
VERTEX
  8
0
 10
 12.56 
 20
 9.37 
 30
 129.5668 
  0
VERTEX
  8
0
 10
 12.4216752948916 
 20
 9.40927384025878 
 30
 102.033543333333 
  0
VERTEX
  8
0
 10
 11.0499485316913 
 20
 9.66576336556983 
 30
 74.2002866666667 
  0
VERTEX
  8
0
 10
 7.92 
 20
 10.19 
 30
 46.36703 
  0
VERTEX
  8
0
 10
 5.63025099306836 
 20
 10.5540359387378 
 30
 32.74802 
  0
VERTEX
  8
0
 10
 2.91271099977813 
 20
 10.9786796381406 
 30
 18.82901 
  0
VERTEX
  8
0
 10
 3.75178492412043E-03 
 20
 11.43 
 30
 4.91 
  0
VERTEX
  8
0
 10
-3.75178492412043E-03 
 20
 11.43 
 30
 4.91 
  0
SEQEND
  0
POLYLINE
  8
0
 66
     1
 10
0.0
 20
0.0
 30
0.0
  0
VERTEX
  8
0
 10
-.01 
 20
 13.81 
 30
 2.16 
  0
VERTEX
  8
0
 10
-2.81154026546286 
 20
 14.0514542467601 
 30
 16.9966666666667 
  0
VERTEX
  8
0
 10
-5.43215163667067 
 20
 14.2802633095032 
 30
 31.8333333333333 
  0
VERTEX
  8
0
 10
-7.65 
 20
 14.48 
 30
 46.37 
  0
VERTEX
  8
0
 10
-10.5670103263173 
 20
 14.7653523498839 
 30
 74.2033333333333 
  0
VERTEX
  8
0
 10
-11.9487410461639 
 20
 14.9184199163284 
 30
 102.036666666667 
  0
VERTEX
  8
0
 10
-12.16 
 20
 14.94 
 30
 129.57 
  0
VERTEX
  8
0
 10
-11.4427799955245 
 20
 14.828907922443 
 30
 159.333333333333 
  0
VERTEX
  8
0
 10
-9.8812703837601 
 20
 14.6304627859531 
 30
 189.096666666667 
  0
VERTEX
  8
0
 10
-7.59 
 20
 14.41 
 30
 218.56 
  0
VERTEX
  8
0
 10
-6.1882282422283 
 20
 14.3074299410774 
 30
 233.413333333333 
  0
VERTEX
  8
0
 10
-4.67562209329271 
 20
 14.211208984232 
 30
 248.266666666667 
  0
VERTEX
  8
0
 10
-3.14 
 20
 14.12 
 30
 262.82 
  0
VERTEX
  8
0
 10
 3.14 
 20
 14.12 
 30
 262.82 
  0
VERTEX
  8
0
 10
 4.67562209329271 
 20
 14.211208984232 
 30
 248.266666666667 
  0
VERTEX
  8
0
 10
 6.1882282422283 
 20
 14.3074299410774 
 30
 233.413333333333 
  0
VERTEX
  8
0
 10
 7.59 
 20
 14.41 
 30
 218.56 
  0
VERTEX
  8
0
 10
 9.8812703837601 
 20
 14.6304627859531 
 30
 189.096666666667 
  0
VERTEX
  8
0
 10
 11.4427799955245 
 20
 14.828907922443 
 30
 159.333333333333 
  0
VERTEX
  8
0
 10
 12.16 
 20
 14.94 
 30
 129.57 
  0
VERTEX
  8
0
 10
 11.9487410461639 
 20
 14.9184199163284 
 30
 102.036666666667 
  0
VERTEX
  8
0
 10
 10.5670103263173 
 20
 14.7653523498839 
 30
 74.2033333333333 
  0
VERTEX
  8
0
 10
 7.65 
 20
 14.48 
 30
 46.37 
  0
VERTEX
  8
0
 10
 5.43215163667067 
 20
 14.2802633095032 
 30
 31.8333333333333 
  0
VERTEX
  8
0
 10
 2.81154026546286 
 20
 14.0514542467601 
 30
 16.9966666666667 
  0
VERTEX
  8
0
 10
 .01 
 20
 13.81 
 30
 2.16 
  0
VERTEX
  8
0
 10
-.01 
 20
 13.81 
 30
 2.16 
  0
SEQEND
  0
POLYLINE
  8
0
 66
     1
 10
0.0
 20
0.0
 30
0.0
  0
VERTEX
  8
0
 10
-3.75178492412043E-03 
 20
 16.86 
 30
 1.37 
  0
VERTEX
  8
0
 10
-2.00237626834787 
 20
 17.6168391451918 
 30
 16.46901 
  0
VERTEX
  8
0
 10
-3.89543213194454 
 20
 18.3262954148621 
 30
 31.56802 
  0
VERTEX
  8
0
 10
-5.54666729102598 
 20
 18.93 
 30
 46.36703 
  0
VERTEX
  8
0
 10
-7.87561058398782 
 20
 19.7268714884514 
 30
 74.2002866666667 
  0
VERTEX
  8
0
 10
-9.20126958696567 
 20
 20.1335968696905 
 30
 102.033543333333 
  0
VERTEX
  8
0
 10
-9.59 
 20
 20.24 
 30
 129.5668 
  0
VERTEX
  8
0
 10
-9.06278919100314 
 20
 20.1010779016202 
 30
 159.3312 
  0
VERTEX
  8
0
 10
-7.68394389228507 
 20
 19.6885967266665 
 30
 189.0956 
  0
VERTEX
  8
0
 10
-5.62358563558566 
 20
 18.98 
 30
 218.56 
  0
VERTEX
  8
0
 10
-4.33762076970312 
 20
 18.4915899434276 
 30
 233.806666666667 
  0
VERTEX
  8
0
 10
-2.95385200741361 
 20
 17.9445854306963 
 30
 249.053333333333 
  0
VERTEX
  8
0
 10
-1.55 
 20
 17.38 
 30
 264 
  0
VERTEX
  8
0
 10
 1.55 
 20
 17.38 
 30
 264 
  0
VERTEX
  8
0
 10
 2.95385200741361 
 20
 17.9445854306963 
 30
 249.053333333333 
  0
VERTEX
  8
0
 10
 4.33762076970312 
 20
 18.4915899434276 
 30
 233.806666666667 
  0
VERTEX
  8
0
 10
 5.62358563558566 
 20
 18.98 
 30
 218.56 
  0
VERTEX
  8
0
 10
 7.68394389228507 
 20
 19.6885967266665 
 30
 189.0956 
  0
VERTEX
  8
0
 10
 9.06278919100314 
 20
 20.1010779016202 
 30
 159.3312 
  0
VERTEX
  8
0
 10
 9.59 
 20
 20.24 
 30
 129.5668 
  0
VERTEX
  8
0
 10
 9.20126958696567 
 20
 20.1335968696905 
 30
 102.033543333333 
  0
VERTEX
  8
0
 10
 7.87561058398782 
 20
 19.7268714884514 
 30
 74.2002866666667 
  0
VERTEX
  8
0
 10
 5.54666729102598 
 20
 18.93 
 30
 46.36703 
  0
VERTEX
  8
0
 10
 3.89543213194454 
 20
 18.3262954148621 
 30
 31.56802 
  0
VERTEX
  8
0
 10
 2.00237626834787 
 20
 17.6168391451918 
 30
 16.46901 
  0
VERTEX
  8
0
 10
 3.75178492412043E-03 
 20
 16.86 
 30
 1.37 
  0
VERTEX
  8
0
 10
-3.75178492412043E-03 
 20
 16.86 
 30
 1.37 
  0
SEQEND
  0
POLYLINE
  8
0
 66
     1
 10
0.0
 20
0.0
 30
0.0
  0
VERTEX
  8
0
 10
-.03 
 20
 19.04 
 30
 3.32 
  0
VERTEX
  8
0
 10
-1.1465826516842 
 20
 19.7410723071048 
 30
 17.76901 
  0
VERTEX
  8
0
 10
-2.20909301339187 
 20
 20.4169160218322 
 30
 32.21802 
  0
VERTEX
  8
0
 10
-3.14510564421812 
 20
 21.03 
 30
 46.36703 
  0
VERTEX
  8
0
 10
-4.55692741241068 
 20
 22.0237090934242 
 30
 74.2002866666667 
  0
VERTEX
  8
0
 10
-5.39928007388033 
 20
 22.6800336691741 
 30
 102.033543333333 
  0
VERTEX
  8
0
 10
-5.7 
 20
 22.94 
 30
 129.5668 
  0
VERTEX
  8
0
 10
-5.45342073794113 
 20
 22.743411990773 
 30
 159.3312 
  0
VERTEX
  8
0
 10
-4.60877625754049 
 20
 22.0975483005026 
 30
 189.0956 
  0
VERTEX
  8
0
 10
-3.17259282425198 
 20
 21.084 
 30
 218.56 
  0
VERTEX
  8
0
 10
-2.20654355731741 
 20
 20.4424491396347 
 30
 233.722591304569 
  0
VERTEX
  8
0
 10
-1.13352427320984 
 20
 19.7473071632305 
 30
 248.885182609139 
  0
VERTEX
  8
0
 10
-.03 
 20
 19.04 
 30
 263.747773913708 
  0
VERTEX
  8
0
 10
 .03 
 20
 19.04 
 30
 263.747773913708 
  0
VERTEX
  8
0
 10
 1.13352427320984 
 20
 19.7473071632305 
 30
 248.885182609139 
  0
VERTEX
  8
0
 10
 2.20654355731741 
 20
 20.4424491396347 
 30
 233.722591304569 
  0
VERTEX
  8
0
 10
 3.17259282425198 
 20
 21.084 
 30
 218.56 
  0
VERTEX
  8
0
 10
 4.60877625754049 
 20
 22.0975483005026 
 30
 189.0956 
  0
VERTEX
  8
0
 10
 5.45342073794113 
 20
 22.743411990773 
 30
 159.3312 
  0
VERTEX
  8
0
 10
 5.7 
 20
 22.94 
 30
 129.5668 
  0
VERTEX
  8
0
 10
 5.39928007388033 
 20
 22.6800336691741 
 30
 102.033543333333 
  0
VERTEX
  8
0
 10
 4.55692741241068 
 20
 22.0237090934242 
 30
 74.2002866666667 
  0
VERTEX
  8
0
 10
 3.14510564421812 
 20
 21.03 
 30
 46.36703 
  0
VERTEX
  8
0
 10
 2.20909301339187 
 20
 20.4169160218322 
 30
 32.21802 
  0
VERTEX
  8
0
 10
 1.1465826516842 
 20
 19.7410723071048 
 30
 17.76901 
  0
VERTEX
  8
0
 10
 .03 
 20
 19.04 
 30
 3.32 
  0
VERTEX
  8
0
 10
-.03 
 20
 19.04 
 30
 3.32 
  0
SEQEND
  0
POLYLINE
  8
0
 66
     1
 10
0.0
 20
0.0
 30
0.0
  0
VERTEX
  8
0
 10
-5.48277271381882E-03 
 20
 20.2092576484799 
 30
 11.9069444479905 
  0
VERTEX
  8
0
 10
-3.37516466729673E-03 
 20
 20.7681757720662 
 30
 23.4936396319937 
  0
VERTEX
  8
0
 10
-1.46954199299642E-03 
 20
 21.3061258498485 
 30
 35.0803348159968 
  0
VERTEX
  8
0
 10
 0 
 20
 21.79 
 30
 46.36703 
  0
VERTEX
  8
0
 10
 1.50891721691321E-03 
 20
 22.7396383002846 
 30
 74.2002866666667 
  0
VERTEX
  8
0
 10
 1.01735101122759E-03 
 20
 23.3373167276837 
 30
 102.033543333333 
  0
VERTEX
  8
0
 10
 0 
 20
 23.59 
 30
 129.5668 
  0
VERTEX
  8
0
 10
-4.25249567676656E-04 
 20
 23.4710023601319 
 30
 159.3312 
  0
VERTEX
  8
0
 10
-2.69338550335618E-04 
 20
 22.8435519731239 
 30
 189.0956 
  0
VERTEX
  8
0
 10
 0 
 20
 21.6 
 30
 218.56 
  0
VERTEX
  8
0
 10
 5.03269870843759E-05 
 20
 20.683091900928 
 30
 233.873333333333 
  0
VERTEX
  8
0
 10
 3.9784598477934E-05 
 20
 19.633387312462 
 30
 249.186666666667 
  0
VERTEX
  8
0
 10
 0 
 20
 18.54 
 30
 264.2 
  0
VERTEX
  8
0
 10
 0 
 20
 18.54 
 30
 264.2 
  0
VERTEX
  8
0
 10
-3.9784598477934E-05 
 20
 19.633387312462 
 30
 249.186666666667 
  0
VERTEX
  8
0
 10
-5.03269870843759E-05 
 20
 20.683091900928 
 30
 233.873333333333 
  0
VERTEX
  8
0
 10
 0 
 20
 21.6 
 30
 218.56 
  0
VERTEX
  8
0
 10
 2.69338550335618E-04 
 20
 22.8435519731239 
 30
 189.0956 
  0
VERTEX
  8
0
 10
 4.25249567676656E-04 
 20
 23.4710023601319 
 30
 159.3312 
  0
VERTEX
  8
0
 10
 0 
 20
 23.59 
 30
 129.5668 
  0
VERTEX
  8
0
 10
-1.01735101122759E-03 
 20
 23.3373167276837 
 30
 102.033543333333 
  0
VERTEX
  8
0
 10
-1.50891721691321E-03 
 20
 22.7396383002846 
 30
 74.2002866666667 
  0
VERTEX
  8
0
 10
 0 
 20
 21.79 
 30
 46.36703 
  0
VERTEX
  8
0
 10
 1.46954199299642E-03 
 20
 21.3061258498485 
 30
 35.0803348159968 
  0
VERTEX
  8
0
 10
 3.37516466729673E-03 
 20
 20.7681757720662 
 30
 23.4936396319937 
  0
VERTEX
  8
0
 10
 5.48277271381882E-03 
 20
 20.2092576484799 
 30
 11.9069444479905 
  0
VERTEX
  8
0
 10
-5.48277271381882E-03 
 20
 20.2092576484799 
 30
 11.9069444479905 
  0
SEQEND
  0
POLYLINE
  8
0
 66
     1
 10
0.0
 20
0.0
 30
0.0
  0
VERTEX
  8
0
 10
 37.0269444479905 
 20
 20.2092576484799 
 30
-5.48277271381882E-03 
  0
VERTEX
  8
0
 10
 28.44 
 20
 19.04 
 30
-.03 
  0
VERTEX
  8
0
 10
 26.49 
 20
 16.86 
 30
-3.75178492412043E-03 
  0
VERTEX
  8
0
 10
 27.28 
 20
 13.81 
 30
-.01 
  0
VERTEX
  8
0
 10
 30.03 
 20
 11.43 
 30
-3.75178492412043E-03 
  0
VERTEX
  8
0
 10
 35.1725011850269 
 20
 7.86593493238553 
 30
-3.75178492412043E-03 
  0
VERTEX
  8
0
 10
 40.75 
 20
 5.4 
 30
-6.97273148187247E-03 
  0
VERTEX
  8
0
 10
 52.1687254939428 
 20
 2.61776061776063 
 30
-6.65498697738147E-03 
  0
VERTEX
  8
0
 10
 52.1687254939428 
 20
 2.61776061776063 
 30
 6.65498697738147E-03 
  0
VERTEX
  8
0
 10
 40.75 
 20
 5.4 
 30
 6.97273148187247E-03 
  0
VERTEX
  8
0
 10
 35.1725011850269 
 20
 7.86593493238553 
 30
 3.75178492412043E-03 
  0
VERTEX
  8
0
 10
 30.03 
 20
 11.43 
 30
 3.75178492412043E-03 
  0
VERTEX
  8
0
 10
 27.28 
 20
 13.81 
 30
 .01 
  0
VERTEX
  8
0
 10
 26.49 
 20
 16.86 
 30
 3.75178492412043E-03 
  0
VERTEX
  8
0
 10
 28.44 
 20
 19.04 
 30
 .03 
  0
VERTEX
  8
0
 10
 37.0269444479905 
 20
 20.2092576484799 
 30
 5.48277271381882E-03 
  0
SEQEND
  0
POLYLINE
  8
0
 66
     1
 10
0.0
 20
0.0
 30
0.0
  0
VERTEX
  8
0
 10
 71.48703 
 20
 21.79 
 30
 0 
  0
VERTEX
  8
0
 10
 71.48703 
 20
 21.03 
 30
-3.14510564421812 
  0
VERTEX
  8
0
 10
 71.48703 
 20
 18.93 
 30
-5.54666729102598 
  0
VERTEX
  8
0
 10
 71.49 
 20
 14.48 
 30
-7.65 
  0
VERTEX
  8
0
 10
 71.48703 
 20
 10.19 
 30
-7.92 
  0
VERTEX
  8
0
 10
 71.48703 
 20
 4.84 
 30
-5.05 
  0
VERTEX
  8
0
 10
 71.48703 
 20
 2.86 
 30
-1.99133047582289 
  0
VERTEX
  8
0
 10
 71.48703 
 20
 1.6 
 30
 0 
  0
VERTEX
  8
0
 10
 71.48703 
 20
 1.6 
 30
 0 
  0
VERTEX
  8
0
 10
 71.48703 
 20
 2.86 
 30
 1.99133047582289 
  0
VERTEX
  8
0
 10
 71.48703 
 20
 4.84 
 30
 5.05 
  0
VERTEX
  8
0
 10
 71.48703 
 20
 10.19 
 30
 7.92 
  0
VERTEX
  8
0
 10
 71.49 
 20
 14.48 
 30
 7.65 
  0
VERTEX
  8
0
 10
 71.48703 
 20
 18.93 
 30
 5.54666729102598 
  0
VERTEX
  8
0
 10
 71.48703 
 20
 21.03 
 30
 3.14510564421812 
  0
VERTEX
  8
0
 10
 71.48703 
 20
 21.79 
 30
 0 
  0
SEQEND
  0
POLYLINE
  8
0
 66
     1
 10
0.0
 20
0.0
 30
0.0
  0
VERTEX
  8
0
 10
 154.6868 
 20
 23.59 
 30
 0 
  0
VERTEX
  8
0
 10
 154.6868 
 20
 22.94 
 30
-5.7 
  0
VERTEX
  8
0
 10
 154.6868 
 20
 20.24 
 30
-9.59 
  0
VERTEX
  8
0
 10
 154.69 
 20
 14.94 
 30
-12.16 
  0
VERTEX
  8
0
 10
 154.6868 
 20
 9.37 
 30
-12.56 
  0
VERTEX
  8
0
 10
 154.6868 
 20
 2.85 
 30
-8.41 
  0
VERTEX
  8
0
 10
 154.6868 
 20
 .97 
 30
-3.62 
  0
VERTEX
  8
0
 10
 154.6868 
 20
 .88 
 30
 0 
  0
VERTEX
  8
0
 10
 154.6868 
 20
 .88 
 30
 0 
  0
VERTEX
  8
0
 10
 154.6868 
 20
 .97 
 30
 3.62 
  0
VERTEX
  8
0
 10
 154.6868 
 20
 2.85 
 30
 8.41 
  0
VERTEX
  8
0
 10
 154.6868 
 20
 9.37 
 30
 12.56 
  0
VERTEX
  8
0
 10
 154.69 
 20
 14.94 
 30
 12.16 
  0
VERTEX
  8
0
 10
 154.6868 
 20
 20.24 
 30
 9.59 
  0
VERTEX
  8
0
 10
 154.6868 
 20
 22.94 
 30
 5.7 
  0
VERTEX
  8
0
 10
 154.6868 
 20
 23.59 
 30
 0 
  0
SEQEND
  0
POLYLINE
  8
0
 66
     1
 10
0.0
 20
0.0
 30
0.0
  0
VERTEX
  8
0
 10
 243.68 
 20
 21.6 
 30
 0 
  0
VERTEX
  8
0
 10
 243.68 
 20
 21.084 
 30
-3.17259282425198 
  0
VERTEX
  8
0
 10
 243.68 
 20
 18.98 
 30
-5.62358563558566 
  0
VERTEX
  8
0
 10
 243.68 
 20
 14.41 
 30
-7.59 
  0
VERTEX
  8
0
 10
 243.68 
 20
 10.19 
 30
-7.96 
  0
VERTEX
  8
0
 10
 243.68 
 20
 4.9 
 30
-4.93986701727738 
  0
VERTEX
  8
0
 10
 243.68 
 20
 3.24 
 30
-2.22 
  0
VERTEX
  8
0
 10
 243.68 
 20
 2.4 
 30
 0 
  0
VERTEX
  8
0
 10
 243.68 
 20
 2.4 
 30
 0 
  0
VERTEX
  8
0
 10
 243.68 
 20
 3.24 
 30
 2.22 
  0
VERTEX
  8
0
 10
 243.68 
 20
 4.9 
 30
 4.93986701727738 
  0
VERTEX
  8
0
 10
 243.68 
 20
 10.19 
 30
 7.96 
  0
VERTEX
  8
0
 10
 243.68 
 20
 14.41 
 30
 7.59 
  0
VERTEX
  8
0
 10
 243.68 
 20
 18.98 
 30
 5.62358563558566 
  0
VERTEX
  8
0
 10
 243.68 
 20
 21.084 
 30
 3.17259282425198 
  0
VERTEX
  8
0
 10
 243.68 
 20
 21.6 
 30
 0 
  0
SEQEND
  0
POLYLINE
  8
0
 66
     1
 10
0.0
 20
0.0
 30
0.0
  0
VERTEX
  8
0
 10
 289.32 
 20
 18.54 
 30
 0 
  0
VERTEX
  8
0
 10
 288.867773913708 
 20
 19.04 
 30
-.03 
  0
VERTEX
  8
0
 10
 289.12 
 20
 17.38 
 30
-1.55 
  0
VERTEX
  8
0
 10
 287.94 
 20
 14.12 
 30
-3.14 
  0
VERTEX
  8
0
 10
 286.63 
 20
 10.84 
 30
-3.46 
  0
VERTEX
  8
0
 10
 283.73 
 20
 7.01 
 30
-1.52 
  0
VERTEX
  8
0
 10
 279.25 
 20
 5.87 
 30
 0 
  0
VERTEX
  8
0
 10
 273.72 
 20
 4.29 
 30
-2.78909259274899E-02 
  0
VERTEX
  8
0
 10
 273.72 
 20
 4.29 
 30
 2.78909259274899E-02 
  0
VERTEX
  8
0
 10
 279.25 
 20
 5.87 
 30
 0 
  0
VERTEX
  8
0
 10
 283.73 
 20
 7.01 
 30
 1.52 
  0
VERTEX
  8
0
 10
 286.63 
 20
 10.84 
 30
 3.46 
  0
VERTEX
  8
0
 10
 287.94 
 20
 14.12 
 30
 3.14 
  0
VERTEX
  8
0
 10
 289.12 
 20
 17.38 
 30
 1.55 
  0
VERTEX
  8
0
 10
 288.867773913708 
 20
 19.04 
 30
 .03 
  0
VERTEX
  8
0
 10
 289.32 
 20
 18.54 
 30
 0 
  0
SEQEND
  0
POLYLINE
  8
0
 66
     1
 10
0.0
 20
0.0
 30
0.0
  0
VERTEX
  8
0
 10
 52.1687254939428 
 20
 2.61776061776063 
 30
-6.65498697738147E-03 
  0
VERTEX
  8
0
 10
 58.7081603292952 
 20
 2.24770229905577 
 30
-4.13460336396369E-03 
  0
VERTEX
  8
0
 10
 65.2475951646476 
 20
 1.89747332890721 
 30
-1.82201887662672E-03 
  0
VERTEX
  8
0
 10
 71.48703 
 20
 1.6 
 30
 0 
  0
VERTEX
  8
0
 10
 99.3202866666667 
 20
 .84190889662385 
 30
 2.53027730457571E-03 
  0
VERTEX
  8
0
 10
 127.153543333333 
 20
 .738034847798596 
 30
 3.89845278622201E-04 
  0
VERTEX
  8
0
 10
 154.6868 
 20
 .88 
 30
 0 
  0
VERTEX
  8
0
 10
 184.4512 
 20
 1.00415106895868 
 30
 5.56446850924207E-03 
  0
VERTEX
  8
0
 10
 214.2156 
 20
 1.374597536501 
 30
 9.23882874158862E-03 
  0
VERTEX
  8
0
 10
 243.68 
 20
 2.4 
 30
 0 
  0
VERTEX
  8
0
 10
 253.793333333333 
 20
 2.96756637469309 
 30
-7.86256939674327E-03 
  0
VERTEX
  8
0
 10
 263.906666666667 
 20
 3.61859333678447 
 30
-1.75798481369068E-02 
  0
VERTEX
  8
0
 10
 273.72 
 20
 4.29 
 30
-2.78909259274899E-02 
  0
VERTEX
  8
0
 10
 273.72 
 20
 4.29 
 30
 2.78909259274899E-02 
  0
VERTEX
  8
0
 10
 263.906666666667 
 20
 3.61859333678447 
 30
 1.75798481369068E-02 
  0
VERTEX
  8
0
 10
 253.793333333333 
 20
 2.96756637469309 
 30
 7.86256939674327E-03 
  0
VERTEX
  8
0
 10
 243.68 
 20
 2.4 
 30
 0 
  0
VERTEX
  8
0
 10
 214.2156 
 20
 1.374597536501 
 30
-9.23882874158862E-03 
  0
VERTEX
  8
0
 10
 184.4512 
 20
 1.00415106895868 
 30
-5.56446850924207E-03 
  0
VERTEX
  8
0
 10
 154.6868 
 20
 .88 
 30
 0 
  0
VERTEX
  8
0
 10
 127.153543333333 
 20
 .738034847798596 
 30
-3.89845278622201E-04 
  0
VERTEX
  8
0
 10
 99.3202866666667 
 20
 .84190889662385 
 30
-2.53027730457571E-03 
  0
VERTEX
  8
0
 10
 71.48703 
 20
 1.6 
 30
 0 
  0
VERTEX
  8
0
 10
 65.2475951646476 
 20
 1.89747332890721 
 30
 1.82201887662672E-03 
  0
VERTEX
  8
0
 10
 58.7081603292952 
 20
 2.24770229905577 
 30
 4.13460336396369E-03 
  0
VERTEX
  8
0
 10
 52.1687254939428 
 20
 2.61776061776063 
 30
 6.65498697738147E-03 
  0
VERTEX
  8
0
 10
 52.1687254939428 
 20
 2.61776061776063 
 30
-6.65498697738147E-03 
  0
SEQEND
  0
POLYLINE
  8
0
 66
     1
 10
0.0
 20
0.0
 30
0.0
  0
VERTEX
  8
0
 10
 40.75 
 20
 5.4 
 30
-6.97273148187247E-03 
  0
VERTEX
  8
0
 10
 51.0956766666667 
 20
 4.47422473481038 
 30
-.729738639759957 
  0
VERTEX
  8
0
 10
 61.4413533333333 
 20
 3.60275860077525 
 30
-1.41045132981652 
  0
VERTEX
  8
0
 10
 71.48703 
 20
 2.86 
 30
-1.99133047582289 
  0
VERTEX
  8
0
 10
 99.3202866666667 
 20
 1.51696896387516 
 30
-3.05158486685331 
  0
VERTEX
  8
0
 10
 127.153543333333 
 20
 1.0009392802311 
 30
-3.49789690342489 
  0
VERTEX
  8
0
 10
 154.6868 
 20
 .97 
 30
-3.62 
  0
VERTEX
  8
0
 10
 184.4512 
 20
 1.20470104089597 
 30
-3.60896330847211 
  0
VERTEX
  8
0
 10
 214.2156 
 20
 1.87805138711242 
 30
-3.24210135460665 
  0
VERTEX
  8
0
 10
 243.68 
 20
 3.24 
 30
-2.22 
  0
VERTEX
  8
0
 10
 255.636666666667 
 20
 4.03811460186185 
 30
-1.56046991921001 
  0
VERTEX
  8
0
 10
 267.593333333333 
 20
 4.94040990975313 
 30
-.795831586105236 
  0
VERTEX
  8
0
 10
 279.25 
 20
 5.87 
 30
 0 
  0
VERTEX
  8
0
 10
 279.25 
 20
 5.87 
 30
 0 
  0
VERTEX
  8
0
 10
 267.593333333333 
 20
 4.94040990975313 
 30
 .795831586105236 
  0
VERTEX
  8
0
 10
 255.636666666667 
 20
 4.03811460186185 
 30
 1.56046991921001 
  0
VERTEX
  8
0
 10
 243.68 
 20
 3.24 
 30
 2.22 
  0
VERTEX
  8
0
 10
 214.2156 
 20
 1.87805138711242 
 30
 3.24210135460665 
  0
VERTEX
  8
0
 10
 184.4512 
 20
 1.20470104089597 
 30
 3.60896330847211 
  0
VERTEX
  8
0
 10
 154.6868 
 20
 .97 
 30
 3.62 
  0
VERTEX
  8
0
 10
 127.153543333333 
 20
 1.0009392802311 
 30
 3.49789690342489 
  0
VERTEX
  8
0
 10
 99.3202866666667 
 20
 1.51696896387516 
 30
 3.05158486685331 
  0
VERTEX
  8
0
 10
 71.48703 
 20
 2.86 
 30
 1.99133047582289 
  0
VERTEX
  8
0
 10
 61.4413533333333 
 20
 3.60275860077525 
 30
 1.41045132981652 
  0
VERTEX
  8
0
 10
 51.0956766666667 
 20
 4.47422473481038 
 30
 .729738639759957 
  0
VERTEX
  8
0
 10
 40.75 
 20
 5.4 
 30
 6.97273148187247E-03 
  0
VERTEX
  8
0
 10
 40.75 
 20
 5.4 
 30
-6.97273148187247E-03 
  0
SEQEND
  0
POLYLINE
  8
0
 66
     1
 10
0.0
 20
0.0
 30
0.0
  0
VERTEX
  8
0
 10
 35.1725011850269 
 20
 7.86593493238553 
 30
-3.75178492412043E-03 
  0
VERTEX
  8
0
 10
 47.3773441233513 
 20
 6.75895973874574 
 30
-1.84789446122822 
  0
VERTEX
  8
0
 10
 59.5821870616756 
 20
 5.72074520750455 
 30
-3.57883579363165 
  0
VERTEX
  8
0
 10
 71.48703 
 20
 4.84 
 30
-5.05 
  0
VERTEX
  8
0
 10
 99.3202866666667 
 20
 3.47082114743363 
 30
-7.35121807355911 
  0
VERTEX
  8
0
 10
 127.153543333333 
 20
 2.8973746367849 
 30
-8.32799015609736 
  0
VERTEX
  8
0
 10
 154.6868 
 20
 2.85 
 30
-8.41 
  0
VERTEX
  8
0
 10
 184.4512 
 20
 3.14558431995165 
 30
-7.88924277449499 
  0
VERTEX
  8
0
 10
 214.2156 
 20
 3.81028019404764 
 30
-6.75031387976164 
  0
VERTEX
  8
0
 10
 243.68 
 20
 4.9 
 30
-4.93986701727738 
  0
VERTEX
  8
0
 10
 257.13 
 20
 5.55177788286357 
 30
-3.87744818981216 
  0
VERTEX
  8
0
 10
 270.58 
 20
 6.27235825487341 
 30
-2.71080850431162 
  0
VERTEX
  8
0
 10
 283.73 
 20
 7.01 
 30
-1.52 
  0
VERTEX
  8
0
 10
 283.73 
 20
 7.01 
 30
 1.52 
  0
VERTEX
  8
0
 10
 270.58 
 20
 6.27235825487341 
 30
 2.71080850431162 
  0
VERTEX
  8
0
 10
 257.13 
 20
 5.55177788286357 
 30
 3.87744818981216 
  0
VERTEX
  8
0
 10
 243.68 
 20
 4.9 
 30
 4.93986701727738 
  0
VERTEX
  8
0
 10
 214.2156 
 20
 3.81028019404764 
 30
 6.75031387976164 
  0
VERTEX
  8
0
 10
 184.4512 
 20
 3.14558431995165 
 30
 7.88924277449499 
  0
VERTEX
  8
0
 10
 154.6868 
 20
 2.85 
 30
 8.41 
  0
VERTEX
  8
0
 10
 127.153543333333 
 20
 2.8973746367849 
 30
 8.32799015609736 
  0
VERTEX
  8
0
 10
 99.3202866666667 
 20
 3.47082114743363 
 30
 7.35121807355911 
  0
VERTEX
  8
0
 10
 71.48703 
 20
 4.84 
 30
 5.05 
  0
VERTEX
  8
0
 10
 59.5821870616756 
 20
 5.72074520750455 
 30
 3.57883579363165 
  0
VERTEX
  8
0
 10
 47.3773441233513 
 20
 6.75895973874574 
 30
 1.84789446122822 
  0
VERTEX
  8
0
 10
 35.1725011850269 
 20
 7.86593493238553 
 30
 3.75178492412043E-03 
  0
VERTEX
  8
0
 10
 35.1725011850269 
 20
 7.86593493238553 
 30
-3.75178492412043E-03 
  0
SEQEND
  0
POLYLINE
  8
0
 66
     1
 10
0.0
 20
0.0
 30
0.0
  0
VERTEX
  8
0
 10
 30.03 
 20
 11.43 
 30
-3.75178492412043E-03 
  0
VERTEX
  8
0
 10
 43.94901 
 20
 10.9786796381406 
 30
-2.91271099977813 
  0
VERTEX
  8
0
 10
 57.86802 
 20
 10.5540359387378 
 30
-5.63025099306836 
  0
VERTEX
  8
0
 10
 71.48703 
 20
 10.19 
 30
-7.92 
  0
VERTEX
  8
0
 10
 99.3202866666667 
 20
 9.66576336556983 
 30
-11.0499485316913 
  0
VERTEX
  8
0
 10
 127.153543333333 
 20
 9.40927384025878 
 30
-12.4216752948916 
  0
VERTEX
  8
0
 10
 154.6868 
 20
 9.37 
 30
-12.56 
  0
VERTEX
  8
0
 10
 184.4512 
 20
 9.51386699543228 
 30
-11.8270257730769 
  0
VERTEX
  8
0
 10
 214.2156 
 20
 9.80403609702474 
 30
-10.2808026885102 
  0
VERTEX
  8
0
 10
 243.68 
 20
 10.19 
 30
-7.96 
  0
VERTEX
  8
0
 10
 258.096666666667 
 20
 10.4011846249957 
 30
-6.55144071152737 
  0
VERTEX
  8
0
 10
 272.513333333333 
 20
 10.620834225097 
 30
-5.0195532636708 
  0
VERTEX
  8
0
 10
 286.63 
 20
 10.84 
 30
-3.46 
  0
VERTEX
  8
0
 10
 286.63 
 20
 10.84 
 30
 3.46 
  0
VERTEX
  8
0
 10
 272.513333333333 
 20
 10.620834225097 
 30
 5.0195532636708 
  0
VERTEX
  8
0
 10
 258.096666666667 
 20
 10.4011846249957 
 30
 6.55144071152737 
  0
VERTEX
  8
0
 10
 243.68 
 20
 10.19 
 30
 7.96 
  0
VERTEX
  8
0
 10
 214.2156 
 20
 9.80403609702474 
 30
 10.2808026885102 
  0
VERTEX
  8
0
 10
 184.4512 
 20
 9.51386699543228 
 30
 11.8270257730769 
  0
VERTEX
  8
0
 10
 154.6868 
 20
 9.37 
 30
 12.56 
  0
VERTEX
  8
0
 10
 127.153543333333 
 20
 9.40927384025878 
 30
 12.4216752948916 
  0
VERTEX
  8
0
 10
 99.3202866666667 
 20
 9.66576336556983 
 30
 11.0499485316913 
  0
VERTEX
  8
0
 10
 71.48703 
 20
 10.19 
 30
 7.92 
  0
VERTEX
  8
0
 10
 57.86802 
 20
 10.5540359387378 
 30
 5.63025099306836 
  0
VERTEX
  8
0
 10
 43.94901 
 20
 10.9786796381406 
 30
 2.91271099977813 
  0
VERTEX
  8
0
 10
 30.03 
 20
 11.43 
 30
 3.75178492412043E-03 
  0
VERTEX
  8
0
 10
 30.03 
 20
 11.43 
 30
-3.75178492412043E-03 
  0
SEQEND
  0
POLYLINE
  8
0
 66
     1
 10
0.0
 20
0.0
 30
0.0
  0
VERTEX
  8
0
 10
 27.28 
 20
 13.81 
 30
-.01 
  0
VERTEX
  8
0
 10
 42.1166666666667 
 20
 14.0514542467601 
 30
-2.81154026546286 
  0
VERTEX
  8
0
 10
 56.9533333333333 
 20
 14.2802633095032 
 30
-5.43215163667067 
  0
VERTEX
  8
0
 10
 71.49 
 20
 14.48 
 30
-7.65 
  0
VERTEX
  8
0
 10
 99.3233333333333 
 20
 14.7653523498839 
 30
-10.5670103263173 
  0
VERTEX
  8
0
 10
 127.156666666667 
 20
 14.9184199163284 
 30
-11.9487410461639 
  0
VERTEX
  8
0
 10
 154.69 
 20
 14.94 
 30
-12.16 
  0
VERTEX
  8
0
 10
 184.453333333333 
 20
 14.828907922443 
 30
-11.4427799955245 
  0
VERTEX
  8
0
 10
 214.216666666667 
 20
 14.6304627859531 
 30
-9.8812703837601 
  0
VERTEX
  8
0
 10
 243.68 
 20
 14.41 
 30
-7.59 
  0
VERTEX
  8
0
 10
 258.533333333333 
 20
 14.3074299410774 
 30
-6.1882282422283 
  0
VERTEX
  8
0
 10
 273.386666666667 
 20
 14.211208984232 
 30
-4.67562209329271 
  0
VERTEX
  8
0
 10
 287.94 
 20
 14.12 
 30
-3.14 
  0
VERTEX
  8
0
 10
 287.94 
 20
 14.12 
 30
 3.14 
  0
VERTEX
  8
0
 10
 273.386666666667 
 20
 14.211208984232 
 30
 4.67562209329271 
  0
VERTEX
  8
0
 10
 258.533333333333 
 20
 14.3074299410774 
 30
 6.1882282422283 
  0
VERTEX
  8
0
 10
 243.68 
 20
 14.41 
 30
 7.59 
  0
VERTEX
  8
0
 10
 214.216666666667 
 20
 14.6304627859531 
 30
 9.8812703837601 
  0
VERTEX
  8
0
 10
 184.453333333333 
 20
 14.828907922443 
 30
 11.4427799955245 
  0
VERTEX
  8
0
 10
 154.69 
 20
 14.94 
 30
 12.16 
  0
VERTEX
  8
0
 10
 127.156666666667 
 20
 14.9184199163284 
 30
 11.9487410461639 
  0
VERTEX
  8
0
 10
 99.3233333333333 
 20
 14.7653523498839 
 30
 10.5670103263173 
  0
VERTEX
  8
0
 10
 71.49 
 20
 14.48 
 30
 7.65 
  0
VERTEX
  8
0
 10
 56.9533333333333 
 20
 14.2802633095032 
 30
 5.43215163667067 
  0
VERTEX
  8
0
 10
 42.1166666666667 
 20
 14.0514542467601 
 30
 2.81154026546286 
  0
VERTEX
  8
0
 10
 27.28 
 20
 13.81 
 30
 .01 
  0
VERTEX
  8
0
 10
 27.28 
 20
 13.81 
 30
-.01 
  0
SEQEND
  0
POLYLINE
  8
0
 66
     1
 10
0.0
 20
0.0
 30
0.0
  0
VERTEX
  8
0
 10
 26.49 
 20
 16.86 
 30
-3.75178492412043E-03 
  0
VERTEX
  8
0
 10
 41.58901 
 20
 17.6168391451918 
 30
-2.00237626834787 
  0
VERTEX
  8
0
 10
 56.68802 
 20
 18.3262954148621 
 30
-3.89543213194454 
  0
VERTEX
  8
0
 10
 71.48703 
 20
 18.93 
 30
-5.54666729102598 
  0
VERTEX
  8
0
 10
 99.3202866666667 
 20
 19.7268714884514 
 30
-7.87561058398782 
  0
VERTEX
  8
0
 10
 127.153543333333 
 20
 20.1335968696905 
 30
-9.20126958696567 
  0
VERTEX
  8
0
 10
 154.6868 
 20
 20.24 
 30
-9.59 
  0
VERTEX
  8
0
 10
 184.4512 
 20
 20.1010779016202 
 30
-9.06278919100314 
  0
VERTEX
  8
0
 10
 214.2156 
 20
 19.6885967266665 
 30
-7.68394389228507 
  0
VERTEX
  8
0
 10
 243.68 
 20
 18.98 
 30
-5.62358563558566 
  0
VERTEX
  8
0
 10
 258.926666666667 
 20
 18.4915899434276 
 30
-4.33762076970312 
  0
VERTEX
  8
0
 10
 274.173333333333 
 20
 17.9445854306963 
 30
-2.95385200741361 
  0
VERTEX
  8
0
 10
 289.12 
 20
 17.38 
 30
-1.55 
  0
VERTEX
  8
0
 10
 289.12 
 20
 17.38 
 30
 1.55 
  0
VERTEX
  8
0
 10
 274.173333333333 
 20
 17.9445854306963 
 30
 2.95385200741361 
  0
VERTEX
  8
0
 10
 258.926666666667 
 20
 18.4915899434276 
 30
 4.33762076970312 
  0
VERTEX
  8
0
 10
 243.68 
 20
 18.98 
 30
 5.62358563558566 
  0
VERTEX
  8
0
 10
 214.2156 
 20
 19.6885967266665 
 30
 7.68394389228507 
  0
VERTEX
  8
0
 10
 184.4512 
 20
 20.1010779016202 
 30
 9.06278919100314 
  0
VERTEX
  8
0
 10
 154.6868 
 20
 20.24 
 30
 9.59 
  0
VERTEX
  8
0
 10
 127.153543333333 
 20
 20.1335968696905 
 30
 9.20126958696567 
  0
VERTEX
  8
0
 10
 99.3202866666667 
 20
 19.7268714884514 
 30
 7.87561058398782 
  0
VERTEX
  8
0
 10
 71.48703 
 20
 18.93 
 30
 5.54666729102598 
  0
VERTEX
  8
0
 10
 56.68802 
 20
 18.3262954148621 
 30
 3.89543213194454 
  0
VERTEX
  8
0
 10
 41.58901 
 20
 17.6168391451918 
 30
 2.00237626834787 
  0
VERTEX
  8
0
 10
 26.49 
 20
 16.86 
 30
 3.75178492412043E-03 
  0
VERTEX
  8
0
 10
 26.49 
 20
 16.86 
 30
-3.75178492412043E-03 
  0
SEQEND
  0
POLYLINE
  8
0
 66
     1
 10
0.0
 20
0.0
 30
0.0
  0
VERTEX
  8
0
 10
 28.44 
 20
 19.04 
 30
-.03 
  0
VERTEX
  8
0
 10
 42.88901 
 20
 19.7410723071048 
 30
-1.1465826516842 
  0
VERTEX
  8
0
 10
 57.33802 
 20
 20.4169160218322 
 30
-2.20909301339187 
  0
VERTEX
  8
0
 10
 71.48703 
 20
 21.03 
 30
-3.14510564421812 
  0
VERTEX
  8
0
 10
 99.3202866666667 
 20
 22.0237090934242 
 30
-4.55692741241068 
  0
VERTEX
  8
0
 10
 127.153543333333 
 20
 22.6800336691741 
 30
-5.39928007388033 
  0
VERTEX
  8
0
 10
 154.6868 
 20
 22.94 
 30
-5.7 
  0
VERTEX
  8
0
 10
 184.4512 
 20
 22.743411990773 
 30
-5.45342073794113 
  0
VERTEX
  8
0
 10
 214.2156 
 20
 22.0975483005026 
 30
-4.60877625754049 
  0
VERTEX
  8
0
 10
 243.68 
 20
 21.084 
 30
-3.17259282425198 
  0
VERTEX
  8
0
 10
 258.842591304569 
 20
 20.4424491396347 
 30
-2.20654355731741 
  0
VERTEX
  8
0
 10
 274.005182609139 
 20
 19.7473071632305 
 30
-1.13352427320984 
  0
VERTEX
  8
0
 10
 288.867773913708 
 20
 19.04 
 30
-.03 
  0
VERTEX
  8
0
 10
 288.867773913708 
 20
 19.04 
 30
 .03 
  0
VERTEX
  8
0
 10
 274.005182609139 
 20
 19.7473071632305 
 30
 1.13352427320984 
  0
VERTEX
  8
0
 10
 258.842591304569 
 20
 20.4424491396347 
 30
 2.20654355731741 
  0
VERTEX
  8
0
 10
 243.68 
 20
 21.084 
 30
 3.17259282425198 
  0
VERTEX
  8
0
 10
 214.2156 
 20
 22.0975483005026 
 30
 4.60877625754049 
  0
VERTEX
  8
0
 10
 184.4512 
 20
 22.743411990773 
 30
 5.45342073794113 
  0
VERTEX
  8
0
 10
 154.6868 
 20
 22.94 
 30
 5.7 
  0
VERTEX
  8
0
 10
 127.153543333333 
 20
 22.6800336691741 
 30
 5.39928007388033 
  0
VERTEX
  8
0
 10
 99.3202866666667 
 20
 22.0237090934242 
 30
 4.55692741241068 
  0
VERTEX
  8
0
 10
 71.48703 
 20
 21.03 
 30
 3.14510564421812 
  0
VERTEX
  8
0
 10
 57.33802 
 20
 20.4169160218322 
 30
 2.20909301339187 
  0
VERTEX
  8
0
 10
 42.88901 
 20
 19.7410723071048 
 30
 1.1465826516842 
  0
VERTEX
  8
0
 10
 28.44 
 20
 19.04 
 30
 .03 
  0
VERTEX
  8
0
 10
 28.44 
 20
 19.04 
 30
-.03 
  0
SEQEND
  0
POLYLINE
  8
0
 66
     1
 10
0.0
 20
0.0
 30
0.0
  0
VERTEX
  8
0
 10
 37.0269444479905 
 20
 20.2092576484799 
 30
-5.48277271381882E-03 
  0
VERTEX
  8
0
 10
 48.6136396319937 
 20
 20.7681757720662 
 30
-3.37516466729673E-03 
  0
VERTEX
  8
0
 10
 60.2003348159968 
 20
 21.3061258498485 
 30
-1.46954199299642E-03 
  0
VERTEX
  8
0
 10
 71.48703 
 20
 21.79 
 30
 0 
  0
VERTEX
  8
0
 10
 99.3202866666667 
 20
 22.7396383002846 
 30
 1.50891721691321E-03 
  0
VERTEX
  8
0
 10
 127.153543333333 
 20
 23.3373167276837 
 30
 1.01735101122759E-03 
  0
VERTEX
  8
0
 10
 154.6868 
 20
 23.59 
 30
 0 
  0
VERTEX
  8
0
 10
 184.4512 
 20
 23.4710023601319 
 30
-4.25249567676656E-04 
  0
VERTEX
  8
0
 10
 214.2156 
 20
 22.8435519731239 
 30
-2.69338550335618E-04 
  0
VERTEX
  8
0
 10
 243.68 
 20
 21.6 
 30
 0 
  0
VERTEX
  8
0
 10
 258.993333333333 
 20
 20.683091900928 
 30
 5.03269870843759E-05 
  0
VERTEX
  8
0
 10
 274.306666666667 
 20
 19.633387312462 
 30
 3.9784598477934E-05 
  0
VERTEX
  8
0
 10
 289.32 
 20
 18.54 
 30
 0 
  0
VERTEX
  8
0
 10
 289.32 
 20
 18.54 
 30
 0 
  0
VERTEX
  8
0
 10
 274.306666666667 
 20
 19.633387312462 
 30
-3.9784598477934E-05 
  0
VERTEX
  8
0
 10
 258.993333333333 
 20
 20.683091900928 
 30
-5.03269870843759E-05 
  0
VERTEX
  8
0
 10
 243.68 
 20
 21.6 
 30
 0 
  0
VERTEX
  8
0
 10
 214.2156 
 20
 22.8435519731239 
 30
 2.69338550335618E-04 
  0
VERTEX
  8
0
 10
 184.4512 
 20
 23.4710023601319 
 30
 4.25249567676656E-04 
  0
VERTEX
  8
0
 10
 154.6868 
 20
 23.59 
 30
 0 
  0
VERTEX
  8
0
 10
 127.153543333333 
 20
 23.3373167276837 
 30
-1.01735101122759E-03 
  0
VERTEX
  8
0
 10
 99.3202866666667 
 20
 22.7396383002846 
 30
-1.50891721691321E-03 
  0
VERTEX
  8
0
 10
 71.48703 
 20
 21.79 
 30
 0 
  0
VERTEX
  8
0
 10
 60.2003348159968 
 20
 21.3061258498485 
 30
 1.46954199299642E-03 
  0
VERTEX
  8
0
 10
 48.6136396319937 
 20
 20.7681757720662 
 30
 3.37516466729673E-03 
  0
VERTEX
  8
0
 10
 37.0269444479905 
 20
 20.2092576484799 
 30
 5.48277271381882E-03 
  0
VERTEX
  8
0
 10
 37.0269444479905 
 20
 20.2092576484799 
 30
-5.48277271381882E-03 
  0
SEQEND
  0
POLYLINE
  8
0
 66
     1
 10
0.0
 20
0.0
 30
0.0
  0
VERTEX
  8
0
 10
 37.0269444479905 
 20
 37.6745172272862 
 30
 20.2092576484799 
  0
VERTEX
  8
0
 10
 28.44 
 20
 37.65 
 30
 19.04 
  0
VERTEX
  8
0
 10
 26.49 
 20
 37.6762482150759 
 30
 16.86 
  0
VERTEX
  8
0
 10
 27.28 
 20
 37.67 
 30
 13.81 
  0
VERTEX
  8
0
 10
 30.03 
 20
 37.6762482150759 
 30
 11.43 
  0
VERTEX
  8
0
 10
 35.1725011850269 
 20
 37.6762482150759 
 30
 7.86593493238553 
  0
VERTEX
  8
0
 10
 40.75 
 20
 37.6730272685181 
 30
 5.4 
  0
VERTEX
  8
0
 10
 52.1687254939428 
 20
 37.6733450130226 
 30
 2.61776061776063 
  0
VERTEX
  8
0
 10
 52.1687254939428 
 20
 37.6866549869774 
 30
 2.61776061776063 
  0
VERTEX
  8
0
 10
 40.75 
 20
 37.6869727314819 
 30
 5.4 
  0
VERTEX
  8
0
 10
 35.1725011850269 
 20
 37.6837517849241 
 30
 7.86593493238553 
  0
VERTEX
  8
0
 10
 30.03 
 20
 37.6837517849241 
 30
 11.43 
  0
VERTEX
  8
0
 10
 27.28 
 20
 37.69 
 30
 13.81 
  0
VERTEX
  8
0
 10
 26.49 
 20
 37.6837517849241 
 30
 16.86 
  0
VERTEX
  8
0
 10
 28.44 
 20
 37.71 
 30
 19.04 
  0
VERTEX
  8
0
 10
 37.0269444479905 
 20
 37.6854827727138 
 30
 20.2092576484799 
  0
SEQEND
  0
POLYLINE
  8
0
 66
     1
 10
0.0
 20
0.0
 30
0.0
  0
VERTEX
  8
0
 10
 71.48703 
 20
 37.68 
 30
 21.79 
  0
VERTEX
  8
0
 10
 71.48703 
 20
 34.5348943557819 
 30
 21.03 
  0
VERTEX
  8
0
 10
 71.48703 
 20
 32.133332708974 
 30
 18.93 
  0
VERTEX
  8
0
 10
 71.49 
 20
 30.03 
 30
 14.48 
  0
VERTEX
  8
0
 10
 71.48703 
 20
 29.76 
 30
 10.19 
  0
VERTEX
  8
0
 10
 71.48703 
 20
 32.63 
 30
 4.84 
  0
VERTEX
  8
0
 10
 71.48703 
 20
 35.6886695241771 
 30
 2.86 
  0
VERTEX
  8
0
 10
 71.48703 
 20
 37.68 
 30
 1.6 
  0
VERTEX
  8
0
 10
 71.48703 
 20
 37.68 
 30
 1.6 
  0
VERTEX
  8
0
 10
 71.48703 
 20
 39.6713304758229 
 30
 2.86 
  0
VERTEX
  8
0
 10
 71.48703 
 20
 42.73 
 30
 4.84 
  0
VERTEX
  8
0
 10
 71.48703 
 20
 45.6 
 30
 10.19 
  0
VERTEX
  8
0
 10
 71.49 
 20
 45.33 
 30
 14.48 
  0
VERTEX
  8
0
 10
 71.48703 
 20
 43.226667291026 
 30
 18.93 
  0
VERTEX
  8
0
 10
 71.48703 
 20
 40.8251056442181 
 30
 21.03 
  0
VERTEX
  8
0
 10
 71.48703 
 20
 37.68 
 30
 21.79 
  0
SEQEND
  0
POLYLINE
  8
0
 66
     1
 10
0.0
 20
0.0
 30
0.0
  0
VERTEX
  8
0
 10
 154.6868 
 20
 37.68 
 30
 23.59 
  0
VERTEX
  8
0
 10
 154.6868 
 20
 31.98 
 30
 22.94 
  0
VERTEX
  8
0
 10
 154.6868 
 20
 28.09 
 30
 20.24 
  0
VERTEX
  8
0
 10
 154.69 
 20
 25.52 
 30
 14.94 
  0
VERTEX
  8
0
 10
 154.6868 
 20
 25.12 
 30
 9.37 
  0
VERTEX
  8
0
 10
 154.6868 
 20
 29.27 
 30
 2.85 
  0
VERTEX
  8
0
 10
 154.6868 
 20
 34.06 
 30
 .97 
  0
VERTEX
  8
0
 10
 154.6868 
 20
 37.68 
 30
 .88 
  0
VERTEX
  8
0
 10
 154.6868 
 20
 37.68 
 30
 .88 
  0
VERTEX
  8
0
 10
 154.6868 
 20
 41.3 
 30
 .97 
  0
VERTEX
  8
0
 10
 154.6868 
 20
 46.09 
 30
 2.85 
  0
VERTEX
  8
0
 10
 154.6868 
 20
 50.24 
 30
 9.37 
  0
VERTEX
  8
0
 10
 154.69 
 20
 49.84 
 30
 14.94 
  0
VERTEX
  8
0
 10
 154.6868 
 20
 47.27 
 30
 20.24 
  0
VERTEX
  8
0
 10
 154.6868 
 20
 43.38 
 30
 22.94 
  0
VERTEX
  8
0
 10
 154.6868 
 20
 37.68 
 30
 23.59 
  0
SEQEND
  0
POLYLINE
  8
0
 66
     1
 10
0.0
 20
0.0
 30
0.0
  0
VERTEX
  8
0
 10
 243.68 
 20
 37.68 
 30
 21.6 
  0
VERTEX
  8
0
 10
 243.68 
 20
 34.507407175748 
 30
 21.084 
  0
VERTEX
  8
0
 10
 243.68 
 20
 32.0564143644143 
 30
 18.98 
  0
VERTEX
  8
0
 10
 243.68 
 20
 30.09 
 30
 14.41 
  0
VERTEX
  8
0
 10
 243.68 
 20
 29.72 
 30
 10.19 
  0
VERTEX
  8
0
 10
 243.68 
 20
 32.7401329827226 
 30
 4.9 
  0
VERTEX
  8
0
 10
 243.68 
 20
 35.46 
 30
 3.24 
  0
VERTEX
  8
0
 10
 243.68 
 20
 37.68 
 30
 2.4 
  0
VERTEX
  8
0
 10
 243.68 
 20
 37.68 
 30
 2.4 
  0
VERTEX
  8
0
 10
 243.68 
 20
 39.9 
 30
 3.24 
  0
VERTEX
  8
0
 10
 243.68 
 20
 42.6198670172774 
 30
 4.9 
  0
VERTEX
  8
0
 10
 243.68 
 20
 45.64 
 30
 10.19 
  0
VERTEX
  8
0
 10
 243.68 
 20
 45.27 
 30
 14.41 
  0
VERTEX
  8
0
 10
 243.68 
 20
 43.3035856355857 
 30
 18.98 
  0
VERTEX
  8
0
 10
 243.68 
 20
 40.852592824252 
 30
 21.084 
  0
VERTEX
  8
0
 10
 243.68 
 20
 37.68 
 30
 21.6 
  0
SEQEND
  0
POLYLINE
  8
0
 66
     1
 10
0.0
 20
0.0
 30
0.0
  0
VERTEX
  8
0
 10
 289.32 
 20
 37.68 
 30
 18.54 
  0
VERTEX
  8
0
 10
 288.867773913708 
 20
 37.65 
 30
 19.04 
  0
VERTEX
  8
0
 10
 289.12 
 20
 36.13 
 30
 17.38 
  0
VERTEX
  8
0
 10
 287.94 
 20
 34.54 
 30
 14.12 
  0
VERTEX
  8
0
 10
 286.63 
 20
 34.22 
 30
 10.84 
  0
VERTEX
  8
0
 10
 283.73 
 20
 36.16 
 30
 7.01 
  0
VERTEX
  8
0
 10
 279.25 
 20
 37.68 
 30
 5.87 
  0
VERTEX
  8
0
 10
 273.72 
 20
 37.6521090740725 
 30
 4.29 
  0
VERTEX
  8
0
 10
 273.72 
 20
 37.7078909259275 
 30
 4.29 
  0
VERTEX
  8
0
 10
 279.25 
 20
 37.68 
 30
 5.87 
  0
VERTEX
  8
0
 10
 283.73 
 20
 39.2 
 30
 7.01 
  0
VERTEX
  8
0
 10
 286.63 
 20
 41.14 
 30
 10.84 
  0
VERTEX
  8
0
 10
 287.94 
 20
 40.82 
 30
 14.12 
  0
VERTEX
  8
0
 10
 289.12 
 20
 39.23 
 30
 17.38 
  0
VERTEX
  8
0
 10
 288.867773913708 
 20
 37.71 
 30
 19.04 
  0
VERTEX
  8
0
 10
 289.32 
 20
 37.68 
 30
 18.54 
  0
SEQEND
  0
POLYLINE
  8
0
 66
     1
 10
0.0
 20
0.0
 30
0.0
  0
VERTEX
  8
0
 10
 52.1687254939428 
 20
 37.6733450130226 
 30
 2.61776061776063 
  0
VERTEX
  8
0
 10
 58.7081603292952 
 20
 37.675865396636 
 30
 2.24770229905577 
  0
VERTEX
  8
0
 10
 65.2475951646476 
 20
 37.6781779811234 
 30
 1.89747332890721 
  0
VERTEX
  8
0
 10
 71.48703 
 20
 37.68 
 30
 1.6 
  0
VERTEX
  8
0
 10
 99.3202866666667 
 20
 37.6825302773046 
 30
 .84190889662385 
  0
VERTEX
  8
0
 10
 127.153543333333 
 20
 37.6803898452786 
 30
 .738034847798596 
  0
VERTEX
  8
0
 10
 154.6868 
 20
 37.68 
 30
 .88 
  0
VERTEX
  8
0
 10
 184.4512 
 20
 37.6855644685092 
 30
 1.00415106895868 
  0
VERTEX
  8
0
 10
 214.2156 
 20
 37.6892388287416 
 30
 1.374597536501 
  0
VERTEX
  8
0
 10
 243.68 
 20
 37.68 
 30
 2.4 
  0
VERTEX
  8
0
 10
 253.793333333333 
 20
 37.6721374306033 
 30
 2.96756637469309 
  0
VERTEX
  8
0
 10
 263.906666666667 
 20
 37.6624201518631 
 30
 3.61859333678447 
  0
VERTEX
  8
0
 10
 273.72 
 20
 37.6521090740725 
 30
 4.29 
  0
VERTEX
  8
0
 10
 273.72 
 20
 37.7078909259275 
 30
 4.29 
  0
VERTEX
  8
0
 10
 263.906666666667 
 20
 37.6975798481369 
 30
 3.61859333678447 
  0
VERTEX
  8
0
 10
 253.793333333333 
 20
 37.6878625693967 
 30
 2.96756637469309 
  0
VERTEX
  8
0
 10
 243.68 
 20
 37.68 
 30
 2.4 
  0
VERTEX
  8
0
 10
 214.2156 
 20
 37.6707611712584 
 30
 1.374597536501 
  0
VERTEX
  8
0
 10
 184.4512 
 20
 37.6744355314908 
 30
 1.00415106895868 
  0
VERTEX
  8
0
 10
 154.6868 
 20
 37.68 
 30
 .88 
  0
VERTEX
  8
0
 10
 127.153543333333 
 20
 37.6796101547214 
 30
 .738034847798596 
  0
VERTEX
  8
0
 10
 99.3202866666667 
 20
 37.6774697226954 
 30
 .84190889662385 
  0
VERTEX
  8
0
 10
 71.48703 
 20
 37.68 
 30
 1.6 
  0
VERTEX
  8
0
 10
 65.2475951646476 
 20
 37.6818220188766 
 30
 1.89747332890721 
  0
VERTEX
  8
0
 10
 58.7081603292952 
 20
 37.684134603364 
 30
 2.24770229905577 
  0
VERTEX
  8
0
 10
 52.1687254939428 
 20
 37.6866549869774 
 30
 2.61776061776063 
  0
VERTEX
  8
0
 10
 52.1687254939428 
 20
 37.6733450130226 
 30
 2.61776061776063 
  0
SEQEND
  0
POLYLINE
  8
0
 66
     1
 10
0.0
 20
0.0
 30
0.0
  0
VERTEX
  8
0
 10
 40.75 
 20
 37.6730272685181 
 30
 5.4 
  0
VERTEX
  8
0
 10
 51.0956766666667 
 20
 36.95026136024 
 30
 4.47422473481038 
  0
VERTEX
  8
0
 10
 61.4413533333333 
 20
 36.2695486701835 
 30
 3.60275860077525 
  0
VERTEX
  8
0
 10
 71.48703 
 20
 35.6886695241771 
 30
 2.86 
  0
VERTEX
  8
0
 10
 99.3202866666667 
 20
 34.6284151331467 
 30
 1.51696896387516 
  0
VERTEX
  8
0
 10
 127.153543333333 
 20
 34.1821030965751 
 30
 1.0009392802311 
  0
VERTEX
  8
0
 10
 154.6868 
 20
 34.06 
 30
 .97 
  0
VERTEX
  8
0
 10
 184.4512 
 20
 34.0710366915279 
 30
 1.20470104089597 
  0
VERTEX
  8
0
 10
 214.2156 
 20
 34.4378986453934 
 30
 1.87805138711242 
  0
VERTEX
  8
0
 10
 243.68 
 20
 35.46 
 30
 3.24 
  0
VERTEX
  8
0
 10
 255.636666666667 
 20
 36.11953008079 
 30
 4.03811460186185 
  0
VERTEX
  8
0
 10
 267.593333333333 
 20
 36.8841684138948 
 30
 4.94040990975313 
  0
VERTEX
  8
0
 10
 279.25 
 20
 37.68 
 30
 5.87 
  0
VERTEX
  8
0
 10
 279.25 
 20
 37.68 
 30
 5.87 
  0
VERTEX
  8
0
 10
 267.593333333333 
 20
 38.4758315861052 
 30
 4.94040990975313 
  0
VERTEX
  8
0
 10
 255.636666666667 
 20
 39.24046991921 
 30
 4.03811460186185 
  0
VERTEX
  8
0
 10
 243.68 
 20
 39.9 
 30
 3.24 
  0
VERTEX
  8
0
 10
 214.2156 
 20
 40.9221013546067 
 30
 1.87805138711242 
  0
VERTEX
  8
0
 10
 184.4512 
 20
 41.2889633084721 
 30
 1.20470104089597 
  0
VERTEX
  8
0
 10
 154.6868 
 20
 41.3 
 30
 .97 
  0
VERTEX
  8
0
 10
 127.153543333333 
 20
 41.1778969034249 
 30
 1.0009392802311 
  0
VERTEX
  8
0
 10
 99.3202866666667 
 20
 40.7315848668533 
 30
 1.51696896387516 
  0
VERTEX
  8
0
 10
 71.48703 
 20
 39.6713304758229 
 30
 2.86 
  0
VERTEX
  8
0
 10
 61.4413533333333 
 20
 39.0904513298165 
 30
 3.60275860077525 
  0
VERTEX
  8
0
 10
 51.0956766666667 
 20
 38.40973863976 
 30
 4.47422473481038 
  0
VERTEX
  8
0
 10
 40.75 
 20
 37.6869727314819 
 30
 5.4 
  0
VERTEX
  8
0
 10
 40.75 
 20
 37.6730272685181 
 30
 5.4 
  0
SEQEND
  0
POLYLINE
  8
0
 66
     1
 10
0.0
 20
0.0
 30
0.0
  0
VERTEX
  8
0
 10
 35.1725011850269 
 20
 37.6762482150759 
 30
 7.86593493238553 
  0
VERTEX
  8
0
 10
 47.3773441233513 
 20
 35.8321055387718 
 30
 6.75895973874574 
  0
VERTEX
  8
0
 10
 59.5821870616756 
 20
 34.1011642063684 
 30
 5.72074520750455 
  0
VERTEX
  8
0
 10
 71.48703 
 20
 32.63 
 30
 4.84 
  0
VERTEX
  8
0
 10
 99.3202866666667 
 20
 30.3287819264409 
 30
 3.47082114743363 
  0
VERTEX
  8
0
 10
 127.153543333333 
 20
 29.3520098439026 
 30
 2.8973746367849 
  0
VERTEX
  8
0
 10
 154.6868 
 20
 29.27 
 30
 2.85 
  0
VERTEX
  8
0
 10
 184.4512 
 20
 29.790757225505 
 30
 3.14558431995165 
  0
VERTEX
  8
0
 10
 214.2156 
 20
 30.9296861202384 
 30
 3.81028019404764 
  0
VERTEX
  8
0
 10
 243.68 
 20
 32.7401329827226 
 30
 4.9 
  0
VERTEX
  8
0
 10
 257.13 
 20
 33.8025518101878 
 30
 5.55177788286357 
  0
VERTEX
  8
0
 10
 270.58 
 20
 34.9691914956884 
 30
 6.27235825487341 
  0
VERTEX
  8
0
 10
 283.73 
 20
 36.16 
 30
 7.01 
  0
VERTEX
  8
0
 10
 283.73 
 20
 39.2 
 30
 7.01 
  0
VERTEX
  8
0
 10
 270.58 
 20
 40.3908085043116 
 30
 6.27235825487341 
  0
VERTEX
  8
0
 10
 257.13 
 20
 41.5574481898122 
 30
 5.55177788286357 
  0
VERTEX
  8
0
 10
 243.68 
 20
 42.6198670172774 
 30
 4.9 
  0
VERTEX
  8
0
 10
 214.2156 
 20
 44.4303138797616 
 30
 3.81028019404764 
  0
VERTEX
  8
0
 10
 184.4512 
 20
 45.569242774495 
 30
 3.14558431995165 
  0
VERTEX
  8
0
 10
 154.6868 
 20
 46.09 
 30
 2.85 
  0
VERTEX
  8
0
 10
 127.153543333333 
 20
 46.0079901560974 
 30
 2.8973746367849 
  0
VERTEX
  8
0
 10
 99.3202866666667 
 20
 45.0312180735591 
 30
 3.47082114743363 
  0
VERTEX
  8
0
 10
 71.48703 
 20
 42.73 
 30
 4.84 
  0
VERTEX
  8
0
 10
 59.5821870616756 
 20
 41.2588357936317 
 30
 5.72074520750455 
  0
VERTEX
  8
0
 10
 47.3773441233513 
 20
 39.5278944612282 
 30
 6.75895973874574 
  0
VERTEX
  8
0
 10
 35.1725011850269 
 20
 37.6837517849241 
 30
 7.86593493238553 
  0
VERTEX
  8
0
 10
 35.1725011850269 
 20
 37.6762482150759 
 30
 7.86593493238553 
  0
SEQEND
  0
POLYLINE
  8
0
 66
     1
 10
0.0
 20
0.0
 30
0.0
  0
VERTEX
  8
0
 10
 30.03 
 20
 37.6762482150759 
 30
 11.43 
  0
VERTEX
  8
0
 10
 43.94901 
 20
 34.7672890002219 
 30
 10.9786796381406 
  0
VERTEX
  8
0
 10
 57.86802 
 20
 32.0497490069316 
 30
 10.5540359387378 
  0
VERTEX
  8
0
 10
 71.48703 
 20
 29.76 
 30
 10.19 
  0
VERTEX
  8
0
 10
 99.3202866666667 
 20
 26.6300514683088 
 30
 9.66576336556983 
  0
VERTEX
  8
0
 10
 127.153543333333 
 20
 25.2583247051084 
 30
 9.40927384025878 
  0
VERTEX
  8
0
 10
 154.6868 
 20
 25.12 
 30
 9.37 
  0
VERTEX
  8
0
 10
 184.4512 
 20
 25.8529742269231 
 30
 9.51386699543228 
  0
VERTEX
  8
0
 10
 214.2156 
 20
 27.3991973114898 
 30
 9.80403609702474 
  0
VERTEX
  8
0
 10
 243.68 
 20
 29.72 
 30
 10.19 
  0
VERTEX
  8
0
 10
 258.096666666667 
 20
 31.1285592884726 
 30
 10.4011846249957 
  0
VERTEX
  8
0
 10
 272.513333333333 
 20
 32.6604467363292 
 30
 10.620834225097 
  0
VERTEX
  8
0
 10
 286.63 
 20
 34.22 
 30
 10.84 
  0
VERTEX
  8
0
 10
 286.63 
 20
 41.14 
 30
 10.84 
  0
VERTEX
  8
0
 10
 272.513333333333 
 20
 42.6995532636708 
 30
 10.620834225097 
  0
VERTEX
  8
0
 10
 258.096666666667 
 20
 44.2314407115274 
 30
 10.4011846249957 
  0
VERTEX
  8
0
 10
 243.68 
 20
 45.64 
 30
 10.19 
  0
VERTEX
  8
0
 10
 214.2156 
 20
 47.9608026885102 
 30
 9.80403609702474 
  0
VERTEX
  8
0
 10
 184.4512 
 20
 49.5070257730769 
 30
 9.51386699543228 
  0
VERTEX
  8
0
 10
 154.6868 
 20
 50.24 
 30
 9.37 
  0
VERTEX
  8
0
 10
 127.153543333333 
 20
 50.1016752948916 
 30
 9.40927384025878 
  0
VERTEX
  8
0
 10
 99.3202866666667 
 20
 48.7299485316913 
 30
 9.66576336556983 
  0
VERTEX
  8
0
 10
 71.48703 
 20
 45.6 
 30
 10.19 
  0
VERTEX
  8
0
 10
 57.86802 
 20
 43.3102509930684 
 30
 10.5540359387378 
  0
VERTEX
  8
0
 10
 43.94901 
 20
 40.5927109997781 
 30
 10.9786796381406 
  0
VERTEX
  8
0
 10
 30.03 
 20
 37.6837517849241 
 30
 11.43 
  0
VERTEX
  8
0
 10
 30.03 
 20
 37.6762482150759 
 30
 11.43 
  0
SEQEND
  0
POLYLINE
  8
0
 66
     1
 10
0.0
 20
0.0
 30
0.0
  0
VERTEX
  8
0
 10
 27.28 
 20
 37.67 
 30
 13.81 
  0
VERTEX
  8
0
 10
 42.1166666666667 
 20
 34.8684597345371 
 30
 14.0514542467601 
  0
VERTEX
  8
0
 10
 56.9533333333333 
 20
 32.2478483633293 
 30
 14.2802633095032 
  0
VERTEX
  8
0
 10
 71.49 
 20
 30.03 
 30
 14.48 
  0
VERTEX
  8
0
 10
 99.3233333333333 
 20
 27.1129896736828 
 30
 14.7653523498839 
  0
VERTEX
  8
0
 10
 127.156666666667 
 20
 25.7312589538361 
 30
 14.9184199163284 
  0
VERTEX
  8
0
 10
 154.69 
 20
 25.52 
 30
 14.94 
  0
VERTEX
  8
0
 10
 184.453333333333 
 20
 26.2372200044755 
 30
 14.828907922443 
  0
VERTEX
  8
0
 10
 214.216666666667 
 20
 27.7987296162399 
 30
 14.6304627859531 
  0
VERTEX
  8
0
 10
 243.68 
 20
 30.09 
 30
 14.41 
  0
VERTEX
  8
0
 10
 258.533333333333 
 20
 31.4917717577717 
 30
 14.3074299410774 
  0
VERTEX
  8
0
 10
 273.386666666667 
 20
 33.0043779067073 
 30
 14.211208984232 
  0
VERTEX
  8
0
 10
 287.94 
 20
 34.54 
 30
 14.12 
  0
VERTEX
  8
0
 10
 287.94 
 20
 40.82 
 30
 14.12 
  0
VERTEX
  8
0
 10
 273.386666666667 
 20
 42.3556220932927 
 30
 14.211208984232 
  0
VERTEX
  8
0
 10
 258.533333333333 
 20
 43.8682282422283 
 30
 14.3074299410774 
  0
VERTEX
  8
0
 10
 243.68 
 20
 45.27 
 30
 14.41 
  0
VERTEX
  8
0
 10
 214.216666666667 
 20
 47.5612703837601 
 30
 14.6304627859531 
  0
VERTEX
  8
0
 10
 184.453333333333 
 20
 49.1227799955245 
 30
 14.828907922443 
  0
VERTEX
  8
0
 10
 154.69 
 20
 49.84 
 30
 14.94 
  0
VERTEX
  8
0
 10
 127.156666666667 
 20
 49.6287410461639 
 30
 14.9184199163284 
  0
VERTEX
  8
0
 10
 99.3233333333333 
 20
 48.2470103263173 
 30
 14.7653523498839 
  0
VERTEX
  8
0
 10
 71.49 
 20
 45.33 
 30
 14.48 
  0
VERTEX
  8
0
 10
 56.9533333333333 
 20
 43.1121516366707 
 30
 14.2802633095032 
  0
VERTEX
  8
0
 10
 42.1166666666667 
 20
 40.4915402654629 
 30
 14.0514542467601 
  0
VERTEX
  8
0
 10
 27.28 
 20
 37.69 
 30
 13.81 
  0
VERTEX
  8
0
 10
 27.28 
 20
 37.67 
 30
 13.81 
  0
SEQEND
  0
POLYLINE
  8
0
 66
     1
 10
0.0
 20
0.0
 30
0.0
  0
VERTEX
  8
0
 10
 26.49 
 20
 37.6762482150759 
 30
 16.86 
  0
VERTEX
  8
0
 10
 41.58901 
 20
 35.6776237316521 
 30
 17.6168391451918 
  0
VERTEX
  8
0
 10
 56.68802 
 20
 33.7845678680555 
 30
 18.3262954148621 
  0
VERTEX
  8
0
 10
 71.48703 
 20
 32.133332708974 
 30
 18.93 
  0
VERTEX
  8
0
 10
 99.3202866666667 
 20
 29.8043894160122 
 30
 19.7268714884514 
  0
VERTEX
  8
0
 10
 127.153543333333 
 20
 28.4787304130343 
 30
 20.1335968696905 
  0
VERTEX
  8
0
 10
 154.6868 
 20
 28.09 
 30
 20.24 
  0
VERTEX
  8
0
 10
 184.4512 
 20
 28.6172108089969 
 30
 20.1010779016202 
  0
VERTEX
  8
0
 10
 214.2156 
 20
 29.9960561077149 
 30
 19.6885967266665 
  0
VERTEX
  8
0
 10
 243.68 
 20
 32.0564143644143 
 30
 18.98 
  0
VERTEX
  8
0
 10
 258.926666666667 
 20
 33.3423792302969 
 30
 18.4915899434276 
  0
VERTEX
  8
0
 10
 274.173333333333 
 20
 34.7261479925864 
 30
 17.9445854306963 
  0
VERTEX
  8
0
 10
 289.12 
 20
 36.13 
 30
 17.38 
  0
VERTEX
  8
0
 10
 289.12 
 20
 39.23 
 30
 17.38 
  0
VERTEX
  8
0
 10
 274.173333333333 
 20
 40.6338520074136 
 30
 17.9445854306963 
  0
VERTEX
  8
0
 10
 258.926666666667 
 20
 42.0176207697031 
 30
 18.4915899434276 
  0
VERTEX
  8
0
 10
 243.68 
 20
 43.3035856355857 
 30
 18.98 
  0
VERTEX
  8
0
 10
 214.2156 
 20
 45.3639438922851 
 30
 19.6885967266665 
  0
VERTEX
  8
0
 10
 184.4512 
 20
 46.7427891910031 
 30
 20.1010779016202 
  0
VERTEX
  8
0
 10
 154.6868 
 20
 47.27 
 30
 20.24 
  0
VERTEX
  8
0
 10
 127.153543333333 
 20
 46.8812695869657 
 30
 20.1335968696905 
  0
VERTEX
  8
0
 10
 99.3202866666667 
 20
 45.5556105839878 
 30
 19.7268714884514 
  0
VERTEX
  8
0
 10
 71.48703 
 20
 43.226667291026 
 30
 18.93 
  0
VERTEX
  8
0
 10
 56.68802 
 20
 41.5754321319446 
 30
 18.3262954148621 
  0
VERTEX
  8
0
 10
 41.58901 
 20
 39.6823762683479 
 30
 17.6168391451918 
  0
VERTEX
  8
0
 10
 26.49 
 20
 37.6837517849241 
 30
 16.86 
  0
VERTEX
  8
0
 10
 26.49 
 20
 37.6762482150759 
 30
 16.86 
  0
SEQEND
  0
POLYLINE
  8
0
 66
     1
 10
0.0
 20
0.0
 30
0.0
  0
VERTEX
  8
0
 10
 28.44 
 20
 37.65 
 30
 19.04 
  0
VERTEX
  8
0
 10
 42.88901 
 20
 36.5334173483158 
 30
 19.7410723071048 
  0
VERTEX
  8
0
 10
 57.33802 
 20
 35.4709069866081 
 30
 20.4169160218322 
  0
VERTEX
  8
0
 10
 71.48703 
 20
 34.5348943557819 
 30
 21.03 
  0
VERTEX
  8
0
 10
 99.3202866666667 
 20
 33.1230725875893 
 30
 22.0237090934242 
  0
VERTEX
  8
0
 10
 127.153543333333 
 20
 32.2807199261197 
 30
 22.6800336691741 
  0
VERTEX
  8
0
 10
 154.6868 
 20
 31.98 
 30
 22.94 
  0
VERTEX
  8
0
 10
 184.4512 
 20
 32.2265792620589 
 30
 22.743411990773 
  0
VERTEX
  8
0
 10
 214.2156 
 20
 33.0712237424595 
 30
 22.0975483005026 
  0
VERTEX
  8
0
 10
 243.68 
 20
 34.507407175748 
 30
 21.084 
  0
VERTEX
  8
0
 10
 258.842591304569 
 20
 35.4734564426826 
 30
 20.4424491396347 
  0
VERTEX
  8
0
 10
 274.005182609139 
 20
 36.5464757267902 
 30
 19.7473071632305 
  0
VERTEX
  8
0
 10
 288.867773913708 
 20
 37.65 
 30
 19.04 
  0
VERTEX
  8
0
 10
 288.867773913708 
 20
 37.71 
 30
 19.04 
  0
VERTEX
  8
0
 10
 274.005182609139 
 20
 38.8135242732098 
 30
 19.7473071632305 
  0
VERTEX
  8
0
 10
 258.842591304569 
 20
 39.8865435573174 
 30
 20.4424491396347 
  0
VERTEX
  8
0
 10
 243.68 
 20
 40.852592824252 
 30
 21.084 
  0
VERTEX
  8
0
 10
 214.2156 
 20
 42.2887762575405 
 30
 22.0975483005026 
  0
VERTEX
  8
0
 10
 184.4512 
 20
 43.1334207379411 
 30
 22.743411990773 
  0
VERTEX
  8
0
 10
 154.6868 
 20
 43.38 
 30
 22.94 
  0
VERTEX
  8
0
 10
 127.153543333333 
 20
 43.0792800738803 
 30
 22.6800336691741 
  0
VERTEX
  8
0
 10
 99.3202866666667 
 20
 42.2369274124107 
 30
 22.0237090934242 
  0
VERTEX
  8
0
 10
 71.48703 
 20
 40.8251056442181 
 30
 21.03 
  0
VERTEX
  8
0
 10
 57.33802 
 20
 39.8890930133919 
 30
 20.4169160218322 
  0
VERTEX
  8
0
 10
 42.88901 
 20
 38.8265826516842 
 30
 19.7410723071048 
  0
VERTEX
  8
0
 10
 28.44 
 20
 37.71 
 30
 19.04 
  0
VERTEX
  8
0
 10
 28.44 
 20
 37.65 
 30
 19.04 
  0
SEQEND
  0
POLYLINE
  8
0
 66
     1
 10
0.0
 20
0.0
 30
0.0
  0
VERTEX
  8
0
 10
 37.0269444479905 
 20
 37.6745172272862 
 30
 20.2092576484799 
  0
VERTEX
  8
0
 10
 48.6136396319937 
 20
 37.6766248353327 
 30
 20.7681757720662 
  0
VERTEX
  8
0
 10
 60.2003348159968 
 20
 37.678530458007 
 30
 21.3061258498485 
  0
VERTEX
  8
0
 10
 71.48703 
 20
 37.68 
 30
 21.79 
  0
VERTEX
  8
0
 10
 99.3202866666667 
 20
 37.6815089172169 
 30
 22.7396383002846 
  0
VERTEX
  8
0
 10
 127.153543333333 
 20
 37.6810173510112 
 30
 23.3373167276837 
  0
VERTEX
  8
0
 10
 154.6868 
 20
 37.68 
 30
 23.59 
  0
VERTEX
  8
0
 10
 184.4512 
 20
 37.6795747504323 
 30
 23.4710023601319 
  0
VERTEX
  8
0
 10
 214.2156 
 20
 37.6797306614497 
 30
 22.8435519731239 
  0
VERTEX
  8
0
 10
 243.68 
 20
 37.68 
 30
 21.6 
  0
VERTEX
  8
0
 10
 258.993333333333 
 20
 37.6800503269871 
 30
 20.683091900928 
  0
VERTEX
  8
0
 10
 274.306666666667 
 20
 37.6800397845985 
 30
 19.633387312462 
  0
VERTEX
  8
0
 10
 289.32 
 20
 37.68 
 30
 18.54 
  0
VERTEX
  8
0
 10
 289.32 
 20
 37.68 
 30
 18.54 
  0
VERTEX
  8
0
 10
 274.306666666667 
 20
 37.6799602154015 
 30
 19.633387312462 
  0
VERTEX
  8
0
 10
 258.993333333333 
 20
 37.6799496730129 
 30
 20.683091900928 
  0
VERTEX
  8
0
 10
 243.68 
 20
 37.68 
 30
 21.6 
  0
VERTEX
  8
0
 10
 214.2156 
 20
 37.6802693385503 
 30
 22.8435519731239 
  0
VERTEX
  8
0
 10
 184.4512 
 20
 37.6804252495677 
 30
 23.4710023601319 
  0
VERTEX
  8
0
 10
 154.6868 
 20
 37.68 
 30
 23.59 
  0
VERTEX
  8
0
 10
 127.153543333333 
 20
 37.6789826489888 
 30
 23.3373167276837 
  0
VERTEX
  8
0
 10
 99.3202866666667 
 20
 37.6784910827831 
 30
 22.7396383002846 
  0
VERTEX
  8
0
 10
 71.48703 
 20
 37.68 
 30
 21.79 
  0
VERTEX
  8
0
 10
 60.2003348159968 
 20
 37.681469541993 
 30
 21.3061258498485 
  0
VERTEX
  8
0
 10
 48.6136396319937 
 20
 37.6833751646673 
 30
 20.7681757720662 
  0
VERTEX
  8
0
 10
 37.0269444479905 
 20
 37.6854827727138 
 30
 20.2092576484799 
  0
VERTEX
  8
0
 10
 37.0269444479905 
 20
 37.6745172272862 
 30
 20.2092576484799 
  0
SEQEND
  0
ENDSEC
  0
EOF
