  0
SECTION
  2
ENTITIES
  0
LINE
  8
0
 10
 0 
 20
 0 
 11
 0 
 21
 3.7544894307368E-03 
  0
LINE
  8
0
 10
 12.2546535019249 
 20
-1.86598124707619 
 11
 12.2546535019249 
 21
 1.86973573650693 
  0
LINE
  8
0
 10
 24.5017980249884 
 20
-3.55550149090775 
 11
 24.5017980249884 
 21
 3.56301046976923 
  0
LINE
  8
0
 10
 36.4373199253007 
 20
-4.87708177052711 
 11
 36.4373199253007 
 21
 4.88459074938858 
  0
LINE
  8
0
 10
 64.291877011937 
 20
-6.32256020136078 
 11
 64.2956315013678 
 21
 6.33006918022225 
  0
LINE
  8
0
 10
 92.1276616514197 
 20
-6.23620694445383 
 11
 92.1276616514197 
 21
 6.23996143388457 
  0
LINE
  8
0
 10
 119.659332647013 
 20
-5.74812331845805 
 11
 119.663087136443 
 21
 5.74061433959657 
  0
LINE
  8
0
 10
 149.424924853894 
 20
-5.6617700615511 
 11
 149.428679343325 
 21
 5.65050659325889 
  0
LINE
  8
0
 10
 179.190517060775 
 20
-5.64299761439742 
 11
 179.194271550206 
 21
 5.620470677813 
  0
LINE
  8
0
 10
 208.674522560352 
 20
-4.95592604857258 
 11
 208.678277049782 
 21
 4.92213564369595 
  0
LINE
  8
0
 10
 222.682522626431 
 20
-4.22755509900964 
 11
 222.686277115861 
 21
 4.1825012258408 
  0
LINE
  8
0
 10
 236.705540650233 
 20
-3.2851782518947 
 11
 236.709295139663 
 21
 3.23636988929512 
  0
LINE
  8
0
 10
 .435520773965469 
 20
 .28158670730526 
 11
 .277832217874523 
 21
 .28158670730526 
  0
LINE
  8
0
 10
 .277832217874523 
 20
 .28158670730526 
 11
 .277832217874523 
 21
 .157688556090946 
  0
LINE
  8
0
 10
 .277832217874523 
 20
 .157688556090946 
 11
 .405484858519575 
 21
 .157688556090946 
  0
LINE
  8
0
 10
 .405484858519575 
 20
 .157688556090946 
 11
 .277832217874523 
 21
 .157688556090946 
  0
LINE
  8
0
 10
 .277832217874523 
 20
 .157688556090946 
 11
 .277832217874523 
 21
 3.37904048766312E-02 
  0
LINE
  8
0
 10
 36.7189066326059 
 20
 3.37904048766312E-02 
 11
 36.7189066326059 
 21
 .285341196735997 
  0
LINE
  8
0
 10
 36.7189066326059 
 20
 .285341196735997 
 11
 36.8428047838203 
 21
 .285341196735997 
  0
LINE
  8
0
 10
 36.8428047838203 
 20
 .285341196735997 
 11
 36.8765951886969 
 21
 .251550791859366 
  0
LINE
  8
0
 10
 36.8765951886969 
 20
 .251550791859366 
 11
 36.8765951886969 
 21
 .191478960967577 
  0
LINE
  8
0
 10
 36.8765951886969 
 20
 .191478960967577 
 11
 36.8428047838203 
 21
 .157688556090946 
  0
LINE
  8
0
 10
 36.8428047838203 
 20
 .157688556090946 
 11
 36.7189066326059 
 21
 .157688556090946 
  0
LINE
  8
0
 10
 36.7189066326059 
 20
 .157688556090946 
 11
 36.8428047838203 
 21
 .157688556090946 
  0
LINE
  8
0
 10
 36.8428047838203 
 20
 .157688556090946 
 11
 36.8765951886969 
 21
 .127652640645051 
  0
LINE
  8
0
 10
 36.8765951886969 
 20
 .127652640645051 
 11
 36.8765951886969 
 21
 6.38263203225257E-02 
  0
LINE
  8
0
 10
 36.8765951886969 
 20
 6.38263203225257E-02 
 11
 36.8428047838203 
 21
 3.37904048766312E-02 
  0
LINE
  8
0
 10
 36.8428047838203 
 20
 3.37904048766312E-02 
 11
 36.7189066326059 
 21
 3.37904048766312E-02 
  0
LINE
  8
0
 10
 36.9667029350346 
 20
 .285341196735997 
 11
 36.9667029350346 
 21
 3.37904048766312E-02 
  0
LINE
  8
0
 10
 36.9667029350346 
 20
 3.37904048766312E-02 
 11
 36.9667029350346 
 21
 .157688556090946 
  0
LINE
  8
0
 10
 36.9667029350346 
 20
 .157688556090946 
 11
 37.1243914911255 
 21
 .157688556090946 
  0
LINE
  8
0
 10
 37.1243914911255 
 20
 .157688556090946 
 11
 37.1243914911255 
 21
 3.37904048766312E-02 
  0
LINE
  8
0
 10
 37.1243914911255 
 20
 3.37904048766312E-02 
 11
 37.1243914911255 
 21
 .285341196735997 
  0
LINE
  8
0
 10
 37.2482896423398 
 20
 .251550791859366 
 11
 37.2820800472165 
 21
 .285341196735997 
  0
LINE
  8
0
 10
 37.2820800472165 
 20
 .285341196735997 
 11
 37.2820800472165 
 21
 3.37904048766312E-02 
  0
LINE
  8
0
 10
 37.2820800472165 
 20
 3.37904048766312E-02 
 11
 37.2482896423398 
 21
 3.37904048766312E-02 
  0
LINE
  8
0
 10
 37.2482896423398 
 20
 3.37904048766312E-02 
 11
 37.3121159626624 
 21
 3.37904048766312E-02 
  0
LINE
  8
0
 10
 119.944673843749 
 20
 3.00359154458944E-02 
 11
 119.944673843749 
 21
 .277832217874523 
  0
LINE
  8
0
 10
 119.944673843749 
 20
 .277832217874523 
 11
 120.068571994963 
 21
 .277832217874523 
  0
LINE
  8
0
 10
 120.068571994963 
 20
 .277832217874523 
 11
 120.098607910409 
 21
 .247796302428629 
  0
LINE
  8
0
 10
 120.098607910409 
 20
 .247796302428629 
 11
 120.098607910409 
 21
 .183969982106103 
  0
LINE
  8
0
 10
 120.098607910409 
 20
 .183969982106103 
 11
 120.068571994963 
 21
 .153934066660209 
  0
LINE
  8
0
 10
 120.068571994963 
 20
 .153934066660209 
 11
 119.944673843749 
 21
 .153934066660209 
  0
LINE
  8
0
 10
 119.944673843749 
 20
 .153934066660209 
 11
 120.068571994963 
 21
 .153934066660209 
  0
LINE
  8
0
 10
 120.068571994963 
 20
 .153934066660209 
 11
 120.098607910409 
 21
 .120143661783578 
  0
LINE
  8
0
 10
 120.098607910409 
 20
 .120143661783578 
 11
 120.098607910409 
 21
 6.00718308917889E-02 
  0
LINE
  8
0
 10
 120.098607910409 
 20
 6.00718308917889E-02 
 11
 120.068571994963 
 21
 3.00359154458944E-02 
  0
LINE
  8
0
 10
 120.068571994963 
 20
 3.00359154458944E-02 
 11
 119.944673843749 
 21
 3.00359154458944E-02 
  0
LINE
  8
0
 10
 120.192470146177 
 20
 .277832217874523 
 11
 120.192470146177 
 21
 3.00359154458944E-02 
  0
LINE
  8
0
 10
 120.192470146177 
 20
 3.00359154458944E-02 
 11
 120.192470146177 
 21
 .153934066660209 
  0
LINE
  8
0
 10
 120.192470146177 
 20
 .153934066660209 
 11
 120.350158702268 
 21
 .153934066660209 
  0
LINE
  8
0
 10
 120.350158702268 
 20
 .153934066660209 
 11
 120.350158702268 
 21
 3.00359154458944E-02 
  0
LINE
  8
0
 10
 120.350158702268 
 20
 3.00359154458944E-02 
 11
 120.350158702268 
 21
 .277832217874523 
  0
LINE
  8
0
 10
 120.444020938037 
 20
 .247796302428629 
 11
 120.474056853483 
 21
 .277832217874523 
  0
LINE
  8
0
 10
 120.474056853483 
 20
 .277832217874523 
 11
 120.567919089251 
 21
 .277832217874523 
  0
LINE
  8
0
 10
 120.567919089251 
 20
 .277832217874523 
 11
 120.597955004697 
 21
 .247796302428629 
  0
LINE
  8
0
 10
 120.597955004697 
 20
 .247796302428629 
 11
 120.597955004697 
 21
 .183969982106103 
  0
LINE
  8
0
 10
 120.597955004697 
 20
 .183969982106103 
 11
 120.567919089251 
 21
 .153934066660209 
  0
LINE
  8
0
 10
 120.567919089251 
 20
 .153934066660209 
 11
 120.444020938037 
 21
 3.00359154458944E-02 
  0
LINE
  8
0
 10
 120.444020938037 
 20
 3.00359154458944E-02 
 11
 120.597955004697 
 21
 3.00359154458944E-02 
  0
LINE
  8
0
 10
 120.597955004697 
 20
 3.00359154458944E-02 
 11
 120.597955004697 
 21
 6.00718308917889E-02 
  0
LINE
  8
0
 10
 119.944673843749 
 20
 5.52285395261384 
 11
 120.10236239984 
 21
 5.52285395261384 
  0
LINE
  8
0
 10
 120.10236239984 
 20
 5.52285395261384 
 11
 120.008500164071 
 21
 5.52285395261384 
  0
LINE
  8
0
 10
 120.008500164071 
 20
 5.52285395261384 
 11
 120.008500164071 
 21
 5.27130316075447 
  0
LINE
  8
0
 10
 119.940919354318 
 20
-5.46653661115279 
 11
 119.940919354318 
 21
-5.21498581929342 
  0
LINE
  8
0
 10
 119.940919354318 
 20
-5.21498581929342 
 11
 120.068571994963 
 21
-5.21498581929342 
  0
LINE
  8
0
 10
 120.068571994963 
 20
-5.21498581929342 
 11
 120.098607910409 
 21
-5.24502173473931 
  0
LINE
  8
0
 10
 120.098607910409 
 20
-5.24502173473931 
 11
 120.098607910409 
 21
-5.30884805506184 
  0
LINE
  8
0
 10
 120.098607910409 
 20
-5.30884805506184 
 11
 120.068571994963 
 21
-5.33888397050774 
  0
LINE
  8
0
 10
 120.068571994963 
 20
-5.33888397050774 
 11
 119.940919354318 
 21
-5.33888397050774 
  0
LINE
  8
0
 10
 119.940919354318 
 20
-5.33888397050774 
 11
 120.068571994963 
 21
-5.33888397050774 
  0
LINE
  8
0
 10
 120.068571994963 
 20
-5.33888397050774 
 11
 120.098607910409 
 21
-5.37267437538437 
  0
LINE
  8
0
 10
 120.098607910409 
 20
-5.37267437538437 
 11
 120.098607910409 
 21
-5.43274620627616 
  0
LINE
  8
0
 10
 120.098607910409 
 20
-5.43274620627616 
 11
 120.068571994963 
 21
-5.46653661115279 
  0
LINE
  8
0
 10
 120.068571994963 
 20
-5.46653661115279 
 11
 119.940919354318 
 21
-5.46653661115279 
  0
LINE
  8
0
 10
 208.956109267657 
 20
 1.50179577229472E-02 
 11
 208.956109267657 
 21
 .262814260151576 
  0
LINE
  8
0
 10
 208.956109267657 
 20
 .262814260151576 
 11
 209.083761908302 
 21
 .262814260151576 
  0
LINE
  8
0
 10
 209.083761908302 
 20
 .262814260151576 
 11
 209.113797823748 
 21
 .232778344705682 
  0
LINE
  8
0
 10
 209.113797823748 
 20
 .232778344705682 
 11
 209.113797823748 
 21
 .168952024383156 
  0
LINE
  8
0
 10
 209.113797823748 
 20
 .168952024383156 
 11
 209.083761908302 
 21
 .138916108937262 
  0
LINE
  8
0
 10
 209.083761908302 
 20
 .138916108937262 
 11
 208.956109267657 
 21
 .138916108937262 
  0
LINE
  8
0
 10
 208.956109267657 
 20
 .138916108937262 
 11
 209.083761908302 
 21
 .138916108937262 
  0
LINE
  8
0
 10
 209.083761908302 
 20
 .138916108937262 
 11
 209.113797823748 
 21
 .108880193491367 
  0
LINE
  8
0
 10
 209.113797823748 
 20
 .108880193491367 
 11
 209.113797823748 
 21
 4.50538731688416E-02 
  0
LINE
  8
0
 10
 209.113797823748 
 20
 4.50538731688416E-02 
 11
 209.083761908302 
 21
 1.50179577229472E-02 
  0
LINE
  8
0
 10
 209.083761908302 
 20
 1.50179577229472E-02 
 11
 208.956109267657 
 21
 1.50179577229472E-02 
  0
LINE
  8
0
 10
 209.207660059516 
 20
 .262814260151576 
 11
 209.207660059516 
 21
 1.50179577229472E-02 
  0
LINE
  8
0
 10
 209.207660059516 
 20
 1.50179577229472E-02 
 11
 209.207660059516 
 21
 .138916108937262 
  0
LINE
  8
0
 10
 209.207660059516 
 20
 .138916108937262 
 11
 209.365348615607 
 21
 .138916108937262 
  0
LINE
  8
0
 10
 209.365348615607 
 20
 .138916108937262 
 11
 209.365348615607 
 21
 1.50179577229472E-02 
  0
LINE
  8
0
 10
 209.365348615607 
 20
 1.50179577229472E-02 
 11
 209.365348615607 
 21
 .262814260151576 
  0
LINE
  8
0
 10
 209.459210851376 
 20
 .232778344705682 
 11
 209.489246766821 
 21
 .262814260151576 
  0
LINE
  8
0
 10
 209.489246766821 
 20
 .262814260151576 
 11
 209.58310900259 
 21
 .262814260151576 
  0
LINE
  8
0
 10
 209.58310900259 
 20
 .262814260151576 
 11
 209.613144918036 
 21
 .232778344705682 
  0
LINE
  8
0
 10
 209.613144918036 
 20
 .232778344705682 
 11
 209.613144918036 
 21
 .168952024383156 
  0
LINE
  8
0
 10
 209.613144918036 
 20
 .168952024383156 
 11
 209.58310900259 
 21
 .138916108937262 
  0
LINE
  8
0
 10
 209.58310900259 
 20
 .138916108937262 
 11
 209.489246766821 
 21
 .138916108937262 
  0
LINE
  8
0
 10
 209.489246766821 
 20
 .138916108937262 
 11
 209.58310900259 
 21
 .138916108937262 
  0
LINE
  8
0
 10
 209.58310900259 
 20
 .138916108937262 
 11
 209.613144918036 
 21
 .108880193491367 
  0
LINE
  8
0
 10
 209.613144918036 
 20
 .108880193491367 
 11
 209.613144918036 
 21
 4.50538731688416E-02 
  0
LINE
  8
0
 10
 209.613144918036 
 20
 4.50538731688416E-02 
 11
 209.58310900259 
 21
 1.50179577229472E-02 
  0
LINE
  8
0
 10
 209.58310900259 
 20
 1.50179577229472E-02 
 11
 209.489246766821 
 21
 1.50179577229472E-02 
  0
LINE
  8
0
 10
 209.489246766821 
 20
 1.50179577229472E-02 
 11
 209.459210851376 
 21
 4.50538731688416E-02 
  0
LINE
  8
0
 10
 249.966397319595 
 20
 0 
 11
 249.966397319595 
 21
 .221514876413471 
  0
LINE
  8
0
 10
 249.966397319595 
 20
 .221514876413471 
 11
 249.996433235041 
 21
 .251550791859366 
  0
LINE
  8
0
 10
 249.996433235041 
 20
 .251550791859366 
 11
 250.090295470809 
 21
 .251550791859366 
  0
LINE
  8
0
 10
 250.090295470809 
 20
 .251550791859366 
 11
 250.120331386255 
 21
 .221514876413471 
  0
LINE
  8
0
 10
 250.120331386255 
 20
 .221514876413471 
 11
 250.120331386255 
 21
 .127652640645051 
  0
LINE
  8
0
 10
 250.120331386255 
 20
 .127652640645051 
 11
 249.966397319595 
 21
 .127652640645051 
  0
LINE
  8
0
 10
 249.966397319595 
 20
 .127652640645051 
 11
 250.120331386255 
 21
 .127652640645051 
  0
LINE
  8
0
 10
 250.120331386255 
 20
 .127652640645051 
 11
 250.120331386255 
 21
 0 
  0
LINE
  8
0
 10
 0 
 20
 0 
 11
 0 
 21
 3.7544894307368E-03 
  0
LINE
  8
0
 10
 0 
 20
 3.7544894307368E-03 
 11
 0 
 21
 3.7544894307368E-03 
  0
LINE
  8
0
 10
 0 
 20
 3.7544894307368E-03 
 11
 1.19017314954357 
 21
 .191478960967577 
  0
LINE
  8
0
 10
 1.19017314954357 
 20
 .191478960967577 
 11
 2.38785527794861 
 21
 .379203432504417 
  0
LINE
  8
0
 10
 2.38785527794861 
 20
 .379203432504417 
 11
 3.58553740635365 
 21
 .566927904041257 
  0
LINE
  8
0
 10
 3.58553740635365 
 20
 .566927904041257 
 11
 4.79072851362016 
 21
 .754652375578098 
  0
LINE
  8
0
 10
 4.79072851362016 
 20
 .754652375578098 
 11
 6.00342859974815 
 21
 .942376847114938 
  0
LINE
  8
0
 10
 6.00342859974815 
 20
 .942376847114938 
 11
 7.22739215416835 
 21
 1.12634682922104 
  0
LINE
  8
0
 10
 7.22739215416835 
 20
 1.12634682922104 
 11
 8.46261917688076 
 21
 1.31407130075788 
  0
LINE
  8
0
 10
 8.46261917688076 
 20
 1.31407130075788 
 11
 9.70910966788537 
 21
 1.49804128286399 
  0
LINE
  8
0
 10
 9.70910966788537 
 20
 1.49804128286399 
 11
 10.9743726060437 
 21
 1.68576575440083 
  0
LINE
  8
0
 10
 10.9743726060437 
 20
 1.68576575440083 
 11
 12.2546535019249 
 21
 1.86973573650693 
  0
LINE
  8
0
 10
 12.2546535019249 
 20
 1.86973573650693 
 11
 12.2546535019249 
 21
 1.86973573650693 
  0
LINE
  8
0
 10
 12.2546535019249 
 20
 1.86973573650693 
 11
 12.2546535019249 
 21
 1.86973573650693 
  0
LINE
  8
0
 10
 12.2546535019249 
 20
 1.86973573650693 
 11
 13.5537068449599 
 21
 2.05370571861303 
  0
LINE
  8
0
 10
 13.5537068449599 
 20
 2.05370571861303 
 11
 14.8602691668563 
 21
 2.2339212112884 
  0
LINE
  8
0
 10
 14.8602691668563 
 20
 2.2339212112884 
 11
 16.1705859781834 
 21
 2.41413670396377 
  0
LINE
  8
0
 10
 16.1705859781834 
 20
 2.41413670396377 
 11
 17.4696393212184 
 21
 2.59435219663913 
  0
LINE
  8
0
 10
 17.4696393212184 
 20
 2.59435219663913 
 11
 18.7461657276689 
 21
 2.77081319988376 
  0
LINE
  8
0
 10
 18.7461657276689 
 20
 2.77081319988376 
 11
 19.9964107081042 
 21
 2.93976522426692 
  0
LINE
  8
0
 10
 19.9964107081042 
 20
 2.93976522426692 
 11
 21.2053563048015 
 21
 3.10496275921934 
  0
LINE
  8
0
 10
 21.2053563048015 
 20
 3.10496275921934 
 11
 22.3692480283299 
 21
 3.26640580474102 
  0
LINE
  8
0
 10
 22.3692480283299 
 20
 3.26640580474102 
 11
 23.4693134315358 
 21
 3.41658538197049 
  0
LINE
  8
0
 10
 23.4693134315358 
 20
 3.41658538197049 
 11
 24.5017980249884 
 21
 3.56301046976923 
  0
LINE
  8
0
 10
 24.5017980249884 
 20
 3.56301046976923 
 11
 24.5017980249884 
 21
 3.56301046976923 
  0
LINE
  8
0
 10
 24.5017980249884 
 20
 3.56301046976923 
 11
 24.5017980249884 
 21
 3.56301046976923 
  0
LINE
  8
0
 10
 24.5017980249884 
 20
 3.56301046976923 
 11
 25.4667018086877 
 21
 3.70192657870649 
  0
LINE
  8
0
 10
 25.4667018086877 
 20
 3.70192657870649 
 11
 26.3827972297875 
 21
 3.83333370878228 
  0
LINE
  8
0
 10
 26.3827972297875 
 20
 3.83333370878228 
 11
 27.2951381614566 
 21
 3.96098634942733 
  0
LINE
  8
0
 10
 27.2951381614566 
 20
 3.96098634942733 
 11
 28.2337605191408 
 21
 4.08488450064164 
  0
LINE
  8
0
 10
 28.2337605191408 
 20
 4.08488450064164 
 11
 29.2362091971475 
 21
 4.20878265185596 
  0
LINE
  8
0
 10
 29.2362091971475 
 20
 4.20878265185596 
 11
 30.3362746003534 
 21
 4.33643529250101 
  0
LINE
  8
0
 10
 30.3362746003534 
 20
 4.33643529250101 
 11
 31.5715016230658 
 21
 4.46408793314606 
  0
LINE
  8
0
 10
 31.5715016230658 
 20
 4.46408793314606 
 11
 32.9756806701614 
 21
 4.59549506322185 
  0
LINE
  8
0
 10
 32.9756806701614 
 20
 4.59549506322185 
 11
 34.5863566359474 
 21
 4.73441117215911 
  0
LINE
  8
0
 10
 34.5863566359474 
 20
 4.73441117215911 
 11
 36.4373199253007 
 21
 4.88459074938858 
  0
LINE
  8
0
 10
 36.4373199253007 
 20
 4.88459074938858 
 11
 36.4373199253007 
 21
 4.88459074938858 
  0
LINE
  8
0
 10
 36.4373199253007 
 20
 4.88459074938858 
 11
 36.4373199253007 
 21
 4.88459074938858 
  0
LINE
  8
0
 10
 36.4373199253007 
 20
 4.88459074938858 
 11
 38.5510974748055 
 21
 5.04227930547953 
  0
LINE
  8
0
 10
 38.5510974748055 
 20
 5.04227930547953 
 11
 40.9089168373082 
 21
 5.20372235100121 
  0
LINE
  8
0
 10
 40.9089168373082 
 20
 5.20372235100121 
 11
 43.4732331185015 
 21
 5.37267437538437 
  0
LINE
  8
0
 10
 43.4732331185015 
 20
 5.37267437538437 
 11
 46.2065014240778 
 21
 5.53787191033679 
  0
LINE
  8
0
 10
 46.2065014240778 
 20
 5.53787191033679 
 11
 49.0786858385915 
 21
 5.69931495585847 
  0
LINE
  8
0
 10
 49.0786858385915 
 20
 5.69931495585847 
 11
 52.0559959571658 
 21
 5.85324902251868 
  0
LINE
  8
0
 10
 52.0559959571658 
 20
 5.85324902251868 
 11
 55.0971323960626 
 21
 5.99967411031741 
  0
LINE
  8
0
 10
 55.0971323960626 
 20
 5.99967411031741 
 11
 58.1758137292668 
 21
 6.1310812403932 
  0
LINE
  8
0
 10
 58.1758137292668 
 20
 6.1310812403932 
 11
 61.254495062471 
 21
 6.23996143388457 
  0
LINE
  8
0
 10
 61.254495062471 
 20
 6.23996143388457 
 11
 64.2956315013678 
 21
 6.33006918022225 
  0
LINE
  8
0
 10
 64.2956315013678 
 20
 6.33006918022225 
 11
 64.2956315013678 
 21
 6.33006918022225 
  0
LINE
  8
0
 10
 64.2956315013678 
 20
 6.33006918022225 
 11
 64.2956315013678 
 21
 6.33006918022225 
  0
LINE
  8
0
 10
 64.2956315013678 
 20
 6.33006918022225 
 11
 67.2729416199421 
 21
 6.39389550054478 
  0
LINE
  8
0
 10
 67.2729416199421 
 20
 6.39389550054478 
 11
 70.1864254181938 
 21
 6.43519488428288 
  0
LINE
  8
0
 10
 70.1864254181938 
 20
 6.43519488428288 
 11
 73.0473463644153 
 21
 6.4577218208673 
  0
LINE
  8
0
 10
 73.0473463644153 
 20
 6.4577218208673 
 11
 75.8594589480371 
 21
 6.46147631029804 
  0
LINE
  8
0
 10
 75.8594589480371 
 20
 6.46147631029804 
 11
 78.6302721479209 
 21
 6.45021284200583 
  0
LINE
  8
0
 10
 78.6302721479209 
 20
 6.45021284200583 
 11
 81.367294942928 
 21
 6.42393141599067 
  0
LINE
  8
0
 10
 81.367294942928 
 20
 6.42393141599067 
 11
 84.07803631192 
 21
 6.3863865216833 
  0
LINE
  8
0
 10
 84.07803631192 
 20
 6.3863865216833 
 11
 86.7700052337583 
 21
 6.3450871379452 
  0
LINE
  8
0
 10
 86.7700052337583 
 20
 6.3450871379452 
 11
 89.4544651767351 
 21
 6.29627877534562 
  0
LINE
  8
0
 10
 89.4544651767351 
 20
 6.29627877534562 
 11
 92.1276616514197 
 21
 6.2437159233153 
  0
LINE
  8
0
 10
 92.1276616514197 
 20
 6.2437159233153 
 11
 92.1276616514197 
 21
 6.2437159233153 
  0
LINE
  8
0
 10
 92.1276616514197 
 20
 6.2437159233153 
 11
 92.1276616514197 
 21
 6.2437159233153 
  0
LINE
  8
0
 10
 92.1276616514197 
 20
 6.2437159233153 
 11
 94.8083671049658 
 21
 6.18739858185425 
  0
LINE
  8
0
 10
 94.8083671049658 
 20
 6.18739858185425 
 11
 97.4965815373733 
 21
 6.1310812403932 
  0
LINE
  8
0
 10
 97.4965815373733 
 20
 6.1310812403932 
 11
 100.192304948642 
 21
 6.07100940950141 
  0
LINE
  8
0
 10
 100.192304948642 
 20
 6.07100940950141 
 11
 102.903046317634 
 21
 6.0184465574711 
  0
LINE
  8
0
 10
 102.903046317634 
 20
 6.0184465574711 
 11
 105.628805644349 
 21
 5.96212921601004 
  0
LINE
  8
0
 10
 105.628805644349 
 20
 5.96212921601004 
 11
 108.380846397079 
 21
 5.90956636397973 
  0
LINE
  8
0
 10
 108.380846397079 
 20
 5.90956636397973 
 11
 111.155414086394 
 21
 5.86075800138015 
  0
LINE
  8
0
 10
 111.155414086394 
 20
 5.86075800138015 
 11
 113.956263201724 
 21
 5.81570412821131 
  0
LINE
  8
0
 10
 113.956263201724 
 20
 5.81570412821131 
 11
 116.79090272193 
 21
 5.77815923390394 
  0
LINE
  8
0
 10
 116.79090272193 
 20
 5.77815923390394 
 11
 119.663087136443 
 21
 5.74061433959657 
  0
LINE
  8
0
 10
 119.663087136443 
 20
 5.74061433959657 
 11
 119.663087136443 
 21
 5.74061433959657 
  0
LINE
  8
0
 10
 119.663087136443 
 20
 5.74061433959657 
 11
 119.663087136443 
 21
 5.74061433959657 
  0
LINE
  8
0
 10
 119.663087136443 
 20
 5.74061433959657 
 11
 122.572816445264 
 21
 5.71057842415068 
  0
LINE
  8
0
 10
 122.572816445264 
 20
 5.71057842415068 
 11
 125.512581669531 
 21
 5.69180597699699 
  0
LINE
  8
0
 10
 125.512581669531 
 20
 5.69180597699699 
 11
 128.482382809244 
 21
 5.67303352984331 
  0
LINE
  8
0
 10
 128.482382809244 
 20
 5.67303352984331 
 11
 131.46720190668 
 21
 5.65801557212036 
  0
LINE
  8
0
 10
 131.46720190668 
 20
 5.65801557212036 
 11
 134.470793451269 
 21
 5.64675210382815 
  0
LINE
  8
0
 10
 134.470793451269 
 20
 5.64675210382815 
 11
 137.474384995859 
 21
 5.64299761439742 
  0
LINE
  8
0
 10
 137.474384995859 
 20
 5.64299761439742 
 11
 140.481731029879 
 21
 5.63924312496668 
  0
LINE
  8
0
 10
 140.481731029879 
 20
 5.63924312496668 
 11
 143.477813595607 
 21
 5.63924312496668 
  0
LINE
  8
0
 10
 143.477813595607 
 20
 5.63924312496668 
 11
 146.462632693043 
 21
 5.64675210382815 
  0
LINE
  8
0
 10
 146.462632693043 
 20
 5.64675210382815 
 11
 149.428679343325 
 21
 5.65050659325889 
  0
LINE
  8
0
 10
 149.428679343325 
 20
 5.65050659325889 
 11
 149.428679343325 
 21
 5.65050659325889 
  0
LINE
  8
0
 10
 149.428679343325 
 20
 5.65050659325889 
 11
 149.428679343325 
 21
 5.65050659325889 
  0
LINE
  8
0
 10
 149.428679343325 
 20
 5.65050659325889 
 11
 152.368444567592 
 21
 5.6617700615511 
  0
LINE
  8
0
 10
 152.368444567592 
 20
 5.6617700615511 
 11
 155.289437344705 
 21
 5.66927904041257 
  0
LINE
  8
0
 10
 155.289437344705 
 20
 5.66927904041257 
 11
 158.202921142957 
 21
 5.68429699813552 
  0
LINE
  8
0
 10
 158.202921142957 
 20
 5.68429699813552 
 11
 161.120159430639 
 21
 5.69180597699699 
  0
LINE
  8
0
 10
 161.120159430639 
 20
 5.69180597699699 
 11
 164.048661186614 
 21
 5.69556046642773 
  0
LINE
  8
0
 10
 164.048661186614 
 20
 5.69556046642773 
 11
 166.995935389742 
 21
 5.69556046642773 
  0
LINE
  8
0
 10
 166.995935389742 
 20
 5.69556046642773 
 11
 169.976999997747 
 21
 5.68805148756626 
  0
LINE
  8
0
 10
 169.976999997747 
 20
 5.68805148756626 
 11
 172.99560950006 
 21
 5.67303352984331 
  0
LINE
  8
0
 10
 172.99560950006 
 20
 5.67303352984331 
 11
 176.063027364972 
 21
 5.65426108268963 
  0
LINE
  8
0
 10
 176.063027364972 
 20
 5.65426108268963 
 11
 179.194271550206 
 21
 5.620470677813 
  0
LINE
  8
0
 10
 179.194271550206 
 20
 5.620470677813 
 11
 179.194271550206 
 21
 5.620470677813 
  0
LINE
  8
0
 10
 179.194271550206 
 20
 5.620470677813 
 11
 179.194271550206 
 21
 5.620470677813 
  0
LINE
  8
0
 10
 179.194271550206 
 20
 5.620470677813 
 11
 182.385587566332 
 21
 5.57917129407489 
  0
LINE
  8
0
 10
 182.385587566332 
 20
 5.57917129407489 
 11
 185.614448476766 
 21
 5.52660844204458 
  0
LINE
  8
0
 10
 185.614448476766 
 20
 5.52660844204458 
 11
 188.8433093872 
 21
 5.46278212172205 
  0
LINE
  8
0
 10
 188.8433093872 
 20
 5.46278212172205 
 11
 192.042134382188 
 21
 5.39520131196879 
  0
LINE
  8
0
 10
 192.042134382188 
 20
 5.39520131196879 
 11
 195.173378567422 
 21
 5.32386601278479 
  0
LINE
  8
0
 10
 195.173378567422 
 20
 5.32386601278479 
 11
 198.207006027457 
 21
 5.24877622417005 
  0
LINE
  8
0
 10
 198.207006027457 
 20
 5.24877622417005 
 11
 201.109226357417 
 21
 5.16617745669384 
  0
LINE
  8
0
 10
 201.109226357417 
 20
 5.16617745669384 
 11
 203.842494662993 
 21
 5.08733317864837 
  0
LINE
  8
0
 10
 203.842494662993 
 20
 5.08733317864837 
 11
 206.376775028741 
 21
 5.00473441117216 
  0
LINE
  8
0
 10
 206.376775028741 
 20
 5.00473441117216 
 11
 208.678277049782 
 21
 4.92589013312669 
  0
LINE
  8
0
 10
 208.678277049782 
 20
 4.92589013312669 
 11
 208.678277049782 
 21
 4.92589013312669 
  0
LINE
  8
0
 10
 208.678277049782 
 20
 4.92589013312669 
 11
 208.678277049782 
 21
 4.92589013312669 
  0
LINE
  8
0
 10
 208.678277049782 
 20
 4.92589013312669 
 11
 210.720719300103 
 21
 4.84704585508121 
  0
LINE
  8
0
 10
 210.720719300103 
 20
 4.84704585508121 
 11
 212.530383205718 
 21
 4.77195606646648 
  0
LINE
  8
0
 10
 212.530383205718 
 20
 4.77195606646648 
 11
 214.141059171504 
 21
 4.70062076728248 
  0
LINE
  8
0
 10
 214.141059171504 
 20
 4.70062076728248 
 11
 215.586537602338 
 21
 4.62928546809848 
  0
LINE
  8
0
 10
 215.586537602338 
 20
 4.62928546809848 
 11
 216.900608903096 
 21
 4.55795016891448 
  0
LINE
  8
0
 10
 216.900608903096 
 20
 4.55795016891448 
 11
 218.117063478655 
 21
 4.48661486973048 
  0
LINE
  8
0
 10
 218.117063478655 
 20
 4.48661486973048 
 11
 219.269691733891 
 21
 4.41152508111574 
  0
LINE
  8
0
 10
 219.269691733891 
 20
 4.41152508111574 
 11
 220.392284073681 
 21
 4.34018978193175 
  0
LINE
  8
0
 10
 220.392284073681 
 20
 4.34018978193175 
 11
 221.522385392333 
 21
 4.26134550388627 
  0
LINE
  8
0
 10
 221.522385392333 
 20
 4.26134550388627 
 11
 222.686277115861 
 21
 4.1825012258408 
  0
LINE
  8
0
 10
 222.686277115861 
 20
 4.1825012258408 
 11
 222.686277115861 
 21
 4.1825012258408 
  0
LINE
  8
0
 10
 222.686277115861 
 20
 4.1825012258408 
 11
 222.686277115861 
 21
 4.1825012258408 
  0
LINE
  8
0
 10
 222.686277115861 
 20
 4.1825012258408 
 11
 223.917749649143 
 21
 4.09990245836459 
  0
LINE
  8
0
 10
 223.917749649143 
 20
 4.09990245836459 
 11
 225.213048502747 
 21
 4.01354920145764 
  0
LINE
  8
0
 10
 225.213048502747 
 20
 4.01354920145764 
 11
 226.564664697812 
 21
 3.92344145511996 
  0
LINE
  8
0
 10
 226.564664697812 
 20
 3.92344145511996 
 11
 227.957580276616 
 21
 3.82957921935154 
  0
LINE
  8
0
 10
 227.957580276616 
 20
 3.82957921935154 
 11
 229.384286260296 
 21
 3.73947147301386 
  0
LINE
  8
0
 10
 229.384286260296 
 20
 3.73947147301386 
 11
 230.837273669991 
 21
 3.6418547478147 
  0
LINE
  8
0
 10
 230.837273669991 
 20
 3.6418547478147 
 11
 232.305279037409 
 21
 3.54048353318481 
  0
LINE
  8
0
 10
 232.305279037409 
 20
 3.54048353318481 
 11
 233.780793383689 
 21
 3.44286680798565 
  0
LINE
  8
0
 10
 233.780793383689 
 20
 3.44286680798565 
 11
 235.252553240537 
 21
 3.34149559335576 
  0
LINE
  8
0
 10
 235.252553240537 
 20
 3.34149559335576 
 11
 236.709295139663 
 21
 3.24012437872586 
  0
LINE
  8
0
 10
 236.709295139663 
 20
 3.24012437872586 
 11
 236.709295139663 
 21
 3.24012437872586 
  0
LINE
  8
0
 10
 236.709295139663 
 20
 3.24012437872586 
 11
 236.709295139663 
 21
 3.24012437872586 
  0
LINE
  8
0
 10
 236.709295139663 
 20
 3.24012437872586 
 11
 238.147264591636 
 21
 3.13499867466523 
  0
LINE
  8
0
 10
 238.147264591636 
 20
 3.13499867466523 
 11
 239.562707107023 
 21
 3.03362746003534 
  0
LINE
  8
0
 10
 239.562707107023 
 20
 3.03362746003534 
 11
 240.959377175257 
 21
 2.93225624540544 
  0
LINE
  8
0
 10
 240.959377175257 
 20
 2.93225624540544 
 11
 242.344783775199 
 21
 2.82713054134481 
  0
LINE
  8
0
 10
 242.344783775199 
 20
 2.82713054134481 
 11
 243.711417927987 
 21
 2.72575932671492 
  0
LINE
  8
0
 10
 243.711417927987 
 20
 2.72575932671492 
 11
 245.070543101914 
 21
 2.62438811208503 
  0
LINE
  8
0
 10
 245.070543101914 
 20
 2.62438811208503 
 11
 246.418404807549 
 21
 2.5192624080244 
  0
LINE
  8
0
 10
 246.418404807549 
 20
 2.5192624080244 
 11
 247.762512023752 
 21
 2.4178911933945 
  0
LINE
  8
0
 10
 247.762512023752 
 20
 2.4178911933945 
 11
 249.099110261095 
 21
 2.31276548933387 
  0
LINE
  8
0
 10
 249.099110261095 
 20
 2.31276548933387 
 11
 250.435708498437 
 21
 2.21139427470398 
  0
LINE
  8
0
 10
 250.435708498437 
 20
 2.21139427470398 
 11
 250.435708498437 
 21
 2.21139427470398 
  0
LINE
  8
0
 10
 250.435708498437 
 20
 2.21139427470398 
 11
 250.431954009006 
 21
-2.27146610559577 
  0
LINE
  8
0
 10
 250.431954009006 
 20
-2.27146610559577 
 11
 250.431954009006 
 21
-2.27146610559577 
  0
LINE
  8
0
 10
 250.431954009006 
 20
-2.27146610559577 
 11
 249.099110261095 
 21
-2.37283732022566 
  0
LINE
  8
0
 10
 249.099110261095 
 20
-2.37283732022566 
 11
 247.758757534322 
 21
-2.47420853485555 
  0
LINE
  8
0
 10
 247.758757534322 
 20
-2.47420853485555 
 11
 246.418404807549 
 21
-2.57557974948545 
  0
LINE
  8
0
 10
 246.418404807549 
 20
-2.57557974948545 
 11
 245.070543101914 
 21
-2.67695096411534 
  0
LINE
  8
0
 10
 245.070543101914 
 20
-2.67695096411534 
 11
 243.711417927987 
 21
-2.77832217874524 
  0
LINE
  8
0
 10
 243.711417927987 
 20
-2.77832217874524 
 11
 242.341029285769 
 21
-2.87969339337513 
  0
LINE
  8
0
 10
 242.341029285769 
 20
-2.87969339337513 
 11
 240.959377175257 
 21
-2.98106460800502 
  0
LINE
  8
0
 10
 240.959377175257 
 20
-2.98106460800502 
 11
 239.558952617593 
 21
-3.08243582263492 
  0
LINE
  8
0
 10
 239.558952617593 
 20
-3.08243582263492 
 11
 238.143510102205 
 21
-3.18380703726481 
  0
LINE
  8
0
 10
 238.143510102205 
 20
-3.18380703726481 
 11
 236.705540650233 
 21
-3.2851782518947 
  0
LINE
  8
0
 10
 236.705540650233 
 20
-3.2851782518947 
 11
 236.705540650233 
 21
-3.2851782518947 
  0
LINE
  8
0
 10
 236.705540650233 
 20
-3.2851782518947 
 11
 236.705540650233 
 21
-3.2851782518947 
  0
LINE
  8
0
 10
 236.705540650233 
 20
-3.2851782518947 
 11
 235.248798751107 
 21
-3.3865494665246 
  0
LINE
  8
0
 10
 235.248798751107 
 20
-3.3865494665246 
 11
 233.777038894258 
 21
-3.48416619172375 
  0
LINE
  8
0
 10
 233.777038894258 
 20
-3.48416619172375 
 11
 232.301524547978 
 21
-3.58553740635365 
  0
LINE
  8
0
 10
 232.301524547978 
 20
-3.58553740635365 
 11
 230.83351918056 
 21
-3.6831541315528 
  0
LINE
  8
0
 10
 230.83351918056 
 20
-3.6831541315528 
 11
 229.380531770865 
 21
-3.77701636732122 
  0
LINE
  8
0
 10
 229.380531770865 
 20
-3.77701636732122 
 11
 227.953825787185 
 21
-3.87838758195112 
  0
LINE
  8
0
 10
 227.953825787185 
 20
-3.87838758195112 
 11
 226.560910208382 
 21
-3.9684953282888 
  0
LINE
  8
0
 10
 226.560910208382 
 20
-3.9684953282888 
 11
 225.213048502747 
 21
-4.05860307462648 
  0
LINE
  8
0
 10
 225.213048502747 
 20
-4.05860307462648 
 11
 223.917749649143 
 21
-4.14495633153343 
  0
LINE
  8
0
 10
 223.917749649143 
 20
-4.14495633153343 
 11
 222.682522626431 
 21
-4.22755509900964 
  0
LINE
  8
0
 10
 222.682522626431 
 20
-4.22755509900964 
 11
 222.682522626431 
 21
-4.22755509900964 
  0
LINE
  8
0
 10
 222.682522626431 
 20
-4.22755509900964 
 11
 222.682522626431 
 21
-4.22755509900964 
  0
LINE
  8
0
 10
 222.682522626431 
 20
-4.22755509900964 
 11
 221.518630902902 
 21
-4.30639937705511 
  0
LINE
  8
0
 10
 221.518630902902 
 20
-4.30639937705511 
 11
 220.38852958425 
 21
-4.38148916566985 
  0
LINE
  8
0
 10
 220.38852958425 
 20
-4.38148916566985 
 11
 219.26593724446 
 21
-4.45282446485385 
  0
LINE
  8
0
 10
 219.26593724446 
 20
-4.45282446485385 
 11
 218.113308989224 
 21
-4.52415976403785 
  0
LINE
  8
0
 10
 218.113308989224 
 20
-4.52415976403785 
 11
 216.896854413665 
 21
-4.59549506322185 
  0
LINE
  8
0
 10
 216.896854413665 
 20
-4.59549506322185 
 11
 215.582783112907 
 21
-4.66683036240585 
  0
LINE
  8
0
 10
 215.582783112907 
 20
-4.66683036240585 
 11
 214.137304682074 
 21
-4.73816566158985 
  0
LINE
  8
0
 10
 214.137304682074 
 20
-4.73816566158985 
 11
 212.526628716288 
 21
-4.80950096077385 
  0
LINE
  8
0
 10
 212.526628716288 
 20
-4.80950096077385 
 11
 210.716964810672 
 21
-4.88083625995785 
  0
LINE
  8
0
 10
 210.716964810672 
 20
-4.88083625995785 
 11
 208.674522560352 
 21
-4.95592604857258 
  0
LINE
  8
0
 10
 208.674522560352 
 20
-4.95592604857258 
 11
 208.674522560352 
 21
-4.95592604857258 
  0
LINE
  8
0
 10
 208.674522560352 
 20
-4.95592604857258 
 11
 208.674522560352 
 21
-4.95592604857258 
  0
LINE
  8
0
 10
 208.674522560352 
 20
-4.95592604857258 
 11
 206.37302053931 
 21
-5.03477032661805 
  0
LINE
  8
0
 10
 206.37302053931 
 20
-5.03477032661805 
 11
 203.838740173563 
 21
-5.11361460466353 
  0
LINE
  8
0
 10
 203.838740173563 
 20
-5.11361460466353 
 11
 201.105471867986 
 21
-5.19621337213974 
  0
LINE
  8
0
 10
 201.105471867986 
 20
-5.19621337213974 
 11
 198.207006027457 
 21
-5.27130316075447 
  0
LINE
  8
0
 10
 198.207006027457 
 20
-5.27130316075447 
 11
 195.173378567422 
 21
-5.35014743879995 
  0
LINE
  8
0
 10
 195.173378567422 
 20
-5.35014743879995 
 11
 192.038379892757 
 21
-5.42523722741468 
  0
LINE
  8
0
 10
 192.038379892757 
 20
-5.42523722741468 
 11
 188.839554897769 
 21
-5.48906354773721 
  0
LINE
  8
0
 10
 188.839554897769 
 20
-5.48906354773721 
 11
 185.610693987335 
 21
-5.549135378629 
  0
LINE
  8
0
 10
 185.610693987335 
 20
-5.549135378629 
 11
 182.381833076902 
 21
-5.60169823065931 
  0
LINE
  8
0
 10
 182.381833076902 
 20
-5.60169823065931 
 11
 179.190517060775 
 21
-5.64299761439742 
  0
LINE
  8
0
 10
 179.190517060775 
 20
-5.64299761439742 
 11
 179.190517060775 
 21
-5.64299761439742 
  0
LINE
  8
0
 10
 179.190517060775 
 20
-5.64299761439742 
 11
 179.190517060775 
 21
-5.64299761439742 
  0
LINE
  8
0
 10
 179.190517060775 
 20
-5.64299761439742 
 11
 176.063027364972 
 21
-5.67303352984331 
  0
LINE
  8
0
 10
 176.063027364972 
 20
-5.67303352984331 
 11
 172.991855010629 
 21
-5.69180597699699 
  0
LINE
  8
0
 10
 172.991855010629 
 20
-5.69180597699699 
 11
 169.973245508317 
 21
-5.70306944528921 
  0
LINE
  8
0
 10
 169.973245508317 
 20
-5.70306944528921 
 11
 166.992180900312 
 21
-5.70682393471994 
  0
LINE
  8
0
 10
 166.992180900312 
 20
-5.70682393471994 
 11
 164.044906697183 
 21
-5.70682393471994 
  0
LINE
  8
0
 10
 164.044906697183 
 20
-5.70682393471994 
 11
 161.116404941209 
 21
-5.69931495585847 
  0
LINE
  8
0
 10
 161.116404941209 
 20
-5.69931495585847 
 11
 158.202921142957 
 21
-5.69180597699699 
  0
LINE
  8
0
 10
 158.202921142957 
 20
-5.69180597699699 
 11
 155.285682855274 
 21
-5.68429699813552 
  0
LINE
  8
0
 10
 155.285682855274 
 20
-5.68429699813552 
 11
 152.364690078161 
 21
-5.67303352984331 
  0
LINE
  8
0
 10
 152.364690078161 
 20
-5.67303352984331 
 11
 149.424924853894 
 21
-5.6617700615511 
  0
LINE
  8
0
 10
 149.424924853894 
 20
-5.6617700615511 
 11
 149.424924853894 
 21
-5.6617700615511 
  0
LINE
  8
0
 10
 149.424924853894 
 20
-5.6617700615511 
 11
 149.424924853894 
 21
-5.6617700615511 
  0
LINE
  8
0
 10
 149.424924853894 
 20
-5.6617700615511 
 11
 146.462632693043 
 21
-5.65426108268963 
  0
LINE
  8
0
 10
 146.462632693043 
 20
-5.65426108268963 
 11
 143.477813595607 
 21
-5.65050659325889 
  0
LINE
  8
0
 10
 143.477813595607 
 20
-5.65050659325889 
 11
 140.477976540448 
 21
-5.64675210382815 
  0
LINE
  8
0
 10
 140.477976540448 
 20
-5.64675210382815 
 11
 137.474384995859 
 21
-5.64675210382815 
  0
LINE
  8
0
 10
 137.474384995859 
 20
-5.64675210382815 
 11
 134.467038961839 
 21
-5.65050659325889 
  0
LINE
  8
0
 10
 134.467038961839 
 20
-5.65050659325889 
 11
 131.46720190668 
 21
-5.6617700615511 
  0
LINE
  8
0
 10
 131.46720190668 
 20
-5.6617700615511 
 11
 128.478628319813 
 21
-5.67303352984331 
  0
LINE
  8
0
 10
 128.478628319813 
 20
-5.67303352984331 
 11
 125.512581669531 
 21
-5.69180597699699 
  0
LINE
  8
0
 10
 125.512581669531 
 20
-5.69180597699699 
 11
 122.569061955834 
 21
-5.71808740301215 
  0
LINE
  8
0
 10
 122.569061955834 
 20
-5.71808740301215 
 11
 119.659332647013 
 21
-5.74812331845805 
  0
LINE
  8
0
 10
 119.659332647013 
 20
-5.74812331845805 
 11
 119.659332647013 
 21
-5.74812331845805 
  0
LINE
  8
0
 10
 119.659332647013 
 20
-5.74812331845805 
 11
 119.659332647013 
 21
-5.74812331845805 
  0
LINE
  8
0
 10
 119.659332647013 
 20
-5.74812331845805 
 11
 116.79090272193 
 21
-5.78191372333468 
  0
LINE
  8
0
 10
 116.79090272193 
 20
-5.78191372333468 
 11
 113.956263201724 
 21
-5.81945861764205 
  0
LINE
  8
0
 10
 113.956263201724 
 20
-5.81945861764205 
 11
 111.151659596963 
 21
-5.86451249081089 
  0
LINE
  8
0
 10
 111.151659596963 
 20
-5.86451249081089 
 11
 108.377091907649 
 21
-5.90956636397973 
  0
LINE
  8
0
 10
 108.377091907649 
 20
-5.90956636397973 
 11
 105.628805644349 
 21
-5.96212921601004 
  0
LINE
  8
0
 10
 105.628805644349 
 20
-5.96212921601004 
 11
 102.899291828204 
 21
-6.01469206804036 
  0
LINE
  8
0
 10
 102.899291828204 
 20
-6.01469206804036 
 11
 100.188550459212 
 21
-6.07100940950141 
  0
LINE
  8
0
 10
 100.188550459212 
 20
-6.07100940950141 
 11
 97.4928270479426 
 21
-6.12357226153173 
  0
LINE
  8
0
 10
 97.4928270479426 
 20
-6.12357226153173 
 11
 94.8083671049658 
 21
-6.17988960299278 
  0
LINE
  8
0
 10
 94.8083671049658 
 20
-6.17988960299278 
 11
 92.1276616514197 
 21
-6.23620694445383 
  0
LINE
  8
0
 10
 92.1276616514197 
 20
-6.23620694445383 
 11
 92.1276616514197 
 21
-6.23620694445383 
  0
LINE
  8
0
 10
 92.1276616514197 
 20
-6.23620694445383 
 11
 92.1276616514197 
 21
-6.23620694445383 
  0
LINE
  8
0
 10
 92.1276616514197 
 20
-6.23620694445383 
 11
 89.4507106873044 
 21
-6.28876979648415 
  0
LINE
  8
0
 10
 89.4507106873044 
 20
-6.28876979648415 
 11
 86.7700052337583 
 21
-6.34133264851446 
  0
LINE
  8
0
 10
 86.7700052337583 
 20
-6.34133264851446 
 11
 84.07803631192 
 21
-6.3863865216833 
  0
LINE
  8
0
 10
 84.07803631192 
 20
-6.3863865216833 
 11
 81.367294942928 
 21
-6.42017692655993 
  0
LINE
  8
0
 10
 81.367294942928 
 20
-6.42017692655993 
 11
 78.6302721479209 
 21
-6.44645835257509 
  0
LINE
  8
0
 10
 78.6302721479209 
 20
-6.44645835257509 
 11
 75.8594589480371 
 21
-6.4577218208673 
  0
LINE
  8
0
 10
 75.8594589480371 
 20
-6.4577218208673 
 11
 73.0473463644153 
 21
-6.45396733143657 
  0
LINE
  8
0
 10
 73.0473463644153 
 20
-6.45396733143657 
 11
 70.1864254181938 
 21
-6.43144039485214 
  0
LINE
  8
0
 10
 70.1864254181938 
 20
-6.43144039485214 
 11
 67.2691871305113 
 21
-6.3863865216833 
  0
LINE
  8
0
 10
 67.2691871305113 
 20
-6.3863865216833 
 11
 64.291877011937 
 21
-6.32256020136078 
  0
LINE
  8
0
 10
 64.291877011937 
 20
-6.32256020136078 
 11
 64.291877011937 
 21
-6.32256020136078 
  0
LINE
  8
0
 10
 64.291877011937 
 20
-6.32256020136078 
 11
 64.291877011937 
 21
-6.32256020136078 
  0
LINE
  8
0
 10
 64.291877011937 
 20
-6.32256020136078 
 11
 61.2507405730402 
 21
-6.23245245502309 
  0
LINE
  8
0
 10
 61.2507405730402 
 20
-6.23245245502309 
 11
 58.1758137292668 
 21
-6.11981777210099 
  0
LINE
  8
0
 10
 58.1758137292668 
 20
-6.11981777210099 
 11
 55.0971323960626 
 21
-5.99216513145594 
  0
LINE
  8
0
 10
 55.0971323960626 
 20
-5.99216513145594 
 11
 52.052241467735 
 21
-5.84949453308794 
  0
LINE
  8
0
 10
 52.052241467735 
 20
-5.84949453308794 
 11
 49.0786858385915 
 21
-5.69556046642773 
  0
LINE
  8
0
 10
 49.0786858385915 
 20
-5.69556046642773 
 11
 46.2065014240778 
 21
-5.53411742090605 
  0
LINE
  8
0
 10
 46.2065014240778 
 20
-5.53411742090605 
 11
 43.4694786290707 
 21
-5.36516539652289 
  0
LINE
  8
0
 10
 43.4694786290707 
 20
-5.36516539652289 
 11
 40.9089168373082 
 21
-5.19996786157047 
  0
LINE
  8
0
 10
 40.9089168373082 
 20
-5.19996786157047 
 11
 38.5510974748055 
 21
-5.03477032661805 
  0
LINE
  8
0
 10
 38.5510974748055 
 20
-5.03477032661805 
 11
 36.4373199253007 
 21
-4.87708177052711 
  0
LINE
  8
0
 10
 36.4373199253007 
 20
-4.87708177052711 
 11
 36.4373199253007 
 21
-4.87708177052711 
  0
LINE
  8
0
 10
 36.4373199253007 
 20
-4.87708177052711 
 11
 36.4373199253007 
 21
-4.87708177052711 
  0
LINE
  8
0
 10
 36.4373199253007 
 20
-4.87708177052711 
 11
 34.5863566359474 
 21
-4.73065668272837 
  0
LINE
  8
0
 10
 34.5863566359474 
 20
-4.73065668272837 
 11
 32.9756806701614 
 21
-4.58798608436037 
  0
LINE
  8
0
 10
 32.9756806701614 
 20
-4.58798608436037 
 11
 31.5715016230658 
 21
-4.45657895428459 
  0
LINE
  8
0
 10
 31.5715016230658 
 20
-4.45657895428459 
 11
 30.3362746003534 
 21
-4.32892631363954 
  0
LINE
  8
0
 10
 30.3362746003534 
 20
-4.32892631363954 
 11
 29.2362091971475 
 21
-4.20127367299448 
  0
LINE
  8
0
 10
 29.2362091971475 
 20
-4.20127367299448 
 11
 28.2337605191408 
 21
-4.07737552178017 
  0
LINE
  8
0
 10
 28.2337605191408 
 20
-4.07737552178017 
 11
 27.2951381614566 
 21
-3.95347737056585 
  0
LINE
  8
0
 10
 27.2951381614566 
 20
-3.95347737056585 
 11
 26.3827972297875 
 21
-3.8258247299208 
  0
LINE
  8
0
 10
 26.3827972297875 
 20
-3.8258247299208 
 11
 25.462947319257 
 21
-3.69441759984502 
  0
LINE
  8
0
 10
 25.462947319257 
 20
-3.69441759984502 
 11
 24.5017980249884 
 21
-3.55550149090775 
  0
LINE
  8
0
 10
 24.5017980249884 
 20
-3.55550149090775 
 11
 24.5017980249884 
 21
-3.55550149090775 
  0
LINE
  8
0
 10
 24.5017980249884 
 20
-3.55550149090775 
 11
 24.5017980249884 
 21
-3.55550149090775 
  0
LINE
  8
0
 10
 24.5017980249884 
 20
-3.55550149090775 
 11
 23.4693134315358 
 21
-3.40907640310902 
  0
LINE
  8
0
 10
 23.4693134315358 
 20
-3.40907640310902 
 11
 22.3692480283299 
 21
-3.25514233644881 
  0
LINE
  8
0
 10
 22.3692480283299 
 20
-3.25514233644881 
 11
 21.2053563048015 
 21
-3.09745378035786 
  0
LINE
  8
0
 10
 21.2053563048015 
 20
-3.09745378035786 
 11
 19.9964107081042 
 21
-2.93225624540544 
  0
LINE
  8
0
 10
 19.9964107081042 
 20
-2.93225624540544 
 11
 18.7461657276689 
 21
-2.76330422102229 
  0
LINE
  8
0
 10
 18.7461657276689 
 20
-2.76330422102229 
 11
 17.4696393212184 
 21
-2.59059770720839 
  0
LINE
  8
0
 10
 17.4696393212184 
 20
-2.59059770720839 
 11
 16.1705859781834 
 21
-2.41413670396377 
  0
LINE
  8
0
 10
 16.1705859781834 
 20
-2.41413670396377 
 11
 14.8602691668563 
 21
-2.2339212112884 
  0
LINE
  8
0
 10
 14.8602691668563 
 20
-2.2339212112884 
 11
 13.5537068449599 
 21
-2.0499512291823 
  0
LINE
  8
0
 10
 13.5537068449599 
 20
-2.0499512291823 
 11
 12.2546535019249 
 21
-1.86598124707619 
  0
LINE
  8
0
 10
 12.2546535019249 
 20
-1.86598124707619 
 11
 12.2546535019249 
 21
-1.86598124707619 
  0
LINE
  8
0
 10
 12.2546535019249 
 20
-1.86598124707619 
 11
 12.2546535019249 
 21
-1.86598124707619 
  0
LINE
  8
0
 10
 12.2546535019249 
 20
-1.86598124707619 
 11
 10.9743726060437 
 21
-1.68201126497009 
  0
LINE
  8
0
 10
 10.9743726060437 
 20
-1.68201126497009 
 11
 9.70910966788537 
 21
-1.49428679343325 
  0
LINE
  8
0
 10
 9.70910966788537 
 20
-1.49428679343325 
 11
 8.46261917688076 
 21
-1.31031681132714 
  0
LINE
  8
0
 10
 8.46261917688076 
 20
-1.31031681132714 
 11
 7.22739215416835 
 21
-1.1225923397903 
  0
LINE
  8
0
 10
 7.22739215416835 
 20
-1.1225923397903 
 11
 6.00342859974815 
 21
-.938622357684201 
  0
LINE
  8
0
 10
 6.00342859974815 
 20
-.938622357684201 
 11
 4.79072851362016 
 21
-.750897886147361 
  0
LINE
  8
0
 10
 4.79072851362016 
 20
-.750897886147361 
 11
 3.58553740635365 
 21
-.563173414610521 
  0
LINE
  8
0
 10
 3.58553740635365 
 20
-.563173414610521 
 11
 2.38785527794861 
 21
-.37544894307368 
  0
LINE
  8
0
 10
 2.38785527794861 
 20
-.37544894307368 
 11
 1.19017314954357 
 21
-.18772447153684 
  0
LINE
  8
0
 10
 1.19017314954357 
 20
-.18772447153684 
 11
 0 
 21
-3.7544894307368E-03 
  0
LINE
  8
0
 10
 0 
 20
-3.7544894307368E-03 
 11
 0 
 21
 0 
  0
ENDSEC
  0
EOF
