  0
SECTION
  2
ENTITIES
  0
LINE
  8
0
 10
 0 
 20
 0 
 11
 0 
 21
 1.12634682922104E-02 
  0
LINE
  8
0
 10
 10.3886722548487 
 20
-.732125438993677 
 11
 10.3886722548487 
 21
 .743388907285887 
  0
LINE
  8
0
 10
 20.769835530836 
 20
-1.41168802595704 
 11
 20.769835530836 
 21
 1.43046047311072 
  0
LINE
  8
0
 10
 30.8393761840721 
 20
-1.98612490885977 
 11
 30.8431306735028 
 21
 1.99738837715198 
  0
LINE
  8
0
 10
 58.6939332707085 
 20
-2.92474726654397 
 11
 58.6939332707085 
 21
 2.94727420312839 
  0
LINE
  8
0
 10
 86.5259634207604 
 20
-3.16128010068039 
 11
 86.5259634207604 
 21
 3.18005254783407 
  0
LINE
  8
0
 10
 114.061388905784 
 20
-3.02611848117386 
 11
 114.061388905784 
 21
 3.04113643889681 
  0
LINE
  8
0
 10
 143.823226623235 
 20
-2.7745676893145 
 11
 143.826981112666 
 21
 2.78207666817597 
  0
LINE
  8
0
 10
 173.592573319547 
 20
-2.45543608770187 
 11
 173.592573319547 
 21
 2.45168159827113 
  0
LINE
  8
0
 10
 203.084087797984 
 20
-2.0499512291823 
 11
 203.084087797984 
 21
 2.03493327145935 
  0
LINE
  8
0
 10
 215.263651511295 
 20
-1.85471777878398 
 11
 215.263651511295 
 21
 1.83219084219956 
  0
LINE
  8
0
 10
 227.458233182328 
 20
-1.64446637066272 
 11
 227.458233182328 
 21
 1.61818494464756 
  0
LINE
  8
0
 10
 .435520773965469 
 20
 .285341196735997 
 11
 .277832217874523 
 21
 .285341196735997 
  0
LINE
  8
0
 10
 .277832217874523 
 20
 .285341196735997 
 11
 .277832217874523 
 21
 .161443045521683 
  0
LINE
  8
0
 10
 .277832217874523 
 20
 .161443045521683 
 11
 .405484858519575 
 21
 .161443045521683 
  0
LINE
  8
0
 10
 .405484858519575 
 20
 .161443045521683 
 11
 .277832217874523 
 21
 .161443045521683 
  0
LINE
  8
0
 10
 .277832217874523 
 20
 .161443045521683 
 11
 .277832217874523 
 21
 .037544894307368 
  0
LINE
  8
0
 10
 31.1209628913774 
 20
 .037544894307368 
 11
 31.1209628913774 
 21
 .289095686166734 
  0
LINE
  8
0
 10
 31.1209628913774 
 20
 .289095686166734 
 11
 31.2486155320224 
 21
 .289095686166734 
  0
LINE
  8
0
 10
 31.2486155320224 
 20
 .289095686166734 
 11
 31.2786514474683 
 21
 .255305281290103 
  0
LINE
  8
0
 10
 31.2786514474683 
 20
 .255305281290103 
 11
 31.2786514474683 
 21
 .195233450398314 
  0
LINE
  8
0
 10
 31.2786514474683 
 20
 .195233450398314 
 11
 31.2486155320224 
 21
 .161443045521683 
  0
LINE
  8
0
 10
 31.2486155320224 
 20
 .161443045521683 
 11
 31.1209628913774 
 21
 .161443045521683 
  0
LINE
  8
0
 10
 31.1209628913774 
 20
 .161443045521683 
 11
 31.2486155320224 
 21
 .161443045521683 
  0
LINE
  8
0
 10
 31.2486155320224 
 20
 .161443045521683 
 11
 31.2786514474683 
 21
 .131407130075788 
  0
LINE
  8
0
 10
 31.2786514474683 
 20
 .131407130075788 
 11
 31.2786514474683 
 21
 6.75808097532625E-02 
  0
LINE
  8
0
 10
 31.2786514474683 
 20
 6.75808097532625E-02 
 11
 31.2486155320224 
 21
 .037544894307368 
  0
LINE
  8
0
 10
 31.2486155320224 
 20
 .037544894307368 
 11
 31.1209628913774 
 21
 .037544894307368 
  0
LINE
  8
0
 10
 31.3725136832367 
 20
 .289095686166734 
 11
 31.3725136832367 
 21
 .037544894307368 
  0
LINE
  8
0
 10
 31.3725136832367 
 20
 .037544894307368 
 11
 31.3725136832367 
 21
 .161443045521683 
  0
LINE
  8
0
 10
 31.3725136832367 
 20
 .161443045521683 
 11
 31.5302022393277 
 21
 .161443045521683 
  0
LINE
  8
0
 10
 31.5302022393277 
 20
 .161443045521683 
 11
 31.5302022393277 
 21
 .037544894307368 
  0
LINE
  8
0
 10
 31.5302022393277 
 20
 .037544894307368 
 11
 31.5302022393277 
 21
 .289095686166734 
  0
LINE
  8
0
 10
 31.654100390542 
 20
 .255305281290103 
 11
 31.6841363059879 
 21
 .289095686166734 
  0
LINE
  8
0
 10
 31.6841363059879 
 20
 .289095686166734 
 11
 31.6841363059879 
 21
 .037544894307368 
  0
LINE
  8
0
 10
 31.6841363059879 
 20
 .037544894307368 
 11
 31.654100390542 
 21
 .037544894307368 
  0
LINE
  8
0
 10
 31.654100390542 
 20
 .037544894307368 
 11
 31.7179267108645 
 21
 .037544894307368 
  0
LINE
  8
0
 10
 114.342975613089 
 20
 .037544894307368 
 11
 114.342975613089 
 21
 .289095686166734 
  0
LINE
  8
0
 10
 114.342975613089 
 20
 .289095686166734 
 11
 114.466873764304 
 21
 .289095686166734 
  0
LINE
  8
0
 10
 114.466873764304 
 20
 .289095686166734 
 11
 114.49690967975 
 21
 .255305281290103 
  0
LINE
  8
0
 10
 114.49690967975 
 20
 .255305281290103 
 11
 114.49690967975 
 21
 .195233450398314 
  0
LINE
  8
0
 10
 114.49690967975 
 20
 .195233450398314 
 11
 114.466873764304 
 21
 .161443045521683 
  0
LINE
  8
0
 10
 114.466873764304 
 20
 .161443045521683 
 11
 114.342975613089 
 21
 .161443045521683 
  0
LINE
  8
0
 10
 114.342975613089 
 20
 .161443045521683 
 11
 114.466873764304 
 21
 .161443045521683 
  0
LINE
  8
0
 10
 114.466873764304 
 20
 .161443045521683 
 11
 114.49690967975 
 21
 .131407130075788 
  0
LINE
  8
0
 10
 114.49690967975 
 20
 .131407130075788 
 11
 114.49690967975 
 21
 6.75808097532625E-02 
  0
LINE
  8
0
 10
 114.49690967975 
 20
 6.75808097532625E-02 
 11
 114.466873764304 
 21
 .037544894307368 
  0
LINE
  8
0
 10
 114.466873764304 
 20
 .037544894307368 
 11
 114.342975613089 
 21
 .037544894307368 
  0
LINE
  8
0
 10
 114.590771915518 
 20
 .289095686166734 
 11
 114.590771915518 
 21
 .037544894307368 
  0
LINE
  8
0
 10
 114.590771915518 
 20
 .037544894307368 
 11
 114.590771915518 
 21
 .161443045521683 
  0
LINE
  8
0
 10
 114.590771915518 
 20
 .161443045521683 
 11
 114.748460471609 
 21
 .161443045521683 
  0
LINE
  8
0
 10
 114.748460471609 
 20
 .161443045521683 
 11
 114.748460471609 
 21
 .037544894307368 
  0
LINE
  8
0
 10
 114.748460471609 
 20
 .037544894307368 
 11
 114.748460471609 
 21
 .289095686166734 
  0
LINE
  8
0
 10
 114.842322707377 
 20
 .255305281290103 
 11
 114.872358622823 
 21
 .289095686166734 
  0
LINE
  8
0
 10
 114.872358622823 
 20
 .289095686166734 
 11
 114.966220858592 
 21
 .289095686166734 
  0
LINE
  8
0
 10
 114.966220858592 
 20
 .289095686166734 
 11
 115.000011263468 
 21
 .255305281290103 
  0
LINE
  8
0
 10
 115.000011263468 
 20
 .255305281290103 
 11
 115.000011263468 
 21
 .195233450398314 
  0
LINE
  8
0
 10
 115.000011263468 
 20
 .195233450398314 
 11
 114.966220858592 
 21
 .161443045521683 
  0
LINE
  8
0
 10
 114.966220858592 
 20
 .161443045521683 
 11
 114.842322707377 
 21
 .037544894307368 
  0
LINE
  8
0
 10
 114.842322707377 
 20
 .037544894307368 
 11
 115.000011263468 
 21
 .037544894307368 
  0
LINE
  8
0
 10
 115.000011263468 
 20
 .037544894307368 
 11
 115.000011263468 
 21
 6.75808097532625E-02 
  0
LINE
  8
0
 10
 114.342975613089 
 20
 2.82337605191408 
 11
 114.50066416918 
 21
 2.82337605191408 
  0
LINE
  8
0
 10
 114.50066416918 
 20
 2.82337605191408 
 11
 114.406801933412 
 21
 2.82337605191408 
  0
LINE
  8
0
 10
 114.406801933412 
 20
 2.82337605191408 
 11
 114.406801933412 
 21
 2.57182526005471 
  0
LINE
  8
0
 10
 114.342975613089 
 20
-2.7445317738686 
 11
 114.342975613089 
 21
-2.49673547143997 
  0
LINE
  8
0
 10
 114.342975613089 
 20
-2.49673547143997 
 11
 114.466873764304 
 21
-2.49673547143997 
  0
LINE
  8
0
 10
 114.466873764304 
 20
-2.49673547143997 
 11
 114.49690967975 
 21
-2.52677138688587 
  0
LINE
  8
0
 10
 114.49690967975 
 20
-2.52677138688587 
 11
 114.49690967975 
 21
-2.59059770720839 
  0
LINE
  8
0
 10
 114.49690967975 
 20
-2.59059770720839 
 11
 114.466873764304 
 21
-2.62063362265429 
  0
LINE
  8
0
 10
 114.466873764304 
 20
-2.62063362265429 
 11
 114.342975613089 
 21
-2.62063362265429 
  0
LINE
  8
0
 10
 114.342975613089 
 20
-2.62063362265429 
 11
 114.466873764304 
 21
-2.62063362265429 
  0
LINE
  8
0
 10
 114.466873764304 
 20
-2.62063362265429 
 11
 114.49690967975 
 21
-2.65066953810018 
  0
LINE
  8
0
 10
 114.49690967975 
 20
-2.65066953810018 
 11
 114.49690967975 
 21
-2.71449585842271 
  0
LINE
  8
0
 10
 114.49690967975 
 20
-2.71449585842271 
 11
 114.466873764304 
 21
-2.7445317738686 
  0
LINE
  8
0
 10
 114.466873764304 
 20
-2.7445317738686 
 11
 114.342975613089 
 21
-2.7445317738686 
  0
LINE
  8
0
 10
 203.36567450529 
 20
 2.62814260151576E-02 
 11
 203.36567450529 
 21
 .274077728443787 
  0
LINE
  8
0
 10
 203.36567450529 
 20
 .274077728443787 
 11
 203.489572656504 
 21
 .274077728443787 
  0
LINE
  8
0
 10
 203.489572656504 
 20
 .274077728443787 
 11
 203.51960857195 
 21
 .244041812997892 
  0
LINE
  8
0
 10
 203.51960857195 
 20
 .244041812997892 
 11
 203.51960857195 
 21
 .180215492675367 
  0
LINE
  8
0
 10
 203.51960857195 
 20
 .180215492675367 
 11
 203.489572656504 
 21
 .150179577229472 
  0
LINE
  8
0
 10
 203.489572656504 
 20
 .150179577229472 
 11
 203.36567450529 
 21
 .150179577229472 
  0
LINE
  8
0
 10
 203.36567450529 
 20
 .150179577229472 
 11
 203.489572656504 
 21
 .150179577229472 
  0
LINE
  8
0
 10
 203.489572656504 
 20
 .150179577229472 
 11
 203.51960857195 
 21
 .120143661783578 
  0
LINE
  8
0
 10
 203.51960857195 
 20
 .120143661783578 
 11
 203.51960857195 
 21
 5.63173414610521E-02 
  0
LINE
  8
0
 10
 203.51960857195 
 20
 5.63173414610521E-02 
 11
 203.489572656504 
 21
 2.62814260151576E-02 
  0
LINE
  8
0
 10
 203.489572656504 
 20
 2.62814260151576E-02 
 11
 203.36567450529 
 21
 2.62814260151576E-02 
  0
LINE
  8
0
 10
 203.613470807718 
 20
 .274077728443787 
 11
 203.613470807718 
 21
 2.62814260151576E-02 
  0
LINE
  8
0
 10
 203.613470807718 
 20
 2.62814260151576E-02 
 11
 203.613470807718 
 21
 .150179577229472 
  0
LINE
  8
0
 10
 203.613470807718 
 20
 .150179577229472 
 11
 203.771159363809 
 21
 .150179577229472 
  0
LINE
  8
0
 10
 203.771159363809 
 20
 .150179577229472 
 11
 203.771159363809 
 21
 2.62814260151576E-02 
  0
LINE
  8
0
 10
 203.771159363809 
 20
 2.62814260151576E-02 
 11
 203.771159363809 
 21
 .274077728443787 
  0
LINE
  8
0
 10
 203.865021599578 
 20
 .244041812997892 
 11
 203.895057515024 
 21
 .274077728443787 
  0
LINE
  8
0
 10
 203.895057515024 
 20
 .274077728443787 
 11
 203.988919750792 
 21
 .274077728443787 
  0
LINE
  8
0
 10
 203.988919750792 
 20
 .274077728443787 
 11
 204.022710155669 
 21
 .244041812997892 
  0
LINE
  8
0
 10
 204.022710155669 
 20
 .244041812997892 
 11
 204.022710155669 
 21
 .180215492675367 
  0
LINE
  8
0
 10
 204.022710155669 
 20
 .180215492675367 
 11
 203.988919750792 
 21
 .150179577229472 
  0
LINE
  8
0
 10
 203.988919750792 
 20
 .150179577229472 
 11
 203.895057515024 
 21
 .150179577229472 
  0
LINE
  8
0
 10
 203.895057515024 
 20
 .150179577229472 
 11
 203.988919750792 
 21
 .150179577229472 
  0
LINE
  8
0
 10
 203.988919750792 
 20
 .150179577229472 
 11
 204.022710155669 
 21
 .120143661783578 
  0
LINE
  8
0
 10
 204.022710155669 
 20
 .120143661783578 
 11
 204.022710155669 
 21
 5.63173414610521E-02 
  0
LINE
  8
0
 10
 204.022710155669 
 20
 5.63173414610521E-02 
 11
 203.988919750792 
 21
 2.62814260151576E-02 
  0
LINE
  8
0
 10
 203.988919750792 
 20
 2.62814260151576E-02 
 11
 203.895057515024 
 21
 2.62814260151576E-02 
  0
LINE
  8
0
 10
 203.895057515024 
 20
 2.62814260151576E-02 
 11
 203.865021599578 
 21
 5.63173414610521E-02 
  0
LINE
  8
0
 10
 238.894407988352 
 20
 1.12634682922104E-02 
 11
 238.894407988352 
 21
 .232778344705682 
  0
LINE
  8
0
 10
 238.894407988352 
 20
 .232778344705682 
 11
 238.924443903798 
 21
 .262814260151576 
  0
LINE
  8
0
 10
 238.924443903798 
 20
 .262814260151576 
 11
 239.018306139566 
 21
 .262814260151576 
  0
LINE
  8
0
 10
 239.018306139566 
 20
 .262814260151576 
 11
 239.048342055012 
 21
 .232778344705682 
  0
LINE
  8
0
 10
 239.048342055012 
 20
 .232778344705682 
 11
 239.048342055012 
 21
 .138916108937262 
  0
LINE
  8
0
 10
 239.048342055012 
 20
 .138916108937262 
 11
 238.894407988352 
 21
 .138916108937262 
  0
LINE
  8
0
 10
 238.894407988352 
 20
 .138916108937262 
 11
 239.048342055012 
 21
 .138916108937262 
  0
LINE
  8
0
 10
 239.048342055012 
 20
 .138916108937262 
 11
 239.048342055012 
 21
 1.12634682922104E-02 
  0
LINE
  8
0
 10
 0 
 20
 0 
 11
 0 
 21
 1.12634682922104E-02 
  0
LINE
  8
0
 10
 0 
 20
 1.12634682922104E-02 
 11
 0 
 21
 1.12634682922104E-02 
  0
LINE
  8
0
 10
 0 
 20
 1.12634682922104E-02 
 11
 1.00244867800673 
 21
 8.63532569069465E-02 
  0
LINE
  8
0
 10
 1.00244867800673 
 20
 8.63532569069465E-02 
 11
 2.00489735601345 
 21
 .157688556090946 
  0
LINE
  8
0
 10
 2.00489735601345 
 20
 .157688556090946 
 11
 3.01485501288165 
 21
 .229023855274945 
  0
LINE
  8
0
 10
 3.01485501288165 
 20
 .229023855274945 
 11
 4.03232164861133 
 21
 .304113643889681 
  0
LINE
  8
0
 10
 4.03232164861133 
 20
 .304113643889681 
 11
 5.05729726320247 
 21
 .37544894307368 
  0
LINE
  8
0
 10
 5.05729726320247 
 20
 .37544894307368 
 11
 6.09353634608583 
 21
 .450538731688416 
  0
LINE
  8
0
 10
 6.09353634608583 
 20
 .450538731688416 
 11
 7.1410388972614 
 21
 .521874030872416 
  0
LINE
  8
0
 10
 7.1410388972614 
 20
 .521874030872416 
 11
 8.20731389559065 
 21
 .596963819487152 
  0
LINE
  8
0
 10
 8.20731389559065 
 20
 .596963819487152 
 11
 9.28485236221212 
 21
 .668299118671151 
  0
LINE
  8
0
 10
 9.28485236221212 
 20
 .668299118671151 
 11
 10.3886722548487 
 21
 .743388907285887 
  0
LINE
  8
0
 10
 10.3886722548487 
 20
 .743388907285887 
 11
 10.3886722548487 
 21
 .743388907285887 
  0
LINE
  8
0
 10
 10.3886722548487 
 20
 .743388907285887 
 11
 10.3886722548487 
 21
 .743388907285887 
  0
LINE
  8
0
 10
 10.3886722548487 
 20
 .743388907285887 
 11
 11.5075101052083 
 21
 .818478695900623 
  0
LINE
  8
0
 10
 11.5075101052083 
 20
 .818478695900623 
 11
 12.6376114238601 
 21
 .897322973946096 
  0
LINE
  8
0
 10
 12.6376114238601 
 20
 .897322973946096 
 11
 13.7714672319426 
 21
 .968658273130095 
  0
LINE
  8
0
 10
 13.7714672319426 
 20
 .968658273130095 
 11
 14.8903050823022 
 21
 1.0399935723141 
  0
LINE
  8
0
 10
 14.8903050823022 
 20
 1.0399935723141 
 11
 15.9866159960773 
 21
 1.11132887149809 
  0
LINE
  8
0
 10
 15.9866159960773 
 20
 1.11132887149809 
 11
 17.0528909944066 
 21
 1.18266417068209 
  0
LINE
  8
0
 10
 17.0528909944066 
 20
 1.18266417068209 
 11
 18.074112119567 
 21
 1.24649049100462 
  0
LINE
  8
0
 10
 18.074112119567 
 20
 1.24649049100462 
 11
 19.0427703926971 
 21
 1.31031681132714 
  0
LINE
  8
0
 10
 19.0427703926971 
 20
 1.31031681132714 
 11
 19.9438478560739 
 21
 1.37414313164967 
  0
LINE
  8
0
 10
 19.9438478560739 
 20
 1.37414313164967 
 11
 20.769835530836 
 21
 1.43046047311072 
  0
LINE
  8
0
 10
 20.769835530836 
 20
 1.43046047311072 
 11
 20.769835530836 
 21
 1.43046047311072 
  0
LINE
  8
0
 10
 20.769835530836 
 20
 1.43046047311072 
 11
 20.769835530836 
 21
 1.43046047311072 
  0
LINE
  8
0
 10
 20.769835530836 
 20
 1.43046047311072 
 11
 21.5169789275526 
 21
 1.48302332514104 
  0
LINE
  8
0
 10
 21.5169789275526 
 20
 1.48302332514104 
 11
 22.2153139616697 
 21
 1.53183168774062 
  0
LINE
  8
0
 10
 22.2153139616697 
 20
 1.53183168774062 
 11
 22.9061400169252 
 21
 1.58064005034019 
  0
LINE
  8
0
 10
 22.9061400169252 
 20
 1.58064005034019 
 11
 23.6307564770574 
 21
 1.62944841293977 
  0
LINE
  8
0
 10
 23.6307564770574 
 20
 1.62944841293977 
 11
 24.4229537469429 
 21
 1.67825677553935 
  0
LINE
  8
0
 10
 24.4229537469429 
 20
 1.67825677553935 
 11
 25.3277856997505 
 21
 1.73081962756967 
  0
LINE
  8
0
 10
 25.3277856997505 
 20
 1.73081962756967 
 11
 26.3827972297875 
 21
 1.78713696903072 
  0
LINE
  8
0
 10
 26.3827972297875 
 20
 1.78713696903072 
 11
 27.6255332313614 
 21
 1.85096328935324 
  0
LINE
  8
0
 10
 27.6255332313614 
 20
 1.85096328935324 
 11
 29.101047577641 
 21
 1.92229858853724 
  0
LINE
  8
0
 10
 29.101047577641 
 20
 1.92229858853724 
 11
 30.8431306735028 
 21
 1.99738837715198 
  0
LINE
  8
0
 10
 30.8431306735028 
 20
 1.99738837715198 
 11
 30.8431306735028 
 21
 1.99738837715198 
  0
LINE
  8
0
 10
 30.8431306735028 
 20
 1.99738837715198 
 11
 30.8431306735028 
 21
 1.99738837715198 
  0
LINE
  8
0
 10
 30.8431306735028 
 20
 1.99738837715198 
 11
 32.8780639449622 
 21
 2.08374163405893 
  0
LINE
  8
0
 10
 32.8780639449622 
 20
 2.08374163405893 
 11
 35.1833204554346 
 21
 2.18511284868882 
  0
LINE
  8
0
 10
 35.1833204554346 
 20
 2.18511284868882 
 11
 37.7213553106127 
 21
 2.28272957388798 
  0
LINE
  8
0
 10
 37.7213553106127 
 20
 2.28272957388798 
 11
 40.4508691267583 
 21
 2.38785527794861 
  0
LINE
  8
0
 10
 40.4508691267583 
 20
 2.38785527794861 
 11
 43.3343170095642 
 21
 2.4892264925785 
  0
LINE
  8
0
 10
 43.3343170095642 
 20
 2.4892264925785 
 11
 46.3303995752922 
 21
 2.59435219663913 
  0
LINE
  8
0
 10
 46.3303995752922 
 20
 2.59435219663913 
 11
 49.4053264190656 
 21
 2.69196892183829 
  0
LINE
  8
0
 10
 49.4053264190656 
 20
 2.69196892183829 
 11
 52.5140436677157 
 21
 2.78583115760671 
  0
LINE
  8
0
 10
 52.5140436677157 
 20
 2.78583115760671 
 11
 55.6227609163657 
 21
 2.86842992508292 
  0
LINE
  8
0
 10
 55.6227609163657 
 20
 2.86842992508292 
 11
 58.6939332707085 
 21
 2.94727420312839 
  0
LINE
  8
0
 10
 58.6939332707085 
 20
 2.94727420312839 
 11
 58.6939332707085 
 21
 2.94727420312839 
  0
LINE
  8
0
 10
 58.6939332707085 
 20
 2.94727420312839 
 11
 58.6939332707085 
 21
 2.94727420312839 
  0
LINE
  8
0
 10
 58.6939332707085 
 20
 2.94727420312839 
 11
 61.6937703258672 
 21
 3.01110052345092 
  0
LINE
  8
0
 10
 61.6937703258672 
 20
 3.01110052345092 
 11
 64.6222720818419 
 21
 3.0599088860505 
  0
LINE
  8
0
 10
 64.6222720818419 
 20
 3.0599088860505 
 11
 67.486947517494 
 21
 3.1012082697886 
  0
LINE
  8
0
 10
 67.486947517494 
 20
 3.1012082697886 
 11
 70.3028145905467 
 21
 3.13124418523449 
  0
LINE
  8
0
 10
 70.3028145905467 
 20
 3.13124418523449 
 11
 73.0698733009997 
 21
 3.15377112181892 
  0
LINE
  8
0
 10
 73.0698733009997 
 20
 3.15377112181892 
 11
 75.7993871171453 
 21
 3.16878907954186 
  0
LINE
  8
0
 10
 75.7993871171453 
 20
 3.16878907954186 
 11
 78.5026195072758 
 21
 3.18005254783407 
  0
LINE
  8
0
 10
 78.5026195072758 
 20
 3.18005254783407 
 11
 81.1870794502526 
 21
 3.18380703726481 
  0
LINE
  8
0
 10
 81.1870794502526 
 20
 3.18380703726481 
 11
 83.8602759249372 
 21
 3.18380703726481 
  0
LINE
  8
0
 10
 83.8602759249372 
 20
 3.18380703726481 
 11
 86.5259634207604 
 21
 3.18005254783407 
  0
LINE
  8
0
 10
 86.5259634207604 
 20
 3.18005254783407 
 11
 86.5259634207604 
 21
 3.18005254783407 
  0
LINE
  8
0
 10
 86.5259634207604 
 20
 3.18005254783407 
 11
 86.5259634207604 
 21
 3.18005254783407 
  0
LINE
  8
0
 10
 86.5259634207604 
 20
 3.18005254783407 
 11
 89.199159895445 
 21
 3.17629805840334 
  0
LINE
  8
0
 10
 89.199159895445 
 20
 3.17629805840334 
 11
 91.8836198384218 
 21
 3.16503459011113 
  0
LINE
  8
0
 10
 91.8836198384218 
 20
 3.16503459011113 
 11
 94.5755887602601 
 21
 3.15752561124965 
  0
LINE
  8
0
 10
 94.5755887602601 
 20
 3.15752561124965 
 11
 97.2863301292521 
 21
 3.14626214295744 
  0
LINE
  8
0
 10
 97.2863301292521 
 20
 3.14626214295744 
 11
 100.015843945398 
 21
 3.13124418523449 
  0
LINE
  8
0
 10
 100.015843945398 
 20
 3.13124418523449 
 11
 102.764130208697 
 21
 3.11622622751155 
  0
LINE
  8
0
 10
 102.764130208697 
 20
 3.11622622751155 
 11
 105.542452387442 
 21
 3.1012082697886 
  0
LINE
  8
0
 10
 105.542452387442 
 20
 3.1012082697886 
 11
 108.347055992203 
 21
 3.08243582263492 
  0
LINE
  8
0
 10
 108.347055992203 
 20
 3.08243582263492 
 11
 111.18545000184 
 21
 3.06366337548123 
  0
LINE
  8
0
 10
 111.18545000184 
 20
 3.06366337548123 
 11
 114.061388905784 
 21
 3.04113643889681 
  0
LINE
  8
0
 10
 114.061388905784 
 20
 3.04113643889681 
 11
 114.061388905784 
 21
 3.04113643889681 
  0
LINE
  8
0
 10
 114.061388905784 
 20
 3.04113643889681 
 11
 114.061388905784 
 21
 3.04113643889681 
  0
LINE
  8
0
 10
 114.061388905784 
 20
 3.04113643889681 
 11
 116.974872704036 
 21
 3.01860950231239 
  0
LINE
  8
0
 10
 116.974872704036 
 20
 3.01860950231239 
 11
 119.918392417734 
 21
 2.99608256572797 
  0
LINE
  8
0
 10
 119.918392417734 
 20
 2.99608256572797 
 11
 122.888193557446 
 21
 2.96980113971281 
  0
LINE
  8
0
 10
 122.888193557446 
 20
 2.96980113971281 
 11
 125.880521633744 
 21
 2.94727420312839 
  0
LINE
  8
0
 10
 125.880521633744 
 20
 2.94727420312839 
 11
 128.880358688902 
 21
 2.92474726654397 
  0
LINE
  8
0
 10
 128.880358688902 
 20
 2.92474726654397 
 11
 131.887704722922 
 21
 2.89471135109808 
  0
LINE
  8
0
 10
 131.887704722922 
 20
 2.89471135109808 
 11
 134.891296267512 
 21
 2.86842992508292 
  0
LINE
  8
0
 10
 134.891296267512 
 20
 2.86842992508292 
 11
 137.88737883324 
 21
 2.83839400963702 
  0
LINE
  8
0
 10
 137.88737883324 
 20
 2.83839400963702 
 11
 140.868443441245 
 21
 2.81211258362187 
  0
LINE
  8
0
 10
 140.868443441245 
 20
 2.81211258362187 
 11
 143.826981112666 
 21
 2.78207666817597 
  0
LINE
  8
0
 10
 143.826981112666 
 20
 2.78207666817597 
 11
 143.826981112666 
 21
 2.78207666817597 
  0
LINE
  8
0
 10
 143.826981112666 
 20
 2.78207666817597 
 11
 143.826981112666 
 21
 2.78207666817597 
  0
LINE
  8
0
 10
 143.826981112666 
 20
 2.78207666817597 
 11
 146.759237358071 
 21
 2.75204075273008 
  0
LINE
  8
0
 10
 146.759237358071 
 20
 2.75204075273008 
 11
 149.668966666892 
 21
 2.72200483728418 
  0
LINE
  8
0
 10
 149.668966666892 
 20
 2.72200483728418 
 11
 152.574941486282 
 21
 2.69572341126903 
  0
LINE
  8
0
 10
 152.574941486282 
 20
 2.69572341126903 
 11
 155.484670795103 
 21
 2.66568749582313 
  0
LINE
  8
0
 10
 155.484670795103 
 20
 2.66568749582313 
 11
 158.405663572217 
 21
 2.63565158037724 
  0
LINE
  8
0
 10
 158.405663572217 
 20
 2.63565158037724 
 11
 161.349183285914 
 21
 2.60186117550061 
  0
LINE
  8
0
 10
 161.349183285914 
 20
 2.60186117550061 
 11
 164.330247893919 
 21
 2.56807077062397 
  0
LINE
  8
0
 10
 164.330247893919 
 20
 2.56807077062397 
 11
 167.360120864524 
 21
 2.53052587631661 
  0
LINE
  8
0
 10
 167.360120864524 
 20
 2.53052587631661 
 11
 170.442556687159 
 21
 2.49298098200924 
  0
LINE
  8
0
 10
 170.442556687159 
 20
 2.49298098200924 
 11
 173.592573319547 
 21
 2.45168159827113 
  0
LINE
  8
0
 10
 173.592573319547 
 20
 2.45168159827113 
 11
 173.592573319547 
 21
 2.45168159827113 
  0
LINE
  8
0
 10
 173.592573319547 
 20
 2.45168159827113 
 11
 173.592573319547 
 21
 2.45168159827113 
  0
LINE
  8
0
 10
 173.592573319547 
 20
 2.45168159827113 
 11
 176.813925251119 
 21
 2.41413670396377 
  0
LINE
  8
0
 10
 176.813925251119 
 20
 2.41413670396377 
 11
 180.072822076999 
 21
 2.36908283079492 
  0
LINE
  8
0
 10
 180.072822076999 
 20
 2.36908283079492 
 11
 183.33922788174 
 21
 2.32402895762608 
  0
LINE
  8
0
 10
 183.33922788174 
 20
 2.32402895762608 
 11
 186.568088792173 
 21
 2.27897508445724 
  0
LINE
  8
0
 10
 186.568088792173 
 20
 2.27897508445724 
 11
 189.721859913992 
 21
 2.2339212112884 
  0
LINE
  8
0
 10
 189.721859913992 
 20
 2.2339212112884 
 11
 192.76675084232 
 21
 2.18886733811956 
  0
LINE
  8
0
 10
 192.76675084232 
 20
 2.18886733811956 
 11
 195.665216682849 
 21
 2.14756795438145 
  0
LINE
  8
0
 10
 195.665216682849 
 20
 2.14756795438145 
 11
 198.375958051841 
 21
 2.11002306007408 
  0
LINE
  8
0
 10
 198.375958051841 
 20
 2.11002306007408 
 11
 200.861430054988 
 21
 2.07247816576672 
  0
LINE
  8
0
 10
 200.861430054988 
 20
 2.07247816576672 
 11
 203.084087797984 
 21
 2.03868776089008 
  0
LINE
  8
0
 10
 203.084087797984 
 20
 2.03868776089008 
 11
 203.084087797984 
 21
 2.03868776089008 
  0
LINE
  8
0
 10
 203.084087797984 
 20
 2.03868776089008 
 11
 203.084087797984 
 21
 2.03868776089008 
  0
LINE
  8
0
 10
 203.084087797984 
 20
 2.03868776089008 
 11
 205.021404344245 
 21
 2.00865184544419 
  0
LINE
  8
0
 10
 205.021404344245 
 20
 2.00865184544419 
 11
 206.699661119784 
 21
 1.98237041942903 
  0
LINE
  8
0
 10
 206.699661119784 
 20
 1.98237041942903 
 11
 208.152648529479 
 21
 1.95608899341388 
  0
LINE
  8
0
 10
 208.152648529479 
 20
 1.95608899341388 
 11
 209.417911467637 
 21
 1.93731654626019 
  0
LINE
  8
0
 10
 209.417911467637 
 20
 1.93731654626019 
 11
 210.536749317997 
 21
 1.91854409910651 
  0
LINE
  8
0
 10
 210.536749317997 
 20
 1.91854409910651 
 11
 211.550461464296 
 21
 1.89977165195282 
  0
LINE
  8
0
 10
 211.550461464296 
 20
 1.89977165195282 
 11
 212.48908382198 
 21
 1.88475369422988 
  0
LINE
  8
0
 10
 212.48908382198 
 20
 1.88475369422988 
 11
 213.397670264218 
 21
 1.86598124707619 
  0
LINE
  8
0
 10
 213.397670264218 
 20
 1.86598124707619 
 11
 214.310011195888 
 21
 1.85096328935324 
  0
LINE
  8
0
 10
 214.310011195888 
 20
 1.85096328935324 
 11
 215.263651511295 
 21
 1.83219084219956 
  0
LINE
  8
0
 10
 215.263651511295 
 20
 1.83219084219956 
 11
 215.263651511295 
 21
 1.83219084219956 
  0
LINE
  8
0
 10
 215.263651511295 
 20
 1.83219084219956 
 11
 215.263651511295 
 21
 1.83219084219956 
  0
LINE
  8
0
 10
 215.263651511295 
 20
 1.83219084219956 
 11
 216.292381615317 
 21
 1.81341839504588 
  0
LINE
  8
0
 10
 216.292381615317 
 20
 1.81341839504588 
 11
 217.392447018522 
 21
 1.79464594789219 
  0
LINE
  8
0
 10
 217.392447018522 
 20
 1.79464594789219 
 11
 218.55258425262 
 21
 1.77587350073851 
  0
LINE
  8
0
 10
 218.55258425262 
 20
 1.77587350073851 
 11
 219.761529849317 
 21
 1.75334656415409 
  0
LINE
  8
0
 10
 219.761529849317 
 20
 1.75334656415409 
 11
 221.008020340322 
 21
 1.73081962756967 
  0
LINE
  8
0
 10
 221.008020340322 
 20
 1.73081962756967 
 11
 222.284546746773 
 21
 1.71204718041598 
  0
LINE
  8
0
 10
 222.284546746773 
 20
 1.71204718041598 
 11
 223.579845600377 
 21
 1.68952024383156 
  0
LINE
  8
0
 10
 223.579845600377 
 20
 1.68952024383156 
 11
 224.878898943412 
 21
 1.66699330724714 
  0
LINE
  8
0
 10
 224.878898943412 
 20
 1.66699330724714 
 11
 226.177952286447 
 21
 1.64446637066272 
  0
LINE
  8
0
 10
 226.177952286447 
 20
 1.64446637066272 
 11
 227.458233182328 
 21
 1.61818494464756 
  0
LINE
  8
0
 10
 227.458233182328 
 20
 1.61818494464756 
 11
 227.458233182328 
 21
 1.61818494464756 
  0
LINE
  8
0
 10
 227.458233182328 
 20
 1.61818494464756 
 11
 227.458233182328 
 21
 1.61818494464756 
  0
LINE
  8
0
 10
 227.458233182328 
 20
 1.61818494464756 
 11
 228.719741631055 
 21
 1.59565800806314 
  0
LINE
  8
0
 10
 228.719741631055 
 20
 1.59565800806314 
 11
 229.958723143199 
 21
 1.57313107147872 
  0
LINE
  8
0
 10
 229.958723143199 
 20
 1.57313107147872 
 11
 231.178932208188 
 21
 1.55435862432504 
  0
LINE
  8
0
 10
 231.178932208188 
 20
 1.55435862432504 
 11
 232.380368826024 
 21
 1.53183168774062 
  0
LINE
  8
0
 10
 232.380368826024 
 20
 1.53183168774062 
 11
 233.566787486137 
 21
 1.5093047511562 
  0
LINE
  8
0
 10
 233.566787486137 
 20
 1.5093047511562 
 11
 234.738188188526 
 21
 1.48677781457177 
  0
LINE
  8
0
 10
 234.738188188526 
 20
 1.48677781457177 
 11
 235.905834401486 
 21
 1.46425087798735 
  0
LINE
  8
0
 10
 235.905834401486 
 20
 1.46425087798735 
 11
 237.062217146153 
 21
 1.44547843083367 
  0
LINE
  8
0
 10
 237.062217146153 
 20
 1.44547843083367 
 11
 238.211090911958 
 21
 1.42295149424925 
  0
LINE
  8
0
 10
 238.211090911958 
 20
 1.42295149424925 
 11
 239.363719167194 
 21
 1.40042455766483 
  0
LINE
  8
0
 10
 239.363719167194 
 20
 1.40042455766483 
 11
 239.363719167194 
 21
 1.40042455766483 
  0
LINE
  8
0
 10
 239.363719167194 
 20
 1.40042455766483 
 11
 239.359964677763 
 21
-1.4379694519722 
  0
LINE
  8
0
 10
 239.359964677763 
 20
-1.4379694519722 
 11
 239.359964677763 
 21
-1.4379694519722 
  0
LINE
  8
0
 10
 239.359964677763 
 20
-1.4379694519722 
 11
 238.211090911958 
 21
-1.46049638855662 
  0
LINE
  8
0
 10
 238.211090911958 
 20
-1.46049638855662 
 11
 237.058462656722 
 21
-1.4792688357103 
  0
LINE
  8
0
 10
 237.058462656722 
 20
-1.4792688357103 
 11
 235.902079912055 
 21
-1.49804128286399 
  0
LINE
  8
0
 10
 235.902079912055 
 20
-1.49804128286399 
 11
 234.738188188526 
 21
-1.52056821944841 
  0
LINE
  8
0
 10
 234.738188188526 
 20
-1.52056821944841 
 11
 233.563032996706 
 21
-1.53934066660209 
  0
LINE
  8
0
 10
 233.563032996706 
 20
-1.53934066660209 
 11
 232.376614336593 
 21
-1.56186760318651 
  0
LINE
  8
0
 10
 232.376614336593 
 20
-1.56186760318651 
 11
 231.175177718757 
 21
-1.58064005034019 
  0
LINE
  8
0
 10
 231.175177718757 
 20
-1.58064005034019 
 11
 229.958723143199 
 21
-1.60316698692462 
  0
LINE
  8
0
 10
 229.958723143199 
 20
-1.60316698692462 
 11
 228.719741631055 
 21
-1.6219394340783 
  0
LINE
  8
0
 10
 228.719741631055 
 20
-1.6219394340783 
 11
 227.458233182328 
 21
-1.64446637066272 
  0
LINE
  8
0
 10
 227.458233182328 
 20
-1.64446637066272 
 11
 227.458233182328 
 21
-1.64446637066272 
  0
LINE
  8
0
 10
 227.458233182328 
 20
-1.64446637066272 
 11
 227.458233182328 
 21
-1.64446637066272 
  0
LINE
  8
0
 10
 227.458233182328 
 20
-1.64446637066272 
 11
 226.174197797016 
 21
-1.66699330724714 
  0
LINE
  8
0
 10
 226.174197797016 
 20
-1.66699330724714 
 11
 224.878898943412 
 21
-1.68952024383156 
  0
LINE
  8
0
 10
 224.878898943412 
 20
-1.68952024383156 
 11
 223.576091110946 
 21
-1.71204718041598 
  0
LINE
  8
0
 10
 223.576091110946 
 20
-1.71204718041598 
 11
 222.284546746773 
 21
-1.73081962756967 
  0
LINE
  8
0
 10
 222.284546746773 
 20
-1.73081962756967 
 11
 221.008020340322 
 21
-1.75710105358482 
  0
LINE
  8
0
 10
 221.008020340322 
 20
-1.75710105358482 
 11
 219.757775359887 
 21
-1.77962799016925 
  0
LINE
  8
0
 10
 219.757775359887 
 20
-1.77962799016925 
 11
 218.548829763189 
 21
-1.79840043732293 
  0
LINE
  8
0
 10
 218.548829763189 
 20
-1.79840043732293 
 11
 217.392447018522 
 21
-1.81717288447661 
  0
LINE
  8
0
 10
 217.392447018522 
 20
-1.81717288447661 
 11
 216.292381615317 
 21
-1.8359453316303 
  0
LINE
  8
0
 10
 216.292381615317 
 20
-1.8359453316303 
 11
 215.263651511295 
 21
-1.85471777878398 
  0
LINE
  8
0
 10
 215.263651511295 
 20
-1.85471777878398 
 11
 215.263651511295 
 21
-1.85471777878398 
  0
LINE
  8
0
 10
 215.263651511295 
 20
-1.85471777878398 
 11
 215.263651511295 
 21
-1.85471777878398 
  0
LINE
  8
0
 10
 215.263651511295 
 20
-1.85471777878398 
 11
 214.306256706457 
 21
-1.86973573650693 
  0
LINE
  8
0
 10
 214.306256706457 
 20
-1.86973573650693 
 11
 213.393915774788 
 21
-1.88850818366061 
  0
LINE
  8
0
 10
 213.393915774788 
 20
-1.88850818366061 
 11
 212.48908382198 
 21
-1.90352614138356 
  0
LINE
  8
0
 10
 212.48908382198 
 20
-1.90352614138356 
 11
 211.546706974865 
 21
-1.91854409910651 
  0
LINE
  8
0
 10
 211.546706974865 
 20
-1.91854409910651 
 11
 210.536749317997 
 21
-1.93356205682945 
  0
LINE
  8
0
 10
 210.536749317997 
 20
-1.93356205682945 
 11
 209.417911467637 
 21
-1.95233450398314 
  0
LINE
  8
0
 10
 209.417911467637 
 20
-1.95233450398314 
 11
 208.148894040048 
 21
-1.97110695113682 
  0
LINE
  8
0
 10
 208.148894040048 
 20
-1.97110695113682 
 11
 206.695906630353 
 21
-1.99363388772124 
  0
LINE
  8
0
 10
 206.695906630353 
 20
-1.99363388772124 
 11
 205.021404344245 
 21
-2.0199153137364 
  0
LINE
  8
0
 10
 205.021404344245 
 20
-2.0199153137364 
 11
 203.084087797984 
 21
-2.0499512291823 
  0
LINE
  8
0
 10
 203.084087797984 
 20
-2.0499512291823 
 11
 203.084087797984 
 21
-2.0499512291823 
  0
LINE
  8
0
 10
 203.084087797984 
 20
-2.0499512291823 
 11
 203.084087797984 
 21
-2.0499512291823 
  0
LINE
  8
0
 10
 203.084087797984 
 20
-2.0499512291823 
 11
 200.857675565558 
 21
-2.07998714462819 
  0
LINE
  8
0
 10
 200.857675565558 
 20
-2.07998714462819 
 11
 198.37220356241 
 21
-2.11753203893556 
  0
LINE
  8
0
 10
 198.37220356241 
 20
-2.11753203893556 
 11
 195.661462193418 
 21
-2.15883142267366 
  0
LINE
  8
0
 10
 195.661462193418 
 20
-2.15883142267366 
 11
 192.76675084232 
 21
-2.20013080641177 
  0
LINE
  8
0
 10
 192.76675084232 
 20
-2.20013080641177 
 11
 189.721859913992 
 21
-2.24143019014987 
  0
LINE
  8
0
 10
 189.721859913992 
 20
-2.24143019014987 
 11
 186.564334302743 
 21
-2.28272957388798 
  0
LINE
  8
0
 10
 186.564334302743 
 20
-2.28272957388798 
 11
 183.335473392309 
 21
-2.32778344705682 
  0
LINE
  8
0
 10
 183.335473392309 
 20
-2.32778344705682 
 11
 180.072822076999 
 21
-2.36908283079492 
  0
LINE
  8
0
 10
 180.072822076999 
 20
-2.36908283079492 
 11
 176.810170761688 
 21
-2.41413670396377 
  0
LINE
  8
0
 10
 176.810170761688 
 20
-2.41413670396377 
 11
 173.592573319547 
 21
-2.45543608770187 
  0
LINE
  8
0
 10
 173.592573319547 
 20
-2.45543608770187 
 11
 173.592573319547 
 21
-2.45543608770187 
  0
LINE
  8
0
 10
 173.592573319547 
 20
-2.45543608770187 
 11
 173.592573319547 
 21
-2.45543608770187 
  0
LINE
  8
0
 10
 173.592573319547 
 20
-2.45543608770187 
 11
 170.438802197728 
 21
-2.49298098200924 
  0
LINE
  8
0
 10
 170.438802197728 
 20
-2.49298098200924 
 11
 167.356366375093 
 21
-2.53052587631661 
  0
LINE
  8
0
 10
 167.356366375093 
 20
-2.53052587631661 
 11
 164.330247893919 
 21
-2.56431628119324 
  0
LINE
  8
0
 10
 164.330247893919 
 20
-2.56431628119324 
 11
 161.349183285914 
 21
-2.59810668606987 
  0
LINE
  8
0
 10
 161.349183285914 
 20
-2.59810668606987 
 11
 158.401909082786 
 21
-2.62814260151576 
  0
LINE
  8
0
 10
 158.401909082786 
 20
-2.62814260151576 
 11
 155.480916305673 
 21
-2.65817851696166 
  0
LINE
  8
0
 10
 155.480916305673 
 20
-2.65817851696166 
 11
 152.574941486282 
 21
-2.68821443240755 
  0
LINE
  8
0
 10
 152.574941486282 
 20
-2.68821443240755 
 11
 149.668966666892 
 21
-2.72200483728418 
  0
LINE
  8
0
 10
 149.668966666892 
 20
-2.72200483728418 
 11
 146.75548286864 
 21
-2.74828626329934 
  0
LINE
  8
0
 10
 146.75548286864 
 20
-2.74828626329934 
 11
 143.823226623235 
 21
-2.7745676893145 
  0
LINE
  8
0
 10
 143.823226623235 
 20
-2.7745676893145 
 11
 143.823226623235 
 21
-2.7745676893145 
  0
LINE
  8
0
 10
 143.823226623235 
 20
-2.7745676893145 
 11
 143.823226623235 
 21
-2.7745676893145 
  0
LINE
  8
0
 10
 143.823226623235 
 20
-2.7745676893145 
 11
 140.868443441245 
 21
-2.80460360476039 
  0
LINE
  8
0
 10
 140.868443441245 
 20
-2.80460360476039 
 11
 137.88737883324 
 21
-2.83088503077555 
  0
LINE
  8
0
 10
 137.88737883324 
 20
-2.83088503077555 
 11
 134.891296267512 
 21
-2.85716645679071 
  0
LINE
  8
0
 10
 134.891296267512 
 20
-2.85716645679071 
 11
 131.887704722922 
 21
-2.88344788280587 
  0
LINE
  8
0
 10
 131.887704722922 
 20
-2.88344788280587 
 11
 128.880358688902 
 21
-2.90972930882102 
  0
LINE
  8
0
 10
 128.880358688902 
 20
-2.90972930882102 
 11
 125.876767144313 
 21
-2.93601073483618 
  0
LINE
  8
0
 10
 125.876767144313 
 20
-2.93601073483618 
 11
 122.888193557446 
 21
-2.96229216085134 
  0
LINE
  8
0
 10
 122.888193557446 
 20
-2.96229216085134 
 11
 119.918392417734 
 21
-2.98481909743576 
  0
LINE
  8
0
 10
 119.918392417734 
 20
-2.98481909743576 
 11
 116.971118214605 
 21
-3.00734603402018 
  0
LINE
  8
0
 10
 116.971118214605 
 20
-3.00734603402018 
 11
 114.061388905784 
 21
-3.02611848117386 
  0
LINE
  8
0
 10
 114.061388905784 
 20
-3.02611848117386 
 11
 114.061388905784 
 21
-3.02611848117386 
  0
LINE
  8
0
 10
 114.061388905784 
 20
-3.02611848117386 
 11
 114.061388905784 
 21
-3.02611848117386 
  0
LINE
  8
0
 10
 114.061388905784 
 20
-3.02611848117386 
 11
 111.18545000184 
 21
-3.04864541775828 
  0
LINE
  8
0
 10
 111.18545000184 
 20
-3.04864541775828 
 11
 108.347055992203 
 21
-3.06741786491197 
  0
LINE
  8
0
 10
 108.347055992203 
 20
-3.06741786491197 
 11
 105.542452387442 
 21
-3.08243582263492 
  0
LINE
  8
0
 10
 105.542452387442 
 20
-3.08243582263492 
 11
 102.764130208697 
 21
-3.1012082697886 
  0
LINE
  8
0
 10
 102.764130208697 
 20
-3.1012082697886 
 11
 100.012089455967 
 21
-3.11622622751155 
  0
LINE
  8
0
 10
 100.012089455967 
 20
-3.11622622751155 
 11
 97.2863301292521 
 21
-3.13124418523449 
  0
LINE
  8
0
 10
 97.2863301292521 
 20
-3.13124418523449 
 11
 94.5755887602601 
 21
-3.13875316409597 
  0
LINE
  8
0
 10
 94.5755887602601 
 20
-3.13875316409597 
 11
 91.8798653489911 
 21
-3.15001663238818 
  0
LINE
  8
0
 10
 91.8798653489911 
 20
-3.15001663238818 
 11
 89.199159895445 
 21
-3.15752561124965 
  0
LINE
  8
0
 10
 89.199159895445 
 20
-3.15752561124965 
 11
 86.5259634207604 
 21
-3.16128010068039 
  0
LINE
  8
0
 10
 86.5259634207604 
 20
-3.16128010068039 
 11
 86.5259634207604 
 21
-3.16128010068039 
  0
LINE
  8
0
 10
 86.5259634207604 
 20
-3.16128010068039 
 11
 86.5259634207604 
 21
-3.16128010068039 
  0
LINE
  8
0
 10
 86.5259634207604 
 20
-3.16128010068039 
 11
 83.8565214355065 
 21
-3.16503459011113 
  0
LINE
  8
0
 10
 83.8565214355065 
 20
-3.16503459011113 
 11
 81.1870794502526 
 21
-3.16878907954186 
  0
LINE
  8
0
 10
 81.1870794502526 
 20
-3.16878907954186 
 11
 78.5026195072758 
 21
-3.16503459011113 
  0
LINE
  8
0
 10
 78.5026195072758 
 20
-3.16503459011113 
 11
 75.7993871171453 
 21
-3.15377112181892 
  0
LINE
  8
0
 10
 75.7993871171453 
 20
-3.15377112181892 
 11
 73.0698733009997 
 21
-3.13875316409597 
  0
LINE
  8
0
 10
 73.0698733009997 
 20
-3.13875316409597 
 11
 70.2990601011159 
 21
-3.11247173808081 
  0
LINE
  8
0
 10
 70.2990601011159 
 20
-3.11247173808081 
 11
 67.486947517494 
 21
-3.08243582263492 
  0
LINE
  8
0
 10
 67.486947517494 
 20
-3.08243582263492 
 11
 64.6185175924111 
 21
-3.04113643889681 
  0
LINE
  8
0
 10
 64.6185175924111 
 20
-3.04113643889681 
 11
 61.6900158364364 
 21
-2.9885735868665 
  0
LINE
  8
0
 10
 61.6900158364364 
 20
-2.9885735868665 
 11
 58.6939332707085 
 21
-2.92474726654397 
  0
LINE
  8
0
 10
 58.6939332707085 
 20
-2.92474726654397 
 11
 58.6939332707085 
 21
-2.92474726654397 
  0
LINE
  8
0
 10
 58.6939332707085 
 20
-2.92474726654397 
 11
 58.6939332707085 
 21
-2.92474726654397 
  0
LINE
  8
0
 10
 58.6939332707085 
 20
-2.92474726654397 
 11
 55.6227609163657 
 21
-2.85341196735997 
  0
LINE
  8
0
 10
 55.6227609163657 
 20
-2.85341196735997 
 11
 52.5140436677157 
 21
-2.76705871045302 
  0
LINE
  8
0
 10
 52.5140436677157 
 20
-2.76705871045302 
 11
 49.4015719296349 
 21
-2.6731964746846 
  0
LINE
  8
0
 10
 49.4015719296349 
 20
-2.6731964746846 
 11
 46.3303995752922 
 21
-2.57557974948545 
  0
LINE
  8
0
 10
 46.3303995752922 
 20
-2.57557974948545 
 11
 43.3343170095642 
 21
-2.47045404542482 
  0
LINE
  8
0
 10
 43.3343170095642 
 20
-2.47045404542482 
 11
 40.4508691267583 
 21
-2.36908283079492 
  0
LINE
  8
0
 10
 40.4508691267583 
 20
-2.36908283079492 
 11
 37.7213553106127 
 21
-2.26395712673429 
  0
LINE
  8
0
 10
 37.7213553106127 
 20
-2.26395712673429 
 11
 35.1833204554346 
 21
-2.1625859121044 
  0
LINE
  8
0
 10
 35.1833204554346 
 20
-2.1625859121044 
 11
 32.8780639449622 
 21
-2.07247816576672 
  0
LINE
  8
0
 10
 32.8780639449622 
 20
-2.07247816576672 
 11
 30.8393761840721 
 21
-1.98612490885977 
  0
LINE
  8
0
 10
 30.8393761840721 
 20
-1.98612490885977 
 11
 30.8393761840721 
 21
-1.98612490885977 
  0
LINE
  8
0
 10
 30.8393761840721 
 20
-1.98612490885977 
 11
 30.8393761840721 
 21
-1.98612490885977 
  0
LINE
  8
0
 10
 30.8393761840721 
 20
-1.98612490885977 
 11
 29.101047577641 
 21
-1.9072806308143 
  0
LINE
  8
0
 10
 29.101047577641 
 20
-1.9072806308143 
 11
 27.6255332313614 
 21
-1.8359453316303 
  0
LINE
  8
0
 10
 27.6255332313614 
 20
-1.8359453316303 
 11
 26.3827972297875 
 21
-1.77211901130777 
  0
LINE
  8
0
 10
 26.3827972297875 
 20
-1.77211901130777 
 11
 25.3277856997505 
 21
-1.71580166984672 
  0
LINE
  8
0
 10
 25.3277856997505 
 20
-1.71580166984672 
 11
 24.4229537469429 
 21
-1.6632388178164 
  0
LINE
  8
0
 10
 24.4229537469429 
 20
-1.6632388178164 
 11
 23.6307564770574 
 21
-1.61443045521683 
  0
LINE
  8
0
 10
 23.6307564770574 
 20
-1.61443045521683 
 11
 22.9061400169252 
 21
-1.56562209261725 
  0
LINE
  8
0
 10
 22.9061400169252 
 20
-1.56562209261725 
 11
 22.2153139616697 
 21
-1.51681373001767 
  0
LINE
  8
0
 10
 22.2153139616697 
 20
-1.51681373001767 
 11
 21.5169789275526 
 21
-1.46800536741809 
  0
LINE
  8
0
 10
 21.5169789275526 
 20
-1.46800536741809 
 11
 20.769835530836 
 21
-1.41168802595704 
  0
LINE
  8
0
 10
 20.769835530836 
 20
-1.41168802595704 
 11
 20.769835530836 
 21
-1.41168802595704 
  0
LINE
  8
0
 10
 20.769835530836 
 20
-1.41168802595704 
 11
 20.769835530836 
 21
-1.41168802595704 
  0
LINE
  8
0
 10
 20.769835530836 
 20
-1.41168802595704 
 11
 19.9438478560739 
 21
-1.35537068449599 
  0
LINE
  8
0
 10
 19.9438478560739 
 20
-1.35537068449599 
 11
 19.0427703926971 
 21
-1.2952988536042 
  0
LINE
  8
0
 10
 19.0427703926971 
 20
-1.2952988536042 
 11
 18.074112119567 
 21
-1.23147253328167 
  0
LINE
  8
0
 10
 18.074112119567 
 20
-1.23147253328167 
 11
 17.0528909944066 
 21
-1.16389172352841 
  0
LINE
  8
0
 10
 17.0528909944066 
 20
-1.16389172352841 
 11
 15.9866159960773 
 21
-1.09631091377515 
  0
LINE
  8
0
 10
 15.9866159960773 
 20
-1.09631091377515 
 11
 14.8903050823022 
 21
-1.02497561459115 
  0
LINE
  8
0
 10
 14.8903050823022 
 20
-1.02497561459115 
 11
 13.7714672319426 
 21
-.953640315407148 
  0
LINE
  8
0
 10
 13.7714672319426 
 20
-.953640315407148 
 11
 12.6376114238601 
 21
-.878550526792412 
  0
LINE
  8
0
 10
 12.6376114238601 
 20
-.878550526792412 
 11
 11.5075101052083 
 21
-.807215227608413 
  0
LINE
  8
0
 10
 11.5075101052083 
 20
-.807215227608413 
 11
 10.3886722548487 
 21
-.732125438993677 
  0
LINE
  8
0
 10
 10.3886722548487 
 20
-.732125438993677 
 11
 10.3886722548487 
 21
-.732125438993677 
  0
LINE
  8
0
 10
 10.3886722548487 
 20
-.732125438993677 
 11
 10.3886722548487 
 21
-.732125438993677 
  0
LINE
  8
0
 10
 10.3886722548487 
 20
-.732125438993677 
 11
 9.28485236221212 
 21
-.660790139809677 
  0
LINE
  8
0
 10
 9.28485236221212 
 20
-.660790139809677 
 11
 8.20731389559065 
 21
-.585700351194941 
  0
LINE
  8
0
 10
 8.20731389559065 
 20
-.585700351194941 
 11
 7.1410388972614 
 21
-.510610562580205 
  0
LINE
  8
0
 10
 7.1410388972614 
 20
-.510610562580205 
 11
 6.09353634608583 
 21
-.439275263396206 
  0
LINE
  8
0
 10
 6.09353634608583 
 20
-.439275263396206 
 11
 5.05729726320247 
 21
-.36418547478147 
  0
LINE
  8
0
 10
 5.05729726320247 
 20
-.36418547478147 
 11
 4.03232164861133 
 21
-.292850175597471 
  0
LINE
  8
0
 10
 4.03232164861133 
 20
-.292850175597471 
 11
 3.01485501288165 
 21
-.221514876413471 
  0
LINE
  8
0
 10
 3.01485501288165 
 20
-.221514876413471 
 11
 2.00489735601345 
 21
-.146425087798735 
  0
LINE
  8
0
 10
 2.00489735601345 
 20
-.146425087798735 
 11
 1.00244867800673 
 21
-7.50897886147361E-02 
  0
LINE
  8
0
 10
 1.00244867800673 
 20
-7.50897886147361E-02 
 11
-3.7544894307368E-03 
 21
 0 
  0
LINE
  8
0
 10
-3.7544894307368E-03 
 20
 0 
 11
 0 
 21
 0 
  0
ENDSEC
  0
EOF
