  0
SECTION
  2
ENTITIES
  0
LINE
  8
0
 10
 .521874030872416 
 20
 .623245245502309 
 11
 .476820157703574 
 21
 .668299118671151 
  0
LINE
  8
0
 10
 .476820157703574 
 20
 .668299118671151 
 11
 .334149559335576 
 21
 .668299118671151 
  0
LINE
  8
0
 10
 .334149559335576 
 20
 .668299118671151 
 11
 .289095686166734 
 21
 .623245245502309 
  0
LINE
  8
0
 10
 .289095686166734 
 20
 .623245245502309 
 11
 .289095686166734 
 21
 .529383009733889 
  0
LINE
  8
0
 10
 .289095686166734 
 20
 .529383009733889 
 11
 .334149559335576 
 21
 .484329136565048 
  0
LINE
  8
0
 10
 .334149559335576 
 20
 .484329136565048 
 11
 .476820157703574 
 21
 .484329136565048 
  0
LINE
  8
0
 10
 .476820157703574 
 20
 .484329136565048 
 11
 .521874030872416 
 21
 .435520773965469 
  0
LINE
  8
0
 10
 .521874030872416 
 20
 .435520773965469 
 11
 .521874030872416 
 21
 .341658538197049 
  0
LINE
  8
0
 10
 .521874030872416 
 20
 .341658538197049 
 11
 .476820157703574 
 21
 .296604665028208 
  0
LINE
  8
0
 10
 .476820157703574 
 20
 .296604665028208 
 11
 .334149559335576 
 21
 .296604665028208 
  0
LINE
  8
0
 10
 .334149559335576 
 20
 .296604665028208 
 11
 .289095686166734 
 21
 .341658538197049 
  0
LINE
  8
0
 10
 .664544629240414 
 20
 .668299118671151 
 11
 .897322973946096 
 21
 .668299118671151 
  0
LINE
  8
0
 10
 .897322973946096 
 20
 .668299118671151 
 11
 .758406865008834 
 21
 .668299118671151 
  0
LINE
  8
0
 10
 .758406865008834 
 20
 .668299118671151 
 11
 .758406865008834 
 21
 .296604665028208 
  0
LINE
  8
0
 10
 1.27277191701978 
 20
 .668299118671151 
 11
 1.0399935723141 
 21
 .668299118671151 
  0
LINE
  8
0
 10
 1.0399935723141 
 20
 .668299118671151 
 11
 1.0399935723141 
 21
 .484329136565048 
  0
LINE
  8
0
 10
 1.0399935723141 
 20
 .484329136565048 
 11
 1.22771804385094 
 21
 .484329136565048 
  0
LINE
  8
0
 10
 1.22771804385094 
 20
 .484329136565048 
 11
 1.0399935723141 
 21
 .484329136565048 
  0
LINE
  8
0
 10
 1.0399935723141 
 20
 .484329136565048 
 11
 1.0399935723141 
 21
 .296604665028208 
  0
LINE
  8
0
 10
 1.0399935723141 
 20
 .296604665028208 
 11
 1.27277191701978 
 21
 .296604665028208 
  0
LINE
  8
0
 10
 1.41168802595704 
 20
 .296604665028208 
 11
 1.41168802595704 
 21
 .668299118671151 
  0
LINE
  8
0
 10
 1.41168802595704 
 20
 .668299118671151 
 11
 1.50555026172546 
 21
 .296604665028208 
  0
LINE
  8
0
 10
 1.50555026172546 
 20
 .296604665028208 
 11
 1.59941249749388 
 21
 .668299118671151 
  0
LINE
  8
0
 10
 1.59941249749388 
 20
 .668299118671151 
 11
 1.59941249749388 
 21
 .296604665028208 
  0
LINE
  8
0
 10
 3.7544894307368E-03 
 20
 0 
 11
 3.7544894307368E-03 
 21
 11.7515519182062 
  0
LINE
  8
0
 10
 3.7544894307368E-03 
 20
 11.7515519182062 
 11
 0 
 21
 17.8488427537228 
  0
LINE
  8
0
 10
 0 
 20
 17.8488427537228 
 11
 0 
 21
 24.107576634761 
  0
LINE
  8
0
 10
 0 
 20
 24.107576634761 
 11
 7.50897886147361E-03 
 21
 28.1624252199568 
  0
LINE
  8
0
 10
 7.50897886147361E-03 
 20
 28.1624252199568 
 11
 0 
 21
 30.7342504800115 
  0
LINE
  8
0
 10
 0 
 20
 30.7342504800115 
 11
 3.7544894307368E-03 
 21
 33.5501175530641 
  0
LINE
  8
0
 10
 3.7544894307368E-03 
 20
 33.5501175530641 
 11
 3.7544894307368E-03 
 21
 42.238006095789 
  0
LINE
  8
0
 10
 3.7544894307368E-03 
 20
 42.238006095789 
 11
-7.50897886147361E-03 
 21
 42.238006095789 
  0
LINE
  8
0
 10
-7.50897886147361E-03 
 20
 42.238006095789 
 11
-7.50897886147361E-03 
 21
 33.5501175530641 
  0
LINE
  8
0
 10
-7.50897886147361E-03 
 20
 33.5501175530641 
 11
-3.7544894307368E-03 
 21
 30.7342504800115 
  0
LINE
  8
0
 10
-3.7544894307368E-03 
 20
 30.7342504800115 
 11
-1.12634682922104E-02 
 21
 28.1624252199568 
  0
LINE
  8
0
 10
-1.12634682922104E-02 
 20
 28.1624252199568 
 11
-3.7544894307368E-03 
 21
 24.107576634761 
  0
LINE
  8
0
 10
-3.7544894307368E-03 
 20
 24.107576634761 
 11
-3.7544894307368E-03 
 21
 17.8488427537228 
  0
LINE
  8
0
 10
-3.7544894307368E-03 
 20
 17.8488427537228 
 11
-7.50897886147361E-03 
 21
 11.7515519182062 
  0
LINE
  8
0
 10
-7.50897886147361E-03 
 20
 11.7515519182062 
 11
-7.50897886147361E-03 
 21
 0 
  0
LINE
  8
0
 10
-7.50897886147361E-03 
 20
 0 
 11
 3.7544894307368E-03 
 21
 0 
  0
ENDSEC
  0
EOF
