*
G04 Mass Parameters ***
*
G04 Image ***
*
%INC:\MY VEHICLE RFID FILES\VEHICLE ORCAD FILES\PRODUCTION MODEL MAY 19 2008\BOARD\PM_05_19_08V3.SMB*%
%ICAS*%
%MOIN*%
%IPPOS*%
%ASAXBY*%
G74*%FSLAN2X34Y34*%
*
G04 Aperture Definitions ***
*
%ADD10C,0.0750*%
%ADD11C,0.0850*%
%ADD12C,0.0780*%
%ADD13C,0.1200*%
%ADD14R,0.0750X0.0750*%
%ADD15R,0.0780X0.0780*%
%ADD16C,0.0200*%
%ADD17C,0.0160*%
%ADD18C,0.0240*%
%ADD19C,0.0480*%
%ADD20C,0.0100*%
%ADD21C,0.1400*%
%ADD22C,0.0500*%
%ADD23C,0.1050*%
%ADD24C,0.0080*%
%ADD25R,0.0630X0.0630*%
%ADD26R,0.0620X0.0620*%
%ADD27R,0.0910X0.0910*%
%ADD28C,0.0630*%
%ADD29C,0.0580*%
%ADD30R,0.0580X0.0580*%
%ADD31C,0.0520*%
%ADD32C,0.0120*%
%ADD33C,0.0050*%
%ADD34C,0.0620*%
%ADD35C,0.0450*%
%ADD36R,0.0450X0.0450*%
%ADD37R,0.0610X0.0610*%
%ADD38C,0.0610*%
%ADD39R,0.0500X0.0500*%
%ADD40C,0.2000*%
%ADD41C,0.0670*%
%ADD42C,0.0680*%
*
G04 Plot Data ***
*
G54D11*
X0008000Y0017700D03*
X0007000D03*
X0038000Y0026000D03*
X0037000D03*
X0036000D03*
X0035000D03*
X0034000D03*
X0033000D03*
X0032000D03*
X0031000D03*
X0030000D03*
X0029000D03*
X0028000D03*
X0027000D03*
X0026000D03*
X0025000D03*
X0024000D03*
X0023000D03*
X0022000D03*
X0021000D03*
X0020000D03*
Y0020000D03*
X0021000D03*
X0022000D03*
X0023000D03*
X0024000D03*
X0025000D03*
X0026000D03*
X0027000D03*
X0028000D03*
X0029000D03*
X0030000D03*
X0031000D03*
X0032000D03*
X0033000D03*
X0034000D03*
X0035000D03*
X0036000D03*
X0037000D03*
X0038000D03*
X0039000D03*
X0027900Y0016600D03*
X0029200D03*
X0020500Y0035700D03*
X0025000D03*
X0012200Y0017700D03*
X0011200D03*
X0016400Y0031500D03*
X0015400D03*
X0005500Y0027750D03*
Y0026750D03*
Y0025750D03*
Y0024750D03*
X0032750Y0015500D03*
X0031750D03*
X0030750D03*
X0043050Y0030450D03*
Y0029360D03*
Y0028270D03*
Y0027180D03*
Y0026090D03*
Y0025000D03*
Y0023910D03*
Y0022820D03*
Y0021730D03*
Y0020640D03*
Y0019550D03*
Y0018460D03*
Y0017370D03*
X0044170Y0029905D03*
Y0028815D03*
Y0027725D03*
Y0026635D03*
Y0025545D03*
Y0024455D03*
Y0023365D03*
Y0022275D03*
Y0021185D03*
Y0020095D03*
Y0019005D03*
Y0017915D03*
G54D12*
X0010500Y0022500D03*
X0009500D03*
X0008500D03*
X0007500D03*
X0006500D03*
X0005500D03*
Y0019500D03*
X0006500D03*
X0007500D03*
X0008500D03*
X0009500D03*
X0010500D03*
X0011500D03*
G54D13*
X0043610Y0014650D03*
Y0033170D03*
G54D14*
X0005500Y0028750D03*
X0033750Y0015500D03*
G54D15*
X0009000Y0017700D03*
X0039000Y0026000D03*
X0013200Y0017700D03*
X0017400Y0031500D03*
G54D21*
X0016400Y0025000D03*
X0012250Y0011000D03*
X0008000D03*
G54D28*
X0023000Y0012500D03*
Y0016437D03*
G54D30*
X0011500Y0022500D03*
G54D31*
X0024300Y0028300D03*
X0026300D03*
X0010400Y0035800D03*
Y0031300D03*
X0011750Y0029500D03*
Y0025000D03*
X0038000Y0033000D03*
Y0028500D03*
X0031900Y0034000D03*
Y0029500D03*
X0030500Y0034000D03*
Y0029500D03*
X0009500Y0025000D03*
Y0029500D03*
X0002750Y0024550D03*
X-0001750D03*
Y0020550D03*
X0002750D03*
X0019700Y0034200D03*
Y0029700D03*
X0013250Y0025000D03*
Y0029500D03*
X0036000Y0028500D03*
Y0033000D03*
X0008000Y0025000D03*
Y0029500D03*
X0022700Y0034200D03*
Y0029700D03*
X0021200Y0034200D03*
Y0029700D03*
X0033300Y0034000D03*
Y0029500D03*
X0034400Y0035600D03*
X0033400D03*
X0001700Y0018800D03*
X0002700D03*
X0018250Y0016500D03*
Y0015500D03*
X0026200Y0031400D03*
Y0032400D03*
X0024400Y0031400D03*
Y0032400D03*
X0028000Y0029000D03*
X0029000D03*
G54D35*
X0034500Y0032900D03*
X0017000Y0018250D03*
X-0002100Y0022000D03*
Y0023200D03*
G54D36*
X0034500Y0028900D03*
X0017000Y0014250D03*
X0001900Y0022000D03*
Y0023200D03*
G54D37*
X0008750Y0031500D03*
X0026550Y0035700D03*
X0015500Y0014250D03*
G54D38*
X0008750Y0035750D03*
X0030800Y0035700D03*
X0015500Y0018500D03*
G54D39*
X0035200Y0011200D03*
X0035700Y0010700D03*
X0006100Y0037000D03*
X0006600Y0036500D03*
G54D40*
X0037300Y0012840D03*
Y0034860D03*
X0004300Y0012840D03*
X0004360Y0034860D03*
G54D41*
X0000600Y0028850D03*
Y0026850D03*
G54D42*
Y0027850D03*
M02*
