*
G04 Mass Parameters ***
*
G04 Image ***
*
%INC:\MY VEHICLE RFID FILES\VEHICLE ORCAD FILES\PRODUCTION MODEL MAY 19 2008\BOARD\PM_05_19_08V3.TOP*%
%ICAS*%
%MOIN*%
%IPPOS*%
%ASAXBY*%
G74*%FSLAN2X34Y34*%
*
G04 Aperture Definitions ***
*
%ADD10C,0.0750*%
%ADD11C,0.0850*%
%ADD12C,0.0780*%
%ADD13C,0.1200*%
%ADD14R,0.0750X0.0750*%
%ADD15R,0.0780X0.0780*%
%ADD16C,0.0200*%
%ADD17C,0.0160*%
%ADD18C,0.0240*%
%ADD19C,0.0480*%
%ADD20C,0.0100*%
%ADD21C,0.1400*%
%ADD22C,0.0500*%
%ADD23C,0.1050*%
%ADD24C,0.0080*%
%ADD25R,0.0630X0.0630*%
%ADD26R,0.0620X0.0620*%
%ADD27R,0.0910X0.0910*%
%ADD28C,0.0630*%
%ADD29C,0.0580*%
%ADD30R,0.0580X0.0580*%
%ADD31C,0.0520*%
%ADD32C,0.0120*%
%ADD33C,0.0050*%
%ADD34C,0.0620*%
%ADD35C,0.0450*%
%ADD36R,0.0450X0.0450*%
%ADD37R,0.0610X0.0610*%
%ADD38C,0.0610*%
%ADD39R,0.0500X0.0500*%
%ADD40C,0.2000*%
%ADD41C,0.0670*%
%ADD42C,0.0680*%
*
G04 Plot Data ***
*
G54D18*
G01X0043050Y0026090D02*
X0042300D01*
X0040900Y0024650D01*
X0029650D01*
X0029000Y0025300D01*
Y0026000D01*
X0030750Y0015500D02*
Y0016900D01*
X0031050Y0017200D01*
Y0019950D01*
X0031000Y0020000D01*
X0024400Y0032400D02*
Y0033400D01*
X0026200D01*
Y0032400D01*
X0028000Y0029000D02*
Y0032000D01*
X0034500D01*
Y0032900D01*
X0010400Y0031300D02*
Y0033400D01*
X0019700D01*
Y0034200D01*
X0043050Y0030450D02*
X0041950D01*
X0040400Y0032000D01*
X0038000D01*
Y0033000D01*
X0034500Y0032900D02*
Y0032000D01*
X0038000D01*
Y0033000D01*
X0034400Y0035600D02*
X0035000D01*
X0035200Y0035400D01*
Y0032000D01*
X0038000D01*
Y0033000D01*
X0019700Y0034200D02*
Y0033400D01*
X0024400D01*
Y0032400D01*
X0026200D02*
Y0033400D01*
X0027550D01*
X0028000Y0032950D01*
Y0029000D01*
X0000600Y0027850D02*
X-0000450D01*
X-0000900Y0027400D01*
Y0024550D01*
X-0001750D01*
X-0002100Y0023200D02*
X-0000900D01*
Y0024500D01*
X-0001700D01*
X-0001750Y0024550D01*
X0006500Y0019500D02*
Y0021000D01*
X0005600D01*
X0005500Y0021100D01*
Y0022500D01*
X-0001750Y0020550D02*
X-0000900D01*
Y0018750D01*
X-0000850D01*
X-0000800Y0018800D01*
X0001700D01*
X0010500Y0019500D02*
Y0021000D01*
X0015950D01*
X0017000Y0019950D01*
Y0018250D01*
X0010500Y0019500D02*
Y0021000D01*
X0014450D01*
Y0013600D01*
X0015550Y0012500D01*
X0023000D01*
X0008000Y0017700D02*
Y0017050D01*
X0007500Y0016550D01*
X0000700D01*
X-0000900Y0018150D01*
Y0020550D01*
X-0001750D01*
X0005500Y0027750D02*
X0005450Y0027700D01*
X0003650D01*
Y0025800D01*
X-0000900D01*
Y0024550D01*
X-0001750D01*
X0010400Y0031300D02*
Y0033400D01*
X0008450D01*
X0003650Y0028600D01*
Y0027700D01*
X0005450D01*
X0005500Y0027750D01*
X0020500Y0035700D02*
X0020550Y0035650D01*
X0023350D01*
X0023800Y0035200D01*
Y0033400D01*
X0024400D01*
Y0032400D01*
X0005500Y0022500D02*
Y0021100D01*
X0005600Y0021000D01*
X0004550D01*
X0003650Y0021900D01*
Y0025800D01*
X-0000900D01*
Y0024550D01*
X-0001750D01*
X-0002100Y0022000D02*
X-0000900D01*
Y0023200D01*
X-0002100D01*
X0007500Y0019500D02*
Y0021000D01*
X0008500D01*
Y0022500D01*
X0009500Y0019500D02*
Y0021000D01*
X0008500D01*
Y0022500D01*
X-0001750Y0020550D02*
X-0000900D01*
Y0022000D01*
X-0002100D01*
X0009500Y0019500D02*
Y0021000D01*
X0010500D01*
Y0019500D01*
X0007500Y0022500D02*
Y0019500D01*
X0006500D02*
Y0021000D01*
X0007500D01*
Y0019500D01*
X0018250Y0016500D02*
X0017550D01*
X0017000Y0017050D01*
Y0018250D01*
X0010400Y0035800D02*
X0010350Y0035750D01*
X0008750D01*
X0005500Y0028750D02*
Y0029700D01*
X0007300Y0031500D01*
X0008750D01*
G54D24*
G01X0016437Y0035855D02*
X0016465Y0035911D01*
Y0035967D01*
X0016437Y0036022D01*
X0016270D01*
X0016243Y0035967D01*
Y0035911D01*
X0016270Y0035855D01*
X0016437D01*
X0016465Y0035800D01*
Y0035744D01*
X0016437Y0035689D01*
X0016270D01*
X0016243Y0035744D01*
Y0035800D01*
X0016270Y0035855D01*
X0015916Y0035689D02*
X0015860Y0035744D01*
X0015833Y0035800D01*
Y0035911D01*
X0015860Y0035967D01*
X0015916Y0036022D01*
X0015972D01*
X0015971D02*
X0016027Y0035967D01*
X0016055Y0035911D01*
Y0035800D01*
X0016027Y0035744D01*
X0015972Y0035689D01*
X0015971D02*
X0015916D01*
X0015645Y0036022D02*
X0015478Y0035689D01*
X0015235Y0035855D02*
X0015068D01*
X0015040Y0035911D01*
Y0035967D01*
X0015068Y0036022D01*
X0015235D01*
X0015263Y0035967D01*
Y0035911D01*
X0015152Y0035689D01*
X0014853D02*
X0014742D01*
X0014797D02*
Y0036022D01*
X0014742Y0035967D01*
X0014498Y0036022D02*
X0014332Y0035689D01*
X0013894Y0035744D02*
X0013922Y0035689D01*
X0014088D01*
X0014116Y0035744D01*
Y0035855D01*
X0014061Y0035911D01*
X0013894D01*
Y0036022D01*
X0014116D01*
X0013567Y0035689D02*
X0013512Y0035744D01*
X0013484Y0035800D01*
Y0035911D01*
X0013512Y0035967D01*
X0013567Y0036022D01*
X0013623D01*
X0013678Y0035967D01*
X0013706Y0035911D01*
Y0035800D01*
X0013678Y0035744D01*
X0013623Y0035689D01*
X0013567D01*
X0013296Y0035855D02*
X0013074D01*
X0012886Y0035689D02*
Y0036022D01*
X0012831Y0035967D01*
X0012775Y0035855D01*
X0012720Y0035967D01*
X0012719D02*
X0012664Y0036022D01*
Y0035689D01*
X0012254Y0035855D02*
X0012421D01*
X0012476Y0035911D01*
Y0035967D01*
X0012421Y0036022D01*
X0012254D01*
Y0035689D01*
X0016068Y0036631D02*
X0015902D01*
X0015874Y0036575D01*
X0015902Y0036520D01*
X0016068D01*
X0016096Y0036464D01*
X0016068Y0036409D01*
X0015902D01*
X0015686Y0036631D02*
X0015575D01*
X0015547Y0036575D01*
X0015492D01*
Y0036631D02*
Y0036409D01*
X0015276D02*
X0015110D01*
X0015082Y0036464D01*
Y0036575D01*
X0015110Y0036631D01*
X0015276D01*
X0015304Y0036575D01*
Y0036520D01*
X0015082D01*
X0014866Y0036631D02*
X0014700D01*
X0014894Y0036409D02*
X0014783D01*
X0014755Y0036464D01*
Y0036742D01*
X0014484Y0036631D02*
X0014317D01*
X0014290Y0036575D01*
X0014317Y0036520D01*
X0014484D01*
X0014512Y0036464D01*
X0014484Y0036409D01*
X0014317D01*
X0014074Y0036631D02*
Y0036409D01*
X0014102D02*
X0013907D01*
X0013880Y0036464D01*
Y0036631D01*
X0013497Y0036409D02*
Y0036742D01*
X0013470Y0036409D02*
X0013636D01*
X0013692Y0036464D01*
Y0036520D01*
X0013664Y0036575D01*
X0013497D02*
X0013664D01*
X0013692Y0036631D01*
Y0036687D01*
X0013636Y0036742D01*
X0013470D01*
X0013282Y0036631D02*
X0013171Y0036409D01*
X0013115Y0036298D02*
X0013171Y0036409D01*
X0013060Y0036631D01*
X0012844Y0036409D02*
X0012677D01*
X0012650Y0036464D01*
Y0036575D01*
X0012677Y0036631D01*
X0012844D01*
X0012872Y0036575D01*
Y0036520D01*
X0012650D01*
X0012462Y0036409D02*
X0012295Y0036575D01*
X0012462Y0036742D01*
X0012240D02*
Y0036409D01*
X0017245Y0035039D02*
X0017189Y0035094D01*
X0017161Y0035150D01*
Y0035261D01*
X0017189Y0035317D01*
X0017245Y0035372D01*
X0017300D01*
X0017356Y0035317D01*
X0017384Y0035261D01*
Y0035150D01*
X0017356Y0035094D01*
X0017300Y0035039D01*
X0017245D01*
X0016835D02*
X0016779Y0035094D01*
X0016751Y0035150D01*
Y0035261D01*
X0016779Y0035317D01*
X0016835Y0035372D01*
X0016890D01*
X0016946Y0035317D01*
X0016974Y0035261D01*
Y0035150D01*
X0016946Y0035094D01*
X0016890Y0035039D01*
X0016835D01*
X0016341Y0035094D02*
X0016369Y0035039D01*
X0016536D01*
X0016564Y0035094D01*
Y0035205D01*
X0016508Y0035261D01*
X0016341D01*
Y0035372D01*
X0016564D01*
X0016154Y0035039D02*
X0015931D01*
X0016154Y0035261D01*
Y0035317D01*
X0016126Y0035372D01*
X0015959D01*
X0015931Y0035317D01*
X0015744Y0035205D02*
X0015521D01*
X0015334Y0035039D02*
Y0035372D01*
X0015278Y0035317D01*
X0015222Y0035205D01*
X0015167Y0035317D01*
X0015111Y0035372D01*
Y0035039D01*
X0014924Y0035372D02*
Y0035261D01*
X0014812Y0035039D01*
X0014701Y0035261D01*
Y0035372D01*
X0013979Y0035039D02*
X0013868D01*
X0013923D02*
Y0035372D01*
X0013868D01*
X0013624Y0035039D02*
X0013458D01*
X0013430Y0035094D01*
Y0035205D01*
X0013458Y0035261D01*
X0013624D01*
X0013652Y0035205D01*
Y0035150D01*
X0013430D01*
X0013242Y0035372D02*
Y0035039D01*
X0013075D01*
X0013048Y0035094D01*
Y0035205D01*
X0013075Y0035261D01*
X0013242D01*
X0012665Y0035039D02*
X0012638Y0035094D01*
Y0035205D01*
X0012665Y0035261D01*
X0012832D01*
X0012860Y0035205D01*
Y0035094D01*
X0012832Y0035039D01*
X0012665D01*
X0012450D02*
Y0035372D01*
X0012394Y0035317D01*
X0012339Y0035205D01*
X0012283Y0035317D01*
X0012228Y0035372D01*
Y0035039D01*
G54D32*
G01X0008000Y0025000D02*
Y0024250D01*
X0008800Y0023450D01*
X0010100D01*
X0010500Y0023050D01*
Y0022500D01*
X0043050Y0027180D02*
X0039930D01*
X0039650Y0026900D01*
X0022300D01*
X0022000Y0026600D01*
Y0026000D01*
X0044170Y0019005D02*
X0044745D01*
X0045000Y0018750D01*
Y0016800D01*
X0044550Y0016350D01*
X0039600D01*
X0038000Y0017950D01*
Y0020000D01*
X0009500Y0022500D02*
Y0021800D01*
X0009850Y0021450D01*
X0016700D01*
X0023550Y0014600D01*
X0034250D01*
X0034550Y0014900D01*
Y0016300D01*
X0032000Y0018850D01*
Y0020000D01*
X0036000D02*
Y0018250D01*
X0038500Y0015750D01*
X0045200D01*
X0045600Y0016150D01*
Y0020700D01*
X0045115Y0021185D01*
X0044170D01*
X0039000Y0020000D02*
Y0017750D01*
X0040100Y0016650D01*
X0043800D01*
X0044170Y0017020D01*
Y0017915D01*
X0011500Y0022500D02*
Y0023800D01*
X0010300Y0025000D01*
X0009500D01*
X0033000Y0020000D02*
Y0020950D01*
X0033600Y0021550D01*
X0040300D01*
X0042300Y0019550D01*
X0043050D01*
X0035000Y0020000D02*
Y0020650D01*
X0035300Y0020950D01*
X0039400D01*
X0042980Y0017370D01*
X0043050D01*
Y0023910D02*
X0042000D01*
X0041450Y0023350D01*
X0023150D01*
X0021000Y0021200D01*
Y0020000D01*
X0043050Y0025000D02*
X0042300D01*
X0041050Y0023750D01*
X0022550D01*
X0020000Y0021200D01*
Y0020000D01*
X0033300Y0034000D02*
X0033200D01*
X0032100Y0035100D01*
Y0035700D01*
X0030800D01*
X0034000Y0020000D02*
Y0020850D01*
X0034400Y0021250D01*
X0039950D01*
X0042200Y0019000D01*
X0042700Y0018460D01*
X0043050D01*
Y0028270D02*
X0043020Y0028300D01*
X0040350D01*
X0039250Y0027200D01*
X0021400D01*
X0021000Y0026800D01*
Y0026000D01*
X0030500Y0034000D02*
X0026000D01*
X0025000Y0035000D01*
Y0035700D01*
X0026550D02*
X0026500Y0035650D01*
Y0035100D01*
X0026800Y0034800D01*
X0031600D01*
X0031900Y0034500D01*
Y0034000D01*
X0043050Y0021730D02*
X0040980D01*
X0040600Y0022150D01*
X0030150D01*
X0029000Y0021000D01*
Y0020000D01*
X0005500Y0025750D02*
X0006400D01*
X0007950Y0027300D01*
Y0029450D01*
X0008000Y0029500D01*
X0043050Y0029360D02*
X0040460D01*
X0038600Y0027500D01*
X0020700D01*
X0020000Y0026800D01*
Y0026000D01*
X0043050Y0020640D02*
X0041650D01*
X0040450Y0021850D01*
X0032800D01*
X0032000Y0021050D01*
Y0020000D01*
X0037000D02*
Y0018050D01*
X0039000Y0016050D01*
X0044850D01*
X0045300Y0016500D01*
Y0019650D01*
X0044855Y0020095D01*
X0044170D01*
X0043050Y0022820D02*
X0043022Y0022850D01*
X0041800D01*
X0041400Y0022450D01*
X0029400D01*
X0028000Y0021050D01*
Y0020000D01*
X0033400Y0035600D02*
X0033300Y0035700D01*
X0030800D01*
X0005500Y0024750D02*
X0007050D01*
X0009500Y0027200D01*
Y0029500D01*
G54D11*
X0008000Y0017700D03*
X0007000D03*
X0038000Y0026000D03*
X0037000D03*
X0036000D03*
X0035000D03*
X0034000D03*
X0033000D03*
X0032000D03*
X0031000D03*
X0030000D03*
X0029000D03*
X0028000D03*
X0027000D03*
X0026000D03*
X0025000D03*
X0024000D03*
X0023000D03*
X0022000D03*
X0021000D03*
X0020000D03*
Y0020000D03*
X0021000D03*
X0022000D03*
X0023000D03*
X0024000D03*
X0025000D03*
X0026000D03*
X0027000D03*
X0028000D03*
X0029000D03*
X0030000D03*
X0031000D03*
X0032000D03*
X0033000D03*
X0034000D03*
X0035000D03*
X0036000D03*
X0037000D03*
X0038000D03*
X0039000D03*
X0027900Y0016600D03*
X0029200D03*
X0020500Y0035700D03*
X0025000D03*
X0012200Y0017700D03*
X0011200D03*
X0016400Y0031500D03*
X0015400D03*
X0005500Y0027750D03*
Y0026750D03*
Y0025750D03*
Y0024750D03*
X0032750Y0015500D03*
X0031750D03*
X0030750D03*
X0043050Y0030450D03*
Y0029360D03*
Y0028270D03*
Y0027180D03*
Y0026090D03*
Y0025000D03*
Y0023910D03*
Y0022820D03*
Y0021730D03*
Y0020640D03*
Y0019550D03*
Y0018460D03*
Y0017370D03*
X0044170Y0029905D03*
Y0028815D03*
Y0027725D03*
Y0026635D03*
Y0025545D03*
Y0024455D03*
Y0023365D03*
Y0022275D03*
Y0021185D03*
Y0020095D03*
Y0019005D03*
Y0017915D03*
G54D12*
X0010500Y0022500D03*
X0009500D03*
X0008500D03*
X0007500D03*
X0006500D03*
X0005500D03*
Y0019500D03*
X0006500D03*
X0007500D03*
X0008500D03*
X0009500D03*
X0010500D03*
X0011500D03*
G54D13*
X0043610Y0014650D03*
Y0033170D03*
G54D14*
X0005500Y0028750D03*
X0033750Y0015500D03*
G54D15*
X0009000Y0017700D03*
X0039000Y0026000D03*
X0013200Y0017700D03*
X0017400Y0031500D03*
G54D21*
X0016400Y0025000D03*
X0012250Y0011000D03*
X0008000D03*
G54D25*
X0000600Y0027850D03*
G54D28*
X0023000Y0012500D03*
Y0016437D03*
G54D30*
X0011500Y0022500D03*
G54D31*
X0024300Y0028300D03*
X0026300D03*
X0010400Y0035800D03*
Y0031300D03*
X0011750Y0029500D03*
Y0025000D03*
X0038000Y0033000D03*
Y0028500D03*
X0031900Y0034000D03*
Y0029500D03*
X0030500Y0034000D03*
Y0029500D03*
X0009500Y0025000D03*
Y0029500D03*
X0002750Y0024550D03*
X-0001750D03*
Y0020550D03*
X0002750D03*
X0019700Y0034200D03*
Y0029700D03*
X0013250Y0025000D03*
Y0029500D03*
X0036000Y0028500D03*
Y0033000D03*
X0008000Y0025000D03*
Y0029500D03*
X0022700Y0034200D03*
Y0029700D03*
X0021200Y0034200D03*
Y0029700D03*
X0033300Y0034000D03*
Y0029500D03*
X0034400Y0035600D03*
X0033400D03*
X0001700Y0018800D03*
X0002700D03*
X0018250Y0016500D03*
Y0015500D03*
X0026200Y0031400D03*
Y0032400D03*
X0024400Y0031400D03*
Y0032400D03*
X0028000Y0029000D03*
X0029000D03*
G54D34*
X0000600Y0028850D03*
Y0026850D03*
G54D35*
X0034500Y0032900D03*
X0017000Y0018250D03*
X-0002100Y0022000D03*
Y0023200D03*
G54D36*
X0034500Y0028900D03*
X0017000Y0014250D03*
X0001900Y0022000D03*
Y0023200D03*
G54D37*
X0008750Y0031500D03*
X0026550Y0035700D03*
X0015500Y0014250D03*
G54D38*
X0008750Y0035750D03*
X0030800Y0035700D03*
X0015500Y0018500D03*
G54D39*
X0035200Y0011200D03*
X0035700Y0010700D03*
X0006100Y0037000D03*
X0006600Y0036500D03*
G54D40*
X0037300Y0012840D03*
Y0034860D03*
X0004300Y0012840D03*
X0004360Y0034860D03*
M02*
