*
G04 Mass Parameters ***
*
G04 Image ***
*
%INC:\MY VEHICLE RFID FILES\VEHICLE ORCAD FILES\PRODUCTION MODEL MAY 19 2008\BOARD\PM_05_19_08V3.SST*%
%ICAS*%
%MOIN*%
%IPPOS*%
%ASAXBY*%
G74*%FSLAN2X34Y34*%
*
G04 Aperture Definitions ***
*
%ADD10C,0.0750*%
%ADD11C,0.0850*%
%ADD12C,0.0780*%
%ADD13C,0.1200*%
%ADD14R,0.0750X0.0750*%
%ADD15R,0.0780X0.0780*%
%ADD16C,0.0200*%
%ADD17C,0.0160*%
%ADD18C,0.0240*%
%ADD19C,0.0480*%
%ADD20C,0.0100*%
%ADD21C,0.1400*%
%ADD22C,0.0500*%
%ADD23C,0.1050*%
%ADD24C,0.0080*%
%ADD25R,0.0630X0.0630*%
%ADD26R,0.0620X0.0620*%
%ADD27R,0.0910X0.0910*%
%ADD28C,0.0630*%
%ADD29C,0.0580*%
%ADD30R,0.0580X0.0580*%
%ADD31C,0.0520*%
%ADD32C,0.0120*%
%ADD33C,0.0050*%
%ADD34C,0.0620*%
%ADD35C,0.0450*%
%ADD36R,0.0450X0.0450*%
%ADD37R,0.0610X0.0610*%
%ADD38C,0.0610*%
%ADD39R,0.0500X0.0500*%
%ADD40C,0.2000*%
%ADD41C,0.0670*%
%ADD42C,0.0680*%
*
G04 Plot Data ***
*
G54D20*
G01X0001100Y0029350D02*
X0000100D01*
Y0026350D01*
X0001100D01*
Y0029350D01*
G54D24*
G01X0021368Y0018181D02*
X0021257D01*
X0021312D02*
Y0018515D01*
X0021257Y0018459D01*
X0021013D02*
X0020985Y0018515D01*
X0020819D01*
X0020791Y0018459D01*
Y0018403D01*
X0020819Y0018348D01*
X0020985D01*
X0021013Y0018292D01*
Y0018237D01*
X0020985Y0018181D01*
X0020819D01*
X0020791Y0018237D01*
X0020603Y0018181D02*
X0020409D01*
Y0018515D01*
X0027845Y0017553D02*
X0027600D01*
X0027845Y0017797D01*
Y0017858D01*
X0027814Y0017919D01*
X0027631D01*
X0027600Y0017858D01*
X0027165Y0017736D02*
X0027349D01*
X0027410Y0017797D01*
Y0017858D01*
X0027349Y0017919D01*
X0027165D01*
Y0017553D01*
X0026853D02*
Y0017919D01*
X0026975D02*
X0026730D01*
X0023338Y0032358D02*
X0023283Y0032302D01*
Y0032191D01*
X0023338Y0032135D01*
X0023394D01*
X0023505Y0032247D01*
X0023616Y0032135D01*
Y0032358D01*
X0023449Y0032629D02*
X0023283Y0032545D01*
X0023449Y0032768D02*
Y0032601D01*
X0023505Y0032545D01*
X0023560D01*
X0023616Y0032601D01*
Y0032768D01*
X0023283D01*
X0026767Y0028749D02*
X0026711Y0028805D01*
X0026600D01*
X0026544Y0028749D01*
Y0028694D01*
X0026656Y0028583D01*
X0026544Y0028472D01*
X0026767D01*
X0026954Y0028749D02*
X0026982Y0028805D01*
X0027149D01*
X0027177Y0028749D01*
Y0028527D01*
X0027149Y0028472D01*
X0026982D01*
X0026954Y0028527D01*
X0002898Y0019483D02*
X0003064Y0019816D01*
X0002842D01*
X0002654Y0019538D02*
X0002627Y0019483D01*
X0002460D01*
X0002432Y0019538D01*
Y0019760D01*
X0002460Y0019816D01*
X0002627D01*
X0002654Y0019760D01*
X0036750Y0031267D02*
X0036695Y0031239D01*
Y0031072D01*
X0036750Y0031044D01*
X0036862D01*
X0036917Y0031100D01*
Y0031267D01*
X0037028D01*
Y0031044D01*
X0036862Y0031538D02*
X0036695Y0031454D01*
X0036862Y0031677D02*
Y0031510D01*
X0036917Y0031454D01*
X0036973D01*
X0037028Y0031510D01*
Y0031677D01*
X0036695D01*
X0017720Y0016140D02*
Y0016362D01*
X0017942Y0016140D01*
X0017998D01*
X0018053Y0016168D01*
Y0016335D01*
X0017998Y0016362D01*
X0017720Y0016550D02*
Y0016661D01*
Y0016606D02*
X0018053D01*
X0017998Y0016661D01*
X0017720Y0017099D02*
X0018053D01*
X0017720Y0017127D02*
Y0016960D01*
X0017831Y0016904D01*
X0017942D01*
X0018053Y0016960D01*
Y0017127D01*
X0010145Y0026729D02*
X0010200Y0026785D01*
X0010256Y0026812D01*
X0010367D01*
X0010423Y0026785D01*
X0010478Y0026729D01*
Y0026673D01*
Y0026674D02*
X0010423Y0026618D01*
X0010367Y0026590D01*
X0010256D01*
X0010200Y0026618D01*
X0010145Y0026673D01*
Y0026674D02*
Y0026729D01*
Y0027000D02*
Y0027111D01*
Y0027056D02*
X0010478D01*
X0010423Y0027111D01*
X0010312Y0027438D02*
X0010145Y0027354D01*
X0010312Y0027577D02*
Y0027410D01*
X0010367Y0027354D01*
X0010423D01*
X0010478Y0027410D01*
Y0027577D01*
X0010145D01*
X0035020Y0030423D02*
X0035075Y0030479D01*
X0035131Y0030507D01*
X0035242D01*
X0035298Y0030479D01*
X0035353Y0030423D01*
Y0030368D01*
X0035298Y0030312D01*
X0035242Y0030284D01*
X0035131D01*
X0035075Y0030312D01*
X0035020Y0030368D01*
Y0030423D01*
X0035075Y0030917D02*
X0035020Y0030861D01*
Y0030750D01*
X0035075Y0030694D01*
X0035131D01*
X0035242Y0030806D01*
X0035353Y0030694D01*
Y0030917D01*
X0035020Y0031299D02*
X0035353D01*
X0035020Y0031327D02*
Y0031160D01*
X0035131Y0031104D01*
X0035242D01*
X0035353Y0031160D01*
Y0031327D01*
X0025206Y0032094D02*
Y0032317D01*
X0025428Y0032206D01*
Y0032150D01*
X0025095D01*
X0025150Y0032504D02*
X0025095Y0032532D01*
Y0032699D01*
X0025150Y0032727D01*
X0025373D01*
X0025428Y0032699D01*
Y0032532D01*
X0025373Y0032504D01*
X0016387Y0016514D02*
Y0016347D01*
X0016331Y0016319D01*
X0016275D01*
X0016220Y0016347D01*
Y0016514D01*
X0016275Y0016542D01*
X0016331D01*
X0016553Y0016431D01*
X0016220Y0016924D02*
X0016553D01*
X0016220Y0016952D02*
Y0016785D01*
X0016331Y0016729D01*
X0016442D01*
X0016553Y0016785D01*
Y0016952D01*
X0014112Y0027339D02*
Y0027172D01*
X0014056Y0027144D01*
X0014000D01*
X0013945Y0027172D01*
Y0027339D01*
X0014000Y0027367D01*
X0014056D01*
X0014278Y0027256D01*
X0014112Y0027638D02*
X0013945Y0027554D01*
X0014112Y0027777D02*
Y0027610D01*
X0014167Y0027554D01*
X0014223D01*
X0014278Y0027610D01*
Y0027777D01*
X0013945D01*
X0002833Y0021875D02*
X0002861Y0021820D01*
X0003028D01*
X0003055Y0021875D01*
Y0021987D01*
X0003000Y0022042D01*
X0002833D01*
Y0022153D01*
X0003055D01*
X0002451Y0021820D02*
Y0022153D01*
X0002423Y0021820D02*
X0002590D01*
X0002645Y0021931D01*
Y0022042D01*
X0002590Y0022153D01*
X0002423D01*
X0001708Y0027422D02*
X0002041D01*
X0001708Y0027450D02*
Y0027284D01*
X0001819Y0027228D01*
X0001930D01*
X0002041Y0027284D01*
Y0027450D01*
X0001874Y0027694D02*
Y0027860D01*
X0001708Y0027638D02*
Y0027860D01*
X0002041D01*
Y0027638D01*
X0001708Y0028048D02*
Y0028242D01*
X0002041D01*
X0001874Y0028430D02*
Y0028652D01*
X0001708Y0028840D02*
Y0028951D01*
Y0028896D02*
X0002041D01*
Y0028840D02*
Y0028951D01*
X0001708Y0029389D02*
X0002041D01*
X0001708Y0029417D02*
Y0029250D01*
X0001763Y0029194D01*
X0001819D01*
X0001874Y0029222D01*
Y0029389D02*
Y0029222D01*
X0001930Y0029194D01*
X0001985D01*
X0002041Y0029250D01*
Y0029417D01*
X0005507Y0023312D02*
X0005340D01*
X0005312Y0023367D01*
Y0023423D01*
X0005340Y0023478D01*
X0005507D01*
X0005534Y0023423D01*
Y0023367D01*
X0005423Y0023145D01*
X0005124Y0023478D02*
Y0023200D01*
X0005097Y0023145D01*
X0004930D01*
X0004902Y0023200D01*
Y0023478D01*
X0020052Y0027287D02*
X0020079Y0027342D01*
Y0027398D01*
X0020052Y0027453D01*
X0019885D01*
X0019857Y0027398D01*
Y0027342D01*
X0019885Y0027287D01*
X0020052D01*
X0020079Y0027231D01*
Y0027175D01*
X0020052Y0027120D01*
X0019885D01*
X0019857Y0027175D01*
Y0027231D01*
X0019885Y0027287D01*
X0019669Y0027453D02*
Y0027175D01*
X0019642Y0027120D01*
X0019475D01*
X0019447Y0027175D01*
Y0027453D01*
X0009470Y0033298D02*
X0009525Y0033354D01*
X0009581Y0033382D01*
X0009692D01*
X0009748Y0033354D01*
X0009803Y0033298D01*
Y0033243D01*
X0009748Y0033187D01*
X0009692Y0033159D01*
X0009581D01*
X0009525Y0033187D01*
X0009470Y0033243D01*
Y0033298D01*
X0009581Y0033569D02*
Y0033792D01*
X0009803Y0033681D01*
Y0033625D01*
X0009470D01*
Y0034174D02*
X0009803D01*
X0009470Y0034202D02*
Y0034035D01*
X0009581Y0033979D01*
X0009692D01*
X0009803Y0034035D01*
Y0034202D01*
X0021783Y0032135D02*
Y0032358D01*
X0022005Y0032135D01*
X0022060D01*
X0022116Y0032163D01*
Y0032330D01*
X0022060Y0032358D01*
X0021949Y0032629D02*
X0021783Y0032545D01*
X0021949Y0032768D02*
Y0032601D01*
X0022005Y0032545D01*
X0022060D01*
X0022116Y0032601D01*
Y0032768D01*
X0021783D01*
X0020283Y0032302D02*
X0020616Y0032135D01*
Y0032358D01*
X0020449Y0032629D02*
X0020283Y0032545D01*
X0020449Y0032768D02*
Y0032601D01*
X0020505Y0032545D01*
X0020560D01*
X0020616Y0032601D01*
Y0032768D01*
X0020283D01*
X0006594Y0029602D02*
Y0029825D01*
X0006816Y0029713D01*
Y0029658D01*
X0006483D01*
X0006649Y0030235D02*
Y0030068D01*
X0006705Y0030012D01*
X0006760D01*
X0006816Y0030068D01*
Y0030235D01*
X0006483D01*
X0006594Y0030617D02*
X0006538D01*
X0006483Y0030589D01*
Y0030478D01*
X0006538Y0030450D01*
X0006816D01*
Y0030422D02*
Y0030533D01*
X0015452Y0032400D02*
X0015508Y0032345D01*
X0015619D01*
X0015674Y0032400D01*
Y0032456D01*
X0015563Y0032567D01*
X0015674Y0032678D01*
X0015452D01*
X0015153Y0032456D02*
X0015264Y0032345D01*
X0015042Y0032400D02*
X0015070Y0032345D01*
X0015181D01*
X0015209Y0032400D01*
X0015264Y0032456D01*
Y0032623D01*
X0015237Y0032678D01*
X0015070D01*
X0015042Y0032623D01*
Y0032400D01*
X0000287Y0021349D02*
X0000314Y0021405D01*
Y0021460D01*
X0000287Y0021516D01*
X0000120D01*
X0000092Y0021460D01*
Y0021405D01*
X0000120Y0021349D01*
X0000287D01*
X0000314Y0021294D01*
Y0021238D01*
X0000287Y0021183D01*
X0000120D01*
X0000092Y0021238D01*
Y0021294D01*
X0000120Y0021349D01*
X-0000179D02*
X-0000095Y0021183D01*
X-0000318Y0021349D02*
X-0000151D01*
X-0000095Y0021405D01*
Y0021460D01*
X-0000151Y0021516D01*
X-0000318D01*
Y0021183D01*
X0027000Y0032367D02*
X0026945Y0032339D01*
Y0032172D01*
X0027000Y0032144D01*
X0027112D01*
X0027167Y0032200D01*
Y0032367D01*
X0027278D01*
Y0032144D01*
X0027000Y0032554D02*
X0026945Y0032582D01*
Y0032749D01*
X0027000Y0032777D01*
X0027223D01*
X0027278Y0032749D01*
Y0032582D01*
X0027223Y0032554D01*
X0028988Y0036358D02*
X0028877D01*
X0028933D02*
Y0036691D01*
X0028877Y0036635D01*
X0028634Y0036358D02*
X0028523D01*
X0028578D02*
Y0036691D01*
X0028523Y0036635D01*
X0028085Y0036358D02*
Y0036691D01*
X0028057Y0036358D02*
X0028224D01*
X0028279Y0036469D01*
Y0036580D01*
X0028224Y0036691D01*
X0028057D01*
X0022619Y0036383D02*
X0022508D01*
X0022563D02*
Y0036716D01*
X0022508Y0036660D01*
X0022264Y0036716D02*
Y0036438D01*
X0022237Y0036383D01*
X0022153Y0036549D01*
Y0036605D02*
Y0036549D01*
X0022070Y0036383D01*
X0022042Y0036438D01*
Y0036716D01*
X0021854Y0036660D02*
X0021827Y0036716D01*
X0021660D01*
X0021632Y0036660D01*
Y0036605D01*
X0021660Y0036549D01*
X0021827D01*
X0021854Y0036494D01*
Y0036438D01*
X0021827Y0036383D01*
X0021660D01*
X0021632Y0036438D01*
X0000428Y0025312D02*
X0000261D01*
X0000233Y0025367D01*
Y0025423D01*
X0000261Y0025478D01*
X0000428D01*
X0000455Y0025423D01*
Y0025367D01*
X0000344Y0025145D01*
X-0000038Y0025312D02*
X0000045Y0025145D01*
X-0000177Y0025312D02*
X-0000010D01*
X0000045Y0025367D01*
Y0025423D01*
X-0000010Y0025478D01*
X-0000177D01*
Y0025145D01*
X0019099Y0016180D02*
Y0016013D01*
X0019044Y0015985D01*
X0018988D01*
X0018933Y0016013D01*
Y0016180D01*
X0018988Y0016208D01*
X0019044D01*
X0019266Y0016097D01*
X0018988Y0016395D02*
X0018933Y0016423D01*
Y0016590D01*
X0018988Y0016618D01*
X0019210D01*
X0019266Y0016590D01*
Y0016423D01*
X0019210Y0016395D01*
X0031133Y0031637D02*
Y0031748D01*
Y0031692D02*
X0031466D01*
X0031410Y0031748D01*
X0031133Y0031991D02*
Y0032102D01*
Y0032047D02*
X0031466D01*
X0031410Y0032102D01*
X0031299Y0032429D02*
X0031133Y0032345D01*
X0031299Y0032568D02*
Y0032401D01*
X0031355Y0032345D01*
X0031410D01*
X0031466Y0032401D01*
Y0032568D01*
X0031133D01*
X0007379Y0018545D02*
X0007156D01*
X0007379Y0018767D01*
Y0018823D01*
X0007351Y0018878D01*
X0007184D01*
X0007156Y0018823D01*
X0006969Y0018545D02*
X0006858D01*
X0006913D02*
Y0018878D01*
X0006858Y0018823D01*
X0006614Y0018878D02*
Y0018600D01*
X0006587Y0018545D01*
X0006420D01*
X0006392Y0018600D01*
Y0018878D01*
X0033678Y0036462D02*
X0033705Y0036517D01*
Y0036573D01*
X0033678Y0036628D01*
X0033511D01*
X0033483Y0036573D01*
Y0036517D01*
X0033511Y0036462D01*
X0033678D01*
X0033705Y0036406D01*
Y0036350D01*
X0033678Y0036295D01*
X0033511D01*
X0033483Y0036350D01*
Y0036406D01*
X0033511Y0036462D01*
X0033295Y0036350D02*
X0033268Y0036295D01*
X0033101D01*
X0033073Y0036350D01*
Y0036573D01*
X0033101Y0036628D01*
X0033268D01*
X0033295Y0036573D01*
X0032533Y0031581D02*
Y0031803D01*
X0032755Y0031581D01*
X0032810D01*
X0032866Y0031609D01*
Y0031776D01*
X0032810Y0031803D01*
X0032533Y0031991D02*
Y0032102D01*
Y0032047D02*
X0032866D01*
X0032810Y0032102D01*
X0032699Y0032429D02*
X0032533Y0032345D01*
X0032699Y0032568D02*
Y0032401D01*
X0032755Y0032345D01*
X0032810D01*
X0032866Y0032401D01*
Y0032568D01*
X0032533D01*
X0011083Y0033264D02*
X0011138Y0033320D01*
X0011194Y0033348D01*
X0011305D01*
X0011360Y0033320D01*
X0011416Y0033264D01*
Y0033209D01*
X0011360Y0033153D01*
X0011305Y0033125D01*
X0011194D01*
X0011138Y0033153D01*
X0011083Y0033209D01*
Y0033264D01*
X0011194Y0033535D02*
Y0033758D01*
X0011416Y0033647D01*
Y0033591D01*
X0011083D01*
X0011249Y0034029D02*
X0011083Y0033945D01*
X0011249Y0034168D02*
Y0034001D01*
X0011305Y0033945D01*
X0011360D01*
X0011416Y0034001D01*
Y0034168D01*
X0011083D01*
X0008756Y0026794D02*
Y0027017D01*
X0008978Y0026906D01*
Y0026850D01*
X0008645D01*
X0008812Y0027288D02*
X0008645Y0027204D01*
X0008812Y0027427D02*
Y0027260D01*
X0008867Y0027204D01*
X0008923D01*
X0008978Y0027260D01*
Y0027427D01*
X0008645D01*
X0040430Y0032861D02*
X0040764D01*
X0040430Y0032889D02*
Y0032722D01*
X0040486Y0032666D01*
X0040542D01*
X0040597Y0032694D01*
Y0032861D02*
Y0032694D01*
X0040653Y0032666D01*
X0040708D01*
X0040764Y0032722D01*
Y0032889D01*
Y0033076D02*
X0040486D01*
X0040430Y0033104D01*
Y0033271D01*
X0040486Y0033299D01*
X0040764D01*
X0040708Y0033486D02*
X0040764Y0033514D01*
Y0033681D01*
X0040708Y0033709D01*
X0040653D01*
X0040597Y0033681D01*
Y0033514D01*
X0040542Y0033486D01*
X0040486D01*
X0040430Y0033514D01*
Y0033681D01*
X0040486Y0033709D01*
X0040430Y0034091D02*
X0040764D01*
X0040430Y0034119D02*
Y0033952D01*
X0040542Y0033896D01*
X0040653D01*
X0040764Y0033952D01*
Y0034119D01*
X0038794Y0030881D02*
Y0031103D01*
X0039016Y0030992D01*
Y0030937D01*
X0038683D01*
Y0031291D02*
Y0031402D01*
Y0031347D02*
X0039016D01*
X0038960Y0031402D01*
X0038849Y0031729D02*
X0038683Y0031645D01*
X0038849Y0031868D02*
Y0031701D01*
X0038905Y0031645D01*
X0038960D01*
X0039016Y0031701D01*
Y0031868D01*
X0038683D01*
X0045568Y0033118D02*
X0045901D01*
Y0033007D02*
Y0033229D01*
X0045568Y0033417D02*
X0045734Y0033583D01*
X0045901Y0033417D01*
Y0033639D02*
X0045568D01*
X0045845Y0033827D02*
X0045901Y0033854D01*
Y0034021D01*
X0045845Y0034049D01*
X0045790D01*
X0045734Y0034021D01*
Y0033854D01*
X0045679Y0033827D01*
X0045623D01*
X0045568Y0033854D01*
Y0034021D01*
X0045623Y0034049D01*
X0042277Y0030465D02*
Y0030354D01*
Y0030410D02*
X0041944D01*
X0041999Y0030354D01*
X0044929Y0029583D02*
Y0029806D01*
X0045151Y0029695D01*
Y0029639D01*
X0044818D01*
Y0029993D02*
Y0030104D01*
Y0030049D02*
X0045151D01*
X0045095Y0030104D01*
X0042123Y0017306D02*
X0042067Y0017250D01*
Y0017139D01*
X0042123Y0017083D01*
X0042179D01*
X0042290Y0017195D01*
X0042401Y0017083D01*
Y0017306D01*
X0042067Y0017493D02*
Y0017604D01*
Y0017549D02*
X0042401D01*
X0042345Y0017604D01*
X0044873Y0017750D02*
X0044818Y0017722D01*
Y0017556D01*
X0044873Y0017528D01*
X0044984D01*
X0045040Y0017583D01*
Y0017750D01*
X0045151D01*
Y0017528D01*
X0044818Y0017938D02*
Y0018160D01*
X0045040Y0017938D01*
X0045095D01*
X0045151Y0017966D01*
Y0018132D01*
X0045095Y0018160D01*
X0032731Y0017295D02*
X0032620D01*
X0032675D02*
Y0017628D01*
X0032620Y0017573D01*
X0032154Y0017462D02*
X0032321D01*
X0032377Y0017517D01*
Y0017573D01*
X0032321Y0017628D01*
X0032154D01*
Y0017295D01*
X0031772Y0017406D02*
Y0017350D01*
X0031800Y0017295D01*
X0031911D01*
X0031939Y0017350D01*
Y0017628D01*
X0031967D02*
X0031855D01*
X0003055Y0023131D02*
X0002833D01*
X0002944Y0023353D01*
X0003000D01*
Y0023020D01*
X0002451D02*
Y0023353D01*
X0002423Y0023020D02*
X0002590D01*
X0002645Y0023131D01*
Y0023242D01*
X0002590Y0023353D01*
X0002423D01*
X0024759Y0028858D02*
X0024648D01*
X0024703D02*
Y0029191D01*
X0024648Y0029135D01*
X0024293Y0028858D02*
Y0029024D01*
X0024404Y0029191D02*
X0024321Y0029024D01*
X0024265D01*
X0024182Y0029191D01*
X0011252Y0018600D02*
X0011280Y0018545D01*
X0011447D01*
X0011474Y0018600D01*
Y0018712D01*
X0011419Y0018767D01*
X0011252D01*
Y0018878D01*
X0011474D01*
X0010953Y0018656D02*
X0011064Y0018545D01*
X0010842Y0018600D02*
X0010870Y0018545D01*
X0010981D01*
X0011009Y0018600D01*
X0011064Y0018656D01*
Y0018823D01*
X0011037Y0018878D01*
X0010870D01*
X0010842Y0018823D01*
Y0018600D01*
X0029634Y0017553D02*
X0029512D01*
X0029573D02*
Y0017919D01*
X0029512Y0017858D01*
X0029015Y0017736D02*
X0029199D01*
X0029260Y0017797D01*
Y0017858D01*
X0029199Y0017919D01*
X0029015D01*
Y0017553D01*
X0028703D02*
Y0017919D01*
X0028825D02*
X0028580D01*
X0012333Y0026825D02*
Y0027048D01*
X0012555Y0026825D01*
X0012610D01*
X0012666Y0026853D01*
Y0027020D01*
X0012610Y0027048D01*
X0012333Y0027235D02*
Y0027458D01*
X0012555Y0027235D01*
X0012610D01*
X0012666Y0027263D01*
Y0027430D01*
X0012610Y0027458D01*
X0012499Y0027729D02*
X0012333Y0027645D01*
X0012499Y0027868D02*
Y0027701D01*
X0012555Y0027645D01*
X0012610D01*
X0012666Y0027701D01*
Y0027868D01*
X0012333D01*
X0033933Y0031991D02*
Y0032102D01*
Y0032047D02*
X0034266D01*
X0034210Y0032102D01*
X0034099Y0032429D02*
X0033933Y0032345D01*
X0034099Y0032568D02*
Y0032401D01*
X0034155Y0032345D01*
X0034210D01*
X0034266Y0032401D01*
Y0032568D01*
X0033933D01*
X0001600Y0025100D02*
X0002000D01*
Y0024000D01*
X0001650D01*
X0001450Y0024200D01*
X-0000450D01*
X-0000650Y0024000D01*
X-0001000D01*
Y0025100D01*
X-0000650D01*
X-0000450Y0024900D01*
X0001400D01*
X0001600Y0025100D01*
X0002300Y0024550D02*
X0002050D01*
X-0001300D02*
X-0001050D01*
X0029950Y0032850D02*
Y0033250D01*
X0031050D01*
Y0032900D01*
X0030850Y0032700D01*
Y0030800D01*
X0031050Y0030600D01*
Y0030250D01*
X0029950D01*
Y0030600D01*
X0030150Y0030800D01*
Y0032650D01*
X0029950Y0032850D01*
X0030500Y0033550D02*
Y0033300D01*
Y0029950D02*
Y0030200D01*
X0031350Y0032850D02*
Y0033250D01*
X0032450D01*
Y0032900D01*
X0032250Y0032700D01*
Y0030800D01*
X0032450Y0030600D01*
Y0030250D01*
X0031350D01*
Y0030600D01*
X0031550Y0030800D01*
Y0032650D01*
X0031350Y0032850D01*
X0031900Y0033550D02*
Y0033300D01*
Y0029950D02*
Y0030200D01*
X0037450Y0031850D02*
Y0032250D01*
X0038550D01*
Y0031900D01*
X0038350Y0031700D01*
Y0029800D01*
X0038550Y0029600D01*
Y0029250D01*
X0037450D01*
Y0029600D01*
X0037650Y0029800D01*
Y0031650D01*
X0037450Y0031850D01*
X0038000Y0032550D02*
Y0032300D01*
Y0028950D02*
Y0029200D01*
X0011200Y0028350D02*
Y0028750D01*
X0012300D01*
Y0028400D01*
X0012100Y0028200D01*
Y0026300D01*
X0012300Y0026100D01*
Y0025750D01*
X0011200D01*
Y0026100D01*
X0011400Y0026300D01*
Y0028150D01*
X0011200Y0028350D01*
X0011750Y0029050D02*
Y0028800D01*
Y0025450D02*
Y0025700D01*
X0009850Y0034650D02*
Y0035050D01*
X0010950D01*
Y0034700D01*
X0010750Y0034500D01*
Y0032600D01*
X0010950Y0032400D01*
Y0032050D01*
X0009850D01*
Y0032400D01*
X0010050Y0032600D01*
Y0034450D01*
X0009850Y0034650D01*
X0010400Y0035350D02*
Y0035100D01*
Y0031750D02*
Y0032000D01*
X0034900Y0030000D02*
Y0031800D01*
X0034100D01*
Y0030000D01*
X0034900D01*
Y0030500D02*
X0034100D01*
X0034500Y0029350D02*
Y0030000D01*
Y0032450D02*
Y0031800D01*
X0015000Y0017375D02*
X0016000D01*
Y0015375D01*
X0015000D01*
Y0017375D01*
X0015500Y0014750D02*
Y0015375D01*
Y0017375D02*
Y0018000D01*
X0016000Y0015875D02*
X0015000D01*
X0012250Y0020000D02*
Y0020500D01*
Y0021500D01*
Y0022000D01*
X0004750D01*
Y0020000D01*
X0012250D01*
Y0020500D02*
X0012000D01*
Y0021500D01*
X0012250D01*
X0003200Y0018300D02*
Y0019300D01*
X0001200D01*
Y0018300D01*
X0003200D01*
X0008000Y0025450D02*
Y0025700D01*
X0008550Y0026150D02*
Y0025750D01*
X0007450D01*
Y0026100D01*
X0007650Y0026300D01*
Y0028200D01*
X0007450Y0028400D01*
Y0028750D01*
X0008550D01*
Y0028400D01*
X0008350Y0028200D01*
Y0026350D01*
X0008550Y0026150D01*
X0017400Y0015350D02*
Y0017150D01*
X0016600D01*
Y0015350D01*
X0017400D01*
Y0015850D02*
X0016600D01*
X0017000Y0014700D02*
Y0015350D01*
Y0017800D02*
Y0017150D01*
X0029500Y0028500D02*
Y0029500D01*
X0027500D01*
Y0028500D01*
X0029500D01*
X0024900Y0032900D02*
X0023900D01*
Y0030900D01*
X0024900D01*
Y0032900D01*
X0008250Y0034625D02*
X0009250D01*
Y0032625D01*
X0008250D01*
Y0034625D01*
X0008750Y0032000D02*
Y0032625D01*
X0021250Y0035200D02*
X0024250D01*
Y0035700D01*
Y0036200D01*
X0021250D01*
Y0035700D01*
Y0035200D01*
X0021000Y0035700D02*
X0021250D01*
X0026700Y0032900D02*
X0025700D01*
Y0030900D01*
X0026700D01*
Y0032900D01*
X0017750Y0015000D02*
X0018750D01*
Y0017000D01*
X0017750D01*
Y0015000D01*
X0008750Y0034625D02*
Y0035250D01*
X0009250Y0033125D02*
X0008250D01*
X0032900Y0036100D02*
Y0035100D01*
X0034900D01*
Y0036100D01*
X0032900D01*
X0000300Y0022400D02*
Y0021600D01*
X0001450Y0022000D02*
X0000800D01*
X0009500Y0025450D02*
Y0025700D01*
Y0029050D02*
Y0028800D01*
X0032750Y0032850D02*
Y0033250D01*
X0033850D01*
Y0032900D01*
X0033650Y0032700D01*
Y0030800D01*
X0033850Y0030600D01*
Y0030250D01*
X0032750D01*
Y0030600D01*
X0032950Y0030800D01*
Y0032650D01*
X0032750Y0032850D01*
X0033300Y0033550D02*
Y0033300D01*
Y0029950D02*
Y0030200D01*
X0020650Y0033050D02*
Y0033450D01*
X0021750D01*
Y0033100D01*
X0021550Y0032900D01*
Y0031000D01*
X0021750Y0030800D01*
Y0030450D01*
X0020650D01*
Y0030800D01*
X0020850Y0031000D01*
Y0032850D01*
X0020650Y0033050D01*
X0021200Y0033750D02*
Y0033500D01*
X0000800Y0023600D02*
X-0001000D01*
Y0022800D01*
X0000800D01*
Y0023600D01*
X0000300D02*
Y0022800D01*
X0001450Y0023200D02*
X0000800D01*
X-0001650Y0022000D02*
X-0001000D01*
X0029675Y0036200D02*
Y0035200D01*
X0027675D01*
Y0036200D01*
X0029675D01*
X0027050Y0035700D02*
X0027675D01*
X0021200Y0030150D02*
Y0030400D01*
X0022150Y0033050D02*
Y0033450D01*
X0023250D01*
Y0033100D01*
X0023050Y0032900D01*
Y0031000D01*
X0023250Y0030800D01*
Y0030450D01*
X0022150D01*
Y0030800D01*
X0022350Y0031000D01*
Y0032850D01*
X0022150Y0033050D01*
X0022700Y0033750D02*
Y0033500D01*
Y0030150D02*
Y0030400D01*
X0036550Y0029650D02*
Y0029250D01*
X0035450D01*
Y0029600D01*
X0035650Y0029800D01*
Y0031700D01*
X0035450Y0031900D01*
Y0032250D01*
X0036550D01*
Y0031900D01*
X0036350Y0031700D01*
Y0029850D01*
X0036550Y0029650D01*
X0036000Y0028950D02*
Y0029200D01*
Y0032550D02*
Y0032300D01*
X0013800Y0026150D02*
Y0025750D01*
X0012700D01*
Y0026100D01*
X0012900Y0026300D01*
Y0028200D01*
X0012700Y0028400D01*
Y0028750D01*
X0013800D01*
Y0028400D01*
X0013600Y0028200D01*
Y0026350D01*
X0013800Y0026150D01*
X0039750Y0023500D02*
Y0022500D01*
Y0020500D01*
X0019250D01*
Y0025500D01*
X0039723D01*
X0039750D01*
Y0023500D01*
X0039500D01*
Y0022500D01*
X0039750D01*
X0013250Y0025450D02*
Y0025700D01*
Y0029050D02*
Y0028800D01*
X0013700Y0018200D02*
X0010700D01*
Y0017200D01*
X0013700D01*
Y0018200D01*
X0013750Y0018250D01*
X0010050Y0026150D02*
Y0025750D01*
X0008950D01*
Y0026100D01*
X0009150Y0026300D01*
Y0028200D01*
X0008950Y0028400D01*
Y0028750D01*
X0010050D01*
Y0028400D01*
X0009850Y0028200D01*
Y0026350D01*
X0010050Y0026150D01*
X0019150Y0033050D02*
Y0033450D01*
X0020250D01*
Y0033100D01*
X0020050Y0032900D01*
Y0031000D01*
X0020250Y0030800D01*
Y0030450D01*
X0019150D01*
Y0030800D01*
X0019350Y0031000D01*
Y0032850D01*
X0019150Y0033050D01*
X0007000Y0029375D02*
Y0024125D01*
X0004000D01*
Y0029375D01*
X0007000D01*
X0004750Y0024125D02*
Y0029375D01*
X0003937Y0029437D02*
X0003999Y0029375D01*
X0004000D01*
X0009500Y0018200D02*
X0006500D01*
Y0017200D01*
X0009500D01*
Y0018200D01*
X0009550Y0018250D01*
X0019700Y0033750D02*
Y0033500D01*
Y0030150D02*
Y0030400D01*
X0024500Y0035700D02*
X0024250D01*
X-0000600Y0020000D02*
X-0001000D01*
Y0021100D01*
X-0000650D01*
X-0000450Y0020900D01*
X0001450D01*
X0001650Y0021100D01*
X0002000D01*
Y0020000D01*
X0001650D01*
X0001450Y0020200D01*
X-0000400D01*
X-0000600Y0020000D01*
X-0001300Y0020550D02*
X-0001050D01*
X0017900Y0032000D02*
X0014900D01*
Y0031000D01*
X0017900D01*
Y0032000D01*
X0017950Y0032050D01*
X-0001650Y0023200D02*
X-0001000D01*
X0041110Y0034535D02*
X0046110D01*
X0046235Y0034410D02*
Y0013410D01*
X0046110Y0013285D02*
X0041110D01*
X0040985Y0013410D02*
Y0034410D01*
X0045360Y0031035D02*
Y0016785D01*
X0041860Y0016285D01*
Y0031535D01*
X0045360Y0031035D01*
X0034375Y0014000D02*
X0030125D01*
Y0017000D01*
X0034375D01*
Y0014000D01*
X0030125Y0016250D02*
X0034375D01*
X0034437Y0017063D02*
X0034375Y0017001D01*
Y0017000D01*
X0002300Y0020550D02*
X0002050D01*
X0026800Y0027800D02*
Y0028800D01*
X0023800D01*
Y0027800D01*
X0026800D01*
X0000800Y0022400D02*
X-0001000D01*
Y0021600D01*
X0000800D01*
Y0022400D01*
X0029675Y0035700D02*
X0030300D01*
X0008000Y0029050D02*
Y0028800D01*
X0028175Y0035200D02*
Y0036200D01*
G01X0046235Y0034410D02*
G03X0046110Y0034535I0000125J0000000D01*
Y0013285D02*
G03X0046235Y0013410I0000000J0000125D01*
G01X0040985D02*
G03X0041110Y0013285I0000125J0000000D01*
Y0034535D02*
G03X0040985Y0034410I0000000J0000125D01*
G54D39*
X0035200Y0011200D03*
X0035700Y0010700D03*
X0006100Y0037000D03*
X0006600Y0036500D03*
M02*
