*
G04 Mass Parameters ***
*
G04 Image ***
*
%INC:\MY VEHICLE RFID FILES\VEHICLE ORCAD FILES\PRODUCTION MODEL MAY 19 2008\BOARD\PM_05_19_08V3.BOT*%
%ICAS*%
%MOIN*%
%IPPOS*%
%ASAXBY*%
G74*%FSLAN2X34Y34*%
*
G04 Aperture Definitions ***
*
%ADD10C,0.0750*%
%ADD11C,0.0850*%
%ADD12C,0.0780*%
%ADD13C,0.1200*%
%ADD14R,0.0750X0.0750*%
%ADD15R,0.0780X0.0780*%
%ADD16C,0.0200*%
%ADD17C,0.0160*%
%ADD18C,0.0240*%
%ADD19C,0.0480*%
%ADD20C,0.0100*%
%ADD21C,0.1400*%
%ADD22C,0.0500*%
%ADD23C,0.1050*%
%ADD24C,0.0080*%
%ADD25R,0.0630X0.0630*%
%ADD26R,0.0620X0.0620*%
%ADD27R,0.0910X0.0910*%
%ADD28C,0.0630*%
%ADD29C,0.0580*%
%ADD30R,0.0580X0.0580*%
%ADD31C,0.0520*%
%ADD32C,0.0120*%
%ADD33C,0.0050*%
%ADD34C,0.0620*%
%ADD35C,0.0450*%
%ADD36R,0.0450X0.0450*%
%ADD37R,0.0610X0.0610*%
%ADD38C,0.0610*%
%ADD39R,0.0500X0.0500*%
%ADD40C,0.2000*%
%ADD41C,0.0670*%
%ADD42C,0.0680*%
*
G04 Plot Data ***
*
G54D18*
G01X0029000Y0029000D02*
Y0026000D01*
X0031000Y0020000D02*
Y0021750D01*
X0029000Y0023750D01*
Y0026000D01*
X0036000Y0033000D02*
Y0032000D01*
X0035500Y0031500D01*
X0029700D01*
X0029000Y0030800D01*
Y0029000D01*
X0033300Y0029500D02*
Y0028800D01*
X0032800Y0028300D01*
X0029050D01*
X0029000Y0028350D01*
Y0026000D01*
X0007000Y0017700D02*
X0006950Y0017650D01*
Y0016250D01*
X0005350D01*
X0004550Y0017050D01*
Y0018750D01*
X0004500Y0018800D01*
X0002700D01*
X0004500D01*
X0004550Y0018750D01*
Y0019950D01*
X0005650Y0021050D01*
X0010500D01*
X0011500Y0020050D01*
Y0019500D01*
X0007000Y0017700D02*
X0006950Y0017650D01*
Y0016250D01*
X0008150D01*
X0011600Y0012800D01*
X0018650D01*
X0019600Y0013750D01*
X0030150D01*
X0030800Y0014400D01*
Y0015450D01*
X0030750Y0015500D01*
X0023000Y0012500D02*
X0034000D01*
X0034900Y0013400D01*
Y0015500D01*
X0033750D01*
X0030000Y0020000D02*
Y0019250D01*
X0030500Y0018750D01*
X0033950D01*
X0034900Y0017800D01*
Y0015500D01*
X0033750D01*
X0016400Y0031500D02*
Y0032300D01*
X0015900Y0032800D01*
X0009200D01*
X0008750Y0032350D01*
Y0031500D01*
X0005500Y0026750D02*
X0006100D01*
X0006550Y0027200D01*
Y0029350D01*
X0007400Y0030200D01*
X0011750D01*
Y0029500D01*
Y0030200D01*
X0014900D01*
X0015400Y0030700D01*
Y0031500D01*
X0012200Y0017700D02*
Y0018850D01*
X0013050Y0019700D01*
Y0022700D01*
X0010550Y0025200D01*
Y0030200D01*
X0011750D01*
Y0029500D01*
X0028000Y0029000D02*
Y0026000D01*
X0009000Y0017700D02*
X0010200D01*
Y0015250D01*
X0012100Y0013350D01*
X0017400D01*
X0018250Y0014200D01*
Y0015500D01*
X0011200Y0017700D02*
X0009000D01*
G54D24*
G01X0028255Y0010439D02*
X0028311Y0010494D01*
X0028339Y0010550D01*
Y0010661D01*
X0028311Y0010717D01*
X0028255Y0010772D01*
X0028200D01*
X0028144Y0010717D01*
X0028116Y0010661D01*
Y0010550D01*
X0028144Y0010494D01*
X0028200Y0010439D01*
X0028255D01*
X0028665D02*
X0028721Y0010494D01*
X0028749Y0010550D01*
Y0010661D01*
X0028721Y0010717D01*
X0028665Y0010772D01*
X0028610D01*
X0028554Y0010717D01*
X0028526Y0010661D01*
Y0010550D01*
X0028554Y0010494D01*
X0028610Y0010439D01*
X0028665D01*
X0029159Y0010494D02*
X0029131Y0010439D01*
X0028964D01*
X0028936Y0010494D01*
Y0010605D01*
X0028992Y0010661D01*
X0029159D01*
Y0010772D01*
X0028936D01*
X0029346Y0010439D02*
X0029569D01*
X0029346Y0010661D01*
Y0010717D01*
X0029374Y0010772D01*
X0029541D01*
X0029569Y0010717D01*
X0029756Y0010605D02*
X0029979D01*
X0030166Y0010439D02*
Y0010772D01*
X0030222Y0010717D01*
X0030277Y0010605D01*
X0030333Y0010717D01*
X0030389Y0010772D01*
Y0010439D01*
X0030576Y0010772D02*
Y0010661D01*
X0030687Y0010439D01*
X0030799Y0010661D01*
Y0010772D01*
X0031521Y0010439D02*
X0031632D01*
X0031577D02*
Y0010772D01*
X0031632D01*
X0031876Y0010439D02*
X0032042D01*
X0032070Y0010494D01*
Y0010605D01*
X0032042Y0010661D01*
X0031876D01*
X0031848Y0010605D01*
Y0010550D01*
X0032070D01*
X0032258Y0010772D02*
Y0010439D01*
X0032424D01*
X0032452Y0010494D01*
Y0010605D01*
X0032424Y0010661D01*
X0032258D01*
X0032834Y0010439D02*
X0032862Y0010494D01*
Y0010605D01*
X0032834Y0010661D01*
X0032668D01*
X0032640Y0010605D01*
Y0010494D01*
X0032668Y0010439D01*
X0032834D01*
X0033050D02*
Y0010772D01*
X0033106Y0010717D01*
X0033161Y0010605D01*
X0033217Y0010717D01*
X0033272Y0010772D01*
Y0010439D01*
X0029365Y0012011D02*
X0029532D01*
X0029560Y0011955D01*
X0029532Y0011900D01*
X0029365D01*
X0029338Y0011844D01*
X0029365Y0011789D01*
X0029532D01*
X0029748Y0012011D02*
X0029859D01*
X0029886Y0011955D01*
X0029887D02*
X0029942D01*
Y0012011D02*
Y0011789D01*
X0030158D02*
X0030324D01*
X0030352Y0011844D01*
Y0011955D01*
X0030324Y0012011D01*
X0030158D01*
X0030130Y0011955D01*
Y0011900D01*
X0030352D01*
X0030568Y0012011D02*
X0030734D01*
X0030540Y0011789D02*
X0030651D01*
X0030679Y0011844D01*
Y0012122D01*
X0030950Y0012011D02*
X0031116D01*
X0031144Y0011955D01*
X0031116Y0011900D01*
X0030950D01*
X0030922Y0011844D01*
X0030950Y0011789D01*
X0031116D01*
X0031360Y0012011D02*
Y0011789D01*
X0031332D02*
X0031526D01*
X0031554Y0011844D01*
Y0012011D01*
X0031936Y0011789D02*
Y0012122D01*
X0031964Y0011789D02*
X0031798D01*
X0031742Y0011844D01*
Y0011900D01*
X0031770Y0011955D01*
X0031936D02*
X0031770D01*
X0031742Y0012011D01*
Y0012067D01*
X0031798Y0012122D01*
X0031964D01*
X0032152Y0012011D02*
X0032263Y0011789D01*
X0032319Y0011678D02*
X0032263Y0011789D01*
X0032374Y0012011D01*
X0032590Y0011789D02*
X0032756D01*
X0032784Y0011844D01*
Y0011955D01*
X0032756Y0012011D01*
X0032590D01*
X0032562Y0011955D01*
Y0011900D01*
X0032784D01*
X0032972Y0011789D02*
X0033139Y0011955D01*
X0032972Y0012122D01*
X0033194D02*
Y0011789D01*
X0029045Y0011215D02*
X0029018Y0011271D01*
Y0011327D01*
X0029045Y0011382D01*
X0029212D01*
X0029240Y0011327D01*
Y0011271D01*
X0029212Y0011215D01*
X0029045D01*
X0029018Y0011160D01*
Y0011104D01*
X0029045Y0011049D01*
X0029212D01*
X0029240Y0011104D01*
Y0011160D01*
X0029212Y0011215D01*
X0029567Y0011049D02*
X0029622Y0011104D01*
X0029650Y0011160D01*
Y0011271D01*
X0029622Y0011327D01*
X0029567Y0011382D01*
X0029511D01*
X0029455Y0011327D01*
X0029428Y0011271D01*
Y0011160D01*
X0029455Y0011104D01*
X0029511Y0011049D01*
X0029567D01*
X0029838Y0011382D02*
X0030004Y0011049D01*
X0030248Y0011215D02*
X0030414D01*
X0030442Y0011271D01*
Y0011327D01*
X0030414Y0011382D01*
X0030248D01*
X0030220Y0011327D01*
Y0011271D01*
X0030331Y0011049D01*
X0030630D02*
X0030741D01*
X0030685D02*
Y0011382D01*
X0030741Y0011327D01*
X0030984Y0011382D02*
X0031151Y0011049D01*
X0031589Y0011104D02*
X0031561Y0011049D01*
X0031394D01*
X0031366Y0011104D01*
Y0011215D01*
X0031422Y0011271D01*
X0031589D01*
Y0011382D01*
X0031366D01*
X0031915Y0011049D02*
X0031971Y0011104D01*
X0031999Y0011160D01*
Y0011271D01*
X0031971Y0011327D01*
X0031915Y0011382D01*
X0031860D01*
X0031804Y0011327D01*
X0031776Y0011271D01*
Y0011160D01*
X0031804Y0011104D01*
X0031860Y0011049D01*
X0031915D01*
X0032186Y0011215D02*
X0032409D01*
X0032596Y0011049D02*
Y0011382D01*
X0032652Y0011327D01*
X0032707Y0011215D01*
X0032763Y0011327D01*
X0032819Y0011382D01*
Y0011049D01*
X0033229Y0011215D02*
X0033062D01*
X0033006Y0011271D01*
Y0011327D01*
X0033062Y0011382D01*
X0033229D01*
Y0011049D01*
G54D32*
G01X0015500Y0014250D02*
X0014450D01*
X0013200Y0015500D01*
Y0017700D01*
X0011500Y0022500D02*
Y0023300D01*
X0011000Y0023800D01*
X0002750D01*
Y0024550D01*
X0017000Y0014250D02*
X0015500D01*
X0036000Y0028500D02*
Y0029600D01*
X0037700D01*
X0038000Y0029300D01*
Y0028500D01*
X0024300Y0028300D02*
X0024250D01*
X0024800Y0028850D01*
Y0031000D01*
X0024400Y0031400D01*
X0010500Y0022500D02*
Y0023000D01*
X0010200Y0023300D01*
X0003600D01*
X0002750Y0022450D01*
Y0020550D01*
X0001900Y0022000D02*
X0002750Y0021997D01*
Y0020550D01*
X0031900Y0029500D02*
X0031850Y0029550D01*
Y0030600D01*
X0037900D01*
X0039000Y0029500D01*
Y0026000D01*
X0015500Y0014250D02*
X0015450Y0014300D01*
Y0014250D01*
X0014450D01*
X0013200Y0015500D01*
Y0017700D01*
X0027900Y0016600D02*
X0024800D01*
X0023000Y0018400D01*
Y0020000D01*
X0026300Y0028300D02*
X0025800Y0028800D01*
Y0031000D01*
X0026200Y0031400D01*
X0013250Y0029500D02*
X0016350D01*
X0017400Y0030550D01*
Y0031500D01*
X0001900Y0023200D02*
X0002500D01*
X0002750Y0023400D01*
Y0024550D01*
X0036000Y0028500D02*
Y0029600D01*
X0034700D01*
X0034500Y0029400D01*
Y0028900D01*
X0026300Y0028300D02*
X0027000Y0027600D01*
Y0026000D01*
X0016900Y0014150D02*
X0017000Y0014250D01*
X0031900Y0029500D02*
X0031850Y0029550D01*
Y0030600D01*
X0030900D01*
X0030500Y0030200D01*
Y0029500D01*
X0026000Y0020000D02*
Y0018950D01*
X0026800Y0018150D01*
X0030850D01*
X0032700Y0016300D01*
Y0015550D01*
X0032750Y0015500D01*
X0000600Y0028850D02*
X0002450D01*
X0007900Y0034300D01*
X0018300D01*
X0018900Y0034900D01*
X0022500D01*
X0022700Y0034700D01*
Y0034200D01*
X0023000Y0026000D02*
Y0026700D01*
X0021200Y0028500D01*
Y0029700D01*
X0024000Y0020000D02*
Y0018600D01*
X0025300Y0017300D01*
X0029000D01*
X0029200Y0017100D01*
Y0016600D01*
X0011750Y0025000D02*
X0015500Y0021250D01*
Y0018500D01*
X0025000Y0020000D02*
Y0018800D01*
X0026100Y0017700D01*
X0030150D01*
X0031650Y0016200D01*
Y0015600D01*
X0031750Y0015500D01*
X0022000Y0026000D02*
Y0026650D01*
X0019700Y0028950D01*
Y0029700D01*
X0023000Y0016437D02*
Y0017237D01*
X0022000Y0018200D01*
Y0020000D01*
X0024000Y0026000D02*
Y0026900D01*
X0022700Y0028200D01*
Y0029700D01*
X0013250Y0025000D02*
X0013300Y0024950D01*
Y0024250D01*
X0015900Y0021650D01*
X0026250D01*
X0027000Y0020900D01*
Y0020000D01*
X0021200Y0034200D02*
Y0033550D01*
X0020850Y0033200D01*
X0018950D01*
X0018300Y0033850D01*
X0008150D01*
X0001150Y0026850D01*
X0000600D01*
X0024300Y0028300D02*
X0026000Y0026600D01*
Y0026000D01*
X0038000Y0028500D02*
Y0026000D01*
G54D11*
X0008000Y0017700D03*
X0007000D03*
X0038000Y0026000D03*
X0037000D03*
X0036000D03*
X0035000D03*
X0034000D03*
X0033000D03*
X0032000D03*
X0031000D03*
X0030000D03*
X0029000D03*
X0028000D03*
X0027000D03*
X0026000D03*
X0025000D03*
X0024000D03*
X0023000D03*
X0022000D03*
X0021000D03*
X0020000D03*
Y0020000D03*
X0021000D03*
X0022000D03*
X0023000D03*
X0024000D03*
X0025000D03*
X0026000D03*
X0027000D03*
X0028000D03*
X0029000D03*
X0030000D03*
X0031000D03*
X0032000D03*
X0033000D03*
X0034000D03*
X0035000D03*
X0036000D03*
X0037000D03*
X0038000D03*
X0039000D03*
X0027900Y0016600D03*
X0029200D03*
X0020500Y0035700D03*
X0025000D03*
X0012200Y0017700D03*
X0011200D03*
X0016400Y0031500D03*
X0015400D03*
X0005500Y0027750D03*
Y0026750D03*
Y0025750D03*
Y0024750D03*
X0032750Y0015500D03*
X0031750D03*
X0030750D03*
X0043050Y0030450D03*
Y0029360D03*
Y0028270D03*
Y0027180D03*
Y0026090D03*
Y0025000D03*
Y0023910D03*
Y0022820D03*
Y0021730D03*
Y0020640D03*
Y0019550D03*
Y0018460D03*
Y0017370D03*
X0044170Y0029905D03*
Y0028815D03*
Y0027725D03*
Y0026635D03*
Y0025545D03*
Y0024455D03*
Y0023365D03*
Y0022275D03*
Y0021185D03*
Y0020095D03*
Y0019005D03*
Y0017915D03*
G54D12*
X0010500Y0022500D03*
X0009500D03*
X0008500D03*
X0007500D03*
X0006500D03*
X0005500D03*
Y0019500D03*
X0006500D03*
X0007500D03*
X0008500D03*
X0009500D03*
X0010500D03*
X0011500D03*
G54D13*
X0043610Y0014650D03*
Y0033170D03*
G54D14*
X0005500Y0028750D03*
X0033750Y0015500D03*
G54D15*
X0009000Y0017700D03*
X0039000Y0026000D03*
X0013200Y0017700D03*
X0017400Y0031500D03*
G54D21*
X0016400Y0025000D03*
X0012250Y0011000D03*
X0008000D03*
G54D28*
X0023000Y0012500D03*
Y0016437D03*
X0000600Y0027850D03*
G54D30*
X0011500Y0022500D03*
G54D31*
X0024300Y0028300D03*
X0026300D03*
X0010400Y0035800D03*
Y0031300D03*
X0011750Y0029500D03*
Y0025000D03*
X0038000Y0033000D03*
Y0028500D03*
X0031900Y0034000D03*
Y0029500D03*
X0030500Y0034000D03*
Y0029500D03*
X0009500Y0025000D03*
Y0029500D03*
X0002750Y0024550D03*
X-0001750D03*
Y0020550D03*
X0002750D03*
X0019700Y0034200D03*
Y0029700D03*
X0013250Y0025000D03*
Y0029500D03*
X0036000Y0028500D03*
Y0033000D03*
X0008000Y0025000D03*
Y0029500D03*
X0022700Y0034200D03*
Y0029700D03*
X0021200Y0034200D03*
Y0029700D03*
X0033300Y0034000D03*
Y0029500D03*
X0034400Y0035600D03*
X0033400D03*
X0001700Y0018800D03*
X0002700D03*
X0018250Y0016500D03*
Y0015500D03*
X0026200Y0031400D03*
Y0032400D03*
X0024400Y0031400D03*
Y0032400D03*
X0028000Y0029000D03*
X0029000D03*
G54D34*
X0000600Y0028850D03*
Y0026850D03*
G54D35*
X0034500Y0032900D03*
X0017000Y0018250D03*
X-0002100Y0022000D03*
Y0023200D03*
G54D36*
X0034500Y0028900D03*
X0017000Y0014250D03*
X0001900Y0022000D03*
Y0023200D03*
G54D37*
X0008750Y0031500D03*
X0026550Y0035700D03*
X0015500Y0014250D03*
G54D38*
X0008750Y0035750D03*
X0030800Y0035700D03*
X0015500Y0018500D03*
G54D39*
X0035200Y0011200D03*
X0035700Y0010700D03*
X0006100Y0037000D03*
X0006600Y0036500D03*
G54D40*
X0037300Y0012840D03*
Y0034860D03*
X0004300Y0012840D03*
X0004360Y0034860D03*
M02*
