*
G04 Mass Parameters ***
*
G04 Image ***
*
%INC:\MY VEHICLE RFID FILES\VEHICLE ORCAD FILES\PRODUCTION MODEL MAY 19 2008\BOARD\PM_05_19_08V3.AST*%
%ICAS*%
%MOIN*%
%IPPOS*%
%ASAXBY*%
G74*%FSLAN2X34Y34*%
*
G04 Aperture Definitions ***
*
%ADD10C,0.0750*%
%ADD11C,0.0850*%
%ADD12C,0.0780*%
%ADD13C,0.1200*%
%ADD14R,0.0750X0.0750*%
%ADD15R,0.0780X0.0780*%
%ADD16C,0.0200*%
%ADD17C,0.0160*%
%ADD18C,0.0240*%
%ADD19C,0.0480*%
%ADD20C,0.0100*%
%ADD21C,0.1400*%
%ADD22C,0.0500*%
%ADD23C,0.1050*%
%ADD24C,0.0080*%
%ADD25R,0.0630X0.0630*%
%ADD26R,0.0620X0.0620*%
%ADD27R,0.0910X0.0910*%
%ADD28C,0.0630*%
%ADD29C,0.0580*%
%ADD30R,0.0580X0.0580*%
%ADD31C,0.0520*%
%ADD32C,0.0120*%
%ADD33C,0.0050*%
%ADD34C,0.0620*%
%ADD35C,0.0450*%
%ADD36R,0.0450X0.0450*%
%ADD37R,0.0610X0.0610*%
%ADD38C,0.0610*%
%ADD39R,0.0500X0.0500*%
%ADD40C,0.2000*%
%ADD41C,0.0670*%
%ADD42C,0.0680*%
*
G04 Plot Data ***
*
G54D24*
G01X0045568Y0033118D02*
X0045901D01*
Y0033007D02*
Y0033229D01*
X0045568Y0033417D02*
X0045734Y0033583D01*
X0045901Y0033417D01*
Y0033639D02*
X0045568D01*
X0045845Y0033827D02*
X0045901Y0033854D01*
Y0034021D01*
X0045845Y0034049D01*
X0045790D01*
X0045734Y0034021D01*
Y0033854D01*
X0045679Y0033827D01*
X0045623D01*
X0045568Y0033854D01*
Y0034021D01*
X0045623Y0034049D01*
X0042277Y0030465D02*
Y0030354D01*
Y0030410D02*
X0041944D01*
X0041999Y0030354D01*
X0044929Y0029583D02*
Y0029806D01*
X0045151Y0029695D01*
Y0029639D01*
X0044818D01*
Y0029993D02*
Y0030104D01*
Y0030049D02*
X0045151D01*
X0045095Y0030104D01*
X0042123Y0017306D02*
X0042067Y0017250D01*
Y0017139D01*
X0042123Y0017083D01*
X0042179D01*
X0042290Y0017195D01*
X0042401Y0017083D01*
Y0017306D01*
X0042067Y0017493D02*
Y0017604D01*
Y0017549D02*
X0042401D01*
X0042345Y0017604D01*
X0044873Y0017750D02*
X0044818Y0017722D01*
Y0017556D01*
X0044873Y0017528D01*
X0044984D01*
X0045040Y0017583D01*
Y0017750D01*
X0045151D01*
Y0017528D01*
X0044818Y0017938D02*
Y0018160D01*
X0045040Y0017938D01*
X0045095D01*
X0045151Y0017966D01*
Y0018132D01*
X0045095Y0018160D01*
X0002300Y0024550D02*
X0002050D01*
X-0001300D02*
X-0001050D01*
X0030500Y0033550D02*
Y0033300D01*
Y0029950D02*
Y0030200D01*
X0031900Y0033550D02*
Y0033300D01*
Y0029950D02*
Y0030200D01*
X0038000Y0032550D02*
Y0032300D01*
Y0028950D02*
Y0029200D01*
X0011750Y0029050D02*
Y0028800D01*
Y0025450D02*
Y0025700D01*
X0010400Y0035350D02*
Y0035100D01*
Y0031750D02*
Y0032000D01*
X0003200Y0018300D02*
Y0019300D01*
X0001200D01*
Y0018300D01*
X0003200D01*
X0034900Y0030000D02*
Y0031800D01*
X0034100D01*
Y0030000D01*
X0034900D01*
Y0030500D02*
X0034100D01*
X0034500Y0029350D02*
Y0030000D01*
Y0032450D02*
Y0031800D01*
X0015000Y0017375D02*
X0016000D01*
Y0015375D01*
X0015000D01*
Y0017375D01*
X0015500Y0014750D02*
Y0015375D01*
Y0017375D02*
Y0018000D01*
X0016000Y0015875D02*
X0015000D01*
X0012250Y0020500D02*
X0012000D01*
Y0021500D01*
X0012250D01*
Y0020000D02*
Y0020500D01*
Y0021500D01*
Y0022000D01*
X0004750D01*
Y0020000D01*
X0012250D01*
X0029500Y0028500D02*
Y0029500D01*
X0027500D01*
Y0028500D01*
X0029500D01*
X0008000Y0025450D02*
Y0025700D01*
Y0029050D02*
Y0028800D01*
X0017400Y0015350D02*
Y0017150D01*
X0016600D01*
Y0015350D01*
X0017400D01*
Y0015850D02*
X0016600D01*
X0017000Y0014700D02*
Y0015350D01*
Y0017800D02*
Y0017150D01*
X0024900Y0032900D02*
X0023900D01*
Y0030900D01*
X0024900D01*
Y0032900D01*
X0026700D02*
X0025700D01*
Y0030900D01*
X0026700D01*
Y0032900D01*
X0008250Y0034625D02*
X0009250D01*
Y0032625D01*
X0008250D01*
Y0034625D01*
X0008750Y0032000D02*
Y0032625D01*
X0021250Y0035200D02*
X0024250D01*
Y0035700D01*
Y0036200D01*
X0021250D01*
Y0035700D01*
Y0035200D01*
X0021000Y0035700D02*
X0021250D01*
X0017750Y0015000D02*
X0018750D01*
Y0017000D01*
X0017750D01*
Y0015000D01*
X0008750Y0034625D02*
Y0035250D01*
X0009250Y0033125D02*
X0008250D01*
X0032900Y0036100D02*
Y0035100D01*
X0034900D01*
Y0036100D01*
X0032900D01*
X0000300Y0022400D02*
Y0021600D01*
X0001450Y0022000D02*
X0000800D01*
X0009500Y0025450D02*
Y0025700D01*
Y0029050D02*
Y0028800D01*
X0033300Y0033550D02*
Y0033300D01*
Y0029950D02*
Y0030200D01*
X0021200Y0033750D02*
Y0033500D01*
Y0030150D02*
Y0030400D01*
X0017900Y0032000D02*
X0014900D01*
Y0031000D01*
X0017900D01*
Y0032000D01*
X0017950Y0032050D01*
X0000800Y0023600D02*
X-0001000D01*
Y0022800D01*
X0000800D01*
Y0023600D01*
X0000300D02*
Y0022800D01*
X0001450Y0023200D02*
X0000800D01*
X-0001650Y0022000D02*
X-0001000D01*
X0029675Y0036200D02*
Y0035200D01*
X0027675D01*
Y0036200D01*
X0029675D01*
X0027050Y0035700D02*
X0027675D01*
X0022700Y0033750D02*
Y0033500D01*
Y0030150D02*
Y0030400D01*
X0036000Y0028950D02*
Y0029200D01*
Y0032550D02*
Y0032300D01*
X0039750Y0023500D02*
Y0022500D01*
Y0020500D01*
X0019250D01*
Y0025500D01*
X0039723D01*
X0039750D01*
Y0023500D01*
X0039500D01*
Y0022500D01*
X0039750D01*
X0013250Y0025450D02*
Y0025700D01*
Y0029050D02*
Y0028800D01*
X0013700Y0018200D02*
X0010700D01*
Y0017200D01*
X0013700D01*
Y0018200D01*
X0013750Y0018250D01*
X0019700Y0033750D02*
Y0033500D01*
X0007000Y0029375D02*
Y0024125D01*
X0004000D01*
Y0029375D01*
X0007000D01*
X0004750Y0024125D02*
Y0029375D01*
X0003937Y0029437D02*
X0003999Y0029375D01*
X0004000D01*
X0009500Y0018200D02*
X0006500D01*
Y0017200D01*
X0009500D01*
Y0018200D01*
X0009550Y0018250D01*
X0019700Y0030150D02*
Y0030400D01*
X0024500Y0035700D02*
X0024250D01*
X-0001300Y0020550D02*
X-0001050D01*
X0002300D02*
X0002050D01*
X-0001650Y0023200D02*
X-0001000D01*
X0041110Y0034535D02*
X0046110D01*
X0046235Y0034410D02*
Y0013410D01*
X0046110Y0013285D02*
X0041110D01*
X0040985Y0013410D02*
Y0034410D01*
X0045360Y0031035D02*
Y0016785D01*
X0041860Y0016285D01*
Y0031535D01*
X0045360Y0031035D01*
X0034375Y0014000D02*
X0030125D01*
Y0017000D01*
X0034375D01*
Y0014000D01*
X0030125Y0016250D02*
X0034375D01*
X0034437Y0017063D02*
X0034375Y0017001D01*
Y0017000D01*
X0029675Y0035700D02*
X0030300D01*
X0026800Y0027800D02*
Y0028800D01*
X0023800D01*
Y0027800D01*
X0026800D01*
X0000800Y0022400D02*
X-0001000D01*
Y0021600D01*
X0000800D01*
Y0022400D01*
X0028175Y0035200D02*
Y0036200D01*
G01X0046235Y0034410D02*
G03X0046110Y0034535I0000125J0000000D01*
Y0013285D02*
G03X0046235Y0013410I0000000J0000125D01*
G01X0040985D02*
G03X0041110Y0013285I0000125J0000000D01*
Y0034535D02*
G03X0040985Y0034410I0000000J0000125D01*
G54D33*
G01X0038000Y0010100D02*
X0003750D01*
X0002250Y0011250D02*
Y0015500D01*
X-0002000D01*
X-0003250Y0016750D02*
Y0031100D01*
X-0002000Y0032250D02*
X0002250D01*
Y0036700D01*
X0003800Y0037600D02*
X0038000D01*
X0039500Y0036500D02*
Y0034650D01*
X0046250D01*
Y0013150D01*
X0039500D01*
Y0011250D01*
G01X0003696Y0010099D02*
G03X0003750Y0010100I0000000J0001484D01*
G01X0002250Y0011250D02*
G03X0003696Y0010099I0001446J0000333D01*
G01X-0002200Y0015481D02*
G03X-0002000Y0015500I0000000J0001069D01*
G01X-0003269Y0016550D02*
G03X-0002200Y0015481I0001069J0000000D01*
G01X-0003250Y0016750D02*
G03X-0003269Y0016550I0001050J0000200D01*
G01X-0002000Y0032250D02*
G03X-0003250Y0031100I0000096J0001359D01*
G01X0003631Y0037610D02*
G03X0002250Y0036700I0000000J0001505D01*
G01X0003800Y0037600D02*
G03X0003631Y0037610I0000169J0001495D01*
G01X0038258Y0037627D02*
G03X0038000Y0037600I0000000J0001248D01*
G01X0039500Y0036500D02*
G03X0038258Y0037627I0001242J0000121D01*
G01X0038000Y0010100D02*
G03X0039500Y0011250I0000104J0001689D01*
G54D11*
X0008000Y0017700D03*
X0007000D03*
X0038000Y0026000D03*
X0037000D03*
X0036000D03*
X0035000D03*
X0034000D03*
X0033000D03*
X0032000D03*
X0031000D03*
X0030000D03*
X0029000D03*
X0028000D03*
X0027000D03*
X0026000D03*
X0025000D03*
X0024000D03*
X0023000D03*
X0022000D03*
X0021000D03*
X0020000D03*
Y0020000D03*
X0021000D03*
X0022000D03*
X0023000D03*
X0024000D03*
X0025000D03*
X0026000D03*
X0027000D03*
X0028000D03*
X0029000D03*
X0030000D03*
X0031000D03*
X0032000D03*
X0033000D03*
X0034000D03*
X0035000D03*
X0036000D03*
X0037000D03*
X0038000D03*
X0039000D03*
X0020500Y0035700D03*
X0025000D03*
X0012200Y0017700D03*
X0011200D03*
X0016400Y0031500D03*
X0015400D03*
X0005500Y0027750D03*
Y0026750D03*
Y0025750D03*
Y0024750D03*
X0032750Y0015500D03*
X0031750D03*
X0030750D03*
X0043050Y0030450D03*
Y0029360D03*
Y0028270D03*
Y0027180D03*
Y0026090D03*
Y0025000D03*
Y0023910D03*
Y0022820D03*
Y0021730D03*
Y0020640D03*
Y0019550D03*
Y0018460D03*
Y0017370D03*
X0044170Y0029905D03*
Y0028815D03*
Y0027725D03*
Y0026635D03*
Y0025545D03*
Y0024455D03*
Y0023365D03*
Y0022275D03*
Y0021185D03*
Y0020095D03*
Y0019005D03*
Y0017915D03*
G54D12*
X0010500Y0022500D03*
X0009500D03*
X0008500D03*
X0007500D03*
X0006500D03*
X0005500D03*
Y0019500D03*
X0006500D03*
X0007500D03*
X0008500D03*
X0009500D03*
X0010500D03*
X0011500D03*
G54D13*
X0043610Y0014650D03*
Y0033170D03*
G54D15*
X0009000Y0017700D03*
X0039000Y0026000D03*
X0013200Y0017700D03*
X0017400Y0031500D03*
G54D26*
X0005500Y0028750D03*
X0033750Y0015500D03*
G54D28*
X0023000Y0012500D03*
Y0016437D03*
G54D30*
X0011500Y0022500D03*
G54D31*
X0024300Y0028300D03*
X0026300D03*
X0010400Y0035800D03*
Y0031300D03*
X0011750Y0029500D03*
Y0025000D03*
X0038000Y0033000D03*
Y0028500D03*
X0031900Y0034000D03*
Y0029500D03*
X0030500Y0034000D03*
Y0029500D03*
X0009500Y0025000D03*
Y0029500D03*
X0002750Y0024550D03*
X-0001750D03*
Y0020550D03*
X0002750D03*
X0019700Y0034200D03*
Y0029700D03*
X0013250Y0025000D03*
Y0029500D03*
X0036000Y0028500D03*
Y0033000D03*
X0008000Y0025000D03*
Y0029500D03*
X0022700Y0034200D03*
Y0029700D03*
X0021200Y0034200D03*
Y0029700D03*
X0033300Y0034000D03*
Y0029500D03*
X0034400Y0035600D03*
X0033400D03*
X0001700Y0018800D03*
X0002700D03*
X0018250Y0016500D03*
Y0015500D03*
X0026200Y0031400D03*
Y0032400D03*
X0024400Y0031400D03*
Y0032400D03*
X0028000Y0029000D03*
X0029000D03*
G54D35*
X0034500Y0032900D03*
X0017000Y0018250D03*
X-0002100Y0022000D03*
Y0023200D03*
G54D36*
X0034500Y0028900D03*
X0017000Y0014250D03*
X0001900Y0022000D03*
Y0023200D03*
G54D37*
X0008750Y0031500D03*
X0026550Y0035700D03*
X0015500Y0014250D03*
G54D38*
X0008750Y0035750D03*
X0030800Y0035700D03*
X0015500Y0018500D03*
G54D39*
X0035200Y0011200D03*
X0035700Y0010700D03*
X0006100Y0037000D03*
X0006600Y0036500D03*
M02*
