%
T7C0.075F200S100
X027900Y016600
X029200Y016600
T4C0.038F200S100
X020500Y035700
X025000Y035700
T6C0.042F200S100
X005500Y024750
X005500Y025750
X005500Y026750
X005500Y027750
X005500Y028750
X023000Y012500
X023000Y016437
X030750Y015500
X031750Y015500
X032750Y015500
X033750Y015500
T3C0.034F200S100
X000600Y027850
X005500Y019500
X005500Y022500
X006500Y019500
X007000Y017700
X006500Y022500
X007500Y019500
X008000Y017700
X007500Y022500
X008500Y019500
X009000Y017700
X008500Y022500
X009500Y019500
X010500Y019500
X010500Y022500
X009500Y022500
X011200Y017700
X011500Y019500
X011500Y022500
X012200Y017700
X013200Y017700
X015400Y031500
X016400Y031500
X017400Y031500
X020000Y020000
X020000Y026000
X021000Y020000
X022000Y020000
X022000Y026000
X021000Y026000
X023000Y020000
X024000Y020000
X024000Y026000
X023000Y026000
X025000Y020000
X026000Y020000
X026000Y026000
X025000Y026000
X027000Y020000
X028000Y020000
X028000Y026000
X027000Y026000
X029000Y020000
X030000Y020000
X030000Y026000
X029000Y026000
X031000Y020000
X032000Y020000
X032000Y026000
X031000Y026000
X033000Y020000
X034000Y020000
X034000Y026000
X033000Y026000
X035000Y020000
X036000Y020000
X036000Y026000
X035000Y026000
X037000Y020000
X038000Y020000
X038000Y026000
X037000Y026000
X039000Y020000
X043050Y017370
X043050Y018460
X043050Y019550
X043050Y020640
X043050Y021730
X043050Y022820
X043050Y023910
X043050Y025000
X043050Y026090
X043050Y027180
X043050Y028270
X043050Y029360
X043050Y030450
X039000Y026000
X044170Y017915
X044170Y019005
X044170Y020095
X044170Y021185
X044170Y022275
X044170Y023365
X044170Y024455
X044170Y025545
X044170Y026635
X044170Y027725
X044170Y028815
X044170Y029905
T8C0.120F200S100
X043610Y014650
X043610Y033170
T1C0.028F200S100
X-002100Y022000
X-002100Y023200
X000600Y026850
X000600Y028850
X001700Y018800
X001900Y022000
X001900Y023200
X002700Y018800
X017000Y014250
X017000Y018250
X018250Y015500
X018250Y016500
X024300Y028300
X024400Y031400
X024400Y032400
X026200Y031400
X026200Y032400
X026300Y028300
X028000Y029000
X029000Y029000
X033400Y035600
X034400Y035600
X034500Y028900
X034500Y032900
T9C0.140F200S100
X004300Y012840
X004360Y034860
X008000Y011000
X012250Y011000
X016400Y025000
X037300Y012840
X037300Y034860
T2C0.031F200S100
X-001750Y020550
X-001750Y024550
X002750Y020550
X002750Y024550
X008000Y025000
X009500Y025000
X009500Y029500
X008000Y029500
X010400Y031300
X010400Y035800
X011750Y025000
X011750Y029500
X013250Y025000
X013250Y029500
X019700Y029700
X019700Y034200
X021200Y029700
X022700Y029700
X022700Y034200
X021200Y034200
X030500Y029500
X031900Y029500
X031900Y034000
X030500Y034000
X033300Y029500
X036000Y028500
X036000Y033000
X033300Y034000
X038000Y028500
X038000Y033000
T5C0.040F200S100
X008750Y031500
X008750Y035750
X015500Y014250
X015500Y018500
X026550Y035700
X030800Y035700
M30
