G75*
G70*
%OFA0B0*%
%FSLAX24Y24*%
%IPPOS*%
%LPD*%
%AMOC8*
5,1,8,0,0,1.08239X$1,22.5*
%
%ADD10C,0.0594*%
%ADD11C,0.0700*%
%ADD12C,0.0515*%
%ADD13C,0.0600*%
%ADD14C,0.0551*%
%ADD15R,0.2650X0.0500*%
%ADD16C,0.0160*%
%ADD17C,0.0500*%
%ADD18C,0.0396*%
%ADD19C,0.0320*%
%ADD20C,0.0357*%
%ADD21C,0.0100*%
D10*
X004704Y010889D02*
X005298Y010889D01*
X005298Y011889D02*
X004704Y011889D01*
X004704Y012889D02*
X005298Y012889D01*
X005298Y013889D02*
X004704Y013889D01*
X022178Y009365D02*
X022178Y008772D01*
X023949Y008772D02*
X023949Y009365D01*
X023949Y006806D02*
X023949Y006213D01*
X022178Y006213D02*
X022178Y006806D01*
D11*
X008751Y003117D03*
X008751Y002117D03*
D12*
X011248Y008412D02*
X011246Y008927D01*
X013214Y008937D02*
X013217Y008423D01*
D13*
X012811Y002949D02*
X012811Y002349D01*
X011811Y002349D02*
X011811Y002949D01*
X010811Y002949D02*
X010811Y002349D01*
X009811Y002349D02*
X009811Y002949D01*
X013811Y002949D02*
X013811Y002349D01*
X014811Y002349D02*
X014811Y002949D01*
X015811Y002949D02*
X015811Y002349D01*
X016811Y002349D02*
X016811Y002949D01*
X017811Y002949D02*
X017811Y002349D01*
D14*
X027829Y007031D02*
X028380Y007031D01*
X028380Y007819D02*
X027829Y007819D01*
X027829Y008606D02*
X028380Y008606D01*
D15*
X030582Y007056D03*
X030582Y006056D03*
X030582Y005056D03*
X030582Y004056D03*
X030582Y003056D03*
X030582Y002056D03*
D16*
X005001Y003539D02*
X003651Y004889D01*
X003651Y006989D01*
X004251Y006989D02*
X004251Y008289D01*
X004740Y007850D02*
X005940Y007850D01*
X005951Y007839D01*
X006351Y007906D02*
X006467Y007906D01*
X006480Y007937D02*
X006413Y007776D01*
X006413Y007601D01*
X006480Y007440D01*
X006531Y007389D01*
X006531Y004412D01*
X006351Y004410D01*
X006351Y007918D01*
X006351Y009609D01*
X006351Y011809D01*
X006351Y011968D01*
X006351Y013423D01*
X006817Y013889D01*
X008865Y013889D01*
X008760Y013636D01*
X008760Y013344D01*
X008872Y013075D01*
X009078Y012869D01*
X009347Y012758D01*
X009638Y012758D01*
X009907Y012869D01*
X010113Y013075D01*
X010225Y013344D01*
X010225Y013636D01*
X010120Y013889D01*
X018401Y013889D01*
X018401Y009368D01*
X015671Y009368D01*
X015671Y011049D01*
X015722Y011100D01*
X015789Y011261D01*
X015789Y011436D01*
X015722Y011597D01*
X015599Y011720D01*
X015438Y011787D01*
X015264Y011787D01*
X015103Y011720D01*
X014980Y011597D01*
X014913Y011436D01*
X014913Y011261D01*
X014980Y011100D01*
X015031Y011049D01*
X015031Y009368D01*
X014314Y009368D01*
X013822Y009860D01*
X013732Y009950D01*
X013615Y009998D01*
X011685Y009998D01*
X011557Y009998D01*
X011440Y009950D01*
X011070Y009580D01*
X010980Y009490D01*
X010931Y009372D01*
X010931Y009316D01*
X010823Y009207D01*
X010748Y009024D01*
X010751Y008311D01*
X010828Y008128D01*
X010969Y007989D01*
X011152Y007914D01*
X011350Y007915D01*
X011532Y007992D01*
X011672Y008133D01*
X011746Y008316D01*
X011743Y009029D01*
X011666Y009211D01*
X011636Y009241D01*
X011754Y009359D01*
X012932Y009359D01*
X012930Y009358D01*
X012791Y009217D01*
X012716Y009034D01*
X012720Y008321D01*
X012797Y008139D01*
X012937Y007999D01*
X013120Y007925D01*
X013318Y007926D01*
X013501Y008002D01*
X013640Y008143D01*
X013715Y008326D01*
X013711Y009039D01*
X013692Y009085D01*
X014000Y008777D01*
X014117Y008729D01*
X014245Y008729D01*
X015277Y008729D01*
X015405Y008729D01*
X018401Y008729D01*
X018401Y007308D01*
X015934Y007308D01*
X015732Y007510D01*
X015615Y007558D01*
X015487Y007558D01*
X015051Y007558D01*
X014999Y007610D01*
X014838Y007677D01*
X014664Y007677D01*
X014503Y007610D01*
X014380Y007487D01*
X014313Y007326D01*
X014313Y007151D01*
X014380Y006990D01*
X014503Y006867D01*
X014664Y006800D01*
X014773Y006800D01*
X014763Y006776D01*
X014763Y006601D01*
X014819Y006466D01*
X014803Y006460D01*
X014680Y006337D01*
X014613Y006176D01*
X014613Y006001D01*
X014680Y005840D01*
X014707Y005813D01*
X014680Y005787D01*
X014613Y005626D01*
X014613Y005451D01*
X014680Y005290D01*
X014803Y005167D01*
X014964Y005100D01*
X015013Y005100D01*
X015013Y005001D01*
X015080Y004840D01*
X015203Y004717D01*
X015364Y004650D01*
X015538Y004650D01*
X015699Y004717D01*
X015751Y004769D01*
X016409Y004769D01*
X016199Y004558D01*
X012234Y004558D01*
X011522Y005270D01*
X011432Y005360D01*
X011315Y005408D01*
X010851Y005408D01*
X010889Y005501D01*
X010889Y005676D01*
X010822Y005837D01*
X010791Y005869D01*
X010952Y005869D01*
X011003Y005817D01*
X011164Y005750D01*
X011338Y005750D01*
X011499Y005817D01*
X011622Y005940D01*
X011689Y006101D01*
X011689Y006276D01*
X011622Y006437D01*
X011499Y006560D01*
X011338Y006627D01*
X011164Y006627D01*
X011003Y006560D01*
X010952Y006508D01*
X009834Y006508D01*
X009621Y006721D01*
X009621Y009162D01*
X009572Y009280D01*
X009482Y009370D01*
X008779Y010073D01*
X008779Y010146D01*
X008712Y010307D01*
X008589Y010430D01*
X008428Y010497D01*
X008254Y010497D01*
X008093Y010430D01*
X007970Y010307D01*
X007903Y010146D01*
X007903Y009971D01*
X007970Y009810D01*
X008093Y009687D01*
X008254Y009620D01*
X008327Y009620D01*
X008981Y008966D01*
X008981Y008678D01*
X008949Y008710D01*
X008788Y008777D01*
X008614Y008777D01*
X008453Y008710D01*
X008330Y008587D01*
X008263Y008426D01*
X008263Y008251D01*
X008330Y008090D01*
X008381Y008039D01*
X008381Y005925D01*
X008430Y005807D01*
X008520Y005717D01*
X008676Y005561D01*
X008553Y005510D01*
X008430Y005387D01*
X008363Y005226D01*
X008363Y005051D01*
X008430Y004890D01*
X008553Y004767D01*
X008682Y004714D01*
X008553Y004660D01*
X008430Y004537D01*
X008383Y004424D01*
X007171Y004416D01*
X007171Y007389D01*
X007222Y007440D01*
X007289Y007601D01*
X007289Y007776D01*
X007222Y007937D01*
X007099Y008060D01*
X006938Y008127D01*
X006764Y008127D01*
X006603Y008060D01*
X006480Y007937D01*
X006351Y008064D02*
X006614Y008064D01*
X006351Y008223D02*
X008275Y008223D01*
X008263Y008381D02*
X006351Y008381D01*
X006351Y008540D02*
X008310Y008540D01*
X008442Y008699D02*
X006351Y008699D01*
X006351Y008857D02*
X008981Y008857D01*
X008981Y008699D02*
X008961Y008699D01*
X008701Y008339D02*
X008701Y005989D01*
X009101Y005589D01*
X010451Y005589D01*
X010889Y005528D02*
X014613Y005528D01*
X014638Y005686D02*
X010885Y005686D01*
X010814Y005845D02*
X010975Y005845D01*
X011251Y006189D02*
X009701Y006189D01*
X009301Y006589D01*
X009301Y009099D01*
X008341Y010059D01*
X007960Y010284D02*
X006351Y010284D01*
X006351Y010125D02*
X007903Y010125D01*
X007905Y009967D02*
X006351Y009967D01*
X006351Y009808D02*
X007972Y009808D01*
X008183Y009650D02*
X006351Y009650D01*
X006351Y009491D02*
X008456Y009491D01*
X008614Y009333D02*
X006351Y009333D01*
X006351Y009174D02*
X008773Y009174D01*
X008931Y009016D02*
X006351Y009016D01*
X005951Y009687D02*
X005951Y009689D01*
X006351Y010443D02*
X008124Y010443D01*
X008559Y010443D02*
X015031Y010443D01*
X015031Y010601D02*
X006351Y010601D01*
X006351Y010760D02*
X015031Y010760D01*
X015031Y010918D02*
X006351Y010918D01*
X006351Y011077D02*
X015003Y011077D01*
X014924Y011235D02*
X006351Y011235D01*
X006351Y011394D02*
X014913Y011394D01*
X014961Y011552D02*
X006351Y011552D01*
X006351Y011711D02*
X015094Y011711D01*
X015351Y011349D02*
X015351Y009059D01*
X015341Y009049D01*
X022158Y009049D01*
X022178Y009068D01*
X022178Y006509D01*
X022196Y006491D02*
X022196Y005756D01*
X022214Y005756D01*
X022285Y005767D01*
X022353Y005789D01*
X022417Y005822D01*
X022475Y005864D01*
X022526Y005915D01*
X022568Y005973D01*
X022601Y006037D01*
X022623Y006106D01*
X022635Y006177D01*
X022635Y006491D01*
X022196Y006491D01*
X022159Y006491D01*
X021721Y006491D01*
X021721Y006177D01*
X021732Y006106D01*
X021754Y006037D01*
X021787Y005973D01*
X021829Y005915D01*
X021880Y005864D01*
X021938Y005822D01*
X022002Y005789D01*
X022071Y005767D01*
X022142Y005756D01*
X022159Y005756D01*
X022159Y006491D01*
X022159Y006528D01*
X021721Y006528D01*
X021721Y006842D01*
X021732Y006913D01*
X021754Y006982D01*
X021787Y007046D01*
X021829Y007104D01*
X021880Y007155D01*
X021938Y007197D01*
X022002Y007230D01*
X022071Y007252D01*
X022142Y007263D01*
X022159Y007263D01*
X022159Y006528D01*
X022196Y006528D01*
X022196Y007263D01*
X022214Y007263D01*
X022285Y007252D01*
X022353Y007230D01*
X022417Y007197D01*
X022475Y007155D01*
X022526Y007104D01*
X022568Y007046D01*
X022601Y006982D01*
X022623Y006913D01*
X022635Y006842D01*
X022635Y006528D01*
X022196Y006528D01*
X022196Y006491D01*
X022196Y006479D02*
X022159Y006479D01*
X022159Y006638D02*
X022196Y006638D01*
X022196Y006796D02*
X022159Y006796D01*
X022159Y006955D02*
X022196Y006955D01*
X022196Y007113D02*
X022159Y007113D01*
X021839Y007113D02*
X020129Y007113D01*
X020072Y007170D02*
X019982Y007260D01*
X019865Y007308D01*
X018721Y007308D01*
X018721Y008393D01*
X018751Y014339D01*
X020849Y014339D01*
X020730Y014220D01*
X020681Y014102D01*
X020681Y013975D01*
X020681Y010188D01*
X020630Y010137D01*
X020563Y009976D01*
X020563Y009801D01*
X020630Y009640D01*
X020753Y009517D01*
X020914Y009450D01*
X021088Y009450D01*
X021249Y009517D01*
X021372Y009640D01*
X021439Y009801D01*
X021439Y009976D01*
X021372Y010137D01*
X021321Y010188D01*
X021321Y013906D01*
X021434Y014019D01*
X024897Y014019D01*
X024930Y013940D01*
X025053Y013817D01*
X025214Y013750D01*
X025388Y013750D01*
X025549Y013817D01*
X025672Y013940D01*
X025739Y014101D01*
X025739Y014276D01*
X025713Y014339D01*
X029233Y014339D01*
X029233Y013538D01*
X029233Y013499D01*
X029218Y013309D01*
X029218Y013309D01*
X029292Y012914D01*
X029465Y012553D01*
X029465Y012553D01*
X029726Y012248D01*
X029726Y012248D01*
X029726Y012248D01*
X030057Y012021D01*
X030057Y012021D01*
X030435Y011888D01*
X030436Y011888D01*
X030597Y011876D01*
X030606Y011872D01*
X030645Y011872D01*
X030683Y011869D01*
X030692Y011872D01*
X031792Y011872D01*
X031792Y009281D01*
X029327Y009281D01*
X029238Y009245D01*
X029171Y009177D01*
X029134Y009089D01*
X029134Y008994D01*
X029134Y008121D01*
X029065Y008092D01*
X028998Y008024D01*
X028961Y007936D01*
X028961Y007341D01*
X028998Y007253D01*
X029017Y007233D01*
X029017Y007157D01*
X028896Y007036D01*
X028896Y007134D01*
X028817Y007323D01*
X028672Y007468D01*
X028651Y007477D01*
X028664Y007486D01*
X028713Y007535D01*
X028753Y007590D01*
X028784Y007651D01*
X028805Y007716D01*
X028816Y007784D01*
X028816Y007815D01*
X028109Y007815D01*
X028109Y007822D01*
X028816Y007822D01*
X028816Y007853D01*
X028805Y007921D01*
X028784Y007986D01*
X028753Y008047D01*
X028713Y008102D01*
X028664Y008151D01*
X028651Y008160D01*
X028672Y008169D01*
X028817Y008314D01*
X028896Y008503D01*
X028896Y008708D01*
X028817Y008898D01*
X028681Y009034D01*
X028681Y009046D01*
X028681Y011956D01*
X028637Y012063D01*
X028555Y012144D01*
X028449Y012188D01*
X028333Y012188D01*
X025259Y012188D01*
X025143Y012188D01*
X025037Y012144D01*
X024955Y012063D01*
X024911Y011956D01*
X024911Y008931D01*
X024955Y008824D01*
X025037Y008743D01*
X025143Y008699D01*
X024486Y008699D01*
X024486Y008665D02*
X024486Y009472D01*
X024404Y009669D01*
X024254Y009820D01*
X024056Y009902D01*
X023843Y009902D01*
X023645Y009820D01*
X023494Y009669D01*
X023413Y009472D01*
X023413Y008665D01*
X023494Y008467D01*
X023629Y008332D01*
X023629Y008252D01*
X023629Y008125D01*
X023629Y007245D01*
X023494Y007110D01*
X023413Y006913D01*
X023413Y006106D01*
X023494Y005908D01*
X023645Y005757D01*
X023843Y005676D01*
X024056Y005676D01*
X024254Y005757D01*
X024404Y005908D01*
X024486Y006106D01*
X024486Y006913D01*
X024404Y007110D01*
X024269Y007245D01*
X024269Y007869D01*
X025051Y007869D01*
X025103Y007817D01*
X025264Y007750D01*
X025438Y007750D01*
X025599Y007817D01*
X025722Y007940D01*
X025789Y008101D01*
X025789Y008276D01*
X025722Y008437D01*
X025599Y008560D01*
X025438Y008627D01*
X025264Y008627D01*
X025103Y008560D01*
X025051Y008508D01*
X024421Y008508D01*
X024486Y008665D01*
X024434Y008540D02*
X025083Y008540D01*
X025143Y008699D02*
X025259Y008699D01*
X026701Y008699D01*
X026701Y005304D01*
X026535Y005138D01*
X024194Y005138D01*
X024179Y005154D01*
X023999Y005228D01*
X023804Y005228D01*
X023624Y005154D01*
X023486Y005016D01*
X023411Y004836D01*
X023411Y004641D01*
X023466Y004508D01*
X022734Y004508D01*
X020072Y007170D01*
X019954Y007272D02*
X023629Y007272D01*
X023629Y007430D02*
X018721Y007430D01*
X018721Y007589D02*
X023629Y007589D01*
X023629Y007747D02*
X018721Y007747D01*
X018721Y007906D02*
X023629Y007906D01*
X023629Y008064D02*
X018721Y008064D01*
X018721Y008223D02*
X023629Y008223D01*
X023580Y008381D02*
X022418Y008381D01*
X022417Y008381D02*
X022475Y008423D01*
X022526Y008474D01*
X022568Y008532D01*
X022601Y008596D01*
X022623Y008665D01*
X022635Y008736D01*
X022635Y009050D01*
X022196Y009050D01*
X022196Y008315D01*
X022214Y008315D01*
X022285Y008326D01*
X022353Y008348D01*
X022417Y008381D01*
X022196Y008381D02*
X022159Y008381D01*
X022159Y008315D02*
X022159Y009050D01*
X021721Y009050D01*
X021721Y008736D01*
X021732Y008665D01*
X021754Y008596D01*
X021787Y008532D01*
X021829Y008474D01*
X021880Y008423D01*
X021938Y008381D01*
X022002Y008348D01*
X022071Y008326D01*
X022142Y008315D01*
X022159Y008315D01*
X022159Y008540D02*
X022196Y008540D01*
X022196Y008699D02*
X022159Y008699D01*
X022159Y008857D02*
X022196Y008857D01*
X022196Y009016D02*
X022159Y009016D01*
X022159Y009050D02*
X022196Y009050D01*
X022196Y009087D01*
X022159Y009087D01*
X022159Y009050D01*
X022159Y009087D02*
X021721Y009087D01*
X021721Y009401D01*
X021732Y009472D01*
X021754Y009541D01*
X021787Y009605D01*
X021829Y009663D01*
X021880Y009714D01*
X021938Y009756D01*
X022002Y009789D01*
X022071Y009811D01*
X022142Y009822D01*
X022159Y009822D01*
X022159Y009087D01*
X022196Y009087D02*
X022196Y009822D01*
X022214Y009822D01*
X022285Y009811D01*
X022353Y009789D01*
X022417Y009756D01*
X022475Y009714D01*
X022526Y009663D01*
X022568Y009605D01*
X022601Y009541D01*
X022623Y009472D01*
X022635Y009401D01*
X022635Y009087D01*
X022196Y009087D01*
X022196Y009174D02*
X022159Y009174D01*
X022159Y009333D02*
X022196Y009333D01*
X022196Y009491D02*
X022159Y009491D01*
X022159Y009650D02*
X022196Y009650D01*
X022196Y009808D02*
X022159Y009808D01*
X022063Y009808D02*
X021439Y009808D01*
X021439Y009967D02*
X024911Y009967D01*
X024911Y010125D02*
X021377Y010125D01*
X021321Y010284D02*
X024911Y010284D01*
X024911Y010443D02*
X021321Y010443D01*
X021321Y010601D02*
X024911Y010601D01*
X024911Y010760D02*
X021321Y010760D01*
X021321Y010918D02*
X024911Y010918D01*
X024911Y011077D02*
X021321Y011077D01*
X021321Y011235D02*
X024911Y011235D01*
X024911Y011394D02*
X021321Y011394D01*
X021321Y011552D02*
X024911Y011552D01*
X024911Y011711D02*
X021321Y011711D01*
X021321Y011869D02*
X024911Y011869D01*
X024941Y012028D02*
X021321Y012028D01*
X021321Y012187D02*
X025139Y012187D01*
X025162Y013772D02*
X021321Y013772D01*
X021321Y013613D02*
X029233Y013613D01*
X029229Y013455D02*
X021321Y013455D01*
X021321Y013296D02*
X029220Y013296D01*
X029250Y013138D02*
X021321Y013138D01*
X021321Y012979D02*
X029280Y012979D01*
X029292Y012914D02*
X029292Y012914D01*
X029337Y012821D02*
X021321Y012821D01*
X021321Y012662D02*
X029413Y012662D01*
X029507Y012504D02*
X021321Y012504D01*
X021321Y012345D02*
X029643Y012345D01*
X029816Y012187D02*
X028453Y012187D01*
X028651Y012028D02*
X030048Y012028D01*
X030679Y011869D02*
X028681Y011869D01*
X028681Y011711D02*
X031792Y011711D01*
X031792Y011869D02*
X030684Y011869D01*
X031792Y011552D02*
X028681Y011552D01*
X028681Y011394D02*
X031792Y011394D01*
X031792Y011235D02*
X028681Y011235D01*
X028681Y011077D02*
X031792Y011077D01*
X031792Y010918D02*
X028681Y010918D01*
X028681Y010760D02*
X031792Y010760D01*
X031792Y010601D02*
X028681Y010601D01*
X028681Y010443D02*
X031792Y010443D01*
X031792Y010284D02*
X028681Y010284D01*
X028681Y010125D02*
X031792Y010125D01*
X031792Y009967D02*
X028681Y009967D01*
X028681Y009808D02*
X031792Y009808D01*
X031792Y009650D02*
X028681Y009650D01*
X028681Y009491D02*
X031792Y009491D01*
X031792Y009333D02*
X028681Y009333D01*
X028681Y009174D02*
X029170Y009174D01*
X029134Y009016D02*
X028700Y009016D01*
X028834Y008857D02*
X029134Y008857D01*
X029134Y008699D02*
X028896Y008699D01*
X028896Y008540D02*
X029134Y008540D01*
X029134Y008381D02*
X028845Y008381D01*
X028727Y008223D02*
X029134Y008223D01*
X029038Y008064D02*
X028740Y008064D01*
X028808Y007906D02*
X028961Y007906D01*
X028961Y007747D02*
X028810Y007747D01*
X028752Y007589D02*
X028961Y007589D01*
X028961Y007430D02*
X028710Y007430D01*
X028839Y007272D02*
X028990Y007272D01*
X028973Y007113D02*
X028896Y007113D01*
X029351Y007039D02*
X031151Y007039D01*
X031101Y007089D01*
X031051Y007089D01*
X031019Y007056D01*
X030582Y007056D01*
X029351Y007039D02*
X028001Y005689D01*
X028001Y004389D01*
X027801Y004189D01*
X022601Y004189D01*
X019801Y006989D01*
X015801Y006989D01*
X015551Y007239D01*
X014751Y007239D01*
X014356Y007430D02*
X009621Y007430D01*
X009621Y007272D02*
X014313Y007272D01*
X014329Y007113D02*
X009621Y007113D01*
X009621Y006955D02*
X014415Y006955D01*
X014771Y006796D02*
X009621Y006796D01*
X009705Y006638D02*
X014763Y006638D01*
X014814Y006479D02*
X011580Y006479D01*
X011671Y006320D02*
X014673Y006320D01*
X014613Y006162D02*
X011689Y006162D01*
X011649Y006003D02*
X014613Y006003D01*
X014678Y005845D02*
X011527Y005845D01*
X011410Y005369D02*
X014647Y005369D01*
X014759Y005211D02*
X011581Y005211D01*
X011740Y005052D02*
X015013Y005052D01*
X015058Y004894D02*
X011899Y004894D01*
X012057Y004735D02*
X015185Y004735D01*
X015451Y005089D02*
X016501Y005089D01*
X016801Y005389D01*
X019101Y005389D01*
X023001Y001489D01*
X028901Y001489D01*
X029469Y002056D01*
X030582Y002056D01*
X030564Y002039D01*
X030582Y002989D02*
X030582Y003056D01*
X030582Y002989D02*
X021951Y002989D01*
X019251Y005689D01*
X016551Y005689D01*
X016401Y005539D01*
X015751Y005539D01*
X015501Y005989D02*
X019401Y005989D01*
X022101Y003289D01*
X028701Y003289D01*
X029469Y004056D01*
X030582Y004056D01*
X030582Y005056D02*
X029469Y005056D01*
X028851Y004439D01*
X028851Y004039D01*
X028401Y003589D01*
X022251Y003589D01*
X019551Y006289D01*
X015251Y006289D01*
X015051Y006089D01*
X015501Y005989D02*
X015051Y005539D01*
X015717Y004735D02*
X016375Y004735D01*
X016217Y004576D02*
X012216Y004576D01*
X012101Y004239D02*
X016331Y004239D01*
X017061Y004969D01*
X017061Y003439D02*
X016811Y003189D01*
X016811Y002649D01*
X017061Y003439D02*
X020551Y003439D01*
X020901Y003089D01*
X020901Y002689D01*
X022401Y003889D02*
X019601Y006689D01*
X015201Y006689D01*
X015812Y007430D02*
X018401Y007430D01*
X018401Y007589D02*
X015020Y007589D01*
X014482Y007589D02*
X009621Y007589D01*
X009621Y007747D02*
X018401Y007747D01*
X018401Y007906D02*
X009621Y007906D01*
X009621Y008064D02*
X010893Y008064D01*
X010788Y008223D02*
X009621Y008223D01*
X009621Y008381D02*
X010751Y008381D01*
X010750Y008540D02*
X009621Y008540D01*
X009621Y008699D02*
X010749Y008699D01*
X010749Y008857D02*
X009621Y008857D01*
X009621Y009016D02*
X010748Y009016D01*
X010809Y009174D02*
X009616Y009174D01*
X009519Y009333D02*
X010931Y009333D01*
X010981Y009491D02*
X009361Y009491D01*
X009202Y009650D02*
X011140Y009650D01*
X011298Y009808D02*
X009044Y009808D01*
X008885Y009967D02*
X011481Y009967D01*
X011621Y009679D02*
X011251Y009309D01*
X011251Y008674D01*
X011247Y008670D01*
X011744Y008699D02*
X012718Y008699D01*
X012717Y008857D02*
X011744Y008857D01*
X011743Y009016D02*
X012716Y009016D01*
X012774Y009174D02*
X011681Y009174D01*
X011728Y009333D02*
X012906Y009333D01*
X013551Y009679D02*
X011621Y009679D01*
X011745Y008540D02*
X012719Y008540D01*
X012720Y008381D02*
X011746Y008381D01*
X011708Y008223D02*
X012761Y008223D01*
X012871Y008064D02*
X011604Y008064D01*
X013562Y008064D02*
X018401Y008064D01*
X018401Y008223D02*
X013673Y008223D01*
X013715Y008381D02*
X018401Y008381D01*
X018401Y008540D02*
X013714Y008540D01*
X013713Y008699D02*
X018401Y008699D01*
X018723Y008699D02*
X021727Y008699D01*
X021721Y008857D02*
X018723Y008857D01*
X018724Y009016D02*
X021721Y009016D01*
X021721Y009174D02*
X018725Y009174D01*
X018726Y009333D02*
X021721Y009333D01*
X021738Y009491D02*
X021187Y009491D01*
X021376Y009650D02*
X021820Y009650D01*
X022292Y009808D02*
X023633Y009808D01*
X023486Y009650D02*
X022536Y009650D01*
X022617Y009491D02*
X023421Y009491D01*
X023413Y009333D02*
X022635Y009333D01*
X022635Y009174D02*
X023413Y009174D01*
X023413Y009016D02*
X022635Y009016D01*
X022635Y008857D02*
X023413Y008857D01*
X023413Y008699D02*
X022629Y008699D01*
X022572Y008540D02*
X023464Y008540D01*
X023949Y008189D02*
X025351Y008189D01*
X025745Y008381D02*
X026701Y008381D01*
X026701Y008223D02*
X025789Y008223D01*
X025774Y008064D02*
X026701Y008064D01*
X026701Y007906D02*
X025688Y007906D01*
X025619Y008540D02*
X026701Y008540D01*
X026701Y007747D02*
X024269Y007747D01*
X024269Y007589D02*
X026701Y007589D01*
X026701Y007430D02*
X024269Y007430D01*
X024269Y007272D02*
X026701Y007272D01*
X026701Y007113D02*
X024402Y007113D01*
X024469Y006955D02*
X026701Y006955D01*
X026701Y006796D02*
X024486Y006796D01*
X024486Y006638D02*
X026701Y006638D01*
X026701Y006479D02*
X024486Y006479D01*
X024486Y006320D02*
X026701Y006320D01*
X026701Y006162D02*
X024486Y006162D01*
X024444Y006003D02*
X026701Y006003D01*
X026701Y005845D02*
X024341Y005845D01*
X024082Y005686D02*
X026701Y005686D01*
X026701Y005528D02*
X021714Y005528D01*
X021556Y005686D02*
X023817Y005686D01*
X023558Y005845D02*
X022449Y005845D01*
X022584Y006003D02*
X023455Y006003D01*
X023413Y006162D02*
X022632Y006162D01*
X022635Y006320D02*
X023413Y006320D01*
X023413Y006479D02*
X022635Y006479D01*
X022635Y006638D02*
X023413Y006638D01*
X023413Y006796D02*
X022635Y006796D01*
X022610Y006955D02*
X023430Y006955D01*
X023497Y007113D02*
X022517Y007113D01*
X021746Y006955D02*
X020288Y006955D01*
X020446Y006796D02*
X021721Y006796D01*
X021721Y006638D02*
X020605Y006638D01*
X020763Y006479D02*
X021721Y006479D01*
X021721Y006320D02*
X020922Y006320D01*
X021080Y006162D02*
X021723Y006162D01*
X021772Y006003D02*
X021239Y006003D01*
X021397Y005845D02*
X021907Y005845D01*
X022159Y005845D02*
X022196Y005845D01*
X022196Y006003D02*
X022159Y006003D01*
X022159Y006162D02*
X022196Y006162D01*
X022196Y006320D02*
X022159Y006320D01*
X021873Y005369D02*
X026701Y005369D01*
X026608Y005211D02*
X024042Y005211D01*
X023761Y005211D02*
X022031Y005211D01*
X022190Y005052D02*
X023522Y005052D01*
X023435Y004894D02*
X022349Y004894D01*
X022507Y004735D02*
X023411Y004735D01*
X023438Y004576D02*
X022666Y004576D01*
X022401Y003889D02*
X028101Y003889D01*
X028451Y004239D01*
X028451Y005289D01*
X029201Y006039D01*
X030801Y006039D01*
X030783Y006056D01*
X030582Y006056D01*
X024942Y008857D02*
X024486Y008857D01*
X024486Y009016D02*
X024911Y009016D01*
X024911Y009174D02*
X024486Y009174D01*
X024486Y009333D02*
X024911Y009333D01*
X024911Y009491D02*
X024478Y009491D01*
X024413Y009650D02*
X024911Y009650D01*
X024911Y009808D02*
X024266Y009808D01*
X023949Y009068D02*
X023949Y008189D01*
X023949Y006509D01*
X023951Y006508D01*
X021937Y008381D02*
X018721Y008381D01*
X018722Y008540D02*
X021783Y008540D01*
X020815Y009491D02*
X018727Y009491D01*
X018727Y009650D02*
X020626Y009650D01*
X020563Y009808D02*
X018728Y009808D01*
X018729Y009967D02*
X020563Y009967D01*
X020625Y010125D02*
X018730Y010125D01*
X018731Y010284D02*
X020681Y010284D01*
X020681Y010443D02*
X018731Y010443D01*
X018732Y010601D02*
X020681Y010601D01*
X020681Y010760D02*
X018733Y010760D01*
X018734Y010918D02*
X020681Y010918D01*
X020681Y011077D02*
X018735Y011077D01*
X018735Y011235D02*
X020681Y011235D01*
X020681Y011394D02*
X018736Y011394D01*
X018737Y011552D02*
X020681Y011552D01*
X020681Y011711D02*
X018738Y011711D01*
X018739Y011869D02*
X020681Y011869D01*
X020681Y012028D02*
X018739Y012028D01*
X018740Y012187D02*
X020681Y012187D01*
X020681Y012345D02*
X018741Y012345D01*
X018742Y012504D02*
X020681Y012504D01*
X020681Y012662D02*
X018743Y012662D01*
X018743Y012821D02*
X020681Y012821D01*
X020681Y012979D02*
X018744Y012979D01*
X018745Y013138D02*
X020681Y013138D01*
X020681Y013296D02*
X018746Y013296D01*
X018747Y013455D02*
X020681Y013455D01*
X020681Y013613D02*
X018747Y013613D01*
X018748Y013772D02*
X020681Y013772D01*
X020681Y013931D02*
X018749Y013931D01*
X018750Y014089D02*
X020681Y014089D01*
X020758Y014248D02*
X018751Y014248D01*
X018401Y013772D02*
X010168Y013772D01*
X010225Y013613D02*
X018401Y013613D01*
X018401Y013455D02*
X010225Y013455D01*
X010205Y013296D02*
X018401Y013296D01*
X018401Y013138D02*
X010139Y013138D01*
X010017Y012979D02*
X018401Y012979D01*
X018401Y012821D02*
X009790Y012821D01*
X009195Y012821D02*
X006351Y012821D01*
X006351Y012979D02*
X008968Y012979D01*
X008846Y013138D02*
X006351Y013138D01*
X006351Y013296D02*
X008780Y013296D01*
X008760Y013455D02*
X006383Y013455D01*
X006542Y013613D02*
X008760Y013613D01*
X008817Y013772D02*
X006700Y013772D01*
X006351Y012662D02*
X018401Y012662D01*
X018401Y012504D02*
X006351Y012504D01*
X006351Y012345D02*
X018401Y012345D01*
X018401Y012187D02*
X006351Y012187D01*
X006351Y012028D02*
X018401Y012028D01*
X018401Y011869D02*
X006351Y011869D01*
X008722Y010284D02*
X015031Y010284D01*
X015031Y010125D02*
X008779Y010125D01*
X008356Y008064D02*
X007088Y008064D01*
X007235Y007906D02*
X008381Y007906D01*
X008381Y007747D02*
X007289Y007747D01*
X007284Y007589D02*
X008381Y007589D01*
X008381Y007430D02*
X007212Y007430D01*
X007171Y007272D02*
X008381Y007272D01*
X008381Y007113D02*
X007171Y007113D01*
X007171Y006955D02*
X008381Y006955D01*
X008381Y006796D02*
X007171Y006796D01*
X007171Y006638D02*
X008381Y006638D01*
X008381Y006479D02*
X007171Y006479D01*
X007171Y006320D02*
X008381Y006320D01*
X008381Y006162D02*
X007171Y006162D01*
X007171Y006003D02*
X008381Y006003D01*
X008414Y005845D02*
X007171Y005845D01*
X007171Y005686D02*
X008551Y005686D01*
X008596Y005528D02*
X007171Y005528D01*
X007171Y005369D02*
X008422Y005369D01*
X008363Y005211D02*
X007171Y005211D01*
X007171Y005052D02*
X008363Y005052D01*
X008428Y004894D02*
X007171Y004894D01*
X007171Y004735D02*
X008630Y004735D01*
X008469Y004576D02*
X007171Y004576D01*
X007171Y004418D02*
X007500Y004418D01*
X006851Y003939D02*
X006851Y007689D01*
X006413Y007747D02*
X006351Y007747D01*
X006351Y007589D02*
X006418Y007589D01*
X006351Y007430D02*
X006490Y007430D01*
X006531Y007272D02*
X006351Y007272D01*
X006351Y007113D02*
X006531Y007113D01*
X006531Y006955D02*
X006351Y006955D01*
X006351Y006796D02*
X006531Y006796D01*
X006531Y006638D02*
X006351Y006638D01*
X006351Y006479D02*
X006531Y006479D01*
X006531Y006320D02*
X006351Y006320D01*
X006351Y006162D02*
X006531Y006162D01*
X006531Y006003D02*
X006351Y006003D01*
X006351Y005845D02*
X006531Y005845D01*
X006531Y005686D02*
X006351Y005686D01*
X006351Y005528D02*
X006531Y005528D01*
X006531Y005369D02*
X006351Y005369D01*
X006351Y005211D02*
X006531Y005211D01*
X006531Y005052D02*
X006351Y005052D01*
X006351Y004894D02*
X006531Y004894D01*
X006531Y004735D02*
X006351Y004735D01*
X006351Y004576D02*
X006531Y004576D01*
X006531Y004418D02*
X006351Y004418D01*
X005251Y003539D02*
X005001Y003539D01*
X008801Y004289D02*
X008851Y004239D01*
X011501Y004239D01*
X011811Y003929D01*
X011811Y002649D01*
X012101Y004239D02*
X011251Y005089D01*
X008851Y005089D01*
X008801Y005139D01*
X013712Y008857D02*
X013920Y008857D01*
X013761Y009016D02*
X013711Y009016D01*
X014181Y009049D02*
X013551Y009679D01*
X013874Y009808D02*
X015031Y009808D01*
X015031Y009650D02*
X014032Y009650D01*
X014191Y009491D02*
X015031Y009491D01*
X015031Y009967D02*
X013691Y009967D01*
X014181Y009049D02*
X015341Y009049D01*
X015671Y009491D02*
X018401Y009491D01*
X018401Y009650D02*
X015671Y009650D01*
X015671Y009808D02*
X018401Y009808D01*
X018401Y009967D02*
X015671Y009967D01*
X015671Y010125D02*
X018401Y010125D01*
X018401Y010284D02*
X015671Y010284D01*
X015671Y010443D02*
X018401Y010443D01*
X018401Y010601D02*
X015671Y010601D01*
X015671Y010760D02*
X018401Y010760D01*
X018401Y010918D02*
X015671Y010918D01*
X015699Y011077D02*
X018401Y011077D01*
X018401Y011235D02*
X015778Y011235D01*
X015789Y011394D02*
X018401Y011394D01*
X018401Y011552D02*
X015741Y011552D01*
X015608Y011711D02*
X018401Y011711D01*
X021001Y009889D02*
X021001Y014039D01*
X021301Y014339D01*
X025151Y014339D01*
X025301Y014189D01*
X025739Y014248D02*
X029233Y014248D01*
X029233Y014089D02*
X025734Y014089D01*
X025663Y013931D02*
X029233Y013931D01*
X029233Y013772D02*
X025440Y013772D01*
X024939Y013931D02*
X021346Y013931D01*
D17*
X023901Y004739D03*
X005951Y002189D03*
D18*
X005251Y003539D03*
X006851Y003939D03*
X008801Y004289D03*
X008801Y005139D03*
X010451Y005589D03*
X011251Y006189D03*
X010581Y008359D03*
X010131Y008379D03*
X009931Y008779D03*
X010381Y008769D03*
X010281Y009329D03*
X010701Y009349D03*
X010521Y009769D03*
X010311Y010139D03*
X010741Y010139D03*
X011161Y010149D03*
X010941Y009769D03*
X011591Y010139D03*
X012041Y010139D03*
X012471Y010129D03*
X012891Y010129D03*
X012701Y010529D03*
X012271Y010539D03*
X011841Y010539D03*
X011391Y010529D03*
X011191Y010899D03*
X010961Y010539D03*
X010761Y010909D03*
X010321Y010919D03*
X010101Y010529D03*
X010531Y010519D03*
X009871Y010149D03*
X010071Y009769D03*
X009861Y009339D03*
X009571Y009719D03*
X009411Y010139D03*
X008961Y010089D03*
X008761Y010479D03*
X009211Y010529D03*
X009641Y010519D03*
X009441Y010919D03*
X009011Y010919D03*
X009161Y011329D03*
X008731Y011339D03*
X008571Y010929D03*
X007951Y011239D03*
X008071Y011729D03*
X007851Y012089D03*
X007621Y011729D03*
X007401Y012089D03*
X007181Y011739D03*
X006951Y012089D03*
X006731Y011729D03*
X006501Y012089D03*
X006691Y011289D03*
X007351Y011239D03*
X008511Y011719D03*
X008301Y012089D03*
X008751Y012089D03*
X008971Y011729D03*
X009201Y012089D03*
X009421Y011729D03*
X009651Y012089D03*
X009851Y011719D03*
X009631Y011319D03*
X009871Y010919D03*
X010371Y011659D03*
X010871Y011659D03*
X011371Y011659D03*
X011871Y011659D03*
X012311Y011759D03*
X012281Y011289D03*
X012481Y010919D03*
X012051Y010929D03*
X011621Y010919D03*
X012911Y010909D03*
X013341Y010909D03*
X013141Y010509D03*
X013391Y010149D03*
X013841Y010149D03*
X013601Y010519D03*
X014031Y010559D03*
X013821Y010959D03*
X014091Y011359D03*
X014161Y011799D03*
X014151Y012239D03*
X013551Y011989D03*
X013101Y011989D03*
X013301Y011589D03*
X012311Y012239D03*
X011351Y012389D03*
X011101Y012789D03*
X010801Y012389D03*
X008341Y010059D03*
X008221Y009419D03*
X008671Y008969D03*
X008701Y008339D03*
X006851Y007689D03*
X004740Y007850D03*
X004251Y008289D03*
X004251Y006989D03*
X003651Y006989D03*
X011871Y008949D03*
X012231Y008689D03*
X011941Y008359D03*
X012531Y008339D03*
X012571Y008979D03*
X014751Y007239D03*
X015201Y006689D03*
X015051Y006089D03*
X015051Y005539D03*
X015451Y005089D03*
X015751Y005539D03*
X017061Y004969D03*
X020901Y002689D03*
X025351Y008189D03*
X026771Y009459D03*
X027101Y009139D03*
X027231Y009549D03*
X026801Y009889D03*
X027221Y009989D03*
X027231Y010429D03*
X026811Y010319D03*
X026921Y010729D03*
X025301Y014189D03*
X021001Y009889D03*
X015351Y011349D03*
X014601Y011369D03*
X014801Y012189D03*
D19*
X018651Y014289D02*
X019051Y013889D01*
X018651Y014289D02*
X006651Y014289D01*
X005951Y013589D01*
X005951Y011889D01*
X005001Y011889D01*
X005951Y011889D02*
X005951Y009689D01*
X005951Y007839D01*
X005951Y002189D01*
X011811Y001879D02*
X012201Y001489D01*
X017501Y001489D01*
X017801Y001789D01*
X017801Y002639D01*
X017811Y002649D01*
X011811Y002649D02*
X011811Y001879D01*
X023901Y004739D02*
X026701Y004739D01*
X027101Y005139D01*
X027101Y009139D01*
D20*
X024751Y009439D03*
X024551Y009789D03*
X024601Y010539D03*
X024201Y010539D03*
X024351Y011089D03*
X023951Y011089D03*
X023501Y010889D03*
X023301Y010539D03*
X022901Y010539D03*
X022501Y010539D03*
X022301Y010889D03*
X021901Y010889D03*
X021501Y010889D03*
X021701Y010539D03*
X022101Y010539D03*
X021901Y010189D03*
X021501Y010189D03*
X021701Y009839D03*
X021451Y009489D03*
X022301Y010189D03*
X022701Y010189D03*
X023101Y010189D03*
X023501Y010189D03*
X023301Y009839D03*
X022901Y009839D03*
X022501Y009839D03*
X022801Y009439D03*
X023201Y009439D03*
X023101Y010889D03*
X022701Y010889D03*
X024751Y011089D03*
X026851Y013039D03*
X027151Y013289D03*
X026851Y013489D03*
X027151Y013689D03*
X026851Y013889D03*
X027451Y013889D03*
X027451Y013489D03*
X027891Y013449D03*
X028351Y013439D03*
X027451Y013039D03*
X025486Y013681D03*
X025101Y013489D03*
X024701Y013489D03*
X024801Y013889D03*
X024101Y013839D03*
X023701Y013839D03*
X023001Y013839D03*
X022601Y013839D03*
X022201Y013839D03*
X021801Y013839D03*
X021401Y013839D03*
X021451Y013349D03*
X021861Y013349D03*
X022281Y013359D03*
X022701Y013349D03*
X023151Y013359D03*
X020551Y013369D03*
X020555Y013822D03*
X020162Y013816D03*
X019751Y013839D03*
X019351Y013839D03*
X018951Y013839D03*
X018921Y013369D03*
X019331Y013359D03*
X019731Y013359D03*
X020151Y013359D03*
X029851Y009789D03*
X030251Y009789D03*
X030651Y009789D03*
X031051Y009789D03*
X030851Y010139D03*
X031251Y010139D03*
X031651Y010139D03*
X031451Y009789D03*
X031251Y009439D03*
X030851Y009439D03*
X030451Y009439D03*
X030051Y009439D03*
X031651Y009439D03*
D21*
X028391Y009465D02*
X025201Y009465D01*
X025201Y009563D02*
X028391Y009563D01*
X028391Y009662D02*
X025201Y009662D01*
X025201Y009760D02*
X028391Y009760D01*
X028391Y009859D02*
X025201Y009859D01*
X025201Y009957D02*
X028391Y009957D01*
X028391Y010056D02*
X025201Y010056D01*
X025201Y010154D02*
X028391Y010154D01*
X028391Y010253D02*
X025201Y010253D01*
X025201Y010352D02*
X028391Y010352D01*
X028391Y010450D02*
X025201Y010450D01*
X025201Y010549D02*
X028391Y010549D01*
X028391Y010647D02*
X025201Y010647D01*
X025201Y010746D02*
X028391Y010746D01*
X028391Y010844D02*
X025201Y010844D01*
X025201Y010943D02*
X028391Y010943D01*
X028391Y011041D02*
X025201Y011041D01*
X025201Y011140D02*
X028391Y011140D01*
X028391Y011238D02*
X025201Y011238D01*
X025201Y011337D02*
X028391Y011337D01*
X028391Y011436D02*
X025201Y011436D01*
X025201Y011534D02*
X028391Y011534D01*
X028391Y011633D02*
X025201Y011633D01*
X025201Y011731D02*
X028391Y011731D01*
X028391Y011830D02*
X025201Y011830D01*
X025201Y011899D02*
X028391Y011899D01*
X028391Y009091D01*
X027733Y009091D01*
X027554Y009018D01*
X027525Y008989D01*
X025201Y008989D01*
X025201Y011899D01*
X025201Y009366D02*
X028391Y009366D01*
X028391Y009268D02*
X025201Y009268D01*
X025201Y009169D02*
X028391Y009169D01*
X027682Y009071D02*
X025201Y009071D01*
M02*
