G75*
G70*
%OFA0B0*%
%FSLAX24Y24*%
%IPPOS*%
%LPD*%
%AMOC8*
5,1,8,0,0,1.08239X$1,22.5*
%
%ADD10C,0.0674*%
%ADD11C,0.0780*%
%ADD12C,0.0595*%
%ADD13C,0.0680*%
%ADD14C,0.0631*%
%ADD15C,0.1064*%
%ADD16R,0.2730X0.0580*%
%ADD17C,0.0580*%
%ADD18C,0.0476*%
%ADD19C,0.0437*%
D10*
X004704Y010889D02*
X005298Y010889D01*
X005298Y011889D02*
X004704Y011889D01*
X004704Y012889D02*
X005298Y012889D01*
X005298Y013889D02*
X004704Y013889D01*
X022178Y009365D02*
X022178Y008772D01*
X023949Y008772D02*
X023949Y009365D01*
X023949Y006806D02*
X023949Y006213D01*
X022178Y006213D02*
X022178Y006806D01*
D11*
X008751Y003117D03*
X008751Y002117D03*
D12*
X011248Y008412D02*
X011246Y008927D01*
X013214Y008937D02*
X013217Y008423D01*
D13*
X012811Y002949D02*
X012811Y002349D01*
X011811Y002349D02*
X011811Y002949D01*
X010811Y002949D02*
X010811Y002349D01*
X009811Y002349D02*
X009811Y002949D01*
X013811Y002949D02*
X013811Y002349D01*
X014811Y002349D02*
X014811Y002949D01*
X015811Y002949D02*
X015811Y002349D01*
X016811Y002349D02*
X016811Y002949D01*
X017811Y002949D02*
X017811Y002349D01*
D14*
X027829Y007031D02*
X028380Y007031D01*
X028380Y007819D02*
X027829Y007819D01*
X027829Y008606D02*
X028380Y008606D01*
D15*
X025240Y002270D03*
X009492Y013490D03*
D16*
X030582Y007056D03*
X030582Y006056D03*
X030582Y005056D03*
X030582Y004056D03*
X030582Y003056D03*
X030582Y002056D03*
D17*
X023901Y004739D03*
X005951Y002189D03*
D18*
X005251Y003539D03*
X006851Y003939D03*
X008801Y004289D03*
X008801Y005139D03*
X010451Y005589D03*
X011251Y006189D03*
X010581Y008359D03*
X010131Y008379D03*
X009931Y008779D03*
X010381Y008769D03*
X010281Y009329D03*
X010701Y009349D03*
X010521Y009769D03*
X010311Y010139D03*
X010741Y010139D03*
X011161Y010149D03*
X010941Y009769D03*
X011591Y010139D03*
X012041Y010139D03*
X012471Y010129D03*
X012891Y010129D03*
X012701Y010529D03*
X012271Y010539D03*
X011841Y010539D03*
X011391Y010529D03*
X011191Y010899D03*
X010961Y010539D03*
X010761Y010909D03*
X010321Y010919D03*
X010101Y010529D03*
X010531Y010519D03*
X009871Y010149D03*
X010071Y009769D03*
X009861Y009339D03*
X009571Y009719D03*
X009411Y010139D03*
X008961Y010089D03*
X008761Y010479D03*
X009211Y010529D03*
X009641Y010519D03*
X009441Y010919D03*
X009011Y010919D03*
X009161Y011329D03*
X008731Y011339D03*
X008571Y010929D03*
X007951Y011239D03*
X008071Y011729D03*
X007851Y012089D03*
X007621Y011729D03*
X007401Y012089D03*
X007181Y011739D03*
X006951Y012089D03*
X006731Y011729D03*
X006501Y012089D03*
X006691Y011289D03*
X007351Y011239D03*
X008511Y011719D03*
X008301Y012089D03*
X008751Y012089D03*
X008971Y011729D03*
X009201Y012089D03*
X009421Y011729D03*
X009651Y012089D03*
X009851Y011719D03*
X009631Y011319D03*
X009871Y010919D03*
X010371Y011659D03*
X010871Y011659D03*
X011371Y011659D03*
X011871Y011659D03*
X012311Y011759D03*
X012281Y011289D03*
X012481Y010919D03*
X012051Y010929D03*
X011621Y010919D03*
X012911Y010909D03*
X013341Y010909D03*
X013141Y010509D03*
X013391Y010149D03*
X013841Y010149D03*
X013601Y010519D03*
X014031Y010559D03*
X013821Y010959D03*
X014091Y011359D03*
X014161Y011799D03*
X014151Y012239D03*
X013551Y011989D03*
X013101Y011989D03*
X013301Y011589D03*
X012311Y012239D03*
X011351Y012389D03*
X011101Y012789D03*
X010801Y012389D03*
X008341Y010059D03*
X008221Y009419D03*
X008671Y008969D03*
X008701Y008339D03*
X006851Y007689D03*
X004740Y007850D03*
X004251Y008289D03*
X004251Y006989D03*
X003651Y006989D03*
X011871Y008949D03*
X012231Y008689D03*
X011941Y008359D03*
X012531Y008339D03*
X012571Y008979D03*
X014751Y007239D03*
X015201Y006689D03*
X015051Y006089D03*
X015051Y005539D03*
X015451Y005089D03*
X015751Y005539D03*
X017061Y004969D03*
X020901Y002689D03*
X025351Y008189D03*
X026771Y009459D03*
X027101Y009139D03*
X027231Y009549D03*
X026801Y009889D03*
X027221Y009989D03*
X027231Y010429D03*
X026811Y010319D03*
X026921Y010729D03*
X025301Y014189D03*
X021001Y009889D03*
X015351Y011349D03*
X014601Y011369D03*
X014801Y012189D03*
D19*
X018921Y013369D03*
X019331Y013359D03*
X019731Y013359D03*
X020151Y013359D03*
X020162Y013816D03*
X019751Y013839D03*
X019351Y013839D03*
X018951Y013839D03*
X020555Y013822D03*
X020551Y013369D03*
X021451Y013349D03*
X021861Y013349D03*
X022281Y013359D03*
X022701Y013349D03*
X023151Y013359D03*
X023001Y013839D03*
X022601Y013839D03*
X022201Y013839D03*
X021801Y013839D03*
X021401Y013839D03*
X023701Y013839D03*
X024101Y013839D03*
X024701Y013489D03*
X025101Y013489D03*
X025486Y013681D03*
X024801Y013889D03*
X026851Y013889D03*
X027151Y013689D03*
X027451Y013889D03*
X027451Y013489D03*
X027151Y013289D03*
X026851Y013489D03*
X026851Y013039D03*
X027451Y013039D03*
X027891Y013449D03*
X028351Y013439D03*
X024751Y011089D03*
X024351Y011089D03*
X023951Y011089D03*
X023501Y010889D03*
X023301Y010539D03*
X022901Y010539D03*
X022501Y010539D03*
X022301Y010889D03*
X021901Y010889D03*
X021501Y010889D03*
X021701Y010539D03*
X022101Y010539D03*
X021901Y010189D03*
X021501Y010189D03*
X021701Y009839D03*
X021451Y009489D03*
X022301Y010189D03*
X022701Y010189D03*
X023101Y010189D03*
X023501Y010189D03*
X023301Y009839D03*
X022901Y009839D03*
X022501Y009839D03*
X022801Y009439D03*
X023201Y009439D03*
X024551Y009789D03*
X024751Y009439D03*
X024601Y010539D03*
X024201Y010539D03*
X023101Y010889D03*
X022701Y010889D03*
X029851Y009789D03*
X030251Y009789D03*
X030651Y009789D03*
X031051Y009789D03*
X030851Y010139D03*
X031251Y010139D03*
X031651Y010139D03*
X031451Y009789D03*
X031251Y009439D03*
X030851Y009439D03*
X030451Y009439D03*
X030051Y009439D03*
X031651Y009439D03*
M02*
