G75*
G70*
%OFA0B0*%
%FSLAX24Y24*%
%IPPOS*%
%LPD*%
%AMOC8*
5,1,8,0,0,1.08239X$1,22.5*
%
%ADD10R,0.0277X0.0671*%
%ADD11R,0.0671X0.0277*%
%ADD12R,0.0671X0.0592*%
%ADD13C,0.0674*%
%ADD14C,0.0780*%
%ADD15R,0.0592X0.0710*%
%ADD16R,0.1025X0.1025*%
%ADD17R,0.0315X0.0197*%
%ADD18R,0.0157X0.0630*%
%ADD19R,0.2049X0.0867*%
%ADD20R,0.0552X0.0671*%
%ADD21R,0.1143X0.0710*%
%ADD22R,0.0568X0.0395*%
%ADD23R,0.0572X0.0537*%
%ADD24R,0.0552X0.0537*%
%ADD25R,0.0946X0.0533*%
%ADD26R,0.1064X0.0533*%
%ADD27R,0.0671X0.0533*%
%ADD28C,0.0595*%
%ADD29R,0.0592X0.0671*%
%ADD30C,0.0680*%
%ADD31R,0.0316X0.0946*%
%ADD32C,0.0631*%
%ADD33C,0.1064*%
%ADD34C,0.0867*%
%ADD35C,0.1181*%
%ADD36R,0.1300X0.0986*%
%ADD37R,0.2730X0.0580*%
%ADD38R,0.0671X0.0552*%
%ADD39R,0.0474X0.0631*%
%ADD40R,0.0710X0.0592*%
%ADD41R,0.1029X0.1300*%
%ADD42R,0.0832X0.0320*%
%ADD43R,0.0749X0.1576*%
%ADD44R,0.0907X0.0671*%
%ADD45R,0.0789X0.0710*%
%ADD46R,0.0631X0.0631*%
%ADD47C,0.0580*%
%ADD48C,0.0476*%
%ADD49C,0.0437*%
D10*
X014697Y004317D03*
X015012Y004317D03*
X015327Y004317D03*
X015642Y004317D03*
X015957Y004317D03*
X016272Y004317D03*
X016587Y004317D03*
X016902Y004317D03*
X017217Y004317D03*
X017532Y004317D03*
X017847Y004317D03*
X017847Y008884D03*
X017532Y008884D03*
X017217Y008884D03*
X016902Y008884D03*
X016587Y008884D03*
X016272Y008884D03*
X015957Y008884D03*
X015642Y008884D03*
X015327Y008884D03*
X015012Y008884D03*
X014697Y008884D03*
D11*
X013989Y008175D03*
X013989Y007860D03*
X013989Y007545D03*
X013989Y007230D03*
X013989Y006915D03*
X013989Y006600D03*
X013989Y006285D03*
X013989Y005970D03*
X013989Y005655D03*
X013989Y005340D03*
X013989Y005025D03*
X018556Y005025D03*
X018556Y005340D03*
X018556Y005655D03*
X018556Y005970D03*
X018556Y006285D03*
X018556Y006600D03*
X018556Y006915D03*
X018556Y007230D03*
X018556Y007545D03*
X018556Y007860D03*
X018556Y008175D03*
D12*
X019151Y009964D03*
X019151Y010713D03*
X020101Y010713D03*
X020101Y009964D03*
X012901Y004623D03*
X012901Y003954D03*
X010451Y004384D03*
X010451Y005053D03*
X009475Y005087D03*
X009475Y004339D03*
X006751Y002823D03*
X006751Y002154D03*
X021941Y002151D03*
X021941Y002821D03*
X030251Y010714D03*
X030251Y011463D03*
X031151Y011463D03*
X031151Y010714D03*
D13*
X023949Y009365D02*
X023949Y008772D01*
X022178Y008772D02*
X022178Y009365D01*
X022178Y006806D02*
X022178Y006213D01*
X023949Y006213D02*
X023949Y006806D01*
X005298Y010889D02*
X004704Y010889D01*
X004704Y011889D02*
X005298Y011889D01*
X005298Y012889D02*
X004704Y012889D01*
X004704Y013889D02*
X005298Y013889D01*
D14*
X008751Y003117D03*
X008751Y002117D03*
D15*
X019269Y002135D03*
X020056Y002135D03*
X026757Y011889D03*
X027545Y011889D03*
D16*
X013313Y011800D03*
X013313Y013533D03*
D17*
X014601Y010883D03*
X015191Y010883D03*
X015782Y010883D03*
X015782Y010056D03*
X015191Y010056D03*
X014601Y010056D03*
D18*
X014601Y010470D03*
X015191Y010470D03*
X015782Y010470D03*
D19*
X019752Y011682D03*
X022212Y011677D03*
X022212Y014020D03*
X019752Y014025D03*
D20*
X014786Y013254D03*
X014786Y012113D03*
D21*
X016304Y012919D03*
X016304Y014022D03*
X017763Y014017D03*
X017763Y012914D03*
X029051Y010840D03*
X029051Y009737D03*
D22*
X002984Y008716D03*
X002984Y008283D03*
X002984Y007850D03*
X002984Y007417D03*
X002984Y006984D03*
X002984Y006550D03*
X002984Y006117D03*
X002984Y005684D03*
D23*
X004019Y009480D03*
D24*
X007547Y009480D03*
D25*
X003161Y009637D03*
X007696Y004015D03*
D26*
X003212Y004015D03*
D27*
X007925Y005708D03*
X007929Y008771D03*
D28*
X011246Y008927D02*
X011248Y008412D01*
X013217Y008423D02*
X013214Y008937D01*
D29*
X016152Y011903D03*
X016900Y011903D03*
X019477Y008189D03*
X020225Y008189D03*
X025965Y008174D03*
X026713Y008174D03*
X026711Y007126D03*
X025963Y007126D03*
X025966Y006083D03*
X026714Y006083D03*
X020025Y003039D03*
X019277Y003039D03*
D30*
X017811Y002949D02*
X017811Y002349D01*
X016811Y002349D02*
X016811Y002949D01*
X015811Y002949D02*
X015811Y002349D01*
X014811Y002349D02*
X014811Y002949D01*
X013811Y002949D02*
X013811Y002349D01*
X012811Y002349D02*
X012811Y002949D01*
X011811Y002949D02*
X011811Y002349D01*
X010811Y002349D02*
X010811Y002949D01*
X009811Y002949D02*
X009811Y002349D01*
D31*
X010371Y011655D03*
X010871Y011655D03*
X011371Y011655D03*
X011871Y011655D03*
X011871Y013702D03*
X011371Y013702D03*
X010871Y013702D03*
X010371Y013702D03*
D32*
X027829Y008606D02*
X028380Y008606D01*
X028380Y007819D02*
X027829Y007819D01*
X027829Y007031D02*
X028380Y007031D01*
D33*
X025240Y002270D03*
X009492Y013490D03*
D34*
X003381Y013159D03*
X027031Y001979D03*
D35*
X027031Y001979D03*
X003381Y013159D03*
D36*
X007651Y013952D03*
X007651Y011039D03*
D37*
X030581Y007059D03*
X030581Y006059D03*
X030581Y005059D03*
X030581Y004059D03*
X030581Y003059D03*
X030581Y002059D03*
D38*
X010592Y006185D03*
X009450Y006185D03*
D39*
X011227Y005222D03*
X011975Y005222D03*
X011601Y004355D03*
D40*
X007751Y002882D03*
X007751Y002095D03*
X017051Y010195D03*
X017051Y010982D03*
X024901Y012745D03*
X024901Y013532D03*
D41*
X027151Y013439D03*
D42*
X028246Y013689D03*
X028246Y014189D03*
X028246Y013189D03*
X028246Y012689D03*
X026057Y012689D03*
X026057Y013189D03*
X026057Y013689D03*
X026057Y014189D03*
D43*
X025629Y010139D03*
X027873Y010139D03*
D44*
X024401Y010430D03*
X024401Y011847D03*
D45*
X023901Y012837D03*
X023901Y013940D03*
D46*
X020499Y009089D03*
X019003Y009089D03*
D47*
X023901Y004739D03*
X005951Y002189D03*
D48*
X005251Y003539D03*
X006851Y003939D03*
X008801Y004289D03*
X008801Y005139D03*
X010451Y005589D03*
X011251Y006189D03*
X010581Y008359D03*
X010131Y008379D03*
X009931Y008779D03*
X010381Y008769D03*
X010281Y009329D03*
X010701Y009349D03*
X010521Y009769D03*
X010311Y010139D03*
X010741Y010139D03*
X011161Y010149D03*
X010941Y009769D03*
X011591Y010139D03*
X012041Y010139D03*
X012471Y010129D03*
X012891Y010129D03*
X012701Y010529D03*
X012271Y010539D03*
X011841Y010539D03*
X011391Y010529D03*
X011191Y010899D03*
X010961Y010539D03*
X010761Y010909D03*
X010321Y010919D03*
X010101Y010529D03*
X010531Y010519D03*
X009871Y010149D03*
X010071Y009769D03*
X009861Y009339D03*
X009571Y009719D03*
X009411Y010139D03*
X008961Y010089D03*
X008761Y010479D03*
X009211Y010529D03*
X009641Y010519D03*
X009441Y010919D03*
X009011Y010919D03*
X009161Y011329D03*
X008731Y011339D03*
X008571Y010929D03*
X007951Y011239D03*
X008071Y011729D03*
X007851Y012089D03*
X007621Y011729D03*
X007401Y012089D03*
X007181Y011739D03*
X006951Y012089D03*
X006731Y011729D03*
X006501Y012089D03*
X006691Y011289D03*
X007351Y011239D03*
X008511Y011719D03*
X008301Y012089D03*
X008751Y012089D03*
X008971Y011729D03*
X009201Y012089D03*
X009421Y011729D03*
X009651Y012089D03*
X009851Y011719D03*
X009631Y011319D03*
X009871Y010919D03*
X010371Y011659D03*
X010871Y011659D03*
X011371Y011659D03*
X011871Y011659D03*
X012311Y011759D03*
X012281Y011289D03*
X012481Y010919D03*
X012051Y010929D03*
X011621Y010919D03*
X012911Y010909D03*
X013341Y010909D03*
X013141Y010509D03*
X013391Y010149D03*
X013841Y010149D03*
X013601Y010519D03*
X014031Y010559D03*
X013821Y010959D03*
X014091Y011359D03*
X014161Y011799D03*
X014151Y012239D03*
X013551Y011989D03*
X013101Y011989D03*
X013301Y011589D03*
X012311Y012239D03*
X011351Y012389D03*
X011101Y012789D03*
X010801Y012389D03*
X008341Y010059D03*
X008221Y009419D03*
X008671Y008969D03*
X008701Y008339D03*
X006851Y007689D03*
X004740Y007850D03*
X004251Y008289D03*
X004251Y006989D03*
X003651Y006989D03*
X011871Y008949D03*
X012231Y008689D03*
X011941Y008359D03*
X012531Y008339D03*
X012571Y008979D03*
X014751Y007239D03*
X015201Y006689D03*
X015051Y006089D03*
X015051Y005539D03*
X015451Y005089D03*
X015751Y005539D03*
X017061Y004969D03*
X020901Y002689D03*
X025351Y008189D03*
X026771Y009459D03*
X027101Y009139D03*
X027231Y009549D03*
X026801Y009889D03*
X027221Y009989D03*
X027231Y010429D03*
X026811Y010319D03*
X026921Y010729D03*
X025301Y014189D03*
X021001Y009889D03*
X015351Y011349D03*
X014601Y011369D03*
X014801Y012189D03*
D49*
X018921Y013369D03*
X019331Y013359D03*
X019731Y013359D03*
X020151Y013359D03*
X020162Y013816D03*
X019751Y013839D03*
X019351Y013839D03*
X018951Y013839D03*
X020555Y013822D03*
X020551Y013369D03*
X021451Y013349D03*
X021861Y013349D03*
X022281Y013359D03*
X022701Y013349D03*
X023151Y013359D03*
X023001Y013839D03*
X022601Y013839D03*
X022201Y013839D03*
X021801Y013839D03*
X021401Y013839D03*
X023701Y013839D03*
X024101Y013839D03*
X024701Y013489D03*
X025101Y013489D03*
X025486Y013681D03*
X024801Y013889D03*
X026851Y013889D03*
X027151Y013689D03*
X027451Y013889D03*
X027451Y013489D03*
X027151Y013289D03*
X026851Y013489D03*
X026851Y013039D03*
X027451Y013039D03*
X027891Y013449D03*
X028351Y013439D03*
X024751Y011089D03*
X024351Y011089D03*
X023951Y011089D03*
X023501Y010889D03*
X023301Y010539D03*
X022901Y010539D03*
X022501Y010539D03*
X022301Y010889D03*
X021901Y010889D03*
X021501Y010889D03*
X021701Y010539D03*
X022101Y010539D03*
X021901Y010189D03*
X021501Y010189D03*
X021701Y009839D03*
X021451Y009489D03*
X022301Y010189D03*
X022701Y010189D03*
X023101Y010189D03*
X023501Y010189D03*
X023301Y009839D03*
X022901Y009839D03*
X022501Y009839D03*
X022801Y009439D03*
X023201Y009439D03*
X024551Y009789D03*
X024751Y009439D03*
X024601Y010539D03*
X024201Y010539D03*
X023101Y010889D03*
X022701Y010889D03*
X029851Y009789D03*
X030251Y009789D03*
X030651Y009789D03*
X031051Y009789D03*
X030851Y010139D03*
X031251Y010139D03*
X031651Y010139D03*
X031451Y009789D03*
X031251Y009439D03*
X030851Y009439D03*
X030451Y009439D03*
X030051Y009439D03*
X031651Y009439D03*
M02*
