G75*
G70*
%OFA0B0*%
%FSLAX24Y24*%
%IPPOS*%
%LPD*%
%AMOC8*
5,1,8,0,0,1.08239X$1,22.5*
%
%ADD10R,0.0197X0.0591*%
%ADD11R,0.0591X0.0197*%
%ADD12R,0.0591X0.0512*%
%ADD13C,0.0594*%
%ADD14C,0.0700*%
%ADD15R,0.0512X0.0630*%
%ADD16R,0.0945X0.0945*%
%ADD17R,0.0315X0.1024*%
%ADD18R,0.1969X0.0787*%
%ADD19R,0.0472X0.0591*%
%ADD20R,0.1063X0.0630*%
%ADD21R,0.0488X0.0315*%
%ADD22C,0.0004*%
%ADD23R,0.0492X0.0457*%
%ADD24R,0.0472X0.0457*%
%ADD25R,0.0866X0.0453*%
%ADD26R,0.0984X0.0453*%
%ADD27R,0.0591X0.0453*%
%ADD28C,0.0515*%
%ADD29R,0.0512X0.0591*%
%ADD30C,0.0600*%
%ADD31R,0.0236X0.0866*%
%ADD32C,0.0551*%
%ADD33C,0.0000*%
%ADD34C,0.0080*%
%ADD35C,0.0787*%
%ADD36R,0.1220X0.0906*%
%ADD37R,0.2650X0.0500*%
%ADD38R,0.0591X0.0472*%
%ADD39R,0.0394X0.0551*%
%ADD40R,0.0630X0.0512*%
%ADD41R,0.0949X0.1220*%
%ADD42R,0.0752X0.0240*%
%ADD43R,0.0669X0.1496*%
%ADD44R,0.0827X0.0591*%
%ADD45R,0.0709X0.0630*%
%ADD46R,0.0551X0.0551*%
%ADD47C,0.0160*%
%ADD48C,0.0320*%
%ADD49C,0.0500*%
%ADD50C,0.0396*%
%ADD51C,0.0100*%
%ADD52C,0.0357*%
%ADD53C,0.0120*%
D10*
X014697Y004317D03*
X015012Y004317D03*
X015327Y004317D03*
X015642Y004317D03*
X015957Y004317D03*
X016272Y004317D03*
X016587Y004317D03*
X016902Y004317D03*
X017217Y004317D03*
X017532Y004317D03*
X017847Y004317D03*
X017847Y008884D03*
X017532Y008884D03*
X017217Y008884D03*
X016902Y008884D03*
X016587Y008884D03*
X016272Y008884D03*
X015957Y008884D03*
X015642Y008884D03*
X015327Y008884D03*
X015012Y008884D03*
X014697Y008884D03*
D11*
X013989Y008175D03*
X013989Y007860D03*
X013989Y007545D03*
X013989Y007230D03*
X013989Y006915D03*
X013989Y006600D03*
X013989Y006285D03*
X013989Y005970D03*
X013989Y005655D03*
X013989Y005340D03*
X013989Y005025D03*
X018556Y005025D03*
X018556Y005340D03*
X018556Y005655D03*
X018556Y005970D03*
X018556Y006285D03*
X018556Y006600D03*
X018556Y006915D03*
X018556Y007230D03*
X018556Y007545D03*
X018556Y007860D03*
X018556Y008175D03*
D12*
X019151Y009964D03*
X019151Y010713D03*
X020101Y010713D03*
X020101Y009964D03*
X012901Y004623D03*
X012901Y003954D03*
X010451Y004384D03*
X010451Y005053D03*
X009475Y005087D03*
X009475Y004339D03*
X006751Y002823D03*
X006751Y002154D03*
X021941Y002151D03*
X021941Y002821D03*
X030251Y010714D03*
X030251Y011463D03*
X031151Y011463D03*
X031151Y010714D03*
D13*
X023949Y009365D02*
X023949Y008772D01*
X022178Y008772D02*
X022178Y009365D01*
X022178Y006806D02*
X022178Y006213D01*
X023949Y006213D02*
X023949Y006806D01*
X005298Y010889D02*
X004704Y010889D01*
X004704Y011889D02*
X005298Y011889D01*
X005298Y012889D02*
X004704Y012889D01*
X004704Y013889D02*
X005298Y013889D01*
D14*
X008751Y003117D03*
X008751Y002117D03*
D15*
X019269Y002135D03*
X020056Y002135D03*
X026757Y011889D03*
X027545Y011889D03*
D16*
X013313Y011800D03*
X013313Y013533D03*
D17*
X014601Y010470D03*
X015191Y010470D03*
X015782Y010470D03*
D18*
X019752Y011682D03*
X022212Y011677D03*
X022212Y014020D03*
X019752Y014025D03*
D19*
X014786Y013254D03*
X014786Y012113D03*
D20*
X016304Y012919D03*
X016304Y014022D03*
X017763Y014017D03*
X017763Y012914D03*
X029051Y010840D03*
X029051Y009737D03*
D21*
X002984Y008716D03*
X002984Y008283D03*
X002984Y007850D03*
X002984Y007417D03*
X002984Y006984D03*
X002984Y006550D03*
X002984Y006117D03*
X002984Y005684D03*
D22*
X008181Y010015D02*
X008181Y010031D01*
D23*
X004019Y009480D03*
D24*
X007547Y009480D03*
D25*
X003161Y009637D03*
X007696Y004015D03*
D26*
X003212Y004015D03*
D27*
X007925Y005708D03*
X007929Y008771D03*
D28*
X011246Y008927D02*
X011248Y008412D01*
X013217Y008423D02*
X013214Y008937D01*
D29*
X016152Y011903D03*
X016900Y011903D03*
X019477Y008189D03*
X020225Y008189D03*
X025965Y008174D03*
X026713Y008174D03*
X026711Y007126D03*
X025963Y007126D03*
X025966Y006083D03*
X026714Y006083D03*
X020025Y003039D03*
X019277Y003039D03*
D30*
X017811Y002949D02*
X017811Y002349D01*
X016811Y002349D02*
X016811Y002949D01*
X015811Y002949D02*
X015811Y002349D01*
X014811Y002349D02*
X014811Y002949D01*
X013811Y002949D02*
X013811Y002349D01*
X012811Y002349D02*
X012811Y002949D01*
X011811Y002949D02*
X011811Y002349D01*
X010811Y002349D02*
X010811Y002949D01*
X009811Y002949D02*
X009811Y002349D01*
D31*
X010371Y011655D03*
X010871Y011655D03*
X011371Y011655D03*
X011871Y011655D03*
X011871Y013702D03*
X011371Y013702D03*
X010871Y013702D03*
X010371Y013702D03*
D32*
X027829Y008606D02*
X028380Y008606D01*
X028380Y007819D02*
X027829Y007819D01*
X027829Y007031D02*
X028380Y007031D01*
D33*
X005260Y002466D02*
X005253Y002536D01*
X005242Y002605D01*
X005227Y002673D01*
X005209Y002741D01*
X005187Y002807D01*
X005161Y002872D01*
X005132Y002936D01*
X005099Y002998D01*
X005063Y003057D01*
X005024Y003115D01*
X004982Y003171D01*
X004936Y003224D01*
X004888Y003275D01*
X004837Y003323D01*
X004784Y003369D01*
X004728Y003411D01*
X004670Y003450D01*
X004611Y003486D01*
X004549Y003519D01*
X004485Y003548D01*
X004420Y003574D01*
X004354Y003596D01*
X004286Y003614D01*
X004218Y003629D01*
X004149Y003640D01*
X004079Y003647D01*
X004079Y003648D02*
X002701Y003648D01*
X002701Y014671D01*
X029473Y014671D01*
X029473Y013490D01*
X029473Y013293D01*
X029473Y013490D02*
X029469Y013421D01*
X029470Y013352D01*
X029474Y013282D01*
X029482Y013213D01*
X029493Y013145D01*
X029508Y013077D01*
X029527Y013010D01*
X029550Y012944D01*
X029576Y012880D01*
X029605Y012817D01*
X029638Y012756D01*
X029674Y012696D01*
X029713Y012639D01*
X029756Y012584D01*
X029801Y012531D01*
X029849Y012481D01*
X029900Y012433D01*
X029953Y012388D01*
X030008Y012347D01*
X030066Y012308D01*
X030126Y012272D01*
X030187Y012240D01*
X030250Y012211D01*
X030315Y012186D01*
X030381Y012164D01*
X030448Y012146D01*
X030516Y012131D01*
X030584Y012120D01*
X030654Y012113D01*
X030654Y012112D02*
X032032Y012112D01*
X032032Y009041D01*
X029374Y009041D01*
X029374Y008018D01*
X029382Y008010D02*
X032032Y008010D01*
X032032Y001089D01*
X005260Y001089D01*
X005260Y002466D01*
X009000Y013490D02*
X009002Y013534D01*
X009008Y013578D01*
X009018Y013621D01*
X009031Y013663D01*
X009049Y013703D01*
X009070Y013742D01*
X009094Y013779D01*
X009121Y013814D01*
X009152Y013846D01*
X009185Y013875D01*
X009221Y013901D01*
X009259Y013923D01*
X009299Y013942D01*
X009340Y013958D01*
X009383Y013970D01*
X009426Y013978D01*
X009470Y013982D01*
X009514Y013982D01*
X009558Y013978D01*
X009601Y013970D01*
X009644Y013958D01*
X009685Y013942D01*
X009725Y013923D01*
X009763Y013901D01*
X009799Y013875D01*
X009832Y013846D01*
X009863Y013814D01*
X009890Y013779D01*
X009914Y013742D01*
X009935Y013703D01*
X009953Y013663D01*
X009966Y013621D01*
X009976Y013578D01*
X009982Y013534D01*
X009984Y013490D01*
X009982Y013446D01*
X009976Y013402D01*
X009966Y013359D01*
X009953Y013317D01*
X009935Y013277D01*
X009914Y013238D01*
X009890Y013201D01*
X009863Y013166D01*
X009832Y013134D01*
X009799Y013105D01*
X009763Y013079D01*
X009725Y013057D01*
X009685Y013038D01*
X009644Y013022D01*
X009601Y013010D01*
X009558Y013002D01*
X009514Y012998D01*
X009470Y012998D01*
X009426Y013002D01*
X009383Y013010D01*
X009340Y013022D01*
X009299Y013038D01*
X009259Y013057D01*
X009221Y013079D01*
X009185Y013105D01*
X009152Y013134D01*
X009121Y013166D01*
X009094Y013201D01*
X009070Y013238D01*
X009049Y013277D01*
X009031Y013317D01*
X009018Y013359D01*
X009008Y013402D01*
X009002Y013446D01*
X009000Y013490D01*
X024748Y002270D02*
X024750Y002314D01*
X024756Y002358D01*
X024766Y002401D01*
X024779Y002443D01*
X024797Y002483D01*
X024818Y002522D01*
X024842Y002559D01*
X024869Y002594D01*
X024900Y002626D01*
X024933Y002655D01*
X024969Y002681D01*
X025007Y002703D01*
X025047Y002722D01*
X025088Y002738D01*
X025131Y002750D01*
X025174Y002758D01*
X025218Y002762D01*
X025262Y002762D01*
X025306Y002758D01*
X025349Y002750D01*
X025392Y002738D01*
X025433Y002722D01*
X025473Y002703D01*
X025511Y002681D01*
X025547Y002655D01*
X025580Y002626D01*
X025611Y002594D01*
X025638Y002559D01*
X025662Y002522D01*
X025683Y002483D01*
X025701Y002443D01*
X025714Y002401D01*
X025724Y002358D01*
X025730Y002314D01*
X025732Y002270D01*
X025730Y002226D01*
X025724Y002182D01*
X025714Y002139D01*
X025701Y002097D01*
X025683Y002057D01*
X025662Y002018D01*
X025638Y001981D01*
X025611Y001946D01*
X025580Y001914D01*
X025547Y001885D01*
X025511Y001859D01*
X025473Y001837D01*
X025433Y001818D01*
X025392Y001802D01*
X025349Y001790D01*
X025306Y001782D01*
X025262Y001778D01*
X025218Y001778D01*
X025174Y001782D01*
X025131Y001790D01*
X025088Y001802D01*
X025047Y001818D01*
X025007Y001837D01*
X024969Y001859D01*
X024933Y001885D01*
X024900Y001914D01*
X024869Y001946D01*
X024842Y001981D01*
X024818Y002018D01*
X024797Y002057D01*
X024779Y002097D01*
X024766Y002139D01*
X024756Y002182D01*
X024750Y002226D01*
X024748Y002270D01*
D34*
X029141Y014119D02*
X029141Y014519D01*
X028941Y014319D02*
X029341Y014319D01*
X003361Y014319D02*
X002961Y014319D01*
X003161Y014519D02*
X003161Y014119D01*
D35*
X003381Y013159D03*
X027031Y001979D03*
D36*
X007651Y011039D03*
X007651Y013952D03*
D37*
X030581Y007059D03*
X030581Y006059D03*
X030581Y005059D03*
X030581Y004059D03*
X030581Y003059D03*
X030581Y002059D03*
D38*
X010592Y006185D03*
X009450Y006185D03*
D39*
X011227Y005222D03*
X011975Y005222D03*
X011601Y004355D03*
D40*
X007751Y002882D03*
X007751Y002095D03*
X017051Y010195D03*
X017051Y010982D03*
X024901Y012745D03*
X024901Y013532D03*
D41*
X027151Y013439D03*
D42*
X028246Y013689D03*
X028246Y014189D03*
X028246Y013189D03*
X028246Y012689D03*
X026057Y012689D03*
X026057Y013189D03*
X026057Y013689D03*
X026057Y014189D03*
D43*
X025629Y010139D03*
X027873Y010139D03*
D44*
X024401Y010430D03*
X024401Y011847D03*
D45*
X023901Y012837D03*
X023901Y013940D03*
D46*
X020499Y009089D03*
X019003Y009089D03*
D47*
X019151Y009237D01*
X019151Y009964D01*
X020101Y009964D01*
X020925Y009964D01*
X021001Y009889D01*
X020977Y009864D01*
X020499Y009089D02*
X022158Y009089D01*
X022178Y009068D01*
X021401Y007889D02*
X024751Y007889D01*
X025501Y007139D01*
X025951Y007139D01*
X025963Y007126D01*
X026711Y007126D02*
X026724Y007139D01*
X027101Y007139D01*
X027301Y007339D01*
X027301Y008389D01*
X027501Y008589D01*
X028087Y008589D01*
X028105Y008606D01*
X028105Y007839D02*
X028105Y007819D01*
X028105Y007839D02*
X028951Y007839D01*
X028951Y009637D01*
X029051Y009737D01*
X027951Y011189D02*
X026501Y011189D01*
X026301Y010989D01*
X026301Y009339D01*
X026051Y009089D01*
X025301Y009089D01*
X024401Y008189D01*
X020225Y008189D01*
X021058Y007545D02*
X021401Y007889D01*
X021601Y007589D02*
X024151Y007589D01*
X025701Y006039D01*
X025922Y006039D01*
X025966Y006083D01*
X026714Y006083D02*
X027095Y006083D01*
X027401Y006389D01*
X027401Y006889D01*
X027551Y007039D01*
X028097Y007039D01*
X028105Y007031D01*
X028951Y006239D02*
X029151Y006039D01*
X030561Y006039D01*
X030577Y006054D02*
X030581Y006059D01*
X030601Y005089D02*
X025551Y005089D01*
X024130Y006509D01*
X023949Y006509D01*
X023949Y007039D01*
X023699Y007289D01*
X021901Y007289D01*
X021528Y006915D01*
X018556Y006915D01*
X018556Y006600D02*
X020789Y006600D01*
X021801Y005589D01*
X024501Y005589D01*
X025351Y004739D01*
X027151Y004739D01*
X027801Y004089D01*
X030551Y004089D01*
X030581Y004059D01*
X030551Y003089D02*
X028201Y003089D01*
X026901Y004389D01*
X025151Y004389D01*
X024351Y005189D01*
X021701Y005189D01*
X020604Y006285D01*
X018556Y006285D01*
X018556Y005970D02*
X020419Y005970D01*
X021951Y004439D01*
X021951Y002866D01*
X021941Y002821D01*
X021941Y002151D02*
X021941Y002135D01*
X020851Y002135D01*
X020901Y002185D01*
X020901Y002689D01*
X020851Y002135D02*
X020056Y002135D01*
X020025Y002135D01*
X020025Y003039D01*
X019277Y003039D02*
X019277Y002194D01*
X019328Y002194D01*
X019269Y002135D01*
X019269Y001506D01*
X019101Y001439D01*
X017811Y002649D02*
X017811Y003429D01*
X017601Y003639D01*
X016951Y003639D01*
X016601Y003989D01*
X016601Y004303D01*
X016587Y004317D01*
X016587Y006903D01*
X016272Y007218D01*
X016272Y008884D01*
X016272Y009209D01*
X017051Y009989D01*
X017051Y010195D01*
X016401Y009839D02*
X016401Y010989D01*
X016407Y010982D01*
X017051Y010982D01*
X016401Y010989D02*
X016401Y011139D01*
X016201Y011339D01*
X015311Y011339D01*
X015201Y011229D01*
X015201Y010480D01*
X015191Y010470D01*
X015187Y010474D01*
X015351Y010489D02*
X015351Y011349D01*
X015851Y011889D02*
X015001Y012739D01*
X011751Y012739D01*
X011371Y013119D01*
X011371Y013702D01*
X007651Y011039D02*
X007351Y011239D01*
X007251Y011039D01*
X007001Y010289D02*
X006401Y010889D01*
X005001Y010889D01*
X005251Y010039D02*
X004351Y010039D01*
X004001Y010389D01*
X004001Y011689D01*
X004201Y011889D01*
X005001Y011889D01*
X007001Y010289D02*
X008101Y010289D01*
X008331Y010059D01*
X008341Y010059D01*
X007547Y009480D02*
X007506Y009439D01*
X005851Y009439D01*
X005251Y010039D01*
X005360Y009480D02*
X005681Y009159D01*
X006981Y009159D01*
X007201Y008939D01*
X007201Y008039D01*
X007380Y007860D01*
X008701Y007860D01*
X008701Y008339D01*
X008701Y007860D02*
X013989Y007860D01*
X013989Y007545D02*
X006944Y007545D01*
X006851Y007689D01*
X007051Y007239D02*
X006751Y006939D01*
X006751Y005339D01*
X006601Y005189D01*
X005101Y005189D01*
X004951Y005339D01*
X004951Y007189D01*
X004723Y007417D01*
X002984Y007417D01*
X002984Y007850D02*
X004740Y007850D01*
X004751Y007839D01*
X004345Y008283D02*
X004251Y008289D01*
X004345Y008283D02*
X002984Y008283D01*
X004019Y009480D02*
X005360Y009480D01*
X007051Y007239D02*
X013980Y007239D01*
X013989Y007230D01*
X013989Y006915D02*
X014428Y006915D01*
X014751Y007239D01*
X015201Y006689D02*
X015113Y006600D01*
X013989Y006600D01*
X013989Y006285D02*
X014854Y006285D01*
X015051Y006089D01*
X014619Y005970D02*
X015051Y005539D01*
X015451Y005089D02*
X015642Y004897D01*
X015642Y004317D01*
X015327Y004317D02*
X015318Y004326D01*
X015318Y004669D01*
X015099Y004889D01*
X014551Y004889D01*
X013616Y003954D01*
X012901Y003954D01*
X012901Y004623D02*
X012901Y004989D01*
X012701Y005189D01*
X012008Y005189D01*
X011975Y005222D01*
X011227Y005222D02*
X011227Y004764D01*
X010851Y004389D01*
X010456Y004389D01*
X010451Y004384D01*
X010496Y004339D01*
X010451Y004384D02*
X010211Y004339D01*
X009475Y004339D01*
X009425Y004289D01*
X008801Y004289D01*
X009475Y004298D02*
X009475Y004339D01*
X009475Y005087D02*
X008853Y005087D01*
X008801Y005139D01*
X009475Y005087D02*
X009475Y006160D01*
X009450Y006185D01*
X010451Y005589D02*
X010451Y005053D01*
X011601Y004355D02*
X011601Y003889D01*
X011451Y003739D01*
X008401Y003739D01*
X008201Y003539D01*
X007751Y003539D01*
X007751Y002882D01*
X007751Y003539D02*
X006751Y003539D01*
X006751Y002823D01*
X006751Y002154D02*
X006751Y001489D01*
X006801Y001439D01*
X007751Y001489D02*
X007751Y002095D01*
X007751Y001489D02*
X007801Y001439D01*
X008751Y002117D02*
X009580Y002117D01*
X009801Y002339D01*
X009801Y002639D01*
X009811Y002649D01*
X009030Y003117D02*
X009351Y003439D01*
X010501Y003439D01*
X010801Y003139D01*
X010801Y002659D01*
X010811Y002649D01*
X009030Y003117D02*
X008751Y003117D01*
X006751Y003539D02*
X005251Y003539D01*
X004701Y003939D02*
X006851Y003939D01*
X006901Y004589D02*
X007351Y005039D01*
X007351Y006489D01*
X007501Y006639D01*
X012901Y006639D01*
X013151Y006389D01*
X013151Y005539D01*
X013351Y005339D01*
X013987Y005339D01*
X013989Y005340D01*
X013985Y005344D01*
X013989Y005655D02*
X013584Y005655D01*
X013451Y005789D01*
X013451Y006639D01*
X013151Y006939D01*
X007301Y006939D01*
X007051Y006689D01*
X007051Y005189D01*
X006751Y004889D01*
X004901Y004889D01*
X004651Y005139D01*
X004651Y006789D01*
X004451Y006989D01*
X004251Y006989D01*
X004139Y006550D02*
X004351Y006339D01*
X004351Y005039D01*
X004801Y004589D01*
X006901Y004589D01*
X004701Y003939D02*
X004051Y004589D01*
X004051Y005939D01*
X003872Y006117D01*
X002984Y006117D01*
X002984Y006550D02*
X004139Y006550D01*
X003651Y006989D02*
X003646Y006984D01*
X002984Y006984D01*
X010592Y006185D02*
X011147Y006185D01*
X011251Y006189D01*
X013989Y005970D02*
X014619Y005970D01*
X015751Y005539D02*
X015957Y005333D01*
X015957Y004317D01*
X016272Y004317D02*
X016275Y004314D01*
X016275Y003881D01*
X016811Y003345D01*
X016811Y002649D01*
X015811Y002649D02*
X015811Y002956D01*
X015015Y003751D01*
X015015Y004314D01*
X015012Y004317D01*
X014697Y004317D02*
X014696Y004316D01*
X014696Y003766D01*
X013811Y002881D01*
X013811Y002649D01*
X016272Y004317D02*
X016272Y006768D01*
X015951Y007089D01*
X015951Y008878D01*
X015957Y008884D01*
X015957Y009394D01*
X016401Y009839D01*
X015787Y009649D02*
X015787Y010464D01*
X015782Y010470D01*
X014601Y010470D02*
X014585Y010454D01*
X014585Y009774D01*
X014671Y009689D01*
X015051Y009689D01*
X015327Y009412D01*
X015327Y008884D01*
X015012Y008884D02*
X015012Y009287D01*
X014881Y009419D01*
X013351Y009419D01*
X013211Y009279D01*
X013211Y008684D01*
X013216Y008680D01*
X015642Y008884D02*
X015642Y009505D01*
X015787Y009649D01*
X016902Y009339D02*
X016902Y008884D01*
X016902Y009339D02*
X017051Y009489D01*
X017901Y009489D01*
X018251Y009839D01*
X018251Y011489D01*
X017851Y011889D01*
X016914Y011889D01*
X016900Y011903D01*
X016152Y011903D02*
X016138Y011889D01*
X015851Y011889D01*
X019151Y011589D02*
X019251Y011689D01*
X019201Y011689D01*
X019746Y011689D02*
X019752Y011682D01*
X019477Y008189D02*
X019464Y008175D01*
X018556Y008175D01*
X018556Y007545D02*
X021058Y007545D01*
X021243Y007230D02*
X021601Y007589D01*
X021243Y007230D02*
X018556Y007230D01*
X017061Y004969D02*
X016902Y004809D01*
X016902Y004317D01*
X023901Y004039D02*
X026701Y004039D01*
X028681Y002059D01*
X030581Y002059D01*
X030581Y003059D02*
X030551Y003089D01*
X030581Y005059D02*
X030601Y005089D01*
X028951Y006239D02*
X028951Y007839D01*
X025965Y008174D02*
X025951Y008189D01*
X025351Y008189D01*
X027951Y011189D02*
X028301Y011539D01*
X028901Y011539D01*
X030301Y011539D01*
X030251Y011489D01*
X030251Y011463D01*
X030301Y011539D02*
X031075Y011539D01*
X031151Y011463D01*
X028901Y011539D02*
X028901Y014039D01*
X028751Y014189D01*
X028246Y014189D01*
X028246Y013689D02*
X027661Y013689D01*
X027661Y013189D01*
X028246Y013189D01*
X027781Y013189D01*
X027781Y013569D01*
X028501Y013569D01*
X028501Y013449D01*
X028501Y013329D01*
X027451Y013329D01*
X027451Y013489D01*
X027451Y013689D02*
X027661Y013689D01*
X027451Y013689D02*
X027451Y013889D01*
X027451Y013689D02*
X027421Y013689D01*
X027001Y013739D02*
X026951Y013689D01*
X026901Y013689D01*
X027151Y013289D02*
X027151Y013189D01*
X027661Y013189D01*
X027901Y013209D02*
X027901Y013449D01*
X028501Y013449D01*
X028501Y013329D02*
X028501Y013209D01*
X027901Y013209D01*
X026301Y014189D02*
X026057Y014189D01*
X025301Y014189D01*
X026057Y014189D02*
X026151Y014189D01*
D48*
X026057Y013689D02*
X024601Y013689D01*
X024351Y013939D01*
X022651Y013939D01*
X022651Y013940D01*
X023901Y013940D01*
X023971Y014020D01*
X023901Y012887D02*
X023901Y012837D01*
X024809Y012837D01*
X024901Y012745D01*
X024945Y012789D01*
X025201Y012789D01*
X025601Y013189D01*
X026057Y013189D01*
X026057Y013689D02*
X026901Y013689D01*
X027151Y013439D01*
X027151Y013489D01*
X027401Y013739D01*
X028301Y012633D02*
X028301Y012089D01*
X028101Y011889D01*
X027545Y011889D01*
X026757Y011889D02*
X026101Y011889D01*
X026001Y011989D01*
X026001Y012633D01*
X025701Y011889D02*
X024442Y011889D01*
X024401Y011847D01*
X024901Y012745D02*
X024995Y012739D01*
X023901Y012887D02*
X022201Y012887D01*
X022201Y011677D01*
X022212Y011677D01*
X021501Y010739D02*
X020127Y010739D01*
X020101Y010713D01*
X019151Y010713D02*
X019151Y011589D01*
X019746Y011689D02*
X019751Y011689D01*
X019751Y012887D01*
X022201Y012887D01*
X022243Y013989D02*
X022212Y014020D01*
X022243Y013989D02*
X022601Y013989D01*
X022565Y014025D01*
X022651Y013939D02*
X019101Y013939D01*
X019051Y013889D01*
X019051Y014017D01*
X017763Y014017D01*
X017758Y014022D01*
X016304Y014022D01*
X016287Y014039D01*
X014301Y014039D01*
X013795Y013533D01*
X013313Y013533D01*
X013143Y013702D01*
X011871Y013702D01*
X010871Y013702D02*
X010871Y013259D01*
X010251Y012639D01*
X006251Y012639D01*
X006001Y012889D01*
X005001Y012889D01*
X005001Y013889D02*
X007651Y013889D01*
X007651Y013952D01*
X009867Y011655D02*
X009271Y011109D01*
X007651Y011039D01*
X009867Y011655D02*
X010371Y011655D01*
X010871Y011655D01*
X011371Y011655D01*
X011871Y011655D01*
X013313Y011655D01*
X013313Y011800D01*
X013913Y011800D01*
X014201Y012089D01*
X014762Y012089D01*
X014786Y012113D01*
X015351Y011379D02*
X015351Y011349D01*
X015695Y012914D02*
X015361Y013249D01*
X014792Y013249D01*
X014786Y013254D01*
X015695Y012914D02*
X016309Y012914D01*
X016304Y012919D01*
X016309Y012914D02*
X017763Y012914D01*
X017736Y012887D01*
X019751Y012887D01*
X019744Y014017D02*
X019179Y014017D01*
X019101Y013939D01*
X019744Y014017D02*
X019752Y014025D01*
X017736Y012887D02*
X017502Y012887D01*
X017501Y012889D01*
X021501Y010739D02*
X021810Y010430D01*
X022201Y010430D01*
X022158Y010386D01*
X022158Y009089D01*
X022201Y010430D02*
X024401Y010430D01*
X025629Y010139D02*
X025629Y011816D01*
X025701Y011889D01*
X026757Y011889D01*
X027851Y010689D02*
X029051Y010689D01*
X029051Y010840D01*
X029176Y010714D01*
X030251Y010714D01*
X031151Y010714D02*
X031151Y010139D01*
X030750Y009737D01*
X029051Y009737D01*
X027873Y010139D02*
X027851Y010161D01*
X027851Y010589D01*
X027801Y010639D01*
X027851Y010589D02*
X027851Y010689D01*
X027101Y009139D02*
X026713Y008751D01*
X026713Y008174D01*
X030561Y006039D02*
X030581Y006059D01*
X023901Y004739D02*
X023901Y004039D01*
X023901Y001789D01*
X023551Y001439D01*
X019101Y001439D01*
X018201Y001439D01*
X017801Y001839D01*
X017801Y002639D01*
X017811Y002649D01*
X016811Y002649D02*
X016801Y002639D01*
X016801Y001789D01*
X016451Y001439D01*
X007801Y001439D01*
X006801Y001439D01*
X006251Y001439D01*
X005949Y001741D01*
X005949Y002186D01*
X005951Y002189D01*
D49*
X005951Y002189D03*
X023901Y004739D03*
D50*
X020901Y002689D03*
X017061Y004969D03*
X015751Y005539D03*
X015451Y005089D03*
X015051Y005539D03*
X015051Y006089D03*
X015201Y006689D03*
X014751Y007239D03*
X012531Y008339D03*
X012231Y008689D03*
X011941Y008359D03*
X011871Y008949D03*
X012571Y008979D03*
X012471Y010129D03*
X012891Y010129D03*
X012701Y010529D03*
X012271Y010539D03*
X011841Y010539D03*
X011391Y010529D03*
X011191Y010899D03*
X010961Y010539D03*
X010761Y010909D03*
X010321Y010919D03*
X010101Y010529D03*
X010531Y010519D03*
X010741Y010139D03*
X011161Y010149D03*
X010941Y009769D03*
X010521Y009769D03*
X010311Y010139D03*
X010071Y009769D03*
X009871Y010149D03*
X009411Y010139D03*
X009571Y009719D03*
X008961Y010089D03*
X008761Y010479D03*
X009211Y010529D03*
X009641Y010519D03*
X009441Y010919D03*
X009011Y010919D03*
X009161Y011329D03*
X008731Y011339D03*
X008571Y010929D03*
X007951Y011239D03*
X008071Y011729D03*
X007851Y012089D03*
X007621Y011729D03*
X007401Y012089D03*
X007181Y011739D03*
X006951Y012089D03*
X006731Y011729D03*
X006501Y012089D03*
X006691Y011289D03*
X007351Y011239D03*
X008511Y011719D03*
X008301Y012089D03*
X008751Y012089D03*
X008971Y011729D03*
X009201Y012089D03*
X009421Y011729D03*
X009651Y012089D03*
X009851Y011719D03*
X009631Y011319D03*
X009871Y010919D03*
X010371Y011659D03*
X010871Y011659D03*
X011371Y011659D03*
X011871Y011659D03*
X012311Y011759D03*
X012281Y011289D03*
X012481Y010919D03*
X012051Y010929D03*
X011621Y010919D03*
X011591Y010139D03*
X012041Y010139D03*
X013141Y010509D03*
X013341Y010909D03*
X012911Y010909D03*
X013601Y010519D03*
X014031Y010559D03*
X013821Y010959D03*
X014091Y011359D03*
X014161Y011799D03*
X014151Y012239D03*
X013551Y011989D03*
X013101Y011989D03*
X013301Y011589D03*
X012311Y012239D03*
X011351Y012389D03*
X011101Y012789D03*
X010801Y012389D03*
X008341Y010059D03*
X008221Y009419D03*
X008671Y008969D03*
X008701Y008339D03*
X009931Y008779D03*
X010381Y008769D03*
X010581Y008359D03*
X010131Y008379D03*
X010281Y009329D03*
X010701Y009349D03*
X009861Y009339D03*
X006851Y007689D03*
X004740Y007850D03*
X004251Y008289D03*
X004251Y006989D03*
X003651Y006989D03*
X006851Y003939D03*
X005251Y003539D03*
X008801Y004289D03*
X008801Y005139D03*
X010451Y005589D03*
X011251Y006189D03*
X013391Y010149D03*
X013841Y010149D03*
X014601Y011369D03*
X015351Y011349D03*
X014801Y012189D03*
X021001Y009889D03*
X025351Y008189D03*
X026771Y009459D03*
X027101Y009139D03*
X027231Y009549D03*
X026801Y009889D03*
X027221Y009989D03*
X027231Y010429D03*
X026811Y010319D03*
X026921Y010729D03*
X025301Y014189D03*
D51*
X024893Y014195D02*
X024385Y014195D01*
X024385Y014272D02*
X024377Y014305D01*
X024359Y014334D01*
X024335Y014359D01*
X024306Y014376D01*
X024273Y014385D01*
X023951Y014385D01*
X023951Y013990D01*
X023851Y013990D01*
X023851Y014385D01*
X023530Y014385D01*
X023497Y014376D01*
X023467Y014359D01*
X023443Y014334D01*
X023426Y014305D01*
X023417Y014272D01*
X023417Y013990D01*
X023851Y013990D01*
X023851Y013890D01*
X023417Y013890D01*
X023417Y013608D01*
X023426Y013575D01*
X023443Y013545D01*
X023467Y013521D01*
X023497Y013504D01*
X023530Y013495D01*
X023851Y013495D01*
X023851Y013890D01*
X023951Y013890D01*
X023951Y013990D01*
X024385Y013990D01*
X024385Y014272D01*
X024380Y014293D02*
X024903Y014293D01*
X024893Y014270D02*
X024893Y014107D01*
X024955Y013957D01*
X024994Y013918D01*
X024951Y013918D01*
X024951Y013582D01*
X025346Y013582D01*
X025346Y013780D01*
X025382Y013780D01*
X025532Y013843D01*
X025571Y013881D01*
X025572Y013880D01*
X025559Y013859D01*
X025551Y013826D01*
X025551Y013699D01*
X026046Y013699D01*
X026046Y013678D01*
X025551Y013678D01*
X025551Y013558D01*
X025527Y013558D01*
X025391Y013502D01*
X025346Y013457D01*
X025346Y013482D01*
X024951Y013482D01*
X024951Y013582D01*
X024851Y013582D01*
X024851Y013482D01*
X024456Y013482D01*
X024456Y013259D01*
X024460Y013245D01*
X024342Y013362D01*
X023460Y013362D01*
X023355Y013257D01*
X022275Y013257D01*
X022127Y013257D01*
X019825Y013257D01*
X019677Y013257D01*
X018551Y013257D01*
X018551Y014461D01*
X018644Y014461D01*
X018638Y014436D01*
X018638Y014075D01*
X019702Y014075D01*
X019702Y013975D01*
X018638Y013975D01*
X018638Y013614D01*
X018646Y013581D01*
X018664Y013551D01*
X018688Y013527D01*
X018717Y013510D01*
X018750Y013501D01*
X019702Y013501D01*
X019702Y013975D01*
X019802Y013975D01*
X019802Y014075D01*
X020866Y014075D01*
X020866Y014436D01*
X020859Y014461D01*
X021106Y014461D01*
X021098Y014431D01*
X021098Y014070D01*
X022162Y014070D01*
X022162Y013970D01*
X021098Y013970D01*
X021098Y013609D01*
X021106Y013576D01*
X021124Y013546D01*
X021148Y013522D01*
X021177Y013505D01*
X020768Y013505D01*
X020753Y013501D02*
X020786Y013510D01*
X020816Y013527D01*
X020840Y013551D01*
X020857Y013581D01*
X020866Y013614D01*
X020866Y013975D01*
X019802Y013975D01*
X019802Y013501D01*
X020753Y013501D01*
X020863Y013604D02*
X021099Y013604D01*
X021098Y013702D02*
X020866Y013702D01*
X020866Y013801D02*
X021098Y013801D01*
X021098Y013899D02*
X020866Y013899D01*
X020866Y014096D02*
X021098Y014096D01*
X021098Y014195D02*
X020866Y014195D01*
X020866Y014293D02*
X021098Y014293D01*
X021098Y014392D02*
X020866Y014392D01*
X021177Y013505D02*
X021210Y013496D01*
X022162Y013496D01*
X022162Y013970D01*
X022262Y013970D01*
X022262Y014070D01*
X023326Y014070D01*
X023326Y014431D01*
X023318Y014461D01*
X024997Y014461D01*
X024955Y014420D01*
X024893Y014270D01*
X024944Y014392D02*
X023326Y014392D01*
X023326Y014293D02*
X023423Y014293D01*
X023417Y014195D02*
X023326Y014195D01*
X023326Y014096D02*
X023417Y014096D01*
X023417Y013998D02*
X022262Y013998D01*
X022262Y013970D02*
X023326Y013970D01*
X023326Y013609D01*
X023317Y013576D01*
X023300Y013546D01*
X023276Y013522D01*
X023246Y013505D01*
X023494Y013505D01*
X023418Y013604D02*
X023325Y013604D01*
X023326Y013702D02*
X023417Y013702D01*
X023417Y013801D02*
X023326Y013801D01*
X023326Y013899D02*
X023851Y013899D01*
X023851Y013801D02*
X023951Y013801D01*
X023951Y013890D02*
X023951Y013495D01*
X024273Y013495D01*
X024306Y013504D01*
X024335Y013521D01*
X024359Y013545D01*
X024377Y013575D01*
X024385Y013608D01*
X024385Y013890D01*
X023951Y013890D01*
X023951Y013899D02*
X024519Y013899D01*
X024506Y013892D02*
X024482Y013868D01*
X024465Y013838D01*
X024456Y013805D01*
X024456Y013582D01*
X024851Y013582D01*
X024851Y013918D01*
X024569Y013918D01*
X024536Y013909D01*
X024506Y013892D01*
X024456Y013801D02*
X024385Y013801D01*
X024385Y013702D02*
X024456Y013702D01*
X024456Y013604D02*
X024384Y013604D01*
X024308Y013505D02*
X024851Y013505D01*
X024901Y013532D02*
X024901Y013689D01*
X024601Y013689D01*
X024851Y013702D02*
X024951Y013702D01*
X024951Y013604D02*
X024851Y013604D01*
X024951Y013505D02*
X025398Y013505D01*
X025346Y013604D02*
X025551Y013604D01*
X025551Y013702D02*
X025346Y013702D01*
X025431Y013801D02*
X025551Y013801D01*
X024951Y013801D02*
X024851Y013801D01*
X024851Y013899D02*
X024951Y013899D01*
X024938Y013998D02*
X024385Y013998D01*
X024385Y014096D02*
X024898Y014096D01*
X024456Y013406D02*
X018551Y013406D01*
X018551Y013308D02*
X023405Y013308D01*
X023246Y013505D02*
X023213Y013496D01*
X022262Y013496D01*
X022262Y013970D01*
X022262Y013899D02*
X022162Y013899D01*
X022162Y013801D02*
X022262Y013801D01*
X022262Y013702D02*
X022162Y013702D01*
X022162Y013604D02*
X022262Y013604D01*
X022262Y013505D02*
X022162Y013505D01*
X022162Y013998D02*
X019802Y013998D01*
X019802Y013899D02*
X019702Y013899D01*
X019702Y013801D02*
X019802Y013801D01*
X019802Y013702D02*
X019702Y013702D01*
X019702Y013604D02*
X019802Y013604D01*
X019802Y013505D02*
X019702Y013505D01*
X019702Y013998D02*
X018551Y013998D01*
X018551Y014096D02*
X018638Y014096D01*
X018638Y014195D02*
X018551Y014195D01*
X018551Y014293D02*
X018638Y014293D01*
X018638Y014392D02*
X018551Y014392D01*
X018551Y013899D02*
X018638Y013899D01*
X018638Y013801D02*
X018551Y013801D01*
X018551Y013702D02*
X018638Y013702D01*
X018640Y013604D02*
X018551Y013604D01*
X018551Y013505D02*
X018736Y013505D01*
X020121Y012517D02*
X021831Y012517D01*
X021831Y012281D01*
X021141Y012281D01*
X021018Y012158D01*
X021018Y011197D01*
X021141Y011074D01*
X023283Y011074D01*
X023406Y011197D01*
X023406Y012158D01*
X023283Y012281D01*
X022571Y012281D01*
X022571Y012517D01*
X023337Y012517D01*
X023337Y012435D01*
X023460Y012312D01*
X023861Y012312D01*
X023778Y012229D01*
X023778Y011465D01*
X023901Y011342D01*
X024901Y011342D01*
X025024Y011465D01*
X025024Y011519D01*
X025259Y011519D01*
X025259Y011096D01*
X025207Y011096D01*
X025084Y010974D01*
X025084Y009303D01*
X025095Y009293D01*
X024941Y009139D01*
X024456Y009139D01*
X024456Y009466D01*
X024379Y009652D01*
X024236Y009795D01*
X024050Y009872D01*
X023849Y009872D01*
X023662Y009795D01*
X023520Y009652D01*
X023443Y009466D01*
X023443Y009139D01*
X022605Y009139D01*
X022605Y009399D01*
X022594Y009465D01*
X022573Y009529D01*
X022543Y009589D01*
X022503Y009643D01*
X022456Y009691D01*
X022401Y009730D01*
X022342Y009761D01*
X022278Y009782D01*
X022226Y009790D01*
X022226Y009139D01*
X022129Y009139D01*
X022129Y009790D01*
X022078Y009782D01*
X022014Y009761D01*
X021954Y009730D01*
X021900Y009691D01*
X021852Y009643D01*
X021813Y009589D01*
X021782Y009529D01*
X021761Y009465D01*
X020858Y009465D01*
X020855Y009468D02*
X020825Y009485D01*
X020792Y009494D01*
X020549Y009494D01*
X020549Y009139D01*
X020449Y009139D01*
X020449Y009494D01*
X020206Y009494D01*
X020173Y009485D01*
X020144Y009468D01*
X020120Y009444D01*
X020102Y009414D01*
X020094Y009381D01*
X020094Y009139D01*
X019489Y009139D01*
X019489Y009451D01*
X019441Y009499D01*
X019533Y009499D01*
X019626Y009591D01*
X019719Y009499D01*
X020483Y009499D01*
X020606Y009622D01*
X020606Y009674D01*
X020648Y009674D01*
X020655Y009657D01*
X020770Y009543D01*
X020920Y009480D01*
X021082Y009480D01*
X021232Y009543D01*
X021347Y009657D01*
X021409Y009807D01*
X021409Y009970D01*
X021347Y010120D01*
X021232Y010234D01*
X021082Y010297D01*
X020920Y010297D01*
X020818Y010254D01*
X020606Y010254D01*
X020606Y010307D01*
X020514Y010400D01*
X020517Y010406D01*
X020526Y010439D01*
X020526Y010663D01*
X020151Y010663D01*
X020151Y010762D01*
X020526Y010762D01*
X020526Y010986D01*
X020517Y011019D01*
X020500Y011048D01*
X020476Y011072D01*
X020465Y011079D01*
X020823Y011079D01*
X020946Y011202D01*
X020946Y012163D01*
X020823Y012286D01*
X020121Y012286D01*
X020121Y012517D01*
X020121Y012421D02*
X021831Y012421D01*
X021831Y012322D02*
X020121Y012322D01*
X019752Y011689D02*
X019251Y011689D01*
X019752Y011682D02*
X019752Y011689D01*
X019737Y011079D02*
X019726Y011072D01*
X019702Y011048D01*
X019685Y011019D01*
X019676Y010986D01*
X019676Y010762D01*
X020051Y010762D01*
X020051Y010663D01*
X019676Y010663D01*
X019676Y010439D01*
X019685Y010406D01*
X019688Y010400D01*
X019626Y010338D01*
X019625Y010339D01*
X019656Y010370D01*
X019656Y011055D01*
X019633Y011079D01*
X019737Y011079D01*
X019698Y011041D02*
X019656Y011041D01*
X019656Y010943D02*
X019676Y010943D01*
X019676Y010844D02*
X019656Y010844D01*
X019656Y010746D02*
X020051Y010746D01*
X020151Y010746D02*
X023859Y010746D01*
X023858Y010742D02*
X023858Y010480D01*
X024351Y010480D01*
X024351Y010855D01*
X023971Y010855D01*
X023938Y010846D01*
X023908Y010829D01*
X023884Y010805D01*
X023867Y010775D01*
X023858Y010742D01*
X023858Y010647D02*
X020526Y010647D01*
X020526Y010549D02*
X023858Y010549D01*
X023858Y010380D02*
X023858Y010117D01*
X023867Y010084D01*
X023884Y010055D01*
X023908Y010031D01*
X023938Y010013D01*
X023971Y010005D01*
X024351Y010005D01*
X024351Y010380D01*
X023858Y010380D01*
X023858Y010352D02*
X020562Y010352D01*
X020526Y010450D02*
X024351Y010450D01*
X024351Y010480D02*
X024351Y010380D01*
X024451Y010380D01*
X024451Y010480D01*
X024351Y010480D01*
X024351Y010549D02*
X024451Y010549D01*
X024451Y010480D02*
X024451Y010855D01*
X024832Y010855D01*
X024865Y010846D01*
X024894Y010829D01*
X024918Y010805D01*
X024936Y010775D01*
X024944Y010742D01*
X024944Y010480D01*
X024451Y010480D01*
X024451Y010450D02*
X025084Y010450D01*
X025084Y010352D02*
X024944Y010352D01*
X024944Y010380D02*
X024451Y010380D01*
X024451Y010005D01*
X024832Y010005D01*
X024865Y010013D01*
X024894Y010031D01*
X024918Y010055D01*
X024936Y010084D01*
X024944Y010117D01*
X024944Y010380D01*
X024944Y010253D02*
X025084Y010253D01*
X025084Y010154D02*
X024944Y010154D01*
X024919Y010056D02*
X025084Y010056D01*
X025084Y009957D02*
X021409Y009957D01*
X021409Y009859D02*
X023817Y009859D01*
X023883Y010056D02*
X021373Y010056D01*
X021312Y010154D02*
X023858Y010154D01*
X023858Y010253D02*
X021187Y010253D01*
X021390Y009760D02*
X022013Y009760D01*
X022129Y009760D02*
X022226Y009760D01*
X022226Y009662D02*
X022129Y009662D01*
X022129Y009563D02*
X022226Y009563D01*
X022226Y009465D02*
X022129Y009465D01*
X022129Y009366D02*
X022226Y009366D01*
X022226Y009268D02*
X022129Y009268D01*
X022129Y009169D02*
X022226Y009169D01*
X022605Y009169D02*
X023443Y009169D01*
X023443Y009268D02*
X022605Y009268D01*
X022605Y009366D02*
X023443Y009366D01*
X023443Y009465D02*
X022594Y009465D01*
X022556Y009563D02*
X023483Y009563D01*
X023529Y009662D02*
X022485Y009662D01*
X022343Y009760D02*
X023628Y009760D01*
X024082Y009859D02*
X025084Y009859D01*
X025084Y009760D02*
X024271Y009760D01*
X024370Y009662D02*
X025084Y009662D01*
X025084Y009563D02*
X024416Y009563D01*
X024456Y009465D02*
X025084Y009465D01*
X025084Y009366D02*
X024456Y009366D01*
X024456Y009268D02*
X025070Y009268D01*
X024972Y009169D02*
X024456Y009169D01*
X024451Y010056D02*
X024351Y010056D01*
X024351Y010154D02*
X024451Y010154D01*
X024451Y010253D02*
X024351Y010253D01*
X024351Y010352D02*
X024451Y010352D01*
X024451Y010647D02*
X024351Y010647D01*
X024351Y010746D02*
X024451Y010746D01*
X024451Y010844D02*
X024351Y010844D01*
X023934Y010844D02*
X020526Y010844D01*
X020526Y010943D02*
X025084Y010943D01*
X025084Y010844D02*
X024868Y010844D01*
X024944Y010746D02*
X025084Y010746D01*
X025084Y010647D02*
X024944Y010647D01*
X024944Y010549D02*
X025084Y010549D01*
X025152Y011041D02*
X020504Y011041D01*
X020884Y011140D02*
X021074Y011140D01*
X021018Y011238D02*
X020946Y011238D01*
X020946Y011337D02*
X021018Y011337D01*
X021018Y011436D02*
X020946Y011436D01*
X020946Y011534D02*
X021018Y011534D01*
X021018Y011633D02*
X020946Y011633D01*
X020946Y011731D02*
X021018Y011731D01*
X021018Y011830D02*
X020946Y011830D01*
X020946Y011928D02*
X021018Y011928D01*
X021018Y012027D02*
X020946Y012027D01*
X020946Y012125D02*
X021018Y012125D01*
X021084Y012224D02*
X020885Y012224D01*
X022571Y012322D02*
X023450Y012322D01*
X023351Y012421D02*
X022571Y012421D01*
X023340Y012224D02*
X023778Y012224D01*
X023778Y012125D02*
X023406Y012125D01*
X023406Y012027D02*
X023778Y012027D01*
X023778Y011928D02*
X023406Y011928D01*
X023406Y011830D02*
X023778Y011830D01*
X023778Y011731D02*
X023406Y011731D01*
X023406Y011633D02*
X023778Y011633D01*
X023778Y011534D02*
X023406Y011534D01*
X023406Y011436D02*
X023807Y011436D01*
X023406Y011337D02*
X025259Y011337D01*
X025259Y011238D02*
X023406Y011238D01*
X023349Y011140D02*
X025259Y011140D01*
X025259Y011436D02*
X024995Y011436D01*
X026057Y012689D02*
X026251Y012689D01*
X026251Y012639D01*
X024456Y013308D02*
X024397Y013308D01*
X023951Y013505D02*
X023851Y013505D01*
X023851Y013604D02*
X023951Y013604D01*
X023951Y013702D02*
X023851Y013702D01*
X023851Y013998D02*
X023951Y013998D01*
X023951Y014096D02*
X023851Y014096D01*
X023851Y014195D02*
X023951Y014195D01*
X023951Y014293D02*
X023851Y014293D01*
X028235Y013678D02*
X028235Y013438D01*
X028235Y013199D01*
X028256Y013199D01*
X028256Y013438D01*
X028256Y013678D01*
X028235Y013678D01*
X028235Y013604D02*
X028256Y013604D01*
X028256Y013505D02*
X028235Y013505D01*
X028235Y013406D02*
X028256Y013406D01*
X028256Y013308D02*
X028235Y013308D01*
X028235Y013209D02*
X028256Y013209D01*
X028246Y012689D02*
X028196Y012639D01*
X028211Y011039D02*
X028390Y011039D01*
X028390Y010890D01*
X028451Y010890D01*
X028451Y010790D01*
X028390Y010790D01*
X028390Y010508D01*
X028398Y010475D01*
X028416Y010445D01*
X028440Y010421D01*
X028451Y010414D01*
X028451Y010262D01*
X028433Y010262D01*
X028310Y010139D01*
X028310Y010089D01*
X027923Y010089D01*
X027923Y010188D01*
X028338Y010188D01*
X028338Y010904D01*
X028329Y010937D01*
X028312Y010966D01*
X028288Y010991D01*
X028258Y011008D01*
X028225Y011016D01*
X028189Y011016D01*
X028197Y011024D01*
X028211Y011039D01*
X028325Y010943D02*
X028390Y010943D01*
X028338Y010844D02*
X028451Y010844D01*
X028390Y010746D02*
X028338Y010746D01*
X028338Y010647D02*
X028390Y010647D01*
X028390Y010549D02*
X028338Y010549D01*
X028338Y010450D02*
X028413Y010450D01*
X028451Y010352D02*
X028338Y010352D01*
X028338Y010253D02*
X028423Y010253D01*
X028325Y010154D02*
X027923Y010154D01*
X027923Y010189D02*
X027923Y010899D01*
X027823Y010899D01*
X027823Y010189D01*
X027923Y010189D01*
X027923Y010253D02*
X027823Y010253D01*
X027823Y010188D02*
X027823Y010089D01*
X027409Y010089D01*
X027409Y009373D01*
X027417Y009340D01*
X027434Y009311D01*
X027459Y009286D01*
X027488Y009269D01*
X027521Y009260D01*
X027823Y009260D01*
X027823Y010088D01*
X027923Y010088D01*
X027923Y009260D01*
X028225Y009260D01*
X028258Y009269D01*
X028288Y009286D01*
X028312Y009311D01*
X028320Y009325D01*
X028433Y009212D01*
X028451Y009212D01*
X028451Y009091D01*
X027733Y009091D01*
X027554Y009018D01*
X027475Y008939D01*
X026401Y008939D01*
X026401Y009028D01*
X026547Y009174D01*
X026591Y009281D01*
X026591Y009396D01*
X026591Y010868D01*
X026621Y010899D01*
X027409Y010899D01*
X027409Y010188D01*
X027823Y010188D01*
X027823Y010154D02*
X026591Y010154D01*
X026591Y010056D02*
X027409Y010056D01*
X027409Y009957D02*
X026591Y009957D01*
X026591Y009859D02*
X027409Y009859D01*
X027409Y009760D02*
X026591Y009760D01*
X026591Y009662D02*
X027409Y009662D01*
X027409Y009563D02*
X026591Y009563D01*
X026591Y009465D02*
X027409Y009465D01*
X027410Y009366D02*
X026591Y009366D01*
X026586Y009268D02*
X027495Y009268D01*
X027682Y009071D02*
X026443Y009071D01*
X026401Y008972D02*
X027509Y008972D01*
X027823Y009268D02*
X027923Y009268D01*
X027923Y009366D02*
X027823Y009366D01*
X027823Y009465D02*
X027923Y009465D01*
X027923Y009563D02*
X027823Y009563D01*
X027823Y009662D02*
X027923Y009662D01*
X027923Y009760D02*
X027823Y009760D01*
X027823Y009859D02*
X027923Y009859D01*
X027923Y009957D02*
X027823Y009957D01*
X027823Y010056D02*
X027923Y010056D01*
X027923Y010352D02*
X027823Y010352D01*
X027823Y010450D02*
X027923Y010450D01*
X027923Y010549D02*
X027823Y010549D01*
X027823Y010647D02*
X027923Y010647D01*
X027923Y010746D02*
X027823Y010746D01*
X027823Y010844D02*
X027923Y010844D01*
X027409Y010844D02*
X026591Y010844D01*
X026591Y010746D02*
X027409Y010746D01*
X027409Y010647D02*
X026591Y010647D01*
X026591Y010549D02*
X027409Y010549D01*
X027409Y010450D02*
X026591Y010450D01*
X026591Y010352D02*
X027409Y010352D01*
X027409Y010253D02*
X026591Y010253D01*
X026542Y009169D02*
X028451Y009169D01*
X028377Y009268D02*
X028251Y009268D01*
X028711Y009268D02*
X031822Y009268D01*
X031822Y009251D02*
X029287Y009251D01*
X029175Y009139D01*
X028711Y009139D01*
X028711Y009292D01*
X029001Y009292D01*
X029001Y009687D01*
X029101Y009687D01*
X029101Y009292D01*
X029600Y009292D01*
X029633Y009301D01*
X029662Y009318D01*
X029687Y009343D01*
X029704Y009372D01*
X029713Y009405D01*
X029713Y009687D01*
X029101Y009687D01*
X029101Y009787D01*
X029713Y009787D01*
X029713Y010069D01*
X029704Y010102D01*
X029687Y010132D01*
X029662Y010156D01*
X029633Y010173D01*
X029600Y010182D01*
X029101Y010182D01*
X029101Y009787D01*
X029001Y009787D01*
X029001Y010182D01*
X028711Y010182D01*
X028711Y010315D01*
X029670Y010315D01*
X029699Y010344D01*
X029773Y010344D01*
X029869Y010249D01*
X030633Y010249D01*
X030756Y010372D01*
X030756Y010374D01*
X030776Y010355D01*
X030806Y010337D01*
X030839Y010329D01*
X031101Y010329D01*
X031101Y010664D01*
X031201Y010664D01*
X031201Y010329D01*
X031464Y010329D01*
X031497Y010337D01*
X031526Y010355D01*
X031550Y010379D01*
X031567Y010408D01*
X031576Y010441D01*
X031576Y010665D01*
X031201Y010665D01*
X031201Y010764D01*
X031576Y010764D01*
X031576Y010988D01*
X031567Y011021D01*
X031564Y011027D01*
X031656Y011120D01*
X031656Y011805D01*
X031560Y011902D01*
X031822Y011902D01*
X031822Y009251D01*
X031822Y009366D02*
X029700Y009366D01*
X029713Y009465D02*
X031822Y009465D01*
X031822Y009563D02*
X029713Y009563D01*
X029713Y009662D02*
X031822Y009662D01*
X031822Y009760D02*
X029101Y009760D01*
X029101Y009662D02*
X029001Y009662D01*
X029001Y009563D02*
X029101Y009563D01*
X029101Y009465D02*
X029001Y009465D01*
X029001Y009366D02*
X029101Y009366D01*
X029205Y009169D02*
X028711Y009169D01*
X029001Y009859D02*
X029101Y009859D01*
X029101Y009957D02*
X029001Y009957D01*
X029001Y010056D02*
X029101Y010056D01*
X029101Y010154D02*
X029001Y010154D01*
X028711Y010253D02*
X029864Y010253D01*
X029664Y010154D02*
X031822Y010154D01*
X031822Y010056D02*
X029713Y010056D01*
X029713Y009957D02*
X031822Y009957D01*
X031822Y009859D02*
X029713Y009859D01*
X030638Y010253D02*
X031822Y010253D01*
X031822Y010352D02*
X031521Y010352D01*
X031576Y010450D02*
X031822Y010450D01*
X031822Y010549D02*
X031576Y010549D01*
X031576Y010647D02*
X031822Y010647D01*
X031822Y010746D02*
X031201Y010746D01*
X031201Y010647D02*
X031101Y010647D01*
X031101Y010549D02*
X031201Y010549D01*
X031201Y010450D02*
X031101Y010450D01*
X031101Y010352D02*
X031201Y010352D01*
X030781Y010352D02*
X030736Y010352D01*
X031576Y010844D02*
X031822Y010844D01*
X031822Y010943D02*
X031576Y010943D01*
X031578Y011041D02*
X031822Y011041D01*
X031822Y011140D02*
X031656Y011140D01*
X031656Y011238D02*
X031822Y011238D01*
X031822Y011337D02*
X031656Y011337D01*
X031656Y011436D02*
X031822Y011436D01*
X031822Y011534D02*
X031656Y011534D01*
X031656Y011633D02*
X031822Y011633D01*
X031822Y011731D02*
X031656Y011731D01*
X031632Y011830D02*
X031822Y011830D01*
X021871Y009662D02*
X021349Y009662D01*
X021253Y009563D02*
X021800Y009563D01*
X021761Y009465D02*
X021751Y009399D01*
X021751Y009139D01*
X020905Y009139D01*
X020905Y009381D01*
X020896Y009414D01*
X020879Y009444D01*
X020855Y009468D01*
X020905Y009366D02*
X021751Y009366D01*
X021751Y009268D02*
X020905Y009268D01*
X020905Y009169D02*
X021751Y009169D01*
X020749Y009563D02*
X020548Y009563D01*
X020549Y009465D02*
X020449Y009465D01*
X020449Y009366D02*
X020549Y009366D01*
X020549Y009268D02*
X020449Y009268D01*
X020449Y009169D02*
X020549Y009169D01*
X020094Y009169D02*
X019489Y009169D01*
X019489Y009268D02*
X020094Y009268D01*
X020094Y009366D02*
X019489Y009366D01*
X019475Y009465D02*
X020140Y009465D01*
X019654Y009563D02*
X019598Y009563D01*
X019638Y010352D02*
X019640Y010352D01*
X019656Y010450D02*
X019676Y010450D01*
X019676Y010549D02*
X019656Y010549D01*
X019656Y010647D02*
X019676Y010647D01*
X020606Y009662D02*
X020653Y009662D01*
D52*
X021451Y009489D03*
X021701Y009839D03*
X021501Y010189D03*
X021901Y010189D03*
X022301Y010189D03*
X022701Y010189D03*
X023101Y010189D03*
X022901Y010539D03*
X022501Y010539D03*
X022301Y010889D03*
X021901Y010889D03*
X021501Y010889D03*
X021701Y010539D03*
X022101Y010539D03*
X022701Y010889D03*
X023101Y010889D03*
X023301Y010539D03*
X023501Y010889D03*
X023951Y011089D03*
X024351Y011089D03*
X024751Y011089D03*
X024601Y010539D03*
X024201Y010539D03*
X023501Y010189D03*
X023301Y009839D03*
X022901Y009839D03*
X022501Y009839D03*
X022801Y009439D03*
X023201Y009439D03*
X024551Y009789D03*
X024751Y009439D03*
X026851Y013039D03*
X027151Y013289D03*
X026851Y013489D03*
X027151Y013689D03*
X026851Y013889D03*
X027451Y013889D03*
X027451Y013489D03*
X027891Y013449D03*
X028351Y013439D03*
X027451Y013039D03*
X025486Y013681D03*
X025101Y013489D03*
X024701Y013489D03*
X024801Y013889D03*
X024101Y013839D03*
X023701Y013839D03*
X023001Y013839D03*
X022601Y013839D03*
X022201Y013839D03*
X021801Y013839D03*
X021401Y013839D03*
X021451Y013349D03*
X021861Y013349D03*
X022281Y013359D03*
X022701Y013349D03*
X023151Y013359D03*
X020551Y013369D03*
X020555Y013822D03*
X020162Y013816D03*
X019751Y013839D03*
X019351Y013839D03*
X018951Y013839D03*
X018921Y013369D03*
X019331Y013359D03*
X019731Y013359D03*
X020151Y013359D03*
X029851Y009789D03*
X030251Y009789D03*
X030651Y009789D03*
X031051Y009789D03*
X030851Y010139D03*
X031251Y010139D03*
X031651Y010139D03*
X031451Y009789D03*
X031251Y009439D03*
X030851Y009439D03*
X030451Y009439D03*
X030051Y009439D03*
X031651Y009439D03*
D53*
X028301Y012633D02*
X028246Y012689D01*
X026057Y012689D02*
X026001Y012633D01*
X015676Y011639D02*
X015652Y011639D01*
X015652Y011638D02*
X015588Y011703D01*
X015434Y011767D01*
X015268Y011767D01*
X015114Y011703D01*
X014997Y011585D01*
X014933Y011432D01*
X014933Y011365D01*
X014901Y011288D01*
X014901Y011160D01*
X014896Y011155D01*
X014849Y011201D01*
X014352Y011201D01*
X014223Y011072D01*
X014223Y009867D01*
X014285Y009805D01*
X014285Y009718D01*
X013411Y009718D01*
X013291Y009718D01*
X013181Y009673D01*
X013041Y009533D01*
X012957Y009448D01*
X012911Y009338D01*
X012911Y009310D01*
X012808Y009206D01*
X012736Y009030D01*
X012740Y008325D01*
X012809Y008160D01*
X011661Y008160D01*
X011726Y008320D01*
X011723Y009025D01*
X011649Y009200D01*
X011514Y009333D01*
X011338Y009405D01*
X011148Y009404D01*
X010973Y009330D01*
X010840Y009195D01*
X010768Y009020D01*
X010771Y008315D01*
X010836Y008160D01*
X009080Y008160D01*
X009119Y008255D01*
X009119Y008422D01*
X009056Y008575D01*
X008938Y008693D01*
X008784Y008757D01*
X008618Y008757D01*
X008464Y008693D01*
X008444Y008672D01*
X008444Y009088D01*
X008315Y009217D01*
X008003Y009217D01*
X008003Y009799D01*
X007874Y009928D01*
X007404Y009928D01*
X007404Y009989D01*
X007923Y009989D01*
X007923Y009975D01*
X007987Y009822D01*
X008104Y009704D01*
X008258Y009640D01*
X008424Y009640D01*
X008578Y009704D01*
X008696Y009822D01*
X008759Y009975D01*
X008759Y010142D01*
X008696Y010295D01*
X008578Y010413D01*
X008424Y010477D01*
X008350Y010477D01*
X008373Y010500D01*
X008392Y010532D01*
X008401Y010567D01*
X008401Y010979D01*
X007711Y010979D01*
X007711Y011098D01*
X008401Y011098D01*
X008401Y011510D01*
X008392Y011545D01*
X008373Y011577D01*
X008347Y011603D01*
X008315Y011622D01*
X008280Y011631D01*
X007711Y011631D01*
X007711Y011099D01*
X007591Y011099D01*
X007591Y011631D01*
X007022Y011631D01*
X006987Y011622D01*
X006955Y011603D01*
X006929Y011577D01*
X006910Y011545D01*
X006901Y011510D01*
X006901Y011098D01*
X007591Y011098D01*
X007591Y010979D01*
X006901Y010979D01*
X006901Y010813D01*
X006571Y011143D01*
X006461Y011188D01*
X006341Y011188D01*
X005729Y011188D01*
X005591Y011327D01*
X005441Y011388D01*
X005591Y011450D01*
X005736Y011596D01*
X005815Y011786D01*
X005815Y011991D01*
X005736Y012181D01*
X005591Y012327D01*
X005441Y012388D01*
X005591Y012450D01*
X005649Y012509D01*
X005844Y012509D01*
X006036Y012316D01*
X006175Y012259D01*
X006327Y012259D01*
X010327Y012259D01*
X010466Y012316D01*
X010573Y012423D01*
X011111Y012961D01*
X011117Y012949D01*
X011497Y012569D01*
X011581Y012484D01*
X011691Y012439D01*
X014413Y012439D01*
X014410Y012426D01*
X014410Y012171D01*
X014728Y012171D01*
X014728Y012439D01*
X014844Y012439D01*
X014844Y012171D01*
X014728Y012171D01*
X014728Y012054D01*
X014844Y012054D01*
X014844Y011677D01*
X015041Y011677D01*
X015076Y011687D01*
X015108Y011705D01*
X015134Y011731D01*
X015153Y011763D01*
X015162Y011799D01*
X015162Y012054D01*
X014844Y012054D01*
X014844Y012171D01*
X015145Y012171D01*
X015676Y011639D01*
X015676Y011638D01*
X015652Y011638D01*
X015558Y011757D02*
X015456Y011757D01*
X015439Y011876D02*
X015162Y011876D01*
X015162Y011994D02*
X015321Y011994D01*
X015202Y012113D02*
X014844Y012113D01*
X014728Y012113D02*
X013925Y012113D01*
X013925Y011994D02*
X014410Y011994D01*
X014410Y012054D02*
X014410Y011799D01*
X014419Y011763D01*
X014438Y011731D01*
X014464Y011705D01*
X014496Y011687D01*
X014531Y011677D01*
X014728Y011677D01*
X014728Y012054D01*
X014410Y012054D01*
X014410Y012232D02*
X013925Y012232D01*
X013925Y012291D02*
X013915Y012327D01*
X013897Y012359D01*
X013871Y012385D01*
X013839Y012403D01*
X013803Y012413D01*
X013372Y012413D01*
X013372Y011861D01*
X013253Y011861D01*
X013253Y012413D01*
X012822Y012413D01*
X012786Y012403D01*
X012754Y012385D01*
X012728Y012359D01*
X012710Y012327D01*
X012700Y012291D01*
X012700Y011860D01*
X013252Y011860D01*
X013252Y011740D01*
X013253Y011740D02*
X013372Y011740D01*
X013372Y011188D01*
X013803Y011188D01*
X013839Y011198D01*
X013871Y011216D01*
X013897Y011242D01*
X013915Y011274D01*
X013925Y011310D01*
X013925Y011740D01*
X013373Y011740D01*
X013373Y011860D01*
X013925Y011860D01*
X013925Y012291D01*
X013902Y012350D02*
X014410Y012350D01*
X014728Y012350D02*
X014844Y012350D01*
X014844Y012232D02*
X014728Y012232D01*
X014728Y011994D02*
X014844Y011994D01*
X014844Y011876D02*
X014728Y011876D01*
X014728Y011757D02*
X014844Y011757D01*
X015050Y011639D02*
X013925Y011639D01*
X013925Y011520D02*
X014970Y011520D01*
X014933Y011402D02*
X013925Y011402D01*
X013918Y011283D02*
X014901Y011283D01*
X014886Y011165D02*
X014901Y011165D01*
X014315Y011165D02*
X012118Y011165D01*
X012120Y011168D02*
X012129Y011203D01*
X012129Y011655D01*
X012129Y012106D01*
X012120Y012142D01*
X012101Y012174D01*
X012075Y012200D01*
X012043Y012218D01*
X012008Y012228D01*
X011871Y012228D01*
X011735Y012228D01*
X011699Y012218D01*
X011667Y012200D01*
X011641Y012174D01*
X011623Y012142D01*
X011621Y012137D01*
X011620Y012142D01*
X011601Y012174D01*
X011575Y012200D01*
X011543Y012218D01*
X011508Y012228D01*
X011371Y012228D01*
X011235Y012228D01*
X011199Y012218D01*
X011167Y012200D01*
X011141Y012174D01*
X011123Y012142D01*
X011121Y012137D01*
X011120Y012142D01*
X011101Y012174D01*
X011075Y012200D01*
X011043Y012218D01*
X011008Y012228D01*
X010871Y012228D01*
X010735Y012228D01*
X010699Y012218D01*
X010667Y012200D01*
X010641Y012174D01*
X010623Y012142D01*
X010621Y012137D01*
X010620Y012142D01*
X010601Y012174D01*
X010575Y012200D01*
X010543Y012218D01*
X010508Y012228D01*
X010371Y012228D01*
X010235Y012228D01*
X010199Y012218D01*
X010167Y012200D01*
X010141Y012174D01*
X010123Y012142D01*
X010113Y012106D01*
X010113Y011655D01*
X010371Y011655D01*
X010371Y012228D01*
X010371Y011655D01*
X010371Y011655D01*
X010371Y011655D01*
X010113Y011655D01*
X010113Y011203D01*
X010123Y011168D01*
X010141Y011136D01*
X010167Y011110D01*
X010199Y011091D01*
X010235Y011082D01*
X010371Y011082D01*
X010371Y011654D01*
X010371Y011654D01*
X010371Y011082D01*
X010508Y011082D01*
X010543Y011091D01*
X010575Y011110D01*
X010601Y011136D01*
X010620Y011168D01*
X010621Y011173D01*
X010623Y011168D01*
X010641Y011136D01*
X010667Y011110D01*
X010699Y011091D01*
X010735Y011082D01*
X010871Y011082D01*
X010871Y011654D01*
X010871Y011654D01*
X010871Y011082D01*
X011008Y011082D01*
X011043Y011091D01*
X011075Y011110D01*
X011101Y011136D01*
X011120Y011168D01*
X011121Y011173D01*
X011123Y011168D01*
X011141Y011136D01*
X011167Y011110D01*
X011199Y011091D01*
X011235Y011082D01*
X011371Y011082D01*
X011371Y011654D01*
X011371Y011654D01*
X011371Y011082D01*
X011508Y011082D01*
X011543Y011091D01*
X011575Y011110D01*
X011601Y011136D01*
X011620Y011168D01*
X011621Y011173D01*
X011623Y011168D01*
X011641Y011136D01*
X011667Y011110D01*
X011699Y011091D01*
X011735Y011082D01*
X011871Y011082D01*
X011871Y011654D01*
X011871Y011654D01*
X011871Y011082D01*
X012008Y011082D01*
X012043Y011091D01*
X012075Y011110D01*
X012101Y011136D01*
X012120Y011168D01*
X012129Y011283D02*
X012707Y011283D01*
X012710Y011274D02*
X012728Y011242D01*
X012754Y011216D01*
X012786Y011198D01*
X012822Y011188D01*
X013253Y011188D01*
X013253Y011740D01*
X013252Y011740D02*
X012700Y011740D01*
X012700Y011310D01*
X012710Y011274D01*
X012700Y011402D02*
X012129Y011402D01*
X012129Y011520D02*
X012700Y011520D01*
X012700Y011639D02*
X012129Y011639D01*
X012129Y011655D02*
X011871Y011655D01*
X011871Y012228D01*
X011871Y011655D01*
X011871Y011655D01*
X011871Y011655D01*
X011613Y011655D01*
X011371Y011655D01*
X011371Y012228D01*
X011371Y011655D01*
X011371Y011655D01*
X011371Y011655D01*
X011129Y011655D01*
X010871Y011655D01*
X010871Y012228D01*
X010871Y011655D01*
X010871Y011655D01*
X010871Y011655D01*
X010629Y011655D01*
X010371Y011655D01*
X010371Y011655D01*
X010629Y011655D01*
X010871Y011655D01*
X010871Y011655D01*
X011129Y011655D01*
X011371Y011655D01*
X011371Y011655D01*
X011613Y011655D01*
X011871Y011655D01*
X012129Y011655D01*
X012129Y011757D02*
X013252Y011757D01*
X013253Y011639D02*
X013372Y011639D01*
X013373Y011757D02*
X014423Y011757D01*
X014410Y011876D02*
X013925Y011876D01*
X013372Y011876D02*
X013253Y011876D01*
X013253Y011994D02*
X013372Y011994D01*
X013372Y012113D02*
X013253Y012113D01*
X013253Y012232D02*
X013372Y012232D01*
X013372Y012350D02*
X013253Y012350D01*
X012723Y012350D02*
X010500Y012350D01*
X010619Y012469D02*
X011619Y012469D01*
X011478Y012587D02*
X010737Y012587D01*
X010856Y012706D02*
X011360Y012706D01*
X011241Y012824D02*
X010974Y012824D01*
X011093Y012943D02*
X011122Y012943D01*
X011371Y012113D02*
X011371Y012113D01*
X011371Y011994D02*
X011371Y011994D01*
X011371Y011876D02*
X011371Y011876D01*
X011371Y011757D02*
X011371Y011757D01*
X011371Y011639D02*
X011371Y011639D01*
X011371Y011520D02*
X011371Y011520D01*
X011371Y011402D02*
X011371Y011402D01*
X011371Y011283D02*
X011371Y011283D01*
X011371Y011165D02*
X011371Y011165D01*
X011124Y011165D02*
X011118Y011165D01*
X010871Y011165D02*
X010871Y011165D01*
X010871Y011283D02*
X010871Y011283D01*
X010871Y011402D02*
X010871Y011402D01*
X010871Y011520D02*
X010871Y011520D01*
X010871Y011639D02*
X010871Y011639D01*
X010871Y011757D02*
X010871Y011757D01*
X010871Y011876D02*
X010871Y011876D01*
X010871Y011994D02*
X010871Y011994D01*
X010871Y012113D02*
X010871Y012113D01*
X010371Y012113D02*
X010371Y012113D01*
X010371Y011994D02*
X010371Y011994D01*
X010371Y011876D02*
X010371Y011876D01*
X010371Y011757D02*
X010371Y011757D01*
X010371Y011639D02*
X010371Y011639D01*
X010371Y011520D02*
X010371Y011520D01*
X010371Y011402D02*
X010371Y011402D01*
X010371Y011283D02*
X010371Y011283D01*
X010371Y011165D02*
X010371Y011165D01*
X010124Y011165D02*
X008401Y011165D01*
X008401Y011283D02*
X010113Y011283D01*
X010113Y011402D02*
X008401Y011402D01*
X008398Y011520D02*
X010113Y011520D01*
X010113Y011639D02*
X005754Y011639D01*
X005803Y011757D02*
X010113Y011757D01*
X010113Y011876D02*
X005815Y011876D01*
X005813Y011994D02*
X010113Y011994D01*
X010115Y012113D02*
X005764Y012113D01*
X005686Y012232D02*
X012700Y012232D01*
X012700Y012113D02*
X012127Y012113D01*
X012129Y011994D02*
X012700Y011994D01*
X012700Y011876D02*
X012129Y011876D01*
X011871Y011876D02*
X011871Y011876D01*
X011871Y011994D02*
X011871Y011994D01*
X011871Y012113D02*
X011871Y012113D01*
X011871Y011757D02*
X011871Y011757D01*
X011871Y011655D02*
X011871Y011655D01*
X011871Y011639D02*
X011871Y011639D01*
X011871Y011520D02*
X011871Y011520D01*
X011871Y011402D02*
X011871Y011402D01*
X011871Y011283D02*
X011871Y011283D01*
X011871Y011165D02*
X011871Y011165D01*
X011624Y011165D02*
X011618Y011165D01*
X010624Y011165D02*
X010618Y011165D01*
X008728Y010216D02*
X014223Y010216D01*
X014223Y010098D02*
X008759Y010098D01*
X008759Y009979D02*
X014223Y009979D01*
X014229Y009861D02*
X008712Y009861D01*
X008616Y009742D02*
X014285Y009742D01*
X014223Y010335D02*
X008656Y010335D01*
X008480Y010453D02*
X014223Y010453D01*
X014223Y010572D02*
X008401Y010572D01*
X008401Y010691D02*
X014223Y010691D01*
X014223Y010809D02*
X008401Y010809D01*
X008401Y010928D02*
X014223Y010928D01*
X014223Y011046D02*
X007711Y011046D01*
X007711Y011165D02*
X007591Y011165D01*
X007591Y011283D02*
X007711Y011283D01*
X007711Y011402D02*
X007591Y011402D01*
X007591Y011520D02*
X007711Y011520D01*
X007591Y011046D02*
X006668Y011046D01*
X006786Y010928D02*
X006901Y010928D01*
X006901Y011165D02*
X006518Y011165D01*
X006901Y011283D02*
X005634Y011283D01*
X005473Y011402D02*
X006901Y011402D01*
X006904Y011520D02*
X005661Y011520D01*
X005534Y012350D02*
X006002Y012350D01*
X005884Y012469D02*
X005609Y012469D01*
X007404Y009979D02*
X007923Y009979D01*
X007941Y009861D02*
X007970Y009861D01*
X008003Y009742D02*
X008066Y009742D01*
X008003Y009624D02*
X013132Y009624D01*
X013013Y009505D02*
X008003Y009505D01*
X008003Y009387D02*
X011107Y009387D01*
X010911Y009268D02*
X008003Y009268D01*
X008383Y009149D02*
X010821Y009149D01*
X010772Y009031D02*
X008444Y009031D01*
X008444Y008912D02*
X010768Y008912D01*
X010769Y008794D02*
X008444Y008794D01*
X008444Y008675D02*
X008447Y008675D01*
X008956Y008675D02*
X010770Y008675D01*
X010770Y008557D02*
X009063Y008557D01*
X009112Y008438D02*
X010771Y008438D01*
X010771Y008320D02*
X009119Y008320D01*
X009097Y008201D02*
X010819Y008201D01*
X011678Y008201D02*
X012792Y008201D01*
X012742Y008320D02*
X011726Y008320D01*
X011726Y008438D02*
X012739Y008438D01*
X012739Y008557D02*
X011725Y008557D01*
X011725Y008675D02*
X012738Y008675D01*
X012737Y008794D02*
X011724Y008794D01*
X011723Y008912D02*
X012737Y008912D01*
X012737Y009031D02*
X011720Y009031D01*
X011670Y009149D02*
X012785Y009149D01*
X012870Y009268D02*
X011580Y009268D01*
X011384Y009387D02*
X012931Y009387D01*
X013253Y011283D02*
X013372Y011283D01*
X013372Y011402D02*
X013253Y011402D01*
X013253Y011520D02*
X013372Y011520D01*
X015149Y011757D02*
X015246Y011757D01*
M02*
