%
M48
M72
T01C0.0197
T02C0.0236
T03C0.0276
T04C0.0315
T05C0.0335
T06C0.0394
T07C0.0400
T08C0.0984
%
T01
X18921Y13369
X19331Y13359
X19731Y13359
X20151Y13359
X20162Y13816
X19751Y13839
X19351Y13839
X18951Y13839
X20555Y13822
X20551Y13369
X21451Y13349
X21861Y13349
X22281Y13359
X22701Y13349
X23151Y13359
X23001Y13839
X22601Y13839
X22201Y13839
X21801Y13839
X21401Y13839
X23701Y13839
X24101Y13839
X24701Y13489
X25101Y13489
X25486Y13681
X24801Y13889
X26851Y13889
X27151Y13689
X27451Y13889
X27451Y13489
X27151Y13289
X26851Y13489
X26851Y13039
X27451Y13039
X27891Y13449
X28351Y13439
X24751Y11089
X24351Y11089
X23951Y11089
X23501Y10889
X23301Y10539
X22901Y10539
X22501Y10539
X22301Y10889
X21901Y10889
X21501Y10889
X21701Y10539
X22101Y10539
X21901Y10189
X21501Y10189
X21701Y9839
X21451Y9489
X22301Y10189
X22701Y10189
X23101Y10189
X23501Y10189
X23301Y9839
X22901Y9839
X22501Y9839
X22801Y9439
X23201Y9439
X24551Y9789
X24751Y9439
X24601Y10539
X24201Y10539
X23101Y10889
X22701Y10889
X29851Y9789
X30251Y9789
X30651Y9789
X31051Y9789
X30851Y10139
X31251Y10139
X31651Y10139
X31451Y9789
X31251Y9439
X30851Y9439
X30451Y9439
X30051Y9439
X31651Y9439
T02
X5251Y3539
X6851Y3939
X8801Y4289
X8801Y5139
X10451Y5589
X11251Y6189
X10581Y8359
X10131Y8379
X9931Y8779
X10381Y8769
X10281Y9329
X10701Y9349
X10521Y9769
X10311Y10139
X10741Y10139
X11161Y10149
X10941Y9769
X11591Y10139
X12041Y10139
X12471Y10129
X12891Y10129
X12701Y10529
X12271Y10539
X11841Y10539
X11391Y10529
X11191Y10899
X10961Y10539
X10761Y10909
X10321Y10919
X10101Y10529
X10531Y10519
X9871Y10149
X10071Y9769
X9861Y9339
X9571Y9719
X9411Y10139
X8961Y10089
X8761Y10479
X9211Y10529
X9641Y10519
X9441Y10919
X9011Y10919
X9161Y11329
X8731Y11339
X8571Y10929
X7951Y11239
X8071Y11729
X7851Y12089
X7621Y11729
X7401Y12089
X7181Y11739
X6951Y12089
X6731Y11729
X6501Y12089
X6691Y11289
X7351Y11239
X8511Y11719
X8301Y12089
X8751Y12089
X8971Y11729
X9201Y12089
X9421Y11729
X9651Y12089
X9851Y11719
X9631Y11319
X9871Y10919
X10371Y11659
X10871Y11659
X11371Y11659
X11871Y11659
X12311Y11759
X12281Y11289
X12481Y10919
X12051Y10929
X11621Y10919
X12911Y10909
X13341Y10909
X13141Y10509
X13391Y10149
X13841Y10149
X13601Y10519
X14031Y10559
X13821Y10959
X14091Y11359
X14161Y11799
X14151Y12239
X13551Y11989
X13101Y11989
X13301Y11589
X12311Y12239
X11351Y12389
X11101Y12789
X10801Y12389
X8341Y10059
X8221Y9419
X8671Y8969
X8701Y8339
X6851Y7689
X4740Y7850
X4251Y8289
X4251Y6989
X3651Y6989
X11871Y8949
X12231Y8689
X11941Y8359
X12531Y8339
X12571Y8979
X14751Y7239
X15201Y6689
X15051Y6089
X15051Y5539
X15451Y5089
X15751Y5539
X17061Y4969
X20901Y2689
X25351Y8189
X26771Y9459
X27101Y9139
X27231Y9549
X26801Y9889
X27221Y9989
X27231Y10429
X26811Y10319
X26921Y10729
X25301Y14189
X21001Y9889
X15351Y11349
X14601Y11369
X14801Y12189
T03
X23901Y4739
X5951Y2189
T04
X8751Y2117
X8751Y3117
X11247Y8670
X13216Y8680
T05
X28105Y8606
X28105Y7819
X28105Y7031
T06
X23949Y6509
X22178Y6509
X22178Y9068
X23949Y9068
X5001Y10889
X5001Y11889
X5001Y12889
X5001Y13889
T07
X9811Y2649
X10811Y2649
X11811Y2649
X12811Y2649
X13811Y2649
X14811Y2649
X15811Y2649
X16811Y2649
X17811Y2649
T08
X25240Y2270
X9492Y13490
M30
